<svg id="eqt19hqiv0x1" xmlns="http://www.w3.org/2000/svg" xmlns:xlink="http://www.w3.org/1999/xlink" viewBox="0 0 640 480" shape-rendering="geometricPrecision" text-rendering="geometricPrecision"><style><![CDATA[#eqt19hqiv0x3_tr {animation: eqt19hqiv0x3_tr__tr 8000ms linear infinite normal forwards}@keyframes eqt19hqiv0x3_tr__tr { 0% {transform: translate(250.005531px,249.994499px) rotate(0deg);animation-timing-function: cubic-bezier(0.420000,0,1,1)} 100% {transform: translate(250.005531px,249.994499px) rotate(1800deg)} }#eqt19hqiv0x5 {animation: eqt19hqiv0x5__m 8000ms linear infinite normal forwards}@keyframes eqt19hqiv0x5__m { 0% {d: path('M170.460000,245.290000C176.760000,259.150000,213.850000,251.910000,231.920000,257.850000C207.130000,238.640000,203.040000,231.560000,192.440000,219.640000C181.840000,207.720000,169.890000,216.340000,151.830000,208.190000C133.770000,200.040000,141.220000,195.700000,128.810000,180.850000C118.880000,168.970000,90.480000,161.160000,77.510000,158.740000C84.700000,161.860000,100.980000,170,108.550000,177.640000C118.020000,187.180000,115.440000,205.810000,135.850000,216.890000C156.260000,227.960000,162.590000,227.970000,170.460000,245.290000Z')} 26.250000% {d: path('M170.460000,245.290000C176.760000,259.150000,213.850000,251.910000,231.920000,257.850000C207.130000,238.640000,202.792910,222.187671,192.192910,210.267671C181.592910,198.347671,169.890000,216.340000,151.830000,208.190000C133.770000,200.040000,139.475782,185.359678,127.065782,170.509678C117.135782,158.629678,101.995857,181.458919,67.202058,164.231604C74.392058,191.589323,109.727598,179.237527,117.297598,186.877527C126.767598,196.417527,127.314225,202.276280,130.474776,219.640000C139.320523,245.254874,162.590000,227.970000,170.460000,245.290000Z')} 52.500000% {d: path('M170.460000,245.290000C176.760000,259.150000,213.850000,251.910000,231.920000,257.850000C207.130000,238.640000,203.040000,231.560000,192.440000,219.640000C181.840000,207.720000,169.890000,216.340000,151.830000,208.190000C133.770000,200.040000,141.220000,195.700000,128.810000,180.850000C118.880000,168.970000,90.480000,161.160000,77.510000,158.740000C84.700000,161.860000,100.980000,170,108.550000,177.640000C118.020000,187.180000,115.440000,205.810000,135.850000,216.890000C156.260000,227.960000,162.590000,227.970000,170.460000,245.290000Z')} 76.250000% {d: path('M170.460000,245.290000C176.760000,259.150000,213.850000,251.910000,231.920000,257.850000C207.130000,238.640000,202.792910,222.187671,192.192910,210.267671C181.592910,198.347671,169.890000,216.340000,151.830000,208.190000C133.770000,200.040000,139.475782,185.359678,127.065782,170.509678C117.135782,158.629678,101.995857,181.458919,67.202058,164.231604C74.392058,191.589323,109.727598,179.237527,117.297598,186.877527C126.767598,196.417527,113.536744,208.820664,130.474776,219.640000C151.999431,227.247144,162.590000,227.970000,170.460000,245.290000Z')} 100% {d: path('M170.460000,245.290000C176.760000,259.150000,213.850000,251.910000,231.920000,257.850000C207.130000,238.640000,203.040000,231.560000,192.440000,219.640000C181.840000,207.720000,169.890000,216.340000,151.830000,208.190000C133.770000,200.040000,141.220000,195.700000,128.810000,180.850000C118.880000,168.970000,90.480000,161.160000,77.510000,158.740000C84.700000,161.860000,100.980000,170,108.550000,177.640000C118.020000,187.180000,115.440000,205.810000,135.850000,216.890000C156.260000,227.960000,162.590000,227.970000,170.460000,245.290000Z')} }#eqt19hqiv0x6 {animation: eqt19hqiv0x6__m 8000ms linear infinite normal forwards}@keyframes eqt19hqiv0x6__m { 0% {d: path('M170.460000,245.290000C176.760000,259.150000,213.850000,251.910000,231.920000,257.850000C207.130000,238.640000,203.040000,231.560000,192.440000,219.640000C181.840000,207.720000,169.890000,216.340000,151.830000,208.190000C133.770000,200.040000,141.220000,195.700000,128.810000,180.850000C118.880000,168.970000,90.480000,161.160000,77.510000,158.740000C84.700000,161.860000,100.980000,170,108.550000,177.640000C118.020000,187.180000,115.440000,205.810000,135.850000,216.890000C156.260000,227.960000,162.590000,227.970000,170.460000,245.290000Z')} 26.250000% {d: path('M170.460000,245.290000C176.760000,259.150000,213.850000,251.910000,231.920000,257.850000C207.130000,238.640000,202.792910,222.187671,192.192910,210.267671C181.592910,198.347671,169.890000,216.340000,151.830000,208.190000C133.770000,200.040000,139.475782,185.359678,127.065782,170.509678C117.135782,158.629678,101.995857,181.458919,67.202058,164.231604C74.392058,191.589323,109.727598,179.237527,117.297598,186.877527C126.767598,196.417527,127.314225,202.276280,130.474776,219.640000C139.320523,245.254874,162.590000,227.970000,170.460000,245.290000Z')} 52.500000% {d: path('M170.460000,245.290000C176.760000,259.150000,213.850000,251.910000,231.920000,257.850000C207.130000,238.640000,203.040000,231.560000,192.440000,219.640000C181.840000,207.720000,169.890000,216.340000,151.830000,208.190000C133.770000,200.040000,141.220000,195.700000,128.810000,180.850000C118.880000,168.970000,90.480000,161.160000,77.510000,158.740000C84.700000,161.860000,100.980000,170,108.550000,177.640000C118.020000,187.180000,115.440000,205.810000,135.850000,216.890000C156.260000,227.960000,162.590000,227.970000,170.460000,245.290000Z')} 76.250000% {d: path('M170.460000,245.290000C176.760000,259.150000,213.850000,251.910000,231.920000,257.850000C207.130000,238.640000,202.792910,222.187671,192.192910,210.267671C181.592910,198.347671,169.890000,216.340000,151.830000,208.190000C133.770000,200.040000,139.475782,185.359678,127.065782,170.509678C117.135782,158.629678,101.995857,181.458919,67.202058,164.231604C74.392058,191.589323,109.727598,179.237527,117.297598,186.877527C126.767598,196.417527,113.536744,208.820664,130.474776,219.640000C151.999431,227.247144,162.590000,227.970000,170.460000,245.290000Z')} 100% {d: path('M170.460000,245.290000C176.760000,259.150000,213.850000,251.910000,231.920000,257.850000C207.130000,238.640000,203.040000,231.560000,192.440000,219.640000C181.840000,207.720000,169.890000,216.340000,151.830000,208.190000C133.770000,200.040000,141.220000,195.700000,128.810000,180.850000C118.880000,168.970000,90.480000,161.160000,77.510000,158.740000C84.700000,161.860000,100.980000,170,108.550000,177.640000C118.020000,187.180000,115.440000,205.810000,135.850000,216.890000C156.260000,227.960000,162.590000,227.970000,170.460000,245.290000Z')} }]]></style><g id="eqt19hqiv0x2" transform="matrix(1 0 0 1 68.03000640499999 -10)"><g id="eqt19hqiv0x3_tr" transform="translate(250.005531,249.994499) rotate(0)"><path id="eqt19hqiv0x3" d="M142.060000,243.810000C132.670000,242.950000,126.230000,233.880000,128.590000,224.750000C131.100000,215.020000,134.760000,205.610000,139.490000,196.800000C146.990000,182.770000,157.130000,170.270000,169.150000,160.080000C181.160000,149.880000,195.060000,141.980000,209.900000,136.960000C224.730000,131.920000,240.460000,129.780000,255.930000,130.580000C271.410000,131.340000,286.730000,135.030000,300.760000,141.430000C314.790000,147.810000,327.520000,156.840000,338.100000,167.850000C348.700000,178.850000,357.160000,191.810000,362.920000,205.840000C368.690000,219.860000,371.720000,234.940000,371.900000,249.950000C372,257.460000,371.410000,264.960000,370.120000,272.330000C368.820000,279.700000,366.810000,286.940000,364.150000,293.910000C358.840000,307.850000,350.870000,320.690000,340.890000,331.580000C330.910000,342.480000,318.910000,351.440000,305.730000,357.860000C292.550000,364.300000,278.200000,368.160000,263.700000,369.250000C249.210000,370.320000,234.570000,368.730000,220.800000,364.420000C207.030000,360.140000,194.160000,353.240000,183.030000,344.270000C171.880000,335.330000,162.540000,324.260000,155.540000,311.940000C148.540000,299.620000,143.910000,286.030000,141.980000,272.120000C144.560000,285.930000,149.780000,299.170000,157.220000,310.940000C164.650000,322.710000,174.260000,333.040000,185.420000,341.170000C196.560000,349.320000,209.180000,355.320000,222.410000,358.770000C235.640000,362.240000,249.480000,363.070000,262.930000,361.440000C276.390000,359.790000,289.450000,355.590000,301.220000,349.140000C313,342.700000,323.500000,334.050000,332.020000,323.820000C340.550000,313.600000,347.090000,301.820000,351.200000,289.300000C353.260000,283.040000,354.730000,276.610000,355.560000,270.100000C356.380000,263.590000,356.590000,257.010000,356.200000,250.490000C355.430000,237.440000,352.210000,224.630000,346.730000,212.920000C341.270000,201.200000,333.580000,190.590000,324.260000,181.780000C314.950000,172.960000,304.010000,165.970000,292.230000,161.270000C280.450000,156.560000,267.850000,154.160000,255.270000,154.140000C242.670000,154.090000,230.180000,156.420000,218.610000,160.970000C207.040000,165.510000,196.400000,172.250000,187.390000,180.670000C178.370000,189.080000,171,199.150000,165.760000,210.160000C162.460000,217.070000,160.030000,224.340000,158.480000,231.780000C156.880000,239.370000,149.790000,244.520000,142.060000,243.810000L142.060000,243.810000Z" transform="scale(-1,1) translate(-250.005531,-249.994499)" fill="rgb(32,34,81)" stroke="none" stroke-width="1"/></g><path id="eqt19hqiv0x4" d="M250,129C316.830000,129,371,183.170000,371,250C371,316.830000,316.830000,371,250,371C189.780000,371,139.830000,327,130.550000,269.400000" fill="none" stroke="none" stroke-width="1"/><path id="eqt19hqiv0x5" d="M170.460000,245.290000C176.760000,259.150000,213.850000,251.910000,231.920000,257.850000C207.130000,238.640000,203.040000,231.560000,192.440000,219.640000C181.840000,207.720000,169.890000,216.340000,151.830000,208.190000C133.770000,200.040000,141.220000,195.700000,128.810000,180.850000C118.880000,168.970000,90.480000,161.160000,77.510000,158.740000C84.700000,161.860000,100.980000,170,108.550000,177.640000C118.020000,187.180000,115.440000,205.810000,135.850000,216.890000C156.260000,227.960000,162.590000,227.970000,170.460000,245.290000Z" transform="matrix(1.20000000000000 0 0 1.20000000000000 -30.94300231933593 -41.65900268554685)" fill="rgb(32,34,81)" stroke="rgb(255,255,255)" stroke-width="3.082800" stroke-linejoin="round"/><path id="eqt19hqiv0x6" d="M170.460000,245.290000C176.760000,259.150000,213.850000,251.910000,231.920000,257.850000C207.130000,238.640000,203.040000,231.560000,192.440000,219.640000C181.840000,207.720000,169.890000,216.340000,151.830000,208.190000C133.770000,200.040000,141.220000,195.700000,128.810000,180.850000C118.880000,168.970000,90.480000,161.160000,77.510000,158.740000C84.700000,161.860000,100.980000,170,108.550000,177.640000C118.020000,187.180000,115.440000,205.810000,135.850000,216.890000C156.260000,227.960000,162.590000,227.970000,170.460000,245.290000Z" transform="matrix(-1.20000000000000 0 0 1.20000000000000 528.73935051269530 -41.65900268554685)" fill="rgb(32,34,81)" stroke="rgb(255,255,255)" stroke-width="3.082800" stroke-linejoin="round"/></g></svg>