<svg width="165" height="48" viewBox="0 0 165 48" fill="none" xmlns="http://www.w3.org/2000/svg">
<path d="M118.33 28.6244L117.217 29.305C117.137 29.2256 117.053 29.1063 116.934 28.9871L117.927 26.1504C117.098 25.9864 116.695 27.3427 116.437 28.5847C115.836 28.0879 115.155 27.5911 114.723 27.2334C114.723 26.5925 114.564 26.3888 113.923 26.7912C113.923 26.2299 113.68 25.7082 113.68 25.2263C113.68 24.7444 114.484 24.2725 114.484 23.3931C114.484 20.7551 117.401 14.0782 119.497 10.5658C118.817 10.4863 116.819 11.5594 115.697 12.1605C114.142 10.5658 112.979 7.19253 115.096 6.64605C117.972 5.88595 120.809 3.9683 123.77 3.16846C124.592 3.22827 125.401 3.41773 126.164 3.72984C126.543 4.96645 126.784 6.24094 126.885 7.53035C123.452 16.2939 120.685 18.9617 118.33 28.6244Z" fill="#202251"/>
<path d="M127.123 29.628L124.927 27.1092L125.325 26.6124C124.331 24.4165 125.971 21.4954 127.521 21.4954C128.807 21.4954 130.159 23.4826 130.76 25.7281C130.033 27.4131 128.749 28.7971 127.123 29.6478V29.628Z" fill="#202251"/>
<path d="M146.513 8.32022C146.127 8.61336 145.817 8.99502 145.609 9.43306C145.4 9.87124 145.301 10.3539 145.321 10.839L145.922 13.7155C146.245 15.4791 148.197 15.6033 149.931 16.4727C150.941 18.0331 151.461 19.8605 151.422 21.7189C151.302 24.6252 147.298 27.1539 143.473 28.5052C142.092 28.6126 140.706 28.3895 139.429 27.8544C138.138 27.304 136.999 26.4522 136.105 25.3704C136.125 25.1838 136.125 24.9956 136.105 24.809L137.551 25.5343C137.268 24.809 136.667 24.5407 136.026 24.0439C136.006 23.776 136.006 23.507 136.026 23.2391L137.109 22.2455L138.222 22.7423C139.215 23.2391 138.664 24.2625 139.543 24.2625C139.826 24.2625 145.301 22.4591 145.659 18.748C144.859 16.423 142.822 15.6331 140.586 14.2272L139.384 9.9696L137.109 10.2528C136.388 8.26558 137.551 7.01365 138.704 5.6872L139.787 5.44873C140.156 4.49275 140.581 3.55888 141.058 2.65175C141.66 2.65175 141.982 2.53252 142.261 2.53252C142.539 2.53252 143.026 2.65175 143.895 3.29262L157.805 0.286987C158.465 0.480004 159.064 0.839257 159.544 1.33027C160.021 1.82335 160.363 2.43063 160.538 3.09391C160.522 3.38905 160.409 3.67056 160.215 3.89375L160.896 5.48847C156.862 7.93272 150.021 7.64955 146.513 8.32022ZM146.916 25.589C145.962 25.589 145.803 25.9467 144.928 27.1539L146.916 26.1603V25.589ZM159.549 4.17196L157.433 4.93206L157.189 5.36427L159.629 4.61411L159.549 4.17196Z" fill="#202251"/>
<path d="M54.5259 4.83771C54.5167 4.82091 54.5029 4.80711 54.4861 4.79797H54.4216C53.9518 4.73337 53.4754 4.73337 53.0057 4.79797C52.9784 4.80343 52.9529 4.81536 52.9312 4.83275C52.9087 4.85113 52.8916 4.87513 52.8815 4.9023L50.0845 13.4472L47.4415 4.88242C47.4314 4.85649 47.4162 4.83284 47.3968 4.81287C47.3728 4.79631 47.3458 4.78451 47.3173 4.7781C47.0672 4.74326 46.8147 4.72832 46.5622 4.73339C46.3047 4.72831 46.0473 4.74326 45.7922 4.7781H45.7326C45.7224 4.78209 45.7132 4.78812 45.7055 4.79581C45.6978 4.8035 45.6918 4.81269 45.6878 4.82281C45.6828 4.84404 45.6828 4.86616 45.6878 4.88739C45.6829 4.90864 45.6829 4.93072 45.6878 4.95197L46.3883 6.89943L46.7907 8.14639L45.037 13.4472L42.3891 4.88242C42.379 4.85649 42.3638 4.83284 42.3444 4.81287C42.3222 4.79633 42.2968 4.7845 42.2698 4.7781C42.018 4.74341 41.7639 4.72847 41.5098 4.73339C41.2524 4.7308 40.9951 4.74574 40.7397 4.7781H40.6801C40.6593 4.78826 40.6433 4.80606 40.6354 4.82777C40.6303 4.84732 40.6303 4.86784 40.6354 4.88739C40.6303 4.90862 40.6303 4.93074 40.6354 4.95197L41.3408 6.89943L44.1974 15.7623C44.2076 15.7895 44.2247 15.8135 44.2471 15.8319C44.2688 15.8493 44.2944 15.8612 44.3216 15.8666C44.5589 15.8964 44.7979 15.9113 45.037 15.9114C45.2712 15.9115 45.5052 15.8965 45.7375 15.8666C45.766 15.8602 45.793 15.8484 45.817 15.8319C45.8364 15.8119 45.8516 15.7883 45.8617 15.7623L47.6055 10.6552L49.2499 15.7623C49.26 15.7895 49.2771 15.8135 49.2996 15.8319C49.3242 15.8368 49.3495 15.8368 49.3741 15.8319C49.611 15.8659 49.8501 15.8825 50.0895 15.8816C50.3239 15.8823 50.558 15.8657 50.79 15.8319C50.8129 15.8368 50.8366 15.8368 50.8595 15.8319C50.8835 15.815 50.901 15.7905 50.9092 15.7623L54.5606 4.94701V4.88242L54.516 4.84765L54.5259 4.83771Z" fill="#202251"/>
<path d="M60.4377 4.86754C60.4257 4.84289 60.4088 4.82093 60.3881 4.80297C60.3676 4.78655 60.3439 4.77469 60.3185 4.76819C59.8721 4.70357 59.4186 4.70357 58.9722 4.76819C58.9468 4.77469 58.9231 4.78655 58.9026 4.80297C58.8795 4.81857 58.8621 4.84122 58.853 4.86754L55.0077 15.6878C55.0027 15.7091 55.0027 15.7312 55.0077 15.7524C55.0026 15.7703 55.0026 15.7892 55.0077 15.8071C55.0182 15.8257 55.0316 15.8425 55.0475 15.8567C55.0687 15.8616 55.0908 15.8616 55.1121 15.8567C55.5652 15.9213 56.0252 15.9213 56.4783 15.8567C56.5037 15.8502 56.5274 15.8384 56.5478 15.822C56.5688 15.8033 56.5842 15.7792 56.5925 15.7524L57.6159 12.7219H61.5903L62.6336 15.7524C62.64 15.7789 62.6538 15.803 62.6733 15.822C62.6961 15.8375 62.7213 15.8493 62.7479 15.8567C63.211 15.9213 63.6808 15.9213 64.1439 15.8567C64.1634 15.8618 64.1839 15.8618 64.2035 15.8567C64.2232 15.8453 64.2388 15.8279 64.2482 15.8071C64.253 15.7892 64.253 15.7703 64.2482 15.7524C64.2533 15.7312 64.2533 15.7091 64.2482 15.6878L60.4377 4.86754ZM61.1382 11.3806H58.0978L59.6131 6.90939L61.1382 11.3806Z" fill="#202251"/>
<path d="M70.7562 11.3754C72.3758 11.0426 73.1955 10.1185 73.1955 8.62315V7.77859C73.1955 5.74669 71.8094 4.75806 68.9528 4.75806H65.7882C65.7498 4.75826 65.7127 4.77238 65.6839 4.7978C65.6696 4.81218 65.6583 4.82924 65.6507 4.84799C65.643 4.86675 65.6391 4.88683 65.6392 4.9071V15.7224C65.6387 15.7586 65.651 15.7938 65.674 15.8218C65.6957 15.8474 65.7255 15.8649 65.7584 15.8715C66.2065 15.9361 66.6616 15.9361 67.1097 15.8715C67.1431 15.8661 67.1733 15.8484 67.1942 15.8218C67.218 15.7935 67.2335 15.7591 67.2389 15.7224V11.5344H69.0423C70.0698 12.8524 70.9479 14.2803 71.6604 15.792C71.6708 15.8106 71.6842 15.8274 71.7001 15.8416H71.7647C72.2394 15.9062 72.7208 15.9062 73.1955 15.8416H73.2601C73.2798 15.8302 73.2955 15.8128 73.3048 15.792C73.3098 15.769 73.3098 15.7453 73.3048 15.7224C73.3097 15.7012 73.3097 15.6791 73.3048 15.6578C72.61 14.1438 71.7556 12.7082 70.7562 11.3754ZM71.5958 7.99719V8.46418C71.5958 9.86515 70.6022 10.1533 68.9528 10.1533H67.2091V6.21865H68.9528C70.5873 6.21865 71.5958 6.51176 71.5958 8.00713V7.99719Z" fill="#202251"/>
<path d="M79.5048 4.76819H75.9874H75.9278C75.9098 4.7752 75.8943 4.78728 75.8831 4.80297C75.8664 4.8131 75.854 4.82901 75.8483 4.84768C75.8439 4.8673 75.8439 4.88767 75.8483 4.90729V15.7176C75.8439 15.7373 75.8439 15.7576 75.8483 15.7773C75.8553 15.7952 75.8674 15.8108 75.8831 15.822C75.8957 15.8362 75.9109 15.848 75.9278 15.8567H75.9874H79.5097C80.5836 15.93 81.656 15.6938 82.5998 15.1761C82.9905 14.9051 83.3038 14.537 83.509 14.108C83.7137 13.6798 83.8011 13.2049 83.7623 12.7319V7.85331C83.7872 5.75682 82.411 4.76819 79.5048 4.76819ZM82.1676 8.08681V12.558C82.1676 14.0931 81.0995 14.4011 79.5048 14.4011H77.4281V6.18903H79.5048C81.1492 6.18903 82.1676 6.50202 82.1676 8.06693V8.08681Z" fill="#202251"/>
<path d="M92.3221 14.4757H87.7615V10.9335H91.5669C91.598 10.9281 91.6282 10.918 91.6564 10.9037C91.6817 10.8809 91.7005 10.8517 91.711 10.8192C91.8004 10.4369 91.8004 10.0391 91.711 9.65674C91.7004 9.62573 91.6815 9.59824 91.6564 9.57725C91.6274 9.56741 91.5959 9.56741 91.5669 9.57725H87.7615V6.1394H92.3171C92.3518 6.13999 92.3855 6.12759 92.4115 6.10463C92.4352 6.08335 92.4525 6.05579 92.4612 6.02514C92.5506 5.64279 92.5506 5.24498 92.4612 4.86263C92.4495 4.83189 92.4327 4.80334 92.4115 4.77817C92.3802 4.77316 92.3484 4.77316 92.3171 4.77817H86.3058C86.2675 4.78262 86.2312 4.79815 86.2015 4.82288C86.1872 4.83726 86.1759 4.85432 86.1683 4.87308C86.1606 4.89183 86.1567 4.91192 86.1568 4.93218V15.7425C86.1496 15.7617 86.1496 15.7829 86.1568 15.8021C86.1655 15.8206 86.1772 15.8374 86.1916 15.8518C86.2062 15.8646 86.2231 15.8747 86.2412 15.8816C86.2591 15.8867 86.278 15.8867 86.2959 15.8816H92.4016C92.4227 15.8583 92.4395 15.8313 92.4512 15.8021C92.5357 15.4176 92.5357 15.0192 92.4512 14.6347C92.4405 14.6051 92.4216 14.5792 92.3966 14.5601C92.3918 14.5381 92.3816 14.5176 92.3668 14.5005C92.3494 14.4839 92.3292 14.4705 92.3072 14.4608L92.3221 14.4757Z" fill="#202251"/>
<path d="M103.684 4.76822C103.464 4.73849 103.241 4.72355 103.019 4.72351C102.791 4.72356 102.564 4.7385 102.338 4.76822C102.301 4.77431 102.267 4.79375 102.244 4.82287C102.221 4.85108 102.209 4.88612 102.209 4.92223V13.3032L97.3401 4.85765C97.3297 4.83901 97.3163 4.82222 97.3004 4.80797H97.2358C96.741 4.74466 96.2402 4.74466 95.7454 4.80797C95.7091 4.81316 95.6758 4.83071 95.651 4.85765C95.6281 4.88566 95.6158 4.92083 95.6162 4.95701V15.7723C95.6158 15.8085 95.6281 15.8437 95.651 15.8717C95.6758 15.8986 95.7091 15.9162 95.7454 15.9214C96.1902 15.986 96.642 15.986 97.0868 15.9214C97.1226 15.9151 97.1557 15.8977 97.1812 15.8717C97.2022 15.8427 97.2143 15.8081 97.2159 15.7723V7.48571L102 15.7972L102.045 15.8419C102.066 15.8468 102.088 15.8468 102.109 15.8419C102.376 15.8759 102.645 15.8925 102.914 15.8915C103.177 15.8922 103.439 15.8756 103.699 15.8419C103.733 15.8373 103.765 15.8216 103.789 15.7972C103.811 15.7692 103.824 15.734 103.823 15.6978V4.90236C103.825 4.88431 103.822 4.8662 103.816 4.84912C103.81 4.83205 103.801 4.81636 103.789 4.803C103.767 4.7742 103.735 4.7547 103.699 4.74835L103.684 4.76822Z" fill="#202251"/>
<path d="M47.4614 25.6982V26.195C47.4614 27.1588 46.741 27.7798 45.6928 27.7798H43.0498V21.5052H45.4841C46.5423 21.5052 47.2626 22.002 47.2626 22.941V23.3583C47.2695 23.5773 47.2191 23.7943 47.1162 23.9877C47.0134 24.1812 46.8618 24.3444 46.6764 24.4612C46.9112 24.5716 47.1097 24.7465 47.2487 24.9656C47.3877 25.1847 47.4615 25.4388 47.4614 25.6982ZM43.8298 22.2206V24.1731H45.494C46.0902 24.1731 46.4876 23.9396 46.4876 23.3434V22.9609C46.4876 22.4343 46.1051 22.2206 45.494 22.2206H43.8298ZM46.6814 25.738C46.6814 25.1865 46.3237 24.8835 45.6878 24.8835H43.8099V27.0545H45.6779C46.3038 27.0545 46.6715 26.7465 46.6715 26.1901L46.6814 25.738Z" fill="#202251"/>
<path d="M52.171 24.8288V25.738H49.1654V25.9416C49.1654 26.7763 49.538 27.2134 50.3279 27.2134C50.9787 27.2134 51.396 26.9203 51.396 26.3689V26.3142H52.1562C52.1562 27.3078 51.4408 27.8642 50.3478 27.8642C50.0875 27.8906 49.8246 27.8588 49.5781 27.771C49.3317 27.6832 49.1078 27.5417 48.9228 27.3567C48.7378 27.1717 48.5963 26.9478 48.5085 26.7014C48.4207 26.4549 48.3889 26.192 48.4152 25.9317V25.0573C48.3894 24.8019 48.4202 24.544 48.5056 24.3018C48.591 24.0597 48.7288 23.8395 48.9091 23.6568C49.0894 23.4741 49.3079 23.3334 49.5488 23.2449C49.7898 23.1564 50.0474 23.1221 50.3031 23.1447C51.4507 23.1447 52.171 23.8203 52.171 24.8288ZM51.406 25.0971V24.8387C51.4229 24.6946 51.4063 24.5485 51.3576 24.4118C51.3088 24.2751 51.2292 24.1515 51.1249 24.0506C51.0206 23.9496 50.8945 23.8741 50.7562 23.8299C50.618 23.7856 50.4715 23.7739 50.3279 23.7955C49.5182 23.7955 49.1654 24.2426 49.1654 25.0573V25.0971H51.406Z" fill="#202251"/>
<path d="M53.0105 26.3641V26.2746H53.7557V26.3641C53.7557 26.8609 54.168 27.1937 54.8785 27.1937C55.4299 27.1937 55.8721 26.9702 55.8721 26.5529C55.8721 25.4897 53.1198 26.1405 53.1198 24.511C53.1198 23.6863 53.7905 23.1498 54.8238 23.1498C55.8572 23.1498 56.5676 23.736 56.5676 24.6104V24.6998H55.8174V24.6104C55.8174 24.1136 55.4697 23.8254 54.8238 23.8254C54.178 23.8254 53.865 24.0937 53.865 24.4613C53.865 25.4549 56.6123 24.8141 56.6123 26.4982C56.6123 27.4123 55.7975 27.8694 54.8437 27.8694C53.6861 27.8545 53.0105 27.2682 53.0105 26.3641Z" fill="#202251"/>
<path d="M59.792 27.0347V27.7551H59.2406C58.247 27.7551 57.7502 27.2583 57.7502 26.2001V23.9744H57.144V23.259H57.7502V21.9425H58.5053V23.259H59.7324V23.9744H58.5053V26.0312C58.5053 26.7515 58.8083 27.0248 59.4194 27.0248L59.792 27.0347Z" fill="#202251"/>
<path d="M67.1645 23.1347V23.8203C67.1645 24.8437 66.469 25.4796 65.2518 25.4796H63.5677V27.7549H62.7827V21.4803H65.2419C66.469 21.4803 67.1645 22.1063 67.1645 23.1347ZM66.3895 23.1347C66.3895 22.5385 66.0318 22.2206 65.2965 22.2206H63.5677V24.7046H65.2866C66.0318 24.7046 66.3895 24.3916 66.3895 23.7954V23.1347Z" fill="#202251"/>
<path d="M70.503 23.1895V23.885C70.3772 23.8577 70.2491 23.8427 70.1204 23.8403C69.969 23.8231 69.8157 23.8387 69.6709 23.886C69.526 23.9333 69.393 24.0111 69.2809 24.1143C69.1687 24.2175 69.0801 24.3436 69.021 24.484C68.9618 24.6244 68.9335 24.7759 68.9381 24.9282V27.755H68.178V23.2838H68.7046L68.8586 23.7508C69.0406 23.5707 69.2574 23.4294 69.4956 23.3355C69.7338 23.2415 69.9887 23.1969 70.2446 23.2044C70.3304 23.1946 70.4167 23.1896 70.503 23.1895Z" fill="#202251"/>
<path d="M71.3923 21.6344H72.1971V22.5584H71.3923V21.6344ZM71.3923 23.2589H72.1475V27.7301H71.3923V23.2589Z" fill="#202251"/>
<path d="M73.3248 26.0015V25.0079C73.3004 24.755 73.3327 24.4999 73.4193 24.261C73.5059 24.0222 73.6447 23.8057 73.8255 23.6272C74.0063 23.4488 74.2247 23.3129 74.4646 23.2294C74.7046 23.146 74.9601 23.1171 75.2126 23.1449C76.3702 23.1449 77.0657 23.8205 77.0657 24.9085V24.9979H76.3056V24.8737C76.3056 24.1981 75.9181 23.8503 75.2126 23.8503C74.5072 23.8503 74.0849 24.2428 74.0849 25.0377V25.9419C74.0849 26.7367 74.4277 27.1292 75.2126 27.1292C75.3551 27.1507 75.5006 27.1397 75.6382 27.0969C75.7758 27.0542 75.9019 26.9808 76.0071 26.8823C76.1123 26.7838 76.1938 26.6628 76.2455 26.5283C76.2972 26.3938 76.3177 26.2494 76.3056 26.1058V25.9965H77.0657V26.0859C77.0657 27.1739 76.3801 27.8496 75.2126 27.8496C74.9615 27.877 74.7073 27.8483 74.4686 27.7657C74.2298 27.6831 74.0123 27.5486 73.8318 27.3719C73.6512 27.1951 73.5121 26.9806 73.4244 26.7436C73.3368 26.5066 73.3028 26.2532 73.3248 26.0015Z" fill="#202251"/>
<path d="M81.8003 24.8288V25.738H78.7897V25.9416C78.7897 26.7763 79.1623 27.2134 79.9572 27.2134C80.608 27.2134 81.0253 26.9203 81.0253 26.3689V26.3142H81.7804C81.7804 27.3078 81.07 27.8642 79.9721 27.8642C79.7118 27.8906 79.4489 27.8588 79.2024 27.771C78.9559 27.6832 78.7321 27.5417 78.5471 27.3567C78.3621 27.1717 78.2205 26.9478 78.1328 26.7014C78.045 26.4549 78.0131 26.192 78.0395 25.9317V25.0573C78.0137 24.8019 78.0445 24.544 78.1299 24.3018C78.2152 24.0597 78.353 23.8395 78.5333 23.6568C78.7137 23.4741 78.9321 23.3334 79.1731 23.2449C79.4141 23.1564 79.6716 23.1221 79.9273 23.1447C81.06 23.1447 81.8003 23.8203 81.8003 24.8288ZM81.0352 25.0971V24.8387C81.0521 24.6946 81.0356 24.5485 80.9868 24.4118C80.9381 24.2751 80.8584 24.1515 80.7541 24.0506C80.6498 23.9496 80.5237 23.8741 80.3855 23.8299C80.2472 23.7856 80.1007 23.7739 79.9572 23.7955C79.1474 23.7955 78.7897 24.2426 78.7897 25.0573V25.0971H81.0352Z" fill="#202251"/>
<path d="M84.8308 25.9667V25.7282H85.6108V26.0114C85.6108 26.6821 86.2169 27.1341 87.1807 27.1341C88.1445 27.1341 88.6711 26.7268 88.6711 26.0462C88.6711 24.4117 84.9749 25.301 84.9749 23.0654C84.9749 22.1115 85.6356 21.3464 87.1111 21.3464C88.5866 21.3464 89.3219 22.0916 89.3219 23.1548V23.428H88.5469V23.125C88.5469 22.5189 88.0203 22.0916 87.1111 22.0916C86.202 22.0916 85.7598 22.4692 85.7598 23.0455C85.7598 24.4713 89.4461 23.6963 89.456 25.9915C89.456 27.0447 88.681 27.8545 87.1658 27.8545C85.6505 27.8545 84.8308 27.0795 84.8308 25.9667Z" fill="#202251"/>
<path d="M95.7698 23.2589L94.6222 27.7301H93.8472L92.8834 24.7145L91.9246 27.7301H91.1496L90.002 23.2589H90.767L91.6016 26.9303L92.5952 23.2589H93.2063L94.1999 26.9452L95.0345 23.2589H95.7698Z" fill="#202251"/>
<path d="M100.152 23.2589V27.7301H99.6255L99.4814 27.278C99.3053 27.4734 99.0875 27.6266 98.8441 27.7263C98.6007 27.8261 98.3381 27.8698 98.0755 27.8543C96.9726 27.8543 96.3218 27.2929 96.3218 25.9565V25.0225C96.3218 23.6762 96.9726 23.1248 98.0755 23.1248C98.3377 23.1086 98.6001 23.1516 98.8435 23.2505C99.0868 23.3494 99.3048 23.5016 99.4814 23.6961L99.6255 23.239L100.152 23.2589ZM99.392 26.0658V24.9431C99.394 24.7912 99.3633 24.6406 99.302 24.5016C99.2407 24.3626 99.1501 24.2385 99.0365 24.1376C98.9229 24.0368 98.789 23.9615 98.6437 23.9171C98.4984 23.8726 98.3453 23.8599 98.1947 23.8799C97.4396 23.8799 97.062 24.2475 97.062 25.102V25.9367C97.062 26.7911 97.4396 27.1687 98.1947 27.1687C98.3484 27.1876 98.5044 27.1728 98.6518 27.1254C98.7992 27.078 98.9345 26.9991 99.0484 26.8941C99.1623 26.7892 99.252 26.6608 99.3113 26.5178C99.3707 26.3748 99.3982 26.2205 99.392 26.0658Z" fill="#202251"/>
<path d="M105.279 25.0426V25.9766C105.279 27.3229 104.618 27.8744 103.515 27.8744C103.275 27.885 103.035 27.8464 102.811 27.7609C102.586 27.6755 102.381 27.545 102.209 27.3776V29.7821H101.448V23.2343H101.975L102.119 23.6814C102.295 23.4895 102.512 23.3395 102.753 23.2424C102.995 23.1452 103.255 23.1034 103.515 23.12C104.618 23.1448 105.279 23.6963 105.279 25.0426ZM104.524 25.0873C104.524 24.2328 104.146 23.8652 103.381 23.8652C103.238 23.8494 103.093 23.863 102.956 23.9051C102.818 23.9471 102.691 24.0167 102.581 24.1097C102.471 24.2027 102.382 24.3171 102.318 24.4459C102.254 24.5747 102.217 24.7152 102.209 24.8588V26.1505C102.217 26.2941 102.254 26.4346 102.318 26.5634C102.382 26.6922 102.471 26.8065 102.581 26.8995C102.691 26.9925 102.818 27.0622 102.956 27.1042C103.093 27.1463 103.238 27.1598 103.381 27.1441C104.146 27.1441 104.524 26.7764 104.524 25.912V25.0873Z" fill="#202251"/>
<path d="M120.302 42.7153H118.028L117.137 44.8068H115.661L119.52 35.5634H121.468L121.846 44.8068H120.408L120.302 42.7153ZM118.563 41.3285H120.238L120.081 37.1648L118.563 41.3285Z" fill="#EF4136"/>
<path d="M128.293 40.5853L128.046 41.9305H124.607L124.488 42.5454C124.344 43.2372 124.658 43.6696 125.286 43.6696C125.913 43.6696 126.266 43.3045 126.423 42.6095H127.905C127.617 44.0892 126.663 44.9892 125.225 44.9892C123.575 44.9892 122.739 43.8938 123.04 42.35L123.418 40.4539C123.719 38.8845 124.699 37.9941 126.166 37.9941C127.758 37.9941 128.581 39.0927 128.293 40.5853ZM126.778 40.7678L126.829 40.4475C126.986 39.7141 126.66 39.2977 126.032 39.2977C125.404 39.2977 125.039 39.7141 124.869 40.5372L124.828 40.7614L126.778 40.7678Z" fill="#EF4136"/>
<path d="M134.715 38.1767L133.251 45.7099C132.95 47.2408 131.97 47.9999 130.57 47.9999C129.171 47.9999 128.373 47.1223 128.546 45.9853H129.971C129.969 46.0827 129.987 46.1795 130.026 46.2691C130.064 46.3587 130.121 46.4391 130.193 46.5047C130.265 46.5704 130.35 46.6197 130.443 46.6495C130.536 46.6792 130.634 46.6886 130.73 46.6771C131.291 46.6771 131.672 46.2864 131.803 45.617L131.999 44.6369C131.61 44.8649 131.168 44.9865 130.718 44.9892C129.382 44.9892 128.652 43.9323 128.953 42.35L129.318 40.454C129.619 38.8846 130.481 37.9942 131.762 37.9942C132.067 37.9875 132.37 38.0473 132.65 38.1696C132.93 38.2918 133.18 38.4735 133.382 38.702L133.725 38.1767H134.715ZM132.361 42.7664L132.844 40.2426C132.859 40.123 132.847 40.0017 132.809 39.8874C132.771 39.7732 132.707 39.669 132.623 39.5826C132.539 39.4962 132.437 39.4298 132.324 39.3882C132.211 39.3467 132.09 39.3311 131.97 39.3426C131.301 39.3426 130.91 39.7461 130.766 40.5436L130.375 42.5454C130.244 43.2372 130.609 43.644 131.249 43.644C131.507 43.6479 131.759 43.5628 131.961 43.4029C132.164 43.2431 132.305 43.0182 132.361 42.7664Z" fill="#EF4136"/>
<path d="M136.05 38.1768H137.514L136.233 44.8067H134.779L136.05 38.1768ZM136.492 35.6946H137.985L137.684 37.2768H136.178L136.492 35.6946Z" fill="#EF4136"/>
<path d="M137.658 42.6895H139.058C138.926 43.3045 139.24 43.6952 139.958 43.6952C140.075 43.7086 140.193 43.6975 140.306 43.6624C140.418 43.6274 140.522 43.5693 140.61 43.4918C140.699 43.4143 140.771 43.3192 140.82 43.2124C140.87 43.1057 140.897 42.9898 140.899 42.8721C140.899 41.7351 138.337 42.1675 138.337 40.2714C138.337 38.9614 139.356 37.9941 140.784 37.9941C142.212 37.9941 143.109 38.8717 142.834 40.2169H141.425C141.553 39.602 141.268 39.2881 140.678 39.2881C140.089 39.2881 139.756 39.6308 139.756 40.0216C139.756 41.0817 142.318 40.7294 142.318 42.6511C142.318 43.9835 141.312 44.9764 139.823 44.9764C138.334 44.9764 137.383 44.0892 137.658 42.6895Z" fill="#EF4136"/>
<path d="M112.512 40.7679H95.0503" stroke="#202251" stroke-width="0.541284" stroke-miterlimit="10"/>
<path d="M164.661 41.4918H147.196" stroke="#202251" stroke-width="0.541284" stroke-miterlimit="10"/>
<path d="M16.6223 2.44891C16.6223 2.44891 19.1269 2.08378 24.7864 3.32009C29.722 4.39945 32.0217 6.09377 32.0217 6.09377C32.0217 6.09377 33.7224 16.4102 26.4327 26.3679C22.6052 31.5982 17.3942 34.375 16.6223 34.5192C15.8504 34.375 10.6393 31.5982 6.81193 26.3679C-0.477787 16.4102 1.21972 6.09377 1.21972 6.09377C1.21972 6.09377 3.52259 4.39945 8.455 3.32009C14.1145 2.08378 16.6223 2.44891 16.6223 2.44891Z" fill="#1F2250" stroke="#202251" stroke-width="1.37083" stroke-miterlimit="10"/>
<path d="M32.4539 19.4722C31.5475 22.9953 28.3639 25.9868 24.0176 27.5498V14.0593C24.0176 6.51337 27.9539 0.3927 32.9856 0.3927L32.6877 17.6882C32.6789 18.2899 32.6005 18.8885 32.4539 19.4722Z" fill="white" stroke="#1F2250" stroke-width="0.685413" stroke-miterlimit="10"/>
<path d="M0.947425 19.4722C1.86024 22.9953 5.04388 25.9868 9.38696 27.5498V14.0593C9.38696 6.51337 5.45064 0.3927 0.418945 0.3927L0.710407 17.6882C0.72 18.2911 0.799543 18.8908 0.947425 19.4754V19.4722Z" fill="white" stroke="#1F2250" stroke-width="0.685413" stroke-miterlimit="10"/>
<path d="M16.7887 10.4432C16.7887 10.4432 21.6218 16.5639 21.6218 22.4828C21.6218 27.7227 16.7887 29.5291 16.7887 29.5291C16.7887 29.5291 11.9556 27.7291 11.9556 22.4828C11.9556 16.5639 16.7887 10.4432 16.7887 10.4432Z" fill="white" stroke="#1F2250" stroke-width="0.685413" stroke-miterlimit="10"/>
</svg>
