<svg width="40" height="40" viewBox="0 0 40 40" fill="none" xmlns="http://www.w3.org/2000/svg">
<path d="M39.5 20C39.5 30.7696 30.7696 39.5 20 39.5C9.23045 39.5 0.5 30.7696 0.5 20C0.5 9.23045 9.23045 0.5 20 0.5C30.7696 0.5 39.5 9.23045 39.5 20Z" fill="#202251" stroke="white"/>
<g clip-path="url(#clip0)">
<path d="M27.6706 12.6034C26.1896 11.9238 24.6014 11.4231 22.9409 11.1364C22.9106 11.1309 22.8804 11.1447 22.8649 11.1724C22.6606 11.5356 22.4344 12.0096 22.2759 12.3821C20.4899 12.1147 18.7131 12.1147 16.9637 12.3821C16.8053 12.0013 16.5708 11.5356 16.3656 11.1724C16.3501 11.1456 16.3199 11.1318 16.2896 11.1364C14.63 11.4222 13.0419 11.9229 11.5599 12.6034C11.5471 12.6089 11.5361 12.6181 11.5288 12.6301C8.51642 17.1306 7.6912 21.5204 8.09602 25.8558C8.09786 25.877 8.10976 25.8973 8.12625 25.9102C10.1137 27.3698 12.039 28.2559 13.9284 28.8432C13.9587 28.8524 13.9907 28.8414 14.01 28.8164C14.4569 28.2061 14.8553 27.5625 15.197 26.8857C15.2171 26.8461 15.1979 26.799 15.1567 26.7834C14.5247 26.5436 13.9229 26.2513 13.3441 25.9194C13.2983 25.8927 13.2947 25.8272 13.3368 25.7959C13.4586 25.7046 13.5804 25.6096 13.6967 25.5137C13.7178 25.4962 13.7471 25.4925 13.7718 25.5036C17.5746 27.2398 21.6916 27.2398 25.4495 25.5036C25.4742 25.4916 25.5036 25.4953 25.5255 25.5128C25.6419 25.6087 25.7637 25.7046 25.8864 25.7959C25.9285 25.8272 25.9258 25.8927 25.88 25.9194C25.3011 26.2578 24.6994 26.5436 24.0665 26.7824C24.0253 26.7981 24.007 26.8461 24.0271 26.8857C24.3761 27.5616 24.7745 28.2051 25.2132 28.8155C25.2315 28.8414 25.2645 28.8524 25.2947 28.8432C27.1934 28.2559 29.1186 27.3698 31.1061 25.9102C31.1235 25.8973 31.1345 25.8779 31.1363 25.8567C31.6208 20.8445 30.3248 16.4907 27.7008 12.631C27.6944 12.6181 27.6834 12.6089 27.6706 12.6034ZM15.7648 23.216C14.6199 23.216 13.6766 22.1649 13.6766 20.874C13.6766 19.5832 14.6016 18.5321 15.7648 18.5321C16.9372 18.5321 17.8714 19.5924 17.8531 20.874C17.8531 22.1649 16.928 23.216 15.7648 23.216ZM23.4858 23.216C22.341 23.216 21.3976 22.1649 21.3976 20.874C21.3976 19.5832 22.3226 18.5321 23.4858 18.5321C24.6582 18.5321 25.5924 19.5924 25.5741 20.874C25.5741 22.1649 24.6582 23.216 23.4858 23.216Z" fill="white"/>
</g>
<defs>
<clipPath id="clip0">
<rect width="23.2364" height="18" fill="white" transform="translate(8 11)"/>
</clipPath>
</defs>
</svg>
