<svg width="39" height="40" viewBox="0 0 39 40" fill="none" xmlns="http://www.w3.org/2000/svg">
<g clip-path="url(#clip0)">
<path d="M19.375 0.625C8.67188 0.625 0 9.29688 0 20C0 30.7031 8.67188 39.375 19.375 39.375C30.0781 39.375 38.75 30.7031 38.75 20C38.75 9.29688 30.0781 0.625 19.375 0.625ZM28.8906 13.8984L25.7109 28.8828C25.4766 29.9453 24.8438 30.2031 23.9609 29.7031L19.1172 26.1328L16.7812 28.3828C16.5234 28.6406 16.3047 28.8594 15.8047 28.8594L16.1484 23.9297L25.125 15.8203C25.5156 15.4766 25.0391 15.2812 24.5234 15.625L13.4297 22.6094L8.64844 21.1172C7.60937 20.7891 7.58594 20.0781 8.86719 19.5781L27.5469 12.375C28.4141 12.0625 29.1719 12.5859 28.8906 13.8984Z" fill="#202251"/>
</g>
<defs>
<clipPath id="clip0">
<rect width="38.75" height="40" fill="white"/>
</clipPath>
</defs>
</svg>
