<svg width="20" height="20" viewBox="0 0 20 20" fill="none" xmlns="http://www.w3.org/2000/svg">
<path d="M10 0C4.47724 0 0 4.47724 0 10C0 15.5228 4.47724 20 10 20C15.5228 20 20 15.5228 20 10C20 4.47724 15.5228 0 10 0ZM10 17.6728C5.76241 17.6728 2.32724 14.2376 2.32724 10C2.32724 5.76241 5.76241 2.32724 10 2.32724C14.2376 2.32724 17.6728 5.76241 17.6728 10C17.6728 14.2376 14.2376 17.6728 10 17.6728Z" fill="#969696"/>
<path d="M9.41504 9.0255C9.25229 9.45171 9.09229 9.82998 8.96229 10.2183C8.54746 11.459 8.1178 12.6955 7.74608 13.949C7.53125 14.6738 7.8347 15.1638 8.47229 15.2531C8.70435 15.2855 8.95539 15.2845 9.18298 15.2327C10.585 14.9134 11.2078 13.7786 11.8478 12.6662C11.7106 12.7662 11.6002 12.8938 11.484 13.0152C11.125 13.3896 10.7254 13.71 10.2278 13.8796C10.1468 13.9072 10.0257 13.8945 9.95608 13.8496C9.91918 13.8258 9.93918 13.6883 9.95987 13.6086C9.98711 13.5034 10.0406 13.4048 10.0823 13.3031C10.6275 11.9824 11.1799 10.6645 11.7113 9.33826C11.8033 9.10826 11.864 8.83757 11.8395 8.5955C11.795 8.15378 11.3302 7.84171 10.7606 7.85378C9.2816 7.88516 8.21608 8.61826 7.45711 9.8493C7.42918 9.89481 7.42884 9.95723 7.40332 10.0641C8.0347 9.59861 8.55642 9.03481 9.41504 9.0255Z" fill="#969696"/>
<path d="M11.2795 7.54826C12.0487 7.54826 12.6722 6.9247 12.6722 6.1555C12.6722 5.3863 12.0487 4.76274 11.2795 4.76274C10.5103 4.76274 9.88672 5.3863 9.88672 6.1555C9.88672 6.9247 10.5103 7.54826 11.2795 7.54826Z" fill="#969696"/>
</svg>
