<svg width="41" height="40" viewBox="0 0 41 40" fill="none" xmlns="http://www.w3.org/2000/svg">
<path d="M40.2692 19.7716C40.2692 30.3992 31.576 39.0223 20.8426 39.0223C10.1092 39.0223 1.41591 30.3992 1.41591 19.7716C1.41591 9.14408 10.1092 0.520891 20.8426 0.520891C31.576 0.520891 40.2692 9.14408 40.2692 19.7716Z" fill="#202251" stroke="white" stroke-width="1.04178"/>
<path d="M28.599 15.4875C27.3086 15.1173 25.9707 14.5924 24.6161 14.062C24.5381 13.725 24.2371 13.3051 23.6281 12.7926C22.7431 12.0315 21.0805 12.0508 19.6437 12.3879C18.0578 12.0177 16.4914 11.8865 14.9877 12.2497C2.68914 15.6077 9.66274 23.8003 5.14746 32.0357C5.78991 33.3866 12.7147 41.2683 22.7347 39.1536C22.7347 39.1536 19.3079 30.9914 27.041 27.074C33.3136 23.8845 37.8456 17.9836 28.599 15.4875Z" fill="white"/>
<path d="M30.1165 20.8477C30.1173 20.9938 30.0744 21.1369 29.9932 21.2589C29.9119 21.3809 29.796 21.4763 29.6601 21.5329C29.5242 21.5896 29.3744 21.6051 29.2297 21.5774C29.0849 21.5497 28.9517 21.48 28.8468 21.3773C28.742 21.2745 28.6702 21.1432 28.6406 21C28.6111 20.8568 28.625 20.7082 28.6806 20.5728C28.7363 20.4375 28.8312 20.3215 28.9533 20.2396C29.0755 20.1578 29.2194 20.1136 29.3668 20.1128C29.5644 20.1121 29.7543 20.189 29.8948 20.3267C30.0353 20.4645 30.115 20.6518 30.1165 20.8477Z" fill="#202251"/>
<path d="M19.6426 12.383C20.5387 12.4465 23.7789 13.488 24.615 14.0571C23.9182 12.0542 21.5728 11.7877 19.6426 12.383Z" fill="white"/>
<path d="M20.4954 17.4468C20.4957 18.121 20.2942 18.7802 19.9165 19.341C19.5389 19.9017 19.0019 20.3389 18.3735 20.5972C17.7452 20.8555 17.0537 20.9233 16.3864 20.792C15.7192 20.6607 15.1062 20.3363 14.625 19.8597C14.1439 19.3831 13.816 18.7758 13.6831 18.1146C13.5501 17.4533 13.6179 16.7678 13.878 16.1448C14.138 15.5218 14.5786 14.9892 15.1441 14.6144C15.7095 14.2395 16.3744 14.0393 17.0547 14.0391C17.9664 14.0391 18.8407 14.3979 19.4857 15.0366C20.1306 15.6753 20.4933 16.5417 20.494 17.4454L20.4954 17.4468Z" fill="#202251"/>
<path d="M19.4754 17.478C19.4754 17.9523 19.3335 18.4159 19.0677 18.8103C18.8018 19.2046 18.424 19.512 17.9819 19.6935C17.5398 19.875 17.0534 19.9224 16.5841 19.8299C16.1148 19.7374 15.6837 19.509 15.3453 19.1736C15.007 18.8383 14.7766 18.411 14.6832 17.9459C14.5899 17.4807 14.6378 16.9985 14.8209 16.5604C15.004 16.1222 15.3141 15.7477 15.7119 15.4842C16.1098 15.2207 16.5776 15.0801 17.0561 15.0801C17.6977 15.0801 18.3131 15.3327 18.7668 15.7824C19.2205 16.2321 19.4754 16.8421 19.4754 17.478Z" fill="white"/>
<path d="M32.9026 22.3503C30.1154 24.2966 26.9464 25.7732 22.4506 25.7732C20.3463 25.7732 19.9199 23.5631 18.5291 24.6433C17.8114 25.2041 15.2806 26.4583 13.2724 26.363C11.2642 26.2677 8.00879 25.1019 7.10156 20.8516C6.74201 25.1019 6.55805 28.2305 4.94287 31.8178C8.14815 36.9052 16.5076 40.9461 23.4449 39.2554C22.7049 34.0962 26.5436 28.9267 29.0995 26.345C30.075 25.3657 31.9285 23.7675 32.9026 22.3517V22.3503Z" fill="white"/>
<path d="M32.7937 22.4774C31.9282 23.2592 30.8984 23.838 29.8504 24.3491C28.7894 24.8478 27.6836 25.2469 26.5475 25.5411C25.4104 25.8326 24.2244 26.0522 23.0231 25.9445C21.8218 25.8367 20.5941 25.432 19.7983 24.5397L19.836 24.4969C20.8115 25.124 21.9375 25.345 23.058 25.3768C24.1937 25.4114 25.3297 25.3187 26.4444 25.1005C27.5704 24.8666 28.672 24.529 29.7347 24.0921C30.798 23.657 31.8502 23.1529 32.756 22.4346L32.7937 22.4774Z" fill="#202251"/>
</svg>
