<svg width="41" height="40" viewBox="0 0 41 40" fill="none" xmlns="http://www.w3.org/2000/svg">
    <circle cx="20.0125" cy="20" r="19.5" fill="#202251" stroke="white" />
    <path
        d="M18.1306 26.5067C18.6007 26.5067 18.9833 26.8894 18.9833 27.359C18.9833 27.8291 18.6007 28.2113 18.1306 28.2113C17.6605 28.2113 17.2783 27.8287 17.2783 27.359C17.2779 26.8894 17.6605 26.5067 18.1306 26.5067ZM31.5183 21.2268C31.0482 21.2268 30.6656 20.8442 30.6656 20.3746C30.6656 19.9045 31.0482 19.5218 31.5183 19.5218C31.9884 19.5218 32.3706 19.9045 32.3706 20.3746C32.371 20.8442 31.9884 21.2268 31.5183 21.2268ZM31.5183 17.7344C30.0627 17.7344 28.8781 18.9185 28.8781 20.3746C28.8781 20.6581 28.9252 20.9404 29.018 21.2148L20.2969 25.8572C19.8014 25.1431 18.9983 24.7201 18.1298 24.7201C17.1234 24.7201 16.2062 25.2959 15.7623 26.1957L7.92722 22.065C7.0995 21.6299 6.47995 20.2663 6.54574 19.0255C6.57988 18.3781 6.80346 17.876 7.14405 17.6819C7.36014 17.5591 7.62037 17.5699 7.89642 17.7144L7.94887 17.7419C10.0244 18.8357 16.819 22.4143 17.1051 22.5471C17.5464 22.7511 17.7921 22.834 18.544 22.4776L32.5887 15.1734C32.7944 15.0955 33.0347 14.8986 33.0347 14.5988C33.0347 14.1832 32.605 14.0196 32.6037 14.0196C31.8052 13.6366 30.5773 13.0616 29.3794 12.5011C26.8196 11.3024 23.9184 9.94427 22.6444 9.27684C21.5443 8.70101 20.6592 9.18649 20.5009 9.28475L20.1941 9.43673C14.4599 12.2726 6.78598 16.0731 6.3488 16.3388C5.56645 16.8147 5.08181 17.7631 5.01936 18.9406C4.92151 20.8072 5.87373 22.7528 7.23482 23.4669L15.5196 27.7396C15.7061 29.0324 16.819 30 18.1302 30C19.5724 30 20.7483 28.8375 20.7699 27.4002L29.8945 22.4551C30.357 22.8165 30.9308 23.0151 31.5183 23.0151C32.9739 23.0151 34.1584 21.8306 34.1584 20.375C34.1584 18.9194 32.9739 17.7344 31.5183 17.7344Z"
        fill="white" />
</svg>