<svg width="40" height="40" viewBox="0 0 40 40" fill="none" xmlns="http://www.w3.org/2000/svg">
<circle cx="20" cy="20" r="19.4193" fill="#202251" stroke="white" stroke-width="1.1614"/>
<g clip-path="url(#clip0)">
<path d="M33.228 14.4104C32.3734 14.7898 31.455 15.0453 30.491 15.1605C31.4753 14.5711 32.2312 13.6371 32.5864 12.5241C31.6659 13.07 30.6459 13.4668 29.5599 13.6807C28.6918 12.7545 27.452 12.1757 26.0815 12.1757C23.0048 12.1757 20.7439 15.0463 21.4388 18.0263C17.4794 17.8279 13.9681 15.9309 11.6173 13.0477C10.3687 15.1895 10.9698 17.9914 13.0913 19.4103C12.3112 19.3851 11.5756 19.1712 10.934 18.8141C10.8817 21.0217 12.4641 23.0871 14.7559 23.5468C14.0852 23.7287 13.3506 23.7713 12.6035 23.6281C13.2093 25.5212 14.9689 26.8984 17.0555 26.9371C15.0521 28.5079 12.528 29.2096 10 28.9115C12.1089 30.2636 14.6146 31.0524 17.3052 31.0524C26.1532 31.0524 31.152 23.5797 30.8501 16.8774C31.7811 16.2048 32.5893 15.3657 33.228 14.4104Z" fill="white"/>
</g>
<defs>
<clipPath id="clip0">
<rect width="23.228" height="23.228" fill="white" transform="translate(10 9.99999)"/>
</clipPath>
</defs>
</svg>
