
<svg width="84" height="20" viewBox="0 0 84 20" fill="none" xmlns="http://www.w3.org/2000/svg">
<path fill-rule="evenodd" clip-rule="evenodd" d="M17.2447 3.06571L17.3499 3.70213C17.4329 4.29418 17.4714 4.89161 17.4649 5.48941C17.4643 6.81047 17.3049 8.12666 16.9902 9.40971C16.5648 11.1528 15.8236 12.8033 14.8035 14.2794C13.6248 15.9747 11.9205 17.6421 9.43614 18.9818L9.13222 19.1456L8.8283 18.9818C6.34396 17.6421 4.64033 15.9747 3.46089 14.2794C2.44084 12.8033 1.69972 11.1528 1.2742 9.40971C0.959629 8.12689 0.800254 6.81093 0.799497 5.49011C0.793074 4.89231 0.83152 4.29487 0.914513 3.70283L1.01977 3.06641C1.02875 3.01451 1.02738 2.96134 1.01572 2.90997C1.00407 2.8586 0.98236 2.81005 0.951854 2.76711C0.921347 2.72417 0.882645 2.68769 0.837976 2.65977C0.793307 2.63186 0.743555 2.61306 0.691588 2.60446C0.639621 2.59586 0.586465 2.59763 0.535185 2.60967C0.483905 2.6217 0.435513 2.64377 0.3928 2.67459C0.350087 2.70542 0.313895 2.74439 0.286312 2.78926C0.258729 2.83414 0.240299 2.88403 0.232085 2.93606L0.126828 3.57248C0.0362929 4.20757 -0.00588472 4.84862 0.000659334 5.49011C0.00116129 6.87599 0.168262 8.25679 0.498364 9.60279C0.947712 11.4409 1.72995 13.1811 2.80635 14.7374C4.05061 16.5281 5.85531 18.2889 8.45258 19.6865L8.94611 19.9521C9.00424 19.9835 9.06928 20 9.13536 20C9.20144 20 9.26648 19.9835 9.32461 19.9521L9.81744 19.6865C12.4119 18.2882 14.2173 16.5281 15.4637 14.7374C16.5395 13.1813 17.3213 11.4413 17.7703 9.60349C18.1004 8.25749 18.2675 6.87669 18.268 5.4908C18.2745 4.84932 18.2323 4.20827 18.1418 3.57318L18.0365 2.93675C18.0283 2.88472 18.0099 2.83483 17.9823 2.78996C17.9547 2.74509 17.9185 2.70611 17.8758 2.67529C17.8331 2.64447 17.7847 2.6224 17.7334 2.61036C17.6822 2.59833 17.629 2.59656 17.577 2.60516C17.5251 2.61376 17.4753 2.63255 17.4307 2.66047C17.386 2.68839 17.3473 2.72486 17.3168 2.76781C17.2863 2.81075 17.2646 2.8593 17.2529 2.91067C17.2412 2.96204 17.2399 3.0152 17.2489 3.06711L17.2447 3.06571Z" fill="#9D9D9D"/>
<path fill-rule="evenodd" clip-rule="evenodd" d="M3.20106 2.63213L9.13309 0.819758L15.1976 2.67116C15.2991 2.70152 15.4085 2.69042 15.5019 2.64029C15.5952 2.59016 15.6649 2.50509 15.6957 2.40369C15.7265 2.30229 15.7159 2.19283 15.6661 2.09925C15.6164 2.00568 15.5316 1.93561 15.4304 1.90439L9.2495 0.0174356C9.17363 -0.00581186 9.09255 -0.00581186 9.01668 0.0174356L2.96754 1.86396C2.91699 1.87908 2.86993 1.90402 2.82904 1.93738C2.78816 1.97073 2.75426 2.01182 2.72931 2.05831C2.70435 2.10479 2.68882 2.15575 2.6836 2.20825C2.67839 2.26076 2.6836 2.31377 2.69892 2.36426C2.71425 2.41474 2.7394 2.4617 2.77293 2.50244C2.80645 2.54318 2.8477 2.5769 2.89429 2.60166C2.94088 2.62642 2.9919 2.64174 3.04443 2.64672C3.09695 2.65171 3.14994 2.64628 3.20036 2.63073L3.20106 2.63213Z" fill="#9D9D9D"/>
<path fill-rule="evenodd" clip-rule="evenodd" d="M0.271877 3.18281L8.77608 19.7813C8.80923 19.8462 8.85952 19.9008 8.92149 19.9391C8.98346 19.9774 9.05474 19.998 9.12759 19.9986C9.20044 19.9993 9.27208 19.9799 9.33472 19.9427C9.39736 19.9055 9.44861 19.8519 9.4829 19.7876L14.6691 10.0879L14.6767 10.0726L17.9962 3.17165C18.0412 3.07642 18.0467 2.96727 18.0117 2.86794C17.9767 2.76861 17.9038 2.68713 17.809 2.64121C17.7143 2.59528 17.6052 2.58863 17.5055 2.62269C17.4058 2.65676 17.3236 2.72879 17.2768 2.82312L13.9629 9.71849L9.14343 18.7385L0.982187 2.81754C0.958667 2.77027 0.925999 2.72814 0.886077 2.69358C0.846155 2.65902 0.799773 2.63273 0.749617 2.61623C0.699462 2.59973 0.646531 2.59335 0.59389 2.59745C0.54125 2.60155 0.489947 2.61606 0.442954 2.64014C0.395961 2.66421 0.354212 2.69737 0.320126 2.73769C0.286041 2.77802 0.260296 2.8247 0.244384 2.87505C0.228471 2.92539 0.222708 2.9784 0.227427 3.03099C0.232147 3.08357 0.247255 3.1347 0.271877 3.18141V3.18281Z" fill="#9D9D9D"/>
<path fill-rule="evenodd" clip-rule="evenodd" d="M4.3428 10.5752H13.7999C13.9057 10.5752 14.0072 10.5332 14.0821 10.4583C14.1569 10.3835 14.199 10.282 14.199 10.1761C14.199 10.0703 14.1569 9.96879 14.0821 9.89395C14.0072 9.81911 13.9057 9.77706 13.7999 9.77706H4.3428C4.23696 9.77706 4.13545 9.81911 4.06061 9.89395C3.98577 9.96879 3.94373 10.0703 3.94373 10.1761C3.94373 10.282 3.98577 10.3835 4.06061 10.4583C4.13545 10.5332 4.23696 10.5752 4.3428 10.5752ZM30.7212 7.1317H24.5689C24.4625 7.13225 24.3607 7.17473 24.2856 7.24991C24.2104 7.32508 24.1679 7.42689 24.1673 7.53321V12.4712C24.1681 12.5775 24.2106 12.6792 24.2858 12.7543C24.3609 12.8295 24.4626 12.872 24.5689 12.8727H30.7212V13.7092H24.5689C24.4065 13.7099 24.2457 13.6785 24.0956 13.6167C23.9454 13.555 23.8091 13.4641 23.6943 13.3493C23.5795 13.2345 23.4886 13.0981 23.4268 12.948C23.365 12.7979 23.3336 12.637 23.3344 12.4747V7.53669C23.3336 7.37437 23.365 7.21351 23.4268 7.0634C23.4886 6.91329 23.5795 6.7769 23.6943 6.66212C23.8091 6.54734 23.9454 6.45644 24.0956 6.39466C24.2457 6.33288 24.4065 6.30145 24.5689 6.30219H30.7212V7.1317ZM42.2736 6.29801V7.13449H36.3486V9.5791H41.1109V10.4225H36.3479V12.8713H42.2729V13.7078H35.5114V6.29801H42.2736Z" fill="#9D9D9D"/>
<path d="M54.4743 7.54297V9.71363C54.475 9.87593 54.4435 10.0368 54.3817 10.1868C54.3199 10.3369 54.229 10.4732 54.1142 10.588C53.9994 10.7028 53.8631 10.7937 53.713 10.8555C53.5629 10.9173 53.4021 10.9488 53.2398 10.9481H52.1085L54.4332 13.705H53.3325L51.0176 10.9481H48.299C48.1646 10.9413 48.0306 10.9276 47.8975 10.907V13.705H47.061V6.30847H53.2336C53.3958 6.30782 53.5567 6.33931 53.7067 6.40112C53.8568 6.46293 53.9932 6.55384 54.1079 6.6686C54.2227 6.78337 54.3136 6.91971 54.3754 7.06978C54.4372 7.21985 54.4687 7.38067 54.4681 7.54297H54.4743ZM48.3018 10.1047H53.2398C53.2914 10.1053 53.3425 10.0957 53.3902 10.0763C53.438 10.0568 53.4814 10.0281 53.5178 9.99161C53.5542 9.95517 53.583 9.91179 53.6024 9.86405C53.6219 9.81631 53.6315 9.76517 53.6309 9.71363V7.54297C53.6317 7.49068 53.6221 7.43874 53.6027 7.39017C53.5833 7.34159 53.5545 7.29734 53.518 7.25996C53.4824 7.22169 53.4392 7.19136 53.3912 7.17094C53.3431 7.15052 53.2913 7.14047 53.2391 7.14146H48.3011C48.1948 7.14201 48.093 7.18449 48.0178 7.25967C47.9426 7.33485 47.9002 7.43665 47.8996 7.54297V9.71363C47.8985 9.76584 47.9085 9.81769 47.929 9.86575C47.9494 9.91381 47.9798 9.957 48.0181 9.99246C48.0556 10.0291 48.0999 10.0579 48.1486 10.0772C48.1974 10.0964 48.2494 10.1058 48.3018 10.1047Z" fill="#9D9D9D"/>
<path fill-rule="evenodd" clip-rule="evenodd" d="M58.8983 6.29801H66.3025V7.13449H63.0263V13.7085H62.1899V7.13449H58.8983V6.29801ZM70.7903 13.705V6.29801H71.6267V13.705H70.7903ZM82.7442 6.29801H83.8142L80.7179 10.0015L83.8247 13.705H82.7442L79.9873 10.4232H77.6006V13.705H76.7585V6.29801H77.602V9.5791H79.9887L82.7442 6.29801Z" fill="#9D9D9D"/>
</svg>
