<svg width="39" height="48" viewBox="0 0 39 48" fill="none" xmlns="http://www.w3.org/2000/svg">
    <g clip-path="url(#clip0)">
        <path fill-rule="evenodd" clip-rule="evenodd"
            d="M7.12021 6.19947C6.52849 3.03087 8.95978 0.103516 12.1832 0.103516C15.0277 0.103516 17.3336 2.40946 17.3336 5.25399V11.6037C18.0451 11.5535 18.7681 11.5278 19.5003 11.5278C20.2038 11.5278 20.8987 11.5515 21.5831 11.5979V5.25399C21.5831 2.40946 23.889 0.103516 26.7336 0.103516C29.9569 0.103516 32.3882 3.03087 31.7965 6.19947L30.4027 13.6632C35.1862 15.7517 38.8033 19.3789 38.8033 23.9369V26.6944C38.8033 30.4426 36.3237 33.5809 32.8571 35.6993C29.3634 37.8343 24.6372 39.1035 19.5003 39.1035C14.3634 39.1035 9.63718 37.8343 6.14354 35.6993C2.67696 33.5809 0.197266 30.4426 0.197266 26.6944V23.9369C0.197266 19.403 3.77718 15.7898 8.52038 13.6972L7.12021 6.19947ZM28.6165 14.6438L30.2476 5.9102C30.6582 3.71102 28.9708 1.67927 26.7336 1.67927C24.7593 1.67927 23.1589 3.27972 23.1589 5.25399V13.3345C22.6415 13.2682 22.116 13.2156 21.5831 13.1775C20.8999 13.1287 20.205 13.1036 19.5003 13.1036C18.7668 13.1036 18.0438 13.1307 17.3336 13.1836C16.8008 13.2234 16.2751 13.2775 15.7579 13.3454V5.25399C15.7579 3.27972 14.1574 1.67927 12.1832 1.67927C9.94596 1.67927 8.2585 3.71102 8.6692 5.9102L10.3056 14.6728C5.18999 16.5731 1.77302 20.0111 1.77302 23.9369V26.6944C1.77302 32.6775 9.70979 37.5278 19.5003 37.5278C29.2908 37.5278 37.2276 32.6775 37.2276 26.6944V23.9369C37.2276 19.9911 33.7756 16.538 28.6165 14.6438Z"
            fill="#633001" />
        <path
            d="M37.227 26.695C37.227 32.6781 29.2903 37.5284 19.4997 37.5284C9.70923 37.5284 1.77246 32.6781 1.77246 26.695V23.9375H37.227V26.695Z"
            fill="#FEDC90" />
        <path fill-rule="evenodd" clip-rule="evenodd"
            d="M8.66862 5.90964C8.25794 3.71045 9.94538 1.67871 12.1826 1.67871C14.1568 1.67871 15.7573 3.27916 15.7573 5.25343V13.3449C16.9637 13.1863 18.2158 13.1029 19.4997 13.1029C20.7539 13.1029 21.9778 13.1825 23.1582 13.3339V5.25343C23.1582 3.27916 24.7587 1.67871 26.733 1.67871C28.9702 1.67871 30.6577 3.71045 30.247 5.90964L28.616 14.6433C33.775 16.5374 37.227 19.9905 37.227 23.9363C37.227 29.9194 29.2903 34.7696 19.4997 34.7696C9.70923 34.7696 1.77246 29.9194 1.77246 23.9363C1.77246 20.0106 5.18943 16.5725 10.305 14.6722L8.66862 5.90964Z"
            fill="#D1884F" />
        <path
            d="M14.5761 23.1498C14.5761 24.7816 13.6942 26.1043 12.6064 26.1043C11.5186 26.1043 10.6367 24.7816 10.6367 23.1498C10.6367 21.518 11.5186 20.1953 12.6064 20.1953C13.6942 20.1953 14.5761 21.518 14.5761 23.1498Z"
            fill="#633001" />
        <path
            d="M28.1679 23.1498C28.1679 24.7816 27.286 26.1043 26.1981 26.1043C25.1104 26.1043 24.2285 24.7816 24.2285 23.1498C24.2285 21.518 25.1104 20.1953 26.1981 20.1953C27.286 20.1953 28.1679 21.518 28.1679 23.1498Z"
            fill="#633001" />
    </g>
    <path
        d="M26.7904 37.3099C26.646 37.4336 26.4192 37.5418 26.1099 37.6346C25.811 37.7274 25.4811 37.7738 25.1203 37.7738C24.6873 37.7738 24.3162 37.7119 24.0069 37.5882C23.6976 37.4542 23.4863 37.2738 23.3729 37.047C23.2595 36.8099 23.1203 36.5058 22.9553 36.1346C22.7904 35.7532 22.6151 35.3305 22.4296 34.8666C22.2543 34.4027 22.0688 33.913 21.8729 33.3975C21.6873 32.8718 21.5069 32.3409 21.3317 31.8048C21.1564 31.2687 20.9915 30.7429 20.8368 30.2275C20.6822 29.712 20.5482 29.2275 20.4348 28.7739C20.5791 28.6296 20.7853 28.5007 21.0533 28.3873C21.3317 28.2636 21.6255 28.2017 21.9347 28.2017C22.3162 28.2017 22.6255 28.2842 22.8626 28.4491C23.11 28.6038 23.2904 28.8976 23.4038 29.3306C23.6821 30.3409 23.9605 31.3099 24.2388 32.2378C24.5275 33.1553 24.8265 34.114 25.1357 35.114H25.2285C25.5069 34.145 25.7904 33.0883 26.079 31.944C26.378 30.7996 26.6615 29.6605 26.9295 28.5265C27.1151 28.4337 27.311 28.3564 27.5171 28.2945C27.7336 28.2327 27.9759 28.2017 28.2439 28.2017C28.6254 28.2017 28.9501 28.2894 29.2182 28.4646C29.4862 28.6296 29.6202 28.9079 29.6202 29.2997C29.6202 29.5265 29.5635 29.8563 29.4501 30.2893C29.347 30.7223 29.2079 31.212 29.0326 31.7584C28.8676 32.2945 28.6769 32.8563 28.4604 33.4439C28.2543 34.0316 28.0429 34.5882 27.8264 35.114C27.6202 35.6295 27.4244 36.0882 27.2388 36.4903C27.0532 36.882 26.9038 37.1552 26.7904 37.3099ZM33.6239 27.9852C34.2115 27.9852 34.7321 28.0626 35.1857 28.2172C35.6393 28.3615 36.0259 28.5625 36.3455 28.8203C36.6651 29.078 36.9073 29.3821 37.0723 29.7326C37.2372 30.0831 37.3197 30.4594 37.3197 30.8615C37.3197 31.944 36.7063 32.9749 35.4795 33.9542L33.4538 35.5779H37.1651C37.2269 35.6913 37.2836 35.8357 37.3352 36.0109C37.397 36.1862 37.428 36.3769 37.428 36.5831C37.428 36.9542 37.3455 37.2222 37.1805 37.3872C37.0156 37.5418 36.7991 37.6191 36.5311 37.6191H31.1651C30.9383 37.4645 30.7579 37.2686 30.6239 37.0315C30.5002 36.7841 30.4383 36.4954 30.4383 36.1655C30.4383 35.815 30.5105 35.5212 30.6548 35.2841C30.7992 35.0367 30.959 34.8408 31.1342 34.6965L33.2682 32.8718C33.5362 32.645 33.7579 32.4439 33.9331 32.2687C34.1084 32.0831 34.2476 31.9182 34.3507 31.7738C34.4641 31.6295 34.5414 31.4955 34.5826 31.3718C34.6342 31.2481 34.6599 31.1295 34.6599 31.0161C34.6599 30.7275 34.5311 30.5007 34.2734 30.3357C34.0259 30.1708 33.7167 30.0883 33.3455 30.0883C32.9332 30.0883 32.562 30.1553 32.2321 30.2893C31.9126 30.413 31.6445 30.5471 31.428 30.6914C31.2528 30.5677 31.1084 30.413 30.995 30.2275C30.8816 30.0419 30.8249 29.8254 30.8249 29.578C30.8249 29.0419 31.0775 28.645 31.5827 28.3873C32.0878 28.1193 32.7682 27.9852 33.6239 27.9852Z"
        fill="#633001" />
    <path
        d="M26.7904 37.3099L27.2935 37.8969L27.3612 37.8389L27.4139 37.7671L26.7904 37.3099ZM26.1099 37.6346L25.8878 36.894L25.8808 36.8962L26.1099 37.6346ZM24.0069 37.5882L23.6995 38.2977L23.7095 38.302L23.7197 38.3061L24.0069 37.5882ZM23.3729 37.047L22.6752 37.3806L22.6813 37.3928L23.3729 37.047ZM22.9553 36.1346L22.2456 36.4415L22.2488 36.4486L22.9553 36.1346ZM22.4296 34.8666L21.7063 35.1398L21.7089 35.1468L21.7117 35.1538L22.4296 34.8666ZM21.8729 33.3975L21.1438 33.6549L21.1468 33.6636L21.1501 33.6722L21.8729 33.3975ZM21.3317 31.8048L20.5967 32.045H20.5967L21.3317 31.8048ZM20.8368 30.2275L20.0962 30.4496L20.8368 30.2275ZM20.4348 28.7739L19.888 28.2272L19.5785 28.5367L19.6847 28.9614L20.4348 28.7739ZM21.0533 28.3873L21.3546 29.0995L21.3673 29.0938L21.0533 28.3873ZM22.8626 28.4491L22.421 29.0839L22.4366 29.0947L22.4528 29.1048L22.8626 28.4491ZM23.4038 29.3306L22.6558 29.5265L22.6584 29.5359L23.4038 29.3306ZM24.2388 32.2378L23.4982 32.46L23.5013 32.4698L24.2388 32.2378ZM25.1357 35.114L24.3971 35.3425L24.5655 35.8872H25.1357V35.114ZM25.2285 35.114V35.8872H25.8109L25.9717 35.3275L25.2285 35.114ZM26.079 31.9439L25.3309 31.7485L25.3293 31.7548L26.079 31.9439ZM26.9295 28.5265L26.5837 27.8349L26.2603 27.9966L26.1771 28.3486L26.9295 28.5265ZM27.5171 28.2945L27.3047 27.551L27.295 27.5539L27.5171 28.2945ZM29.2182 28.4646L28.795 29.1117L28.8039 29.1175L28.8129 29.1231L29.2182 28.4646ZM29.4501 30.2893L28.7022 30.0934L28.7 30.1018L28.698 30.1102L29.4501 30.2893ZM29.0326 31.7584L28.2963 31.5222L28.2936 31.531L29.0326 31.7584ZM28.4604 33.4439L27.7348 33.1766L27.7309 33.1879L28.4604 33.4439ZM27.8264 35.114L27.1114 34.8196L27.1085 34.8269L27.8264 35.114ZM27.2388 36.4903L27.9376 36.8213L27.9408 36.8143L27.2388 36.4903ZM26.2872 36.7228C26.2629 36.7436 26.1561 36.8135 25.8878 36.894L26.3321 38.3752C26.6824 38.2701 27.0292 38.1235 27.2935 37.8969L26.2872 36.7228ZM25.8808 36.8962C25.6663 36.9627 25.415 37.0006 25.1203 37.0006V38.547C25.5472 38.547 25.9556 38.4921 26.3391 38.373L25.8808 36.8962ZM25.1203 37.0006C24.7576 37.0006 24.4891 36.9484 24.294 36.8703L23.7197 38.3061C24.1432 38.4755 24.617 38.547 25.1203 38.547V37.0006ZM24.3143 36.8788C24.1165 36.793 24.0731 36.7185 24.0644 36.7012L22.6813 37.3928C22.8994 37.829 23.2788 38.1153 23.6995 38.2977L24.3143 36.8788ZM24.0704 36.7134C23.9613 36.4852 23.8253 36.1883 23.6619 35.8206L22.2488 36.4486C22.4153 36.8232 22.5577 37.1345 22.6753 37.3806L24.0704 36.7134ZM23.665 35.8277C23.5034 35.454 23.3309 35.038 23.1475 34.5794L21.7117 35.1538C21.8994 35.623 22.0774 36.0524 22.2457 36.4415L23.665 35.8277ZM23.1529 34.5934C22.9774 34.1289 22.7917 33.6388 22.5956 33.1229L21.1501 33.6722C21.3458 34.1872 21.5312 34.6764 21.7063 35.1398L23.1529 34.5934ZM22.602 33.1402C22.4185 32.6202 22.24 32.0949 22.0666 31.5645L20.5967 32.045C20.7738 32.5868 20.9562 33.1234 21.1438 33.6549L22.602 33.1402ZM22.0666 31.5645C21.8932 31.0342 21.7301 30.5144 21.5774 30.0053L20.0962 30.4496C20.2528 30.9714 20.4196 31.5032 20.5967 32.045L22.0666 31.5645ZM21.5774 30.0053C21.4257 29.4997 21.295 29.0268 21.1849 28.5864L19.6847 28.9614C19.8014 29.4282 19.9387 29.9244 20.0962 30.4496L21.5774 30.0053ZM20.9815 29.3206C21.0322 29.2699 21.1422 29.1892 21.3546 29.0994L20.752 27.6752C20.4283 27.8122 20.126 27.9892 19.888 28.2272L20.9815 29.3206ZM21.3673 29.0938C21.5453 29.0148 21.7319 28.9749 21.9347 28.9749V27.4285C21.519 27.4285 21.118 27.5124 20.7393 27.6807L21.3673 29.0938ZM21.9347 28.9749C22.2083 28.9749 22.3492 29.0339 22.421 29.0839L23.3041 27.8144C22.9017 27.5345 22.424 27.4285 21.9347 27.4285V28.9749ZM22.4528 29.1048C22.4628 29.1111 22.5665 29.1854 22.6558 29.5265L24.1518 29.1347C24.0143 28.6098 23.7572 28.0965 23.2724 27.7935L22.4528 29.1048ZM22.6584 29.5359C22.9382 30.5514 23.2181 31.5261 23.4983 32.4599L24.9794 32.0156C24.7029 31.0938 24.4261 30.1303 24.1492 29.1252L22.6584 29.5359ZM23.5013 32.4698C23.7895 33.386 24.0881 34.3436 24.3971 35.3425L25.8744 34.8856C25.5648 33.8845 25.2654 32.9245 24.9764 32.0057L23.5013 32.4698ZM25.1357 35.8872H25.2285V34.3408H25.1357V35.8872ZM25.9717 35.3275C26.2527 34.3491 26.5383 33.2842 26.8287 32.1331L25.3293 31.7548C25.0424 32.8923 24.7611 33.9408 24.4854 34.9006L25.9717 35.3275ZM26.8271 32.1394C27.1276 30.9893 27.4125 29.8443 27.682 28.7043L26.1771 28.3486C25.9104 29.4767 25.6284 30.6099 25.3309 31.7485L26.8271 32.1394ZM27.2753 29.218C27.4197 29.1458 27.5741 29.0847 27.7393 29.0351L27.295 27.5539C27.0478 27.6281 26.8105 27.7215 26.5837 27.8349L27.2753 29.218ZM27.7296 29.0379C27.8653 28.9992 28.0345 28.9749 28.2439 28.9749V27.4285C27.9173 27.4285 27.602 27.4661 27.3047 27.5511L27.7296 29.0379ZM28.2439 28.9749C28.5042 28.9749 28.6752 29.0334 28.795 29.1117L29.6413 27.8175C29.2251 27.5454 28.7465 27.4285 28.2439 27.4285V28.9749ZM28.8129 29.1231C28.8211 29.1281 28.8226 29.1304 28.8213 29.129C28.8201 29.1276 28.8208 29.1277 28.8231 29.1325C28.828 29.1429 28.847 29.1897 28.847 29.2997H30.3934C30.3934 28.7151 30.1779 28.1474 29.6234 27.8061L28.8129 29.1231ZM28.847 29.2997C28.847 29.4237 28.8117 29.6751 28.7022 30.0934L30.1981 30.4852C30.3153 30.0376 30.3934 29.6292 30.3934 29.2997H28.847ZM28.698 30.1102C28.6005 30.5195 28.4672 30.9896 28.2964 31.5222L29.7688 31.9945C29.9485 31.4344 30.0935 30.9252 30.2023 30.4684L28.698 30.1102ZM28.2936 31.531C28.1332 32.0522 27.9471 32.6007 27.7349 33.1766L29.186 33.7112C29.4067 33.1119 29.6021 32.5367 29.7716 31.9858L28.2936 31.531ZM27.7309 33.1879C27.5288 33.7638 27.3223 34.3077 27.1115 34.8196L28.5414 35.4084C28.7635 34.8688 28.9797 34.2993 29.19 33.6999L27.7309 33.1879ZM27.1085 34.8269C26.9061 35.3329 26.7155 35.7789 26.5368 36.1663L27.9408 36.8143C28.1332 36.3975 28.3343 35.9261 28.5443 35.4012L27.1085 34.8269ZM26.54 36.1593C26.356 36.5479 26.233 36.7624 26.1669 36.8526L27.4139 37.7671C27.5745 37.548 27.7505 37.2162 27.9376 36.8213L26.54 36.1593ZM35.1857 28.2172L34.9362 28.949L34.9437 28.9516L34.9513 28.954L35.1857 28.2172ZM36.3455 28.8203L35.8601 29.4221L35.8601 29.4221L36.3455 28.8203ZM37.0723 29.7326L37.7719 29.4034V29.4034L37.0723 29.7326ZM35.4795 33.9542L34.9971 33.35L34.996 33.3509L35.4795 33.9542ZM33.4538 35.5779L32.9702 34.9746L31.2529 36.3511H33.4538V35.5779ZM37.1651 35.5779L37.8438 35.2077L37.6241 34.8047H37.1651V35.5779ZM37.3352 36.0109L36.5934 36.2291L36.5992 36.2488L36.6061 36.2682L37.3352 36.0109ZM37.1805 37.3872L37.7093 37.9513L37.7184 37.9427L37.7273 37.9339L37.1805 37.3872ZM31.1651 37.6191L30.7296 38.258L30.9266 38.3923H31.1651V37.6191ZM30.6239 37.0315L29.9324 37.3773L29.9411 37.3949L29.9508 37.412L30.6239 37.0315ZM30.6548 35.2841L31.3153 35.6861L31.3191 35.68L31.3227 35.6737L30.6548 35.2841ZM31.1342 34.6965L31.6257 35.2933L31.6313 35.2888L31.6367 35.2841L31.1342 34.6965ZM33.2682 32.8718L32.7688 32.2815L32.7657 32.2841L33.2682 32.8718ZM33.9331 32.2687L34.4799 32.8154L34.4877 32.8076L34.4953 32.7996L33.9331 32.2687ZM34.3507 31.7738L33.7427 31.2962L33.7318 31.3101L33.7215 31.3244L34.3507 31.7738ZM34.5826 31.3718L33.8689 31.0744L33.858 31.1005L33.8491 31.1273L34.5826 31.3718ZM34.2734 30.3357L33.8445 30.9791L33.8505 30.9831L33.8566 30.987L34.2734 30.3357ZM32.2321 30.2893L32.5113 31.0105L32.5231 31.0057L32.2321 30.2893ZM31.428 30.6914L30.9821 31.3231L31.4155 31.629L31.8569 31.3347L31.428 30.6914ZM30.995 30.2275L30.3353 30.6307L30.995 30.2275ZM31.5827 28.3873L31.9341 29.0761L31.9451 29.0703L31.5827 28.3873ZM33.6239 28.7584C34.1451 28.7584 34.5788 28.8272 34.9362 28.949L35.4352 27.4854C34.8855 27.2979 34.2779 27.212 33.6239 27.212V28.7584ZM34.9513 28.954C35.3279 29.0738 35.626 29.2333 35.8601 29.4221L36.8309 28.2184C36.4258 27.8918 35.9507 27.6492 35.4201 27.4804L34.9513 28.954ZM35.8601 29.4221C36.0942 29.6109 36.2606 29.8236 36.3727 30.0619L37.7719 29.4034C37.5541 28.9407 37.236 28.5451 36.8309 28.2184L35.8601 29.4221ZM36.3727 30.0619C36.4873 30.3054 36.5465 30.5688 36.5465 30.8615H38.0929C38.0929 30.35 37.9871 29.8608 37.7719 29.4034L36.3727 30.0619ZM36.5465 30.8615C36.5465 31.6173 36.1261 32.4487 34.9971 33.35L35.9619 34.5585C37.2865 33.501 38.0929 32.2706 38.0929 30.8615H36.5465ZM34.996 33.3509L32.9702 34.9746L33.9373 36.1812L35.9631 34.5575L34.996 33.3509ZM33.4538 36.3511H37.1651V34.8047H33.4538V36.3511ZM36.4863 35.9482C36.5135 35.998 36.5515 36.0868 36.5934 36.2291L38.0769 35.7927C38.0157 35.5845 37.9404 35.3847 37.8438 35.2077L36.4863 35.9482ZM36.6061 36.2682C36.6357 36.3523 36.6548 36.455 36.6548 36.5831H38.2011C38.2011 36.2988 38.1583 36.02 38.0643 35.7536L36.6061 36.2682ZM36.6548 36.5831C36.6548 36.7149 36.6397 36.7941 36.6271 36.8351C36.6155 36.8728 36.6108 36.8635 36.6338 36.8405L37.7273 37.9339C38.103 37.5582 38.2011 37.0424 38.2011 36.5831H36.6548ZM36.6517 36.8231C36.648 36.8266 36.6445 36.8294 36.6344 36.833C36.6222 36.8374 36.5909 36.846 36.5311 36.846V38.3923C36.9568 38.3923 37.3751 38.2646 37.7093 37.9513L36.6517 36.8231ZM36.5311 36.846H31.1651V38.3923H36.5311V36.846ZM31.6007 36.9803C31.471 36.8919 31.3722 36.7841 31.297 36.6511L29.9508 37.412C30.1436 37.7531 30.4056 38.0371 30.7296 38.258L31.6007 36.9803ZM31.3155 36.6857C31.2548 36.5645 31.2115 36.3983 31.2115 36.1655H29.6652C29.6652 36.5926 29.7456 37.0037 29.9324 37.3773L31.3155 36.6857ZM31.2115 36.1655C31.2115 35.92 31.2618 35.7741 31.3153 35.6861L29.9944 34.8821C29.7593 35.2684 29.6652 35.7101 29.6652 36.1655H31.2115ZM31.3227 35.6737C31.4325 35.4855 31.5368 35.3666 31.6257 35.2933L30.6427 34.0996C30.3811 34.3151 30.1658 34.5879 29.987 34.8945L31.3227 35.6737ZM31.6367 35.2841L33.7707 33.4594L32.7657 32.2841L30.6317 34.1088L31.6367 35.2841ZM33.7676 33.462C34.0459 33.2266 34.2847 33.0106 34.4799 32.8154L33.3864 31.722C33.2311 31.8773 33.0266 32.0634 32.7688 32.2815L33.7676 33.462ZM34.4953 32.7996C34.6852 32.5985 34.8495 32.4057 34.9798 32.2233L33.7215 31.3244C33.6456 31.4307 33.5316 31.5678 33.371 31.7378L34.4953 32.7996ZM34.9586 32.2515C35.1064 32.0635 35.2379 31.8511 35.3161 31.6163L33.8491 31.1273C33.8449 31.1399 33.8218 31.1955 33.7427 31.2962L34.9586 32.2515ZM35.2963 31.6692C35.3801 31.4681 35.4331 31.2484 35.4331 31.0161H33.8868C33.8868 31.0107 33.8882 31.0281 33.8689 31.0744L35.2963 31.6692ZM35.4331 31.0161C35.4331 30.4454 35.1539 29.9813 34.6901 29.6845L33.8566 30.987C33.8779 31.0006 33.8884 31.0103 33.8922 31.0141C33.8956 31.0176 33.894 31.0168 33.891 31.0115C33.888 31.0061 33.8863 31.0011 33.8857 30.9988C33.8852 30.9968 33.8868 31.0018 33.8868 31.0161H35.4331ZM34.7022 29.6924C34.2995 29.4239 33.8314 29.3151 33.3455 29.3151V30.8615C33.602 30.8615 33.7523 30.9176 33.8445 30.9791L34.7022 29.6924ZM33.3455 29.3151C32.849 29.3151 32.3769 29.396 31.9411 29.573L32.5231 31.0057C32.7472 30.9146 33.0173 30.8615 33.3455 30.8615V29.3151ZM31.953 29.5683C31.5963 29.7063 31.2746 29.8644 30.9991 30.0481L31.8569 31.3347C32.0144 31.2297 32.2288 31.1197 32.5113 31.0104L31.953 29.5683ZM31.8739 30.0597C31.786 29.9977 31.714 29.9212 31.6548 29.8243L30.3353 30.6307C30.5029 30.9049 30.7196 31.1377 30.9821 31.3231L31.8739 30.0597ZM31.6548 29.8243C31.6254 29.7762 31.5981 29.7032 31.5981 29.578H30.0518C30.0518 29.9477 30.1379 30.3077 30.3353 30.6307L31.6548 29.8243ZM31.5981 29.578C31.5981 29.436 31.6299 29.3511 31.6667 29.2934C31.705 29.2332 31.7791 29.1551 31.9341 29.076L31.2313 27.6986C30.8811 27.8772 30.5763 28.1265 30.3621 28.4632C30.1462 28.8023 30.0518 29.184 30.0518 29.578H31.5981ZM31.9451 29.0703C32.2968 28.8836 32.8369 28.7584 33.6239 28.7584V27.212C32.6996 27.212 31.8788 27.3549 31.2203 27.7043L31.9451 29.0703Z"
        fill="#633001" />
    <path
        d="M26.1175 37.3099C25.9732 37.4336 25.7464 37.5418 25.4371 37.6346C25.1381 37.7274 24.8082 37.7738 24.4474 37.7738C24.0144 37.7738 23.6433 37.7119 23.334 37.5882C23.0248 37.4542 22.8134 37.2738 22.7 37.047C22.5866 36.8099 22.4474 36.5058 22.2825 36.1346C22.1175 35.7532 21.9423 35.3305 21.7567 34.8666C21.5815 34.4027 21.3959 33.913 21.2 33.3975C21.0145 32.8718 20.8341 32.3409 20.6588 31.8048C20.4835 31.2687 20.3186 30.7429 20.164 30.2275C20.0093 29.712 19.8753 29.2275 19.7619 28.7739C19.9062 28.6296 20.1124 28.5007 20.3805 28.3873C20.6588 28.2636 20.9526 28.2017 21.2619 28.2017C21.6433 28.2017 21.9526 28.2842 22.1897 28.4491C22.4371 28.6038 22.6175 28.8976 22.7309 29.3306C23.0093 30.3409 23.2876 31.3099 23.566 32.2378C23.8546 33.1553 24.1536 34.114 24.4629 35.114H24.5557C24.834 34.145 25.1175 33.0883 25.4062 31.944C25.7051 30.7996 25.9886 29.6605 26.2567 28.5265C26.4422 28.4337 26.6381 28.3564 26.8443 28.2945C27.0608 28.2327 27.3031 28.2017 27.5711 28.2017C27.9525 28.2017 28.2773 28.2894 28.5453 28.4646C28.8133 28.6296 28.9474 28.9079 28.9474 29.2997C28.9474 29.5265 28.8907 29.8563 28.7773 30.2893C28.6742 30.7223 28.535 31.212 28.3597 31.7584C28.1948 32.2945 28.0041 32.8563 27.7876 33.4439C27.5814 34.0316 27.3701 34.5882 27.1536 35.114C26.9474 35.6295 26.7515 36.0882 26.5659 36.4903C26.3804 36.882 26.2309 37.1552 26.1175 37.3099ZM32.951 27.9852C33.5386 27.9852 34.0593 28.0626 34.5129 28.2172C34.9665 28.3615 35.3531 28.5625 35.6726 28.8203C35.9922 29.078 36.2345 29.3821 36.3994 29.7326C36.5644 30.0831 36.6469 30.4594 36.6469 30.8615C36.6469 31.944 36.0335 32.9749 34.8067 33.9542L32.7809 35.5779H36.4922C36.5541 35.6913 36.6108 35.8357 36.6623 36.0109C36.7242 36.1862 36.7551 36.3769 36.7551 36.5831C36.7551 36.9542 36.6726 37.2222 36.5077 37.3872C36.3427 37.5418 36.1262 37.6191 35.8582 37.6191H30.4923C30.2655 37.4645 30.0851 37.2686 29.9511 37.0315C29.8273 36.7841 29.7655 36.4954 29.7655 36.1655C29.7655 35.815 29.8377 35.5212 29.982 35.2841C30.1263 35.0367 30.2861 34.8408 30.4614 34.6965L32.5954 32.8718C32.8634 32.645 33.085 32.4439 33.2603 32.2687C33.4356 32.0831 33.5747 31.9182 33.6778 31.7738C33.7912 31.6295 33.8685 31.4955 33.9098 31.3718C33.9613 31.2481 33.9871 31.1295 33.9871 31.0161C33.9871 30.7275 33.8582 30.5007 33.6005 30.3357C33.3531 30.1708 33.0438 30.0883 32.6727 30.0883C32.2603 30.0883 31.8892 30.1553 31.5593 30.2893C31.2397 30.413 30.9717 30.5471 30.7552 30.6914C30.5799 30.5677 30.4356 30.413 30.3222 30.2275C30.2088 30.0419 30.1521 29.8254 30.1521 29.578C30.1521 29.0419 30.4047 28.645 30.9098 28.3873C31.415 28.1193 32.0954 27.9852 32.951 27.9852Z"
        fill="white" />
    <path
        d="M26.1175 37.3099L26.5368 37.7991L26.5932 37.7508L26.6371 37.6909L26.1175 37.3099ZM25.4371 37.6346L25.2519 37.0174L25.2461 37.0192L25.4371 37.6346ZM23.334 37.5882L23.0778 38.1794L23.0862 38.1831L23.0947 38.1865L23.334 37.5882ZM22.7 37.047L22.1187 37.325L22.1237 37.3351L22.7 37.047ZM22.2825 36.1346L21.6911 36.3904L21.6937 36.3963L22.2825 36.1346ZM21.7567 34.8666L21.1539 35.0943L21.1585 35.1059L21.7567 34.8666ZM21.2 33.3975L20.5924 33.612L20.595 33.6192L20.5977 33.6264L21.2 33.3975ZM20.6588 31.8048L20.0464 32.005L20.6588 31.8048ZM20.164 30.2275L19.5468 30.4126L20.164 30.2275ZM19.7619 28.7739L19.3063 28.3183L19.0483 28.5762L19.1368 28.9302L19.7619 28.7739ZM20.3805 28.3873L20.6316 28.9808L20.6421 28.9761L20.3805 28.3873ZM22.1897 28.4491L21.8218 28.9781L21.8348 28.9871L21.8482 28.9955L22.1897 28.4491ZM22.7309 29.3306L22.1076 29.4938L22.1098 29.5017L22.7309 29.3306ZM23.566 32.2378L22.9488 32.4229L22.9514 32.4311L23.566 32.2378ZM24.4629 35.114L23.8473 35.3044L23.9877 35.7583H24.4629V35.114ZM24.5557 35.114V35.7583H25.041L25.1749 35.2919L24.5557 35.114ZM25.4062 31.9439L24.7828 31.7811L24.7814 31.7864L25.4062 31.9439ZM26.2567 28.5265L25.9685 27.9502L25.699 28.0849L25.6296 28.3783L26.2567 28.5265ZM26.8443 28.2945L26.6673 27.6749L26.6592 27.6774L26.8443 28.2945ZM28.5453 28.4646L28.1927 29.0039L28.2001 29.0087L28.2076 29.0134L28.5453 28.4646ZM28.7773 30.2893L28.154 30.1261L28.1521 30.1331L28.1505 30.1401L28.7773 30.2893ZM28.3597 31.7584L27.7462 31.5616L27.7439 31.5689L28.3597 31.7584ZM27.7876 33.4439L27.1829 33.2212L27.1796 33.2306L27.7876 33.4439ZM27.1536 35.114L26.5578 34.8687L26.5553 34.8747L27.1536 35.114ZM26.5659 36.4903L27.1483 36.7661L27.151 36.7603L26.5659 36.4903ZM25.6982 36.8207C25.6539 36.8586 25.5271 36.9349 25.252 37.0175L25.6222 38.2518C25.9657 38.1487 26.2925 38.0085 26.5368 37.7991L25.6982 36.8207ZM25.2461 37.0192C25.0176 37.0902 24.7532 37.1295 24.4474 37.1295V38.4181C24.8633 38.4181 25.2587 38.3646 25.6281 38.25L25.2461 37.0192ZM24.4474 37.1295C24.073 37.1295 23.7874 37.0756 23.5733 36.99L23.0947 38.1865C23.4992 38.3482 23.9559 38.4181 24.4474 38.4181V37.1295ZM23.5902 36.997C23.3738 36.9032 23.3024 36.8111 23.2763 36.7588L22.1237 37.3351C22.3244 37.7365 22.6757 38.0052 23.0778 38.1794L23.5902 36.997ZM23.2813 36.769C23.1715 36.5393 23.035 36.2412 22.8713 35.8729L21.6937 36.3963C21.8599 36.7703 22.0018 37.0804 22.1188 37.325L23.2813 36.769ZM22.8739 35.8789C22.7117 35.5038 22.5388 35.0868 22.355 34.6273L21.1585 35.1059C21.3458 35.5743 21.5234 36.0025 21.6911 36.3904L22.8739 35.8789ZM22.3595 34.6389C22.1841 34.1745 21.9983 33.6845 21.8023 33.1687L20.5977 33.6264C20.7935 34.1415 20.9789 34.6308 21.154 35.0943L22.3595 34.6389ZM21.8076 33.1831C21.6237 32.6621 21.4449 32.1359 21.2712 31.6046L20.0464 32.005C20.2232 32.5458 20.4052 33.0814 20.5924 33.612L21.8076 33.1831ZM21.2712 31.6046C21.0975 31.0733 20.9342 30.5525 20.7811 30.0423L19.5468 30.4126C19.703 30.9334 19.8696 31.4641 20.0464 32.005L21.2712 31.6046ZM20.7811 30.0423C20.6289 29.535 20.4976 29.0602 20.387 28.6176L19.1368 28.9302C19.253 29.3948 19.3897 29.889 19.5468 30.4126L20.7811 30.0423ZM20.2175 29.2295C20.2838 29.1632 20.4099 29.0745 20.6315 28.9807L20.1294 27.7939C19.8149 27.9269 19.5286 28.096 19.3063 28.3183L20.2175 29.2295ZM20.6421 28.9761C20.8368 28.8896 21.0413 28.846 21.2619 28.846V27.5574C20.8639 27.5574 20.4808 27.6376 20.1188 27.7985L20.6421 28.9761ZM21.2619 28.846C21.5534 28.846 21.7224 28.909 21.8218 28.9781L22.5577 27.9202C22.1828 27.6594 21.7332 27.5574 21.2619 27.5574V28.846ZM21.8482 28.9955C21.8978 29.0265 22.0143 29.1374 22.1076 29.4938L23.3542 29.1673C23.2208 28.6578 22.9765 28.1811 22.5312 27.9028L21.8482 28.9955ZM22.1098 29.5017C22.3893 30.5163 22.669 31.4901 22.9488 32.4229L24.1831 32.0526C23.9063 31.1298 23.6293 30.1654 23.3521 29.1594L22.1098 29.5017ZM22.9514 32.4311C23.2397 33.3476 23.5383 34.3053 23.8473 35.3044L25.0784 34.9236C24.7689 33.9227 24.4696 32.963 24.1806 32.0444L22.9514 32.4311ZM24.4629 35.7583H24.5557V34.4697H24.4629V35.7583ZM25.1749 35.2919C25.4555 34.3151 25.7408 33.2515 26.0309 32.1015L24.7814 31.7864C24.4942 32.925 24.2125 33.9748 23.9364 34.9361L25.1749 35.2919ZM26.0296 32.1068C26.3298 30.9577 26.6145 29.8137 26.8837 28.6747L25.6296 28.3783C25.3628 29.5073 25.0805 30.6416 24.7828 31.7811L26.0296 32.1068ZM26.5448 29.1028C26.6961 29.0271 26.8574 28.9633 27.0294 28.9117L26.6592 27.6774C26.4189 27.7495 26.1884 27.8402 25.9685 27.9502L26.5448 29.1028ZM27.0213 28.914C27.1705 28.8714 27.3519 28.846 27.5711 28.846V27.5574C27.2542 27.5574 26.9511 27.5939 26.6673 27.675L27.0213 28.914ZM27.5711 28.846C27.8516 28.846 28.0481 28.9094 28.1927 29.0039L28.8979 27.9253C28.5064 27.6694 28.0535 27.5574 27.5711 27.5574V28.846ZM28.2076 29.0134C28.2369 29.0314 28.303 29.0685 28.303 29.2997H29.5917C29.5917 28.7473 29.3898 28.2277 28.883 27.9159L28.2076 29.0134ZM28.303 29.2997C28.303 29.4408 28.2642 29.7053 28.154 30.1261L29.4006 30.4526C29.5172 30.0074 29.5917 29.6121 29.5917 29.2997H28.303ZM28.1505 30.1401C28.0521 30.5533 27.9178 31.0267 27.7462 31.5616L28.9733 31.9552C29.1522 31.3973 29.2963 30.8914 29.4041 30.4386L28.1505 30.1401ZM27.7439 31.5689C27.5828 32.0926 27.3959 32.6433 27.183 33.2212L28.3922 33.6667C28.6123 33.0693 28.8068 32.4963 28.9756 31.9479L27.7439 31.5689ZM27.1796 33.2306C26.9768 33.8085 26.7695 34.3544 26.5578 34.8687L27.7494 35.3593C27.9706 34.8221 28.186 34.2547 28.3956 33.6573L27.1796 33.2306ZM26.5553 34.8747C26.3523 35.3823 26.1608 35.8305 25.9809 36.2203L27.151 36.7603C27.3422 36.346 27.5425 35.8767 27.7518 35.3533L26.5553 34.8747ZM25.9837 36.2145C25.7993 36.6036 25.6719 36.8279 25.5979 36.9288L26.6371 37.6909C26.7899 37.4826 26.9614 37.1605 27.1482 36.7661L25.9837 36.2145ZM34.5129 28.2172L34.3049 28.8272L34.3175 28.8312L34.5129 28.2172ZM35.6726 28.8203L35.2682 29.3218V29.3218L35.6726 28.8203ZM36.3994 29.7326L36.9824 29.4583V29.4583L36.3994 29.7326ZM34.8067 33.9542L34.4047 33.4507L34.4037 33.4515L34.8067 33.9542ZM32.7809 35.5779L32.3779 35.0752L30.9468 36.2222H32.7809V35.5779ZM36.4922 35.5779L37.0579 35.2694L36.8747 34.9336H36.4922V35.5779ZM36.6623 36.0109L36.0442 36.1927L36.049 36.2092L36.0547 36.2254L36.6623 36.0109ZM36.5077 37.3872L36.9484 37.8572L36.9559 37.8501L36.9633 37.8428L36.5077 37.3872ZM30.4923 37.6191L30.1293 38.1515L30.2935 38.2635H30.4923V37.6191ZM29.9511 37.0315L29.3748 37.3197L29.3821 37.3343L29.3901 37.3486L29.9511 37.0315ZM29.982 35.2841L30.5325 35.6192L30.5385 35.6088L29.982 35.2841ZM30.4614 34.6965L30.871 35.194L30.8801 35.1862L30.4614 34.6965ZM32.5954 32.8718L32.1792 32.3799L32.1766 32.3821L32.5954 32.8718ZM33.2603 32.2687L33.7159 32.7243L33.7224 32.7178L33.7287 32.7111L33.2603 32.2687ZM33.6778 31.7738L33.1712 31.3758L33.1621 31.3874L33.1535 31.3993L33.6778 31.7738ZM33.9098 31.3718L33.315 31.124L33.306 31.1457L33.2985 31.168L33.9098 31.3718ZM33.6005 30.3357L33.243 30.8719L33.2532 30.8784L33.6005 30.3357ZM31.5593 30.2893L31.7919 30.8903L31.8018 30.8863L31.5593 30.2893ZM30.7552 30.6914L30.3836 31.2178L30.7448 31.4727L31.1126 31.2275L30.7552 30.6914ZM30.3222 30.2275L29.7724 30.5635L30.3222 30.2275ZM30.9098 28.3873L31.2027 28.9613L31.2118 28.9565L30.9098 28.3873ZM32.951 28.6296C33.4833 28.6296 33.9315 28.6997 34.305 28.827L34.7208 27.6073C34.187 27.4254 33.594 27.3409 32.951 27.3409V28.6296ZM34.3175 28.8312C34.707 28.9551 35.0198 29.1215 35.2682 29.3218L36.0771 28.3187C35.6863 28.0036 35.2259 27.7679 34.7082 27.6032L34.3175 28.8312ZM35.2682 29.3218C35.5165 29.5221 35.6955 29.75 35.8164 30.007L36.9824 29.4583C36.7735 29.0143 36.468 28.6339 36.0771 28.3187L35.2682 29.3218ZM35.8164 30.007C35.9395 30.2684 36.0025 30.5506 36.0025 30.8615H37.2912C37.2912 30.3683 37.1893 29.8979 36.9824 29.4583L35.8164 30.007ZM36.0025 30.8615C36.0025 31.6717 35.55 32.5364 34.4047 33.4507L35.2087 34.4578C36.517 33.4133 37.2912 32.2162 37.2912 30.8615H36.0025ZM34.4037 33.4515L32.3779 35.0752L33.1839 36.0807L35.2096 34.457L34.4037 33.4515ZM32.7809 36.2222H36.4922V34.9336H32.7809V36.2222ZM35.9266 35.8865C35.9595 35.9469 36.0007 36.0449 36.0442 36.1927L37.2805 35.8291C37.2208 35.6264 37.1486 35.4358 37.0579 35.2694L35.9266 35.8865ZM36.0547 36.2254C36.0898 36.3246 36.1108 36.442 36.1108 36.5831H37.3994C37.3994 36.3118 37.3586 36.0477 37.2699 35.7965L36.0547 36.2254ZM36.1108 36.5831C36.1108 36.8807 36.0414 36.9423 36.0521 36.9316L36.9633 37.8428C37.3039 37.5022 37.3994 37.0277 37.3994 36.5831H36.1108ZM36.067 36.9171C36.0431 36.9395 35.9949 36.9748 35.8582 36.9748V38.2635C36.2576 38.2635 36.6423 38.1441 36.9484 37.8572L36.067 36.9171ZM35.8582 36.9748H30.4923V38.2635H35.8582V36.9748ZM30.8553 37.0868C30.7094 36.9873 30.597 36.8649 30.512 36.7145L29.3901 37.3486C29.5732 37.6724 29.8216 37.9417 30.1293 38.1515L30.8553 37.0868ZM30.5274 36.7434C30.4562 36.6011 30.4098 36.4145 30.4098 36.1655H29.1212C29.1212 36.5764 29.1985 36.9671 29.3748 37.3197L30.5274 36.7434ZM30.4098 36.1655C30.4098 35.9025 30.4637 35.7319 30.5324 35.6191L29.4316 34.9491C29.2116 35.3105 29.1212 35.7276 29.1212 36.1655H30.4098ZM30.5385 35.6088C30.6541 35.4107 30.7676 35.279 30.871 35.1939L30.0518 34.1991C29.8046 34.4027 29.5985 34.6627 29.4254 34.9595L30.5385 35.6088ZM30.8801 35.1862L33.0141 33.3615L32.1766 32.3821L30.0426 34.2068L30.8801 35.1862ZM33.0116 33.3636C33.2881 33.1296 33.524 32.9162 33.7159 32.7243L32.8047 31.8131C32.646 31.9717 32.4387 32.1603 32.1792 32.3799L33.0116 33.3636ZM33.7287 32.7111C33.9162 32.5126 34.0764 32.3244 34.2021 32.1484L33.1535 31.3993C33.0731 31.5119 32.9549 31.6537 32.7919 31.8263L33.7287 32.7111ZM34.1845 32.1719C34.3265 31.9912 34.4489 31.7918 34.521 31.5755L33.2985 31.168C33.2881 31.1992 33.256 31.2678 33.1712 31.3758L34.1845 32.1719ZM34.5045 31.6196C34.5829 31.4314 34.6314 31.2286 34.6314 31.0161H33.3428C33.3428 31.0305 33.3397 31.0648 33.315 31.124L34.5045 31.6196ZM34.6314 31.0161C34.6314 30.4924 34.3773 30.0679 33.9478 29.793L33.2532 30.8784C33.3092 30.9143 33.3258 30.94 33.3302 30.9478C33.3338 30.9541 33.3428 30.9712 33.3428 31.0161H34.6314ZM33.9579 29.7996C33.5811 29.5484 33.1394 29.444 32.6727 29.444V30.7326C32.9482 30.7326 33.1251 30.7932 33.2431 30.8718L33.9579 29.7996ZM32.6727 29.444C32.1902 29.444 31.7349 29.5225 31.3168 29.6924L31.8018 30.8863C32.0435 30.7881 32.3305 30.7326 32.6727 30.7326V29.444ZM31.3267 29.6885C30.9762 29.8241 30.6634 29.9782 30.3978 30.1553L31.1126 31.2275C31.2799 31.116 31.5032 31.002 31.7919 30.8902L31.3267 29.6885ZM31.1267 30.165C31.0243 30.0927 30.9402 30.0032 30.872 29.8915L29.7724 30.5635C29.931 30.8229 30.1356 31.0427 30.3836 31.2178L31.1267 30.165ZM30.872 29.8915C30.8286 29.8204 30.7964 29.7236 30.7964 29.578H29.5078C29.5078 29.9273 29.589 30.2634 29.7724 30.5635L30.872 29.8915ZM30.7964 29.578C30.7964 29.415 30.8334 29.3054 30.8851 29.2242C30.9381 29.1409 31.0314 29.0486 31.2026 28.9612L30.617 27.8134C30.283 27.9837 29.9975 28.2187 29.7979 28.5323C29.597 28.848 29.5078 29.205 29.5078 29.578H30.7964ZM31.2118 28.9565C31.5891 28.7562 32.1526 28.6296 32.951 28.6296V27.3409C32.0382 27.3409 31.2408 27.4823 30.6078 27.8181L31.2118 28.9565Z"
        fill="#633001" />
    <defs>
        <clipPath id="clip0">
            <rect width="39" height="39" fill="white" transform="translate(0 0.103516)" />
        </clipPath>
    </defs>
</svg>