<svg width="40" height="35" viewBox="0 0 40 35" fill="none" xmlns="http://www.w3.org/2000/svg">
    <path
        d="M38.4754 22.9581C37.3834 27.2004 33.5589 30.757 28.3438 32.6562V16.4159C28.3438 7.34936 33.0681 0 39.1114 0L38.7594 20.762C38.751 21.5027 38.6557 22.2397 38.4754 22.9581Z"
        fill="url(#paint0_linear)" />
    <path
        d="M0.636042 22.9581C1.72889 27.2004 5.55341 30.757 10.7686 32.6562V16.4159C10.7686 7.34936 6.04422 0 0 0L0.352948 20.762C0.360997 21.5026 0.456013 22.2397 0.636042 22.9581Z"
        fill="url(#paint1_linear)" />
    <path
        d="M19.6581 12.0859C19.6581 12.0859 25.4652 19.4335 25.4652 26.5429C25.4652 32.8324 19.6581 34.9999 19.6581 34.9999H19.6508C19.6508 34.9999 13.8428 32.8324 13.8428 26.5429C13.8428 19.4335 19.6499 12.0859 19.6499 12.0859"
        fill="url(#paint2_linear)" />
    <defs>
        <linearGradient id="paint0_linear" x1="6310.08" y1="16261.5" x2="6310.08" y2="8460.23"
            gradientUnits="userSpaceOnUse">
            <stop stop-color="#202052" />
            <stop offset="1" stop-color="#131135" />
        </linearGradient>
        <linearGradient id="paint1_linear" x1="2961.14" y1="16350.3" x2="2961.14" y2="8480.48"
            gradientUnits="userSpaceOnUse">
            <stop stop-color="#202052" />
            <stop offset="1" stop-color="#131135" />
        </linearGradient>
        <linearGradient id="paint2_linear" x1="5014.17" y1="11632.7" x2="5014.17" y2="5920"
            gradientUnits="userSpaceOnUse">
            <stop stop-color="#202052" />
            <stop offset="1" stop-color="#131135" />
        </linearGradient>
    </defs>
</svg>