<svg width="40" height="40" viewBox="0 0 40 40" fill="none" xmlns="http://www.w3.org/2000/svg">
    <rect x="0.5" y="0.5" width="39" height="39" rx="14.5" fill="white" stroke="#202251" />
    <path fill-rule="evenodd" clip-rule="evenodd"
        d="M21.5916 27.8651H12.0374C11.4092 27.8651 10.8999 27.3558 10.8999 26.7276C10.8999 26.0994 11.4092 25.5901 12.0374 25.5901H21.5916C22.0373 24.5213 23.0921 23.7701 24.3224 23.7701C25.5527 23.7701 26.6075 24.5213 27.0532 25.5901H27.9624C28.5906 25.5901 29.0999 26.0994 29.0999 26.7276C29.0999 27.3558 28.5906 27.8651 27.9624 27.8651H27.0532C26.6075 28.9339 25.5527 29.6851 24.3224 29.6851C23.0921 29.6851 22.0373 28.9339 21.5916 27.8651ZM12.9466 21.0401H12.0374C11.4092 21.0401 10.8999 20.5308 10.8999 19.9026C10.8999 19.2744 11.4092 18.7651 12.0374 18.7651H12.9466C13.3923 17.6963 14.4471 16.9451 15.6774 16.9451C16.9077 16.9451 17.9625 17.6963 18.4082 18.7651H27.9624C28.5906 18.7651 29.0999 19.2744 29.0999 19.9026C29.0999 20.5308 28.5906 21.0401 27.9624 21.0401H18.4082C17.9625 22.1089 16.9077 22.8601 15.6774 22.8601C14.4471 22.8601 13.3923 22.1089 12.9466 21.0401ZM21.5916 14.2151H12.0374C11.4092 14.2151 10.8999 13.7058 10.8999 13.0776C10.8999 12.4494 11.4092 11.9401 12.0374 11.9401H21.5916C22.0373 10.8713 23.0921 10.1201 24.3224 10.1201C25.5527 10.1201 26.6075 10.8713 27.0532 11.9401H27.9624C28.5906 11.9401 29.0999 12.4494 29.0999 13.0776C29.0999 13.7058 28.5906 14.2151 27.9624 14.2151H27.0532C26.6075 15.2839 25.5527 16.0351 24.3224 16.0351C23.0921 16.0351 22.0373 15.2839 21.5916 14.2151Z"
        fill="#202251" />
</svg>