<svg width="42" height="40" viewBox="0 0 42 40" fill="none" xmlns="http://www.w3.org/2000/svg">
<path fill-rule="evenodd" clip-rule="evenodd" d="M20.5062 0C9.18241 0 0 9.18037 0 20.5062C0 29.5663 5.87564 37.2526 14.0234 39.9644C15.0482 40.1542 15.4245 39.5192 15.4245 38.978C15.4245 38.4893 15.4054 36.8736 15.3966 35.1601C9.69177 36.4006 8.48798 32.7407 8.48798 32.7407C7.55517 30.3708 6.21114 29.7402 6.21114 29.7402C4.35061 28.4675 6.35138 28.4936 6.35138 28.4936C8.41021 28.6383 9.49482 30.6071 9.49482 30.6071C11.3238 33.7417 14.292 32.8354 15.4621 32.3118C15.6462 30.9868 16.1776 30.0818 16.7641 29.5697C12.2094 29.0515 7.42104 27.2929 7.42104 19.4355C7.42104 17.1967 8.22209 15.3674 9.53421 13.9313C9.32129 13.4149 8.61939 11.3292 9.73285 8.50462C9.73285 8.50462 11.4548 7.95383 15.3732 10.6069C17.0089 10.1526 18.7631 9.92472 20.5058 9.91657C22.2485 9.92438 24.0041 10.1522 25.6429 10.6069C29.5568 7.95383 31.2764 8.50462 31.2764 8.50462C32.3926 11.3292 31.6907 13.4149 31.4778 13.9313C32.7926 15.3674 33.5882 17.1967 33.5882 19.4355C33.5882 27.3116 28.7911 29.0458 24.2248 29.5534C24.9604 30.1898 25.6157 31.4377 25.6157 33.3509C25.6157 36.0946 25.5923 38.3029 25.5923 38.9783C25.5923 39.524 25.9614 40.1634 27.0005 39.962C35.1442 37.2475 41.0123 29.5636 41.0123 20.5065C41.012 9.18037 31.8309 0 20.5062 0Z" fill="#202251"/>
<path d="M7.76671 29.4421C7.72155 29.5443 7.56128 29.5748 7.41526 29.5049C7.26653 29.438 7.18298 29.2991 7.2312 29.1969C7.27535 29.092 7.43597 29.0627 7.58436 29.1327C7.73344 29.1996 7.81832 29.3398 7.76671 29.4421Z" fill="#202251"/>
<path d="M8.59734 30.3687C8.49955 30.4594 8.30803 30.4173 8.17865 30.274C8.04418 30.131 8.01939 29.9399 8.11854 29.8478C8.2194 29.7572 8.40481 29.7996 8.53894 29.9426C8.67341 30.0872 8.69956 30.2767 8.59734 30.3687Z" fill="#202251"/>
<path d="M9.40604 31.5494C9.2804 31.6371 9.07461 31.5552 8.94761 31.3725C8.82197 31.1902 8.82197 30.9712 8.95067 30.8839C9.07767 30.7963 9.28039 30.8754 9.40909 31.056C9.53439 31.2414 9.5344 31.4605 9.40604 31.5494Z" fill="#202251"/>
<path d="M10.5137 32.6908C10.4013 32.8147 10.1619 32.7814 9.98669 32.612C9.80739 32.4469 9.75748 32.212 9.86988 32.088C9.98398 31.9641 10.2247 31.9987 10.401 32.1664C10.5792 32.3318 10.6336 32.5678 10.5137 32.6908Z" fill="#202251"/>
<path d="M12.0416 33.3533C11.9917 33.5139 11.7615 33.5869 11.5292 33.5183C11.2969 33.448 11.1455 33.2599 11.1923 33.0979C11.2406 32.9359 11.4722 32.8602 11.7061 32.9332C11.9377 33.0032 12.0898 33.1896 12.0416 33.3533Z" fill="#202251"/>
<path d="M13.7196 33.4758C13.7253 33.645 13.5284 33.7852 13.2846 33.7882C13.0394 33.794 12.8408 33.6568 12.8384 33.4904C12.8384 33.3196 13.0309 33.1811 13.2761 33.1767C13.5199 33.1723 13.7196 33.3081 13.7196 33.4758Z" fill="#202251"/>
<path d="M15.2813 33.2103C15.3105 33.375 15.141 33.5444 14.8989 33.5896C14.6609 33.6334 14.4405 33.5312 14.4103 33.3679C14.3807 33.1988 14.5532 33.0293 14.7909 32.9855C15.0334 32.9434 15.2504 33.0425 15.2813 33.2103Z" fill="#202251"/>
</svg>
