<svg width="20" height="20" viewBox="0 0 20 20" fill="none" xmlns="http://www.w3.org/2000/svg">
<g clip-path="url(#clip0)">
<path fill-rule="evenodd" clip-rule="evenodd" d="M10.0005 0C15.5232 0 20.0005 4.47726 20.0005 10C20.0005 15.5227 15.5237 20.0005 10.0005 20.0005C4.47777 20.0005 0 15.5232 0 10C0 4.47777 4.47726 0 10.0005 0ZM8.79167 10.789L12.6579 6.12007C13.1288 5.55106 13.9745 5.47114 14.543 5.94153C15.1115 6.41242 15.1914 7.25811 14.7206 7.82611L9.11588 14.5966L5.43827 11.4324C4.88139 10.9529 4.81463 10.1072 5.29311 9.54782C5.77158 8.98892 6.62131 8.92115 7.17971 9.40215L8.79167 10.789Z" fill="#27AE60"/>
</g>
<defs>
<clipPath id="clip0">
<rect width="20" height="20" fill="white"/>
</clipPath>
</defs>
</svg>
