<svg width="24" height="18" viewBox="0 0 24 18" fill="none" xmlns="http://www.w3.org/2000/svg">
<path d="M1.8 0.299999C0.805889 0.299999 0 1.10586 0 2.1C0 3.09408 0.805889 3.9 1.8 3.9H22.2C23.1941 3.9 24 3.09408 24 2.1C24 1.10586 23.1941 0.299999 22.2 0.299999H1.8ZM1.8 7.2C0.805889 7.2 0 8.00585 0 9C0 9.99408 0.805889 10.8 1.8 10.8H22.2C23.1941 10.8 24 9.99408 24 9C24 8.00585 23.1941 7.2 22.2 7.2H1.8ZM1.8 14.1C0.805889 14.1 0 14.9059 0 15.9C0 16.8941 0.805889 17.7 1.8 17.7H22.2C23.1941 17.7 24 16.8941 24 15.9C24 14.9059 23.1941 14.1 22.2 14.1H1.8Z" fill="#202251"/>
</svg>
