<svg width="40" height="40" viewBox="0 0 40 40" fill="none" xmlns="http://www.w3.org/2000/svg">
<rect x="0.5" y="0.5" width="39" height="39" rx="14.5" fill="#F0B90B" stroke="#F0B90B"/>
<path d="M20.4699 7L13.9448 10.8293L16.3438 12.2439L20.4699 9.82927L24.5961 12.2439L26.9951 10.8293L20.4699 7Z" fill="white"/>
<path d="M24.5961 14.2439L26.9951 15.6586V18.4878L22.8689 20.9025V25.7317L20.4699 27.1463L18.071 25.7317V20.9025L13.9448 18.4878V15.6586L16.3438 14.2439L20.4699 16.6586L24.5961 14.2439Z" fill="white"/>
<path d="M26.9951 20.4878V23.317L24.5962 24.7317V21.9024L26.9951 20.4878Z" fill="white"/>
<path d="M24.5723 26.7317L28.6984 24.3171V19.4879L31.0974 18.0732V25.7317L24.5723 29.5611V26.7317Z" fill="white"/>
<path d="M28.6987 14.6586L26.2998 13.244L28.6987 11.8293L31.0977 13.244V16.0733L28.6987 17.4879V14.6586Z" fill="white"/>
<path d="M18.0713 30.5854V27.7561L20.4702 29.1707L22.8692 27.7561V30.5854L20.4702 32L18.0713 30.5854Z" fill="white"/>
<path d="M16.3438 24.7317L13.9448 23.317V20.4878L16.3438 21.9024V24.7317Z" fill="white"/>
<path d="M20.4702 14.6586L18.0713 13.244L20.4702 11.8293L22.8692 13.244L20.4702 14.6586Z" fill="white"/>
<path d="M14.6407 13.244L12.2417 14.6586V17.4879L9.84277 16.0733V13.244L12.2417 11.8293L14.6407 13.244Z" fill="white"/>
<path d="M9.84277 18.0732L12.2417 19.4879V24.3171L16.3679 26.7317V29.5611L9.84277 25.7317V18.0732Z" fill="white"/>
</svg>
