<svg width="80" height="80" viewBox="0 0 80 80" fill="none" xmlns="http://www.w3.org/2000/svg">
<path d="M24.43 63C24.3367 62.7267 24.24 62.4567 24.14 62.19C24.04 61.9233 23.9433 61.65 23.85 61.37H20.93C20.8367 61.65 20.74 61.9267 20.64 62.2C20.5467 62.4667 20.4533 62.7333 20.36 63H19.05C19.31 62.26 19.5567 61.5767 19.79 60.95C20.0233 60.3233 20.25 59.73 20.47 59.17C20.6967 58.61 20.92 58.0767 21.14 57.57C21.36 57.0633 21.5867 56.5633 21.82 56.07H23.01C23.2433 56.5633 23.47 57.0633 23.69 57.57C23.91 58.0767 24.13 58.61 24.35 59.17C24.5767 59.73 24.8067 60.3233 25.04 60.95C25.28 61.5767 25.53 62.26 25.79 63H24.43ZM22.39 57.41C22.2367 57.7633 22.06 58.1933 21.86 58.7C21.6667 59.2067 21.4633 59.7567 21.25 60.35H23.53C23.3167 59.7567 23.11 59.2033 22.91 58.69C22.71 58.1767 22.5367 57.75 22.39 57.41ZM26.1792 60.39C26.1792 60.0033 26.2392 59.6433 26.3592 59.31C26.4792 58.97 26.6492 58.6767 26.8692 58.43C27.0959 58.1833 27.3692 57.99 27.6892 57.85C28.0092 57.71 28.3692 57.64 28.7692 57.64C29.2626 57.64 29.7292 57.73 30.1692 57.91L29.9092 58.9C29.7692 58.84 29.6092 58.79 29.4292 58.75C29.2559 58.71 29.0692 58.69 28.8692 58.69C28.3959 58.69 28.0359 58.84 27.7892 59.14C27.5426 59.4333 27.4192 59.85 27.4192 60.39C27.4192 60.91 27.5359 61.3233 27.7692 61.63C28.0026 61.93 28.3959 62.08 28.9492 62.08C29.1559 62.08 29.3592 62.06 29.5592 62.02C29.7592 61.98 29.9326 61.93 30.0792 61.87L30.2492 62.87C30.1159 62.9367 29.9126 62.9967 29.6392 63.05C29.3726 63.1033 29.0959 63.13 28.8092 63.13C28.3626 63.13 27.9726 63.0633 27.6392 62.93C27.3126 62.79 27.0392 62.6 26.8192 62.36C26.6059 62.1133 26.4459 61.8233 26.3392 61.49C26.2326 61.15 26.1792 60.7833 26.1792 60.39ZM34.166 58.86C34.066 58.8267 33.926 58.7933 33.746 58.76C33.5727 58.72 33.3693 58.7 33.136 58.7C33.0027 58.7 32.8593 58.7133 32.706 58.74C32.5593 58.7667 32.456 58.79 32.396 58.81V63H31.186V58.02C31.4193 57.9333 31.7093 57.8533 32.056 57.78C32.4093 57.7 32.7993 57.66 33.226 57.66C33.306 57.66 33.3993 57.6667 33.506 57.68C33.6127 57.6867 33.7193 57.7 33.826 57.72C33.9327 57.7333 34.036 57.7533 34.136 57.78C34.236 57.8 34.316 57.82 34.376 57.84L34.166 58.86ZM39.665 57.77C39.125 59.7567 38.4983 61.5567 37.785 63.17C37.6517 63.47 37.515 63.7267 37.375 63.94C37.235 64.1533 37.0783 64.33 36.905 64.47C36.7317 64.61 36.5383 64.71 36.325 64.77C36.1117 64.8367 35.865 64.87 35.585 64.87C35.3983 64.87 35.2117 64.85 35.025 64.81C34.845 64.77 34.7083 64.7267 34.615 64.68L34.835 63.71C35.075 63.8033 35.3117 63.85 35.545 63.85C35.8583 63.85 36.1017 63.7733 36.275 63.62C36.455 63.4733 36.6117 63.2433 36.745 62.93C36.365 62.1967 35.9983 61.3967 35.645 60.53C35.2983 59.6633 34.9883 58.7433 34.715 57.77H36.005C36.0717 58.05 36.1517 58.3533 36.245 58.68C36.345 59.0067 36.4517 59.34 36.565 59.68C36.6783 60.0133 36.7983 60.3467 36.925 60.68C37.0517 61.0133 37.1783 61.3233 37.305 61.61C37.5183 61.0167 37.7183 60.3867 37.905 59.72C38.0917 59.0467 38.2617 58.3967 38.415 57.77H39.665ZM44.0505 60.41C44.0505 59.87 43.9272 59.45 43.6805 59.15C43.4405 58.85 43.0505 58.7 42.5105 58.7C42.3972 58.7 42.2772 58.7067 42.1505 58.72C42.0305 58.7267 41.9105 58.7467 41.7905 58.78V61.77C41.8972 61.8433 42.0372 61.9133 42.2105 61.98C42.3905 62.04 42.5805 62.07 42.7805 62.07C43.2205 62.07 43.5405 61.92 43.7405 61.62C43.9472 61.32 44.0505 60.9167 44.0505 60.41ZM45.2905 60.39C45.2905 60.79 45.2372 61.1567 45.1305 61.49C45.0305 61.8233 44.8839 62.11 44.6905 62.35C44.4972 62.59 44.2539 62.7767 43.9605 62.91C43.6739 63.0433 43.3472 63.11 42.9805 63.11C42.7339 63.11 42.5072 63.08 42.3005 63.02C42.0939 62.96 41.9239 62.8933 41.7905 62.82V64.85H40.5805V57.94C40.8272 57.8733 41.1305 57.81 41.4905 57.75C41.8505 57.69 42.2305 57.66 42.6305 57.66C43.0439 57.66 43.4139 57.7233 43.7405 57.85C44.0672 57.9767 44.3439 58.16 44.5705 58.4C44.8039 58.6333 44.9805 58.92 45.1005 59.26C45.2272 59.5933 45.2905 59.97 45.2905 60.39ZM46.4776 56.39L47.6876 56.19V57.77H49.5476V58.78H47.6876V60.91C47.6876 61.33 47.7542 61.63 47.8876 61.81C48.0209 61.99 48.2476 62.08 48.5676 62.08C48.7876 62.08 48.9809 62.0567 49.1476 62.01C49.3209 61.9633 49.4576 61.92 49.5576 61.88L49.7576 62.84C49.6176 62.9 49.4342 62.96 49.2076 63.02C48.9809 63.0867 48.7142 63.12 48.4076 63.12C48.0342 63.12 47.7209 63.07 47.4676 62.97C47.2209 62.87 47.0242 62.7267 46.8776 62.54C46.7309 62.3467 46.6276 62.1167 46.5676 61.85C46.5076 61.5767 46.4776 61.2667 46.4776 60.92V56.39ZM55.3301 60.38C55.3301 60.7933 55.2701 61.17 55.1501 61.51C55.0301 61.85 54.8601 62.14 54.6401 62.38C54.4201 62.62 54.1534 62.8067 53.8401 62.94C53.5334 63.0733 53.1934 63.14 52.8201 63.14C52.4467 63.14 52.1067 63.0733 51.8001 62.94C51.4934 62.8067 51.2301 62.62 51.0101 62.38C50.7901 62.14 50.6167 61.85 50.4901 61.51C50.3701 61.17 50.3101 60.7933 50.3101 60.38C50.3101 59.9667 50.3701 59.5933 50.4901 59.26C50.6167 58.92 50.7901 58.63 51.0101 58.39C51.2367 58.15 51.5034 57.9667 51.8101 57.84C52.1167 57.7067 52.4534 57.64 52.8201 57.64C53.1867 57.64 53.5234 57.7067 53.8301 57.84C54.1434 57.9667 54.4101 58.15 54.6301 58.39C54.8501 58.63 55.0201 58.92 55.1401 59.26C55.2667 59.5933 55.3301 59.9667 55.3301 60.38ZM54.0901 60.38C54.0901 59.86 53.9767 59.45 53.7501 59.15C53.5301 58.8433 53.2201 58.69 52.8201 58.69C52.4201 58.69 52.1067 58.8433 51.8801 59.15C51.6601 59.45 51.5501 59.86 51.5501 60.38C51.5501 60.9067 51.6601 61.3233 51.8801 61.63C52.1067 61.9367 52.4201 62.09 52.8201 62.09C53.2201 62.09 53.5301 61.9367 53.7501 61.63C53.9767 61.3233 54.0901 60.9067 54.0901 60.38ZM57.8866 62.13C58.2066 62.13 58.44 62.0933 58.5866 62.02C58.7333 61.94 58.8066 61.8067 58.8066 61.62C58.8066 61.4467 58.7266 61.3033 58.5666 61.19C58.4133 61.0767 58.1566 60.9533 57.7966 60.82C57.5766 60.74 57.3733 60.6567 57.1866 60.57C57.0066 60.4767 56.85 60.37 56.7166 60.25C56.5833 60.13 56.4766 59.9867 56.3966 59.82C56.3233 59.6467 56.2866 59.4367 56.2866 59.19C56.2866 58.71 56.4633 58.3333 56.8166 58.06C57.17 57.78 57.65 57.64 58.2566 57.64C58.5633 57.64 58.8566 57.67 59.1366 57.73C59.4166 57.7833 59.6266 57.8367 59.7666 57.89L59.5466 58.87C59.4133 58.81 59.2433 58.7567 59.0366 58.71C58.83 58.6567 58.59 58.63 58.3166 58.63C58.07 58.63 57.87 58.6733 57.7166 58.76C57.5633 58.84 57.4866 58.9667 57.4866 59.14C57.4866 59.2267 57.5 59.3033 57.5266 59.37C57.56 59.4367 57.6133 59.5 57.6866 59.56C57.76 59.6133 57.8566 59.67 57.9766 59.73C58.0966 59.7833 58.2433 59.84 58.4166 59.9C58.7033 60.0067 58.9466 60.1133 59.1466 60.22C59.3466 60.32 59.51 60.4367 59.6366 60.57C59.77 60.6967 59.8666 60.8433 59.9266 61.01C59.9866 61.1767 60.0166 61.3767 60.0166 61.61C60.0166 62.11 59.83 62.49 59.4566 62.75C59.09 63.0033 58.5633 63.13 57.8766 63.13C57.4166 63.13 57.0466 63.09 56.7666 63.01C56.4866 62.9367 56.29 62.8767 56.1766 62.83L56.3866 61.82C56.5666 61.8933 56.78 61.9633 57.0266 62.03C57.28 62.0967 57.5666 62.13 57.8866 62.13Z" fill="white"/>
<path d="M42.3455 42.0782C41.9947 41.8447 41.6147 41.8739 41.2347 41.9031C41.0009 41.9614 40.9132 42.3408 40.5625 42.2241C40.4455 41.8447 40.9424 41.7572 40.884 41.4362C40.9132 41.2319 40.7671 41.1152 40.6209 40.9985C40.3286 40.9109 40.0363 40.9985 39.7733 41.1444C39.4517 40.9109 39.1302 40.9401 38.7795 40.9985C38.6918 41.1152 38.6041 41.2027 38.5456 41.2611C38.5456 41.6113 38.9548 41.8447 38.8671 42.2241C38.1949 41.8739 38.1949 41.8739 37.5226 41.9031C37.3472 41.9906 37.318 42.1949 37.0842 42.2241C37.0257 42.049 37.1718 41.8739 36.9672 41.6988C36.8211 41.6988 36.6457 41.728 36.4703 41.6988C36.3242 41.6696 36.1488 41.7572 36.0319 41.5821C36.8503 41.4946 37.2595 41.3486 38.1364 40.8526C37.6395 40.6483 37.2303 41.0277 36.7334 40.9985C36.2657 40.9985 35.8857 40.7942 35.4181 40.765C34.9504 40.765 34.7166 40.1522 34.2197 40.0355C34.2197 40.5024 34.2197 40.9109 34.2197 41.3486C34.4535 41.8739 34.6289 42.4283 35.3596 42.5742C35.6227 42.5742 35.915 42.5742 36.2073 42.5742C36.4996 42.4283 36.7334 42.1949 37.0842 42.2241C37.0842 42.4867 37.0842 42.7493 37.0842 43.0703C37.2303 43.2162 37.3765 43.3621 37.4934 43.4788C37.7564 43.4788 37.961 43.5664 38.1072 43.4205C38.2241 43.187 38.078 42.9536 38.2533 42.7785C38.5456 42.9828 38.6625 43.2746 38.721 43.5956C38.8087 43.9749 39.1302 44.15 39.3641 44.3834C40.0363 44.3834 40.0363 44.3834 40.6209 44.0041C40.8255 43.5956 40.7671 43.0995 41.1178 42.8077C41.5563 42.866 41.3224 43.2746 41.527 43.4788C41.9655 43.5664 42.1409 43.2162 42.3455 43.012C42.3455 42.6326 42.3455 42.3408 42.3455 42.0782C42.667 42.1657 42.93 42.3992 43.2223 42.6034C43.5731 42.6034 43.8946 42.6034 44.1284 42.6034C44.7423 42.4283 45.2099 42.0198 45.2099 41.5529C45.2099 41.086 45.8238 40.5316 45.1807 40.0939C44.6838 40.5024 44.0992 40.7942 43.4854 40.9693C42.8424 41.1444 42.1701 40.8234 41.3517 40.8234C42.0824 41.2903 42.7254 41.5237 43.6316 41.6113C43.1054 41.7864 42.7254 41.6405 42.4039 41.7864C42.3455 41.8739 42.3455 41.9906 42.3455 42.0782ZM27.3215 39.7145C27.4092 39.7145 27.5261 39.7437 27.5846 39.6853C28.4615 38.9266 29.5137 38.6932 30.6537 38.8391C30.9167 38.985 31.1798 39.1017 31.4429 39.2476C31.6475 39.5686 31.9982 39.8896 31.9982 40.2106C32.0275 40.7067 32.2028 41.1736 32.2321 41.6988C32.2613 42.6034 31.969 43.4497 32.0275 44.3543C32.0275 44.4126 32.0275 44.471 31.9982 44.5293C31.7644 45.2589 31.6475 46.0176 31.6767 46.7763C31.6767 47.1848 31.7059 47.5933 31.4721 47.9435C31.5598 48.1186 31.6183 48.2353 31.6475 48.3812C31.6767 48.5271 31.6475 48.673 31.6475 48.8189C31.6183 49.8694 31.969 50.8616 32.5244 51.9121C32.5536 51.4744 32.5828 51.2117 32.4951 50.9199C32.2905 50.3363 32.1736 49.7235 32.2028 49.1107C32.2613 48.352 32.1736 47.5933 32.349 46.8054C32.4951 46.2218 32.5536 45.609 32.6997 45.0254C32.9336 44.0625 33.109 43.0995 33.2551 42.1073C33.372 41.2611 33.1674 40.4149 32.8751 39.5686C33.2551 39.4519 33.6351 39.5978 33.9858 39.4227C32.349 38.8975 31.9982 37.6135 31.969 36.0961C31.5598 36.0961 31.209 36.0961 30.8583 36.0961C30.566 36.0961 30.3029 36.242 30.0106 36.3004C28.5784 36.6214 27.38 38.1679 27.3215 39.7145C27.2338 39.7145 27.1754 39.7145 27.1754 39.8312C27.2923 39.8604 27.3215 39.8021 27.3215 39.7145ZM52.2835 39.7145C52.2835 39.8021 52.2835 39.8604 52.4004 39.8604C52.4296 39.7437 52.3712 39.7145 52.2835 39.7145C52.225 39.1017 51.8743 38.5765 51.6696 38.022C51.5235 37.6719 51.2897 37.2925 50.9097 37.0299C49.8574 36.3004 48.6882 36.0086 47.4021 36.1253C47.5191 37.6427 47.0806 38.8099 45.6192 39.4519C45.8822 39.6562 46.233 39.3935 46.4668 39.5978C46.6422 39.948 46.3207 40.1522 46.3207 40.444C46.2914 41.9906 46.3499 43.508 46.7883 44.9962C47.0806 45.9008 47.256 46.8638 47.2268 47.8559C47.2268 48.7022 47.2268 49.5484 47.2268 50.3655C46.9637 50.8032 46.7006 51.2409 46.9345 51.8245C47.1683 51.5619 47.2852 51.2993 47.4021 50.9783C47.6068 50.3947 47.6652 49.7819 47.8114 49.1983C48.016 48.352 47.8406 47.535 47.9283 46.7179C47.6652 46.3969 47.7529 46.0176 47.7821 45.6966C47.8114 45.3172 47.5191 45.0254 47.5775 44.6753C47.6652 44.2667 47.3729 43.8874 47.4021 43.4497C47.4314 42.6618 47.4021 41.8739 47.4021 41.1152C47.4314 40.0647 47.8114 39.2476 48.7467 38.8683C49.8574 38.6932 50.7635 38.985 51.6404 39.5103C51.8158 39.5978 52.0204 39.8021 52.2835 39.7145ZM33.5474 31.6023C34.2197 32.1567 34.7166 32.7987 35.0966 33.5282C35.6227 34.462 36.1488 35.3958 36.7334 36.3004C36.9672 36.6506 37.1426 37.0883 37.5811 37.3509C37.8149 36.4463 38.1364 35.6 38.6041 34.7538C36.7334 33.2072 35.6227 31.2229 34.892 29.0344C34.1612 26.7875 33.9566 24.5405 34.3366 22.1477C33.3136 23.0232 32.6997 24.0445 32.2321 25.1825C31.969 25.8537 31.7352 26.554 31.8229 27.3127C31.8813 28.0131 32.1444 28.655 32.3782 29.3262C31.9982 29.7639 31.4721 30.0849 31.2967 30.6977C31.2383 31.4272 31.4429 32.0692 31.8813 32.682C32.1151 32.2151 32.4659 31.9233 32.7874 31.6023C33.0797 31.6023 33.3428 31.6023 33.5474 31.6023ZM46.9637 29.3262C47.1099 29.1219 47.1683 29.0636 47.2268 28.9468C47.6944 28.0422 47.7529 27.0501 47.5483 26.0871C47.3145 24.9199 46.7006 23.8694 45.9114 22.9356C45.6484 22.6438 45.5607 22.2061 45.0638 22.031C45.2684 23.2274 45.5607 24.3363 45.3269 25.5327C45.093 26.6707 44.9761 27.8088 44.5961 28.9468C44.2161 30.0557 43.8362 31.1354 43.2223 32.1275C42.5793 33.1489 41.7316 33.9659 40.884 34.783C41.3517 35.6292 41.7609 36.4171 41.907 37.4384C42.0532 37.2633 42.1408 37.1758 42.2285 37.0883C42.93 36.0086 43.6608 34.9581 44.2746 33.82C44.5669 33.2656 44.9176 32.7112 45.3269 32.2151C45.9407 31.4564 46.2914 31.4564 47.0806 31.9233C47.3729 32.1567 47.3145 32.5652 47.636 32.7112C48.1621 32.04 48.2206 31.2813 48.1329 30.4934C47.8406 30.0265 47.5483 29.5888 46.9637 29.3262ZM42.5501 37.5552C41.9655 38.1679 41.4978 38.664 41.0886 39.0726C40.1532 39.4519 39.2764 39.4519 38.4579 39.1309C37.8149 38.7224 37.5518 37.9929 37.1426 37.6719C36.2365 37.4093 35.535 37.1174 34.775 37.0591C34.0151 36.9715 33.372 36.5046 32.612 36.4755C32.612 37.6719 33.4305 38.664 34.395 38.985C35.6227 39.3935 36.8795 39.627 38.1656 39.6853C40.0071 39.7729 41.8486 39.8021 43.6608 39.3352C44.3623 39.1601 45.0638 39.0142 45.7068 38.6348C46.5545 38.1096 46.9345 37.3509 46.7006 36.4171C45.3269 36.9132 43.9238 37.3801 42.5501 37.5552ZM27 47.7392C27.2338 49.1107 27.9353 50.0153 28.8707 50.6865C29.7768 51.3285 30.7706 51.8829 31.9982 51.9996C31.4136 51.1534 31.1506 50.278 31.0629 49.2566C30.5368 48.7314 29.9229 48.2061 29.3676 47.6225C28.8414 47.0681 28.5784 46.3386 28.1984 45.609C27.76 46.3969 27.38 47.0973 27 47.7392ZM52.4881 47.8268C52.3127 47.5058 52.1373 47.1264 51.9327 46.7763C51.7281 46.3969 51.6404 45.9592 51.2897 45.6674C50.7343 46.9222 49.9451 47.9727 48.9805 48.8773C48.6298 49.1983 48.3667 49.5776 48.3083 50.0737C48.279 50.4239 48.1037 50.8032 47.9575 51.1242C47.8406 51.3868 47.636 51.5911 47.6068 51.9121C49.8574 51.6494 52.1665 49.8111 52.4881 47.8268ZM40.124 50.7157C41.2055 50.278 41.9947 49.636 42.6378 48.8481C42.93 48.1478 42.9008 47.4766 42.8131 46.7179C42.2285 47.4766 42.2285 47.4766 41.527 47.8559C41.2055 47.8559 40.7963 47.8559 40.3286 47.8559C40.3578 48.4396 40.2994 48.9356 40.0363 49.4317C39.744 49.4901 39.4225 49.5193 39.1887 49.0524C39.1887 48.7314 39.1887 48.2937 39.1887 47.8559C38.2241 47.7684 37.1426 48.0894 36.7919 46.7763C36.4996 47.2723 36.4703 47.7392 36.6457 48.2645C37.1718 49.6943 38.6333 50.7448 40.124 50.7157ZM40.9717 32.4777C41.264 32.1275 41.3224 31.719 41.2347 31.3105C41.0301 30.26 40.7963 29.2095 40.0948 28.334C39.861 28.334 39.6271 28.334 39.3933 28.334C38.4579 29.5596 38.2241 30.9603 38.4287 32.4777C39.3056 32.4777 40.124 32.4777 40.9717 32.4777ZM42.9885 36.884C44.6253 36.5922 46.0284 36.0378 47.4606 35.425C47.2268 34.2577 46.6714 33.2364 45.9407 32.2151C44.713 33.6158 44.1577 35.3374 42.9885 36.884ZM36.3826 36.7673C35.535 35.5125 34.9212 34.1702 34.1612 32.9154C34.0151 32.6528 33.752 32.3902 33.4305 32.2443C33.0797 32.9446 32.729 33.6158 32.4074 34.3161C32.2613 34.6371 32.1444 34.9581 32.0275 35.2499C32.7874 35.8627 35.2427 36.7089 36.3826 36.7673ZM48.4836 48.2353C49.039 47.8559 49.3313 47.3891 49.682 46.9513C50.062 46.4261 50.4712 45.93 50.822 45.4048C51.1143 44.9671 51.1143 44.5294 50.7635 44.1208C50.5297 43.8582 50.2959 43.6247 50.1205 43.3038C49.2144 43.5956 48.7175 44.2375 48.2498 44.9962C48.3959 46.0176 48.5713 47.0681 48.4836 48.2353ZM28.4322 44.471C28.3446 45.1421 28.8414 45.434 29.0753 45.8717C29.3091 46.3094 29.6306 46.7179 29.9522 47.0681C30.2737 47.4182 30.4491 47.9143 30.9752 48.2061C30.8875 47.0097 31.0921 45.9592 31.2967 44.8795C30.7998 44.3543 30.3029 43.8582 29.806 43.3329C29.7476 43.2746 29.6306 43.3038 29.543 43.2746C28.9876 43.5664 28.8707 44.1792 28.4322 44.471ZM35.6227 29.7055C36.178 30.9603 36.7919 32.1567 37.8149 33.2948C37.7272 32.3318 37.5226 31.5147 37.698 30.6393C37.9026 29.8223 38.341 29.1219 38.6918 28.3049C37.4934 28.5091 36.4703 28.8593 35.6227 29.7055ZM40.6209 28.3049C41.8778 29.7639 41.8778 31.3688 41.7609 33.178C42.667 31.9816 43.4269 30.9603 43.7777 29.6764C42.93 28.8593 41.9655 28.3924 40.6209 28.3049ZM41.7609 44.1792C42.4916 44.2375 43.0762 44.5877 43.1931 45.2297C43.3685 46.0176 43.69 46.7763 43.6316 47.6225C43.6023 47.856 43.5731 48.1186 43.69 48.3812C44.1869 48.0602 44.2746 47.535 44.5377 47.1556C44.5377 46.3969 44.5377 45.6382 44.5377 44.9087C43.8946 43.829 42.9593 43.5956 41.7609 44.1792ZM35.7396 48.352C36.0904 45.4631 36.0904 45.4631 36.7042 44.5293C36.9672 44.2959 37.2888 44.2667 37.6103 44.15C37.1134 43.7998 36.5873 43.8874 36.0904 43.8874C35.8273 44.1208 35.4181 44.1208 35.1842 44.4126C34.5704 45.9884 34.9796 47.5641 35.7396 48.352ZM48.0744 44.0625C48.6006 43.3621 49.2728 42.9536 49.9451 42.4575C49.3898 41.6405 48.8636 40.8526 48.3375 40.0647C48.1037 40.1231 47.9575 40.269 47.9575 40.3857C47.9575 40.9985 47.6068 41.6113 47.7821 42.2241C47.9575 42.8077 47.9283 43.3913 48.0744 44.0625ZM29.6014 42.4575C30.186 43.0119 30.9167 43.3913 31.3552 44.2084C31.6767 42.7201 31.8229 41.407 31.3552 40.0939C31.0921 40.0355 31.0044 40.2398 30.9167 40.3565C30.5075 41.0568 29.9814 41.6696 29.6014 42.4575ZM41.527 44.9962C40.2994 44.9962 39.0718 44.9962 37.8441 44.9962C37.7564 45.113 37.6395 45.2005 37.6395 45.288C37.6103 45.4631 37.3764 45.5507 37.4641 45.7549C38.1949 45.9008 41.2347 45.9008 41.9655 45.7549C42.0532 45.3756 41.7609 45.1713 41.527 44.9962ZM37.9318 33.3531C38.2533 33.7617 38.5164 34.1702 39.0133 34.3161C39.364 34.2285 39.4517 33.8784 39.7733 33.7908C39.861 33.9076 39.9486 34.0243 40.0656 34.1118C40.1825 34.1994 40.2702 34.3453 40.4455 34.3161C41.0301 33.9367 41.0301 33.9367 41.4101 33.3531C40.2994 32.9154 39.1594 32.9446 37.9318 33.3531ZM41.264 46.5136C40.3579 46.3386 38.721 46.3677 38.1949 46.572C38.3118 46.8346 38.6041 46.9805 38.6625 47.2723C39.4225 47.2723 40.124 47.2723 40.8255 47.2723C41.0886 47.0681 41.147 46.7763 41.264 46.5136ZM38.2241 27.9547C39.3348 27.9547 40.2702 27.9547 41.2347 27.9547C40.8255 27.1668 40.3286 26.9042 39.4517 26.9334C38.9256 27.1085 38.6041 27.4003 38.2241 27.9547ZM34.9212 23.6651C34.9212 24.3655 34.8335 25.095 34.9504 25.7953C35.0966 26.6707 35.3012 27.5462 35.5058 28.4216C35.535 28.5383 35.6519 28.5091 35.7688 28.5091C35.9442 27.9255 35.5642 27.4586 35.4473 26.9334C35.3304 26.3789 35.3889 25.8245 35.1842 25.2992C34.9796 24.7448 35.2427 24.1904 34.9212 23.6651ZM44.45 23.2566C44.2746 23.49 44.3331 23.6943 44.3331 23.8986C44.3623 24.9783 44.1869 26.0579 43.9531 27.1085C43.8654 27.4294 43.8362 27.7796 43.6316 28.1006C43.5731 28.1881 43.5146 28.4508 43.8654 28.5091C44.3915 26.8166 44.6546 25.095 44.45 23.2566ZM35.8857 40.444C36.2657 40.444 36.5873 40.444 36.9088 40.444C36.9672 40.444 37.0257 40.3857 37.0549 40.3857C36.5288 39.9772 35.7104 39.8021 35.4473 40.0355C35.6227 40.1522 35.7688 40.2981 35.8857 40.444ZM43.9823 40.0063C43.7777 39.8021 43.5439 39.8604 43.3977 39.9188C43.1931 40.0063 43.047 40.0939 42.8131 40.0647C42.5793 40.0647 42.4624 40.1522 42.4331 40.4149C42.7839 40.4149 43.1347 40.4149 43.4854 40.4149C43.6023 40.269 43.8946 40.3273 43.9823 40.0063Z" fill="white"/>
<path d="M33.5475 31.6001C33.3136 31.6001 33.0798 31.6001 32.8167 31.6001C32.4952 31.9211 32.1152 32.2129 31.9106 32.6797C31.4722 32.067 31.2676 31.425 31.326 30.6955C31.5014 30.0827 32.0275 29.7617 32.4075 29.324C32.1737 28.6528 31.9106 28.0108 31.8522 27.3105C31.7937 26.5518 31.9983 25.8515 32.2614 25.1803C32.7291 24.0714 33.3429 23.0209 34.3659 22.1455C33.9859 24.5383 34.1613 26.8144 34.9213 29.0322C35.652 31.2499 36.7627 33.205 38.6334 34.7516C38.1657 35.5686 37.8442 36.4441 37.6104 37.3487C37.1719 37.086 36.9966 36.6775 36.7627 36.2982C36.1781 35.3936 35.6228 34.4598 35.1259 33.526C34.7167 32.7965 34.2198 32.1545 33.5475 31.6001Z" fill="white"/>
<path d="M46.9629 29.3244C47.5475 29.587 47.8398 30.0247 48.1321 30.4624C48.2198 31.2503 48.1613 32.009 47.6352 32.6801C47.3137 32.5342 47.3721 32.1257 47.0798 31.8923C46.2614 31.4254 45.9107 31.4546 45.3261 32.1841C44.9169 32.6801 44.5661 33.2346 44.2738 33.789C43.66 34.9271 42.9293 35.9776 42.2278 37.0573C42.1693 37.1448 42.0816 37.2323 41.9062 37.4074C41.7601 36.3861 41.3509 35.5982 40.8832 34.752C41.7309 33.9057 42.5785 33.0887 43.2216 32.0965C43.8354 31.1044 44.2446 30.0247 44.5953 28.9158C44.9753 27.807 45.0922 26.6397 45.3261 25.5017C45.5599 24.3053 45.2676 23.1964 45.063 22C45.5599 22.1751 45.6476 22.6128 45.9107 22.9046C46.6999 23.8092 47.3137 24.8597 47.5475 26.0561C47.7521 26.9899 47.6937 28.0112 47.226 28.9158C47.1675 29.0326 47.0798 29.1493 46.9629 29.3244Z" fill="white"/>
<path d="M52.2825 39.7134C52.0194 39.8009 51.8148 39.5967 51.6394 39.48C50.7625 38.9839 49.8856 38.6629 48.7457 38.838C47.8103 39.1882 47.4304 40.0344 47.4011 41.0849C47.3719 41.8728 47.4304 42.6607 47.4011 43.4194C47.3719 43.8571 47.6642 44.2072 47.5765 44.6449C47.5181 45.0243 47.8103 45.3161 47.7811 45.6663C47.7519 46.0164 47.6934 46.3958 47.9273 46.6876C47.8396 47.5047 48.0149 48.3217 47.8103 49.168C47.6642 49.7516 47.6057 50.3644 47.4011 50.948C47.2842 51.269 47.1673 51.5316 46.9335 51.7942C46.6996 51.2398 46.9627 50.8021 47.2258 50.3352C47.2258 49.4889 47.2258 48.6719 47.2258 47.8257C47.255 46.8335 47.0796 45.8997 46.7873 44.9659C46.3196 43.4777 46.2904 41.9603 46.3196 40.4137C46.3196 40.1219 46.6412 39.8885 46.4658 39.5675C46.232 39.3632 45.8812 39.6259 45.6181 39.4216C47.0796 38.8088 47.518 37.6124 47.4011 36.095C48.7165 35.9783 49.8856 36.2701 50.9087 36.9996C51.2594 37.2622 51.5225 37.6124 51.6686 37.9917C51.9025 38.5462 52.224 39.1006 52.2825 39.7134ZM50.9379 38.1085C50.9964 37.6124 50.9964 37.6124 50.9087 37.5249C50.6456 37.2914 50.4118 37.2914 50.0902 37.4957C50.2656 37.875 50.5871 37.9917 50.9379 38.1085Z" fill="white"/>
<path d="M27.3205 39.7129C27.379 38.1663 28.5482 36.6197 30.0096 36.2987C30.3019 36.2404 30.565 36.1237 30.8573 36.0945C31.208 36.0945 31.5588 36.0945 31.968 36.0945C31.968 37.6119 32.348 38.8958 33.9848 39.4211C33.6341 39.5962 33.2541 39.4211 32.8741 39.567C33.1664 40.4132 33.3418 41.2595 33.2541 42.1057C33.108 43.0979 32.9326 44.0608 32.6988 45.0238C32.5526 45.6074 32.4649 46.2202 32.348 46.8038C32.1726 47.5625 32.2311 48.3504 32.2018 49.1091C32.1726 49.7511 32.2895 50.3347 32.4941 50.9183C32.6111 51.2101 32.5818 51.4727 32.5234 51.9104C31.968 50.8599 31.6465 49.897 31.6465 48.8173C31.6465 48.6714 31.6757 48.4963 31.6465 48.3796C31.6173 48.2337 31.5296 48.1169 31.4711 47.9419C31.6757 47.5917 31.6757 47.1832 31.6757 46.7746C31.6465 46.0159 31.7634 45.2572 31.9972 44.5277C32.0265 44.4694 32.0265 44.411 32.0265 44.3526C31.968 43.448 32.2603 42.6018 32.2311 41.6972C32.2018 41.2011 32.0265 40.7342 31.9972 40.209C31.968 39.888 31.6465 39.567 31.4419 39.246C31.1788 39.1293 30.9158 38.9834 30.6527 38.8375C29.5127 38.7207 28.4897 38.9542 27.5836 39.6837C27.5251 39.7421 27.4082 39.7129 27.3205 39.7129ZM28.5189 38.0788C28.8112 37.9037 29.2789 37.962 29.3374 37.4952C29.2204 37.3201 29.0451 37.3784 28.9281 37.3784C28.5774 37.6411 28.5774 37.6411 28.5189 38.0788Z" fill="white"/>
<path d="M42.5497 37.5531C43.9235 37.378 45.3265 36.9111 46.7295 36.415C46.9633 37.3488 46.5833 38.1075 45.7357 38.6328C45.0926 39.0121 44.3911 39.158 43.6896 39.3331C41.8774 39.8 40.0359 39.7708 38.1945 39.6833C36.9084 39.6249 35.6515 39.3915 34.4239 38.9829C33.4301 38.662 32.6117 37.6698 32.6409 36.4734C33.4009 36.4734 34.0439 36.9403 34.8039 37.057C35.5346 37.1446 36.2653 37.4364 37.1715 37.6698C37.6099 37.9908 37.8437 38.7203 38.4868 39.1288C39.3052 39.4498 40.1821 39.479 41.1174 39.0705C41.4974 38.662 41.9651 38.1659 42.5497 37.5531Z" fill="white"/>
<path d="M27.0004 47.7369C27.3511 47.0949 27.7603 46.3946 28.1988 45.6067C28.5787 46.3362 28.8126 47.0657 29.3679 47.6202C29.9233 48.2038 30.5371 48.7582 31.0633 49.2543C31.1509 50.2756 31.4432 51.151 31.9986 51.9973C30.771 51.8805 29.7772 51.3261 28.871 50.6841C27.9357 50.013 27.2342 49.0792 27.0004 47.7369Z" fill="white"/>
<path d="M52.489 47.8253C52.1967 49.8096 49.8876 51.6479 47.6077 51.9397C47.6369 51.6188 47.8415 51.4145 47.9584 51.1519C48.1046 50.8309 48.2799 50.4515 48.3092 50.1014C48.3676 49.5761 48.6015 49.2259 48.9814 48.9049C49.946 48.0003 50.7644 46.9498 51.2906 45.6951C51.6706 45.9869 51.729 46.4246 51.9336 46.8039C52.109 47.1249 52.3136 47.5043 52.489 47.8253Z" fill="white"/>
<path d="M40.1237 50.714C38.6037 50.7431 37.1715 49.6926 36.6454 48.2336C36.47 47.7083 36.5284 47.2706 36.7915 46.7454C37.1423 48.0877 38.253 47.7375 39.1883 47.8251C39.1883 48.2628 39.1883 48.7005 39.1883 49.0215C39.4221 49.4884 39.7144 49.4592 40.036 49.4008C40.299 48.9339 40.3575 48.4087 40.3283 47.8251C40.7667 47.8251 41.2051 47.8251 41.5267 47.8251C42.2574 47.4457 42.2574 47.4457 42.8128 46.687C42.9004 47.4457 42.9297 48.1169 42.6374 48.8172C41.9943 49.6343 41.2051 50.2762 40.1237 50.714Z" fill="white"/>
<path d="M42.3444 42.0474C42.3444 42.3392 42.3444 42.6602 42.3444 43.0103C42.1398 43.2146 41.9937 43.5648 41.526 43.4772C41.3214 43.3021 41.5552 42.8936 41.1168 42.8061C40.766 43.0979 40.8245 43.6231 40.6199 44.0025C40.0353 44.3818 40.0353 44.3818 39.363 44.3818C39.1292 44.1484 38.7784 43.9733 38.72 43.5939C38.6615 43.273 38.5446 42.9812 38.2523 42.7769C38.0769 42.952 38.2231 43.1854 38.1062 43.4189C37.96 43.5648 37.7554 43.448 37.4923 43.4772C37.3754 43.3605 37.2293 43.2146 37.0831 43.0687C37.0831 42.7769 37.0831 42.5143 37.0831 42.2225C37.2877 42.2225 37.3462 41.989 37.5216 41.9015C38.1938 41.8431 38.1938 41.8431 38.8661 42.2225C38.9538 41.8139 38.5738 41.6097 38.5446 41.2595C38.6031 41.1719 38.6907 41.0844 38.7784 40.9969C39.1292 40.9385 39.4799 40.9093 39.7722 41.1428C40.0353 40.9969 40.2984 40.8801 40.6199 40.9969C40.766 41.1136 40.9122 41.2011 40.883 41.4346C40.9414 41.7556 40.4445 41.8431 40.5614 42.2225C40.883 42.3392 40.9999 41.9598 41.2337 41.9015C41.6137 41.8723 41.9937 41.8431 42.3444 42.0474ZM40.4445 42.5726C40.4737 42.5434 40.503 42.5434 40.503 42.5143C40.503 42.4851 40.4737 42.4851 40.4445 42.4559C40.4153 42.4851 40.4153 42.5143 40.3861 42.5434C40.4153 42.5434 40.4445 42.5726 40.4445 42.5726Z" fill="white"/>
<path d="M40.9721 32.4764C40.1244 32.4764 39.306 32.4764 38.3999 32.4764C38.1953 30.959 38.4291 29.5875 39.3644 28.3328C39.5983 28.3328 39.8321 28.3328 40.066 28.3328C40.7967 29.2082 41.0013 30.2587 41.2059 31.3092C41.3228 31.7177 41.2644 32.1554 40.9721 32.4764Z" fill="white"/>
<path d="M42.9887 36.8818C44.1579 35.3352 44.7425 33.6136 45.9409 32.2129C46.6717 33.2342 47.227 34.2555 47.4609 35.4228C46.0286 36.0356 44.6256 36.59 42.9887 36.8818Z" fill="white"/>
<path d="M36.3825 36.7654C35.2426 36.7071 32.7873 35.8317 31.9981 35.248C32.115 34.9271 32.2319 34.6061 32.3781 34.3143C32.6996 33.6431 33.0504 32.9719 33.4011 32.2424C33.7519 32.4175 33.9857 32.651 34.1319 32.9136C34.9211 34.1975 35.5349 35.5399 36.3825 36.7654Z" fill="white"/>
<path d="M48.4834 48.2334C48.6003 47.0954 48.425 46.0157 48.2788 44.9652C48.7465 44.2065 49.2434 43.5645 50.1495 43.2727C50.3249 43.5937 50.5587 43.8271 50.7925 44.0898C51.1433 44.4983 51.1433 44.936 50.851 45.3737C50.471 45.899 50.091 46.4242 49.711 46.9203C49.3311 47.358 49.0388 47.8541 48.4834 48.2334Z" fill="white"/>
<path d="M28.4317 44.469C28.8994 44.1772 28.9871 43.5644 29.5132 43.3018C29.6009 43.3309 29.747 43.3018 29.7763 43.3601C30.3024 43.8854 30.7993 44.3814 31.267 44.9067C31.0916 45.9572 30.887 47.0369 30.9455 48.2333C30.4193 47.9415 30.2439 47.4454 29.9224 47.0953C29.6009 46.7451 29.2794 46.3366 29.0455 45.8988C28.8409 45.4319 28.344 45.1401 28.4317 44.469Z" fill="white"/>
<path d="M35.6227 29.7044C36.4411 28.8581 37.4934 28.4788 38.6918 28.3037C38.3703 29.15 37.9026 29.8211 37.698 30.6382C37.4934 31.4844 37.7272 32.3015 37.8149 33.2936C36.8211 32.1556 36.2073 30.9592 35.6227 29.7044Z" fill="white"/>
<path d="M40.6221 28.3037C41.9667 28.3913 42.9313 28.8581 43.7789 29.6752C43.4282 30.9592 42.6682 32.0097 41.7621 33.1769C41.879 31.3677 41.879 29.7627 40.6221 28.3037Z" fill="white"/>
<path d="M40.2705 38.8083C39.8905 38.8083 39.4521 38.8083 39.0721 38.8083C38.5167 38.5165 38.3413 38.0496 38.1952 37.4952C38.7213 35.6568 38.7506 35.5985 39.7151 34.6355C40.6505 35.2483 41.2351 36.5031 41.2351 37.8746C41.0889 38.3123 40.8843 38.6916 40.2705 38.8083ZM40.5335 37.7578C40.5335 37.4368 40.5335 37.1159 40.5335 36.7657C40.2997 36.4155 40.0951 36.0654 39.8613 35.7152C38.8967 36.5031 38.7213 37.1159 39.189 38.0496C39.3936 38.0496 39.5105 38.3123 39.8028 38.2539C40.0074 38.1664 40.2997 38.108 40.5335 37.7578Z" fill="white"/>
<path d="M42.3454 42.0763C42.3454 41.9888 42.3454 41.9012 42.3746 41.7845C42.6962 41.6094 43.0762 41.7845 43.6023 41.6094C42.6962 41.5219 42.0531 41.3176 41.3224 40.8216C42.1408 40.8216 42.7839 41.1425 43.4561 40.9675C44.07 40.7924 44.6545 40.5006 45.1514 40.092C45.7945 40.5589 45.1807 41.0842 45.1807 41.5511C45.1807 42.018 44.713 42.3973 44.0992 42.6016C43.8653 42.6016 43.5438 42.6016 43.1931 42.6016C42.93 42.3973 42.6669 42.1639 42.3454 42.0763Z" fill="white"/>
<path d="M37.0845 42.2218C36.7338 42.1926 36.4999 42.4552 36.2076 42.5719C35.9153 42.5719 35.623 42.5719 35.36 42.5719C34.6292 42.426 34.4539 41.8424 34.22 41.3463C34.22 40.9086 34.22 40.5001 34.22 40.0332C34.7462 40.1499 34.9508 40.7335 35.4184 40.7627C35.8569 40.7627 36.2661 40.967 36.7338 40.9962C37.2014 40.9962 37.6399 40.646 38.1368 40.8503C37.2599 41.3755 36.8507 41.4922 36.0323 41.5798C36.1492 41.784 36.3246 41.6965 36.4707 41.6965C36.6461 41.7257 36.8215 41.6965 36.9676 41.6965C37.1722 41.8716 37.0261 42.0759 37.0845 42.2218Z" fill="white"/>
<path d="M41.7607 44.1779C42.9883 43.5943 43.8945 43.8569 44.5083 44.8782C44.5083 45.6077 44.5083 46.3372 44.5083 47.1251C44.2452 47.5337 44.1575 48.0589 43.6606 48.3507C43.5437 48.0881 43.6022 47.8255 43.6022 47.592C43.6606 46.7458 43.3391 45.9871 43.1637 45.1992C43.0468 44.5572 42.4914 44.2362 41.7607 44.1779Z" fill="white"/>
<path d="M35.7387 48.35C34.9788 47.5621 34.5695 45.9864 35.1834 44.4106C35.4172 44.1188 35.8264 44.1188 36.0895 43.8853C36.5864 43.8853 37.0833 43.7686 37.6094 44.148C37.2879 44.2647 36.9371 44.3231 36.7033 44.5273C36.1187 45.4611 36.1187 45.4611 35.7387 48.35Z" fill="white"/>
<path d="M48.0741 44.0601C47.9279 43.4182 47.9571 42.8054 47.7818 42.1926C47.6064 41.5798 47.9571 40.9962 47.9571 40.3542C47.9571 40.2375 48.1033 40.0916 48.3371 40.0332C48.8633 40.8211 49.4186 41.609 49.9448 42.426C49.2725 42.9513 48.571 43.3598 48.0741 44.0601Z" fill="white"/>
<path d="M29.6011 42.4563C29.9811 41.6976 30.5072 41.0556 30.9457 40.3845C31.0333 40.2677 31.121 40.0635 31.3841 40.1218C31.8518 41.435 31.6764 42.7481 31.3841 44.2363C30.9164 43.3901 30.2149 43.0107 29.6011 42.4563Z" fill="white"/>
<path d="M41.5269 44.9944C41.7607 45.1986 42.053 45.3737 41.9653 45.7823C41.2346 45.9282 38.1947 45.9282 37.464 45.7823C37.3763 45.578 37.6394 45.4905 37.6394 45.3154C37.6394 45.1986 37.7563 45.1403 37.844 45.0236C39.0716 44.9944 40.2993 44.9944 41.5269 44.9944Z" fill="white"/>
<path d="M37.9315 33.351C39.1299 32.9717 40.2699 32.9425 41.4098 33.3219C41.0591 33.9055 41.0591 33.9055 40.4453 34.2848C40.2699 34.314 40.153 34.1973 40.0653 34.0806C39.9483 33.9638 39.8607 33.8471 39.773 33.7596C39.4514 33.8471 39.3638 34.2265 39.013 34.2848C38.5453 34.1681 38.2823 33.7596 37.9315 33.351Z" fill="white"/>
<path d="M41.2635 46.5124C41.1466 46.7751 41.0882 47.0669 40.7959 47.2711C40.0944 47.2711 39.3929 47.2711 38.6329 47.2711C38.6037 46.9793 38.3114 46.8334 38.1652 46.5708C38.7206 46.3665 40.3574 46.3373 41.2635 46.5124Z" fill="white"/>
<path d="M38.2251 27.9522C38.6051 27.427 38.9266 27.106 39.4528 26.9309C40.3296 26.9309 40.7973 27.1935 41.2358 27.9522C40.2712 27.9522 39.3358 27.9522 38.2251 27.9522Z" fill="white"/>
<path d="M34.9206 23.6631C35.2129 24.1883 34.9791 24.7428 35.1837 25.2972C35.3591 25.8225 35.3298 26.3769 35.4467 26.9313C35.5637 27.4566 35.9729 27.9235 35.7683 28.5071C35.6513 28.5071 35.5344 28.5363 35.5052 28.4195C35.3006 27.5441 35.1252 26.6687 34.9498 25.7933C34.8329 25.0929 34.9206 24.3634 34.9206 23.6631Z" fill="white"/>
<path d="M44.4503 23.2542C44.6549 25.0925 44.3918 26.8142 43.8365 28.5067C43.4857 28.4483 43.5442 28.1857 43.6026 28.0982C43.8072 27.8063 43.8657 27.4562 43.9242 27.106C44.1872 26.0555 44.3334 24.9758 44.3041 23.8961C44.3334 23.6919 44.2749 23.4876 44.4503 23.2542Z" fill="white"/>
<path d="M35.8847 40.4418C35.7678 40.3251 35.6216 40.1792 35.4755 40.0041C35.7385 39.7707 36.557 39.9749 37.0831 40.3543C37.0246 40.3835 36.9662 40.4126 36.9369 40.4126C36.5862 40.4418 36.2647 40.4418 35.8847 40.4418Z" fill="white"/>
<path d="M43.9828 40.0046C43.8951 40.3255 43.6028 40.238 43.4859 40.4131C43.1351 40.4131 42.7843 40.4131 42.4336 40.4131C42.4628 40.1796 42.5797 40.0629 42.8136 40.0629C43.0182 40.0629 43.1936 39.9754 43.3982 39.917C43.5443 39.8586 43.7781 39.8295 43.9828 40.0046Z" fill="white"/>
<path d="M52.2835 39.7124C52.3719 39.7124 52.4309 39.7419 52.4309 39.8303C52.313 39.8598 52.2835 39.7713 52.2835 39.7124Z" fill="white"/>
<path d="M27.3224 39.7124C27.3224 39.8008 27.2929 39.8598 27.175 39.8303C27.175 39.7124 27.2339 39.7124 27.3224 39.7124Z" fill="white"/>
<path d="M50.9385 38.1082C50.6169 37.9915 50.2954 37.8748 50.0616 37.4954C50.3831 37.2912 50.6462 37.2912 50.88 37.5246C50.9969 37.6122 50.9969 37.6122 50.9385 38.1082Z" fill="white"/>
<path d="M28.519 38.0791C28.5775 37.6705 28.5775 37.6705 28.9283 37.3787C29.0744 37.3787 29.2206 37.3204 29.3375 37.4954C29.279 37.9623 28.8113 37.904 28.519 38.0791Z" fill="white"/>
<path d="M40.4469 42.5743C40.4173 42.5743 40.4172 42.5446 40.3876 42.5446C40.4172 42.5149 40.4173 42.4852 40.4469 42.4556C40.4766 42.4852 40.5063 42.5149 40.5063 42.5149C40.5063 42.5446 40.4766 42.5446 40.4469 42.5743Z" fill="white"/>
</svg>
