<svg width="250" height="60" viewBox="0 0 250 60" fill="none" xmlns="http://www.w3.org/2000/svg">
<path d="M88.5782 40C88.3792 39.4172 88.1731 38.8415 87.9599 38.2729C87.7466 37.7043 87.5405 37.1214 87.3415 36.5244H81.1153C80.9163 37.1214 80.7101 37.7114 80.4969 38.2942C80.2979 38.8628 80.0989 39.4314 79.8999 40H77.1066C77.661 38.4221 78.187 36.9651 78.6845 35.6288C79.182 34.2926 79.6653 33.0275 80.1344 31.8334C80.6178 30.6393 81.094 29.5021 81.5631 28.4218C82.0322 27.3414 82.5155 26.2753 83.013 25.2234H85.5504C86.0479 26.2753 86.5312 27.3414 87.0003 28.4218C87.4694 29.5021 87.9385 30.6393 88.4076 31.8334C88.891 33.0275 89.3814 34.2926 89.8789 35.6288C90.3907 36.9651 90.9237 38.4221 91.4781 40H88.5782ZM84.2284 28.0806C83.9014 28.834 83.5247 29.7509 83.0983 30.8312C82.6861 31.9116 82.2525 33.0843 81.7976 34.3495H86.6592C86.2043 33.0843 85.7636 31.9045 85.3372 30.8099C84.9107 29.7154 84.5411 28.8056 84.2284 28.0806ZM92.308 34.4348C92.308 33.6103 92.436 32.8427 92.6918 32.1319C92.9477 31.407 93.3102 30.7815 93.7793 30.2555C94.2626 29.7296 94.8454 29.3173 95.5278 29.0188C96.2101 28.7203 96.9777 28.571 97.8306 28.571C98.8825 28.571 99.8776 28.7629 100.816 29.1467L100.261 31.2577C99.9629 31.1298 99.6217 31.0231 99.2379 30.9379C98.8683 30.8526 98.4703 30.8099 98.0438 30.8099C97.0346 30.8099 96.2669 31.1298 95.741 31.7694C95.215 32.3949 94.952 33.2834 94.952 34.4348C94.952 35.5436 95.2008 36.4249 95.6983 37.0788C96.1959 37.7185 97.0346 38.0383 98.2144 38.0383C98.6551 38.0383 99.0886 37.9957 99.5151 37.9104C99.9416 37.8251 100.311 37.7185 100.624 37.5905L100.986 39.7228C100.702 39.865 100.269 39.9929 99.6857 40.1066C99.1171 40.2203 98.5272 40.2772 97.9159 40.2772C96.9635 40.2772 96.1319 40.135 95.4211 39.8507C94.7246 39.5522 94.1418 39.1471 93.6727 38.6353C93.2178 38.1094 92.8766 37.491 92.6492 36.7803C92.4218 36.0553 92.308 35.2735 92.308 34.4348ZM109.338 31.1724C109.125 31.1013 108.826 31.0303 108.442 30.9592C108.073 30.8739 107.639 30.8312 107.142 30.8312C106.857 30.8312 106.552 30.8597 106.225 30.9165C105.912 30.9734 105.692 31.0231 105.564 31.0658V40H102.984V29.3813C103.481 29.1965 104.1 29.0259 104.839 28.8696C105.592 28.699 106.424 28.6137 107.334 28.6137C107.504 28.6137 107.703 28.6279 107.931 28.6563C108.158 28.6705 108.386 28.699 108.613 28.7416C108.841 28.77 109.061 28.8127 109.274 28.8696C109.487 28.9122 109.658 28.9548 109.786 28.9975L109.338 31.1724ZM121.063 28.8482C119.912 33.0843 118.576 36.9224 117.055 40.3625C116.77 41.0022 116.479 41.5494 116.18 42.0043C115.882 42.4592 115.548 42.8359 115.178 43.1344C114.809 43.433 114.396 43.6462 113.942 43.7741C113.487 43.9163 112.961 43.9873 112.364 43.9873C111.966 43.9873 111.568 43.9447 111.17 43.8594C110.786 43.7741 110.494 43.6817 110.295 43.5822L110.764 41.5139C111.276 41.7129 111.781 41.8124 112.278 41.8124C112.947 41.8124 113.465 41.649 113.835 41.322C114.219 41.0093 114.553 40.5189 114.837 39.8507C114.027 38.2871 113.245 36.5813 112.492 34.7333C111.752 32.8853 111.091 30.9236 110.509 28.8482H113.259C113.401 29.4453 113.572 30.0921 113.771 30.7886C113.984 31.4851 114.212 32.1959 114.453 32.9209C114.695 33.6316 114.951 34.3424 115.221 35.0531C115.491 35.7639 115.761 36.4249 116.031 37.0361C116.486 35.771 116.913 34.4277 117.311 33.0062C117.709 31.5704 118.071 30.1845 118.398 28.8482H121.063ZM130.415 34.4774C130.415 33.326 130.152 32.4304 129.626 31.7908C129.114 31.1511 128.282 30.8312 127.131 30.8312C126.889 30.8312 126.633 30.8455 126.363 30.8739C126.107 30.8881 125.851 30.9307 125.596 31.0018V37.3773C125.823 37.5337 126.122 37.6829 126.491 37.8251C126.875 37.953 127.28 38.017 127.707 38.017C128.645 38.017 129.327 37.6971 129.754 37.0575C130.194 36.4178 130.415 35.5578 130.415 34.4774ZM133.059 34.4348C133.059 35.2877 132.945 36.0695 132.717 36.7803C132.504 37.491 132.191 38.1023 131.779 38.614C131.367 39.1258 130.848 39.5238 130.223 39.8081C129.611 40.0924 128.915 40.2345 128.133 40.2345C127.607 40.2345 127.124 40.1706 126.683 40.0426C126.242 39.9147 125.88 39.7726 125.596 39.6162V43.9447H123.016V29.2107C123.542 29.0686 124.188 28.9335 124.956 28.8056C125.724 28.6776 126.534 28.6137 127.387 28.6137C128.268 28.6137 129.057 28.7487 129.754 29.0188C130.45 29.2889 131.04 29.6798 131.523 30.1916C132.021 30.6891 132.398 31.3003 132.653 32.0253C132.923 32.7361 133.059 33.5392 133.059 34.4348ZM135.59 25.9057L138.17 25.4792V28.8482H142.136V31.0018H138.17V35.5436C138.17 36.4391 138.312 37.0788 138.596 37.4626C138.88 37.8464 139.364 38.0383 140.046 38.0383C140.515 38.0383 140.927 37.9886 141.283 37.8891C141.652 37.7895 141.944 37.6971 142.157 37.6119L142.583 39.6588C142.285 39.7868 141.894 39.9147 141.411 40.0426C140.927 40.1848 140.359 40.2559 139.705 40.2559C138.909 40.2559 138.241 40.1493 137.701 39.936C137.175 39.7228 136.755 39.4172 136.443 39.0192C136.13 38.6069 135.909 38.1165 135.782 37.5479C135.654 36.9651 135.59 36.3041 135.59 35.5649V25.9057ZM154.466 34.4135C154.466 35.2948 154.338 36.0979 154.082 36.8229C153.826 37.5479 153.463 38.1662 152.994 38.678C152.525 39.1897 151.957 39.5878 151.288 39.8721C150.635 40.1564 149.91 40.2985 149.114 40.2985C148.317 40.2985 147.593 40.1564 146.939 39.8721C146.285 39.5878 145.723 39.1897 145.254 38.678C144.785 38.1662 144.415 37.5479 144.145 36.8229C143.889 36.0979 143.762 35.2948 143.762 34.4135C143.762 33.5321 143.889 32.7361 144.145 32.0253C144.415 31.3003 144.785 30.682 145.254 30.1702C145.737 29.6585 146.306 29.2676 146.96 28.9975C147.614 28.7132 148.332 28.571 149.114 28.571C149.895 28.571 150.613 28.7132 151.267 28.9975C151.935 29.2676 152.504 29.6585 152.973 30.1702C153.442 30.682 153.805 31.3003 154.06 32.0253C154.33 32.7361 154.466 33.5321 154.466 34.4135ZM151.822 34.4135C151.822 33.3047 151.58 32.4304 151.097 31.7908C150.627 31.1369 149.966 30.8099 149.114 30.8099C148.261 30.8099 147.593 31.1369 147.109 31.7908C146.64 32.4304 146.406 33.3047 146.406 34.4135C146.406 35.5364 146.64 36.4249 147.109 37.0788C147.593 37.7327 148.261 38.0596 149.114 38.0596C149.966 38.0596 150.627 37.7327 151.097 37.0788C151.58 36.4249 151.822 35.5364 151.822 34.4135ZM159.917 38.1449C160.599 38.1449 161.097 38.0667 161.409 37.9104C161.722 37.7398 161.878 37.4555 161.878 37.0575C161.878 36.6879 161.708 36.3822 161.367 36.1406C161.04 35.8989 160.493 35.636 159.725 35.3517C159.256 35.1811 158.822 35.0034 158.424 34.8186C158.04 34.6196 157.706 34.3921 157.422 34.1363C157.138 33.8804 156.91 33.5748 156.74 33.2194C156.583 32.8498 156.505 32.402 156.505 31.8761C156.505 30.8526 156.882 30.0494 157.635 29.4666C158.389 28.8696 159.412 28.571 160.706 28.571C161.36 28.571 161.985 28.635 162.582 28.7629C163.179 28.8767 163.627 28.9904 163.925 29.1041L163.456 31.1937C163.172 31.0658 162.81 30.9521 162.369 30.8526C161.928 30.7388 161.416 30.682 160.834 30.682C160.308 30.682 159.881 30.7744 159.554 30.9592C159.227 31.1298 159.064 31.3998 159.064 31.7694C159.064 31.9542 159.092 32.1177 159.149 32.2599C159.22 32.402 159.334 32.5371 159.49 32.665C159.647 32.7787 159.853 32.8995 160.109 33.0275C160.365 33.1412 160.677 33.262 161.047 33.39C161.658 33.6174 162.177 33.8448 162.603 34.0723C163.03 34.2855 163.378 34.5343 163.648 34.8186C163.933 35.0887 164.139 35.4014 164.267 35.7568C164.395 36.1122 164.459 36.5386 164.459 37.0361C164.459 38.1023 164.061 38.9125 163.264 39.4669C162.483 40.0071 161.36 40.2772 159.895 40.2772C158.915 40.2772 158.126 40.1919 157.529 40.0213C156.932 39.865 156.512 39.737 156.271 39.6375L156.718 37.4839C157.102 37.6403 157.557 37.7895 158.083 37.9317C158.623 38.0738 159.234 38.1449 159.917 38.1449Z" fill="white"/>
<path d="M54.428 36.7698C53.9611 36.4586 53.4552 36.4975 52.9494 36.5364C52.6381 36.6142 52.5214 37.12 52.0545 36.9644C51.8988 36.4586 52.5603 36.3418 52.4825 35.9138C52.5214 35.6414 52.3268 35.4858 52.1323 35.3302C51.7432 35.2134 51.3541 35.3302 51.0039 35.5247C50.5759 35.2134 50.1479 35.2523 49.6809 35.3302C49.5642 35.4858 49.4475 35.6025 49.3696 35.6804C49.3696 36.1473 49.9144 36.4586 49.7977 36.9644C48.9027 36.4975 48.9027 36.4975 48.0078 36.5364C47.7743 36.6531 47.7354 36.9255 47.4241 36.9644C47.3463 36.7309 47.5408 36.4975 47.2685 36.264C47.0739 36.264 46.8405 36.3029 46.607 36.264C46.4124 36.2251 46.179 36.3418 46.0233 36.1084C47.1128 35.9916 47.6576 35.7971 48.8249 35.1356C48.1634 34.8632 47.6187 35.3691 46.9572 35.3302C46.3346 35.3302 45.8288 35.0578 45.2062 35.0189C44.5837 35.0189 44.2724 34.2018 43.6109 34.0461C43.6109 34.6687 43.6109 35.2134 43.6109 35.7971C43.9222 36.4975 44.1556 37.2368 45.1284 37.4313C45.4786 37.4313 45.8677 37.4313 46.2568 37.4313C46.6459 37.2368 46.9572 36.9255 47.4241 36.9644C47.4241 37.3146 47.4241 37.6648 47.4241 38.0928C47.6187 38.2874 47.8132 38.4819 47.9689 38.6375C48.3191 38.6375 48.5914 38.7543 48.786 38.5597C48.9416 38.2484 48.7471 37.9372 48.9805 37.7037C49.3696 37.9761 49.5253 38.3652 49.6031 38.7932C49.7198 39.299 50.1479 39.5325 50.4591 39.8438C51.3541 39.8438 51.3541 39.8438 52.1323 39.3379C52.4047 38.7932 52.3268 38.1317 52.7938 37.7426C53.3774 37.8204 53.0661 38.3652 53.3385 38.6375C53.9222 38.7543 54.1556 38.2874 54.428 38.015C54.428 37.5091 54.428 37.12 54.428 36.7698C54.856 36.8866 55.2062 37.1979 55.5953 37.4702C56.0623 37.4702 56.4903 37.4702 56.8015 37.4702C57.6187 37.2368 58.2412 36.692 58.2412 36.0695C58.2412 35.4469 59.0584 34.7076 58.2023 34.1239C57.5408 34.6687 56.7626 35.0578 55.9455 35.2912C55.0895 35.5247 54.1945 35.0967 53.105 35.0967C54.0778 35.7193 54.9338 36.0305 56.1401 36.1473C55.4397 36.3807 54.9338 36.1862 54.5058 36.3807C54.428 36.4975 54.428 36.6531 54.428 36.7698ZM34.428 33.6181C34.5447 33.6181 34.7004 33.657 34.7782 33.5792C35.9455 32.5675 37.3463 32.2562 38.8638 32.4508C39.214 32.6453 39.5642 32.801 39.9144 32.9955C40.1868 33.4235 40.6537 33.8516 40.6537 34.2796C40.6926 34.941 40.9261 35.5636 40.965 36.264C41.0039 37.4702 40.6148 38.5986 40.6926 39.8049C40.6926 39.8827 40.6926 39.9605 40.6537 40.0383C40.3424 41.0111 40.1868 42.0228 40.2257 43.0344C40.2257 43.5792 40.2646 44.1239 39.9533 44.5909C40.07 44.8243 40.1479 44.98 40.1868 45.1745C40.2257 45.3691 40.1868 45.5636 40.1868 45.7582C40.1479 47.1589 40.6148 48.4819 41.3541 49.8827C41.393 49.299 41.4319 48.9488 41.3152 48.5597C41.0428 47.7815 40.8872 46.9644 40.9261 46.1473C41.0039 45.1356 40.8872 44.1239 41.1206 43.0733C41.3152 42.2951 41.393 41.478 41.5875 40.6998C41.8988 39.4158 42.1323 38.1317 42.3268 36.8088C42.4825 35.6803 42.2101 34.5519 41.821 33.4235C42.3268 33.2679 42.8327 33.4625 43.2996 33.229C41.1206 32.5286 40.6537 30.8165 40.6148 28.7932C40.07 28.7932 39.6031 28.7932 39.1362 28.7932C38.7471 28.7932 38.3969 28.9877 38.0078 29.0656C36.1012 29.4936 34.5058 31.5558 34.428 33.6181C34.3113 33.6181 34.2335 33.6181 34.2335 33.7737C34.3891 33.8126 34.428 33.7348 34.428 33.6181ZM67.6576 33.6181C67.6576 33.7348 67.6576 33.8126 67.8132 33.8126C67.8521 33.657 67.7743 33.6181 67.6576 33.6181C67.5798 32.801 67.1128 32.1006 66.8405 31.3613C66.6459 30.8944 66.3346 30.3885 65.8288 30.0383C64.428 29.0656 62.8716 28.6765 61.1595 28.8321C61.3152 30.8554 60.7315 32.4119 58.786 33.2679C59.1362 33.5403 59.6031 33.1901 59.9144 33.4625C60.1478 33.9294 59.7198 34.2018 59.7198 34.5909C59.6809 36.6531 59.7587 38.6765 60.3424 40.6609C60.7315 41.8671 60.965 43.1512 60.9261 44.4741C60.9261 45.6025 60.9261 46.7309 60.9261 47.8204C60.5759 48.4041 60.2257 48.9877 60.537 49.766C60.8482 49.4158 61.0039 49.0656 61.1595 48.6376C61.4319 47.8593 61.5097 47.0422 61.7043 46.264C61.9766 45.1356 61.7432 44.0461 61.8599 42.9566C61.5097 42.5286 61.6264 42.0228 61.6654 41.5947C61.7043 41.0889 61.3152 40.6998 61.393 40.2329C61.5097 39.6881 61.1206 39.1823 61.1595 38.5986C61.1984 37.5481 61.1595 36.4975 61.1595 35.4858C61.1984 34.085 61.7043 32.9955 62.9494 32.4897C64.428 32.2562 65.6342 32.6453 66.8015 33.3457C67.035 33.4625 67.3074 33.7348 67.6576 33.6181ZM42.716 22.801C43.6109 23.5403 44.2724 24.3963 44.7782 25.3691C45.4786 26.6142 46.179 27.8593 46.9572 29.0656C47.2685 29.5325 47.5019 30.1161 48.0856 30.4663C48.3969 29.2601 48.8249 28.1317 49.4475 27.0033C46.9572 24.9411 45.4786 22.2951 44.5058 19.3769C43.5331 16.3807 43.2607 13.3846 43.7665 10.194C42.4047 11.3613 41.5875 12.7232 40.965 14.2407C40.6148 15.1356 40.3035 16.0695 40.4202 17.0811C40.4981 18.015 40.8482 18.871 41.1595 19.766C40.6537 20.3496 39.9533 20.7776 39.7198 21.5947C39.642 22.5675 39.9144 23.4235 40.498 24.2407C40.8093 23.6181 41.2763 23.229 41.7043 22.801C42.0934 22.801 42.4436 22.801 42.716 22.801ZM60.5759 19.766C60.7704 19.4936 60.8482 19.4158 60.9261 19.2601C61.5486 18.0539 61.6265 16.7309 61.3541 15.4469C61.0428 13.8905 60.2257 12.4897 59.1751 11.2446C58.8249 10.8555 58.7082 10.2718 58.0467 10.0383C58.3191 11.6337 58.7082 13.1123 58.3969 14.7076C58.0856 16.2251 57.93 17.7426 57.4241 19.2601C56.9183 20.7387 56.4124 22.1784 55.5953 23.5014C54.7393 24.8632 53.6109 25.9527 52.4825 27.0422C53.1051 28.1706 53.6498 29.2212 53.8444 30.5831C54.0389 30.3496 54.1556 30.2329 54.2724 30.1161C55.2062 28.6765 56.179 27.2757 56.9961 25.7582C57.3852 25.0189 57.8521 24.2796 58.3969 23.6181C59.214 22.6064 59.6809 22.6064 60.7315 23.229C61.1206 23.5403 61.0428 24.085 61.4708 24.2796C62.1712 23.3846 62.249 22.373 62.1323 21.3224C61.7432 20.6998 61.3541 20.1161 60.5759 19.766ZM54.7004 30.7387C53.9222 31.5558 53.2996 32.2173 52.7549 32.7621C51.5097 33.2679 50.3424 33.2679 49.2529 32.8399C48.3969 32.2951 48.0467 31.3224 47.5019 30.8944C46.2957 30.5442 45.3619 30.1551 44.3502 30.0772C43.3385 29.9605 42.4825 29.3379 41.4708 29.299C41.4708 30.8944 42.5603 32.2173 43.8444 32.6453C45.4786 33.1901 47.1517 33.5014 48.8638 33.5792C51.3152 33.6959 53.7665 33.7348 56.179 33.1123C57.1128 32.8788 58.0467 32.6842 58.9027 32.1784C60.0311 31.478 60.537 30.4663 60.2257 29.2212C58.3969 29.8827 56.5292 30.5053 54.7004 30.7387ZM34 44.3185C34.3113 46.1473 35.2451 47.3535 36.4903 48.2484C37.6965 49.1045 39.0194 49.8438 40.6537 49.9994C39.8755 48.871 39.5253 47.7037 39.4086 46.3418C38.7082 45.6414 37.891 44.9411 37.1517 44.1628C36.4514 43.4235 36.1012 42.4508 35.5953 41.478C35.0117 42.5286 34.5058 43.4625 34 44.3185ZM67.93 44.4352C67.6965 44.0072 67.463 43.5014 67.1907 43.0344C66.9183 42.5286 66.8015 41.9449 66.3346 41.5558C65.5953 43.229 64.5447 44.6298 63.2607 45.836C62.7938 46.264 62.4436 46.7698 62.3658 47.4313C62.3268 47.8982 62.0934 48.4041 61.8988 48.8321C61.7432 49.1823 61.4708 49.4547 61.4319 49.8827C64.428 49.5325 67.5019 47.0811 67.93 44.4352ZM51.4708 48.2874C52.9105 47.7037 53.9611 46.8477 54.8171 45.7971C55.2062 44.8632 55.1673 43.9683 55.0506 42.9566C54.2724 43.9683 54.2724 43.9683 53.3385 44.4741C52.9105 44.4741 52.3657 44.4741 51.7432 44.4741C51.7821 45.2523 51.7043 45.9138 51.3541 46.5753C50.965 46.6531 50.537 46.692 50.2257 46.0695C50.2257 45.6414 50.2257 45.0578 50.2257 44.4741C48.9416 44.3574 47.5019 44.7854 47.035 43.0344C46.6459 43.6959 46.607 44.3185 46.8405 45.0189C47.5409 46.9255 49.4864 48.3263 51.4708 48.2874ZM52.5992 23.9683C52.9883 23.5014 53.0661 22.9566 52.9494 22.4119C52.677 21.0111 52.3658 19.6103 51.4319 18.443C51.1206 18.443 50.8093 18.443 50.4981 18.443C49.2529 20.0772 48.9416 21.9449 49.214 23.9683C50.3813 23.9683 51.4708 23.9683 52.5992 23.9683ZM55.284 29.8438C57.463 29.4547 59.3307 28.7154 61.2374 27.8983C60.9261 26.3418 60.1868 24.98 59.214 23.6181C57.5798 25.4858 56.8405 27.7815 55.284 29.8438ZM46.4903 29.6881C45.3619 28.015 44.5447 26.2251 43.5331 24.5519C43.3385 24.2018 42.9883 23.8516 42.5603 23.657C42.0934 24.5909 41.6265 25.4858 41.1984 26.4197C41.0039 26.8477 40.8482 27.2757 40.6926 27.6648C41.7043 28.4819 44.9728 29.6103 46.4903 29.6881ZM62.5992 44.98C63.3385 44.4741 63.7276 43.8516 64.1945 43.2679C64.7004 42.5675 65.2451 41.906 65.7121 41.2056C66.1012 40.622 66.1012 40.0383 65.6342 39.4936C65.323 39.1434 65.0117 38.8321 64.7782 38.4041C63.572 38.7932 62.9105 39.6492 62.2879 40.6609C62.4825 42.0228 62.716 43.4235 62.5992 44.98ZM35.9066 39.9605C35.7899 40.8554 36.4514 41.2446 36.7626 41.8282C37.0739 42.4119 37.5019 42.9566 37.93 43.4235C38.358 43.8905 38.5914 44.5519 39.2918 44.9411C39.1751 43.3457 39.4475 41.9449 39.7198 40.5053C39.0584 39.8049 38.3969 39.1434 37.7354 38.443C37.6576 38.3652 37.5019 38.4041 37.3852 38.3652C36.6459 38.7543 36.4903 39.5714 35.9066 39.9605ZM45.4786 20.2718C46.2179 21.9449 47.035 23.5403 48.3969 25.0578C48.2802 23.7737 48.0078 22.6842 48.2412 21.5169C48.5136 20.4274 49.0973 19.4936 49.5642 18.4041C47.9689 18.6765 46.607 19.1434 45.4786 20.2718ZM52.1323 18.4041C53.8054 20.3496 53.8054 22.4897 53.6498 24.9021C54.856 23.3068 55.8677 21.9449 56.3346 20.2329C55.2062 19.1434 53.9222 18.5208 52.1323 18.4041ZM53.6498 39.5714C54.6226 39.6492 55.4008 40.1161 55.5564 40.9722C55.7899 42.0228 56.2179 43.0344 56.1401 44.1628C56.1012 44.4741 56.0622 44.8243 56.2179 45.1745C56.8794 44.7465 56.9961 44.0461 57.3463 43.5403C57.3463 42.5286 57.3463 41.5169 57.3463 40.5442C56.4903 39.1045 55.2451 38.7932 53.6498 39.5714ZM45.6342 45.1356C46.1012 41.2835 46.1012 41.2835 46.9183 40.0383C47.2685 39.727 47.6965 39.6881 48.1245 39.5325C47.463 39.0656 46.7626 39.1823 46.1012 39.1823C45.751 39.4936 45.2062 39.4936 44.8949 39.8827C44.0778 41.9839 44.6226 44.085 45.6342 45.1356ZM62.0545 39.4158C62.7549 38.4819 63.6498 37.9372 64.5447 37.2757C63.8054 36.1862 63.1051 35.1356 62.4047 34.085C62.0934 34.1628 61.8988 34.3574 61.8988 34.513C61.8988 35.3302 61.4319 36.1473 61.6654 36.9644C61.8988 37.7426 61.8599 38.5208 62.0545 39.4158ZM37.463 37.2757C38.2412 38.015 39.214 38.5208 39.7977 39.6103C40.2257 37.6259 40.4202 35.8749 39.7977 34.1239C39.4475 34.0461 39.3307 34.3185 39.214 34.4741C38.6693 35.408 37.9689 36.2251 37.463 37.2757ZM53.3385 40.6609C51.7043 40.6609 50.07 40.6609 48.4358 40.6609C48.3191 40.8165 48.1634 40.9333 48.1634 41.05C48.1245 41.2835 47.8132 41.4002 47.93 41.6726C48.9027 41.8671 52.9494 41.8671 53.9222 41.6726C54.0389 41.1667 53.6498 40.8944 53.3385 40.6609ZM48.5525 25.1356C48.9805 25.6804 49.3307 26.2251 49.9922 26.4197C50.4591 26.3029 50.5759 25.836 51.0039 25.7193C51.1206 25.8749 51.2373 26.0305 51.393 26.1473C51.5486 26.264 51.6654 26.4586 51.8988 26.4197C52.677 25.9138 52.677 25.9138 53.1829 25.1356C51.7043 24.5519 50.1868 24.5909 48.5525 25.1356ZM52.9883 42.6842C51.7821 42.4508 49.6031 42.4897 48.9027 42.7621C49.0584 43.1123 49.4475 43.3068 49.5253 43.6959C50.537 43.6959 51.4708 43.6959 52.4047 43.6959C52.7549 43.4235 52.8327 43.0344 52.9883 42.6842ZM48.9416 17.9372C50.4202 17.9372 51.6654 17.9372 52.9494 17.9372C52.4047 16.8866 51.7432 16.5364 50.5759 16.5753C49.8755 16.8088 49.4475 17.1979 48.9416 17.9372ZM44.5447 12.2173C44.5447 13.1512 44.428 14.1239 44.5836 15.0578C44.7782 16.2251 45.0506 17.3924 45.3229 18.5597C45.3619 18.7154 45.5175 18.6765 45.6732 18.6765C45.9066 17.8983 45.4008 17.2757 45.2451 16.5753C45.0895 15.836 45.1673 15.0967 44.8949 14.3963C44.6226 13.657 44.9728 12.9177 44.5447 12.2173ZM57.2296 11.6726C56.9961 11.9839 57.0739 12.2562 57.0739 12.5286C57.1128 13.9683 56.8794 15.408 56.5681 16.8088C56.4514 17.2368 56.4124 17.7037 56.1401 18.1317C56.0623 18.2484 55.9844 18.5986 56.4514 18.6765C57.1517 16.4197 57.5019 14.1239 57.2296 11.6726ZM45.8288 34.5909C46.3346 34.5909 46.7626 34.5909 47.1907 34.5909C47.2685 34.5909 47.3463 34.513 47.3852 34.513C46.6848 33.9683 45.5953 33.7348 45.2451 34.0461C45.4786 34.2018 45.6731 34.3963 45.8288 34.5909ZM56.607 34.0072C56.3346 33.7348 56.0233 33.8126 55.8288 33.8905C55.5564 34.0072 55.3619 34.1239 55.0506 34.085C54.7393 34.085 54.5837 34.2017 54.5447 34.5519C55.0117 34.5519 55.4786 34.5519 55.9455 34.5519C56.1012 34.3574 56.4903 34.4352 56.607 34.0072Z" fill="white"/>
<path d="M42.7163 22.8016C42.405 22.8016 42.0938 22.8016 41.7436 22.8016C41.3155 23.2296 40.8097 23.6187 40.5373 24.2413C39.9537 23.4241 39.6813 22.5681 39.7591 21.5954C39.9926 20.7782 40.693 20.3502 41.1988 19.7666C40.8875 18.8716 40.5373 18.0156 40.4595 17.0817C40.3817 16.0701 40.6541 15.1362 41.0043 14.2413C41.6268 12.7627 42.4439 11.3619 43.8058 10.1946C43.3 13.3852 43.5334 16.4203 44.5451 19.3775C45.5179 22.3347 46.9965 24.9417 49.4867 27.0039C48.8642 28.0934 48.4362 29.2607 48.1249 30.4669C47.5412 30.1168 47.3078 29.572 46.9965 29.0662C46.2183 27.8599 45.479 26.6148 44.8175 25.3697C44.2727 24.3969 43.6113 23.5409 42.7163 22.8016Z" fill="white"/>
<path d="M60.5754 19.7665C61.3536 20.1167 61.7428 20.7004 62.1319 21.284C62.2486 22.3346 62.1708 23.3463 61.4704 24.2412C61.0424 24.0467 61.1202 23.5019 60.7311 23.1907C59.6416 22.5681 59.1747 22.607 58.3964 23.5798C57.8517 24.2412 57.3848 24.9805 56.9957 25.7198C56.1785 27.2374 55.2058 28.6381 54.2719 30.0778C54.1941 30.1945 54.0774 30.3113 53.8439 30.5447C53.6494 29.1829 53.1046 28.1323 52.4821 27.0039C53.6105 25.8755 54.7389 24.786 55.5949 23.463C56.412 22.1401 56.9568 20.7004 57.4237 19.2218C57.9295 17.7432 58.0852 16.1868 58.3964 14.6693C58.7077 13.0739 58.3186 11.5953 58.0463 10C58.7077 10.2335 58.8245 10.8171 59.1747 11.2062C60.2252 12.4125 61.0424 13.8132 61.3536 15.4086C61.626 16.6537 61.5482 18.0156 60.9256 19.2218C60.8478 19.3774 60.7311 19.5331 60.5754 19.7665Z" fill="white"/>
<path d="M67.6565 33.6186C67.3063 33.7354 67.0339 33.463 66.8005 33.3074C65.6332 32.6459 64.4659 32.2179 62.9483 32.4513C61.7032 32.9182 61.1974 34.0467 61.1585 35.4474C61.1195 36.498 61.1974 37.5486 61.1585 38.5603C61.1195 39.1439 61.5087 39.6109 61.3919 40.1945C61.3141 40.7003 61.7032 41.0895 61.6643 41.5564C61.6254 42.0233 61.5476 42.5291 61.8588 42.9182C61.7421 44.0077 61.9756 45.0972 61.7032 46.2256C61.5086 47.0038 61.4308 47.821 61.1585 48.5992C61.0028 49.0272 60.8472 49.3774 60.5359 49.7276C60.2246 48.9883 60.5748 48.4046 60.925 47.7821C60.925 46.6537 60.925 45.5642 60.925 44.4358C60.9639 43.1128 60.7304 41.8677 60.3413 40.6225C59.7188 38.6381 59.6799 36.6147 59.7188 34.5525C59.7188 34.1634 60.1468 33.8521 59.9133 33.4241C59.602 33.1517 59.1351 33.5019 58.7849 33.2295C60.7304 32.4124 61.3141 30.8171 61.1585 28.7937C62.9094 28.6381 64.4658 29.0272 65.8277 30C66.2946 30.3502 66.6448 30.8171 66.8394 31.3229C67.1507 32.0622 67.5787 32.8015 67.6565 33.6186ZM65.8666 31.4786C65.9444 30.8171 65.9444 30.8171 65.8277 30.7003C65.4775 30.3891 65.1662 30.3891 64.7382 30.6614C64.9717 31.1673 65.3997 31.3229 65.8666 31.4786Z" fill="white"/>
<path d="M34.4272 33.6188C34.5051 31.5566 36.0615 29.4943 38.007 29.0663C38.3961 28.9885 38.7463 28.8329 39.1354 28.7939C39.6023 28.7939 40.0693 28.7939 40.614 28.7939C40.614 30.8173 41.1199 32.5294 43.2988 33.2297C42.8319 33.4632 42.3261 33.2297 41.8202 33.4243C42.2093 34.5527 42.4428 35.6811 42.3261 36.8095C42.1315 38.1325 41.8981 39.4165 41.5868 40.7006C41.3922 41.4788 41.2755 42.2959 41.1199 43.0741C40.8864 44.0858 40.9642 45.1364 40.9253 46.148C40.8864 47.0041 41.042 47.7823 41.3144 48.5605C41.4701 48.9496 41.4311 49.2998 41.3533 49.8834C40.614 48.4827 40.186 47.1986 40.186 45.7589C40.186 45.5644 40.2249 45.3309 40.186 45.1753C40.1471 44.9807 40.0304 44.8251 39.9525 44.5916C40.2249 44.1247 40.2249 43.5799 40.2249 43.0352C40.186 42.0235 40.3416 41.0118 40.6529 40.0391C40.6918 39.9613 40.6918 39.8834 40.6918 39.8056C40.614 38.5994 41.0031 37.471 40.9642 36.2648C40.9253 35.6033 40.6918 34.9807 40.6529 34.2803C40.614 33.8523 40.186 33.4243 39.9136 32.9963C39.5634 32.8406 39.2132 32.6461 38.8631 32.4515C37.3455 32.2959 35.9837 32.6072 34.7775 33.5799C34.6996 33.6578 34.544 33.6188 34.4272 33.6188ZM36.0226 31.4399C36.4117 31.2064 37.0343 31.2842 37.1121 30.6616C36.9564 30.4282 36.723 30.506 36.5673 30.506C36.1004 30.8562 36.1004 30.8562 36.0226 31.4399Z" fill="white"/>
<path d="M54.7 30.7392C56.5288 30.5057 58.3965 29.8832 60.2642 29.2217C60.5755 30.4668 60.0696 31.4785 58.9412 32.1789C58.0852 32.6847 57.1513 32.8793 56.2175 33.1127C53.805 33.7353 51.3537 33.6964 48.9023 33.5797C47.1902 33.5018 45.5171 33.1906 43.8829 32.6458C42.5599 32.2178 41.4704 30.8948 41.5093 29.2995C42.521 29.2995 43.377 29.9221 44.3887 30.0777C45.3614 30.1944 46.3342 30.5835 47.5404 30.8948C48.1241 31.3228 48.4354 32.2956 49.2914 32.8404C50.3809 33.2684 51.5482 33.3073 52.7934 32.7625C53.2992 32.2178 53.9218 31.5563 54.7 30.7392Z" fill="white"/>
<path d="M34.0002 44.319C34.4672 43.463 35.0119 42.5291 35.5956 41.4785C36.1014 42.4513 36.4127 43.424 37.152 44.1633C37.8913 44.9416 38.7084 45.6809 39.4088 46.3423C39.5255 47.7042 39.9146 48.8715 40.6539 49.9999C39.0197 49.8443 37.6967 49.105 36.4905 48.2489C35.2454 47.354 34.3115 46.1089 34.0002 44.319Z" fill="white"/>
<path d="M67.9314 44.4359C67.5423 47.0818 64.4684 49.5332 61.4333 49.9223C61.4723 49.4943 61.7446 49.2219 61.9003 48.8717C62.0948 48.4437 62.3283 47.9379 62.3672 47.4709C62.445 46.7706 62.7563 46.3036 63.2621 45.8756C64.5462 44.6694 65.6357 43.2686 66.3361 41.5955C66.8419 41.9846 66.9197 42.5682 67.1921 43.0741C67.4256 43.5021 67.6979 44.0079 67.9314 44.4359Z" fill="white"/>
<path d="M51.4706 48.2876C49.4472 48.3265 47.5406 46.9258 46.8402 44.9802C46.6068 44.2798 46.6846 43.6962 47.0348 42.9958C47.5017 44.7857 48.9803 44.3188 50.2254 44.4355C50.2254 45.0191 50.2254 45.6028 50.2254 46.0308C50.5367 46.6534 50.9258 46.6145 51.3538 46.5366C51.704 45.9141 51.7819 45.2137 51.743 44.4355C52.3266 44.4355 52.9103 44.4355 53.3383 44.4355C54.311 43.9296 54.311 43.9296 55.0503 42.918C55.1671 43.9296 55.206 44.8246 54.8169 45.7584C53.9609 46.8479 52.9103 47.704 51.4706 48.2876Z" fill="white"/>
<path d="M54.4275 36.7316C54.4275 37.1207 54.4275 37.5488 54.4275 38.0157C54.1551 38.2881 53.9605 38.755 53.338 38.6383C53.0656 38.4048 53.3769 37.86 52.7932 37.7433C52.3263 38.1324 52.4041 38.8328 52.1317 39.3386C51.3535 39.8445 51.3535 39.8445 50.4586 39.8445C50.1473 39.5332 49.6804 39.2997 49.6026 38.7939C49.5247 38.3659 49.3691 37.9768 48.98 37.7044C48.7465 37.9379 48.9411 38.2492 48.7855 38.5604C48.5909 38.755 48.3185 38.5993 47.9683 38.6383C47.8127 38.4826 47.6181 38.2881 47.4236 38.0935C47.4236 37.7044 47.4236 37.3542 47.4236 36.9651C47.696 36.9651 47.7738 36.6538 48.0072 36.5371C48.9022 36.4593 48.9022 36.4593 49.7971 36.9651C49.9138 36.4204 49.408 36.148 49.3691 35.6811C49.4469 35.5643 49.5637 35.4476 49.6804 35.3309C50.1473 35.253 50.6142 35.2141 51.0033 35.5254C51.3535 35.3309 51.7037 35.1752 52.1317 35.3309C52.3263 35.4865 52.5209 35.6032 52.4819 35.9145C52.5598 36.3425 51.8983 36.4593 52.0539 36.9651C52.4819 37.1207 52.6376 36.6149 52.9489 36.5371C53.4547 36.4982 53.9605 36.4593 54.4275 36.7316ZM51.8983 37.432C51.9372 37.3931 51.9761 37.3931 51.9761 37.3542C51.9761 37.3153 51.9372 37.3153 51.8983 37.2764C51.8594 37.3153 51.8594 37.3542 51.8205 37.3931C51.8594 37.3931 51.8983 37.432 51.8983 37.432Z" fill="white"/>
<path d="M52.6006 23.9689C51.4722 23.9689 50.3827 23.9689 49.1765 23.9689C48.9041 21.9455 49.2154 20.1168 50.4605 18.4436C50.7718 18.4436 51.0831 18.4436 51.3944 18.4436C52.3672 19.6109 52.6395 21.0117 52.9119 22.4125C53.0675 22.9572 52.9897 23.5409 52.6006 23.9689Z" fill="white"/>
<path d="M55.2849 29.8443C56.8413 27.7821 57.6195 25.4864 59.2149 23.6187C60.1876 24.9805 60.9269 26.3424 61.2382 27.8988C59.3316 28.7159 57.4639 29.4552 55.2849 29.8443Z" fill="white"/>
<path d="M46.4908 29.6888C44.9732 29.611 41.7048 28.4437 40.6542 27.6655C40.8098 27.2375 40.9655 26.8095 41.16 26.4204C41.588 25.5254 42.055 24.6305 42.5219 23.6577C42.9888 23.8912 43.3001 24.2025 43.4946 24.5527C44.5452 26.2647 45.3623 28.0546 46.4908 29.6888Z" fill="white"/>
<path d="M62.599 44.9808C62.7547 43.4632 62.5212 42.0236 62.3267 40.6228C62.9492 39.6111 63.6107 38.7551 64.8169 38.366C65.0504 38.794 65.3617 39.1053 65.673 39.4555C66.1399 40.0002 66.1399 40.5839 65.7508 41.1675C65.2449 41.8679 64.7391 42.5683 64.2333 43.2298C63.7274 43.8134 63.3383 44.4749 62.599 44.9808Z" fill="white"/>
<path d="M35.9062 39.961C36.5288 39.5719 36.6455 38.7547 37.3459 38.4045C37.4627 38.4435 37.6572 38.4045 37.6961 38.4824C38.3965 39.1827 39.058 39.8442 39.6806 40.5446C39.4471 41.9454 39.1747 43.3851 39.2526 44.9804C38.5522 44.5913 38.3187 43.9298 37.8907 43.4629C37.4627 42.996 37.0347 42.4512 36.7234 41.8676C36.451 41.245 35.7895 40.8559 35.9062 39.961Z" fill="white"/>
<path d="M45.4796 20.2722C46.5691 19.1438 47.9699 18.638 49.5652 18.4045C49.1372 19.5329 48.5146 20.4279 48.2423 21.5174C47.9699 22.6458 48.2812 23.7353 48.3979 25.0582C47.0749 23.5407 46.2578 21.9454 45.4796 20.2722Z" fill="white"/>
<path d="M52.1337 18.4045C53.9236 18.5213 55.2076 19.1438 56.336 20.2333C55.8691 21.9454 54.8574 23.3462 53.6512 24.9026C53.8068 22.4901 53.8068 20.3501 52.1337 18.4045Z" fill="white"/>
<path d="M51.6662 32.4126C51.1604 32.4126 50.5767 32.4126 50.0709 32.4126C49.3316 32.0235 49.0981 31.4009 48.9036 30.6616C49.604 28.2103 49.6429 28.1324 50.9269 26.8484C52.1721 27.6655 52.9503 29.3387 52.9503 31.1675C52.7557 31.7511 52.4833 32.2569 51.6662 32.4126ZM52.0164 31.0118C52.0164 30.5838 52.0164 30.1558 52.0164 29.6889C51.7051 29.2219 51.4328 28.755 51.1215 28.2881C49.8374 29.3387 49.604 30.1558 50.2265 31.4009C50.4989 31.4009 50.6545 31.7511 51.0436 31.6733C51.316 31.5566 51.7051 31.4787 52.0164 31.0118Z" fill="white"/>
<path d="M54.4282 36.7704C54.4282 36.6537 54.4281 36.537 54.4671 36.3813C54.8951 36.1479 55.4009 36.3813 56.1013 36.1479C54.8951 36.0311 54.039 35.7588 53.0663 35.0973C54.1558 35.0973 55.0118 35.5253 55.9067 35.2918C56.7239 35.0584 57.5021 34.6693 58.1636 34.1245C59.0196 34.7471 58.2025 35.4475 58.2025 36.07C58.2025 36.6926 57.5799 37.1984 56.7628 37.4708C56.4515 37.4708 56.0235 37.4708 55.5566 37.4708C55.2064 37.1984 54.8562 36.8872 54.4282 36.7704Z" fill="white"/>
<path d="M47.4249 36.9649C46.958 36.926 46.6467 37.2762 46.2576 37.4318C45.8685 37.4318 45.4794 37.4318 45.1292 37.4318C44.1564 37.2373 43.923 36.4591 43.6117 35.7976C43.6117 35.2139 43.6117 34.6692 43.6117 34.0466C44.3121 34.2023 44.5845 34.9805 45.207 35.0194C45.7907 35.0194 46.3354 35.2918 46.958 35.3307C47.5806 35.3307 48.1642 34.8637 48.8257 35.1361C47.6584 35.8365 47.1136 35.9922 46.0242 36.1089C46.1798 36.3813 46.4133 36.2645 46.6078 36.2645C46.8413 36.3034 47.0747 36.2645 47.2693 36.2645C47.5417 36.498 47.3471 36.7704 47.4249 36.9649Z" fill="white"/>
<path d="M53.6505 39.572C55.2848 38.7938 56.491 39.144 57.3081 40.5058C57.3081 41.4786 57.3081 42.4514 57.3081 43.502C56.9579 44.0467 56.8412 44.7471 56.1797 45.1362C56.0241 44.786 56.1019 44.4358 56.1019 44.1245C56.1797 42.9961 55.7517 41.9844 55.5182 40.9339C55.3626 40.0778 54.6233 39.6498 53.6505 39.572Z" fill="white"/>
<path d="M45.6335 45.1363C44.6218 44.0857 44.077 41.9845 44.8942 39.8834C45.2055 39.4943 45.7502 39.4943 46.1004 39.183C46.7619 39.183 47.4233 39.0273 48.1237 39.5332C47.6957 39.6888 47.2288 39.7666 46.9175 40.039C46.1393 41.2842 46.1393 41.2842 45.6335 45.1363Z" fill="white"/>
<path d="M62.0548 39.4163C61.8603 38.5602 61.8992 37.7431 61.6657 36.926C61.4322 36.1089 61.8992 35.3307 61.8992 34.4746C61.8992 34.319 62.0937 34.1245 62.405 34.0466C63.1054 35.0972 63.8447 36.1478 64.5451 37.2373C63.6502 37.9377 62.7163 38.4824 62.0548 39.4163Z" fill="white"/>
<path d="M37.4634 37.2764C37.9692 36.2648 38.6696 35.4087 39.2533 34.5138C39.37 34.3582 39.4867 34.0858 39.8369 34.1636C40.4595 35.9146 40.226 37.6655 39.8369 39.65C39.2144 38.5216 38.2805 38.0157 37.4634 37.2764Z" fill="white"/>
<path d="M53.3394 40.6616C53.6506 40.934 54.0398 41.1675 53.923 41.7122C52.9503 41.9068 48.9036 41.9068 47.9308 41.7122C47.8141 41.4398 48.1643 41.3231 48.1643 41.0896C48.1643 40.934 48.3199 40.8562 48.4366 40.7005C50.0709 40.6616 51.7051 40.6616 53.3394 40.6616Z" fill="white"/>
<path d="M48.5526 25.1362C50.1479 24.6304 51.6655 24.5915 53.183 25.0973C52.716 25.8755 52.716 25.8755 51.8989 26.3813C51.6655 26.4203 51.5098 26.2646 51.3931 26.109C51.2374 25.9533 51.1207 25.7977 51.004 25.681C50.576 25.7977 50.4592 26.3035 49.9923 26.3813C49.3697 26.2257 49.0195 25.681 48.5526 25.1362Z" fill="white"/>
<path d="M52.9888 42.685C52.8331 43.0352 52.7553 43.4243 52.3662 43.6967C51.4324 43.6967 50.4985 43.6967 49.4868 43.6967C49.4479 43.3076 49.0588 43.113 48.8643 42.7629C49.6036 42.4905 51.7825 42.4516 52.9888 42.685Z" fill="white"/>
<path d="M48.9427 17.9376C49.4486 17.2372 49.8766 16.8091 50.577 16.5757C51.7443 16.5757 52.3669 16.9259 52.9505 17.9376C51.6665 17.9376 50.4213 17.9376 48.9427 17.9376Z" fill="white"/>
<path d="M44.5447 12.2178C44.9338 12.9182 44.6225 13.6575 44.8949 14.3968C45.1284 15.0972 45.0895 15.8364 45.2451 16.5757C45.4007 17.2761 45.9455 17.8987 45.6731 18.6769C45.5175 18.6769 45.3618 18.7158 45.3229 18.5602C45.0505 17.3929 44.8171 16.2256 44.5836 15.0582C44.428 14.1244 44.5447 13.1516 44.5447 12.2178Z" fill="white"/>
<path d="M57.2306 11.6731C57.5029 14.1245 57.1527 16.4202 56.4134 18.677C55.9465 18.5992 56.0243 18.249 56.1022 18.1322C56.3745 17.7431 56.4524 17.2762 56.5302 16.8093C56.8804 15.4085 57.0749 13.9688 57.036 12.5291C57.0749 12.2568 56.9971 11.9844 57.2306 11.6731Z" fill="white"/>
<path d="M45.8279 34.5913C45.6723 34.4356 45.4778 34.2411 45.2832 34.0076C45.6334 33.6963 46.7229 33.9687 47.4233 34.4745C47.3455 34.5134 47.2676 34.5523 47.2287 34.5523C46.7618 34.5913 46.3338 34.5913 45.8279 34.5913Z" fill="white"/>
<path d="M56.6085 34.0078C56.4918 34.4358 56.1027 34.3191 55.947 34.5525C55.4801 34.5525 55.0132 34.5525 54.5463 34.5525C54.5852 34.2413 54.7408 34.0856 55.0521 34.0856C55.3245 34.0856 55.5579 33.9689 55.8303 33.8911C56.0249 33.8132 56.3361 33.7743 56.6085 34.0078Z" fill="white"/>
<path d="M67.6578 33.6189C67.7748 33.6189 67.8528 33.6579 67.8528 33.7749C67.6968 33.8138 67.6578 33.6969 67.6578 33.6189Z" fill="white"/>
<path d="M34.4285 33.6189C34.4285 33.7359 34.3895 33.8138 34.2335 33.7749C34.2335 33.6189 34.3115 33.6189 34.4285 33.6189Z" fill="white"/>
<path d="M65.8675 31.4787C65.4395 31.3231 65.0115 31.1674 64.7002 30.6616C65.1282 30.3892 65.4784 30.3892 65.7897 30.7005C65.9453 30.8172 65.9453 30.8172 65.8675 31.4787Z" fill="white"/>
<path d="M36.0227 31.4395C36.1005 30.8947 36.1005 30.8947 36.5674 30.5056C36.762 30.5056 36.9566 30.4278 37.1122 30.6613C37.0344 31.2838 36.4118 31.206 36.0227 31.4395Z" fill="white"/>
<path d="M51.8998 37.4321C51.8608 37.4321 51.8608 37.3931 51.8218 37.3931C51.8608 37.3541 51.8608 37.3151 51.8998 37.2761C51.9387 37.3151 51.9777 37.3541 51.9777 37.3541C51.9777 37.3931 51.9387 37.3931 51.8998 37.4321Z" fill="white"/>
</svg>
