<svg width="250" height="60" viewBox="0 0 250 60" fill="none" xmlns="http://www.w3.org/2000/svg">
<path d="M97.8312 38.1706C97.0494 38.1706 96.2604 38.1422 95.4644 38.0853C94.6683 38.0426 93.9718 37.9431 93.3748 37.7868V23.4366C93.6875 23.3797 94.0216 23.33 94.3769 23.2873C94.7323 23.2305 95.0948 23.1878 95.4644 23.1594C95.834 23.131 96.1965 23.1096 96.5518 23.0954C96.9214 23.0812 97.2697 23.0741 97.5967 23.0741C98.4922 23.0741 99.3238 23.1452 100.091 23.2873C100.859 23.4153 101.52 23.6356 102.074 23.9483C102.643 24.2611 103.084 24.6733 103.396 25.1851C103.709 25.6968 103.866 26.3294 103.866 27.0828C103.866 27.7793 103.695 28.3764 103.354 28.8739C103.027 29.3714 102.565 29.7694 101.968 30.068C102.863 30.3665 103.524 30.8071 103.951 31.39C104.377 31.9728 104.591 32.712 104.591 33.6075C104.591 35.1285 104.036 36.2729 102.927 37.0405C101.819 37.7939 100.12 38.1706 97.8312 38.1706ZM96.0188 31.3473V35.8464C96.3173 35.8748 96.6371 35.8962 96.9783 35.9104C97.3195 35.9246 97.6322 35.9317 97.9165 35.9317C98.4709 35.9317 98.9826 35.8962 99.4517 35.8251C99.935 35.754 100.347 35.6332 100.688 35.4626C101.044 35.2778 101.321 35.0361 101.52 34.7376C101.733 34.4391 101.84 34.0553 101.84 33.5862C101.84 32.7475 101.534 32.1647 100.923 31.8377C100.312 31.5108 99.4659 31.3473 98.3856 31.3473H96.0188ZM96.0188 29.2364H97.9165C98.94 29.2364 99.7431 29.0942 100.326 28.8099C100.909 28.5114 101.2 27.9854 101.2 27.232C101.2 26.5213 100.895 26.0166 100.283 25.7181C99.6863 25.4196 98.9045 25.2704 97.9378 25.2704C97.5256 25.2704 97.156 25.2775 96.829 25.2917C96.5163 25.3059 96.2462 25.3272 96.0188 25.3556V29.2364ZM117.197 38C116.998 37.4172 116.792 36.8415 116.579 36.2729C116.365 35.7043 116.159 35.1214 115.96 34.5244H109.734C109.535 35.1214 109.329 35.7114 109.116 36.2942C108.917 36.8628 108.718 37.4314 108.519 38H105.725C106.28 36.4221 106.806 34.9651 107.303 33.6288C107.801 32.2926 108.284 31.0275 108.753 29.8334C109.237 28.6393 109.713 27.5021 110.182 26.4218C110.651 25.3414 111.134 24.2753 111.632 23.2234H114.169C114.667 24.2753 115.15 25.3414 115.619 26.4218C116.088 27.5021 116.557 28.6393 117.026 29.8334C117.51 31.0275 118 32.2926 118.498 33.6288C119.009 34.9651 119.543 36.4221 120.097 38H117.197ZM112.847 26.0806C112.52 26.834 112.144 27.7509 111.717 28.8312C111.305 29.9116 110.871 31.0843 110.416 32.3495H115.278C114.823 31.0843 114.382 29.9045 113.956 28.8099C113.53 27.7154 113.16 26.8056 112.847 26.0806ZM126.421 38.1706C125.639 38.1706 124.85 38.1422 124.054 38.0853C123.258 38.0426 122.562 37.9431 121.965 37.7868V23.4366C122.277 23.3797 122.611 23.33 122.967 23.2873C123.322 23.2305 123.685 23.1878 124.054 23.1594C124.424 23.131 124.786 23.1096 125.142 23.0954C125.511 23.0812 125.86 23.0741 126.187 23.0741C127.082 23.0741 127.914 23.1452 128.681 23.2873C129.449 23.4153 130.11 23.6356 130.664 23.9483C131.233 24.2611 131.674 24.6733 131.986 25.1851C132.299 25.6968 132.455 26.3294 132.455 27.0828C132.455 27.7793 132.285 28.3764 131.944 28.8739C131.617 29.3714 131.155 29.7694 130.558 30.068C131.453 30.3665 132.114 30.8071 132.541 31.39C132.967 31.9728 133.18 32.712 133.18 33.6075C133.18 35.1285 132.626 36.2729 131.517 37.0405C130.408 37.7939 128.71 38.1706 126.421 38.1706ZM124.609 31.3473V35.8464C124.907 35.8748 125.227 35.8962 125.568 35.9104C125.909 35.9246 126.222 35.9317 126.506 35.9317C127.061 35.9317 127.573 35.8962 128.042 35.8251C128.525 35.754 128.937 35.6332 129.278 35.4626C129.634 35.2778 129.911 35.0361 130.11 34.7376C130.323 34.4391 130.43 34.0553 130.43 33.5862C130.43 32.7475 130.124 32.1647 129.513 31.8377C128.902 31.5108 128.056 31.3473 126.976 31.3473H124.609ZM124.609 29.2364H126.506C127.53 29.2364 128.333 29.0942 128.916 28.8099C129.499 28.5114 129.79 27.9854 129.79 27.232C129.79 26.5213 129.484 26.0166 128.873 25.7181C128.276 25.4196 127.494 25.2704 126.528 25.2704C126.115 25.2704 125.746 25.2775 125.419 25.2917C125.106 25.3059 124.836 25.3272 124.609 25.3556V29.2364ZM140.468 29.7694C141.107 28.7033 141.733 27.623 142.344 26.5284C142.955 25.4338 143.51 24.3322 144.007 23.2234H146.993C146.196 24.7302 145.365 26.2299 144.498 27.7225C143.645 29.2008 142.728 30.6934 141.747 32.2002V38H139.06V32.2429C138.08 30.7219 137.156 29.215 136.289 27.7225C135.421 26.2299 134.59 24.7302 133.794 23.2234H136.95C137.447 24.3322 137.994 25.4338 138.591 26.5284C139.188 27.623 139.814 28.7033 140.468 29.7694ZM157.385 35.9957C158.352 35.9957 159.055 35.8322 159.496 35.5052C159.937 35.1783 160.157 34.7163 160.157 34.1193C160.157 33.7639 160.079 33.4583 159.923 33.2024C159.78 32.9465 159.567 32.7191 159.283 32.5201C159.013 32.3068 158.679 32.1149 158.281 31.9444C157.883 31.7596 157.428 31.5819 156.916 31.4113C156.404 31.2265 155.907 31.0275 155.423 30.8143C154.954 30.5868 154.535 30.3096 154.165 29.9827C153.81 29.6557 153.519 29.2648 153.291 28.8099C153.078 28.355 152.971 27.8078 152.971 27.1681C152.971 25.8318 153.433 24.787 154.357 24.0336C155.281 23.266 156.539 22.8822 158.131 22.8822C159.055 22.8822 159.873 22.9888 160.584 23.202C161.309 23.4011 161.877 23.6214 162.289 23.8631L161.458 26.038C160.974 25.7679 160.441 25.5618 159.859 25.4196C159.29 25.2775 158.7 25.2064 158.089 25.2064C157.364 25.2064 156.795 25.3556 156.383 25.6542C155.985 25.9527 155.786 26.372 155.786 26.9122C155.786 27.2391 155.85 27.5234 155.978 27.7651C156.12 27.9925 156.312 28.1987 156.554 28.3835C156.809 28.5683 157.101 28.7388 157.428 28.8952C157.769 29.0516 158.139 29.2008 158.537 29.343C159.233 29.5989 159.851 29.8618 160.392 30.1319C160.946 30.3878 161.408 30.7005 161.778 31.0701C162.161 31.4255 162.453 31.852 162.652 32.3495C162.851 32.8328 162.95 33.4227 162.95 34.1193C162.95 35.4555 162.474 36.4932 161.522 37.2324C160.584 37.9574 159.205 38.3198 157.385 38.3198C156.774 38.3198 156.212 38.2772 155.701 38.1919C155.203 38.1208 154.755 38.0284 154.357 37.9147C153.974 37.801 153.639 37.6873 153.355 37.5735C153.071 37.4456 152.843 37.3319 152.673 37.2324L153.462 35.0361C153.846 35.2494 154.364 35.4626 155.018 35.6758C155.672 35.8891 156.461 35.9957 157.385 35.9957ZM174.785 24.8865C175.013 25.6542 175.254 26.4573 175.51 27.296C175.766 28.1205 176.029 28.9521 176.299 29.7908C176.584 30.6152 176.861 31.4326 177.131 32.2429C177.415 33.0389 177.685 33.7923 177.941 34.5031C178.154 33.7355 178.36 32.9039 178.559 32.0083C178.758 31.0986 178.957 30.1604 179.156 29.1937C179.355 28.2129 179.547 27.2178 179.732 26.2085C179.931 25.1993 180.116 24.2042 180.287 23.2234H183.059C182.561 25.8958 182.007 28.4688 181.395 30.9422C180.784 33.4014 180.102 35.754 179.348 38H176.79C175.681 35.1285 174.608 31.9941 173.57 28.5967C173.044 30.3167 172.511 31.9515 171.971 33.5009C171.431 35.0504 170.89 36.5501 170.35 38H167.791C167.024 35.754 166.334 33.4014 165.723 30.9422C165.126 28.4688 164.579 25.8958 164.081 23.2234H166.96C167.13 24.19 167.308 25.178 167.493 26.1872C167.692 27.1965 167.891 28.1916 168.09 29.1724C168.303 30.139 168.516 31.0772 168.73 31.987C168.943 32.8968 169.156 33.7355 169.369 34.5031C169.639 33.7781 169.91 33.0176 170.18 32.2215C170.464 31.4113 170.741 30.5939 171.011 29.7694C171.281 28.9307 171.537 28.0992 171.779 27.2747C172.035 26.4502 172.269 25.6542 172.482 24.8865H174.785ZM194.804 38C194.605 37.4172 194.399 36.8415 194.186 36.2729C193.973 35.7043 193.766 35.1214 193.567 34.5244H187.341C187.142 35.1214 186.936 35.7114 186.723 36.2942C186.524 36.8628 186.325 37.4314 186.126 38H183.333C183.887 36.4221 184.413 34.9651 184.91 33.6288C185.408 32.2926 185.891 31.0275 186.36 29.8334C186.844 28.6393 187.32 27.5021 187.789 26.4218C188.258 25.3414 188.741 24.2753 189.239 23.2234H191.776C192.274 24.2753 192.757 25.3414 193.226 26.4218C193.695 27.5021 194.164 28.6393 194.634 29.8334C195.117 31.0275 195.607 32.2926 196.105 33.6288C196.617 34.9651 197.15 36.4221 197.704 38H194.804ZM190.454 26.0806C190.127 26.834 189.751 27.7509 189.324 28.8312C188.912 29.9116 188.478 31.0843 188.024 32.3495H192.885C192.43 31.0843 191.99 29.9045 191.563 28.8099C191.137 27.7154 190.767 26.8056 190.454 26.0806ZM203.751 23.0741C205.898 23.0741 207.539 23.465 208.677 24.2469C209.828 25.0287 210.404 26.2512 210.404 27.9144C210.404 28.7815 210.247 29.5278 209.935 30.1532C209.636 30.7645 209.195 31.2691 208.613 31.6672C208.03 32.051 207.319 32.3353 206.48 32.5201C205.642 32.7049 204.682 32.7973 203.602 32.7973H202.258V38H199.572V23.4366C200.197 23.2944 200.887 23.202 201.64 23.1594C202.408 23.1025 203.111 23.0741 203.751 23.0741ZM203.943 25.3983C203.261 25.3983 202.699 25.4196 202.258 25.4623V30.4944H203.559C204.853 30.4944 205.848 30.3167 206.544 29.9613C207.241 29.5917 207.589 28.9023 207.589 27.893C207.589 27.4097 207.497 27.0046 207.312 26.6776C207.127 26.3507 206.871 26.0948 206.544 25.91C206.217 25.7252 205.826 25.5973 205.372 25.5262C204.931 25.4409 204.455 25.3983 203.943 25.3983Z" fill="white"/>
<g clip-path="url(#clip0)">
<path d="M79.9176 17.2014C79.8428 19.9035 78.7712 21.7369 76.685 22.9687C74.8445 24.0616 74.606 24.941 75.7523 26.6498C77.6151 29.3617 78.5071 32.6234 78.2835 35.9059C78.2123 37.0309 78.49 37.6859 79.5794 38.2306C80.2343 38.5354 80.8193 38.9721 81.2976 39.5134C81.776 40.0547 82.1374 40.6889 82.3593 41.3763C82.5812 42.0637 82.6588 42.7896 82.5872 43.5084C82.5156 44.2272 82.2964 44.9235 81.9432 45.5537C80.5192 48.213 77.2618 49.1137 74.4992 47.6043C73.1998 46.8922 71.8896 46.1802 70.6436 45.3828C70.0135 44.9769 69.6931 45.0908 69.1911 45.5928C66.044 48.7506 62.2704 49.8186 58.0197 48.4053C53.712 46.9812 51.3446 43.8128 50.7073 39.3556C50.5341 38.026 50.6668 36.6744 51.0954 35.4039C51.3481 34.6172 51.2449 34.1615 50.4403 33.7628C49.1587 33.1255 47.9483 32.3672 46.7094 31.6267C43.9966 29.9642 43.217 26.8064 44.8439 24.1791C45.2251 23.5673 45.727 23.0397 46.319 22.6283C46.9109 22.217 47.5805 21.9306 48.2868 21.7867C48.9931 21.6428 49.7213 21.6443 50.427 21.7912C51.1327 21.9381 51.801 22.2273 52.3912 22.6412C53.413 23.3211 54.1143 23.2001 55.0542 22.5593C57.6949 20.7405 60.8723 19.8662 64.0718 20.0779C66.3822 20.2061 66.9803 19.7219 67.0444 17.3901C67.0738 15.8418 67.6535 14.3545 68.6796 13.1947C69.7057 12.0349 71.1112 11.2782 72.6444 11.0603C74.1576 10.8639 75.6912 11.2124 76.971 12.0434C78.2507 12.8744 79.193 14.1336 79.6292 15.5958C79.7639 16.1234 79.8602 16.66 79.9176 17.2014ZM50.8533 24.2681C49.3225 23.4849 47.7169 23.8017 46.7913 25.0691C45.6912 26.575 45.9653 28.1557 47.5745 29.6082C51.4763 31.8605 55.3769 34.1152 59.2764 36.3723C64.607 39.4292 69.9387 42.4766 75.2717 45.5145C77.3436 46.6929 79.4334 46.0556 80.2059 44.0478C80.804 42.4849 80.1134 40.9647 78.3476 40.0498C76.9236 39.3378 75.8805 38.3232 76.0549 36.6215C76.4287 33.4976 75.6475 30.3449 73.8584 27.757C73.3884 27.0449 72.947 26.3579 72.9149 25.4607C72.8473 23.4564 73.7943 22.1249 75.5067 21.1531C78.3547 19.5368 78.5647 15.8593 75.9623 14.2679C75.852 13.6591 75.3287 13.5559 74.8694 13.4135C72.121 12.4914 69.2339 14.3676 69.2374 17.3296C69.2374 19.3766 68.5254 20.8326 66.9447 21.9897C66.0013 22.3457 65.0152 22.2994 64.0362 22.3136C61.1276 21.9876 58.2079 22.823 55.9121 24.6383C54.1357 25.7811 52.4767 25.2898 50.8533 24.2681ZM67.8134 43.8199C65.8981 42.5383 65.8981 42.5383 64.0718 43.4853C60.1949 45.5003 55.339 42.5632 55.6024 38.22C55.6843 36.8671 55.136 36.4399 54.1784 35.8846C53.4165 35.4467 53.1709 35.6425 52.9858 36.415C52.1029 40.0961 53.9683 44.0513 57.4821 45.8847C59.1813 46.771 61.1325 47.0495 63.0118 46.6739C64.8911 46.2983 66.5854 45.2912 67.8134 43.8199Z" fill="white"/>
<path d="M63.5626 24.6528C64.0325 24.724 64.6662 24.8024 65.2928 24.9305C65.9193 25.0587 66.3608 25.4752 66.2042 26.1943C66.1872 26.3316 66.1412 26.4637 66.0693 26.5818C65.9973 26.6999 65.9011 26.8014 65.787 26.8795C65.6729 26.9576 65.5434 27.0105 65.4073 27.0348C65.2711 27.0591 65.1314 27.0541 64.9973 27.0203C62.3486 26.5183 60.0132 27.0701 58.0232 28.932C57.9249 29.0295 57.8063 29.1041 57.6759 29.1505C57.5455 29.1968 57.4065 29.2138 57.2687 29.2002C57.131 29.1866 56.9979 29.1428 56.8791 29.0718C56.7603 29.0008 56.6586 28.9044 56.5813 28.7896C56.1541 28.277 56.268 27.7893 56.6953 27.3407C58.5144 25.4289 60.8356 24.7632 63.5626 24.6528Z" fill="white"/>
</g>
<defs>
<clipPath id="clip0">
<rect width="38.6052" height="38" fill="white" transform="translate(44 11)"/>
</clipPath>
</defs>
</svg>
