<svg width="80" height="80" viewBox="0 0 80 80" fill="none" xmlns="http://www.w3.org/2000/svg">
<path d="M12.92 63.0302C12.5533 63.0302 12.1833 63.0169 11.81 62.9902C11.4367 62.9702 11.11 62.9235 10.83 62.8502V56.1202C10.9767 56.0935 11.1333 56.0702 11.3 56.0502C11.4667 56.0235 11.6367 56.0035 11.81 55.9902C11.9833 55.9769 12.1533 55.9669 12.32 55.9602C12.4933 55.9535 12.6567 55.9502 12.81 55.9502C13.23 55.9502 13.62 55.9835 13.98 56.0502C14.34 56.1102 14.65 56.2135 14.91 56.3602C15.1767 56.5069 15.3833 56.7002 15.53 56.9402C15.6767 57.1802 15.75 57.4769 15.75 57.8302C15.75 58.1569 15.67 58.4369 15.51 58.6702C15.3567 58.9035 15.14 59.0902 14.86 59.2302C15.28 59.3702 15.59 59.5769 15.79 59.8502C15.99 60.1235 16.09 60.4702 16.09 60.8902C16.09 61.6035 15.83 62.1402 15.31 62.5002C14.79 62.8535 13.9933 63.0302 12.92 63.0302ZM12.07 59.8302V61.9402C12.21 61.9535 12.36 61.9635 12.52 61.9702C12.68 61.9769 12.8267 61.9802 12.96 61.9802C13.22 61.9802 13.46 61.9635 13.68 61.9302C13.9067 61.8969 14.1 61.8402 14.26 61.7602C14.4267 61.6735 14.5567 61.5602 14.65 61.4202C14.75 61.2802 14.8 61.1002 14.8 60.8802C14.8 60.4869 14.6567 60.2135 14.37 60.0602C14.0833 59.9069 13.6867 59.8302 13.18 59.8302H12.07ZM12.07 58.8402H12.96C13.44 58.8402 13.8167 58.7735 14.09 58.6402C14.3633 58.5002 14.5 58.2535 14.5 57.9002C14.5 57.5669 14.3567 57.3302 14.07 57.1902C13.79 57.0502 13.4233 56.9802 12.97 56.9802C12.7767 56.9802 12.6033 56.9835 12.45 56.9902C12.3033 56.9969 12.1767 57.0069 12.07 57.0202V58.8402ZM19.1823 62.1002C19.5556 62.1002 19.8389 62.0802 20.0323 62.0402V60.7002C19.9656 60.6802 19.8689 60.6602 19.7423 60.6402C19.6156 60.6202 19.4756 60.6102 19.3223 60.6102C19.1889 60.6102 19.0523 60.6202 18.9123 60.6402C18.7789 60.6602 18.6556 60.6969 18.5423 60.7502C18.4356 60.8035 18.3489 60.8802 18.2823 60.9802C18.2156 61.0735 18.1823 61.1935 18.1823 61.3402C18.1823 61.6269 18.2723 61.8269 18.4523 61.9402C18.6323 62.0469 18.8756 62.1002 19.1823 62.1002ZM19.0823 57.5902C19.4823 57.5902 19.8189 57.6402 20.0923 57.7402C20.3656 57.8402 20.5823 57.9802 20.7423 58.1602C20.9089 58.3402 21.0256 58.5602 21.0923 58.8202C21.1656 59.0735 21.2023 59.3535 21.2023 59.6602V62.8302C21.0156 62.8702 20.7323 62.9169 20.3523 62.9702C19.9789 63.0302 19.5556 63.0602 19.0823 63.0602C18.7689 63.0602 18.4823 63.0302 18.2223 62.9702C17.9623 62.9102 17.7389 62.8135 17.5523 62.6802C17.3723 62.5469 17.2289 62.3735 17.1223 62.1602C17.0223 61.9469 16.9723 61.6835 16.9723 61.3702C16.9723 61.0702 17.0289 60.8169 17.1423 60.6102C17.2623 60.4035 17.4223 60.2369 17.6223 60.1102C17.8223 59.9769 18.0523 59.8835 18.3123 59.8302C18.5789 59.7702 18.8556 59.7402 19.1423 59.7402C19.2756 59.7402 19.4156 59.7502 19.5623 59.7702C19.7089 59.7835 19.8656 59.8102 20.0323 59.8502V59.6502C20.0323 59.5102 20.0156 59.3769 19.9823 59.2502C19.9489 59.1235 19.8889 59.0135 19.8023 58.9202C19.7223 58.8202 19.6123 58.7435 19.4723 58.6902C19.3389 58.6369 19.1689 58.6102 18.9623 58.6102C18.6823 58.6102 18.4256 58.6302 18.1923 58.6702C17.9589 58.7102 17.7689 58.7569 17.6223 58.8102L17.4723 57.8302C17.6256 57.7769 17.8489 57.7235 18.1423 57.6702C18.4356 57.6169 18.7489 57.5902 19.0823 57.5902ZM23.8941 59.7602C24.0474 59.6002 24.2107 59.4302 24.3841 59.2502C24.5574 59.0635 24.7274 58.8802 24.8941 58.7002C25.0607 58.5135 25.2174 58.3369 25.3641 58.1702C25.5174 57.9969 25.6474 57.8469 25.7541 57.7202H27.1841C26.8507 58.0935 26.4974 58.4802 26.1241 58.8802C25.7574 59.2802 25.3874 59.6702 25.0141 60.0502C25.2141 60.2169 25.4241 60.4202 25.6441 60.6602C25.8641 60.8935 26.0774 61.1435 26.2841 61.4102C26.4907 61.6769 26.6841 61.9435 26.8641 62.2102C27.0441 62.4769 27.1941 62.7235 27.3141 62.9502H25.9141C25.7941 62.7435 25.6541 62.5269 25.4941 62.3002C25.3407 62.0735 25.1741 61.8535 24.9941 61.6402C24.8141 61.4269 24.6307 61.2269 24.4441 61.0402C24.2574 60.8469 24.0741 60.6835 23.8941 60.5502V62.9502H22.6841V55.3902L23.8941 55.1902V59.7602ZM27.6675 60.3602C27.6675 59.9002 27.7342 59.4969 27.8675 59.1502C28.0075 58.8035 28.1908 58.5169 28.4175 58.2902C28.6442 58.0569 28.9042 57.8835 29.1975 57.7702C29.4908 57.6502 29.7908 57.5902 30.0975 57.5902C30.8175 57.5902 31.3775 57.8135 31.7775 58.2602C32.1842 58.7069 32.3875 59.3735 32.3875 60.2602C32.3875 60.3269 32.3842 60.4035 32.3775 60.4902C32.3775 60.5702 32.3742 60.6435 32.3675 60.7102H28.9175C28.9508 61.1302 29.0975 61.4569 29.3575 61.6902C29.6242 61.9169 30.0075 62.0302 30.5075 62.0302C30.8008 62.0302 31.0675 62.0035 31.3075 61.9502C31.5542 61.8969 31.7475 61.8402 31.8875 61.7802L32.0475 62.7702C31.9808 62.8035 31.8875 62.8402 31.7675 62.8802C31.6542 62.9135 31.5208 62.9435 31.3675 62.9702C31.2208 63.0035 31.0608 63.0302 30.8875 63.0502C30.7142 63.0702 30.5375 63.0802 30.3575 63.0802C29.8975 63.0802 29.4975 63.0135 29.1575 62.8802C28.8175 62.7402 28.5375 62.5502 28.3175 62.3102C28.0975 62.0635 27.9342 61.7769 27.8275 61.4502C27.7208 61.1169 27.6675 60.7535 27.6675 60.3602ZM31.1775 59.8202C31.1775 59.6535 31.1542 59.4969 31.1075 59.3502C31.0608 59.1969 30.9908 59.0669 30.8975 58.9602C30.8108 58.8469 30.7008 58.7602 30.5675 58.7002C30.4408 58.6335 30.2875 58.6002 30.1075 58.6002C29.9208 58.6002 29.7575 58.6369 29.6175 58.7102C29.4775 58.7769 29.3575 58.8669 29.2575 58.9802C29.1642 59.0935 29.0908 59.2235 29.0375 59.3702C28.9842 59.5169 28.9475 59.6669 28.9275 59.8202H31.1775ZM36.6504 58.8102C36.5504 58.7769 36.4104 58.7435 36.2304 58.7102C36.0571 58.6702 35.8537 58.6502 35.6204 58.6502C35.4871 58.6502 35.3437 58.6635 35.1904 58.6902C35.0437 58.7169 34.9404 58.7402 34.8804 58.7602V62.9502H33.6704V57.9702C33.9037 57.8835 34.1937 57.8035 34.5404 57.7302C34.8937 57.6502 35.2837 57.6102 35.7104 57.6102C35.7904 57.6102 35.8837 57.6169 35.9904 57.6302C36.0971 57.6369 36.2037 57.6502 36.3104 57.6702C36.4171 57.6835 36.5204 57.7035 36.6204 57.7302C36.7204 57.7502 36.8004 57.7702 36.8604 57.7902L36.6504 58.8102ZM42.1494 57.7202C41.6094 59.7069 40.9827 61.5069 40.2694 63.1202C40.136 63.4202 39.9994 63.6769 39.8594 63.8902C39.7194 64.1035 39.5627 64.2802 39.3894 64.4202C39.216 64.5602 39.0227 64.6602 38.8094 64.7202C38.596 64.7869 38.3494 64.8202 38.0694 64.8202C37.8827 64.8202 37.696 64.8002 37.5094 64.7602C37.3294 64.7202 37.1927 64.6769 37.0994 64.6302L37.3194 63.6602C37.5594 63.7535 37.796 63.8002 38.0294 63.8002C38.3427 63.8002 38.586 63.7235 38.7594 63.5702C38.9394 63.4235 39.096 63.1935 39.2294 62.8802C38.8494 62.1469 38.4827 61.3469 38.1294 60.4802C37.7827 59.6135 37.4727 58.6935 37.1994 57.7202H38.4894C38.556 58.0002 38.636 58.3035 38.7294 58.6302C38.8294 58.9569 38.936 59.2902 39.0494 59.6302C39.1627 59.9635 39.2827 60.2969 39.4094 60.6302C39.536 60.9635 39.6627 61.2735 39.7894 61.5602C40.0027 60.9669 40.2027 60.3369 40.3894 59.6702C40.576 58.9969 40.746 58.3469 40.8994 57.7202H42.1494ZM47.1389 62.0102C47.5922 62.0102 47.9222 61.9335 48.1289 61.7802C48.3356 61.6269 48.4389 61.4102 48.4389 61.1302C48.4389 60.9635 48.4022 60.8202 48.3289 60.7002C48.2622 60.5802 48.1622 60.4735 48.0289 60.3802C47.9022 60.2802 47.7456 60.1902 47.5589 60.1102C47.3722 60.0235 47.1589 59.9402 46.9189 59.8602C46.6789 59.7735 46.4456 59.6802 46.2189 59.5802C45.9989 59.4735 45.8022 59.3435 45.6289 59.1902C45.4622 59.0369 45.3256 58.8535 45.2189 58.6402C45.1189 58.4269 45.0689 58.1702 45.0689 57.8702C45.0689 57.2435 45.2856 56.7535 45.7189 56.4002C46.1522 56.0402 46.7422 55.8602 47.4889 55.8602C47.9222 55.8602 48.3056 55.9102 48.6389 56.0102C48.9789 56.1035 49.2456 56.2069 49.4389 56.3202L49.0489 57.3402C48.8222 57.2135 48.5722 57.1169 48.2989 57.0502C48.0322 56.9835 47.7556 56.9502 47.4689 56.9502C47.1289 56.9502 46.8622 57.0202 46.6689 57.1602C46.4822 57.3002 46.3889 57.4969 46.3889 57.7502C46.3889 57.9035 46.4189 58.0369 46.4789 58.1502C46.5456 58.2569 46.6356 58.3535 46.7489 58.4402C46.8689 58.5269 47.0056 58.6069 47.1589 58.6802C47.3189 58.7535 47.4922 58.8235 47.6789 58.8902C48.0056 59.0102 48.2956 59.1335 48.5489 59.2602C48.8089 59.3802 49.0256 59.5269 49.1989 59.7002C49.3789 59.8669 49.5156 60.0669 49.6089 60.3002C49.7022 60.5269 49.7489 60.8035 49.7489 61.1302C49.7489 61.7569 49.5256 62.2435 49.0789 62.5902C48.6389 62.9302 47.9922 63.1002 47.1389 63.1002C46.8522 63.1002 46.5889 63.0802 46.3489 63.0402C46.1156 63.0069 45.9056 62.9635 45.7189 62.9102C45.5389 62.8569 45.3822 62.8035 45.2489 62.7502C45.1156 62.6902 45.0089 62.6369 44.9289 62.5902L45.2989 61.5602C45.4789 61.6602 45.7222 61.7602 46.0289 61.8602C46.3356 61.9602 46.7056 62.0102 47.1389 62.0102ZM53.9193 59.6602C53.766 60.2469 53.5993 60.8202 53.4193 61.3802C53.246 61.9335 53.0726 62.4569 52.8993 62.9502H51.9093C51.776 62.6435 51.636 62.2935 51.4893 61.9002C51.3426 61.5069 51.196 61.0869 51.0493 60.6402C50.9026 60.1935 50.756 59.7235 50.6093 59.2302C50.4626 58.7369 50.3193 58.2335 50.1793 57.7202H51.4593C51.5193 58.0002 51.5893 58.3035 51.6693 58.6302C51.7493 58.9502 51.8326 59.2802 51.9193 59.6202C52.006 59.9535 52.096 60.2802 52.1893 60.6002C52.2826 60.9202 52.376 61.2135 52.4693 61.4802C52.5693 61.1735 52.666 60.8569 52.7593 60.5302C52.8593 60.2035 52.9526 59.8769 53.0393 59.5502C53.126 59.2235 53.206 58.9069 53.2793 58.6002C53.3593 58.2869 53.4293 57.9935 53.4893 57.7202H54.4193C54.4793 57.9935 54.546 58.2869 54.6193 58.6002C54.6926 58.9069 54.7693 59.2235 54.8493 59.5502C54.936 59.8769 55.026 60.2035 55.1193 60.5302C55.2193 60.8569 55.3193 61.1735 55.4193 61.4802C55.506 61.2135 55.596 60.9202 55.6893 60.6002C55.7826 60.2802 55.8726 59.9535 55.9593 59.6202C56.0526 59.2802 56.1393 58.9502 56.2193 58.6302C56.2993 58.3035 56.3693 58.0002 56.4293 57.7202H57.6793C57.5393 58.2335 57.396 58.7369 57.2493 59.2302C57.1026 59.7235 56.956 60.1935 56.8093 60.6402C56.6626 61.0869 56.516 61.5069 56.3693 61.9002C56.2226 62.2935 56.0793 62.6435 55.9393 62.9502H54.9593C54.786 62.4569 54.606 61.9335 54.4193 61.3802C54.2393 60.8202 54.0726 60.2469 53.9193 59.6602ZM60.442 62.1002C60.8154 62.1002 61.0987 62.0802 61.292 62.0402V60.7002C61.2254 60.6802 61.1287 60.6602 61.002 60.6402C60.8754 60.6202 60.7354 60.6102 60.582 60.6102C60.4487 60.6102 60.312 60.6202 60.172 60.6402C60.0387 60.6602 59.9154 60.6969 59.802 60.7502C59.6954 60.8035 59.6087 60.8802 59.542 60.9802C59.4754 61.0735 59.442 61.1935 59.442 61.3402C59.442 61.6269 59.532 61.8269 59.712 61.9402C59.892 62.0469 60.1354 62.1002 60.442 62.1002ZM60.342 57.5902C60.742 57.5902 61.0787 57.6402 61.352 57.7402C61.6254 57.8402 61.842 57.9802 62.002 58.1602C62.1687 58.3402 62.2854 58.5602 62.352 58.8202C62.4254 59.0735 62.462 59.3535 62.462 59.6602V62.8302C62.2754 62.8702 61.992 62.9169 61.612 62.9702C61.2387 63.0302 60.8154 63.0602 60.342 63.0602C60.0287 63.0602 59.742 63.0302 59.482 62.9702C59.222 62.9102 58.9987 62.8135 58.812 62.6802C58.632 62.5469 58.4887 62.3735 58.382 62.1602C58.282 61.9469 58.232 61.6835 58.232 61.3702C58.232 61.0702 58.2887 60.8169 58.402 60.6102C58.522 60.4035 58.682 60.2369 58.882 60.1102C59.082 59.9769 59.312 59.8835 59.572 59.8302C59.8387 59.7702 60.1154 59.7402 60.402 59.7402C60.5354 59.7402 60.6754 59.7502 60.822 59.7702C60.9687 59.7835 61.1254 59.8102 61.292 59.8502V59.6502C61.292 59.5102 61.2754 59.3769 61.242 59.2502C61.2087 59.1235 61.1487 59.0135 61.062 58.9202C60.982 58.8202 60.872 58.7435 60.732 58.6902C60.5987 58.6369 60.4287 58.6102 60.222 58.6102C59.942 58.6102 59.6854 58.6302 59.452 58.6702C59.2187 58.7102 59.0287 58.7569 58.882 58.8102L58.732 57.8302C58.8854 57.7769 59.1087 57.7235 59.402 57.6702C59.6954 57.6169 60.0087 57.5902 60.342 57.5902ZM67.4138 60.3602C67.4138 59.8202 67.2905 59.4002 67.0438 59.1002C66.8038 58.8002 66.4138 58.6502 65.8738 58.6502C65.7605 58.6502 65.6405 58.6569 65.5138 58.6702C65.3938 58.6769 65.2738 58.6969 65.1538 58.7302V61.7202C65.2605 61.7935 65.4005 61.8635 65.5738 61.9302C65.7538 61.9902 65.9438 62.0202 66.1438 62.0202C66.5838 62.0202 66.9038 61.8702 67.1038 61.5702C67.3105 61.2702 67.4138 60.8669 67.4138 60.3602ZM68.6538 60.3402C68.6538 60.7402 68.6005 61.1069 68.4938 61.4402C68.3938 61.7735 68.2472 62.0602 68.0538 62.3002C67.8605 62.5402 67.6172 62.7269 67.3238 62.8602C67.0372 62.9935 66.7105 63.0602 66.3438 63.0602C66.0972 63.0602 65.8705 63.0302 65.6638 62.9702C65.4572 62.9102 65.2872 62.8435 65.1538 62.7702V64.8002H63.9438V57.8902C64.1905 57.8235 64.4938 57.7602 64.8538 57.7002C65.2138 57.6402 65.5938 57.6102 65.9938 57.6102C66.4072 57.6102 66.7772 57.6735 67.1038 57.8002C67.4305 57.9269 67.7072 58.1102 67.9338 58.3502C68.1672 58.5835 68.3438 58.8702 68.4638 59.2102C68.5905 59.5435 68.6538 59.9202 68.6538 60.3402Z" fill="white"/>
<path d="M48.1433 33.2716C48.397 33.2083 48.6546 33.3609 48.717 33.6065L49.1309 35.236C49.1933 35.4779 49.0372 35.7271 48.7834 35.7866C48.5297 35.8499 48.2721 35.6974 48.2096 35.4519L47.7958 33.8223C47.7333 33.5804 47.8894 33.3311 48.1433 33.2716ZM35.3193 21.355C35.1749 21.1392 35.2413 20.8602 35.452 20.7225L36.9121 19.8036C37.1346 19.6659 37.4273 19.7292 37.5718 19.9338C37.7162 20.1496 37.6498 20.4286 37.4391 20.5663L35.9791 21.4852C35.7604 21.6266 35.4677 21.5633 35.3193 21.355Z" fill="white"/>
<path fill-rule="evenodd" clip-rule="evenodd" d="M42.5473 26.4579C40.8177 26.0845 38.9616 26.3914 37.4404 27.3796C39.7301 26.6446 42.3636 27.1538 44.1857 28.9186C46.7512 31.4031 46.7512 35.4494 44.1857 37.9339C43.878 38.2325 43.5424 38.4966 43.1867 38.7225C44.1258 38.4124 45.0129 37.9071 45.7602 37.1836C47.5743 35.4267 48.1056 32.8888 47.354 30.6745C45.2612 29.8837 43.5477 28.3715 42.5473 26.4579Z" fill="white"/>
<path d="M53.1563 41.1613C49.1817 48.4215 40.0641 51.0738 32.8045 47.1126C25.5424 43.1499 22.8652 34.0458 26.8421 26.7814C29.4588 22.0017 34.3044 19.2159 39.3821 19.0016C40.0559 18.9732 40.5779 19.324 40.9407 19.9462C41.3122 20.5834 41.4778 21.4584 41.3892 22.286C41.3549 22.6065 41.3374 22.9318 41.3374 23.2609C41.3374 24.8057 41.7236 26.2614 42.4056 27.5389C39.2485 26.3607 35.6155 27.6529 33.9568 30.6795C32.1395 33.9957 33.3624 38.1737 36.6943 39.9935C40.0305 41.8154 44.2227 40.5821 46.0415 37.2635C47.0593 35.4022 47.1219 33.2684 46.3912 31.4332C47.661 32.0772 49.1005 32.4405 50.6259 32.4405C51.481 32.4405 52.31 32.3262 53.0978 32.1118C53.5479 31.9892 54.0304 32.0417 54.391 32.2242C54.7396 32.4006 54.947 32.6778 54.9697 33.0356C55.1438 35.7682 54.5705 38.5805 53.1563 41.1613Z" fill="white" stroke="white" stroke-width="0.237747"/>
<path d="M49.2524 37.9104L49.8171 37.7209C49.8171 37.721 49.8171 37.721 49.8171 37.7211C50.2156 38.8049 49.6995 39.7485 49.3197 40.4432C49.3079 40.4647 49.2963 40.4858 49.2849 40.5068C49.0546 40.929 48.871 41.2726 48.7874 41.616C48.6562 42.1583 48.6759 42.663 48.8371 43.0437C48.9879 43.4 49.2734 43.6815 49.7864 43.8114C50.128 43.8961 50.6522 43.7718 51.3419 43.365C53.9976 40.3614 55.2085 36.5784 54.9735 32.8634C54.9511 32.5111 54.7409 32.2373 54.3867 32.0623C54.0205 31.8813 53.5296 31.8275 53.0705 31.9458C52.2806 32.1496 51.4503 32.2582 50.5943 32.2582C49.0165 32.2582 47.5286 31.8898 46.2201 31.2381C46.986 33.0497 46.9072 35.1118 45.9674 36.8658C45.8147 37.151 45.6391 37.428 45.4408 37.6946C45.8365 37.5776 46.3347 37.3556 46.9498 36.9874C47.8732 36.4365 48.9135 36.9836 49.2524 37.9104ZM49.2524 37.9104C49.564 38.7578 49.1593 39.4999 48.7541 40.2426C48.5312 40.6514 48.3081 41.0604 48.2044 41.4872L49.2524 37.9104ZM38.476 27.112L38.4512 27.1163L38.4269 27.1225C36.9233 27.5041 35.7147 27.3209 34.7897 26.8502C33.8555 26.3751 33.164 25.5829 32.752 24.679C32.3385 23.7718 32.2215 22.7842 32.4001 21.9511C32.5767 21.1274 33.0295 20.491 33.7347 20.1677C35.603 19.4048 37.5956 19.0154 39.5901 19C40.1568 18.9957 40.606 19.2945 40.9126 19.8198C41.2263 20.3572 41.3524 21.0843 41.2395 21.7598C41.1604 22.2337 41.1186 22.7189 41.1186 23.2064C41.1186 24.7438 41.5198 26.1917 42.2276 27.4597C41.0292 27.0156 39.7299 26.8996 38.476 27.112Z" fill="white" stroke="white" stroke-width="0.237747"/>
<path d="M28.2913 31.418C28.8975 31.418 29.3888 31.091 29.3888 30.6875C29.3888 30.2841 28.8975 29.957 28.2913 29.957C27.6851 29.957 27.1937 30.2841 27.1937 30.6875C27.1937 31.091 27.6851 31.418 28.2913 31.418Z" fill="white"/>
<path d="M40.0005 44.5672C40.6067 44.5672 41.0981 44.2401 41.0981 43.8367C41.0981 43.4333 40.6067 43.1062 40.0005 43.1062C39.3943 43.1062 38.903 43.4333 38.903 43.8367C38.903 44.2401 39.3943 44.5672 40.0005 44.5672Z" fill="white"/>
<path d="M35.6084 46.7581C36.2146 46.7581 36.706 46.104 36.706 45.2972C36.706 44.4903 36.2146 43.8362 35.6084 43.8362C35.0023 43.8362 34.5109 44.4903 34.5109 45.2972C34.5109 46.104 35.0023 46.7581 35.6084 46.7581Z" fill="white"/>
</svg>
