<svg width="250" height="60" viewBox="0 0 250 60" fill="none" xmlns="http://www.w3.org/2000/svg">
<path d="M89.4413 37.2629C88.6595 37.2629 87.8705 37.2344 87.0745 37.1776C86.2784 37.1349 85.5819 37.0354 84.9849 36.8791V22.5289C85.2976 22.472 85.6317 22.4223 85.987 22.3796C86.3424 22.3228 86.7049 22.2801 87.0745 22.2517C87.4441 22.2233 87.8066 22.2019 88.162 22.1877C88.5315 22.1735 88.8798 22.1664 89.2068 22.1664C90.1023 22.1664 90.9339 22.2375 91.7015 22.3796C92.4691 22.5076 93.1301 22.7279 93.6845 23.0406C94.2531 23.3534 94.6938 23.7656 95.0065 24.2773C95.3193 24.7891 95.4756 25.4217 95.4756 26.1751C95.4756 26.8716 95.3051 27.4686 94.9639 27.9662C94.6369 28.4637 94.175 28.8617 93.5779 29.1602C94.4735 29.4588 95.1345 29.8994 95.5609 30.4822C95.9874 31.0651 96.2006 31.8043 96.2006 32.6998C96.2006 34.2208 95.6462 35.3651 94.5374 36.1328C93.4287 36.8862 91.73 37.2629 89.4413 37.2629ZM87.6289 30.4396V34.9387C87.9274 34.9671 88.2472 34.9884 88.5884 35.0027C88.9296 35.0169 89.2423 35.024 89.5266 35.024C90.081 35.024 90.5927 34.9884 91.0618 34.9174C91.5452 34.8463 91.9574 34.7255 92.2986 34.5549C92.6539 34.3701 92.9311 34.1284 93.1301 33.8299C93.3434 33.5314 93.45 33.1476 93.45 32.6785C93.45 31.8398 93.1444 31.257 92.5331 30.93C91.9219 30.6031 91.0761 30.4396 89.9957 30.4396H87.6289ZM87.6289 28.3287H89.5266C90.5501 28.3287 91.3533 28.1865 91.9361 27.9022C92.5189 27.6037 92.8103 27.0777 92.8103 26.3243C92.8103 25.6136 92.5047 25.1089 91.8934 24.8104C91.2964 24.5119 90.5146 24.3626 89.5479 24.3626C89.1357 24.3626 88.7661 24.3697 88.4391 24.384C88.1264 24.3982 87.8563 24.4195 87.6289 24.4479V28.3287ZM102.794 35.2799C103.59 35.2799 104.194 35.2372 104.607 35.1519V32.2947C104.464 32.252 104.258 32.2094 103.988 32.1667C103.718 32.1241 103.42 32.1028 103.093 32.1028C102.808 32.1028 102.517 32.1241 102.218 32.1667C101.934 32.2094 101.671 32.2876 101.43 32.4013C101.202 32.515 101.017 32.6785 100.875 32.8917C100.733 33.0907 100.662 33.3466 100.662 33.6593C100.662 34.2706 100.854 34.697 101.238 34.9387C101.621 35.1661 102.14 35.2799 102.794 35.2799ZM102.581 25.6633C103.434 25.6633 104.152 25.7699 104.735 25.9832C105.317 26.1964 105.779 26.4949 106.12 26.8787C106.476 27.2625 106.725 27.7316 106.867 28.286C107.023 28.8262 107.101 29.4232 107.101 30.0771V36.8364C106.703 36.9217 106.099 37.0212 105.289 37.1349C104.493 37.2629 103.59 37.3268 102.581 37.3268C101.913 37.3268 101.302 37.2629 100.747 37.1349C100.193 37.007 99.7166 36.8009 99.3186 36.5166C98.9347 36.2323 98.6291 35.8627 98.4017 35.4078C98.1885 34.9529 98.0818 34.3914 98.0818 33.7233C98.0818 33.0836 98.2027 32.5434 98.4443 32.1028C98.7002 31.6621 99.0414 31.3067 99.4678 31.0366C99.8943 30.7523 100.385 30.5533 100.939 30.4396C101.508 30.3117 102.098 30.2477 102.709 30.2477C102.993 30.2477 103.292 30.269 103.604 30.3117C103.917 30.3401 104.251 30.397 104.607 30.4822V30.0558C104.607 29.7573 104.571 29.473 104.5 29.2029C104.429 28.9328 104.301 28.6982 104.116 28.4992C103.946 28.286 103.711 28.1225 103.413 28.0088C103.128 27.8951 102.766 27.8382 102.325 27.8382C101.728 27.8382 101.181 27.8809 100.683 27.9662C100.186 28.0515 99.7805 28.151 99.4678 28.2647L99.148 26.1751C99.4749 26.0613 99.9511 25.9476 100.577 25.8339C101.202 25.7202 101.87 25.6633 102.581 25.6633ZM112.841 30.2903C113.168 29.9492 113.516 29.5867 113.886 29.2029C114.255 28.8049 114.618 28.4139 114.973 28.0301C115.329 27.6321 115.663 27.2554 115.975 26.9C116.302 26.5304 116.58 26.2106 116.807 25.9405H119.856C119.145 26.7366 118.392 27.561 117.596 28.4139C116.814 29.2669 116.025 30.0984 115.229 30.9087C115.656 31.2641 116.103 31.6976 116.572 32.2094C117.042 32.7069 117.496 33.24 117.937 33.8086C118.378 34.3772 118.79 34.9458 119.174 35.5144C119.558 36.083 119.877 36.609 120.133 37.0923H117.148C116.892 36.6516 116.594 36.1896 116.253 35.7063C115.926 35.223 115.57 34.7539 115.186 34.299C114.803 33.8441 114.412 33.4177 114.014 33.0196C113.616 32.6074 113.225 32.2591 112.841 31.9748V37.0923H110.261V20.9723L112.841 20.5459V30.2903ZM120.887 31.5697C120.887 30.5889 121.029 29.7288 121.313 28.9897C121.612 28.2505 122.003 27.6392 122.486 27.1559C122.969 26.6584 123.524 26.2888 124.149 26.0471C124.775 25.7913 125.414 25.6633 126.068 25.6633C127.604 25.6633 128.798 26.1395 129.651 27.0919C130.518 28.0444 130.951 29.4659 130.951 31.3565C130.951 31.4986 130.944 31.6621 130.93 31.8469C130.93 32.0175 130.923 32.1738 130.909 32.316H123.552C123.623 33.2116 123.936 33.9081 124.49 34.4056C125.059 34.8889 125.876 35.1306 126.943 35.1306C127.568 35.1306 128.137 35.0737 128.648 34.96C129.174 34.8463 129.587 34.7255 129.885 34.5975L130.226 36.7085C130.084 36.7796 129.885 36.8577 129.629 36.943C129.388 37.0141 129.103 37.0781 128.776 37.1349C128.464 37.206 128.122 37.2629 127.753 37.3055C127.383 37.3482 127.007 37.3695 126.623 37.3695C125.642 37.3695 124.789 37.2273 124.064 36.943C123.339 36.6445 122.742 36.2394 122.273 35.7276C121.804 35.2017 121.456 34.5904 121.228 33.8939C121.001 33.1831 120.887 32.4084 120.887 31.5697ZM128.371 30.4183C128.371 30.0629 128.321 29.7288 128.222 29.4161C128.122 29.0892 127.973 28.812 127.774 28.5845C127.589 28.3429 127.355 28.1581 127.071 28.0301C126.8 27.888 126.474 27.8169 126.09 27.8169C125.692 27.8169 125.343 27.8951 125.045 28.0515C124.746 28.1936 124.49 28.3855 124.277 28.6272C124.078 28.8688 123.922 29.146 123.808 29.4588C123.694 29.7715 123.616 30.0913 123.574 30.4183H128.371ZM140.041 28.2647C139.828 28.1936 139.529 28.1225 139.145 28.0515C138.776 27.9662 138.342 27.9235 137.845 27.9235C137.56 27.9235 137.255 27.952 136.928 28.0088C136.615 28.0657 136.395 28.1154 136.267 28.1581V37.0923H133.687V26.4736C134.184 26.2888 134.803 26.1182 135.542 25.9618C136.295 25.7913 137.127 25.706 138.037 25.706C138.207 25.706 138.406 25.7202 138.634 25.7486C138.861 25.7628 139.088 25.7913 139.316 25.8339C139.543 25.8623 139.764 25.905 139.977 25.9618C140.19 26.0045 140.361 26.0471 140.489 26.0898L140.041 28.2647ZM151.766 25.9405C150.615 30.1766 149.279 34.0147 147.758 37.4548C147.473 38.0945 147.182 38.6417 146.883 39.0966C146.585 39.5515 146.251 39.9282 145.881 40.2267C145.512 40.5252 145.099 40.7385 144.644 40.8664C144.19 41.0086 143.664 41.0796 143.067 41.0796C142.669 41.0796 142.271 41.037 141.872 40.9517C141.489 40.8664 141.197 40.774 140.998 40.6745L141.467 38.6062C141.979 38.8052 142.484 38.9047 142.981 38.9047C143.649 38.9047 144.168 38.7412 144.538 38.4143C144.922 38.1016 145.256 37.6111 145.54 36.943C144.73 35.3794 143.948 33.6735 143.194 31.8256C142.455 29.9776 141.794 28.0159 141.211 25.9405H143.962C144.104 26.5375 144.275 27.1843 144.474 27.8809C144.687 28.5774 144.915 29.2882 145.156 30.0131C145.398 30.7239 145.654 31.4347 145.924 32.1454C146.194 32.8562 146.464 33.5172 146.734 34.1284C147.189 32.8633 147.615 31.52 148.013 30.0984C148.411 28.6627 148.774 27.2767 149.101 25.9405H151.766ZM162.405 35.088C163.372 35.088 164.076 34.9245 164.516 34.5975C164.957 34.2706 165.177 33.8086 165.177 33.2116C165.177 32.8562 165.099 32.5506 164.943 32.2947C164.8 32.0388 164.587 31.8114 164.303 31.6124C164.033 31.3991 163.699 31.2072 163.301 31.0366C162.903 30.8518 162.448 30.6742 161.936 30.5036C161.424 30.3188 160.927 30.1198 160.444 29.9065C159.974 29.6791 159.555 29.4019 159.186 29.075C158.83 28.748 158.539 28.3571 158.311 27.9022C158.098 27.4473 157.991 26.9 157.991 26.2604C157.991 24.9241 158.453 23.8793 159.377 23.1259C160.301 22.3583 161.559 21.9745 163.152 21.9745C164.076 21.9745 164.893 22.0811 165.604 22.2943C166.329 22.4933 166.897 22.7137 167.309 22.9553L166.478 25.1303C165.995 24.8602 165.462 24.654 164.879 24.5119C164.31 24.3697 163.72 24.2987 163.109 24.2987C162.384 24.2987 161.815 24.4479 161.403 24.7464C161.005 25.045 160.806 25.4643 160.806 26.0045C160.806 26.3314 160.87 26.6157 160.998 26.8574C161.14 27.0848 161.332 27.291 161.574 27.4757C161.83 27.6605 162.121 27.8311 162.448 27.9875C162.789 28.1439 163.159 28.2931 163.557 28.4353C164.253 28.6911 164.872 28.9541 165.412 29.2242C165.966 29.4801 166.428 29.7928 166.798 30.1624C167.182 30.5178 167.473 30.9442 167.672 31.4418C167.871 31.9251 167.97 32.515 167.97 33.2116C167.97 34.5478 167.494 35.5855 166.542 36.3247C165.604 37.0496 164.225 37.4121 162.405 37.4121C161.794 37.4121 161.233 37.3695 160.721 37.2842C160.223 37.2131 159.775 37.1207 159.377 37.007C158.994 36.8933 158.66 36.7796 158.375 36.6658C158.091 36.5379 157.864 36.4242 157.693 36.3247L158.482 34.1284C158.866 34.3417 159.385 34.5549 160.038 34.7681C160.692 34.9813 161.481 35.088 162.405 35.088ZM176.863 30.0771C176.536 31.328 176.181 32.5506 175.797 33.7446C175.427 34.9245 175.058 36.0404 174.688 37.0923H172.577C172.293 36.4384 171.994 35.6921 171.681 34.8534C171.369 34.0147 171.056 33.1192 170.743 32.1667C170.431 31.2143 170.118 30.2122 169.805 29.1602C169.492 28.1083 169.187 27.0351 168.888 25.9405H171.617C171.745 26.5375 171.895 27.1843 172.065 27.8809C172.236 28.5632 172.414 29.2669 172.598 29.9918C172.783 30.7026 172.975 31.3991 173.174 32.0815C173.373 32.7638 173.572 33.3892 173.771 33.9578C173.984 33.304 174.19 32.6287 174.389 31.9322C174.603 31.2357 174.802 30.5391 174.986 29.8426C175.171 29.146 175.342 28.4708 175.498 27.8169C175.669 27.1488 175.818 26.5233 175.946 25.9405H177.929C178.057 26.5233 178.199 27.1488 178.355 27.8169C178.512 28.4708 178.675 29.146 178.846 29.8426C179.031 30.5391 179.223 31.2357 179.422 31.9322C179.635 32.6287 179.848 33.304 180.061 33.9578C180.246 33.3892 180.438 32.7638 180.637 32.0815C180.836 31.3991 181.028 30.7026 181.213 29.9918C181.412 29.2669 181.597 28.5632 181.767 27.8809C181.938 27.1843 182.087 26.5375 182.215 25.9405H184.88C184.582 27.0351 184.276 28.1083 183.963 29.1602C183.651 30.2122 183.338 31.2143 183.025 32.1667C182.712 33.1192 182.4 34.0147 182.087 34.8534C181.774 35.6921 181.469 36.4384 181.17 37.0923H179.08C178.711 36.0404 178.327 34.9245 177.929 33.7446C177.545 32.5506 177.19 31.328 176.863 30.0771ZM190.771 35.2799C191.567 35.2799 192.171 35.2372 192.584 35.1519V32.2947C192.441 32.252 192.235 32.2094 191.965 32.1667C191.695 32.1241 191.397 32.1028 191.07 32.1028C190.785 32.1028 190.494 32.1241 190.195 32.1667C189.911 32.2094 189.648 32.2876 189.406 32.4013C189.179 32.515 188.994 32.6785 188.852 32.8917C188.71 33.0907 188.639 33.3466 188.639 33.6593C188.639 34.2706 188.831 34.697 189.215 34.9387C189.598 35.1661 190.117 35.2799 190.771 35.2799ZM190.558 25.6633C191.411 25.6633 192.129 25.7699 192.711 25.9832C193.294 26.1964 193.756 26.4949 194.097 26.8787C194.453 27.2625 194.702 27.7316 194.844 28.286C195 28.8262 195.078 29.4232 195.078 30.0771V36.8364C194.68 36.9217 194.076 37.0212 193.266 37.1349C192.47 37.2629 191.567 37.3268 190.558 37.3268C189.89 37.3268 189.279 37.2629 188.724 37.1349C188.17 37.007 187.694 36.8009 187.295 36.5166C186.912 36.2323 186.606 35.8627 186.379 35.4078C186.165 34.9529 186.059 34.3914 186.059 33.7233C186.059 33.0836 186.18 32.5434 186.421 32.1028C186.677 31.6621 187.018 31.3067 187.445 31.0366C187.871 30.7523 188.362 30.5533 188.916 30.4396C189.485 30.3117 190.075 30.2477 190.686 30.2477C190.97 30.2477 191.269 30.269 191.581 30.3117C191.894 30.3401 192.228 30.397 192.584 30.4822V30.0558C192.584 29.7573 192.548 29.473 192.477 29.2029C192.406 28.9328 192.278 28.6982 192.093 28.4992C191.923 28.286 191.688 28.1225 191.389 28.0088C191.105 27.8951 190.743 27.8382 190.302 27.8382C189.705 27.8382 189.158 27.8809 188.66 27.9662C188.163 28.0515 187.757 28.151 187.445 28.2647L187.125 26.1751C187.452 26.0613 187.928 25.9476 188.554 25.8339C189.179 25.7202 189.847 25.6633 190.558 25.6633ZM205.637 31.5697C205.637 30.4183 205.374 29.5227 204.848 28.883C204.336 28.2434 203.505 27.9235 202.353 27.9235C202.111 27.9235 201.856 27.9377 201.586 27.9662C201.33 27.9804 201.074 28.023 200.818 28.0941V34.4696C201.045 34.626 201.344 34.7752 201.713 34.9174C202.097 35.0453 202.502 35.1093 202.929 35.1093C203.867 35.1093 204.549 34.7894 204.976 34.1498C205.417 33.5101 205.637 32.6501 205.637 31.5697ZM208.281 31.5271C208.281 32.38 208.167 33.1618 207.94 33.8726C207.726 34.5833 207.414 35.1946 207.002 35.7063C206.589 36.2181 206.07 36.6161 205.445 36.9004C204.834 37.1847 204.137 37.3268 203.355 37.3268C202.829 37.3268 202.346 37.2629 201.905 37.1349C201.465 37.007 201.102 36.8648 200.818 36.7085V41.037H198.238V26.303C198.764 26.1608 199.411 26.0258 200.178 25.8979C200.946 25.7699 201.756 25.706 202.609 25.706C203.49 25.706 204.279 25.841 204.976 26.1111C205.672 26.3812 206.262 26.7721 206.746 27.2838C207.243 27.7814 207.62 28.3926 207.876 29.1176C208.146 29.8284 208.281 30.6315 208.281 31.5271Z" fill="white"/>
<path d="M65.3741 29.1442C65.6961 29.0638 66.0231 29.2577 66.1024 29.57L66.6276 31.6416C66.7069 31.9491 66.5087 32.266 66.1866 32.3417C65.8646 32.4221 65.5376 32.2282 65.4584 31.916L64.9331 29.8443C64.8539 29.5368 65.052 29.2199 65.3741 29.1442ZM49.0978 13.9943C48.9146 13.72 48.9988 13.3652 49.2663 13.1902L51.1195 12.022C51.4018 11.8469 51.7734 11.9273 51.9568 12.1875C52.14 12.4618 52.0558 12.8166 51.7883 12.9916L49.9353 14.1599C49.6578 14.3396 49.2862 14.2592 49.0978 13.9943Z" fill="white"/>
<path fill-rule="evenodd" clip-rule="evenodd" d="M58.2721 20.4823C56.0769 20.0075 53.721 20.3977 51.7903 21.6541C54.6965 20.7196 58.0389 21.367 60.3515 23.6106C63.6077 26.7692 63.6077 31.9134 60.3515 35.072C59.961 35.4516 59.535 35.7874 59.0835 36.0746C60.2755 35.6803 61.4014 35.0379 62.3499 34.1181C64.6524 31.8845 65.3267 28.658 64.3728 25.8429C61.7165 24.8375 59.5418 22.9151 58.2721 20.4823Z" fill="white"/>
<path d="M71.7362 39.1743C66.6917 48.4043 55.1194 51.7763 45.9056 46.7403C36.6884 41.7025 33.2905 30.1281 38.338 20.8927C41.6591 14.8161 47.8092 11.2745 54.2538 11.002C55.109 10.9659 55.7716 11.4119 56.2321 12.2029C56.7036 13.0131 56.9137 14.1254 56.8013 15.1775C56.7578 15.5851 56.7356 15.9986 56.7356 16.4171C56.7356 18.381 57.2257 20.2316 58.0913 21.8557C54.0843 20.3579 49.4733 22.0007 47.368 25.8485C45.0615 30.0644 46.6136 35.376 50.8425 37.6896C55.0768 40.0059 60.3976 38.4379 62.706 34.2188C63.9978 31.8526 64.0773 29.1398 63.1499 26.8066C64.7616 27.6254 66.5885 28.0873 68.5246 28.0873C69.6099 28.0873 70.6621 27.9419 71.662 27.6694C72.2332 27.5135 72.8457 27.5803 73.3033 27.8123C73.7457 28.0366 74.0089 28.389 74.0378 28.8438C74.2588 32.3178 73.5312 35.8933 71.7362 39.1743Z" fill="white" stroke="white" stroke-width="0.769859"/>
<path d="M66.7823 35.0413L67.4991 34.8004C67.4991 34.8006 67.4991 34.8006 67.4991 34.8007C68.0047 36.1785 67.3498 37.3782 66.8676 38.2614C66.8527 38.2886 66.838 38.3155 66.8235 38.3422C66.5312 38.879 66.2982 39.3158 66.1921 39.7523C66.0255 40.4418 66.0506 41.0834 66.2552 41.5674C66.4466 42.0204 66.8089 42.3782 67.4601 42.5434C67.8936 42.6511 68.5589 42.4931 69.4343 41.9759C72.8049 38.1573 74.3418 33.3479 74.0435 28.625C74.0152 28.1771 73.7484 27.829 73.2988 27.6065C72.834 27.3763 72.2109 27.308 71.6283 27.4584C70.6257 27.7175 69.5718 27.8556 68.4855 27.8556C66.4829 27.8556 64.5944 27.3872 62.9336 26.5586C63.9057 28.8618 63.8058 31.4834 62.613 33.7133C62.4192 34.0759 62.1963 34.4281 61.9445 34.7669C62.4468 34.6182 63.0791 34.336 63.8598 33.8678C65.0318 33.1675 66.3522 33.8631 66.7823 35.0413ZM66.7823 35.0413C67.1778 36.1187 66.6641 37.0621 66.1499 38.0064C65.8669 38.526 65.5838 39.046 65.4521 39.5886L66.7823 35.0413ZM53.1047 21.3131L53.0733 21.3185L53.0425 21.3264C51.134 21.8114 49.6001 21.5785 48.426 20.9802C47.2404 20.3761 46.3628 19.3691 45.8398 18.2199C45.315 17.0665 45.1665 15.8109 45.3932 14.7519C45.6174 13.7047 46.1921 12.8955 47.087 12.4846C49.4584 11.5147 51.9873 11.0196 54.5188 11.0001C55.238 10.9945 55.8082 11.3744 56.1973 12.0423C56.5954 12.7255 56.7555 13.6498 56.6123 14.5086C56.5118 15.1111 56.4588 15.7279 56.4588 16.3477C56.4588 18.3022 56.968 20.1429 57.8664 21.755C56.3453 21.1904 54.6962 21.043 53.1047 21.3131Z" fill="white" stroke="white" stroke-width="0.769859"/>
<path d="M40.1779 26.7878C40.9473 26.7878 41.571 26.372 41.571 25.8591C41.571 25.3462 40.9473 24.9304 40.1779 24.9304C39.4086 24.9304 38.7849 25.3462 38.7849 25.8591C38.7849 26.372 39.4086 26.7878 40.1779 26.7878Z" fill="white"/>
<path d="M55.0395 43.5041C55.8089 43.5041 56.4325 43.0883 56.4325 42.5754C56.4325 42.0625 55.8089 41.6467 55.0395 41.6467C54.2702 41.6467 53.6465 42.0625 53.6465 42.5754C53.6465 43.0883 54.2702 43.5041 55.0395 43.5041Z" fill="white"/>
<path d="M49.4649 46.2902C50.2343 46.2902 50.858 45.4586 50.858 44.4328C50.858 43.407 50.2343 42.5754 49.4649 42.5754C48.6956 42.5754 48.0719 43.407 48.0719 44.4328C48.0719 45.4586 48.6956 46.2902 49.4649 46.2902Z" fill="white"/>
</svg>
