<svg width="420" height="52" viewBox="0 0 420 52" fill="none" xmlns="http://www.w3.org/2000/svg">
<g clip-path="url(#clip0)">
<path d="M94.8915 16.04C94.8915 15.9874 94.8389 15.9874 94.7863 15.9348C94.7338 15.9348 94.7338 15.8822 94.6812 15.8822C93.84 15.7771 92.9463 15.7771 92.1052 15.8822C92.0526 15.8822 92 15.9348 91.9475 15.9348C91.8949 15.9874 91.8949 15.9874 91.8423 16.04L86.7955 31.5485L82.0115 16.04C82.0115 15.9874 81.9589 15.9348 81.9063 15.9348C81.8538 15.8822 81.8012 15.8822 81.7486 15.8822C81.2755 15.8297 80.8549 15.7771 80.3818 15.7771C79.9086 15.7771 79.4355 15.8297 79.0149 15.8822C78.9623 15.8822 78.9623 15.8822 78.9098 15.9348C78.8572 15.9348 78.8572 15.9874 78.8046 16.04C78.8046 16.0925 78.752 16.0925 78.752 16.1451C78.752 16.1977 78.752 16.2502 78.752 16.2502L80.0138 19.7725L80.7498 22.0331L77.648 31.5485L72.864 16.04C72.864 15.9874 72.8115 15.9348 72.7589 15.9348C72.7063 15.8822 72.6538 15.8822 72.6012 15.8822C72.128 15.8297 71.7075 15.7771 71.2343 15.7771C70.7612 15.7771 70.288 15.8297 69.8675 15.8822C69.8149 15.8822 69.8149 15.8822 69.7623 15.9348C69.7098 15.9348 69.7098 15.9874 69.6572 16.04C69.6572 16.0925 69.6046 16.0925 69.6046 16.1451C69.6046 16.1977 69.6046 16.2502 69.6046 16.2502L70.8663 19.7725L76.0183 35.8068C76.0183 35.8594 76.0709 35.912 76.1235 35.912C76.176 35.9645 76.2286 35.9645 76.2812 35.9645C76.7018 36.0171 77.1223 36.0697 77.5955 36.0697C78.016 36.0697 78.4366 36.0171 78.8572 35.9645C78.9098 35.9645 78.9623 35.912 79.0149 35.912C79.0675 35.8594 79.0675 35.8594 79.12 35.8068L82.2218 26.5542L85.2183 35.8068C85.2183 35.8594 85.2709 35.912 85.3235 35.912C85.376 35.9645 85.4286 35.9645 85.4812 35.9645C85.9018 36.0171 86.3223 36.0697 86.7955 36.0697C87.216 36.0697 87.6366 36.0171 88.0572 35.9645C88.1098 35.9645 88.1623 35.912 88.2149 35.912C88.2675 35.8594 88.2675 35.8594 88.32 35.8068L94.944 16.2502C94.944 16.1977 94.944 16.1977 94.944 16.1451C94.944 16.1451 94.8915 16.0925 94.8915 16.04Z" fill="white"/>
<path d="M105.563 16.0925C105.563 16.04 105.511 15.9874 105.458 15.9874C105.406 15.9348 105.353 15.9348 105.353 15.9348C104.565 15.8297 103.723 15.8297 102.935 15.9348C102.882 15.9348 102.83 15.9874 102.83 15.9874C102.777 16.04 102.777 16.04 102.725 16.0925L95.7852 35.6491C95.7852 35.7017 95.7852 35.7017 95.7852 35.7542C95.7852 35.8068 95.7852 35.8068 95.8377 35.8594C95.8377 35.912 95.8903 35.912 95.9429 35.9645C95.9954 35.9645 95.9954 36.0171 96.048 36.0171C96.8892 36.1222 97.6777 36.1222 98.5189 36.0171C98.5714 36.0171 98.624 35.9645 98.624 35.9645C98.6766 35.912 98.6766 35.912 98.7292 35.8594L100.569 30.392H107.771L109.664 35.8594C109.664 35.912 109.717 35.9645 109.769 35.9645C109.822 36.0171 109.874 36.0171 109.874 36.0171C110.715 36.1222 111.557 36.1222 112.398 36.0171C112.45 36.0171 112.45 36.0171 112.503 35.9645C112.555 35.9645 112.555 35.912 112.608 35.8594C112.608 35.8068 112.661 35.8068 112.661 35.7542C112.661 35.7017 112.661 35.6491 112.661 35.6491L105.563 16.0925ZM106.878 27.8685H101.358L104.091 19.7725L106.878 27.8685Z" fill="white"/>
<path d="M124.226 27.9212C127.17 27.3429 128.642 25.6607 128.642 22.9269V21.4024C128.642 17.7224 126.119 15.9349 120.967 15.9349H115.237C115.184 15.9349 115.079 15.9875 115.026 16.0401C114.974 16.0927 114.921 16.1452 114.921 16.2504V35.8069C114.921 35.8595 114.921 35.9121 114.974 35.9647C115.026 36.0172 115.079 36.0698 115.131 36.0698C115.92 36.1749 116.761 36.1749 117.55 36.0698C117.602 36.0698 117.655 36.0172 117.707 35.9647C117.76 35.9121 117.76 35.8595 117.76 35.8069V28.1841H121.019C122.649 30.1818 124.226 32.7578 125.751 35.8595C125.751 35.9121 125.803 35.9121 125.856 35.9647C125.909 35.9647 125.909 36.0172 125.961 36.0172C126.802 36.1224 127.696 36.1224 128.537 36.0172C128.59 36.0172 128.642 36.0172 128.642 35.9647C128.695 35.9647 128.695 35.9121 128.747 35.8595C128.747 35.8069 128.8 35.7544 128.8 35.7544C128.8 35.7544 128.8 35.6492 128.747 35.6492C127.328 32.4949 125.803 29.9715 124.226 27.9212ZM125.751 21.7704V22.6115C125.751 25.1349 123.911 25.6607 120.967 25.6607H117.865V18.5635H120.967C123.911 18.5109 125.751 19.0892 125.751 21.7704Z" fill="white"/>
<path d="M140.05 15.9349H133.689C133.637 15.9349 133.531 15.9875 133.479 16.0401C133.426 16.0927 133.426 16.1452 133.426 16.2504V35.8069C133.426 35.8595 133.479 35.9647 133.479 36.0172C133.531 36.0698 133.584 36.1224 133.689 36.1224H140.05C142.574 36.1224 144.361 35.7018 145.623 34.9132C147.042 33.9669 147.726 32.4949 147.726 30.4972V21.5601C147.726 17.7224 145.307 15.9349 140.05 15.9349ZM144.834 21.9281V30.0241C144.834 32.8104 142.889 33.3361 140.05 33.3361H136.318V18.5109H140.05C142.994 18.5109 144.834 19.0892 144.834 21.9281Z" fill="white"/>
<path d="M163.234 33.4938H154.981V27.0801H161.867C161.92 27.0801 161.973 27.0801 162.025 27.0275C162.078 26.9749 162.13 26.9224 162.13 26.8698C162.288 26.1864 162.288 25.4504 162.13 24.7669C162.13 24.7144 162.078 24.6618 162.025 24.6092C161.973 24.5567 161.92 24.5567 161.867 24.5567H154.981V18.4584H163.234C163.287 18.4584 163.339 18.4584 163.392 18.4058C163.445 18.3532 163.497 18.3007 163.497 18.2481C163.655 17.5647 163.655 16.8287 163.497 16.1452C163.497 16.0927 163.445 16.0401 163.392 15.9875C163.339 15.9349 163.287 15.9349 163.234 15.9349H152.352C152.299 15.9349 152.194 15.9875 152.142 16.0401C152.089 16.0927 152.089 16.1452 152.089 16.2504V35.8069C152.089 35.8595 152.142 35.9647 152.142 36.0172C152.194 36.0698 152.247 36.1224 152.352 36.1224H163.234C163.287 36.1224 163.339 36.1224 163.392 36.0698C163.445 36.0172 163.497 35.9647 163.497 35.9121C163.655 35.2812 163.655 34.3349 163.497 33.7567C163.497 33.7041 163.445 33.6515 163.392 33.5989C163.339 33.4938 163.287 33.4938 163.234 33.4938Z" fill="white"/>
<path d="M183.79 15.9349C183.369 15.8823 183.001 15.8298 182.581 15.8298C182.16 15.8298 181.739 15.8823 181.371 15.9349C181.319 15.9349 181.266 15.9875 181.214 16.04C181.161 16.0926 181.161 16.1452 181.161 16.1978V31.3383L172.382 16.04C172.382 15.9875 172.329 15.9875 172.277 15.9349C172.224 15.8823 172.224 15.8823 172.171 15.8823C171.278 15.7772 170.331 15.7772 169.438 15.8823C169.385 15.8823 169.333 15.9349 169.28 15.9875C169.227 16.04 169.227 16.0926 169.227 16.1452V35.7018C169.227 35.7543 169.227 35.8069 169.28 35.8595C169.333 35.912 169.385 35.9646 169.438 35.9646C170.226 36.0698 171.067 36.0698 171.856 35.9646C171.909 35.9646 171.961 35.912 172.014 35.8595C172.066 35.8069 172.066 35.7543 172.066 35.7018V20.8766L180.741 35.912C180.741 35.9646 180.793 35.9646 180.846 36.0172C180.898 36.0172 180.898 36.0698 180.951 36.0698C181.424 36.1223 181.897 36.1749 182.37 36.1749C182.843 36.1749 183.317 36.1223 183.79 36.0698C183.842 36.0698 183.895 36.0172 183.947 35.9646C184 35.912 184 35.8595 184 35.8069V16.1978C184 16.1452 184 16.0926 183.947 16.04C183.895 15.9875 183.842 15.9349 183.79 15.9349Z" fill="white"/>
<path d="M46.5256 32.7577C45.2113 37.9097 40.5851 42.2206 34.2765 44.5337V24.872C34.2765 13.8846 40.0068 5 47.3142 5L46.8936 30.1291C46.8936 31.0229 46.7885 31.9166 46.5256 32.7577Z" fill="white"/>
<path d="M0.788571 32.7577C2.10286 37.9097 6.72914 42.2206 13.0377 44.5337V24.872C13.0377 13.8846 7.30743 5 0 5L0.420571 30.1291C0.420571 31.0229 0.525714 31.9166 0.788571 32.7577Z" fill="white"/>
<path d="M23.7623 19.6149C23.7623 19.6149 30.8069 28.4994 30.8069 37.1212C30.8069 44.744 23.7623 47.3726 23.7623 47.3726C23.7623 47.3726 16.7178 44.744 16.7178 37.1212C16.7703 28.4994 23.7623 19.6149 23.7623 19.6149Z" fill="white"/>
</g>
<path d="M240.709 26.5723V28.0803C240.709 31.0963 238.516 33.0157 235.226 33.0157H227V13.5483H234.54C237.83 13.5483 240.024 15.0564 240.024 17.9353V19.1692C240.024 20.6772 239.338 21.9111 238.242 22.5965C239.887 23.4191 240.709 24.9271 240.709 26.5723ZM229.468 15.7418V21.774H234.677C236.459 21.774 237.693 21.0885 237.693 19.1692V18.0724C237.693 16.4273 236.459 15.7418 234.677 15.7418H229.468ZM238.379 26.5723C238.379 24.9271 237.282 23.9675 235.363 23.9675H229.468V30.6851H235.226C237.145 30.6851 238.242 29.7254 238.242 28.0803V26.5723H238.379Z" fill="white"/>
<path d="M255.378 23.8304V26.7094H246.056V27.3948C246.056 29.9996 247.153 31.3705 249.62 31.3705C251.677 31.3705 252.911 30.4109 252.911 28.7658V28.6287H255.241C255.241 31.7818 253.048 33.427 249.62 33.427C245.645 33.427 243.588 31.0964 243.588 27.3948V24.6529C243.588 21.0885 245.645 18.7579 249.483 18.7579C253.185 18.6208 255.378 20.8143 255.378 23.8304ZM253.048 24.6529V23.8304C253.048 21.6369 251.951 20.5401 249.757 20.5401C247.29 20.5401 246.193 21.9111 246.193 24.5159V24.6529H253.048Z" fill="white"/>
<path d="M257.983 28.6287V28.3545H260.314V28.6287C260.314 30.2738 261.548 31.2335 263.741 31.2335C265.386 31.2335 266.757 30.548 266.757 29.3142C266.757 26.0239 258.257 28.0803 258.257 23.0078C258.257 20.4031 260.314 18.7579 263.467 18.7579C266.894 18.7579 268.814 20.5402 268.814 23.282V23.5562H266.483V23.282C266.483 21.774 265.386 20.8143 263.467 20.8143C261.548 20.8143 260.451 21.6369 260.451 22.7337C260.451 25.7497 268.951 23.8304 268.951 29.04C268.951 31.9189 266.483 33.2899 263.467 33.2899C260.04 33.2899 257.983 31.3706 257.983 28.6287Z" fill="white"/>
<path d="M278.959 30.6852V32.8787H277.313C274.16 32.8787 272.652 31.3707 272.652 28.0804V21.2257H270.733V19.0322H272.652V14.9194H274.983V19.0322H278.821V21.2257H274.983V27.6692C274.983 29.8627 275.942 30.8223 277.862 30.8223H278.959V30.6852Z" fill="white"/>
<path d="M301.716 18.6208V20.8143C301.716 23.9675 299.523 25.8868 295.821 25.8868H290.611V32.8786H288.144V13.5483H295.684C299.66 13.5483 301.716 15.4677 301.716 18.6208ZM299.385 18.6208C299.385 16.8386 298.289 15.7418 295.958 15.7418H290.611V23.5562H295.958C298.289 23.5562 299.385 22.5965 299.385 20.6772V18.6208Z" fill="white"/>
<path d="M312.135 18.7579V20.9514C311.724 20.8143 311.313 20.8143 310.902 20.8143C308.982 20.8143 307.2 21.9111 307.2 24.2417V33.0157H304.869V19.0321H306.515L306.926 20.4031C307.885 19.3063 309.531 18.7579 311.176 18.7579C311.587 18.7579 311.861 18.7579 312.135 18.7579Z" fill="white"/>
<path d="M314.877 13.9596H317.345V16.8386H314.877V13.9596ZM314.877 19.0321H317.208V33.0156H314.877V19.0321Z" fill="white"/>
<path d="M320.909 27.5319V24.3788C320.909 20.8144 322.966 18.6208 326.804 18.6208C330.369 18.6208 332.562 20.6773 332.562 24.1046V24.3788H330.232V24.1046C330.232 22.0482 328.998 20.9514 326.804 20.9514C324.474 20.9514 323.24 22.1853 323.24 24.653V27.5319C323.24 29.9996 324.337 31.2335 326.804 31.2335C328.998 31.2335 330.232 30.1367 330.232 28.0803V27.8061H332.562V28.0803C332.562 31.5077 330.506 33.5641 326.804 33.5641C322.966 33.2899 320.909 31.0964 320.909 27.5319Z" fill="white"/>
<path d="M347.094 23.8304V26.7094H337.772V27.3948C337.772 29.9996 338.869 31.3705 341.336 31.3705C343.393 31.3705 344.627 30.4109 344.627 28.7658V28.6287H346.957C346.957 31.7818 344.764 33.427 341.336 33.427C337.361 33.427 335.304 31.0964 335.304 27.3948V24.6529C335.304 21.0885 337.361 18.7579 341.199 18.7579C344.764 18.6208 347.094 20.8143 347.094 23.8304ZM344.627 24.6529V23.8304C344.627 21.6369 343.53 20.5401 341.336 20.5401C338.869 20.5401 337.772 21.9111 337.772 24.5159V24.6529H344.627Z" fill="white"/>
<path d="M356.417 27.3948V26.7094H358.884V27.5319C358.884 29.5883 360.804 30.9593 363.683 30.9593C366.424 30.9593 368.344 29.7254 368.344 27.5319C368.344 22.4595 356.965 25.2013 356.965 18.3467C356.965 15.3306 359.021 13 363.545 13C368.07 13 370.4 15.3306 370.4 18.6208V19.4434H367.932V18.4838C367.932 16.5644 366.287 15.3306 363.545 15.3306C360.804 15.3306 359.296 16.4273 359.296 18.3467C359.296 22.7337 370.674 20.4031 370.674 27.5319C370.674 30.8222 368.344 33.2899 363.545 33.2899C359.021 33.2899 356.417 30.8222 356.417 27.3948Z" fill="white"/>
<path d="M390.279 19.0322L386.714 33.0158H384.384L381.368 23.6934L378.352 33.0158H376.021L372.457 19.0322H374.787L377.392 30.411L380.408 19.0322H382.327L385.343 30.411L387.948 19.0322H390.279Z" fill="white"/>
<path d="M403.851 19.0321V33.0157H402.206L401.795 31.6447C400.835 32.8786 399.327 33.427 397.408 33.427C393.98 33.427 391.924 31.6447 391.924 27.5319V24.653C391.924 20.5402 393.98 18.7579 397.408 18.7579C399.19 18.7579 400.835 19.3063 401.795 20.5402L402.206 19.1692H403.851V19.0321ZM401.52 27.669V24.2417C401.383 21.9111 400.012 20.9514 397.819 20.9514C395.488 20.9514 394.254 22.0482 394.254 24.7901V27.3948C394.254 29.9996 395.351 31.2335 397.819 31.2335C400.012 31.0964 401.383 29.9996 401.52 27.669Z" fill="white"/>
<path d="M419.754 24.5159V27.3949C419.754 31.5077 417.697 33.2899 414.27 33.2899C412.625 33.2899 411.117 32.8786 410.157 31.7819V39.1849H407.827V19.0321H409.472L409.883 20.4031C410.843 19.3063 412.351 18.6208 414.27 18.6208C417.697 18.6208 419.754 20.4031 419.754 24.5159ZM417.423 24.653C417.423 22.0482 416.326 20.8144 413.859 20.8144C411.802 20.8144 410.431 21.774 410.157 23.9675V27.9432C410.431 29.9996 411.802 31.0964 413.859 31.0964C416.189 31.0964 417.423 29.9996 417.423 27.2578V24.653Z" fill="white"/>
<path d="M205.846 52C205.39 52 205 51.7721 205 51.5062V0.493791C205 0.227904 205.39 0 205.846 0C206.301 0 206.692 0.227904 206.692 0.493791V51.5062C206.692 51.7721 206.301 52 205.846 52Z" fill="white"/>
<defs>
<clipPath id="clip0">
<rect width="184" height="42.32" fill="white" transform="translate(0 5)"/>
</clipPath>
</defs>
</svg>
