<svg width="135" height="136" viewBox="0 0 135 136" fill="none" xmlns="http://www.w3.org/2000/svg">
<g opacity="0.05">
<path d="M67.808 130.473C64.5859 130.481 61.4192 129.635 58.6305 128.021L20.2165 105.851C17.4347 104.245 15.1231 101.937 13.5126 99.1577C11.9022 96.3785 11.0492 93.2253 11.0391 90.0133V45.6601C11.0492 42.448 11.9022 39.2949 13.5126 36.5157C15.1231 33.7365 17.4347 31.4285 20.2165 29.8225L58.6305 7.65248C61.4192 6.03831 64.5859 5.19235 67.808 5.20081C71.03 5.19297 74.1965 6.03889 76.9854 7.65248L115.399 29.8225C118.181 31.4285 120.493 33.7365 122.103 36.5157C123.714 39.2949 124.567 42.448 124.577 45.6601V90.0133C124.567 93.2253 123.714 96.3785 122.103 99.1577C120.493 101.937 118.181 104.245 115.399 105.851L76.9854 128.021C74.1965 129.635 71.03 130.48 67.808 130.473Z" fill="#29374D"/>
<path d="M67.8077 9.78942C70.2153 9.78453 72.5813 10.4178 74.6645 11.6249L113.079 33.7949C115.159 34.9993 116.887 36.7294 118.088 38.8119C119.289 40.8943 119.922 43.256 119.922 45.66V90.0132C119.922 92.4172 119.289 94.7789 118.088 96.8614C116.887 98.9438 115.159 100.674 113.079 101.878L74.6645 124.048C72.5813 125.255 70.2153 125.889 67.8077 125.884C65.4044 125.887 63.0431 125.254 60.9639 124.048L22.5499 101.878C20.4692 100.674 18.7417 98.9438 17.5406 96.8614C16.3394 94.7789 15.7068 92.4172 15.7061 90.0132V45.66C15.7068 43.256 16.3394 40.8943 17.5406 38.8119C18.7417 36.7294 20.4692 34.9993 22.5499 33.7949L60.9639 11.6249C63.0431 10.4195 65.4044 9.78622 67.8077 9.78942ZM67.8077 0.612C63.7959 0.617352 59.855 1.67034 56.3752 3.66675L17.9874 25.8499C14.5156 27.8635 11.6327 30.7526 9.62661 34.2288C7.62051 37.7049 6.56138 41.6465 6.55493 45.66V90.0132C6.56138 94.0267 7.62051 97.9682 9.62661 101.444C11.6327 104.921 14.5156 107.81 17.9874 109.823L56.4014 132.006C59.8812 134.003 63.8221 135.056 67.8339 135.061C71.85 135.058 75.7956 134.004 79.2794 132.006L117.693 109.823C121.165 107.81 124.048 104.921 126.054 101.444C128.06 97.9682 129.119 94.0267 129.126 90.0132V45.66C129.119 41.6465 128.06 37.7049 126.054 34.2288C124.048 30.7526 121.165 27.8635 117.693 25.8499L79.2794 3.66675C75.7956 1.6687 71.85 0.615676 67.8339 0.612H67.8077Z" fill="#8ABEDE"/>
<path d="M131.866 79.1839C128.169 92.5042 115.15 103.701 97.3855 109.574V58.8231C97.3855 30.4255 113.472 7.37708 134.095 7.37708L132.889 72.4581C132.832 74.7341 132.489 76.9939 131.866 79.1839Z" fill="white"/>
<path d="M96.4417 110.807V58.7574C96.4417 29.3897 112.961 6.38055 134.043 6.38055H135L133.768 72.4187C133.726 74.7725 133.387 77.1117 132.758 79.3804C129.048 92.7663 115.924 104.291 97.6741 110.4L96.4417 110.807ZM133.151 8.26848C113.564 8.96335 98.3689 30.8843 98.3689 58.7574V108.198C115.413 102.258 127.54 91.3635 131.014 78.8691C131.599 76.7541 131.911 74.5733 131.945 72.3793L133.151 8.26848Z" fill="#1F2250"/>
<path d="M3.10715 79.1839C6.84367 92.5042 19.8494 103.701 37.5881 109.574V58.8231C37.5881 30.4255 21.5013 7.37708 0.957031 7.37708L2.13698 72.4581C2.17648 74.7319 2.50243 76.9916 3.10715 79.1839Z" fill="white"/>
<path d="M38.5321 110.807L37.2997 110.4C19.0759 104.356 5.9522 92.7663 2.20257 79.3804C1.57382 77.1117 1.23464 74.7725 1.19307 72.4187L0 6.38055H0.943965C22.0127 6.38055 38.519 29.3897 38.519 58.7574L38.5321 110.807ZM4.01184 78.8691C7.51237 91.3635 19.6659 102.258 36.6572 108.198V58.7574C36.6572 31.3562 21.1474 8.93712 1.91414 8.26848L3.06788 72.3793C3.10607 74.5739 3.42327 76.7546 4.01184 78.8691Z" fill="#1F2250"/>
<path d="M67.8077 45.0964C67.8077 45.0964 87.5654 68.1448 87.5654 90.4066C87.5654 110.073 67.8077 116.903 67.8077 116.903C67.8077 116.903 48.1418 110.164 48.1418 90.4459C48.1418 68.1841 67.8077 45.0964 67.8077 45.0964Z" fill="white"/>
<path d="M67.8084 117.939L67.5068 117.834C67.3102 117.834 47.1199 110.597 47.1199 90.4457C47.1199 78.738 52.5608 66.8466 57.1233 58.9803C60.0469 53.907 63.3839 49.0834 67.1004 44.5586L67.8084 43.7327L68.5295 44.5586C72.246 49.0834 75.5831 53.907 78.5067 58.9803C83.0691 66.8466 88.51 78.738 88.51 90.4457C88.51 110.597 68.3197 117.768 68.123 117.834L67.8084 117.939ZM67.8084 46.617C64.2948 50.9959 48.9947 71.1731 48.9947 90.4457C48.9947 107.961 65.3567 114.989 67.8084 115.946C70.2601 114.989 86.6352 107.922 86.6352 90.4457C86.6614 71.16 71.3614 50.9959 67.8084 46.617Z" fill="#1F2250"/>
<path d="M41.5867 32.7332L64.2025 20.0814C65.5018 19.3516 66.9714 18.9792 68.4614 19.0022C69.9515 19.0253 71.4089 19.4429 72.685 20.2126L95.6941 34.0442" fill="#29374D"/>
<path d="M95.6291 36.4957C95.1674 36.5043 94.7127 36.3815 94.3181 36.1417L71.309 22.297C70.3998 21.7549 69.3642 21.4611 68.3058 21.445C67.2474 21.4289 66.2033 21.691 65.2781 22.2052L42.6623 34.87C42.3825 35.0258 42.0748 35.125 41.7567 35.1619C41.4386 35.1988 41.1163 35.1727 40.8083 35.085C40.5003 34.9974 40.2126 34.8499 39.9615 34.651C39.7105 34.4522 39.5011 34.2058 39.3453 33.9261C39.0466 33.3696 38.9767 32.7185 39.1506 32.1113C39.3244 31.5042 39.7282 30.9887 40.2762 30.6746L62.8788 18.0098C64.5571 17.0721 66.4532 16.5941 68.3754 16.6241C70.2976 16.654 72.1779 17.1908 73.8262 18.1802L96.8877 31.9857C97.1635 32.149 97.4042 32.3653 97.5959 32.6222C97.7876 32.8791 97.9265 33.1714 98.0045 33.4823C98.0825 33.7932 98.0981 34.1164 98.0505 34.4334C98.0028 34.7503 97.8928 35.0547 97.7268 35.3289C97.5075 35.6878 97.199 35.9838 96.8315 36.1883C96.4639 36.3928 96.0497 36.4987 95.6291 36.4957Z" fill="#00A2F5"/>
<path d="M41.5867 44.1917L64.2025 31.54C65.5018 30.8101 66.9714 30.4377 68.4614 30.4607C69.9515 30.4838 71.4089 30.9014 72.685 31.6711L95.6941 45.5027" fill="#29374D"/>
<path d="M95.6286 47.9544C95.1669 47.9629 94.7123 47.8401 94.3176 47.6004L71.3085 33.7556C70.3993 33.2135 69.3637 32.9197 68.3053 32.9036C67.2469 32.8875 66.2029 33.1497 65.2776 33.6638L42.6618 46.3287C42.382 46.4845 42.0743 46.5837 41.7562 46.6206C41.4381 46.6574 41.1158 46.6313 40.8078 46.5437C40.4998 46.456 40.212 46.3085 39.961 46.1097C39.71 45.9108 39.5006 45.6645 39.3448 45.3847C39.1867 45.1061 39.0854 44.799 39.0466 44.481C39.0079 44.1631 39.0325 43.8406 39.119 43.5322C39.2056 43.2238 39.3523 42.9356 39.5508 42.6843C39.7494 42.4329 39.9957 42.2234 40.2757 42.0677L62.9308 29.3635C64.6091 28.4259 66.5052 27.9479 68.4274 27.9778C70.3496 28.0078 72.2299 28.5446 73.8782 29.534L96.8872 43.3657C97.1635 43.5302 97.4045 43.7478 97.5963 44.0058C97.7881 44.2639 97.9271 44.5573 98.0051 44.8693C98.083 45.1812 98.0985 45.5055 98.0507 45.8235C98.0029 46.1414 97.8926 46.4468 97.7263 46.722C97.5152 47.0931 97.2103 47.4022 96.8422 47.6185C96.474 47.8347 96.0556 47.9506 95.6286 47.9544Z" fill="white"/>
</g>
</svg>
