<svg width="127" height="144" viewBox="0 0 127 144" fill="none" xmlns="http://www.w3.org/2000/svg">
<g opacity="0.1">
<path d="M79.5576 65.8399L90.0288 48.0718L118.253 92.0321L118.267 100.469L118.175 42.4151C118.108 40.996 117.354 39.6979 116.152 38.9322L65.3376 9.70294C64.1496 9.1185 62.6415 9.12526 61.455 9.72145C61.2947 9.80133 61.1437 9.88885 61.0004 9.9843L60.823 10.0956L11.4999 38.6779L11.3087 38.7648C11.0626 38.8779 10.8135 39.0218 10.5804 39.1889C9.64496 39.8594 9.02411 40.8512 8.82323 41.9637C8.79298 42.1322 8.77066 42.3038 8.76038 42.4773L8.83791 89.7854L35.1274 49.0377C38.4375 43.6347 45.6487 41.8944 52.3433 41.9889L60.2004 42.1963L13.9049 116.441L19.3622 119.583L66.2119 42.2717L86.9198 42.1966L40.1908 121.458L59.6641 132.659L61.9907 133.997C62.9748 134.397 64.1352 134.417 65.1276 134.059L116.656 104.197L106.805 109.906L79.5576 65.8399ZM83.5524 123.381L63.8844 92.512L75.8906 72.1386L101.721 112.852L83.5524 123.381Z" fill="#2D374B"/>
<path d="M63.8928 92.5124L83.5605 123.382L101.73 112.852L75.8988 72.139L63.8928 92.5124Z" fill="#28A0F0"/>
<path d="M118.277 100.469L118.263 92.0326L90.039 48.0723L79.5679 65.8404L106.814 109.906L116.666 104.197C117.632 103.412 118.217 102.261 118.278 101.018L118.277 100.469Z" fill="#28A0F0"/>
<path d="M0 108.426L13.9117 116.442L60.2069 42.1976L52.3498 41.9903C45.6552 41.8957 38.4437 43.6361 35.1339 49.0391L8.84441 89.7868L0 103.376V108.426Z" fill="white"/>
<path d="M86.9325 42.1975L66.2245 42.2727L19.3749 119.584L35.7503 129.012L40.2035 121.459L86.9325 42.1975Z" fill="white"/>
<path d="M127 42.0907C126.827 37.76 124.482 33.7955 120.809 31.4874L69.3285 1.88222C65.6953 0.0528381 61.1567 0.0504888 57.517 1.88104C57.0867 2.09808 7.4535 30.8833 7.4535 30.8833C6.76657 31.2128 6.10489 31.6052 5.48256 32.0507C2.20383 34.4005 0.205288 38.0522 0 42.064V103.376L8.84441 89.7865L8.76717 42.4784C8.77745 42.3054 8.79918 42.1351 8.83002 41.9671C9.03002 40.854 9.65146 39.861 10.5871 39.19C10.8206 39.0229 61.3017 9.80239 61.4621 9.72222C62.6486 9.12632 64.1567 9.11927 65.3447 9.70371L116.159 38.9324C117.361 39.698 118.115 40.9961 118.182 42.4152V101.018C118.12 102.261 117.629 103.412 116.663 104.197L106.811 109.906L101.728 112.852L83.5595 123.381L65.1344 134.059C64.142 134.418 62.9816 134.397 61.9975 133.997L40.1976 121.459L35.7444 129.012L55.3352 140.291C55.9831 140.66 56.5602 140.986 57.0339 141.252C57.7672 141.663 58.2671 141.938 58.4436 142.024C59.8359 142.701 61.8395 143.094 63.6448 143.094C65.3 143.094 66.9141 142.79 68.4413 142.192L121.959 111.199C125.03 108.819 126.837 105.229 127 101.341V42.0907Z" fill="#96BEDC"/>
</g>
</svg>
