<svg width="250" height="68" viewBox="0 0 250 68" fill="none" xmlns="http://www.w3.org/2000/svg">
<g clip-path="url(#clip0)">
<path d="M85.6691 34.0627H73.4329V8.32428H85.4054C90.6797 8.32428 93.8975 10.9614 93.8975 14.9698V15.0226C93.8975 17.9234 92.3675 19.5585 90.5215 20.5606C93.475 21.7209 95.321 23.4087 95.321 26.8897V26.9424C95.321 31.742 91.5236 34.0627 85.6691 34.0627ZM88.2541 15.9192C88.2541 14.2315 86.9355 13.2821 84.5621 13.2821H78.9708V18.7146H84.1924C86.6713 18.7146 88.2541 17.9234 88.2541 15.972V15.9192ZM89.6781 26.2568C89.6781 24.5163 88.4118 23.4614 85.5109 23.4614H78.9708V29.1049H85.7224C88.2013 29.1049 89.7303 28.2082 89.7303 26.3095V26.2568H89.6781ZM101.545 34.0627V8.32428H107.188V34.0627H101.545ZM132.822 34.0627L120.374 17.7125V34.0627H114.783V8.32428H120.005L132.083 24.1998V8.32428H137.674V34.0627H132.822ZM163.095 34.0627L160.722 28.3137H149.857L147.483 34.0627H141.735L152.758 8.11331H157.98L169.002 34.0627H163.095ZM155.289 14.9698L151.861 23.3032H158.718L155.289 14.9698ZM191.208 34.0627L178.76 17.7125V34.0627H173.17V8.32428H178.391L190.469 24.1998V8.32428H196.059V34.0627H191.208ZM214.678 34.5374C207.083 34.5374 201.492 28.6829 201.492 21.299V21.2462C201.492 13.915 207.03 7.95508 214.942 7.95508C219.794 7.95508 222.694 9.5901 225.068 11.9108L221.481 16.0774C219.477 14.2842 217.473 13.1766 214.889 13.1766C210.564 13.1766 207.399 16.7631 207.399 21.1935V21.2462C207.399 25.6766 210.458 29.3158 214.889 29.3158C217.842 29.3158 219.636 28.1555 221.64 26.3095L225.227 29.9487C222.589 32.7441 219.689 34.5374 214.678 34.5374ZM229.815 34.0627V8.32428H249.225V13.3876H235.458V18.6091H247.589V23.6724H235.458V29.1049H249.435V34.1682H229.815V34.0627Z" fill="white"/>
<path d="M75.5528 46.8187C75.5528 45.6288 76.6161 44.6921 78.4388 44.6921C80.0591 44.6921 81.654 45.325 83.249 46.5149L84.9199 44.1605C83.1224 42.7174 81.0718 41.9326 78.4895 41.9326C74.9705 41.9326 72.4388 44.0086 72.4388 47.0972C72.4388 50.3883 74.5654 51.5022 78.3376 52.4136C81.6287 53.1731 82.3376 53.8566 82.3376 55.1477C82.3376 56.5148 81.1224 57.4009 79.1983 57.4009C76.9958 57.4009 75.2996 56.5654 73.6034 55.0971L71.73 57.3249C73.8566 59.2236 76.4135 60.1604 79.1224 60.1604C82.8439 60.1604 85.4515 58.1857 85.4515 54.8439C85.4515 51.882 83.5021 50.5402 79.7553 49.6288C76.3629 48.8187 75.5528 48.2111 75.5528 46.8187Z" fill="white"/>
<path d="M102.911 47.1982V59.907H106.025V42.1855H102.709L97.3163 50.5653L91.9239 42.1855H88.6074V59.907H91.6707V47.2488L97.215 55.5525H97.3163L102.911 47.1982Z" fill="white"/>
<path d="M119.244 42.0586H116.358L108.561 59.9066H111.751L113.573 55.6281H121.953L123.751 59.9066H127.042L119.244 42.0586ZM120.814 52.8687H114.713L117.751 45.7801L120.814 52.8687Z" fill="white"/>
<path d="M144.612 59.907L139.827 53.1982C142.308 52.5147 144.055 50.7425 144.055 47.8058C144.055 44.3374 141.549 42.1855 137.473 42.1855H129.574V59.907H132.688V53.7297H136.587L140.941 59.907H144.612ZM140.89 47.983C140.89 49.8058 139.473 50.9704 137.245 50.9704H132.688V45.021H137.22C139.523 45.021 140.89 46.0336 140.89 47.983Z" fill="white"/>
<path d="M154.782 45.0716H160.403V42.1855H146.023V45.0716H151.643V59.907H154.782V45.0716Z" fill="white"/>
<path d="M185.7 57.0716L183.7 55.0463C182.181 56.464 180.789 57.3501 178.611 57.3501C175.219 57.3501 172.763 54.5146 172.763 51.0211C172.763 47.5274 175.219 44.7426 178.611 44.7426C180.637 44.7426 182.156 45.6287 183.573 46.9451L185.573 44.6413C183.877 43.0211 181.903 41.8818 178.637 41.8818C173.27 41.8818 169.498 46.0084 169.498 51.0717C169.498 56.1855 173.346 60.2108 178.51 60.2108C181.827 60.2108 183.852 58.9956 185.7 57.0716Z" fill="white"/>
<path d="M200.036 52.4387V59.907H203.15V42.1855H200.036V49.5526H191.581V42.1855H188.467V59.907H191.581V52.4387H200.036Z" fill="white"/>
<path d="M216.36 42.0586H213.474L205.676 59.9066H208.866L210.689 55.6281H219.069L220.866 59.9066H224.157L216.36 42.0586ZM217.929 52.8687H211.828L214.866 45.7801L217.929 52.8687Z" fill="white"/>
<path d="M226.867 42.1855V59.907H229.981V42.1855H226.867Z" fill="white"/>
<path d="M246.598 54.4386L237.104 42.1855H234.218V59.907H237.282V47.2995L247.054 59.907H249.661V42.1855H246.598V54.4386Z" fill="white"/>
<path d="M28.7709 8.32441L17.6421 14.759L11.0493 11.0143L28.7181 0.834961L46.3869 11.0143L39.8995 14.759L28.7709 8.32441Z" fill="white"/>
<path d="M39.9522 20.1387L46.4396 23.8834V31.3728L35.3108 37.8074V50.6766L28.8235 54.4214L22.3361 50.6766V37.8074L11.2075 31.3728V23.8834L17.6949 20.1387L28.8235 26.5733L39.9522 20.1387Z" fill="white"/>
<path d="M46.4395 36.7529V44.2424L39.9521 47.9871V40.4977L46.4395 36.7529Z" fill="white"/>
<path d="M39.9521 53.3669L51.0807 46.9323H51.1335V34.0631L57.621 30.3184V50.677L39.9521 60.8563V53.3669Z" fill="white"/>
<path d="M51.0815 21.194L44.5942 17.4493L51.0815 13.7046L57.569 17.4493V24.9388L51.0815 28.6835V21.194Z" fill="white"/>
<path d="M22.2839 63.5461V56.0566L28.7713 59.8014L35.2585 56.0566V63.5461L28.7713 67.2908L22.2839 63.5461Z" fill="white"/>
<path d="M17.6426 47.9871L11.1553 44.2424V36.7529L17.6426 40.4977V47.9871Z" fill="white"/>
<path d="M28.7713 21.194L22.2839 17.4493L28.7713 13.7046L35.2585 17.4493L28.7713 21.194Z" fill="white"/>
<path d="M13.001 17.4493L6.5136 21.194V28.6835L0.0263672 24.9388V17.4493L6.5136 13.7046L13.001 17.4493Z" fill="white"/>
<path d="M0.0263672 30.3184L6.5136 34.0631H6.5664V46.9323L17.6951 53.3669V60.8563L0.0263672 50.677V30.3184Z" fill="white"/>
</g>
<defs>
<clipPath id="clip0">
<rect width="250" height="66.4557" fill="white" transform="translate(0 0.835449)"/>
</clipPath>
</defs>
</svg>
