<svg width="915" height="227" viewBox="0 0 915 227" fill="none" xmlns="http://www.w3.org/2000/svg">
<path d="M280.669 80.6257C282.913 88.8786 280.709 105.187 285.276 109.886C291.417 116.243 291.969 123.43 288.858 130.459C280.276 149.689 276.693 136.777 279.803 162.364C281.102 173.184 277.047 174.013 267.126 173.697C257.953 173.421 244.646 176.698 242.913 169.235C240.827 160.153 250.472 159.284 250.472 159.284C250.472 159.284 247.756 142.147 248.937 138.553C250.669 133.381 240.276 140.765 236.024 121.811C233.543 110.794 235.157 89.1945 242.244 82.7186" fill="white"/>
<path d="M253.465 175C247.874 175 243.189 174.052 242.126 169.472C241.457 166.629 241.85 164.259 243.189 162.364C245 159.837 248.11 158.968 249.567 158.692C249.016 155.02 247.087 141.712 248.189 138.395C248.425 137.724 248.346 137.527 248.307 137.487C248.189 137.25 247.441 137.092 246.772 136.895C243.74 136.145 238.071 134.684 235.236 122.087C233.937 116.401 233.779 108.148 234.724 100.567C235.394 95.5123 237.165 86.3908 241.693 82.2446L242.756 83.3898C235.827 89.7077 234.37 110.991 236.772 121.732C239.409 133.42 244.252 134.644 247.165 135.355C248.268 135.631 249.252 135.868 249.685 136.697C250.079 137.448 249.882 138.277 249.685 138.869C248.74 141.633 250.472 154.506 251.26 159.205L251.378 160.034L250.551 160.113C250.512 160.113 246.457 160.508 244.449 163.272C243.386 164.773 243.11 166.747 243.661 169.116C244.803 174.092 252.362 173.618 259.685 173.184C262.205 173.026 264.803 172.868 267.126 172.947C272.756 173.144 276.142 172.868 277.795 171.051C279.134 169.59 279.528 166.866 278.976 162.483C277.047 146.49 277.638 145.187 280.905 141.633C282.638 139.738 285.039 137.092 288.11 130.143C291.339 122.916 290.157 116.085 284.685 110.438C281.732 107.398 281.457 100.409 281.142 93.0641C280.945 88.6021 280.787 84.0216 279.921 80.8231L281.417 80.4282C282.323 83.7846 282.52 88.4836 282.717 93.0246C282.992 99.7769 283.268 106.766 285.827 109.372C291.772 115.532 293.071 122.916 289.567 130.774C286.378 137.961 283.779 140.804 282.087 142.66C279.291 145.701 278.661 146.451 280.551 162.246C281.142 167.182 280.669 170.183 278.976 172.038C276.693 174.566 272.441 174.605 267.087 174.447C264.842 174.368 262.283 174.526 259.803 174.684C257.638 174.882 255.512 175 253.465 175Z" fill="#202251"/>
<path d="M242.205 85.5615C221.024 82.363 223.307 74.3866 222.362 60.5661C221.024 40.5461 236.102 23.2112 256.102 21.8292C276.102 20.4471 293.346 35.6102 294.724 55.6697C295.551 68.1081 290.039 78.9671 280.984 86.1538" fill="white"/>
<path d="M280.945 86.904C280.709 86.904 280.512 86.825 280.354 86.6276C280.118 86.3117 280.157 85.8379 280.472 85.6009C289.803 78.2168 294.724 67.3184 293.937 55.7486C292.638 36.1235 275.669 21.2368 256.142 22.5794C246.693 23.2112 238.031 27.5153 231.772 34.7019C225.551 41.8491 222.441 51.0101 223.11 60.4871C223.228 62.0271 223.268 63.4881 223.346 64.8701C223.819 75.966 224.094 82.0471 242.323 84.8112C242.716 84.8902 242.992 85.2455 242.953 85.6404C242.874 86.0353 242.52 86.3512 242.126 86.2722C222.677 83.3502 222.362 76.0055 221.89 64.9491C221.811 63.5671 221.772 62.106 221.653 60.6055C220.984 50.7337 224.213 41.1778 230.709 33.7148C237.205 26.2517 246.22 21.7896 256.063 21.1184C265.905 20.4471 275.433 23.685 282.874 30.2004C290.315 36.7158 294.764 45.7584 295.433 55.6301C296.26 67.7132 291.142 79.0461 281.417 86.746C281.26 86.825 281.102 86.904 280.945 86.904Z" fill="#202251"/>
<path d="M221.93 61.5928C220.985 47.5353 227.324 39.7958 237.403 38.2163C271.143 32.9251 272.009 45.403 269.568 60.6451C267.324 74.584 249.647 82.6789 239.41 82.7579C222.363 82.9158 222.875 75.6897 221.93 61.5928Z" fill="#202251"/>
<path d="M240.709 83.2712C234.606 83.2712 230 82.521 229.961 82.4815L230.157 81.2574C230.433 81.2969 259.213 85.9959 269.291 71.0302C274.882 62.7379 276.457 54.643 273.898 47.6143C271.142 39.9933 264.291 35.6102 259.331 34.1887C239.291 28.463 227.638 39.7959 227.52 39.8748L226.654 38.9666C226.772 38.8482 238.937 27.002 259.685 32.9251C264.961 34.4256 272.165 39.0456 275.118 47.1405C277.008 52.3528 277.717 60.803 270.394 71.7015C266.024 78.2169 257.638 82.1261 246.142 83.0343C244.213 83.1923 242.402 83.2712 240.709 83.2712Z" fill="#202251"/>
<path d="M253.386 57.0515C250.551 62.2638 236.378 58.3546 229.213 60.171C239.37 53.4187 241.142 50.7731 245.63 46.469C250.079 42.1254 254.449 45.8372 261.693 43.1915C268.937 40.5459 266.181 38.6505 271.417 33.2407C275.59 28.8972 286.85 26.6859 291.929 26.1331C289.055 27.1202 282.52 29.8449 279.37 32.5695C275.433 36.0049 275.905 43.31 267.677 47.0218C259.409 50.7336 256.929 50.5756 253.386 57.0515Z" fill="white"/>
<path d="M229.212 60.7634C228.976 60.7634 228.779 60.6449 228.661 60.408C228.543 60.1316 228.622 59.8157 228.898 59.6578C237.087 54.2085 239.803 51.4839 242.913 48.3249C243.622 47.5747 244.37 46.8244 245.236 46.0347C247.874 43.468 250.512 43.547 253.504 43.626C255.787 43.7049 258.386 43.7839 261.496 42.6388C265.669 41.0988 266.299 39.9142 267.323 37.9398C267.992 36.6367 268.858 34.9783 270.984 32.8065C275.236 28.3839 286.496 26.0937 291.85 25.5013C292.165 25.4619 292.441 25.6593 292.52 25.9752C292.598 26.2911 292.401 26.5675 292.126 26.686C289.173 27.7126 282.795 30.3583 279.764 33.0039C278.386 34.228 277.52 36.0049 276.653 37.9003C275.079 41.2962 273.268 45.1265 267.913 47.5352C266.338 48.246 264.961 48.8383 263.74 49.3516C258.779 51.4049 256.732 52.2737 253.976 57.328C252.047 60.8424 245.984 60.6054 239.567 60.3685C235.905 60.2106 232.086 60.0526 229.409 60.7239C229.331 60.7634 229.291 60.7634 229.212 60.7634ZM234.842 59.0654C236.378 59.0654 237.992 59.1444 239.606 59.1839C245.394 59.4208 251.338 59.6578 252.913 56.7752C255.866 51.326 258.189 50.3783 263.268 48.246C264.488 47.7326 265.827 47.1798 267.401 46.469C272.362 44.2183 274.055 40.6249 275.551 37.387C276.496 35.3731 277.401 33.4383 278.976 32.0957C280.866 30.4372 283.976 28.8183 286.811 27.5152C281.417 28.5813 274.803 30.5952 271.85 33.6357C269.882 35.689 269.094 37.1896 268.386 38.4926C267.323 40.546 266.535 42.0465 261.89 43.7444C258.543 44.9685 255.827 44.8896 253.464 44.8106C250.59 44.7316 248.346 44.6526 246.063 46.9034C245.236 47.7326 244.488 48.4829 243.779 49.1937C240.905 52.0762 238.425 54.6429 231.811 59.1839C232.756 59.1049 233.779 59.0654 234.842 59.0654Z" fill="#202251"/>
<path d="M250.591 92.5901C250.591 92.5901 246.457 118.415 252.795 130.814C257.284 139.58 264.843 135.039 267.362 132.827C271.85 128.958 272.52 108.148 266.575 91.208" fill="white"/>
<path d="M259.921 136.579C259.449 136.579 258.937 136.539 258.465 136.421C255.945 135.907 253.858 134.131 252.283 131.09C245.905 118.652 249.842 93.5772 250 92.5111L251.142 92.7085C251.102 92.9454 247.126 118.494 253.307 130.577C254.685 133.301 256.496 134.881 258.661 135.315C262.52 136.065 266.299 133.064 267.008 132.433C270.984 129.037 272.165 108.898 266.063 91.4449L267.165 91.05C273.071 107.99 272.52 129.234 267.756 133.301C267.047 133.894 263.74 136.579 259.921 136.579Z" fill="#202251"/>
<path d="M268.622 100.843C268.465 100.764 254.606 94.288 250.433 100.014L249.409 99.2634C254.173 92.7085 268.543 99.4213 269.173 99.6977L268.622 100.843Z" fill="#202251"/>
<path d="M270.118 110.754C269.961 110.675 254.016 104.002 249.842 109.767L248.819 109.017C253.583 102.462 269.921 109.293 270.63 109.569L270.118 110.754Z" fill="#202251"/>
<path d="M270.394 121.692C270.236 121.613 254.331 114.466 250.157 120.192L249.134 119.441C253.898 112.886 270.197 120.231 270.905 120.547L270.394 121.692Z" fill="#202251"/>
<path d="M265.827 128.918C273.307 133.104 270.748 140.212 268.543 141.594C262.48 145.503 264.685 151.189 257.52 150.676C250.354 150.162 245.945 145.621 246.457 138.435C246.772 133.933 249.567 130.34 253.189 128.247" fill="white"/>
<path d="M258.346 151.465C258.071 151.465 257.756 151.465 257.441 151.426C249.685 150.873 245.197 145.898 245.709 138.395C246.024 133.973 248.622 130.063 252.795 127.655C253.15 127.457 253.583 127.576 253.779 127.931C253.976 128.286 253.858 128.721 253.504 128.918C249.724 131.09 247.401 134.604 247.126 138.553C246.89 141.831 247.756 144.634 249.567 146.648C251.378 148.622 254.134 149.807 257.52 150.044C261.22 150.32 262.008 148.899 263.307 146.569C264.252 144.871 265.433 142.778 268.11 141.041C268.937 140.527 270.118 138.593 270.039 136.184C269.961 134.328 269.134 131.643 265.433 129.59C265.079 129.392 264.961 128.958 265.157 128.602C265.354 128.247 265.787 128.129 266.142 128.326C270.433 130.735 271.417 133.894 271.496 136.144C271.575 138.988 270.236 141.396 268.898 142.265C266.535 143.805 265.472 145.661 264.567 147.28C263.386 149.373 262.244 151.465 258.346 151.465Z" fill="#202251"/>
<path d="M299.055 54.9589C298.701 49.8651 297.402 45.8374 289.252 46.3902C281.89 46.9035 280.354 51.1287 280.709 56.2225C281.063 61.3163 283.11 65.0676 290.512 64.7912C298.661 64.4753 299.409 60.0528 299.055 54.9589Z" fill="white"/>
<path d="M289.803 65.6599C281.457 65.6599 280.118 60.3291 279.842 56.2224C279.37 49.4306 282.441 45.9163 289.213 45.4424C298.071 44.8501 299.606 49.6281 299.961 54.8404C300.157 57.6045 300.079 60.724 298.11 62.8563C296.575 64.5542 294.094 65.4624 290.551 65.5809C290.276 65.6599 290.039 65.6599 289.803 65.6599ZM290.709 47.2194C290.276 47.2194 289.842 47.2194 289.331 47.2588C283.543 47.6537 281.22 50.2994 281.614 56.104C281.89 60.0922 283.11 64.1199 290.472 63.8435C293.504 63.725 295.591 63.0142 296.772 61.7111C298.268 60.0527 298.307 57.3676 298.15 54.9983C297.874 50.7732 297.087 47.2194 290.709 47.2194Z" fill="#202251"/>
<path d="M261.811 159.008L250.63 159.639V159.008H261.811Z" fill="white"/>
<path d="M279.213 159.008L268.071 159.639H250.63L261.811 159.008H279.213Z" fill="white"/>
<path d="M268.071 159.639L279.213 159.008V159.639H268.071Z" fill="white"/>
<path d="M279.189 158.476L250.615 159.139L250.639 160.165L279.213 159.503L279.189 158.476Z" fill="#202251"/>
<path d="M87.9568 168.585C87.9962 167.795 87.7599 167.005 87.4056 166.294C91.067 158.792 91.6182 147.301 91.6182 140.746C93.3505 132.849 98.0355 105.563 82.1694 94.0327C63.508 80.4886 41.697 92.0979 41.697 92.0979C41.697 92.0979 27.9962 115.356 34.8466 136.245C35.0041 136.679 35.1615 137.113 35.3584 137.548C35.1615 144.418 35.2009 155.514 37.1694 163.293C36.1458 164.241 35.5552 165.386 35.5159 166.689C35.3978 170.164 39.571 173.165 44.8466 173.323C46.6576 173.402 48.3505 173.126 49.8072 172.573C59.6891 172.217 55.6733 165.228 58.7442 158.989C60.9096 154.606 62.4056 148.683 62.4056 148.683C62.4056 148.683 64.8072 152.158 67.6025 157.094C69.1379 159.858 69.3348 162.977 69.5316 165.702C69.1379 166.373 68.9017 167.084 68.8623 167.834C68.7836 169.572 69.8072 171.191 71.5395 172.415C71.8938 172.731 72.3269 172.968 72.8387 173.165C74.3741 173.915 76.2245 174.389 78.2324 174.468C83.4686 174.745 87.8387 172.059 87.9568 168.585Z" fill="white"/>
<path d="M78.7049 175.1C78.508 175.1 78.3505 175.1 78.1537 175.1C76.1458 175.021 74.1773 174.547 72.5631 173.757C72.0513 173.56 71.5789 173.283 71.1852 172.928C69.2561 171.546 68.2324 169.769 68.3112 167.913C68.3505 167.163 68.5474 166.373 68.9805 165.662C68.823 163.017 68.5868 160.055 67.1301 157.449C65.2797 154.093 63.5474 151.408 62.6419 150.065C62.0907 152 60.8702 156.067 59.2561 159.305C58.2718 161.279 58.0356 163.293 57.8387 165.268C57.3663 169.177 56.9726 172.889 49.9254 173.204C48.3505 173.757 46.6183 173.994 44.8466 173.955C39.2561 173.757 34.8466 170.519 34.9647 166.729C35.0041 165.465 35.5553 164.241 36.5789 163.214C34.7285 155.633 34.6104 145.208 34.8072 137.745C34.6104 137.311 34.4529 136.876 34.3348 136.521C27.5238 115.672 41.1065 92.1768 41.2246 91.9399L41.3033 91.8214L41.4214 91.7424C41.6576 91.624 63.7836 80.0937 82.4844 93.7168C98.508 105.365 93.9411 132.73 92.1301 140.904C92.1694 147.182 91.6182 158.713 87.9962 166.373C88.3505 167.123 88.508 167.913 88.508 168.663C88.3899 172.257 84.0198 175.1 78.7049 175.1ZM62.1694 147.459L62.8387 148.446C62.8781 148.485 65.319 152 68.0356 156.896C69.6498 159.739 69.8466 162.898 70.0434 165.662V165.899L69.9647 166.057C69.6104 166.65 69.4135 167.281 69.3742 167.913C69.3348 169.414 70.2009 170.875 71.8151 172.02L71.8545 172.059C72.1694 172.336 72.5631 172.573 72.9962 172.731C74.5316 173.52 76.3427 173.915 78.1931 173.994C83.1537 174.152 87.3269 171.743 87.4057 168.545C87.445 167.874 87.2482 167.202 86.8938 166.531L86.7757 166.294L86.8938 166.057C90.5553 158.594 91.0671 146.985 91.0277 140.746V140.667V140.628C92.7994 132.651 97.3269 105.8 81.8151 94.467C64.4135 81.8311 43.9017 91.5845 42.0513 92.5322C40.949 94.467 28.9017 116.501 35.3191 136.087C35.4372 136.481 35.5946 136.876 35.7915 137.35L35.8309 137.469V137.587C35.634 143.747 35.634 155.277 37.6419 163.214L37.7206 163.53L37.4844 163.767C36.5395 164.675 36.0277 165.702 35.9883 166.768C35.8702 169.927 39.8466 172.691 44.8072 172.849C46.4608 172.889 48.1143 172.652 49.571 172.138L49.7285 172.099C55.9096 171.862 56.2246 169.058 56.6576 165.149C56.8938 163.175 57.1301 160.963 58.1931 158.831C60.2797 154.567 61.7757 148.683 61.8151 148.643L62.1694 147.459Z" fill="#202251"/>
<path d="M84.8469 97.5076C84.8469 97.5076 111.579 103.154 120.477 110.657C126.776 115.948 121.658 121.279 119.414 122.977C115.437 125.938 103.745 121.002 91.0674 113.026" fill="white"/>
<path d="M116.146 124.319C109.02 124.319 96.5396 117.014 90.8309 113.421L91.3427 112.592C105.122 121.279 115.752 125.109 119.138 122.582C119.768 122.108 122.918 119.581 123.036 116.304C123.075 114.448 122.13 112.671 120.201 111.052C111.461 103.707 85.0435 98.0604 84.7679 98.0209L84.9648 97.0732C85.0435 97.0732 91.7364 98.4948 99.4923 100.825C109.886 103.944 117.091 107.142 120.831 110.301C122.996 112.157 124.099 114.171 124.02 116.343C123.902 120.094 120.437 122.858 119.729 123.372C118.784 124.043 117.563 124.319 116.146 124.319Z" fill="#202251"/>
<path d="M97.3663 117.054C97.3663 116.619 97.3663 105.997 102.445 102.207L103.075 103.036C98.4293 106.511 98.4293 116.935 98.4293 117.054H97.3663Z" fill="#202251"/>
<path d="M104.296 120.41L103.233 120.371C103.272 119.818 103.823 107.142 109.965 104.497L110.398 105.484C104.847 107.893 104.296 120.292 104.296 120.41Z" fill="#202251"/>
<path d="M110.595 123.253L109.532 123.214C109.571 122.701 110.162 110.381 116.303 107.735L116.736 108.722C111.185 111.091 110.595 123.135 110.595 123.253Z" fill="#202251"/>
<path d="M112.524 123.727C112.996 128.781 118.784 130.44 122.524 129.729C128.429 128.623 128.547 127.004 130.162 121.042C131.107 117.409 125.752 114.329 122.603 112.789" fill="white"/>
<path d="M120.752 130.479C118.705 130.479 116.343 129.927 114.571 128.584C112.996 127.399 112.091 125.741 111.894 123.806C111.855 123.49 112.091 123.174 112.445 123.135C112.76 123.095 113.075 123.332 113.114 123.688C113.272 125.306 113.981 126.61 115.319 127.636C117.406 129.216 120.398 129.532 122.406 129.176C127.642 128.189 127.957 126.965 129.335 121.753L129.571 120.884C130.201 118.554 127.681 115.948 122.327 113.342C122.012 113.184 121.894 112.829 122.051 112.552C122.209 112.236 122.563 112.118 122.839 112.276C128.862 115.237 131.5 118.238 130.713 121.239L130.477 122.108C129.059 127.439 128.587 129.255 122.603 130.4C122.051 130.4 121.421 130.479 120.752 130.479Z" fill="#202251"/>
<path d="M39.2954 97.1917C39.2954 97.1917 14.4135 110.064 7.6419 119.936C2.87812 126.886 9.37418 130.756 12.0513 131.822C16.7758 133.678 29.8466 124.714 40.201 113.381" fill="white"/>
<path d="M13.4687 132.533C12.8781 132.533 12.327 132.454 11.8545 132.256C11.0278 131.94 6.85453 130.124 5.71279 126.491C5.0435 124.359 5.55531 122.069 7.24823 119.66C14.0199 109.828 38.075 97.3101 39.0592 96.7573L39.4923 97.626C39.2561 97.7445 14.6498 110.538 8.03563 120.173C6.53956 122.345 6.10649 124.359 6.65768 126.175C7.64193 129.413 11.4608 131.032 12.2089 131.309C16.5002 132.967 29.4136 124.398 39.8073 112.987L40.5159 113.658C31.7758 123.293 19.6498 132.533 13.4687 132.533Z" fill="#202251"/>
<path d="M31.7758 120.529C31.7364 120.41 28.3113 109.828 22.7994 107.656L23.1931 106.669C29.2168 108.998 32.6813 119.739 32.8388 120.213L31.7758 120.529Z" fill="#202251"/>
<path d="M26.3033 125.149C26.264 125.03 22.327 112.908 16.2246 112.039L16.3821 110.973C23.1537 111.92 27.1695 124.28 27.327 124.833L26.3033 125.149Z" fill="#202251"/>
<path d="M20.8309 129.69C20.7916 129.571 16.9333 117.844 10.8309 116.975L10.9884 115.909C17.7601 116.856 21.6971 128.86 21.8546 129.334L20.8309 129.69Z" fill="#202251"/>
<path d="M19.2561 130.242C20.201 135.376 14.9254 138.574 10.9884 138.89C4.84664 139.403 4.29546 137.824 1.10649 132.375C-0.822649 129.018 3.66554 124.556 6.34271 122.147" fill="white"/>
<path d="M9.09861 139.601C4.57105 139.601 3.54743 137.824 1.02774 133.48L0.555301 132.691C-1.0195 129.966 0.752151 126.254 5.90963 121.713C6.14585 121.476 6.53955 121.516 6.77577 121.753C7.01199 121.99 6.97262 122.384 6.7364 122.621C2.16947 126.689 0.397821 129.926 1.61829 132.059L2.09073 132.849C4.84664 137.587 5.47656 138.732 10.949 138.258C13.0356 138.1 15.9096 136.955 17.5632 134.823C18.5868 133.48 18.9411 131.98 18.6655 130.321C18.5868 130.005 18.823 129.65 19.1773 129.611C19.5317 129.532 19.8466 129.769 19.886 130.124C20.2403 132.098 19.7679 133.954 18.5474 135.573C16.697 138.021 13.4687 139.285 11.0671 139.482C10.3191 139.561 9.68916 139.601 9.09861 139.601Z" fill="#202251"/>
<path d="M47.1695 119.897C47.2876 111.999 54.4923 109.117 62.9963 109.433C71.5396 109.749 78.3506 113.105 78.0356 121.002C77.5632 134.941 61.9726 138.061 61.9726 138.061C61.9726 138.061 46.8939 134.941 47.1695 119.897Z" fill="white"/>
<path d="M61.9727 138.614L61.8546 138.574C61.6971 138.535 46.3428 135.178 46.579 119.857C46.6184 116.896 47.642 114.448 49.5711 112.592C53.1144 109.235 58.8231 108.682 62.9963 108.84C67.6026 108.998 71.4609 110.064 74.0987 111.881C77.2089 114.013 78.705 117.054 78.5475 121.002C78.0357 135.178 62.2089 138.535 62.0514 138.574L61.9727 138.614ZM61.7758 109.946C57.9963 109.946 53.3113 110.617 50.3585 113.421C48.6262 115.04 47.7601 117.251 47.7207 119.897C47.4845 133.638 60.6735 137.153 62.0121 137.469C63.39 137.153 77.0908 133.678 77.5239 120.963C77.642 117.449 76.3034 114.685 73.5475 112.789C71.0672 111.091 67.4058 110.104 62.9963 109.946C62.6026 109.946 62.2089 109.946 61.7758 109.946Z" fill="#202251"/>
<path d="M70.8703 124.793C70.5553 126.926 68.9018 128.86 66.4609 130.045L65.5947 122.148C65.1223 117.725 67.012 113.895 69.9254 113.579L70.8703 123.688C70.9097 124.043 70.9097 124.438 70.8703 124.793Z" fill="#202251"/>
<path d="M52.5238 126.807C53.2719 128.821 55.3191 130.321 57.9569 130.993L57.0908 123.095C56.6183 118.673 53.9018 115.356 50.9884 115.711L52.2876 125.78C52.2876 126.136 52.3664 126.491 52.5238 126.807Z" fill="#202251"/>
<path d="M61.1459 120.529C61.1459 120.529 64.3742 123.806 64.7285 127.241C65.0829 130.282 62.3663 131.664 62.3663 131.664C62.3663 131.664 59.453 130.914 59.0986 127.873C58.7049 124.398 61.1459 120.529 61.1459 120.529Z" fill="#202251"/>
<path d="M44.571 99.6399C46.1458 100.588 48.1143 101.14 49.886 101.654C51.8151 102.207 53.7442 102.641 55.7128 102.957C59.4529 103.549 63.2718 103.786 67.012 103.549C73.2718 103.115 79.8072 101.219 84.3742 96.7179C84.6104 96.4809 84.2561 96.0071 83.9805 96.244C78.823 99.9163 72.7994 101.575 66.5395 101.97C62.8781 102.167 59.1773 101.97 55.5946 101.338C53.8624 101.022 52.1694 100.627 50.4765 100.153C48.6655 99.6399 46.8545 98.8502 45.0435 98.3763C44.2954 98.1789 43.9017 99.245 44.571 99.6399Z" fill="#202251"/>
<path d="M93.9412 92.2161C93.9412 92.2161 84.0987 99.6397 70.5947 102.127C60.1223 104.062 48.5081 102.088 35.4766 93.7956C9.72859 77.4479 13.2325 63.6669 13.2325 63.6669C13.2325 63.6669 13.9806 58.731 17.1695 53.7556C20.3585 48.7802 19.5317 43.1731 29.0987 34.4859C38.6656 25.7987 44.1774 25.0879 44.1774 25.0879L62.7207 21.1787L79.7286 24.851L96.6577 36.3813L103.547 47.0428L106.973 51.6233L108.272 55.6905L109.335 66.7864L106.658 73.5782L95.8703 88.2279L93.9412 92.2161Z" fill="white"/>
<path d="M17.1695 53.7163C12.5238 56.7568 11.9332 63.6276 12.5632 68.6425C13.2718 74.2102 16.1065 79.304 20.7915 82.4235C21.5002 82.8973 22.1301 81.7127 21.4214 81.2784C17.1301 78.4353 14.5317 73.6573 13.8624 68.603C13.2718 64.1014 13.6262 57.5861 17.8387 54.822C18.5868 54.3876 17.8781 53.2425 17.1695 53.7163Z" fill="#202251"/>
<path d="M35.4766 93.164C27.9175 89.0573 21.697 82.9368 19.0593 74.605C16.3821 66.1152 17.0907 57.3096 20.3191 49.0963C21.2246 46.7665 22.5238 44.6737 23.6655 42.4624C24.8073 40.2511 26.2246 38.1188 27.8388 36.2234C30.3191 33.3804 33.5081 30.8137 36.8152 28.9973C40.3585 27.0624 44.3348 25.7198 48.2325 24.6142C55.4372 22.6004 63.1537 21.6922 70.5553 23.0347C78.5474 24.4957 86.3427 28.8393 92.4451 34.1306C97.327 38.3163 101.225 43.6075 103.193 49.7675C105.083 55.6116 105.24 61.8901 104.414 67.9316C103.902 71.446 103.193 75.0393 101.894 78.3168C100.477 81.9101 98.39 85.227 95.9096 88.1491C92.6813 91.9004 88.7837 95.2173 84.4136 97.626C84.1774 97.7445 83.9411 97.8629 83.7049 97.9814C82.9569 98.3763 83.6262 99.4819 84.4136 99.087C87.8781 97.3496 91.1065 94.8224 93.9018 92.1373C99.6104 86.6881 103.351 79.9752 104.965 72.2752C106.303 65.9573 106.736 59.3629 105.437 52.966C104.138 46.6875 101.028 40.9224 96.6577 36.2629C91.1852 30.4188 83.7443 25.6804 76.1852 23.0742C68.4687 20.3891 60.0829 20.547 52.1695 22.2055C46.9333 23.2716 41.8152 25.0091 37.012 27.3388C34.8073 28.405 32.76 29.9055 30.8309 31.4455C26.8152 34.6834 24.138 38.6716 21.7364 43.1732C20.4766 45.5029 19.2955 47.7537 18.4293 50.2809C17.6419 52.5316 17.012 54.8614 16.5789 57.2306C15.8703 61.3768 15.8309 65.6414 16.5396 69.7875C17.2089 73.6573 18.4293 77.606 20.4372 81.0019C22.6026 84.7137 25.6341 87.8727 29.0199 90.4788C30.8703 91.9004 32.7994 93.1245 34.8467 94.2301C35.5947 94.7434 36.2246 93.5588 35.4766 93.164Z" fill="#202251"/>
<path d="M33.3112 84.99C29.0986 80.0936 26.2639 74.0521 24.9253 67.7341C23.5474 61.2977 23.2718 53.7557 27.5238 48.3459C32.012 42.6598 39.0986 40.3695 45.8309 38.6716C53.1537 36.8157 60.5553 36.1049 68.075 35.9864C75.5946 35.868 83.7049 35.5126 89.571 41.0013C94.3348 45.4634 96.5789 51.8208 97.0907 58.1782C97.6813 65.6018 96.9726 73.3413 93.4687 80.0146C90.4765 85.6613 85.5159 90.3603 79.2954 92.0977C75.2797 93.2034 70.949 93.5982 66.8151 94.0721C62.5631 94.5459 58.2324 94.7434 53.9805 94.388C46.2639 93.7167 38.5474 90.9131 33.3112 84.99C32.76 84.3582 31.8545 85.3059 32.4057 85.9377C43.1537 98.0998 61.0277 96.5203 75.4372 94.1905C78.9017 93.6377 82.2088 92.7295 85.2009 90.8736C87.9962 89.1362 90.4372 86.8064 92.3663 84.1608C96.8151 78.1193 98.508 70.5377 98.5868 63.1141C98.6261 56.2434 97.5631 49.4121 93.5868 43.6864C91.6576 40.8828 89.0986 38.4741 86.0671 36.9736C82.4057 35.1572 78.3112 34.7228 74.2954 34.6834C66.3033 34.6044 58.1931 34.8018 50.3191 36.3418C43.1537 37.6844 35.2797 39.6193 29.5316 44.3972C26.8939 46.569 24.7679 49.3726 23.6655 52.65C22.5631 56.0064 22.5631 59.7577 22.8781 63.2326C23.4687 69.827 25.6734 76.3818 29.3348 81.91C30.2403 83.3316 31.2639 84.6346 32.3663 85.9377C32.9568 86.5695 33.8624 85.6218 33.3112 84.99Z" fill="#202251"/>
<path d="M104.02 49.7281C106.855 50.281 107.917 53.0845 108.311 55.6512C108.666 57.981 108.862 60.3897 108.862 62.7194C108.862 67.4579 107.603 72.5517 103.39 75.2369C102.681 75.6712 103.351 76.8163 104.099 76.3425C108.902 73.302 110.28 67.4974 110.201 62.1666C110.122 57.6256 110.122 49.5307 104.374 48.4251C103.469 48.3066 103.193 49.5702 104.02 49.7281Z" fill="#202251"/>
<path d="M95.0435 60.9424C94.5317 54.9008 92.3663 48.8988 87.76 44.6736C87.6419 44.5552 87.5238 44.4762 87.445 44.3972C88.0356 45.3054 88.2325 46.2926 88.0356 47.2008C87.3663 50.0834 82.4844 51.3865 77.1695 50.1229C71.8545 48.8593 68.075 45.5029 68.7836 42.6203C69.0592 41.3962 70.1616 40.409 71.697 39.8562C70.1616 39.8562 68.6261 39.8562 67.1301 39.8957C59.9254 39.9747 52.7994 40.6459 45.7915 42.3439C39.3348 43.9234 32.5238 46.0952 28.2324 51.4259C24.1379 56.5198 24.4529 63.7065 25.7915 69.7875C27.0907 75.7895 29.8072 81.5152 33.9017 86.1747C38.9411 91.7818 46.382 94.467 53.7836 95.1383C57.8781 95.4936 62.012 95.2962 66.1065 94.8618C70.0828 94.467 74.2167 94.0721 78.075 93.0454C84.0199 91.4265 88.7836 87.0039 91.6576 81.6731C95.0041 75.3157 95.6734 67.9711 95.0435 60.9424Z" fill="#202251"/>
<path d="M82.3664 67.0235C80.2798 72.6306 65.5947 70.7747 58.705 73.5783C67.8782 65.4045 69.2955 62.5219 73.1144 57.586C76.9333 52.6501 81.8152 55.6906 88.6656 52.0183C95.516 48.346 92.4845 46.8455 96.9333 40.6855C100.477 35.7891 111.382 31.9588 116.382 30.6558C113.666 32.0773 107.524 35.6706 104.768 38.8691C101.343 42.8573 102.839 50.0835 95.1616 54.9404C87.4451 59.8368 85.0042 60.0342 82.3664 67.0235Z" fill="white"/>
<path d="M58.7049 74.1707C58.5081 74.1707 58.3112 74.0523 58.1931 73.8943C58.0356 73.6574 58.075 73.302 58.3112 73.1046C65.7128 66.5102 67.9963 63.3907 70.6734 59.7974C71.3034 58.9682 71.9333 58.0994 72.6419 57.1517C74.9254 54.1902 77.5238 53.9138 80.5553 53.5584C82.8388 53.282 85.4372 53.0056 88.39 51.4261C92.3664 49.2938 92.7994 48.0302 93.5475 45.9374C94.0593 44.5158 94.6498 42.7784 96.4608 40.2907C100.083 35.2758 110.988 31.4061 116.225 30.0635C116.54 29.9846 116.815 30.1425 116.933 30.4189C117.051 30.6953 116.933 31.0112 116.658 31.1692C113.862 32.6302 107.878 36.1446 105.201 39.2641C103.981 40.6461 103.39 42.581 102.799 44.5948C101.697 48.1882 100.437 52.2948 95.4372 55.4538C93.9412 56.4015 92.6419 57.1517 91.5396 57.823C86.8939 60.5871 84.9648 61.7323 82.9175 67.1815L82.3664 66.9841L82.9175 67.1815C81.5002 70.9723 75.4372 71.6041 68.9805 72.2358C65.2797 72.6307 61.4608 72.9861 58.9018 74.0523C58.8624 74.1312 58.7837 74.1707 58.7049 74.1707ZM111.461 32.8276C106.225 34.6835 99.9254 37.6056 97.4057 41.041C95.7128 43.3707 95.1616 44.9502 94.6498 46.3717C93.8624 48.583 93.3112 50.202 88.9412 52.5317C85.7916 54.2297 83.075 54.5456 80.6734 54.7825C77.7994 55.0984 75.5553 55.3748 73.5868 57.902C72.8782 58.8102 72.2482 59.6789 71.6183 60.5082C69.1774 63.8251 67.0514 66.7076 61.1065 72.1569C63.4687 71.6041 66.1852 71.3276 68.9018 71.0512C74.6892 70.4589 80.6734 69.8666 81.8152 66.7471C84.0199 60.903 86.1853 59.6 90.949 56.7964C92.0908 56.1251 93.3506 55.3748 94.8467 54.4271C99.453 51.5051 100.634 47.6353 101.697 44.2394C102.366 42.1071 102.996 40.0538 104.335 38.4743C105.949 36.5789 108.823 34.4861 111.461 32.8276Z" fill="#202251"/>
<path d="M34.5317 68.9977C36.4215 74.368 46.4608 71.2485 51.4215 73.4203C44.4136 66.0757 43.1931 63.351 40.1616 58.731C37.1301 54.1505 33.9805 57.6254 28.9412 54.5454C23.9018 51.5049 25.8703 49.728 22.2876 44.0023C19.4136 39.4218 11.579 36.5787 8.03564 35.7495C10.0435 36.9341 14.5711 39.9746 16.7364 42.8967C19.453 46.569 18.9805 53.8741 24.6892 58.0598C30.4372 62.3244 32.1695 62.2849 34.5317 68.9977Z" fill="white"/>
<path d="M51.4608 74.0522C51.3821 74.0522 51.3034 74.0522 51.2246 74.0127C49.4136 73.223 46.7758 73.1835 44.2167 73.1045C39.8467 73.0256 35.3191 72.9071 33.9805 69.1953C32.1301 63.9435 30.7128 62.9958 27.2876 60.6661C26.4608 60.0738 25.4766 59.442 24.3742 58.6127C20.6341 55.8881 19.453 51.9394 18.39 48.425C17.7994 46.4507 17.2482 44.5948 16.264 43.2917C14.1774 40.4881 9.76791 37.4871 7.72067 36.3025C7.44508 36.1445 7.36634 35.8286 7.44508 35.5522C7.56319 35.2758 7.83878 35.1179 8.15374 35.1968C11.9333 36.105 19.8467 39.0271 22.7994 43.7261C24.2167 46.0163 24.8073 47.7143 25.2404 49.0568C25.9096 51.0707 26.3427 52.3343 29.2167 54.0717C31.3033 55.3353 33.0356 55.4143 34.6892 55.4538C36.7758 55.5327 38.7837 55.6117 40.6341 58.4153C41.2246 59.284 41.7364 60.0738 42.2089 60.8635C44.3348 64.2199 46.1852 67.1025 51.8152 73.0256C52.012 73.223 52.0514 73.5389 51.8939 73.7758C51.8545 73.9338 51.6577 74.0522 51.4608 74.0522ZM11.9333 37.645C13.8624 39.0666 15.9884 40.883 17.2482 42.6204C18.3112 44.0815 18.9018 46.0558 19.5317 48.1092C20.5159 51.4261 21.6577 55.1774 25.0829 57.665C26.1852 58.4548 27.1301 59.1261 27.9569 59.6789C31.5002 62.0876 33.1144 63.1933 35.0829 68.8399C36.1065 71.762 40.0435 71.8409 44.1774 71.9199C45.9884 71.9594 47.8388 71.9989 49.453 72.2753C44.886 67.3394 43.1537 64.6148 41.1852 61.5348C40.7128 60.7451 40.201 59.9553 39.6104 59.1261C38.075 56.8358 36.6183 56.7963 34.6104 56.7174C32.8782 56.6384 30.949 56.5989 28.5868 55.1379C25.3191 53.1635 24.8073 51.6235 24.0986 49.4912C23.6656 48.1881 23.1144 46.5692 21.7758 44.3974C19.9254 41.3174 15.5947 39.0271 11.9333 37.645Z" fill="#202251"/>
<g clip-path="url(#clip0)">
<path d="M495.954 132.386C495.954 131.67 495.596 130.954 495.238 130.239C497.743 123.083 497.027 112.349 496.312 106.266C497.027 98.7525 498.101 73.3488 482.358 64.7617C463.752 54.3855 445.147 67.624 445.147 67.624C445.147 67.624 435.128 90.5231 444.073 108.771C444.431 109.129 444.431 109.486 444.789 109.844C445.505 116.285 446.578 126.303 449.44 133.101C448.725 134.174 448.367 135.248 448.367 136.321C448.725 139.541 452.661 141.688 457.67 141.33C459.459 141.33 460.89 140.615 462.321 140.257C471.266 138.826 466.972 132.743 469.119 126.661C470.55 122.367 471.266 117 471.266 117C471.266 117 473.771 119.863 476.991 124.156C478.78 126.661 479.138 129.165 479.853 131.67C479.495 132.386 479.495 133.101 479.495 133.817C479.495 135.248 480.927 136.679 482.358 137.752C482.716 138.11 483.073 138.11 483.789 138.468C485.22 138.826 487.009 139.184 488.798 139.184C492.734 138.468 496.312 135.606 495.954 132.386Z" fill="white" stroke="#202251" stroke-width="1.00076" stroke-miterlimit="10"/>
<path d="M482 84.0817C482 84.0817 505.615 75.4946 512.771 67.2652C517.78 61.5405 512.413 57.2469 510.266 56.1735C506.33 54.0267 496.312 60.1093 485.578 69.0542" fill="white"/>
<path d="M482 84.0817C482 84.0817 505.615 75.4946 512.771 67.2652C517.78 61.5405 512.413 57.2469 510.266 56.1735C506.33 54.0267 496.312 60.1093 485.578 69.0542" stroke="#202251" stroke-width="0.887697" stroke-miterlimit="10"/>
<path d="M491.303 64.4036C491.303 64.4036 492.734 74.0641 497.743 76.9265" stroke="#202251" stroke-width="0.969991" stroke-miterlimit="10"/>
<path d="M495.954 60.8254C495.954 60.8254 498.101 72.6328 503.826 74.064" stroke="#202251" stroke-width="0.969991" stroke-miterlimit="10"/>
<path d="M501.679 57.2476C501.679 57.2476 503.826 68.6971 509.55 70.1283" stroke="#202251" stroke-width="0.969991" stroke-miterlimit="10"/>
<path d="M503.826 56.5316C503.468 51.8802 508.477 49.7334 512.055 49.7334C517.78 50.0912 517.78 51.5224 520.284 56.5316C521.716 59.7517 517.064 63.3297 514.56 65.1187" fill="white"/>
<path d="M503.826 56.5316C503.468 51.8802 508.477 49.7334 512.055 49.7334C517.78 50.0912 517.78 51.5224 520.284 56.5316C521.716 59.7517 517.064 63.3297 514.56 65.1187" stroke="#202251" stroke-width="1.10882" stroke-miterlimit="10" stroke-linecap="round" stroke-linejoin="round"/>
<path d="M444.431 87.6607C444.431 87.6607 420.101 79.0735 412.587 71.202C407.22 65.4772 412.587 61.1836 415.092 59.7524C419.028 57.6056 432.266 63.6882 443.358 72.9909" fill="white"/>
<path d="M444.431 87.6607C444.431 87.6607 420.101 79.0735 412.587 71.202C407.22 65.4772 412.587 61.1836 415.092 59.7524C419.028 57.6056 432.266 63.6882 443.358 72.9909" stroke="#202251" stroke-width="0.909881" stroke-miterlimit="10"/>
<path d="M434.771 67.2661C434.771 67.2661 432.982 77.6423 427.973 80.5046" stroke="#202251" stroke-width="0.993963" stroke-miterlimit="10"/>
<path d="M429.404 64.0464C429.404 64.0464 427.257 75.8537 421.532 77.6427" stroke="#202251" stroke-width="0.993963" stroke-miterlimit="10"/>
<path d="M423.679 60.4683C423.679 60.4683 421.532 71.9178 415.807 73.7068" stroke="#202251" stroke-width="0.993963" stroke-miterlimit="10"/>
<path d="M421.532 60.1102C421.532 55.4588 416.523 52.9542 412.945 53.312C407.22 53.6698 406.862 55.101 404.716 60.468C403.284 63.6882 407.936 67.2662 410.798 69.0552" fill="white"/>
<path d="M421.532 60.1102C421.532 55.4588 416.523 52.9542 412.945 53.312C407.22 53.6698 406.862 55.101 404.716 60.468C403.284 63.6882 407.936 67.2662 410.798 69.0552" stroke="#202251" stroke-width="1.13637" stroke-miterlimit="10" stroke-linecap="round" stroke-linejoin="round"/>
<path d="M453.018 92.3116C452.303 85.1556 458.385 81.5777 466.257 80.8621C474.128 80.1465 480.569 82.2933 481.284 89.807C482.358 102.688 468.404 107.339 468.404 107.339C468.404 107.339 454.45 106.266 453.018 92.3116Z" fill="white" stroke="#202251" stroke-width="1.01114" stroke-miterlimit="10"/>
<path d="M475.202 94.1006C475.202 96.2474 473.771 98.0364 471.624 99.4676L469.835 92.3116C468.761 88.3759 470.193 84.7979 472.697 84.0823L474.844 93.385C475.202 93.385 475.202 93.7428 475.202 94.1006Z" fill="#202251"/>
<path d="M458.743 98.0365C459.817 99.8255 461.606 100.899 464.11 101.257L462.321 94.1008C461.248 90.165 458.385 87.3026 455.881 88.0182L458.385 96.9631C458.385 97.6787 458.743 98.0365 458.743 98.0365Z" fill="#202251"/>
<path d="M465.899 91.5964C465.899 91.5964 469.119 94.101 469.835 97.3212C470.55 100.184 468.046 101.615 468.046 101.615C468.046 101.615 465.184 101.257 464.468 98.3946C464.11 95.1744 465.899 91.5964 465.899 91.5964Z" fill="#202251"/>
<path d="M448.367 74.4219C449.798 75.1375 451.945 75.4953 453.376 75.4953C455.165 75.8531 456.954 75.8531 458.743 75.8531C462.321 75.8531 465.899 75.8531 469.119 75.1375C474.844 74.0641 480.569 71.5595 484.147 66.9081C484.505 66.5503 484.147 66.1925 483.789 66.5503C479.495 70.4861 474.128 72.6329 468.404 73.7063C465.184 74.4219 461.606 74.4219 458.385 74.4219C456.596 74.4219 455.165 74.0641 453.734 74.0641C451.945 73.7063 450.156 73.3485 448.367 72.9907C448.009 72.9907 447.651 74.0641 448.367 74.4219Z" fill="#202251"/>
<path d="M492.734 61.8985C492.734 61.8985 484.505 69.77 472.34 73.7058C463.037 76.5682 451.945 76.2104 439.064 70.1278C413.661 58.3205 415.092 45.0819 415.092 45.0819C415.092 45.0819 415.092 40.4306 417.596 35.4214C420.101 30.4122 418.67 25.403 426.184 16.4581C433.697 7.51314 439.064 6.08195 439.064 6.08195L455.523 0.357178L471.982 1.78837L488.798 10.3755L496.312 19.3205L499.89 23.2563L501.679 26.8342L503.826 36.8526L502.037 43.293L493.807 57.9627L492.734 61.8985Z" fill="white"/>
<path d="M417.954 35.4222C414.018 38.6424 414.376 45.0827 415.45 49.7341C416.881 54.7433 419.743 59.0369 424.752 61.5414C425.468 61.8992 425.826 60.8258 425.11 60.468C420.817 58.3213 417.954 54.3855 416.881 49.7341C415.807 45.7983 415.45 39.7158 419.028 36.8534C419.385 35.78 418.67 35.0644 417.954 35.4222Z" fill="#202251"/>
<path d="M439.422 69.4126C431.908 66.5502 425.468 61.5411 422.248 54.3851C418.67 46.8713 418.312 38.642 420.459 30.7704C420.817 28.6236 421.89 26.4769 422.606 24.3301C423.321 22.1833 424.395 20.0365 425.826 18.2475C427.615 15.3851 430.477 12.5227 433.339 10.7337C436.202 8.22915 439.78 6.79795 443 5.36676C449.44 2.50438 456.239 1.07318 463.395 1.43098C470.908 1.78878 478.422 5.00896 484.862 8.94474C489.872 12.1649 494.165 16.4585 496.67 21.8255C499.174 26.8347 499.89 32.5594 499.89 38.2842C499.89 41.5044 499.532 45.0824 498.817 47.9447C498.101 51.5227 496.312 54.7429 494.523 57.6053C492.018 61.5411 488.798 64.7613 485.22 67.6236C484.862 67.6236 484.862 67.9814 484.505 67.9814C483.789 68.3392 484.505 69.4126 485.22 69.0548C488.083 66.908 490.945 64.4035 493.092 61.5411C497.743 55.8163 500.248 49.3759 500.963 42.22C501.321 36.1374 500.963 30.0548 499.174 24.6879C497.028 18.9631 493.45 14.3117 488.798 10.3759C483.073 5.72456 475.56 2.14658 468.404 0.715386C460.89 -0.715807 453.376 0.357588 446.22 2.50438C441.569 3.93557 436.917 6.08236 432.982 8.94474C431.193 10.0181 429.404 11.8071 427.615 13.5961C424.395 17.1741 422.248 21.1099 420.459 25.4035C420.101 27.5502 419.385 29.697 418.67 32.2016C418.312 34.3484 417.954 36.4952 417.954 38.642C417.596 42.5778 418.312 46.5135 419.385 50.4493C420.459 53.6695 421.89 57.2475 424.037 60.1099C426.541 63.3301 429.761 65.8346 432.982 67.6236C434.771 68.697 436.917 69.7704 438.706 70.486C439.422 70.8438 440.138 69.7704 439.422 69.4126Z" fill="#202251"/>
<path d="M436.202 62.2563C431.908 58.3205 428.33 52.9536 426.541 47.5866C424.394 41.8618 423.321 35.0637 426.541 29.6967C430.119 23.9719 436.202 21.1095 442.284 18.6049C448.725 16.1004 455.523 14.6692 462.321 13.5958C469.119 12.5224 476.633 11.449 482.716 15.7426C487.725 19.3205 490.229 24.6875 491.661 30.4123C493.092 37.2105 493.45 44.3664 490.945 50.8068C488.798 56.1738 484.862 61.1829 479.495 63.3297C475.917 64.7609 471.982 65.8343 468.404 66.5499C464.468 67.6233 460.532 68.3389 456.596 68.3389C449.083 68.6967 441.927 66.9077 436.202 62.2563C435.486 61.8985 434.771 62.6141 435.486 63.3297C446.578 73.3481 463.037 69.7701 475.917 65.8343C479.138 64.7609 482 63.6875 484.505 61.5407C487.009 59.7517 488.798 57.2472 490.229 54.3848C493.45 48.3022 494.165 41.1462 493.45 34.3481C492.734 27.9077 490.945 21.8251 486.651 17.1738C484.505 14.6692 482 12.8802 479.138 11.8068C475.56 10.7334 471.624 10.7334 468.046 11.0912C460.532 11.8068 453.376 12.8802 446.22 15.3848C439.78 17.8894 432.982 20.3939 428.33 25.4031C426.183 27.9077 424.394 30.7701 423.679 33.6325C422.963 36.8527 423.321 40.4306 424.037 43.293C425.468 49.3756 427.972 55.1004 431.908 59.7517C432.982 60.8251 434.055 61.8985 435.128 62.9719C436.202 63.6875 436.917 62.6141 436.202 62.2563Z" fill="#202251"/>
<path d="M497.028 21.8256C499.532 22.1834 500.963 24.3302 501.679 26.8348C502.395 28.9816 502.752 31.1284 503.11 33.2752C503.826 37.5688 503.11 42.5779 499.532 45.4403C498.817 45.7981 499.532 46.8715 500.248 46.5137C504.184 42.9357 504.899 37.211 504.184 32.5596C503.468 28.266 502.752 21.11 497.385 20.7522C496.67 20.3945 496.312 21.8256 497.028 21.8256Z" fill="#202251"/>
<path d="M490.229 32.9167C489.156 27.5498 486.294 22.1828 481.642 18.9626C481.642 18.9626 481.284 18.9626 481.284 18.6048C482 19.3204 482.358 20.3938 482 21.1094C481.642 23.9718 477.349 25.7608 472.34 25.0452C467.33 24.3296 463.395 21.825 463.752 19.3204C463.752 18.247 464.826 17.1736 466.257 16.458C464.826 16.458 463.395 16.8158 461.963 17.1736C455.523 18.247 449.083 19.3204 442.642 21.825C437.275 23.9718 431.193 26.8342 427.973 32.2011C424.752 37.2103 425.826 44.0085 427.973 49.3754C429.762 54.7424 432.982 59.7516 437.275 63.3296C442.642 67.9809 449.798 69.4121 456.596 69.0543C460.532 69.0543 464.11 68.3387 468.046 67.2653C471.624 66.5497 475.56 65.4764 478.78 64.403C484.147 62.2562 488.083 57.6048 489.872 52.5956C491.661 46.1553 491.661 39.3571 490.229 32.9167Z" fill="#202251"/>
<path d="M479.138 40.0736C477.706 45.4405 464.11 45.4405 458.028 48.6607C465.541 40.0736 466.615 37.2112 469.477 32.202C472.34 27.1928 477.349 29.3396 483.073 25.4038C489.156 21.4681 486.294 20.3947 489.514 14.3121C492.376 9.30292 501.679 4.65154 506.33 2.86255C503.826 4.29374 498.817 8.58732 496.67 11.8075C493.807 15.7433 496.312 22.1836 489.872 27.5506C483.073 32.9176 480.927 33.2754 479.138 40.0736Z" fill="white" stroke="#202251" stroke-width="1.11454" stroke-linejoin="round"/>
<path d="M435.844 47.5866C438.349 52.238 446.936 48.3022 451.945 49.7334C444.789 44.0086 443.358 41.504 439.78 37.5682C436.202 33.6325 434.055 37.2104 429.046 34.7059C424.037 32.5591 425.468 30.7701 421.532 26.1187C418.312 22.1829 410.798 20.3939 407.578 20.0361C409.725 20.7517 414.018 23.2563 416.523 25.4031C419.385 28.6233 419.743 35.4215 425.468 38.6416C431.193 41.8618 432.624 41.504 435.844 47.5866Z" fill="white" stroke="#202251" stroke-width="1.11454" stroke-linejoin="round"/>
<path d="M458.385 151.349C458.385 151.349 448.009 158.862 448.725 183.908L457.67 173.174C457.67 173.174 455.881 191.422 463.752 201.44L466.257 190.349C466.257 190.349 471.266 211.817 478.78 226.129L484.147 190.706L488.798 200.725C488.798 200.725 495.239 178.899 491.661 172.101L502.752 182.477C502.752 182.477 501.679 150.275 485.936 147.413C474.844 145.624 464.11 146.697 458.385 151.349Z" fill="white"/>
<path d="M465.541 157.431C465.541 157.431 459.817 161.724 460.174 175.679L465.183 169.596C465.183 169.596 464.11 179.972 468.404 185.339L469.835 179.257C469.835 179.257 472.697 191.422 476.991 199.293L480.211 179.614L482.716 185.339C482.716 185.339 486.294 173.174 484.147 169.238L490.229 174.963C490.229 174.963 489.872 157.073 480.927 155.284C474.486 154.211 468.404 154.569 465.541 157.431Z" fill="#202251"/>
</g>
<g clip-path="url(#clip1)">
<path d="M758.5 76.6002C758.5 76.6002 754.7 98.2002 759.9 108.8C763.6 116.2 770 112.5 772.2 110.7C776 107.5 776.9 90.0002 772.1 75.7002" fill="white"/>
<path d="M758.5 76.6002C758.5 76.6002 754.7 98.2002 759.9 108.8C763.6 116.2 770 112.5 772.2 110.7C776 107.5 776.9 90.0002 772.1 75.7002" stroke="#202251" stroke-width="0.9683" stroke-miterlimit="10"/>
<path d="M773.9 83.3001C773.9 83.3001 761.8 77.3001 757.9 82.5001" stroke="#202251" stroke-width="1.0578" stroke-miterlimit="10"/>
<path d="M775 91.6001C775 91.6001 761.2 85.5001 757.3 90.7001" stroke="#202251" stroke-width="1.0578" stroke-miterlimit="10"/>
<path d="M775 100.8C775 100.8 761.2 94.3001 757.3 99.4001" stroke="#202251" stroke-width="1.0578" stroke-miterlimit="10"/>
<path d="M770.9 107.3C777.2 110.9 774.9 116.8 773 118C767.9 121.2 769.6 126 763.6 125.5C757.6 125 753.9 121.1 754.4 115.1C754.7 111.3 757.1 108.3 760.2 106.6" fill="white"/>
<path d="M770.9 107.3C777.2 110.9 774.9 116.8 773 118C767.9 121.2 769.6 126 763.6 125.5C757.6 125 753.9 121.1 754.4 115.1C754.7 111.3 757.1 108.3 760.2 106.6" stroke="#202251" stroke-width="1.2092" stroke-miterlimit="10" stroke-linecap="round" stroke-linejoin="round"/>
<path d="M792.2 70.2001C793.7 77.2001 791 90.8001 794.6 95.0001C799.4 100.6 799.6 106.7 796.6 112.4C788.4 128.1 786 117.1 787.4 138.7C788 147.9 784.5 148.3 776.2 147.6C768.5 146.9 757.1 149 756.1 142.6C754.8 134.9 763 134.6 763 134.6C763 134.6 761.6 120.1 762.8 117.1C764.5 112.9 755.4 118.5 752.8 102.4C751.3 93.0001 753.7 75.0001 760 69.9001" fill="white"/>
<path d="M792.2 70.2001C793.7 77.2001 791 90.8001 794.6 95.0001C799.4 100.6 799.6 106.7 796.6 112.4C788.4 128.1 786 117.1 787.4 138.7C788 147.9 784.5 148.3 776.2 147.6C768.5 146.9 757.1 149 756.1 142.6C754.8 134.9 763 134.6 763 134.6C763 134.6 761.6 120.1 762.8 117.1C764.5 112.9 755.4 118.5 752.8 102.4C751.3 93.0001 753.7 75.0001 760 69.9001" stroke="#202251" stroke-width="1.3091" stroke-miterlimit="10"/>
<path d="M759.6 72.4001C741.9 68.7001 744.2 62.1001 744.2 50.4001C744 33.5001 757.6 19.8001 774.5 19.6001C791.4 19.4001 805.2 33.0001 805.3 49.9001C805.4 60.4001 800.2 69.2001 792.2 74.8001" fill="white"/>
<path d="M759.6 72.4001C741.9 68.7001 744.2 62.1001 744.2 50.4001C744 33.5001 757.6 19.8001 774.5 19.6001C791.4 19.4001 805.2 33.0001 805.3 49.9001C805.4 60.4001 800.2 69.2001 792.2 74.8001" stroke="#202251" stroke-width="1.2472" stroke-miterlimit="10" stroke-linecap="round" stroke-linejoin="round"/>
<path d="M743.8 51.3001C743.7 39.4001 749.4 33.3001 758 32.5001C786.7 29.7001 786.7 40.3001 783.9 52.9001C781.3 64.5001 766 70.4001 757.4 69.9001C743.1 69.2001 743.8 63.1001 743.8 51.3001Z" fill="#202251"/>
<path d="M749.2 32.9002C749.2 32.9002 759.7 23.6002 776.8 29.6002C786 32.8002 796.1 45.5002 783.6 61.8002C774 74.3002 749.6 68.6002 749.6 68.6002" stroke="#202251" stroke-width="1.0578" stroke-miterlimit="10"/>
<path d="M770.5 49.1001C767.9 53.3001 756.1 49.4001 750 50.5001C758.9 45.3001 760.5 43.2001 764.5 39.8001C768.5 36.4001 772 39.7001 778.2 37.9001C784.4 36.0001 782.2 34.3001 786.9 30.0001C790.6 26.6001 800.2 25.3001 804.5 25.1001C802 25.8001 796.4 27.7001 793.6 29.9001C790.1 32.6001 790.1 38.7001 783 41.4001C775.8 44.1001 773.8 43.8001 770.5 49.1001Z" fill="white" stroke="#202251" stroke-width="1.0097" stroke-linejoin="round"/>
<path d="M809 49.6001C809 45.3001 808.1 41.9001 801.2 41.9001C795 41.9001 793.5 45.4001 793.5 49.7001C793.5 54.0001 795.1 57.2001 801.3 57.4001C808.2 57.5001 809 53.9001 809 49.6001Z" fill="white" stroke="#202251" stroke-width="1.4991" stroke-miterlimit="10"/>
<path d="M787.1 135.9L763 135" stroke="#202251" stroke-width="0.8727" stroke-miterlimit="10"/>
<path d="M774.2 75.1001C774.2 75.1001 752.2 75.7001 743 82.9001C736.5 88.0001 741.4 93.5001 743.6 95.3001C747.5 98.4001 764.8 95.7001 777.9 88.2001" fill="white"/>
<path d="M774.2 75.1001C774.2 75.1001 752.2 75.7001 743 82.9001C736.5 88.0001 741.4 93.5001 743.6 95.3001C747.5 98.4001 764.8 95.7001 777.9 88.2001" stroke="#202251" stroke-width="0.9683" stroke-miterlimit="10"/>
<path d="M770.7 91.5002C770.7 91.5002 774.1 78.5002 768.2 75.7002" stroke="#202251" stroke-width="1.0578" stroke-miterlimit="10"/>
<path d="M762.8 94.2001C762.8 94.2001 766 79.4001 760.1 76.6001" stroke="#202251" stroke-width="1.0578" stroke-miterlimit="10"/>
<path d="M753.8 96.2001C753.8 96.2001 757.4 81.4001 751.6 78.6001" stroke="#202251" stroke-width="1.0578" stroke-miterlimit="10"/>
<path d="M746.6 93.4001C744.3 100.3 738 99.2001 736.5 97.6001C732.3 93.2001 728 95.9001 727.3 89.9001C726.6 83.9001 729.7 79.5001 735.7 78.8001C739.5 78.4001 742.9 80.1001 745.2 82.8001" fill="white"/>
<path d="M746.6 93.4001C744.3 100.3 738 99.2001 736.5 97.6001C732.3 93.2001 728 95.9001 727.3 89.9001C726.6 83.9001 729.7 79.5001 735.7 78.8001C739.5 78.4001 742.9 80.1001 745.2 82.8001" stroke="#202251" stroke-width="1.2092" stroke-miterlimit="10" stroke-linecap="round" stroke-linejoin="round"/>
<path d="M713.5 105.8C705.6 105.8 696.7 103.9 686.4 100.1L692.8 94.7999C703 98.5999 710.9 99.9999 717 99.1999C725.8 97.9999 731.7 91.7999 738.6 84.6999C747 75.9999 756.5 66.0999 775.1 61.6999C820.3 51.0999 869.8 85.3999 871.9 86.7999L862.9 90.7999C862.4 90.4999 816.8 58.7999 779.6 67.5999C764.8 71.0999 756.6 79.4999 748.7 87.6999C740.9 95.7999 733.5 103.5 719.7 105.4C717.8 105.7 715.7 105.8 713.5 105.8Z" fill="white" stroke="#202251" stroke-width="1.3418" stroke-miterlimit="10"/>
<path d="M904.4 55.0999H826.6C821.5 55.0999 817.3 59.2999 817.3 64.3999V149.6C817.3 154.7 821.5 158.9 826.6 158.9H904.4C909.5 158.9 913.7 154.7 913.7 149.6V64.3999C913.7 59.2999 909.5 55.0999 904.4 55.0999Z" fill="white" stroke="#202251" stroke-width="0.901" stroke-miterlimit="10"/>
<path d="M904.1 159.3H826.9C821.4 159.3 816.9 155.4 816.9 150.7V63.2999C816.9 58.4999 821.4 54.7 826.9 54.7H904.1C909.6 54.7 914.1 58.5999 914.1 63.2999V150.7C914.1 155.5 909.6 159.3 904.1 159.3ZM827.8 158.5H903.2C908.7 158.5 913.2 154.6 913.2 149.9V64.0999C913.2 59.2999 908.7 55.5 903.2 55.5H827.8C822.3 55.5 817.8 59.3999 817.8 64.0999V149.9C817.8 154.6 822.3 158.5 827.8 158.5Z" fill="#202251" stroke="#202251" stroke-width="0.901" stroke-miterlimit="10"/>
<path d="M891.8 67.5999H837.3C832 67.5999 827.6 71.8999 827.6 77.2999V100.7C827.6 106 831.9 110.4 837.3 110.4H891.8C897.1 110.4 901.5 106.1 901.5 100.7V77.2999C901.5 71.9999 897.1 67.5999 891.8 67.5999Z" fill="#202251"/>
<path d="M856.8 77.7999V80.4999H860.3V81.4999H856.8V84.0999H860.8V85.0999H855.8V76.8999H860.8V77.8999H856.8V77.7999Z" fill="white"/>
<path d="M867.2 81.7V85.1H866.2V81.7C866.2 80.5 865.7 80 864.7 80C863.9 80 863.3 80.4 863.2 81.3V85.1H862.2V79.2H862.9L863.1 79.8C863.5 79.3 864.2 79 865 79C866.4 79.1 867.2 79.8 867.2 81.7Z" fill="white"/>
<path d="M873.6 81.2998V82.4998H869.7V82.7998C869.7 83.8998 870.2 84.4998 871.2 84.4998C872.1 84.4998 872.6 84.0998 872.6 83.3998V83.2998H873.6C873.6 84.5998 872.7 85.2998 871.2 85.2998C869.5 85.2998 868.7 84.2998 868.7 82.7998V81.6998C868.7 80.1998 869.6 79.1998 871.2 79.1998C872.6 79.0998 873.6 79.8998 873.6 81.2998ZM872.6 81.5998V81.2998C872.6 80.3998 872.1 79.8998 871.2 79.8998C870.1 79.8998 869.7 80.4998 869.7 81.5998H872.6Z" fill="white"/>
<path d="M878.1 79.1V80C877.9 80 877.8 79.9 877.6 79.9C876.8 79.9 876 80.4 876 81.3V85H875V79.1H875.7L875.9 79.7C876.3 79.2 877 79 877.7 79C877.9 79.1 878 79.1 878.1 79.1Z" fill="white"/>
<path d="M883.9 79.1999V85.6999C883.9 86.9999 883 87.9999 881.4 87.9999C879.8 87.9999 879.1 87.1999 879 86.1999H880C880.1 86.7999 880.6 87.0999 881.4 87.0999C882.3 87.0999 882.9 86.5999 882.9 85.6999V84.6999C882.5 85.0999 881.9 85.2999 881.2 85.2999C879.8 85.2999 878.9 84.5999 878.9 82.7999V81.5999C878.9 79.7999 879.8 79.0999 881.2 79.0999C882 79.0999 882.6 79.2999 883 79.7999L883.2 79.1999H883.9ZM882.9 82.8999V81.3999C882.8 80.3999 882.3 79.9999 881.3 79.9999C880.3 79.9999 879.8 80.4999 879.8 81.5999V82.6999C879.8 83.7999 880.3 84.2999 881.3 84.2999C882.2 84.2999 882.8 83.8999 882.9 82.8999Z" fill="white"/>
<path d="M890.3 79.2V85.6999C890.3 86.9999 889.5 88 887.8 88C886.3 88 885.6 87.1999 885.5 86.1999H886.5C886.6 86.7999 887 87.0999 887.8 87.0999C888.7 87.0999 889.3 86.5999 889.3 85.6999V84.8C888.9 85.2 888.3 85.4 887.7 85.4C886.4 85.4 885.5 84.5999 885.5 82.7999V79.4H886.5V82.7999C886.5 83.9999 886.9 84.5 887.9 84.5C888.7 84.5 889.3 84.0999 889.3 83.0999V79.4H890.3V79.2Z" fill="white"/>
<path d="M855 96.2999V92.9999C855 91.3999 856.1 90.3999 858.1 90.3999C860.1 90.3999 861.2 91.3999 861.2 92.9999V93.4999H860.1V92.9999C860.1 91.8999 859.5 91.2999 858.1 91.2999C856.7 91.2999 856 91.8999 856 92.9999V96.1999C856 97.2999 856.6 97.8999 858.1 97.8999C859.5 97.8999 860.1 97.2999 860.1 96.1999V95.6999H861.2V96.1999C861.2 97.7999 860.1 98.7999 858.1 98.7999C856.1 98.7999 855 97.8999 855 96.2999Z" fill="white"/>
<path d="M867.7 95.3V98.7H866.7V95.3C866.7 94.2 866.2 93.6 865.2 93.6C864.4 93.6 863.8 94 863.7 94.9V98.7H862.7V89.7H863.7V93.3C864.1 92.9 864.7 92.7 865.4 92.7C866.8 92.7 867.7 93.4 867.7 95.3Z" fill="white"/>
<path d="M874.2 92.7999V98.6999H873.5L873.3 98.0999C872.9 98.5999 872.2 98.7999 871.5 98.7999C870.1 98.7999 869.2 98.0999 869.2 96.2999V95.0999C869.2 93.2999 870.1 92.5999 871.5 92.5999C872.3 92.5999 872.9 92.7999 873.3 93.2999L873.5 92.6999H874.2V92.7999ZM873.2 96.4999V94.9999C873.1 93.9999 872.6 93.5999 871.6 93.5999C870.6 93.5999 870.1 94.0999 870.1 95.1999V96.2999C870.1 97.3999 870.6 97.8999 871.6 97.8999C872.5 97.8999 873.1 97.4999 873.2 96.4999Z" fill="white"/>
<path d="M878.9 92.6999V93.5999C878.7 93.5999 878.6 93.4999 878.4 93.4999C877.6 93.4999 876.8 93.9999 876.8 94.8999V98.5999H875.8V92.6999H876.5L876.7 93.2999C877.1 92.7999 877.8 92.5999 878.5 92.5999C878.7 92.6999 878.8 92.6999 878.9 92.6999Z" fill="white"/>
<path d="M884.7 92.8V99.3C884.7 100.6 883.8 101.6 882.2 101.6C880.6 101.6 879.9 100.8 879.8 99.8H880.8C880.9 100.4 881.4 100.7 882.2 100.7C883.1 100.7 883.7 100.2 883.7 99.3V98.3C883.3 98.7 882.7 98.9 882 98.9C880.6 98.9 879.7 98.2 879.7 96.4V95.2C879.7 93.4 880.6 92.7 882 92.7C882.8 92.7 883.4 92.9 883.8 93.4L884 92.8H884.7ZM883.7 96.5V95C883.6 94 883.1 93.6 882.1 93.6C881.1 93.6 880.6 94.1 880.6 95.2V96.3C880.6 97.4 881.1 97.9 882.1 97.9C883.1 97.9 883.6 97.5 883.7 96.5Z" fill="white"/>
<path d="M891.1 94.8998V96.0998H887.2V96.3998C887.2 97.4998 887.7 98.0998 888.7 98.0998C889.6 98.0998 890.1 97.6998 890.1 96.9998V96.8998H891.1C891.1 98.1998 890.2 98.8998 888.7 98.8998C887 98.8998 886.2 97.8998 886.2 96.3998V95.2998C886.2 93.7998 887.1 92.7998 888.7 92.7998C890.2 92.6998 891.1 93.5998 891.1 94.8998ZM890.1 95.1998V94.8998C890.1 93.9998 889.6 93.4998 888.7 93.4998C887.6 93.4998 887.2 94.0998 887.2 95.1998H890.1Z" fill="white"/>
<path d="M847.5 75C847.1 76.4 846.7 77.7 846.2 79.1C845.7 80.4 845.2 81.7 844.7 83C843.6 85.6 842.4 88.1 841.2 90.6L839.5 88.1C841.8 87.7 844 87.5 846.3 87.3L849.8 87L848 89.8C846.3 92.4 844.6 94.9 842.8 97.4C841.9 98.6 841 99.9 840 101.1C839.1 102.3 838.1 103.5 837 104.7C837.6 103.2 838.2 101.8 838.8 100.4C839.4 99 840.1 97.6 840.8 96.2C842.2 93.4 843.6 90.8 845.1 88.1L846.7 90.6C844.5 91 842.2 91.3 839.9 91.5L836.5 91.8L838.1 88.9C839.5 86.5 840.9 84.1 842.5 81.7C843.3 80.5 844.1 79.4 844.9 78.2C845.7 77.2 846.6 76 847.5 75Z" fill="white"/>
<path d="M684.6 82.3C686.9 90.6 684.6 107 689.2 111.7C695.4 118.1 696 125.3 692.8 132.4C684.2 151.7 680.5 138.8 683.7 164.5C685 175.4 680.9 176.2 670.9 175.9C661.7 175.6 648.2 178.9 646.5 171.4C644.4 162.3 654.1 161.4 654.1 161.4C654.1 161.4 651.3 144.2 652.6 140.6C654.4 135.4 643.9 142.8 639.6 123.8C637.1 112.7 638.7 91 645.9 84.5" fill="white"/>
<path d="M684.6 82.3C686.9 90.6 684.6 107 689.2 111.7C695.4 118.1 696 125.3 692.8 132.4C684.2 151.7 680.5 138.8 683.7 164.5C685 175.4 680.9 176.2 670.9 175.9C661.7 175.6 648.2 178.9 646.5 171.4C644.4 162.3 654.1 161.4 654.1 161.4C654.1 161.4 651.3 144.2 652.6 140.6C654.4 135.4 643.9 142.8 639.6 123.8C637.1 112.7 638.7 91 645.9 84.5" stroke="#202251" stroke-width="1.5656" stroke-miterlimit="10"/>
<path d="M645.8 87.2001C624.5 84.0001 626.8 75.9001 625.8 62.1001C624.4 42.0001 639.7 24.5001 659.8 23.2001C679.9 21.9001 697.4 37.1001 698.7 57.2001C699.5 69.7001 694 80.6001 684.9 87.8001" fill="white"/>
<path d="M645.8 87.2001C624.5 84.0001 626.8 75.9001 625.8 62.1001C624.4 42.0001 639.7 24.5001 659.8 23.2001C679.9 21.9001 697.4 37.1001 698.7 57.2001C699.5 69.7001 694 80.6001 684.9 87.8001" stroke="#202251" stroke-width="1.4916" stroke-miterlimit="10" stroke-linecap="round" stroke-linejoin="round"/>
<path d="M625.4 63.1002C624.4 49.0002 630.8 41.2002 641 39.6002C675 34.3002 675.9 46.8002 673.4 62.1002C671.2 76.1002 653.3 84.2002 643 84.3002C625.9 84.5002 626.4 77.3002 625.4 63.1002Z" fill="#202251"/>
<path d="M630.6 40.8C630.6 40.8 642.5 29 663.3 34.9C674.5 38.1 687.5 52.5 673.7 72.9C663.1 88.5 633.6 83.5 633.6 83.5" stroke="#202251" stroke-width="1.2651" stroke-miterlimit="10"/>
<path d="M657.1 58.6C654.2 63.8 640 59.9 632.7 61.7C642.9 54.9 644.7 52.3 649.2 47.9C653.7 43.6 658.1 47.3 665.4 44.6C672.7 41.9 669.9 40 675.2 34.6C679.4 30.2 690.7 28 695.9 27.5C693 28.5 686.4 31.2 683.2 34C679.2 37.5 679.7 44.8 671.4 48.5C663.2 52.2 660.7 52 657.1 58.6Z" fill="white" stroke="#202251" stroke-width="1.2076" stroke-linejoin="round"/>
<path d="M654.3 94.3001C654.3 94.3001 650.1 120.3 656.5 132.7C661 141.5 668.6 136.9 671.2 134.7C675.7 130.8 676.4 109.9 670.4 92.9001" fill="white"/>
<path d="M654.3 94.3001C654.3 94.3001 650.1 120.3 656.5 132.7C661 141.5 668.6 136.9 671.2 134.7C675.7 130.8 676.4 109.9 670.4 92.9001" stroke="#202251" stroke-width="1.158" stroke-miterlimit="10"/>
<path d="M672.8 102C672.8 102 658.2 95.1 653.7 101.4" stroke="#202251" stroke-width="1.2651" stroke-miterlimit="10"/>
<path d="M674.2 111.9C674.2 111.9 657.6 104.9 653 111.1" stroke="#202251" stroke-width="1.2651" stroke-miterlimit="10"/>
<path d="M674.5 122.9C674.5 122.9 657.9 115.3 653.3 121.6" stroke="#202251" stroke-width="1.2651" stroke-miterlimit="10"/>
<path d="M669.6 130.8C677.1 135 674.5 142.1 672.3 143.6C666.2 147.5 668.4 153.3 661.2 152.7C654 152.1 649.5 147.6 650 140.4C650.3 135.9 653.1 132.3 656.8 130.2" fill="white"/>
<path d="M669.6 130.8C677.1 135 674.5 142.1 672.3 143.6C666.2 147.5 668.4 153.3 661.2 152.7C654 152.1 649.5 147.6 650 140.4C650.3 135.9 653.1 132.3 656.8 130.2" stroke="#202251" stroke-width="1.4461" stroke-miterlimit="10" stroke-linecap="round" stroke-linejoin="round"/>
<path d="M703.2 56.4001C702.9 51.3001 701.5 47.2001 693.3 47.8001C685.9 48.3001 684.3 52.6001 684.7 57.7001C685.1 62.8001 687.1 66.6001 694.6 66.3001C702.8 66.0001 703.5 61.5001 703.2 56.4001Z" fill="white" stroke="#202251" stroke-width="1.7929" stroke-miterlimit="10"/>
<path d="M683.2 161L654.3 161.7" stroke="#202251" stroke-width="1.0438" stroke-miterlimit="10"/>
<path d="M704.5 86.4001L684 88.3001L685 108.7H704.5V86.4001Z" fill="white" stroke="#202251" stroke-width="0.9723" stroke-miterlimit="10"/>
</g>
<defs>
<clipPath id="clip0">
<rect width="117" height="226.128" fill="white" transform="translate(404)"/>
</clipPath>
<clipPath id="clip1">
<rect width="289.6" height="158.1" fill="white" transform="translate(625 19)"/>
</clipPath>
</defs>
</svg>
