<svg width="26" height="25" viewBox="0 0 26 25" fill="none" xmlns="http://www.w3.org/2000/svg">
<circle cx="13.3688" cy="12.5" r="12.5" fill="white"/>
<path fill-rule="evenodd" clip-rule="evenodd" d="M20.0326 7.34184L20.1189 7.85987C20.1241 7.89026 20.2135 8.44211 20.2135 9.31547C20.2133 10.3909 20.0828 11.4625 19.8248 12.5071C19.4753 13.9265 18.8664 15.2704 18.0284 16.4723C17.06 17.8526 15.6602 19.2123 13.6197 20.3014L13.3692 20.4329L13.1196 20.2993C11.0791 19.2085 9.67924 17.8509 8.71086 16.4702C7.87286 15.2682 7.26403 13.9243 6.91447 12.505C6.65645 11.4604 6.52594 10.3888 6.52574 9.31333C6.52574 8.4404 6.61515 7.88812 6.62033 7.85773L6.70672 7.3397C6.72086 7.25454 6.7003 7.1673 6.64955 7.09717C6.5988 7.02704 6.52203 6.97976 6.43611 6.96574C6.3502 6.95172 6.26218 6.9721 6.19142 7.0224C6.12067 7.0727 6.07297 7.1488 6.05882 7.23396L5.97244 7.75198C5.9625 7.81149 5.86921 8.3963 5.86877 9.31333C5.86937 10.4412 6.0067 11.565 6.27781 12.6604C6.64654 14.1567 7.28861 15.5735 8.17225 16.8405C9.19419 18.2987 10.6774 19.7321 12.8081 20.8708L13.2133 21.0875C13.261 21.1131 13.3145 21.1265 13.3688 21.1265C13.4231 21.1265 13.4765 21.1131 13.5243 21.0875L13.9294 20.8708C16.0605 19.7325 17.5434 18.2991 18.5653 16.841C19.449 15.5739 20.091 14.1571 20.4597 12.6608C20.7309 11.5652 20.8682 10.4414 20.8688 9.31333C20.8688 8.3963 20.775 7.81106 20.7655 7.75198L20.6792 7.23396C20.6724 7.19155 20.6572 7.1509 20.6345 7.11433C20.6118 7.07776 20.5821 7.046 20.547 7.02088C20.5118 6.99576 20.472 6.97778 20.4299 6.96796C20.3877 6.95815 20.344 6.95671 20.3013 6.96371C20.2585 6.97071 20.2176 6.98603 20.1809 7.00877C20.1442 7.03151 20.1123 7.06123 20.0872 7.09622C20.0621 7.13121 20.0443 7.17077 20.0347 7.21263C20.0251 7.25449 20.0239 7.29783 20.0313 7.34013L20.0326 7.34184Z" fill="#2E305D"/>
<path fill-rule="evenodd" clip-rule="evenodd" d="M8.4962 6.98991L13.3692 5.51461L18.3505 7.02202C18.3917 7.03447 18.435 7.03877 18.4778 7.03465C18.5207 7.03054 18.5623 7.0181 18.6003 6.99804C18.6383 6.97798 18.6719 6.9507 18.6993 6.91776C18.7267 6.88482 18.7472 6.84685 18.7598 6.80604C18.7723 6.76522 18.7767 6.72235 18.7725 6.67987C18.7684 6.6374 18.7558 6.59615 18.7356 6.55848C18.7153 6.52081 18.6878 6.48747 18.6546 6.46034C18.6214 6.43322 18.5831 6.41285 18.5419 6.40039L13.4646 4.8643C13.4023 4.84536 13.3356 4.84536 13.2733 4.8643L8.30615 6.36786C8.22298 6.39301 8.1533 6.44987 8.11244 6.52594C8.07157 6.60202 8.06287 6.69106 8.08824 6.7735C8.11362 6.85593 8.17099 6.925 8.24774 6.9655C8.32449 7.00601 8.41433 7.01463 8.49749 6.98948L8.4962 6.98991Z" fill="#2E305D"/>
<path fill-rule="evenodd" clip-rule="evenodd" d="M6.09044 7.43732L13.0773 20.9518C13.1046 21.0046 13.1459 21.049 13.1968 21.0802C13.2478 21.1114 13.3063 21.1281 13.3662 21.1286C13.4261 21.1292 13.4849 21.1134 13.5364 21.0832C13.5879 21.0529 13.63 21.0092 13.6582 20.9569L17.9183 13.0594L17.9248 13.047L20.6516 7.43004C20.6892 7.35238 20.6943 7.26305 20.6655 7.18172C20.6368 7.10039 20.5766 7.03371 20.4982 6.99636C20.4199 6.959 20.3298 6.95403 20.2477 6.98253C20.1656 7.01103 20.0984 7.07067 20.0607 7.14834L17.337 12.7567L13.3753 20.1011L6.67441 7.14106C6.65506 7.10262 6.62821 7.06836 6.59541 7.04027C6.56262 7.01218 6.52453 6.99081 6.48335 6.97741C6.44217 6.964 6.39872 6.95882 6.3555 6.96217C6.31229 6.96552 6.27018 6.97733 6.2316 6.99691C6.19302 7.0165 6.15875 7.04347 6.13075 7.07627C6.10276 7.10908 6.08161 7.14705 6.06852 7.18801C6.05544 7.22897 6.05067 7.27209 6.05451 7.31488C6.05835 7.35768 6.07071 7.39929 6.09087 7.43732H6.09044Z" fill="#2E305D"/>
<path fill-rule="evenodd" clip-rule="evenodd" d="M9.43428 13.4544H17.2029C17.2899 13.4544 17.3733 13.4202 17.4347 13.3593C17.4962 13.2983 17.5308 13.2157 17.5308 13.1295C17.5308 13.0433 17.4962 12.9607 17.4347 12.8997C17.3733 12.8388 17.2899 12.8046 17.2029 12.8046H9.43428C9.34733 12.8046 9.26395 12.8388 9.20247 12.8997C9.14099 12.9607 9.10645 13.0433 9.10645 13.1295C9.10645 13.2157 9.14099 13.2983 9.20247 13.3593C9.26395 13.4202 9.34733 13.4544 9.43428 13.4544Z" fill="#2E305D"/>
</svg>
