<svg width="250" height="60" viewBox="0 0 250 60" fill="none" xmlns="http://www.w3.org/2000/svg">
<path d="M129.755 35.7824C129.912 35.7967 130.118 35.8109 130.374 35.8251C130.63 35.8251 130.978 35.8251 131.418 35.8251C133.224 35.8251 134.567 35.3702 135.448 34.4604C136.344 33.5364 136.792 32.25 136.792 30.601C136.792 28.9236 136.358 27.6372 135.491 26.7416C134.624 25.8461 133.281 25.3983 131.461 25.3983C130.665 25.3983 130.096 25.4196 129.755 25.4623V35.7824ZM139.606 30.601C139.606 31.8804 139.407 32.9963 139.009 33.9487C138.611 34.8869 138.043 35.6758 137.304 36.3155C136.579 36.941 135.697 37.4101 134.659 37.7228C133.636 38.0213 132.499 38.1706 131.248 38.1706C130.651 38.1706 129.976 38.1422 129.222 38.0853C128.469 38.0426 127.751 37.9431 127.069 37.7868V23.4366C127.751 23.2802 128.476 23.1807 129.244 23.1381C130.011 23.0954 130.693 23.0741 131.291 23.0741C132.527 23.0741 133.657 23.2234 134.681 23.5219C135.704 23.8062 136.579 24.2611 137.304 24.8865C138.043 25.4978 138.611 26.2796 139.009 27.232C139.407 28.1702 139.606 29.2932 139.606 30.601ZM152.498 32.4135C152.498 33.2948 152.37 34.0979 152.114 34.8229C151.858 35.5479 151.496 36.1662 151.026 36.678C150.557 37.1897 149.989 37.5878 149.321 37.8721C148.667 38.1564 147.942 38.2985 147.146 38.2985C146.35 38.2985 145.625 38.1564 144.971 37.8721C144.317 37.5878 143.755 37.1897 143.286 36.678C142.817 36.1662 142.448 35.5479 142.178 34.8229C141.922 34.0979 141.794 33.2948 141.794 32.4135C141.794 31.5321 141.922 30.7361 142.178 30.0253C142.448 29.3003 142.817 28.682 143.286 28.1702C143.77 27.6585 144.338 27.2676 144.992 26.9975C145.646 26.7132 146.364 26.571 147.146 26.571C147.928 26.571 148.645 26.7132 149.299 26.9975C149.967 27.2676 150.536 27.6585 151.005 28.1702C151.474 28.682 151.837 29.3003 152.093 30.0253C152.363 30.7361 152.498 31.5321 152.498 32.4135ZM149.854 32.4135C149.854 31.3047 149.612 30.4304 149.129 29.7908C148.66 29.1369 147.999 28.8099 147.146 28.8099C146.293 28.8099 145.625 29.1369 145.141 29.7908C144.672 30.4304 144.438 31.3047 144.438 32.4135C144.438 33.5364 144.672 34.4249 145.141 35.0788C145.625 35.7327 146.293 36.0596 147.146 36.0596C147.999 36.0596 148.66 35.7327 149.129 35.0788C149.612 34.4249 149.854 33.5364 149.854 32.4135ZM157.181 32.3921C157.181 33.5293 157.452 34.4249 157.992 35.0788C158.532 35.7185 159.278 36.0383 160.231 36.0383C160.643 36.0383 160.991 36.0241 161.275 35.9957C161.574 35.953 161.816 35.9104 162 35.8677V29.4709C161.773 29.3146 161.467 29.1724 161.083 29.0445C160.714 28.9023 160.316 28.8312 159.889 28.8312C158.951 28.8312 158.262 29.1511 157.821 29.7908C157.395 30.4304 157.181 31.2976 157.181 32.3921ZM164.58 37.6588C164.069 37.8152 163.422 37.9574 162.64 38.0853C161.872 38.2132 161.062 38.2772 160.209 38.2772C159.328 38.2772 158.539 38.1422 157.842 37.8721C157.146 37.602 156.549 37.2182 156.051 36.7206C155.568 36.2089 155.191 35.5976 154.921 34.8869C154.665 34.1619 154.537 33.3517 154.537 32.4561C154.537 31.5748 154.644 30.7787 154.857 30.068C155.085 29.343 155.412 28.7246 155.838 28.2129C156.265 27.7011 156.783 27.3102 157.395 27.0401C158.006 26.7558 158.71 26.6137 159.506 26.6137C160.046 26.6137 160.522 26.6776 160.934 26.8056C161.346 26.9335 161.702 27.0757 162 27.232V21.88L164.58 21.4536V37.6588ZM177.943 32.4135C177.943 33.2948 177.815 34.0979 177.56 34.8229C177.304 35.5479 176.941 36.1662 176.472 36.678C176.003 37.1897 175.434 37.5878 174.766 37.8721C174.112 38.1564 173.387 38.2985 172.591 38.2985C171.795 38.2985 171.07 38.1564 170.416 37.8721C169.763 37.5878 169.201 37.1897 168.732 36.678C168.263 36.1662 167.893 35.5479 167.623 34.8229C167.367 34.0979 167.239 33.2948 167.239 32.4135C167.239 31.5321 167.367 30.7361 167.623 30.0253C167.893 29.3003 168.263 28.682 168.732 28.1702C169.215 27.6585 169.784 27.2676 170.438 26.9975C171.092 26.7132 171.81 26.571 172.591 26.571C173.373 26.571 174.091 26.7132 174.745 26.9975C175.413 27.2676 175.982 27.6585 176.451 28.1702C176.92 28.682 177.282 29.3003 177.538 30.0253C177.808 30.7361 177.943 31.5321 177.943 32.4135ZM175.299 32.4135C175.299 31.3047 175.058 30.4304 174.574 29.7908C174.105 29.1369 173.444 28.8099 172.591 28.8099C171.738 28.8099 171.07 29.1369 170.587 29.7908C170.118 30.4304 169.883 31.3047 169.883 32.4135C169.883 33.5364 170.118 34.4249 170.587 35.0788C171.07 35.7327 171.738 36.0596 172.591 36.0596C173.444 36.0596 174.105 35.7327 174.574 35.0788C175.058 34.4249 175.299 33.5364 175.299 32.4135Z" fill="white"/>
<g clip-path="url(#clip0)">
<path d="M95.4317 16.6434C96.0159 16.1674 96.5569 15.6957 97.2536 15.6005C98.9845 16.44 99.1144 17.9156 97.7123 21.2045C103.688 22.6844 108.444 25.8824 111.56 31.2657C114.381 36.1037 115.234 41.4091 115.282 46.9958H108.92C108.769 45.0528 108.73 43.0665 108.332 41.1019C106.917 34.1045 101.793 29.1755 94.4148 28.1932C89.4469 27.5311 84.8945 28.323 81.121 31.8152C77.8192 34.8704 76.4258 38.9079 75.7594 43.2396C75.569 44.4642 75.4478 45.7019 75.2877 47.0001H68.987C69.1487 43.0393 69.8773 39.1221 71.1507 35.3681C72.499 31.4748 74.783 27.9723 77.8019 25.1684C80.0695 23.6797 83.3929 21.6848 87.3655 21.1872C85.8639 16.9939 85.9028 16.427 87.716 15.6005C88.5835 15.7734 89.3552 16.2642 89.8797 16.9766C90.1653 15.6784 90.1739 14.4754 90.7798 13.4238C91.2125 12.6535 91.7318 11.9828 92.7185 12.0044C93.7051 12.0261 94.1941 12.7141 94.6095 13.4887C95.1288 14.4451 95.2413 15.5053 95.4317 16.6434Z" fill="white"/>
<path d="M88.2483 40.8855C86.037 40.5999 87.0452 38.8905 86.8635 37.8C86.699 36.7961 87.0972 36.1297 88.2742 36.359C89.0575 37.4106 89.0921 39.5699 88.2483 40.8855Z" fill="white"/>
<path d="M97.9806 40.3963C97.7813 40.637 97.4953 40.7896 97.1843 40.8212C96.8734 40.8528 96.5626 40.7608 96.3189 40.5651C95.9987 39.3102 96.1891 37.9903 96.2021 36.7354C96.7516 36.1858 97.2666 36.1815 97.9027 36.6358C98.0687 37.8825 98.0948 39.1439 97.9806 40.3963Z" fill="white"/>
</g>
<defs>
<clipPath id="clip0">
<rect width="46.2988" height="35" fill="white" transform="translate(69 12)"/>
</clipPath>
</defs>
</svg>
