<svg width="250" height="60" viewBox="0 0 250 60" fill="none" xmlns="http://www.w3.org/2000/svg">
<path d="M120.645 36.5691V21.7925H130.133V24.074H123.332V27.7202H129.387V29.9591H123.332V34.2876H130.645V36.5691H120.645ZM136.891 36.7823C136.124 36.7681 135.484 36.6828 134.972 36.5264C134.475 36.3701 134.077 36.1497 133.778 35.8654C133.48 35.5669 133.267 35.2044 133.139 34.778C133.025 34.3373 132.968 33.8398 132.968 33.2854V20.4491L135.548 20.0227V32.795C135.548 33.1077 135.569 33.3707 135.612 33.5839C135.669 33.7971 135.761 33.9819 135.889 34.1383C136.017 34.2805 136.188 34.3942 136.401 34.4795C136.628 34.5505 136.913 34.6074 137.254 34.65L136.891 36.7823ZM143.222 36.7823C142.454 36.7681 141.814 36.6828 141.303 36.5264C140.805 36.3701 140.407 36.1497 140.108 35.8654C139.81 35.5669 139.597 35.2044 139.469 34.778C139.355 34.3373 139.298 33.8398 139.298 33.2854V20.4491L141.878 20.0227V32.795C141.878 33.1077 141.9 33.3707 141.942 33.5839C141.999 33.7971 142.091 33.9819 142.219 34.1383C142.347 34.2805 142.518 34.3942 142.731 34.4795C142.959 34.5505 143.243 34.6074 143.584 34.65L143.222 36.7823ZM148.272 36.5691H145.692V25.4173H148.272V36.5691ZM148.55 22.1549C148.55 22.6383 148.393 23.0221 148.08 23.3064C147.768 23.5907 147.398 23.7328 146.972 23.7328C146.531 23.7328 146.154 23.5907 145.842 23.3064C145.529 23.0221 145.373 22.6383 145.373 22.1549C145.373 21.6574 145.529 21.2665 145.842 20.9822C146.154 20.6979 146.531 20.5557 146.972 20.5557C147.398 20.5557 147.768 20.6979 148.08 20.9822C148.393 21.2665 148.55 21.6574 148.55 22.1549ZM158.963 31.0465C158.963 29.8951 158.7 28.9995 158.174 28.3599C157.662 27.7202 156.831 27.4003 155.679 27.4003C155.438 27.4003 155.182 27.4145 154.912 27.443C154.656 27.4572 154.4 27.4998 154.144 27.5709V33.9464C154.371 34.1028 154.67 34.252 155.04 34.3942C155.423 34.5221 155.828 34.5861 156.255 34.5861C157.193 34.5861 157.875 34.2662 158.302 33.6266C158.743 32.9869 158.963 32.1269 158.963 31.0465ZM161.607 31.0039C161.607 31.8568 161.493 32.6386 161.266 33.3494C161.053 34.0601 160.74 34.6714 160.328 35.1831C159.915 35.6949 159.396 36.0929 158.771 36.3772C158.16 36.6615 157.463 36.8036 156.681 36.8036C156.155 36.8036 155.672 36.7397 155.231 36.6117C154.791 36.4838 154.428 36.3416 154.144 36.1853V40.5138H151.564V25.7798C152.09 25.6377 152.737 25.5026 153.504 25.3747C154.272 25.2467 155.082 25.1828 155.935 25.1828C156.816 25.1828 157.605 25.3178 158.302 25.5879C158.998 25.858 159.588 26.2489 160.072 26.7607C160.569 27.2582 160.946 27.8694 161.202 28.5944C161.472 29.3052 161.607 30.1083 161.607 31.0039ZM167.059 34.714C167.742 34.714 168.239 34.6358 168.552 34.4795C168.865 34.3089 169.021 34.0246 169.021 33.6266C169.021 33.257 168.85 32.9513 168.509 32.7097C168.182 32.468 167.635 32.205 166.867 31.9207C166.398 31.7502 165.965 31.5725 165.567 31.3877C165.183 31.1887 164.849 30.9612 164.564 30.7054C164.28 30.4495 164.053 30.1439 163.882 29.7885C163.726 29.4189 163.648 28.9711 163.648 28.4451C163.648 27.4217 164.024 26.6185 164.778 26.0357C165.531 25.4386 166.555 25.1401 167.848 25.1401C168.502 25.1401 169.127 25.2041 169.725 25.332C170.322 25.4458 170.769 25.5595 171.068 25.6732L170.599 27.7628C170.314 27.6349 169.952 27.5212 169.511 27.4217C169.071 27.3079 168.559 27.2511 167.976 27.2511C167.45 27.2511 167.024 27.3435 166.697 27.5283C166.37 27.6988 166.206 27.9689 166.206 28.3385C166.206 28.5233 166.235 28.6868 166.292 28.829C166.363 28.9711 166.476 29.1061 166.633 29.2341C166.789 29.3478 166.995 29.4686 167.251 29.5966C167.507 29.7103 167.82 29.8311 168.189 29.9591C168.801 30.1865 169.319 30.4139 169.746 30.6414C170.172 30.8546 170.521 31.1034 170.791 31.3877C171.075 31.6578 171.281 31.9705 171.409 32.3259C171.537 32.6813 171.601 33.1077 171.601 33.6052C171.601 34.6714 171.203 35.4816 170.407 36.036C169.625 36.5762 168.502 36.8463 167.038 36.8463C166.057 36.8463 165.268 36.761 164.671 36.5904C164.074 36.434 163.655 36.3061 163.413 36.2066L163.861 34.053C164.245 34.2094 164.699 34.3586 165.225 34.5008C165.766 34.6429 166.377 34.714 167.059 34.714ZM176.612 36.5691H174.032V25.4173H176.612V36.5691ZM176.89 22.1549C176.89 22.6383 176.733 23.0221 176.421 23.3064C176.108 23.5907 175.738 23.7328 175.312 23.7328C174.871 23.7328 174.494 23.5907 174.182 23.3064C173.869 23.0221 173.713 22.6383 173.713 22.1549C173.713 21.6574 173.869 21.2665 174.182 20.9822C174.494 20.6979 174.871 20.5557 175.312 20.5557C175.738 20.5557 176.108 20.6979 176.421 20.9822C176.733 21.2665 176.89 21.6574 176.89 22.1549ZM182.697 34.714C183.38 34.714 183.877 34.6358 184.19 34.4795C184.503 34.3089 184.659 34.0246 184.659 33.6266C184.659 33.257 184.488 32.9513 184.147 32.7097C183.82 32.468 183.273 32.205 182.505 31.9207C182.036 31.7502 181.603 31.5725 181.205 31.3877C180.821 31.1887 180.487 30.9612 180.202 30.7054C179.918 30.4495 179.691 30.1439 179.52 29.7885C179.364 29.4189 179.286 28.9711 179.286 28.4451C179.286 27.4217 179.662 26.6185 180.416 26.0357C181.169 25.4386 182.193 25.1401 183.486 25.1401C184.14 25.1401 184.766 25.2041 185.363 25.332C185.96 25.4458 186.407 25.5595 186.706 25.6732L186.237 27.7628C185.952 27.6349 185.59 27.5212 185.149 27.4217C184.709 27.3079 184.197 27.2511 183.614 27.2511C183.088 27.2511 182.662 27.3435 182.335 27.5283C182.008 27.6988 181.844 27.9689 181.844 28.3385C181.844 28.5233 181.873 28.6868 181.93 28.829C182.001 28.9711 182.114 29.1061 182.271 29.2341C182.427 29.3478 182.633 29.4686 182.889 29.5966C183.145 29.7103 183.458 29.8311 183.827 29.9591C184.439 30.1865 184.957 30.4139 185.384 30.6414C185.81 30.8546 186.159 31.1034 186.429 31.3877C186.713 31.6578 186.919 31.9705 187.047 32.3259C187.175 32.6813 187.239 33.1077 187.239 33.6052C187.239 34.6714 186.841 35.4816 186.045 36.036C185.263 36.5762 184.14 36.8463 182.676 36.8463C181.695 36.8463 180.906 36.761 180.309 36.5904C179.712 36.434 179.293 36.3061 179.051 36.2066L179.499 34.053C179.883 34.2094 180.338 34.3586 180.863 34.5008C181.404 34.6429 182.015 34.714 182.697 34.714Z" fill="white"/>
<path d="M106.651 19.9295C103.166 11.8254 90.3557 9.5597 77.9817 14.8753C65.6076 20.1909 58.4184 30.9965 61.8605 39.1006C65.3462 47.2048 78.1559 49.4705 90.53 44.1548C102.904 38.8392 110.137 27.9901 106.651 19.9295ZM86.2601 35.005C80.0731 37.2707 74.1474 36.7914 73.1017 33.8721C72.056 30.9965 76.2388 26.8137 82.4259 24.548C88.6129 22.2823 94.5385 22.7616 95.5842 25.6809C96.6299 28.5565 92.4907 32.6957 86.2601 35.005Z" fill="white" stroke="white" stroke-width="0.871414" stroke-miterlimit="10"/>
</svg>
