<svg width="71" height="69" viewBox="0 0 71 69" fill="none" xmlns="http://www.w3.org/2000/svg">
<path fill-rule="evenodd" clip-rule="evenodd" d="M35.3731 0C15.8397 0 0 15.8361 0 35.3731C0 51.0019 10.1355 64.2607 24.1903 68.9386C25.9581 69.2661 26.6072 68.1707 26.6072 67.237C26.6072 66.3941 26.5744 63.607 26.5591 60.6512C16.7183 62.791 14.6418 56.4776 14.6418 56.4776C13.0327 52.3896 10.7142 51.3018 10.7142 51.3018C7.5048 49.1064 10.9561 49.1515 10.9561 49.1515C14.5076 49.401 16.3786 52.7973 16.3786 52.7973C19.5335 58.2045 24.6537 56.6411 26.6722 55.7378C26.9897 53.4522 27.9064 51.8911 28.918 51.0078C21.0611 50.1139 12.8013 47.0802 12.8013 33.5262C12.8013 29.6643 14.1831 26.5088 16.4465 24.0316C16.0792 23.1406 14.8685 19.5429 16.7892 14.6699C16.7892 14.6699 19.7596 13.7198 26.5187 18.2963C29.3404 17.5126 32.3664 17.1195 35.3726 17.1055C38.3787 17.119 41.4071 17.512 44.234 18.2963C50.9855 13.7198 53.9518 14.6699 53.9518 14.6699C55.8772 19.5423 54.6665 23.14 54.2992 24.0316C56.5673 26.5088 57.9397 29.6643 57.9397 33.5262C57.9397 47.1124 49.6646 50.1039 41.7878 50.9797C43.0566 52.0774 44.1871 54.2301 44.1871 57.5303C44.1871 62.2632 44.1467 66.0725 44.1467 67.2376C44.1467 68.1789 44.7834 69.2819 46.5759 68.9345C60.6237 64.2519 70.7463 50.9972 70.7463 35.3737C70.7457 15.8361 54.9084 0 35.3731 0Z" fill="white"/>
<path d="M13.3976 50.7873C13.3197 50.9636 13.0432 51.0163 12.7913 50.8951C12.5348 50.7797 12.3907 50.5401 12.4738 50.3638C12.55 50.1828 12.8271 50.1324 13.083 50.2537C13.3402 50.3691 13.4866 50.611 13.3976 50.7873Z" fill="white"/>
<path d="M14.8304 52.3861C14.6617 52.5425 14.3313 52.4699 14.1081 52.2227C13.8762 51.9761 13.8334 51.6463 14.0045 51.4875C14.1784 51.3311 14.4983 51.4044 14.7296 51.651C14.9616 51.9005 15.0067 52.2274 14.8304 52.3861Z" fill="white"/>
<path d="M16.2251 54.4228C16.0083 54.5739 15.6534 54.4327 15.4343 54.1176C15.2176 53.803 15.2176 53.4252 15.4396 53.2747C15.6586 53.1235 16.0083 53.26 16.2303 53.5716C16.4465 53.8915 16.4465 54.2693 16.2251 54.4228Z" fill="white"/>
<path d="M18.1359 56.3914C17.942 56.6052 17.529 56.5478 17.2267 56.2555C16.9175 55.9709 16.8314 55.5655 17.0252 55.3517C17.2221 55.1379 17.6374 55.1977 17.9414 55.487C18.2489 55.7723 18.3426 56.1794 18.1359 56.3914Z" fill="white"/>
<path d="M20.7718 57.5344C20.6857 57.8115 20.2885 57.9374 19.8879 57.8191C19.4872 57.6978 19.226 57.3733 19.3068 57.0939C19.39 56.8145 19.7895 56.6839 20.1931 56.8098C20.5925 56.9305 20.855 57.2521 20.7718 57.5344Z" fill="white"/>
<path d="M23.6666 57.7457C23.6766 58.0374 23.3368 58.2794 22.9163 58.2846C22.4933 58.2946 22.1507 58.058 22.1466 57.7709C22.1466 57.4763 22.4787 57.2373 22.9016 57.2297C23.3222 57.2221 23.6666 57.4564 23.6666 57.7457Z" fill="white"/>
<path d="M26.3606 57.2877C26.4109 57.5718 26.1186 57.8641 25.701 57.9421C25.2904 58.0176 24.9102 57.8413 24.8581 57.5596C24.8071 57.2678 25.1047 56.9755 25.5147 56.9C25.9329 56.8273 26.3073 56.9984 26.3606 57.2877Z" fill="white"/>
</svg>
