<svg width="607" height="234" viewBox="0 0 607 234" fill="none" xmlns="http://www.w3.org/2000/svg">
<g clip-path="url(#clip0)">
<path d="M446.57 42.53H157.87C153.827 42.53 150.55 45.8073 150.55 49.85V181.29C150.55 185.333 153.827 188.61 157.87 188.61H446.57C450.613 188.61 453.89 185.333 453.89 181.29V49.85C453.89 45.8073 450.613 42.53 446.57 42.53Z" fill="white"/>
<path d="M299.73 76.2101L299.67 76.1401H299.58C298.933 76.0501 298.277 76.0501 297.63 76.1401C297.589 76.1461 297.551 76.1635 297.52 76.1901C297.489 76.2153 297.467 76.2507 297.46 76.2901L293.6 88.4301L289.91 76.2601C289.895 76.2217 289.871 76.1874 289.84 76.1601C289.812 76.1338 289.778 76.1163 289.74 76.1101C289.409 76.0642 289.074 76.0408 288.74 76.0401C288.385 76.0385 288.031 76.0619 287.68 76.1101H287.59L287.53 76.1801V76.2701C287.525 76.2999 287.525 76.3303 287.53 76.3601L288.53 79.1301L289.08 80.8901L286.7 88.3701L283.06 76.2301C283.045 76.1916 283.021 76.1574 282.99 76.1301C282.961 76.1058 282.927 76.0886 282.89 76.0801C282.558 76.0342 282.224 76.0108 281.89 76.0101C281.535 76.0085 281.181 76.0319 280.83 76.0801H280.74L280.68 76.1501V76.2401C280.675 76.2699 280.675 76.3003 280.68 76.3301L281.68 79.1001L285.68 91.6601C285.69 91.6955 285.711 91.7269 285.74 91.7501C285.766 91.7782 285.802 91.796 285.84 91.8001C286.171 91.8488 286.505 91.8722 286.84 91.8701C287.175 91.8736 287.509 91.8502 287.84 91.8001C287.873 91.8095 287.907 91.8095 287.94 91.8001C287.972 91.7736 287.996 91.7391 288.01 91.7001L290.39 84.4601L292.65 91.6901C292.665 91.7285 292.689 91.7628 292.72 91.7901C292.747 91.8164 292.782 91.8338 292.82 91.8401C293.151 91.8888 293.485 91.9122 293.82 91.9101C294.155 91.9132 294.489 91.8898 294.82 91.8401C294.857 91.8338 294.892 91.8164 294.92 91.7901C294.949 91.7669 294.97 91.7355 294.98 91.7001L299.98 76.3601C299.985 76.3303 299.985 76.2999 299.98 76.2701L299.73 76.2101Z" fill="#202251"/>
<path d="M307.91 76.25C307.902 76.2136 307.881 76.1815 307.85 76.16C307.822 76.1337 307.788 76.1162 307.75 76.11C307.134 76.0099 306.506 76.0099 305.89 76.11C305.853 76.1185 305.819 76.1357 305.79 76.16C305.76 76.1815 305.738 76.2136 305.73 76.25L300.42 91.58C300.41 91.6091 300.41 91.6408 300.42 91.67C300.411 91.6993 300.411 91.7306 300.42 91.76C300.431 91.7899 300.452 91.8147 300.48 91.83C300.506 91.8356 300.534 91.8356 300.56 91.83C301.186 91.9298 301.824 91.9298 302.45 91.83C302.485 91.8237 302.516 91.8061 302.54 91.78C302.571 91.7566 302.595 91.7256 302.61 91.69L304.02 87.39H309.5L310.93 91.69C310.938 91.7264 310.96 91.7585 310.99 91.78C311.019 91.8043 311.053 91.8214 311.09 91.83C311.729 91.9299 312.381 91.9299 313.02 91.83C313.046 91.8356 313.074 91.8356 313.1 91.83C313.128 91.8147 313.149 91.7899 313.16 91.76C313.169 91.7306 313.169 91.6993 313.16 91.67C313.17 91.6408 313.17 91.6091 313.16 91.58L307.91 76.25ZM308.91 85.48H304.72L306.81 79.12L308.91 85.48Z" fill="#202251"/>
<path d="M322.12 85.49C324.36 85.02 325.5 83.71 325.5 81.59V80.39C325.5 77.51 323.58 76.11 319.64 76.11H315.27C315.244 76.1091 315.218 76.1141 315.193 76.1244C315.169 76.1348 315.148 76.1503 315.13 76.17C315.109 76.1889 315.092 76.212 315.08 76.2378C315.068 76.2635 315.061 76.2915 315.06 76.32V91.65C315.061 91.7007 315.079 91.7498 315.11 91.79C315.141 91.8263 315.183 91.8509 315.23 91.86C315.846 91.96 316.474 91.96 317.09 91.86C317.14 91.8531 317.187 91.8283 317.22 91.79C317.251 91.7498 317.269 91.7007 317.27 91.65V85.72H319.76C321.184 87.5788 322.395 89.5914 323.37 91.72C323.385 91.75 323.405 91.7771 323.43 91.8C323.46 91.8076 323.491 91.8076 323.52 91.8C324.183 91.902 324.857 91.902 325.52 91.8C325.55 91.8076 325.581 91.8076 325.61 91.8L325.67 91.7299C325.676 91.6969 325.676 91.6631 325.67 91.63C325.675 91.6002 325.675 91.5698 325.67 91.54C324.702 89.4046 323.512 87.3768 322.12 85.49ZM323.29 80.69V81.34C323.29 83.34 321.89 83.73 319.64 83.73H317.27V78.12H319.64C321.89 78.12 323.29 78.54 323.29 80.66V80.69Z" fill="#202251"/>
<path d="M334.19 76.12H329.33C329.302 76.119 329.274 76.1239 329.249 76.1342C329.223 76.1445 329.199 76.1601 329.18 76.18C329.142 76.2206 329.12 76.2742 329.12 76.33V91.66C329.119 91.6878 329.124 91.7155 329.134 91.7413C329.144 91.7672 329.16 91.7905 329.18 91.81C329.199 91.8299 329.223 91.8455 329.249 91.8558C329.274 91.8661 329.302 91.871 329.33 91.87H334.19C335.681 91.9635 337.166 91.6157 338.46 90.87C339.002 90.4795 339.435 89.9563 339.717 89.3504C339.999 88.7445 340.121 88.0763 340.07 87.41V80.48C340.07 77.5 338.2 76.12 334.19 76.12ZM337.86 80.82V87.18C337.86 89.35 336.4 89.79 334.19 89.79H331.33V78.12H334.19C336.46 78.12 337.86 78.57 337.86 80.79V80.82Z" fill="#202251"/>
<path d="M351.91 89.8701H345.62V84.8701H350.87C350.912 84.8845 350.958 84.8845 351 84.8701C351.038 84.8403 351.063 84.7975 351.07 84.7501C351.19 84.2066 351.19 83.6435 351.07 83.1001C351.06 83.0563 351.036 83.0173 351 82.99C350.964 82.9591 350.918 82.9415 350.87 82.9401H345.62V78.1201H351.91C351.952 78.1331 351.998 78.1331 352.04 78.1201C352.072 78.0899 352.096 78.0521 352.11 78.0101C352.23 77.4632 352.23 76.8969 352.11 76.3501C352.096 76.308 352.072 76.2702 352.04 76.24C351.998 76.227 351.952 76.227 351.91 76.24H343.62C343.592 76.2391 343.565 76.2439 343.539 76.2542C343.513 76.2646 343.489 76.2802 343.47 76.3C343.45 76.3195 343.435 76.3429 343.424 76.3687C343.414 76.3945 343.409 76.4222 343.41 76.45V91.7801C343.409 91.8079 343.414 91.8356 343.424 91.8614C343.435 91.8872 343.45 91.9106 343.47 91.93C343.489 91.9499 343.513 91.9655 343.539 91.9759C343.565 91.9862 343.592 91.991 343.62 91.99H351.91C351.952 92.0031 351.998 92.0031 352.04 91.99C352.072 91.9599 352.096 91.9221 352.11 91.8801C352.229 91.3264 352.229 90.7537 352.11 90.2C352.101 90.1559 352.076 90.1167 352.04 90.0901C352.041 90.0449 352.03 90.0002 352.007 89.9613C351.984 89.9224 351.95 89.8908 351.91 89.8701Z" fill="#202251"/>
<path d="M367.56 76.1201C367.256 76.072 366.948 76.0486 366.64 76.0501C366.325 76.0488 366.011 76.0722 365.7 76.1201C365.652 76.1275 365.61 76.1525 365.58 76.1901C365.542 76.2271 365.521 76.2774 365.52 76.3301V88.2201L358.81 76.2201L358.74 76.1501C358.714 76.1401 358.686 76.1401 358.66 76.1501C357.97 76.0502 357.27 76.0502 356.58 76.1501C356.53 76.1592 356.485 76.1837 356.45 76.2201C356.436 76.2658 356.436 76.3145 356.45 76.3601V91.6901C356.436 91.7358 356.436 91.7845 356.45 91.8301C356.485 91.8665 356.53 91.891 356.58 91.9001C357.196 92.0002 357.824 92.0002 358.44 91.9001C358.487 91.8911 358.529 91.8664 358.56 91.8301C358.591 91.7899 358.608 91.7409 358.61 91.6901V80.0301L365.22 91.8001C365.231 91.83 365.252 91.8549 365.28 91.8701H365.37C365.735 91.9187 366.102 91.9421 366.47 91.9401C366.834 91.9417 367.199 91.9183 367.56 91.8701C367.608 91.8593 367.651 91.8308 367.68 91.7901C367.698 91.7741 367.712 91.7539 367.721 91.7313C367.73 91.7086 367.733 91.6842 367.73 91.6601V76.3201C367.731 76.2946 367.728 76.2691 367.719 76.245C367.711 76.221 367.697 76.1989 367.68 76.1801C367.649 76.1462 367.606 76.1249 367.56 76.1201Z" fill="#202251"/>
<path d="M272.23 89.1201C271.23 93.1201 267.7 96.5201 262.88 98.3201V82.9201C262.88 74.3201 267.24 67.3501 272.82 67.3501L272.5 87.1201C272.484 87.7947 272.394 88.4655 272.23 89.1201Z" fill="#202251"/>
<path d="M237.3 89.1201C238.3 93.1201 241.84 96.5201 246.65 98.3201V82.9201C246.65 74.3201 242.29 67.3501 236.71 67.3501L237.04 87.0401C237.046 87.7411 237.134 88.4391 237.3 89.1201Z" fill="#202251"/>
<path d="M254.91 78.8501C254.91 78.8501 260.27 85.8501 260.27 92.5601C260.253 94.2708 259.737 95.9392 258.785 97.3605C257.832 98.7817 256.486 99.8938 254.91 100.56C253.334 99.8938 251.988 98.7817 251.035 97.3605C250.083 95.9392 249.567 94.2708 249.55 92.5601C249.55 85.8201 254.91 78.8501 254.91 78.8501Z" fill="#202251"/>
<path d="M409.47 118.35H194.97C185.521 118.35 177.86 126.011 177.86 135.46C177.86 144.91 185.521 152.57 194.97 152.57H409.47C418.92 152.57 426.58 144.91 426.58 135.46C426.58 126.011 418.92 118.35 409.47 118.35Z" fill="white" stroke="#202251" stroke-width="0.66" stroke-miterlimit="10"/>
<path opacity="0.2" d="M194.88 139.13C196.48 139.13 197.28 138.583 197.28 137.488C197.28 137.151 197.207 136.867 197.059 136.636C196.922 136.394 196.733 136.188 196.491 136.02C196.249 135.841 195.97 135.688 195.654 135.562C195.349 135.436 195.022 135.309 194.675 135.183C194.275 135.046 193.896 134.893 193.538 134.725C193.18 134.546 192.87 134.341 192.606 134.109C192.343 133.867 192.133 133.583 191.975 133.257C191.827 132.93 191.754 132.536 191.754 132.072C191.754 131.114 192.08 130.367 192.733 129.83C193.385 129.293 194.285 129.025 195.433 129.025C196.096 129.025 196.696 129.099 197.233 129.246C197.78 129.383 198.18 129.535 198.433 129.704L197.943 130.951C197.722 130.814 197.391 130.683 196.949 130.556C196.517 130.42 196.012 130.351 195.433 130.351C195.138 130.351 194.864 130.383 194.612 130.446C194.359 130.509 194.138 130.604 193.949 130.73C193.759 130.857 193.606 131.02 193.491 131.22C193.385 131.409 193.333 131.635 193.333 131.899C193.333 132.193 193.391 132.441 193.506 132.641C193.622 132.841 193.785 133.02 193.996 133.178C194.206 133.325 194.449 133.462 194.722 133.588C195.006 133.714 195.317 133.841 195.654 133.967C196.128 134.157 196.559 134.346 196.949 134.536C197.349 134.725 197.691 134.951 197.975 135.215C198.27 135.478 198.496 135.794 198.654 136.162C198.812 136.52 198.891 136.957 198.891 137.473C198.891 138.43 198.538 139.167 197.833 139.683C197.138 140.199 196.154 140.457 194.88 140.457C194.449 140.457 194.049 140.425 193.68 140.362C193.322 140.309 193.001 140.246 192.717 140.173C192.433 140.088 192.185 140.004 191.975 139.92C191.775 139.825 191.617 139.746 191.501 139.683L191.959 138.42C192.201 138.557 192.57 138.709 193.064 138.878C193.559 139.046 194.164 139.13 194.88 139.13ZM200.189 136.13C200.189 135.404 200.294 134.772 200.505 134.236C200.715 133.688 200.994 133.236 201.342 132.878C201.689 132.52 202.089 132.251 202.542 132.072C202.994 131.893 203.458 131.804 203.931 131.804C205.037 131.804 205.884 132.151 206.474 132.846C207.063 133.53 207.358 134.578 207.358 135.988C207.358 136.051 207.358 136.136 207.358 136.241C207.358 136.336 207.353 136.425 207.342 136.509H201.721C201.784 137.362 202.031 138.009 202.463 138.451C202.894 138.894 203.568 139.115 204.484 139.115C205 139.115 205.431 139.073 205.779 138.988C206.137 138.894 206.405 138.804 206.584 138.72L206.789 139.952C206.61 140.046 206.295 140.146 205.842 140.252C205.4 140.357 204.895 140.409 204.326 140.409C203.61 140.409 202.989 140.304 202.463 140.094C201.947 139.873 201.521 139.573 201.184 139.194C200.847 138.815 200.594 138.367 200.426 137.851C200.268 137.325 200.189 136.751 200.189 136.13ZM205.826 135.325C205.837 134.662 205.668 134.12 205.321 133.699C204.984 133.267 204.516 133.051 203.916 133.051C203.579 133.051 203.279 133.12 203.016 133.257C202.763 133.383 202.547 133.551 202.368 133.762C202.189 133.972 202.047 134.215 201.942 134.488C201.847 134.762 201.784 135.041 201.752 135.325H205.826ZM212.246 139.162C212.594 139.162 212.899 139.157 213.162 139.146C213.436 139.125 213.662 139.094 213.841 139.052V136.604C213.736 136.551 213.562 136.509 213.32 136.478C213.088 136.436 212.804 136.415 212.467 136.415C212.246 136.415 212.009 136.43 211.757 136.462C211.515 136.494 211.288 136.562 211.078 136.667C210.878 136.762 210.709 136.899 210.573 137.078C210.436 137.246 210.367 137.473 210.367 137.757C210.367 138.283 210.536 138.651 210.873 138.862C211.209 139.062 211.667 139.162 212.246 139.162ZM212.12 131.804C212.709 131.804 213.204 131.883 213.604 132.041C214.015 132.188 214.341 132.404 214.583 132.688C214.836 132.962 215.015 133.293 215.12 133.683C215.225 134.062 215.278 134.483 215.278 134.946V140.078C215.152 140.099 214.973 140.13 214.741 140.173C214.52 140.204 214.267 140.236 213.983 140.267C213.699 140.299 213.388 140.325 213.052 140.346C212.725 140.378 212.399 140.394 212.073 140.394C211.609 140.394 211.183 140.346 210.794 140.252C210.404 140.157 210.067 140.009 209.783 139.809C209.499 139.599 209.278 139.325 209.12 138.988C208.962 138.651 208.883 138.246 208.883 137.773C208.883 137.32 208.972 136.93 209.151 136.604C209.341 136.278 209.594 136.015 209.909 135.815C210.225 135.615 210.594 135.467 211.015 135.372C211.436 135.278 211.878 135.23 212.341 135.23C212.488 135.23 212.641 135.241 212.799 135.262C212.957 135.272 213.104 135.293 213.241 135.325C213.388 135.346 213.515 135.367 213.62 135.388C213.725 135.409 213.799 135.425 213.841 135.436V135.025C213.841 134.783 213.815 134.546 213.762 134.315C213.709 134.072 213.615 133.862 213.478 133.683C213.341 133.493 213.152 133.346 212.909 133.241C212.678 133.125 212.373 133.067 211.994 133.067C211.509 133.067 211.083 133.104 210.715 133.178C210.357 133.241 210.088 133.309 209.909 133.383L209.736 132.167C209.925 132.083 210.241 132.004 210.683 131.93C211.125 131.846 211.604 131.804 212.12 131.804ZM220.749 131.835C220.875 131.835 221.017 131.846 221.175 131.867C221.343 131.878 221.506 131.899 221.664 131.93C221.822 131.951 221.964 131.978 222.091 132.009C222.228 132.03 222.328 132.051 222.391 132.072L222.138 133.351C222.022 133.309 221.828 133.262 221.554 133.209C221.291 133.146 220.949 133.114 220.528 133.114C220.254 133.114 219.98 133.146 219.706 133.209C219.443 133.262 219.27 133.299 219.185 133.32V140.22H217.717V132.357C218.064 132.23 218.496 132.114 219.012 132.009C219.527 131.893 220.106 131.835 220.749 131.835ZM227.376 140.409C226.713 140.409 226.129 140.304 225.624 140.094C225.129 139.883 224.708 139.588 224.36 139.209C224.024 138.83 223.771 138.383 223.602 137.867C223.434 137.341 223.35 136.762 223.35 136.13C223.35 135.499 223.439 134.92 223.618 134.393C223.808 133.867 224.071 133.414 224.408 133.036C224.745 132.646 225.155 132.346 225.639 132.135C226.134 131.914 226.682 131.804 227.282 131.804C227.65 131.804 228.018 131.835 228.387 131.899C228.755 131.962 229.108 132.062 229.445 132.199L229.113 133.446C228.892 133.341 228.634 133.257 228.339 133.193C228.055 133.13 227.75 133.099 227.424 133.099C226.603 133.099 225.971 133.357 225.529 133.872C225.097 134.388 224.881 135.141 224.881 136.13C224.881 136.572 224.929 136.978 225.024 137.346C225.129 137.715 225.287 138.03 225.497 138.294C225.718 138.557 225.997 138.762 226.334 138.909C226.671 139.046 227.082 139.115 227.566 139.115C227.955 139.115 228.308 139.078 228.624 139.004C228.94 138.93 229.187 138.852 229.366 138.767L229.571 139.999C229.487 140.052 229.366 140.104 229.208 140.157C229.05 140.199 228.871 140.236 228.671 140.267C228.471 140.309 228.255 140.341 228.024 140.362C227.803 140.394 227.587 140.409 227.376 140.409ZM231.148 140.22V128.22L232.616 127.967V132.167C232.89 132.062 233.179 131.983 233.485 131.93C233.8 131.867 234.111 131.835 234.416 131.835C235.069 131.835 235.611 131.93 236.043 132.12C236.474 132.299 236.816 132.557 237.069 132.893C237.332 133.22 237.516 133.614 237.622 134.078C237.727 134.541 237.779 135.051 237.779 135.609V140.22H236.311V135.925C236.311 135.42 236.274 134.988 236.2 134.63C236.137 134.272 236.027 133.983 235.869 133.762C235.711 133.541 235.5 133.383 235.237 133.288C234.974 133.183 234.648 133.13 234.258 133.13C234.1 133.13 233.937 133.141 233.769 133.162C233.6 133.183 233.437 133.209 233.279 133.241C233.132 133.262 232.995 133.288 232.869 133.32C232.753 133.351 232.669 133.378 232.616 133.399V140.22H231.148Z" fill="black"/>
<path d="M402.71 138.56C406.167 138.56 408.97 135.757 408.97 132.3C408.97 128.843 406.167 126.04 402.71 126.04C399.253 126.04 396.45 128.843 396.45 132.3C396.45 135.757 399.253 138.56 402.71 138.56Z" stroke="#202251" stroke-width="1.79" stroke-miterlimit="10"/>
<path d="M415.4 144.66L407.28 136.59" stroke="#202251" stroke-width="1.79" stroke-miterlimit="10" stroke-linecap="round"/>
<path d="M75.3701 42.1599L132.83 72.2999" stroke="white" stroke-width="1.15" stroke-miterlimit="10" stroke-linecap="round" stroke-dasharray="3.07 3.07"/>
<path d="M130.34 74.89L137.22 74.61L133.54 68.78L130.34 74.89Z" fill="white"/>
<path d="M58.73 112.79L128.2 114.4" stroke="white" stroke-width="1.15" stroke-miterlimit="10" stroke-linecap="round" stroke-dasharray="3.07 3.07"/>
<path d="M127.11 117.82L133.17 114.51L127.28 110.93L127.11 117.82Z" fill="white"/>
<path d="M71.49 189.92L128.95 159.77" stroke="white" stroke-width="1.15" stroke-miterlimit="10" stroke-linecap="round" stroke-dasharray="3.07 3.07"/>
<path d="M129.66 163.29L133.35 157.46L126.46 157.18L129.66 163.29Z" fill="white"/>
<path d="M530.29 44.9099L474.13 74.7399" stroke="white" stroke-width="1.13" stroke-miterlimit="10" stroke-linecap="round" stroke-dasharray="3.02 3.02"/>
<path d="M473.42 71.28L469.82 77.03L476.6 77.27L473.42 71.28Z" fill="white"/>
<path d="M546.56 114.82L478.67 116.41" stroke="white" stroke-width="1.13" stroke-miterlimit="10" stroke-linecap="round" stroke-dasharray="3.02 3.02"/>
<path d="M479.58 113L473.79 116.53L479.74 119.78L479.58 113Z" fill="white"/>
<path d="M534.08 191.16L477.92 161.33" stroke="white" stroke-width="1.13" stroke-miterlimit="10" stroke-linecap="round" stroke-dasharray="3.02 3.02"/>
<path d="M480.39 158.8L473.61 159.04L477.21 164.79L480.39 158.8Z" fill="white"/>
<path d="M1.32007 110.92C1.32007 104.82 3.74327 98.9698 8.05661 94.6565C12.3699 90.3431 18.2201 87.9199 24.3201 87.9199C30.42 87.9199 36.2702 90.3431 40.5835 94.6565C44.8969 98.9698 47.3201 104.82 47.3201 110.92C47.3201 117.02 44.8969 122.87 40.5835 127.183C36.2702 131.497 30.42 133.92 24.3201 133.92C18.2201 133.92 12.3699 131.497 8.05661 127.183C3.74327 122.87 1.32007 117.02 1.32007 110.92Z" fill="#F1B82F" stroke="white" stroke-width="2.63" stroke-miterlimit="10"/>
<path d="M3.82007 111.12C3.82272 116.588 5.99603 121.831 9.86246 125.698C13.7289 129.564 18.9721 131.737 24.4401 131.74C29.9097 131.74 35.1556 129.568 39.0241 125.701C42.8927 121.834 45.0674 116.59 45.0701 111.12C45.0701 108.411 44.5364 105.729 43.4995 103.227C42.4626 100.724 40.9429 98.4508 39.0271 96.5359C37.1113 94.621 34.837 93.1024 32.3341 92.0667C29.8312 91.0311 27.1488 90.4987 24.4401 90.5C18.9713 90.5 13.7265 92.6725 9.85953 96.5395C5.99253 100.406 3.82007 105.651 3.82007 111.12Z" fill="#F1B82F"/>
<path d="M24.4401 98.03L27.4401 101.03L20.0301 108.44L17.0801 105.44L24.4401 98.03Z" fill="white"/>
<path d="M28.91 102.5L31.86 105.5L19.99 117.37L17.04 114.43L28.91 102.5Z" fill="white"/>
<path d="M15.5201 106.96L18.4601 109.96L15.5201 112.96L12.5701 109.96L15.5201 106.96Z" fill="white"/>
<path d="M33.38 106.96L36.32 109.96L24.45 121.83L21.51 118.89L33.38 106.96Z" fill="white"/>
<path d="M47.1299 47.3401C53.2299 47.3401 59.08 44.9169 63.3933 40.6035C67.7067 36.2902 70.1299 30.4401 70.1299 24.3401C70.1299 18.2401 67.7067 12.39 63.3933 8.07663C59.08 3.76329 53.2299 1.34009 47.1299 1.34009C41.0299 1.34009 35.1798 3.76329 30.8664 8.07663C26.5531 12.39 24.1299 18.2401 24.1299 24.3401C24.1299 30.4401 26.5531 36.2902 30.8664 40.6035C35.1798 44.9169 41.0299 47.3401 47.1299 47.3401Z" fill="#F1B82F" stroke="white" stroke-width="2.63" stroke-miterlimit="10"/>
<path d="M41.56 22.04L47.13 16.46L52.73 22.05L55.97 18.81L47.13 9.96997L38.29 18.81L41.56 22.04ZM32.75 24.33L36 21.09L39.24 24.33L36 27.57L32.75 24.33ZM41.56 26.63L47.13 32.2L52.73 26.61L55.97 29.85L47.13 38.69L38.29 29.85L41.56 26.63ZM55.03 24.33L58.27 21.09L61.51 24.33L58.27 27.57L55.03 24.33ZM50.44 24.33L47.13 27.63L43.83 24.33L44.4 23.76L44.69 23.4799L47.12 21.05L50.44 24.33Z" fill="#202251"/>
<path d="M39.5901 227.91C52.2981 227.91 62.6001 217.608 62.6001 204.9C62.6001 192.192 52.2981 181.89 39.5901 181.89C26.882 181.89 16.5801 192.192 16.5801 204.9C16.5801 217.608 26.882 227.91 39.5901 227.91Z" fill="white" stroke="white" stroke-width="2.63" stroke-miterlimit="10"/>
<path d="M39.7001 225.77C42.4113 225.771 45.0962 225.238 47.601 224.2C50.1059 223.163 52.3815 221.642 54.2977 219.723C56.2139 217.805 57.733 215.528 58.7682 213.022C59.8033 210.517 60.334 207.831 60.3301 205.12C60.3274 199.65 58.1528 194.406 54.2842 190.539C50.4156 186.672 45.1698 184.5 39.7001 184.5C34.2313 184.5 28.9866 186.672 25.1196 190.539C21.2526 194.406 19.0801 199.651 19.0801 205.12C19.0762 207.83 19.6066 210.515 20.6411 213.02C21.6756 215.525 23.1938 217.802 25.1089 219.72C27.0241 221.638 29.2985 223.159 31.8022 224.198C34.3059 225.236 36.9897 225.77 39.7001 225.77Z" fill="white"/>
<path d="M39.7 192.03L42.65 195.03L35.23 202.44L32.29 199.5L39.7 192.03Z" fill="white"/>
<path d="M44.17 196.5L47.11 199.5L35.24 211.37L32.3 208.42L44.17 196.5Z" fill="white"/>
<path d="M30.7801 200.96L33.7201 203.96L30.7801 206.9L27.8301 203.96L30.7801 200.96Z" fill="white"/>
<path d="M48.64 200.96L51.58 203.96L39.71 215.84L36.77 212.89L48.64 200.96Z" fill="white"/>
<path d="M39.59 225.78C45.125 225.78 50.4334 223.581 54.3473 219.667C58.2612 215.753 60.46 210.445 60.46 204.91C60.4613 202.169 59.9224 199.455 58.874 196.922C57.8257 194.389 56.2884 192.088 54.3502 190.15C52.412 188.212 50.1108 186.674 47.5781 185.626C45.0455 184.578 42.331 184.039 39.59 184.04C36.8481 184.037 34.1326 184.575 31.5988 185.623C29.0649 186.671 26.7625 188.208 24.8232 190.146C22.884 192.085 21.3459 194.386 20.2969 196.92C19.2479 199.453 18.7086 202.168 18.71 204.91C18.71 207.652 19.2501 210.366 20.2996 212.899C21.349 215.432 22.8872 217.733 24.8262 219.671C26.7652 221.609 29.0671 223.146 31.6003 224.194C34.1335 225.243 36.8484 225.781 39.59 225.78Z" fill="black"/>
<path d="M39.59 225.78C45.125 225.78 50.4334 223.581 54.3473 219.667C58.2612 215.753 60.46 210.445 60.46 204.91C60.4613 202.169 59.9224 199.455 58.874 196.922C57.8257 194.389 56.2884 192.088 54.3502 190.15C52.412 188.212 50.1108 186.674 47.5781 185.626C45.0455 184.578 42.331 184.039 39.59 184.04C36.8481 184.037 34.1326 184.575 31.5988 185.623C29.0649 186.671 26.7625 188.208 24.8232 190.146C22.884 192.085 21.3459 194.386 20.2969 196.92C19.2479 199.453 18.7086 202.168 18.71 204.91C18.71 207.652 19.2501 210.366 20.2996 212.899C21.349 215.432 22.8872 217.733 24.8262 219.671C26.7652 221.609 29.0671 223.146 31.6003 224.194C34.1335 225.243 36.8484 225.781 39.59 225.78Z" fill="#26A17B"/>
<path d="M39.59 225.78C45.125 225.78 50.4334 223.581 54.3473 219.667C58.2612 215.753 60.46 210.445 60.46 204.91C60.4613 202.169 59.9224 199.455 58.874 196.922C57.8257 194.389 56.2884 192.088 54.3502 190.15C52.412 188.212 50.1108 186.674 47.5781 185.626C45.0455 184.578 42.331 184.039 39.59 184.04C36.8481 184.037 34.1326 184.575 31.5988 185.623C29.0649 186.671 26.7625 188.208 24.8232 190.146C22.884 192.085 21.3459 194.386 20.2969 196.92C19.2479 199.453 18.7086 202.168 18.71 204.91C18.71 207.652 19.2501 210.366 20.2996 212.899C21.349 215.432 22.8872 217.733 24.8262 219.671C26.7652 221.609 29.0671 223.146 31.6003 224.194C34.1335 225.243 36.8484 225.781 39.59 225.78Z" fill="url(#paint0_linear)"/>
<path d="M39.5899 225.12C42.2403 225.121 44.8651 224.6 47.314 223.587C49.763 222.573 51.9881 221.086 53.8622 219.212C55.7364 217.338 57.2228 215.113 58.2365 212.664C59.2502 210.215 59.7712 207.59 59.7699 204.94C59.7712 202.289 59.2502 199.664 58.2367 197.214C57.2231 194.765 55.7369 192.539 53.8629 190.664C51.9888 188.789 49.7638 187.302 47.3148 186.287C44.8658 185.272 42.2408 184.75 39.5899 184.75C34.2352 184.75 29.0998 186.877 25.3134 190.664C21.5271 194.45 19.3999 199.585 19.3999 204.94C19.3999 207.591 19.9222 210.216 20.937 212.665C21.9517 215.114 23.4391 217.339 25.314 219.213C27.189 221.087 29.4148 222.573 31.8643 223.587C34.3138 224.6 36.939 225.121 39.5899 225.12Z" stroke="black" stroke-opacity="0.1" stroke-width="1.27"/>
<path d="M42.2501 206.84C42.1001 206.84 41.3101 206.89 39.5501 206.89C38.1401 206.89 37.1601 206.89 36.8001 206.84C31.3901 206.6 27.3501 205.66 27.3501 204.52C27.3501 203.38 31.3501 202.46 36.8001 202.21V205.88C37.1601 205.88 38.1801 205.96 39.5701 205.96C41.2501 205.96 42.0801 205.9 42.2501 205.88V202.21C47.6501 202.44 51.6701 203.4 51.6701 204.52C51.6701 205.64 47.6501 206.59 42.2501 206.84ZM42.2501 201.84V198.55H49.7801V193.55H29.2601V198.55H36.7901V201.84C30.6701 202.13 26.0601 203.33 26.0601 204.79C26.0601 206.25 30.6701 207.46 36.7901 207.79V218.34H42.2401V207.79C48.3501 207.51 52.9501 206.3 52.9501 204.79C52.9501 203.28 48.3701 202.12 42.2501 201.84Z" fill="black"/>
<path d="M42.2501 206.84C42.1001 206.84 41.3101 206.89 39.5501 206.89C38.1401 206.89 37.1601 206.89 36.8001 206.84C31.3901 206.6 27.3501 205.66 27.3501 204.52C27.3501 203.38 31.3501 202.46 36.8001 202.21V205.88C37.1601 205.88 38.1801 205.96 39.5701 205.96C41.2501 205.96 42.0801 205.9 42.2501 205.88V202.21C47.6501 202.44 51.6701 203.4 51.6701 204.52C51.6701 205.64 47.6501 206.59 42.2501 206.84ZM42.2501 201.84V198.55H49.7801V193.55H29.2601V198.55H36.7901V201.84C30.6701 202.13 26.0601 203.33 26.0601 204.79C26.0601 206.25 30.6701 207.46 36.7901 207.79V218.34H42.2401V207.79C48.3501 207.51 52.9501 206.3 52.9501 204.79C52.9501 203.28 48.3701 202.12 42.2501 201.84Z" fill="white"/>
<path d="M561 50.8801C573.708 50.8801 584.01 40.5782 584.01 27.8701C584.01 15.162 573.708 4.86011 561 4.86011C548.292 4.86011 537.99 15.162 537.99 27.8701C537.99 40.5782 548.292 50.8801 561 50.8801Z" fill="#899DF5" stroke="white" stroke-width="2.63" stroke-miterlimit="10"/>
<path d="M570.34 27.1199C570.475 27.0891 570.617 27.1114 570.736 27.1821C570.855 27.2528 570.942 27.3666 570.98 27.4999L571.43 29.2999C571.446 29.3656 571.449 29.4339 571.439 29.5008C571.429 29.5677 571.405 29.6318 571.37 29.6896C571.334 29.7473 571.288 29.7974 571.233 29.8369C571.178 29.8765 571.116 29.9047 571.05 29.9199C570.914 29.9511 570.77 29.9292 570.65 29.8586C570.529 29.788 570.44 29.6741 570.4 29.54L569.95 27.7399C569.92 27.606 569.944 27.4658 570.017 27.3496C570.09 27.2335 570.206 27.1509 570.34 27.1199ZM556.11 13.8599C556.037 13.7454 556.013 13.6071 556.041 13.4745C556.069 13.3418 556.147 13.2254 556.26 13.1499L557.87 12.1499C557.99 12.0804 558.132 12.0572 558.268 12.0848C558.405 12.1125 558.526 12.189 558.61 12.2999C558.682 12.4145 558.707 12.5528 558.679 12.6854C558.651 12.8181 558.572 12.9345 558.46 13.01L556.85 14.01C556.729 14.0795 556.588 14.1027 556.451 14.0751C556.315 14.0474 556.194 13.9709 556.11 13.8599Z" fill="white"/>
<path d="M559.59 10.44C557.28 10.407 554.986 10.8293 552.839 11.6828C550.693 12.5364 548.735 13.8045 547.078 15.4147C545.422 17.0249 544.098 18.9457 543.184 21.0674C542.27 23.189 541.783 25.47 541.75 27.78C541.783 30.0901 542.27 32.371 543.184 34.4927C544.098 36.6143 545.422 38.5351 547.078 40.1453C548.735 41.7555 550.693 43.0237 552.839 43.8772C554.986 44.7308 557.28 45.1531 559.59 45.12C564.254 45.1841 568.752 43.3935 572.095 40.1418C575.439 36.8901 577.354 32.4436 577.42 27.78C577.354 23.1165 575.439 18.67 572.095 15.4183C568.752 12.1666 564.254 10.3759 559.59 10.44Z" fill="#E5E5E5"/>
<path d="M561.07 7.55005C549.57 7.55005 540.27 16.6101 540.27 27.7801C540.27 38.9501 549.58 48.0101 561.07 48.0101C572.56 48.0101 581.91 38.9401 581.91 27.7801C581.91 16.6201 572.57 7.55005 561.07 7.55005Z" fill="#E5E5E5"/>
<path fill-rule="evenodd" clip-rule="evenodd" d="M561.07 7.55005C549.57 7.55005 540.27 16.6101 540.27 27.7801C540.27 38.9501 549.58 48.0101 561.07 48.0101C572.56 48.0101 581.91 38.9401 581.91 27.7801C581.91 16.6201 572.57 7.55005 561.07 7.55005ZM560.8 41.1901L552.58 29.8801L560.8 34.5601V41.1901ZM552.53 28.1901L560.8 32.9101V24.67L552.53 28.1901ZM560.8 24.1001L552.8 27.5101L560.8 14.42V24.1001ZM569.47 27.5601L561.34 14.42V24.1201L569.47 27.5601ZM561.34 41.2V34.5701L569.56 29.89L561.34 41.2ZM561.34 24.6601V32.9001L569.63 28.1801L561.34 24.6601Z" fill="#899DF5"/>
<path d="M581.9 135.73C594.608 135.73 604.91 125.428 604.91 112.72C604.91 100.012 594.608 89.71 581.9 89.71C569.192 89.71 558.89 100.012 558.89 112.72C558.89 125.428 569.192 135.73 581.9 135.73Z" fill="#F5911B" stroke="white" stroke-width="2.63" stroke-miterlimit="10"/>
<path d="M602.5 117.82C601.83 120.51 600.636 123.042 598.987 125.271C597.339 127.5 595.267 129.382 592.891 130.81C590.514 132.239 587.88 133.185 585.138 133.595C582.396 134.005 579.6 133.871 576.91 133.2C574.219 132.53 571.686 131.336 569.456 129.686C567.227 128.037 565.344 125.964 563.915 123.587C562.487 121.209 561.541 118.574 561.132 115.831C560.723 113.088 560.858 110.291 561.53 107.6C562.199 104.908 563.392 102.374 565.041 100.143C566.69 97.9122 568.763 96.0283 571.14 94.599C573.518 93.1697 576.154 92.223 578.897 91.8131C581.641 91.4031 584.439 91.538 587.13 92.2099C589.822 92.8811 592.354 94.0762 594.584 95.7268C596.813 97.3774 598.695 99.4511 600.123 101.83C601.55 104.208 602.495 106.844 602.903 109.588C603.311 112.332 603.174 115.129 602.5 117.82Z" fill="#F5911B"/>
<path d="M591.32 109.69C591.74 106.88 589.6 105.37 586.67 104.36L587.67 100.55L585.35 99.9699L584.42 103.68L582.57 103.24L583.5 99.5099L581.18 98.9299L580.18 102.74L575.5 101.58L574.88 104.06C574.88 104.06 576.6 104.45 576.57 104.47C576.891 104.508 577.185 104.67 577.387 104.923C577.589 105.176 577.684 105.498 577.65 105.82L575.05 116.25C574.981 116.465 574.83 116.645 574.63 116.749C574.43 116.854 574.196 116.876 573.98 116.81L572.3 116.38L571.15 119.05L575.82 120.23L574.91 124.12L577.22 124.7L578.22 120.89L580.07 121.36L579.12 125.16L581.44 125.74L582.44 121.89C586.44 122.64 589.37 122.33 590.62 118.76C591.62 115.89 590.57 114.23 588.49 113.14C589.297 112.984 590.03 112.565 590.573 111.948C591.116 111.33 591.438 110.55 591.49 109.73L591.32 109.69ZM586.03 117.12C585.31 120 580.46 118.44 578.89 118.06L580.17 112.95C581.73 113.34 586.77 114.12 586.03 117.12ZM586.74 109.65C586.09 112.27 582.06 110.94 580.74 110.65L581.89 106.02C583.2 106.35 587.41 106.95 586.73 109.69" fill="white"/>
<path d="M564.12 231.86C570.22 231.86 576.07 229.437 580.384 225.124C584.697 220.81 587.12 214.96 587.12 208.86C587.12 202.76 584.697 196.91 580.384 192.597C576.07 188.283 570.22 185.86 564.12 185.86C558.02 185.86 552.17 188.283 547.857 192.597C543.543 196.91 541.12 202.76 541.12 208.86C541.12 214.96 543.543 220.81 547.857 225.124C552.17 229.437 558.02 231.86 564.12 231.86Z" fill="#F3BA2F" stroke="white" stroke-width="2.63" stroke-miterlimit="10"/>
<path d="M555.13 209.3V216.85C555.13 220.28 555.13 220.22 558.5 220.29C559.72 220.29 559.98 219.9 559.96 218.71C559.9 214.02 559.96 209.33 559.96 204.64C559.96 204.12 559.69 203.4 560.67 203.4C563.99 203.4 567.32 203.35 570.67 203.4C572.04 203.4 571.2 204.68 571.36 205.4C571.61 206.45 571.19 206.88 570.09 206.83C568.24 206.73 566.38 206.83 564.54 206.78C563.54 206.78 563.21 207.05 563.23 208.11C563.3 210.92 563.23 213.73 563.23 216.55C563.23 220.34 563.23 220.31 566.89 220.28C567.81 220.28 568.14 220.02 568.12 219.04C568.06 217.04 568.12 215.04 568.12 212.97C568.12 212.14 568.4 211.84 569.19 211.86C571.14 211.86 573.09 211.86 575.03 211.86C575.97 211.86 576.23 211.54 576.22 210.58C576.173 206.933 576.173 203.283 576.22 199.63C576.22 198.63 575.94 198.36 575.01 198.37C568.79 198.41 562.573 198.41 556.36 198.37C555.36 198.37 555.16 198.71 555.18 199.65C555.16 202.88 555.13 206.12 555.13 209.3ZM573.63 220.3C576.13 220.3 576.13 220.3 576.13 217.76V217.61C576.13 215.3 576.13 215.3 573.87 215.3C571.32 215.3 571.32 215.3 571.32 217.88C571.32 220.26 571.32 220.26 573.63 220.26V220.3Z" fill="white"/>
<path d="M555.13 209.3C555.13 206.09 555.13 202.88 555.13 199.67C555.13 198.73 555.35 198.38 556.31 198.39C562.53 198.43 568.747 198.43 574.96 198.39C575.89 198.39 576.18 198.67 576.17 199.65C576.123 203.297 576.123 206.947 576.17 210.6C576.17 211.6 575.92 211.91 574.98 211.88C573.04 211.88 571.09 211.88 569.14 211.88C568.35 211.88 568.06 212.16 568.07 212.99C568.07 214.99 568.07 217.04 568.07 219.06C568.07 220.06 567.76 220.3 566.84 220.3C563.18 220.3 563.18 220.36 563.18 216.57C563.18 213.75 563.23 210.94 563.18 208.13C563.18 207.07 563.51 206.77 564.49 206.8C566.33 206.87 568.19 206.8 570.04 206.85C571.14 206.85 571.56 206.47 571.31 205.42C571.15 204.74 571.99 203.5 570.62 203.42C567.31 203.33 563.98 203.42 560.62 203.42C559.62 203.42 559.91 204.14 559.91 204.66C559.91 209.35 559.91 214.04 559.91 218.73C559.91 219.92 559.67 220.34 558.45 220.31C555.08 220.24 555.08 220.31 555.08 216.87L555.13 209.3Z" fill="white"/>
<path d="M573.63 220.26C571.32 220.26 571.32 220.26 571.32 217.84C571.32 215.26 571.32 215.26 573.87 215.26C576.13 215.26 576.13 215.26 576.13 217.57V217.72C576.13 220.26 576.13 220.26 573.63 220.26Z" fill="white"/>
</g>
<defs>
<linearGradient id="paint0_linear" x1="39.59" y1="184.04" x2="39.59" y2="225.78" gradientUnits="userSpaceOnUse">
<stop stop-color="white" stop-opacity="0.5"/>
<stop offset="1" stop-opacity="0.5"/>
</linearGradient>
<clipPath id="clip0">
<rect width="606.22" height="233.17" fill="white"/>
</clipPath>
</defs>
</svg>
