<svg width="33" height="20" viewBox="0 0 33 20" fill="none" xmlns="http://www.w3.org/2000/svg">
<g clip-path="url(#clip0)">
<path d="M6.64183 3.91957C11.9295 -1.25753 20.5026 -1.25753 25.7903 3.91957L26.4267 4.54264C26.6911 4.80149 26.6911 5.22118 26.4267 5.48004L24.2497 7.61144C24.1175 7.74087 23.9032 7.74087 23.771 7.61144L22.8953 6.75402C19.2064 3.14235 13.2257 3.14235 9.53683 6.75402L8.59899 7.67225C8.4668 7.80168 8.25247 7.80168 8.12028 7.67225L5.94334 5.54084C5.67895 5.28199 5.67895 4.8623 5.94334 4.60345L6.64183 3.91957ZM30.2924 8.32754L32.2299 10.2245C32.4943 10.4834 32.4943 10.903 32.2299 11.1619L23.4937 19.7155C23.2293 19.9744 22.8006 19.9744 22.5362 19.7155C22.5362 19.7155 22.5362 19.7155 22.5362 19.7155L16.3358 13.6448C16.2697 13.5801 16.1625 13.5801 16.0964 13.6448C16.0964 13.6448 16.0964 13.6448 16.0964 13.6448L9.8961 19.7155C9.63172 19.9744 9.20307 19.9744 8.93868 19.7155C8.93868 19.7155 8.93867 19.7155 8.93867 19.7155L0.202195 11.1618C-0.06219 10.9029 -0.06219 10.4832 0.202195 10.2244L2.13968 8.32743C2.40406 8.06858 2.83272 8.06858 3.0971 8.32743L9.29764 14.3983C9.36374 14.463 9.4709 14.463 9.537 14.3983C9.537 14.3983 9.537 14.3983 9.537 14.3983L15.7372 8.32743C16.0016 8.06857 16.4303 8.06856 16.6946 8.32741C16.6947 8.32741 16.6947 8.32742 16.6947 8.32742L22.8952 14.3983C22.9613 14.463 23.0685 14.463 23.1345 14.3983L29.335 8.32754C29.5994 8.06868 30.028 8.06868 30.2924 8.32754Z" fill="#3B99FC"/>
</g>
<defs>
<clipPath id="clip0">
<rect width="32.4324" height="20" fill="white"/>
</clipPath>
</defs>
</svg>
