<svg width="25" height="25" viewBox="0 0 25 25" fill="none" xmlns="http://www.w3.org/2000/svg">
<g clip-path="url(#clip0)">
<path fill-rule="evenodd" clip-rule="evenodd" d="M4.52338 20.5706C0.0921234 16.1394 0.0921227 8.95487 4.52338 4.52362C8.95463 0.092364 16.1391 0.092364 20.5704 4.52362C25.0016 8.95487 25.0016 16.1394 20.5704 20.5706C16.1391 25.0019 8.95463 25.0019 4.52338 20.5706ZM5.3777 18.7603L14.0369 10.101C14.1697 9.96821 14.1254 9.86234 13.9398 9.86261L9.211 9.86815C8.30845 9.86909 8.30985 8.51573 9.21241 8.51479L15.7705 8.4641C16.241 8.45984 16.6179 8.83494 16.615 9.30188L16.5793 15.8817C16.5783 16.7842 15.2247 16.7854 15.2259 15.8831L15.2315 11.1543C15.2317 10.9693 15.125 10.9252 14.993 11.0572L6.33382 19.7164C6.06782 19.9824 6.08997 20.3871 6.37933 20.6242C6.37933 20.6242 6.20672 20.4924 6.38795 20.6308C10.3715 23.6738 16.0901 23.3743 19.7321 19.7323C23.7004 15.764 23.7004 9.33018 19.7321 5.36189C15.7638 1.39361 9.32994 1.39361 5.36165 5.36189C1.71865 9.0049 1.42003 14.7258 4.46579 18.7095C4.60346 18.8896 4.46905 18.7137 4.46905 18.7137C4.70371 19.0049 5.11348 19.0245 5.3777 18.7603Z" fill="#333333"/>
</g>
<defs>
<clipPath id="clip0">
<rect width="25" height="25" fill="white"/>
</clipPath>
</defs>
</svg>
