<svg width="30" height="30" viewBox="0 0 30 30" fill="none" xmlns="http://www.w3.org/2000/svg">
<rect x="0.5" y="0.5" width="29" height="29" rx="9.25" fill="#96BEDC" stroke="#96BEDC"/>
<path d="M17.7181 14.122L19.2603 11.5051L23.4172 17.9796L23.4192 19.2222L23.4056 10.672C23.3958 10.463 23.2848 10.2718 23.1077 10.159L15.6237 5.85413C15.4488 5.76806 15.2267 5.76905 15.0519 5.85686C15.0283 5.86862 15.0061 5.88151 14.985 5.89557L14.9588 5.91197L7.69449 10.1216L7.66634 10.1344C7.63009 10.151 7.59341 10.1722 7.55906 10.1968C7.4213 10.2956 7.32986 10.4417 7.30027 10.6055C7.29582 10.6303 7.29253 10.6556 7.29102 10.6812L7.30243 17.6487L11.1744 11.6474C11.6619 10.8516 12.724 10.5953 13.7099 10.6092L14.8671 10.6398L8.04871 21.5746L8.85246 22.0373L15.7525 10.6509L18.8024 10.6398L11.9201 22.3136L14.7881 23.9632L15.1308 24.1603C15.2758 24.2192 15.4467 24.2222 15.5928 24.1694L23.182 19.7713L21.731 20.6121L17.7181 14.122ZM18.3064 22.5967L15.4097 18.0503L17.178 15.0497L20.9823 21.046L18.3064 22.5967Z" fill="#2D374B"/>
<path d="M15.4097 18.0504L18.3063 22.5969L20.9823 21.0461L17.1779 15.0498L15.4097 18.0504Z" fill="#28A0F0"/>
<path d="M23.4189 19.2223L23.4169 17.9798L19.26 11.5052L17.7178 14.1221L21.7307 20.6122L23.1816 19.7714C23.3239 19.6558 23.41 19.4862 23.4191 19.3032L23.4189 19.2223Z" fill="#28A0F0"/>
<path d="M6.00049 20.3941L8.04941 21.5747L14.8678 10.64L13.7106 10.6094C12.7246 10.5955 11.6625 10.8518 11.175 11.6476L7.3031 17.6489L6.00049 19.6504V20.3941Z" fill="white"/>
<path d="M18.8025 10.64L15.7526 10.6511L8.85254 22.0375L11.2643 23.4261L11.9202 22.3138L18.8025 10.64Z" fill="white"/>
<path d="M24.7046 10.6243C24.6791 9.98645 24.3338 9.40256 23.7928 9.06262L16.2108 4.70235C15.6756 4.43292 15.0072 4.43257 14.4711 4.70217C14.4078 4.73414 7.09776 8.97365 7.09776 8.97365C6.99658 9.02218 6.89913 9.07997 6.80748 9.14558C6.32458 9.49166 6.03023 10.0295 6 10.6203V19.6504L7.30261 17.6489L7.29123 10.6814C7.29275 10.6559 7.29595 10.6308 7.30049 10.6061C7.32995 10.4421 7.42147 10.2959 7.55928 10.1971C7.59367 10.1724 15.0286 5.86884 15.0522 5.85703C15.2269 5.76926 15.449 5.76823 15.624 5.8543L23.108 10.1591C23.285 10.2719 23.396 10.4631 23.4059 10.6721V19.3032C23.3968 19.4862 23.3245 19.6558 23.1822 19.7714L21.7312 20.6122L20.9826 21.0461L18.3067 22.5968L15.593 24.1694C15.4469 24.2223 15.276 24.2193 15.131 24.1604L11.9203 22.3137L11.2645 23.4261L14.1498 25.0873C14.2452 25.1416 14.3302 25.1897 14.4 25.2288C14.508 25.2894 14.5816 25.3299 14.6076 25.3425C14.8127 25.4422 15.1078 25.5001 15.3736 25.5001C15.6174 25.5001 15.8552 25.4554 16.0801 25.3672L23.9621 20.8025C24.4145 20.452 24.6807 19.9234 24.7046 19.3508V10.6243Z" fill="#96BEDC"/>
</svg>
