<svg width="40" height="40" viewBox="0 0 40 40" fill="none" xmlns="http://www.w3.org/2000/svg">
<rect x="0.5" y="0.5" width="39" height="39" rx="14.5" fill="#8247E5" stroke="#8247E5"/>
<g clip-path="url(#clip0)">
<path d="M25.5821 16.4806C25.206 16.2657 24.7224 16.2657 24.2925 16.4806L21.2836 18.2538L19.2418 19.3821L16.2866 21.1552C15.9104 21.3702 15.4269 21.3702 14.997 21.1552L12.6866 19.7582C12.3104 19.5433 12.0418 19.1135 12.0418 18.6299V15.9433C12.0418 15.5135 12.2567 15.0836 12.6866 14.8149L14.997 13.4717C15.3731 13.2567 15.8567 13.2567 16.2866 13.4717L18.597 14.8687C18.9731 15.0836 19.2418 15.5135 19.2418 15.997V17.7702L21.2836 16.5881V14.7612C21.2836 14.3314 21.0687 13.9015 20.6388 13.6329L16.3403 11.1075C15.9642 10.8926 15.4806 10.8926 15.0507 11.1075L10.6448 13.6866C10.2149 13.9015 10 14.3314 10 14.7612V19.812C10 20.2418 10.2149 20.6717 10.6448 20.9403L14.997 23.4657C15.3731 23.6806 15.8567 23.6806 16.2866 23.4657L19.2418 21.7463L21.2836 20.5642L24.2388 18.8448C24.6149 18.6299 25.0985 18.6299 25.5284 18.8448L27.8388 20.1881C28.2149 20.403 28.4836 20.8329 28.4836 21.3164V24.003C28.4836 24.4329 28.2687 24.8627 27.8388 25.1314L25.5821 26.4746C25.206 26.6896 24.7224 26.6896 24.2925 26.4746L21.9821 25.1314C21.606 24.9164 21.3373 24.4866 21.3373 24.003V22.2836L19.2955 23.4657V25.2388C19.2955 25.6687 19.5104 26.0985 19.9403 26.3672L24.2925 28.8926C24.6687 29.1075 25.1522 29.1075 25.5821 28.8926L29.9343 26.3672C30.3104 26.1523 30.5791 25.7224 30.5791 25.2388V20.1343C30.5791 19.7045 30.3642 19.2746 29.9343 19.006L25.5821 16.4806Z" fill="white"/>
</g>
<defs>
<clipPath id="clip0">
<rect width="20.6328" height="18" fill="white" transform="translate(10 11)"/>
</clipPath>
</defs>
</svg>
