<?xml version="1.0" encoding="UTF-8"?>
<svg xmlns="http://www.w3.org/2000/svg" xmlns:xlink="http://www.w3.org/1999/xlink" width="40px" height="40px" viewBox="0 0 40 40" version="1.1">
<defs>
<linearGradient id="linear0" gradientUnits="userSpaceOnUse" x1="32.337" y1="16.5" x2="31.642" y2="46.397" spreadMethod="reflect" gradientTransform="matrix(0.625,0,0,0.625,0,0)">
<stop offset="0" style="stop-color:rgb(42.745098%,78.039216%,100%);stop-opacity:1;"/>
<stop offset="1" style="stop-color:rgb(90.196078%,67.058824%,100%);stop-opacity:1;"/>
</linearGradient>
<linearGradient id="linear1" gradientUnits="userSpaceOnUse" x1="32" y1="3.75" x2="32" y2="59.5" spreadMethod="reflect" gradientTransform="matrix(0.625,0,0,0.625,0,0)">
<stop offset="0" style="stop-color:rgb(10.196078%,42.745098%,100%);stop-opacity:1;"/>
<stop offset="1" style="stop-color:rgb(78.431373%,13.333333%,100%);stop-opacity:1;"/>
</linearGradient>
<linearGradient id="linear2" gradientUnits="userSpaceOnUse" x1="32" y1="13.917" x2="32" y2="48.258" spreadMethod="reflect" gradientTransform="matrix(0.625,0,0,0.625,0,0)">
<stop offset="0" style="stop-color:rgb(42.745098%,78.039216%,100%);stop-opacity:1;"/>
<stop offset="1" style="stop-color:rgb(90.196078%,67.058824%,100%);stop-opacity:1;"/>
</linearGradient>
<linearGradient id="linear3" gradientUnits="userSpaceOnUse" x1="32" y1="19.167" x2="32" y2="43.62" spreadMethod="reflect" gradientTransform="matrix(0.625,0,0,0.625,0,0)">
<stop offset="0" style="stop-color:rgb(10.196078%,42.745098%,100%);stop-opacity:1;"/>
<stop offset="1" style="stop-color:rgb(78.431373%,13.333333%,100%);stop-opacity:1;"/>
</linearGradient>
</defs>
<g id="surface1">
<path style=" stroke:none;fill-rule:evenodd;fill:url(#linear0);" d="M 20 16.25 C 18.273438 16.25 16.875 17.648438 16.875 19.375 C 16.875 21.101562 18.273438 22.5 20 22.5 C 21.726562 22.5 23.125 21.101562 23.125 19.375 C 23.125 17.648438 21.726562 16.25 20 16.25 Z M 20 16.25 "/>
<path style=" stroke:none;fill-rule:nonzero;fill:url(#linear1);" d="M 19.964844 36.25 C 19.652344 36.25 19.339844 36.242188 19.023438 36.226562 C 17.988281 36.160156 17.160156 35.40625 16.996094 34.390625 C 16.894531 33.777344 16.777344 33.035156 16.675781 32.453125 C 16.617188 32.097656 16.375 31.8125 16.035156 31.707031 C 15.351562 31.488281 14.699219 31.214844 14.085938 30.894531 C 13.769531 30.730469 13.390625 30.753906 13.101562 30.964844 C 12.621094 31.3125 12.007812 31.753906 11.5 32.117188 C 10.671875 32.714844 9.554688 32.660156 8.785156 31.984375 C 8.304688 31.558594 7.839844 31.09375 7.390625 30.601562 C 6.707031 29.824219 6.65625 28.703125 7.257812 27.867188 C 7.621094 27.363281 8.0625 26.753906 8.402344 26.273438 C 8.613281 25.980469 8.640625 25.605469 8.476562 25.292969 C 8.148438 24.652344 7.878906 23.996094 7.671875 23.339844 C 7.566406 22.996094 7.28125 22.75 6.925781 22.695312 L 6.796875 22.671875 C 6.234375 22.582031 5.550781 22.46875 4.980469 22.375 C 3.972656 22.210938 3.21875 21.382812 3.152344 20.359375 C 3.117188 19.722656 3.113281 19.0625 3.148438 18.398438 C 3.214844 17.363281 3.96875 16.535156 4.984375 16.371094 C 5.597656 16.269531 6.339844 16.148438 6.921875 16.050781 C 7.277344 15.992188 7.5625 15.746094 7.667969 15.410156 C 7.886719 14.726562 8.160156 14.074219 8.480469 13.460938 C 8.644531 13.144531 8.617188 12.765625 8.410156 12.476562 C 8.0625 11.996094 7.621094 11.382812 7.257812 10.875 C 6.660156 10.046875 6.714844 8.929688 7.390625 8.15625 C 7.816406 7.679688 8.28125 7.214844 8.773438 6.765625 C 9.550781 6.082031 10.671875 6.027344 11.503906 6.628906 C 12.011719 6.996094 12.621094 7.4375 13.101562 7.777344 C 13.394531 7.988281 13.769531 8.015625 14.082031 7.847656 C 14.722656 7.523438 15.375 7.253906 16.035156 7.046875 C 16.375 6.9375 16.625 6.652344 16.679688 6.300781 L 16.703125 6.167969 C 16.792969 5.605469 16.902344 4.925781 17 4.351562 C 17.164062 3.34375 17.992188 2.59375 19.015625 2.527344 C 19.652344 2.492188 20.3125 2.488281 20.976562 2.523438 C 22.011719 2.589844 22.839844 3.34375 23.003906 4.359375 C 23.105469 4.972656 23.222656 5.714844 23.324219 6.296875 C 23.382812 6.652344 23.625 6.933594 23.964844 7.042969 C 24.648438 7.261719 25.300781 7.535156 25.914062 7.855469 C 26.230469 8.019531 26.609375 7.992188 26.898438 7.78125 C 27.378906 7.4375 27.992188 6.996094 28.5 6.632812 C 29.328125 6.03125 30.445312 6.085938 31.214844 6.765625 C 31.695312 7.1875 32.160156 7.652344 32.609375 8.148438 C 33.292969 8.925781 33.34375 10.046875 32.742188 10.878906 C 32.378906 11.382812 31.9375 11.992188 31.597656 12.476562 C 31.386719 12.765625 31.359375 13.140625 31.523438 13.457031 C 31.851562 14.09375 32.121094 14.75 32.328125 15.410156 C 32.433594 15.75 32.71875 15.996094 33.074219 16.054688 L 33.203125 16.074219 C 33.765625 16.167969 34.449219 16.277344 35.019531 16.375 C 36.027344 16.535156 36.78125 17.367188 36.847656 18.386719 C 36.882812 19.027344 36.886719 19.6875 36.851562 20.351562 C 36.785156 21.382812 36.03125 22.214844 35.015625 22.378906 C 34.402344 22.476562 33.660156 22.597656 33.078125 22.699219 C 32.722656 22.753906 32.4375 23 32.332031 23.339844 C 32.113281 24.019531 31.839844 24.675781 31.519531 25.289062 C 31.355469 25.605469 31.382812 25.980469 31.589844 26.269531 C 31.9375 26.75 32.378906 27.363281 32.742188 27.875 C 33.339844 28.703125 33.285156 29.820312 32.609375 30.589844 C 32.183594 31.066406 31.71875 31.535156 31.226562 31.980469 C 30.449219 32.664062 29.328125 32.71875 28.496094 32.117188 C 27.988281 31.753906 27.378906 31.3125 26.898438 30.972656 C 26.605469 30.761719 26.234375 30.734375 25.917969 30.898438 C 25.277344 31.226562 24.625 31.496094 23.964844 31.703125 C 23.625 31.808594 23.375 32.09375 23.320312 32.445312 L 23.296875 32.578125 C 23.207031 33.140625 23.097656 33.824219 23 34.394531 C 22.835938 35.402344 22.007812 36.15625 20.984375 36.21875 C 20.648438 36.242188 20.308594 36.25 19.964844 36.25 Z M 13.648438 29.535156 C 13.996094 29.535156 14.34375 29.621094 14.664062 29.785156 C 15.214844 30.074219 15.804688 30.320312 16.414062 30.515625 C 17.203125 30.765625 17.777344 31.425781 17.910156 32.25 C 18.011719 32.828125 18.128906 33.574219 18.230469 34.191406 C 18.300781 34.625 18.65625 34.949219 19.09375 34.976562 C 19.707031 35.007812 20.320312 35.007812 20.910156 34.972656 C 21.34375 34.945312 21.695312 34.625 21.765625 34.191406 C 21.863281 33.617188 21.972656 32.9375 22.0625 32.378906 L 22.085938 32.246094 C 22.21875 31.425781 22.796875 30.757812 23.589844 30.511719 C 24.183594 30.324219 24.773438 30.082031 25.34375 29.789062 C 26.074219 29.40625 26.953125 29.46875 27.625 29.957031 C 28.105469 30.296875 28.71875 30.738281 29.226562 31.105469 C 29.585938 31.363281 30.0625 31.339844 30.394531 31.046875 C 30.847656 30.636719 31.28125 30.203125 31.671875 29.761719 C 31.960938 29.4375 31.984375 28.957031 31.726562 28.605469 C 31.363281 28.09375 30.921875 27.480469 30.578125 27.003906 C 30.089844 26.328125 30.027344 25.449219 30.414062 24.710938 C 30.699219 24.160156 30.945312 23.574219 31.140625 22.960938 C 31.390625 22.171875 32.054688 21.597656 32.875 21.464844 C 33.453125 21.367188 34.199219 21.246094 34.816406 21.144531 C 35.253906 21.078125 35.578125 20.71875 35.605469 20.28125 C 35.636719 19.671875 35.632812 19.058594 35.597656 18.46875 C 35.570312 18.035156 35.25 17.679688 34.816406 17.609375 C 34.246094 17.511719 33.566406 17.402344 33.003906 17.3125 L 32.875 17.289062 C 32.050781 17.15625 31.386719 16.582031 31.136719 15.785156 C 30.953125 15.195312 30.707031 14.605469 30.417969 14.035156 C 30.03125 13.300781 30.097656 12.425781 30.582031 11.75 C 30.921875 11.269531 31.363281 10.65625 31.730469 10.148438 C 31.988281 9.792969 31.964844 9.3125 31.675781 8.980469 C 31.265625 8.527344 30.828125 8.09375 30.390625 7.703125 C 30.0625 7.417969 29.585938 7.390625 29.230469 7.648438 C 28.71875 8.011719 28.109375 8.453125 27.628906 8.796875 C 26.953125 9.285156 26.074219 9.347656 25.335938 8.964844 C 24.785156 8.675781 24.199219 8.429688 23.589844 8.234375 C 22.800781 7.984375 22.226562 7.324219 22.09375 6.5 C 21.992188 5.921875 21.871094 5.175781 21.773438 4.558594 C 21.703125 4.125 21.347656 3.800781 20.90625 3.773438 C 20.296875 3.742188 19.683594 3.742188 19.09375 3.777344 C 18.660156 3.804688 18.304688 4.125 18.234375 4.558594 C 18.140625 5.132812 18.027344 5.8125 17.9375 6.371094 L 17.917969 6.503906 C 17.785156 7.324219 17.207031 7.992188 16.410156 8.238281 C 15.820312 8.425781 15.230469 8.667969 14.660156 8.960938 C 13.925781 9.34375 13.050781 9.28125 12.375 8.792969 C 11.898438 8.453125 11.285156 8.011719 10.777344 7.644531 C 10.417969 7.386719 9.9375 7.410156 9.609375 7.703125 C 9.152344 8.113281 8.722656 8.546875 8.328125 8.988281 C 8.042969 9.3125 8.019531 9.792969 8.277344 10.144531 C 8.640625 10.65625 9.078125 11.269531 9.425781 11.746094 C 9.914062 12.421875 9.976562 13.300781 9.589844 14.039062 C 9.300781 14.589844 9.054688 15.175781 8.859375 15.789062 C 8.613281 16.578125 7.949219 17.152344 7.128906 17.285156 C 6.550781 17.382812 5.800781 17.503906 5.183594 17.605469 C 4.75 17.671875 4.425781 18.03125 4.398438 18.46875 C 4.367188 19.078125 4.367188 19.691406 4.402344 20.28125 C 4.429688 20.714844 4.753906 21.070312 5.183594 21.140625 C 5.757812 21.238281 6.4375 21.347656 6.996094 21.4375 L 7.128906 21.460938 C 7.949219 21.59375 8.617188 22.167969 8.867188 22.964844 C 9.050781 23.554688 9.292969 24.144531 9.585938 24.714844 C 9.96875 25.449219 9.90625 26.324219 9.417969 27 C 9.082031 27.480469 8.636719 28.09375 8.269531 28.601562 C 8.015625 28.957031 8.035156 29.4375 8.328125 29.769531 C 8.738281 30.222656 9.171875 30.65625 9.613281 31.046875 C 9.941406 31.332031 10.417969 31.359375 10.773438 31.101562 C 11.285156 30.738281 11.894531 30.296875 12.371094 29.953125 C 12.753906 29.675781 13.199219 29.535156 13.648438 29.535156 Z M 13.648438 29.535156 "/>
<path style=" stroke:none;fill-rule:nonzero;fill:url(#linear2);" d="M 20 30 C 14.140625 30 9.375 25.234375 9.375 19.375 C 9.375 13.515625 14.140625 8.75 20 8.75 C 25.859375 8.75 30.625 13.515625 30.625 19.375 C 30.625 25.234375 25.859375 30 20 30 Z M 20 10 C 14.832031 10 10.625 14.207031 10.625 19.375 C 10.625 24.542969 14.832031 28.75 20 28.75 C 25.167969 28.75 29.375 24.542969 29.375 19.375 C 29.375 14.207031 25.167969 10 20 10 Z M 20 10 "/>
<path style=" stroke:none;fill-rule:nonzero;fill:url(#linear3);" d="M 20 26.875 C 15.863281 26.875 12.5 23.511719 12.5 19.375 C 12.5 15.238281 15.863281 11.875 20 11.875 C 24.136719 11.875 27.5 15.238281 27.5 19.375 C 27.5 23.511719 24.136719 26.875 20 26.875 Z M 20 13.125 C 16.554688 13.125 13.75 15.929688 13.75 19.375 C 13.75 22.820312 16.554688 25.625 20 25.625 C 23.445312 25.625 26.25 22.820312 26.25 19.375 C 26.25 15.929688 23.445312 13.125 20 13.125 Z M 20 13.125 "/>
</g>
</svg>
