<svg width="25" height="25" viewBox="0 0 25 25" fill="none" xmlns="http://www.w3.org/2000/svg">
<rect x="0.312727" y="0.312727" width="24.3745" height="24.3745" rx="12.1873" fill="#8247E5" stroke="#8247E5" stroke-width="0.625455"/>
<g clip-path="url(#clip0)">
<path d="M15.9888 10.3011C15.7537 10.1668 15.4515 10.1668 15.1828 10.3011L13.3022 11.4093L12.0261 12.1146L10.1791 13.2228C9.94403 13.3571 9.64179 13.3571 9.37313 13.2228L7.9291 12.3496C7.69403 12.2153 7.52612 11.9466 7.52612 11.6444V9.9653C7.52612 9.69664 7.66045 9.42798 7.9291 9.26007L9.37313 8.42052C9.60821 8.28619 9.91045 8.28619 10.1791 8.42052L11.6231 9.29366C11.8582 9.42798 12.0261 9.69664 12.0261 9.99888V11.1071L13.3022 10.3683V9.22649C13.3022 8.95783 13.1679 8.68918 12.8993 8.52127L10.2127 6.94291C9.97761 6.80858 9.67537 6.80858 9.40672 6.94291L6.65299 8.55485C6.38433 8.68918 6.25 8.95783 6.25 9.22649V12.3832C6.25 12.6519 6.38433 12.9205 6.65299 13.0884L9.37313 14.6668C9.60821 14.8011 9.91045 14.8011 10.1791 14.6668L12.0261 13.5922L13.3022 12.8534L15.1493 11.7787C15.3843 11.6444 15.6866 11.6444 15.9552 11.7787L17.3993 12.6183C17.6343 12.7526 17.8022 13.0213 17.8022 13.3235V15.0026C17.8022 15.2713 17.6679 15.5399 17.3993 15.7078L15.9888 16.5474C15.7537 16.6817 15.4515 16.6817 15.1828 16.5474L13.7388 15.7078C13.5037 15.5735 13.3358 15.3048 13.3358 15.0026V13.928L12.0597 14.6668V15.775C12.0597 16.0437 12.194 16.3123 12.4627 16.4802L15.1828 18.0586C15.4179 18.1929 15.7201 18.1929 15.9888 18.0586L18.709 16.4802C18.944 16.3459 19.1119 16.0772 19.1119 15.775V12.5847C19.1119 12.316 18.9776 12.0474 18.709 11.8795L15.9888 10.3011Z" fill="white"/>
</g>
<defs>
<clipPath id="clip0">
<rect width="12.8955" height="11.25" fill="white" transform="translate(6.25 6.87488)"/>
</clipPath>
</defs>
</svg>
