<svg width="25" height="25" viewBox="0 0 25 25" fill="none" xmlns="http://www.w3.org/2000/svg">
<g clip-path="url(#clip0)">
<path d="M12.6624 17.8203L16.0565 14.4262C16.3449 14.1378 16.3449 13.6703 16.0565 13.3819C15.7681 13.0935 15.3005 13.0935 15.0122 13.3819L11.6181 16.7759L8.22406 13.3819L11.6181 9.98783C11.9065 9.69947 11.9065 9.23187 11.6181 8.94351C11.3297 8.65514 10.8622 8.65514 10.5738 8.94351L7.17973 12.3376L6.00487 11.1627L3.91622 13.2513C2.02155 15.146 1.78684 18.0717 3.21156 20.222L0 23.4335L1.56649 25L4.77805 21.7884C6.92831 23.2132 9.85399 22.9784 11.7487 21.0838L13.8373 18.9951L12.6624 17.8203Z" fill="#202251"/>
<path d="M18.9951 13.8373L21.0837 11.7487C22.9784 9.85399 23.2131 6.92831 21.7884 4.77805L25 1.56649L23.4335 0L20.2219 3.21156C18.0716 1.78684 15.146 2.02155 13.2513 3.91622L11.1627 6.00487C18.8245 13.6667 11.2236 6.06579 18.9951 13.8373Z" fill="#202251"/>
</g>
<defs>
<clipPath id="clip0">
<rect width="25" height="25" fill="white"/>
</clipPath>
</defs>
</svg>
