<svg width="40" height="40" viewBox="0 0 40 40" fill="none" xmlns="http://www.w3.org/2000/svg">
<path d="M39.3742 19.7716C39.3742 30.3992 30.681 39.0223 19.9476 39.0223C9.21415 39.0223 0.520891 30.3992 0.520891 19.7716C0.520891 9.14408 9.21415 0.520891 19.9476 0.520891C30.681 0.520891 39.3742 9.14408 39.3742 19.7716Z" fill="#202251" stroke="white" stroke-width="1.04178"/>
<path d="M19.9408 21.2544V16.4131C19.9092 15.1662 19.5037 14.4171 18.7288 14.1928C18.2197 14.0448 17.4538 14.1031 16.7104 15.2334L19.9408 21.2544ZM19.9408 21.2544L19.6842 21.6679L19.9408 21.8271H20.2427L19.9408 21.2544ZM12.1086 27.7057C16.2197 32.0194 23.0641 32.1991 27.3972 28.1066L27.3973 28.1066L27.4013 28.1027C27.761 27.7867 28.3018 27.8167 28.62 28.1665L28.6212 28.1678C28.9548 28.5302 28.9352 29.0943 28.5735 29.4343L28.5731 29.4346C26.2414 31.6334 23.1527 32.86 19.9408 32.86C12.938 32.86 7.2402 27.1043 7.2402 20.0195C7.2402 12.935 12.9646 7.17892 19.9408 7.17892C26.8356 7.17892 32.4739 12.7715 32.6509 19.7175H32.6334L32.6461 20.0316C32.7237 21.9604 31.9791 23.5216 30.6576 24.3768C29.6016 25.057 28.2603 25.1108 27.1546 24.5181C25.9737 23.8579 25.2707 22.51 25.2707 20.7506V18.2432V17.3215L24.7253 18.0645C24.6327 18.1907 24.5377 18.3376 24.4408 18.4983C24.4405 18.4989 24.4401 18.4994 24.4398 18.5L21.3782 23.4306L21.3778 23.4313C20.8836 24.2319 20.4191 24.6307 20.0327 24.8149C19.6525 24.9962 19.3235 24.9818 19.0664 24.9061C18.8081 24.83 18.5211 24.6645 18.2934 24.3052C18.062 23.9401 17.8774 23.3514 17.8774 22.4057V18.315V17.2612L17.3193 18.155L11.7822 27.0229L11.6632 27.2134L11.8115 27.3821C11.9088 27.4929 12.0064 27.5993 12.1086 27.7057ZM12.1086 27.7057C12.1084 27.7055 12.1082 27.7053 12.1081 27.7051L12.3267 27.4968M12.1086 27.7057C12.1087 27.7058 12.1088 27.7059 12.1089 27.706L12.3267 27.4968M12.3267 27.4968C12.2275 27.3936 12.1329 27.2905 12.0383 27.1828L28.8434 27.9633C28.4109 27.4878 27.6765 27.4519 27.1944 27.8825L27.1899 27.887C22.9774 31.8657 16.3229 31.6907 12.3267 27.4968ZM10.812 25.2303L16.9645 15.3966C17.311 14.8707 17.643 14.6233 17.9183 14.5146C18.1922 14.4065 18.4407 14.4235 18.6445 14.4828L18.6449 14.4829C19.2253 14.6509 19.6077 15.217 19.6388 16.417V21.8271V22.8864L20.1973 21.9863L22.9496 17.5511L22.9501 17.5502L22.9627 17.5301C23.1901 17.1664 23.568 16.5619 24.0658 16.0952C24.5748 15.618 25.1461 15.341 25.7718 15.5233L25.7718 15.5233C26.5078 15.7378 27.0276 16.5459 27.0276 17.8709V20.7551C27.0276 21.7326 27.3224 22.5655 27.9872 22.9421L27.9937 22.9458L28.0004 22.9492C28.5513 23.2261 29.2113 23.1841 29.7208 22.8377C30.5489 22.3146 30.9395 21.276 30.8799 20.0747V20.0746V20.0745V20.0744V20.0743V20.0743V20.0742V20.0741V20.074V20.074V20.0739V20.0738V20.0737V20.0736V20.0736V20.0735V20.0734V20.0733V20.0732V20.0732V20.0731V20.073V20.0729V20.0729V20.0728V20.0727V20.0726V20.0725V20.0725V20.0724V20.0723V20.0722V20.0721V20.0721V20.072V20.0719V20.0718V20.0717V20.0716V20.0716V20.0715V20.0714V20.0713V20.0712V20.0712V20.0711V20.071V20.0709V20.0708V20.0708V20.0707V20.0706V20.0705V20.0704V20.0703V20.0703V20.0702V20.0701V20.07V20.0699V20.0699V20.0698V20.0697V20.0696V20.0695V20.0694V20.0694V20.0693V20.0692V20.0691V20.069V20.069V20.0689V20.0688V20.0687V20.0686V20.0685V20.0685V20.0684V20.0683V20.0682V20.0681V20.0681V20.068V20.0679V20.0678V20.0677V20.0676V20.0676V20.0675V20.0674V20.0673V20.0672V20.0671V20.0671V20.067V20.0669V20.0668V20.0667V20.0667V20.0666V20.0665V20.0664V20.0663V20.0662V20.0662V20.0661V20.066V20.0659V20.0658V20.0658V20.0657V20.0656V20.0655V20.0654V20.0654V20.0653V20.0652V20.0651V20.065V20.065V20.0649V20.0648V20.0647V20.0646V20.0645V20.0645V20.0644V20.0643V20.0642V20.0641V20.0641V20.064V20.0639V20.0638V20.0637V20.0637V20.0636V20.0635V20.0634V20.0634V20.0633V20.0632V20.0631V20.063V20.063V20.0629V20.0628V20.0627V20.0626V20.0626V20.0625V20.0624V20.0623V20.0623V20.0622V20.0621V20.062V20.0619V20.0619V20.0618V20.0617V20.0616V20.0616V20.0615V20.0614V20.0613V20.0613V20.0612V20.0611V20.061V20.061V20.0609V20.0608V20.0607V20.0607V20.0606V20.0605V20.0604V20.0604V20.0603V20.0602V20.0601V20.0601V20.06V20.0599V20.0598V20.0598V20.0597V20.0596V20.0596V20.0595V20.0594V20.0593V20.0593V20.0592V20.0591V20.0591V20.059V20.0589V20.0588V20.0588V20.0587V20.0586V20.0586V20.0585V20.0584V20.0584V20.0583V20.0582V20.0582V20.0581V20.058V20.058V20.0579V20.0578V20.0577V20.0577V20.0576V20.0575V20.0575V20.0574V20.0574V20.0573V20.0572V20.0572V20.0571V20.057V20.057V20.0569V20.0568V20.0568V20.0567V20.0566V20.0566V20.0565V20.0565V20.0564V20.0563V20.0563V20.0562V20.0562V20.0561V20.056V20.056V20.0559V20.0559V20.0558V20.0557V20.0557V20.0556V20.0556V20.0555V20.0554V20.0554V20.0553V20.0553V20.0552V20.0552V20.0551V20.055V20.055V20.0549V20.0549V20.0548V20.0548V20.0547V20.0547V20.0546V20.0546V20.0545V20.0545V20.0544V20.0543V20.0543V20.0542V20.0542V20.0541V20.0541V20.054V20.054V20.0539V20.0539V20.0538V20.0538V20.0538V20.0537V20.0537V20.0536V20.0536V20.0535V20.0535V20.0534V20.0534V20.0533V20.0533V20.0532V20.0532V20.0532V20.0531V20.0531V20.053V20.053V20.0529V20.0529V20.0529V20.0528V20.0528V20.0527V20.0527V20.0527V20.0526V20.0526V20.0525V20.0525V20.0525V20.0524V20.0524V20.0524V20.0523V20.0523V20.0523V20.0522V20.0522V20.0522V20.0521V20.0521V20.0521V20.052V20.052V20.052V20.0519V20.0519V20.0519V20.0518V20.0518V20.0518V20.0518V20.0517V20.0517V20.0517V20.0516V20.0516V20.0516V20.0516V20.0515V20.0515V20.0515V20.0515V20.0514V20.0514V20.0514V20.0514V20.0514V20.0513V20.0513V20.0513V20.0513V20.0513V20.0512V20.0512V20.0512V20.0512V20.0512V20.0511V20.0511V20.0511V20.0511V20.0511V20.0511V20.051V20.051V20.051V20.051V20.051V20.0509V20.0509V20.0509V20.0509V20.0509V20.0195C30.8799 13.9259 25.9766 8.96576 19.9408 8.96576C13.9047 8.96576 9.01552 13.926 9.01511 20.0187C9.00597 21.8267 9.44612 23.6111 10.2889 25.2109L10.5336 25.6754L10.812 25.2303Z" fill="white" stroke="white" stroke-width="0.603931"/>
</svg>
