<svg width="20" height="20" viewBox="0 0 20 20" fill="none" xmlns="http://www.w3.org/2000/svg">
<path d="M10.1514 0L4.8396 3.06342L6.79246 4.19512L10.1514 2.26342L13.5103 4.19512L15.4632 3.06342L10.1514 0Z" fill="#F0B90B"/>
<path d="M13.5103 5.7951L15.4632 6.92685V9.19025L12.1043 11.1219V14.9853L10.1514 16.117L8.19851 14.9853V11.1219L4.8396 9.19025V6.92685L6.79246 5.7951L10.1514 7.72685L13.5103 5.7951Z" fill="#F0B90B"/>
<path d="M15.4631 10.7902V13.0536L13.5103 14.1853V11.9219L15.4631 10.7902Z" fill="#F0B90B"/>
<path d="M13.4907 15.7853L16.8496 13.8536V9.99025L18.8025 8.85855V14.9853L13.4907 18.0488V15.7853Z" fill="#F0B90B"/>
<path d="M16.8496 6.12685L14.8967 4.99512L16.8496 3.86341L18.8025 4.99512V7.25855L16.8496 8.39025V6.12685Z" fill="#F0B90B"/>
<path d="M8.19849 18.8683V16.6049L10.1513 17.7366L12.1042 16.6049V18.8683L10.1513 20L8.19849 18.8683Z" fill="#F0B90B"/>
<path d="M6.79246 14.1853L4.8396 13.0536V10.7902L6.79246 11.9219V14.1853Z" fill="#F0B90B"/>
<path d="M10.1513 6.12685L8.19849 4.99513L10.1513 3.86341L12.1042 4.99513L10.1513 6.12685Z" fill="#F0B90B"/>
<path d="M5.40574 4.99512L3.45287 6.12685V8.39025L1.5 7.25855V4.99512L3.45287 3.86341L5.40574 4.99512Z" fill="#F0B90B"/>
<path d="M1.5 8.85855L3.45287 9.99025V13.8536L6.81179 15.7853V18.0488L1.5 14.9853V8.85855Z" fill="#F0B90B"/>
</svg>
