<svg width="25" height="25" viewBox="0 0 25 25" fill="none" xmlns="http://www.w3.org/2000/svg">
<g clip-path="url(#clip0)">
<path d="M12.6624 17.8206L16.0565 14.4265C16.3449 14.1382 16.3449 13.6706 16.0565 13.3822C15.7681 13.0938 15.3005 13.0938 15.0122 13.3822L11.6181 16.7762L8.22406 13.3822L11.6181 9.98814C11.9065 9.69977 11.9065 9.23218 11.6181 8.94381C11.3297 8.65545 10.8622 8.65545 10.5738 8.94381L7.17973 12.3379L6.00487 11.163L3.91622 13.2517C2.02155 15.1463 1.78684 18.072 3.21156 20.2223L0 23.4338L1.56649 25.0003L4.77805 21.7887C6.92831 23.2135 9.85399 22.9788 11.7487 21.0841L13.8373 18.9954L12.6624 17.8206Z" fill="white"/>
<path d="M18.995 13.8373L21.0837 11.7487C22.9784 9.85399 23.2131 6.92831 21.7883 4.77805L24.9999 1.56649L23.4334 0L20.2219 3.21156C18.0716 1.78684 15.1459 2.02155 13.2512 3.91622L11.1626 6.00487C18.8244 13.6667 11.2235 6.06579 18.995 13.8373Z" fill="white"/>
</g>
<defs>
<clipPath id="clip0">
<rect width="25" height="25" fill="white"/>
</clipPath>
</defs>
</svg>
