<svg width="25" height="25" viewBox="0 0 25 25" fill="none" xmlns="http://www.w3.org/2000/svg">
<rect x="0.312727" y="0.312727" width="24.3745" height="24.3745" rx="12.1873" fill="#F0B90B" stroke="#F0B90B" stroke-width="0.625455"/>
<path d="M7.16256 10.9684L8.70017 12.5054L7.16256 14.0424L5.625 12.5054L7.16256 10.9684Z" fill="white"/>
<path d="M12.5005 10.9684L14.038 12.5054L12.5005 14.0424L10.9629 12.5054L12.5005 10.9684Z" fill="white"/>
<path d="M17.8374 10.9684L19.375 12.5054L17.8374 14.0424L16.2998 12.5054L17.8374 10.9684Z" fill="white"/>
<path d="M12.5141 5.62463L16.723 9.83188L15.1854 11.3689L10.9766 7.16164L12.5141 5.62463Z" fill="white"/>
<path d="M12.5194 5.62463L8.31055 9.83188L9.84811 11.3689L14.0569 7.16164L12.5194 5.62463Z" fill="white"/>
<path d="M12.5141 19.3747L16.723 15.1675L15.1854 13.6305L10.9766 17.8377L12.5141 19.3747Z" fill="white"/>
<path d="M12.5194 19.3747L8.31055 15.1675L9.84811 13.6305L14.0569 17.8377L12.5194 19.3747Z" fill="white"/>
</svg>
