<svg width="25" height="25" viewBox="0 0 25 25" fill="none" xmlns="http://www.w3.org/2000/svg">
<rect x="0.312727" y="0.312727" width="24.3745" height="24.3745" rx="12.1873" fill="#96BEDC" stroke="#96BEDC" stroke-width="0.625455"/>
<path d="M14.7664 11.7697L16.0515 9.58896L19.5156 14.9844L19.5173 16.0199L19.506 8.89469C19.4978 8.72052 19.4053 8.5612 19.2577 8.46723L13.0211 4.87981C12.8753 4.80808 12.6902 4.80891 12.5446 4.88208C12.5249 4.89188 12.5064 4.90263 12.4888 4.91434L12.467 4.928L6.41338 8.43602L6.38991 8.44669C6.35971 8.46056 6.32914 8.47822 6.30052 8.49873C6.18572 8.58103 6.10952 8.70275 6.08486 8.83929C6.08115 8.85998 6.07841 8.88103 6.07715 8.90234L6.08666 14.7086L9.31327 9.70752C9.71954 9.04439 10.6046 8.83079 11.4263 8.84239L12.3906 8.86784L6.70856 17.9802L7.37835 18.3658L13.1284 8.8771L15.67 8.86788L9.93473 18.596L12.3248 19.9707L12.6103 20.1349C12.7311 20.184 12.8735 20.1865 12.9953 20.1425L19.3196 16.4775L18.1105 17.1781L14.7664 11.7697ZM15.2567 18.832L12.8427 15.0433L14.3163 12.5428L17.4866 17.5397L15.2567 18.832Z" fill="#2D374B"/>
<path d="M12.8418 15.0434L15.2557 18.8321L17.4856 17.5398L14.3153 12.5428L12.8418 15.0434Z" fill="#28A0F0"/>
<path d="M19.5165 16.0198L19.5149 14.9844L16.0508 9.58893L14.7656 11.7697L18.1097 17.178L19.3188 16.4774C19.4374 16.381 19.5092 16.2397 19.5167 16.0872L19.5165 16.0198Z" fill="#28A0F0"/>
<path d="M5.00098 16.9958L6.70841 17.9796L12.3904 8.86732L11.4261 8.84188C10.6044 8.83027 9.71933 9.04387 9.31309 9.707L6.08649 14.7081L5.00098 16.376V16.9958Z" fill="white"/>
<path d="M15.6695 8.86774L13.128 8.87696L7.37793 18.3656L9.38775 19.5228L9.93431 18.5959L15.6695 8.86774Z" fill="white"/>
<path d="M20.5872 8.85365C20.5659 8.32212 20.2782 7.83555 19.8274 7.55227L13.509 3.9187C13.063 3.69418 12.506 3.69389 12.0593 3.91856C12.0065 3.9452 5.9148 7.47812 5.9148 7.47812C5.83049 7.51856 5.74928 7.56672 5.6729 7.6214C5.27049 7.9098 5.0252 8.35799 5 8.85037V16.3754L6.08551 14.7075L6.07603 8.90123C6.07729 8.88 6.07996 8.85909 6.08374 8.83847C6.10829 8.70186 6.18456 8.57999 6.2994 8.49763C6.32806 8.47712 12.5238 4.89078 12.5435 4.88094C12.6891 4.8078 12.8742 4.80694 13.02 4.87867L19.2567 8.46602C19.4042 8.55999 19.4967 8.71931 19.5049 8.89348V16.0861C19.4974 16.2386 19.4371 16.3799 19.3185 16.4763L18.1094 17.1769L17.4855 17.5385L15.2556 18.8308L12.9942 20.1413C12.8724 20.1853 12.73 20.1828 12.6092 20.1337L9.93361 18.5948L9.38706 19.5218L11.7915 20.9062C11.871 20.9514 11.9418 20.9915 12 21.0241C12.09 21.0746 12.1513 21.1083 12.173 21.1189C12.3439 21.2019 12.5898 21.2502 12.8114 21.2502C13.0145 21.2502 13.2126 21.2129 13.4001 21.1395L19.9685 17.3355C20.3455 17.0434 20.5672 16.6029 20.5872 16.1257V8.85365Z" fill="#96BEDC"/>
</svg>
