<svg width="25" height="25" viewBox="0 0 25 25" fill="none" xmlns="http://www.w3.org/2000/svg">
<path d="M11.7256 16.4634L17.4325 21.0217L17.4322 3.9502L11.7256 8.58422" fill="#D0CFCE"/>
<path d="M11.7256 16.4634L17.4325 21.0217L17.4322 3.9502L11.7256 8.58422" stroke="#D0CFCE" stroke-width="0.694444" stroke-miterlimit="10" stroke-linecap="round" stroke-linejoin="round"/>
<path d="M11.7065 8.6123V15.9908" stroke="#D0CFCE" stroke-width="0.694444" stroke-miterlimit="10" stroke-linecap="round" stroke-linejoin="round"/>
<path d="M11.3863 8.58398H7.24138C6.7018 8.58572 6.26482 9.05107 6.26318 9.62565V15.4215C6.26482 15.9961 6.7018 16.4614 7.24138 16.4632H11.3863" fill="#9B9B9A"/>
<path d="M11.3863 8.58398H7.24138C6.7018 8.58572 6.26482 9.05107 6.26318 9.62565V15.4215C6.26482 15.9961 6.7018 16.4614 7.24138 16.4632H11.3863" stroke="#9B9B9A" stroke-width="0.672951" stroke-miterlimit="10"/>
<path d="M17.4374 15.795L17.4372 3.9502L11.7306 8.58422H10.2974" stroke="black" stroke-width="0.694444" stroke-linecap="round" stroke-linejoin="round"/>
<path d="M7.02456 8.62695C6.59244 8.75418 6.27681 9.15317 6.27539 9.62619V15.422C6.27713 15.9966 6.74247 16.462 7.31706 16.4637H11.7309L17.4379 21.022L17.4379 19.0571" stroke="black" stroke-width="0.694444" stroke-linecap="round" stroke-linejoin="round"/>
<path d="M11.731 8.79688V10.0701" stroke="black" stroke-width="0.694444" stroke-linecap="round" stroke-linejoin="round"/>
<path d="M11.731 13.542V16.3375" stroke="black" stroke-width="0.694444" stroke-linecap="round" stroke-linejoin="round"/>
<path d="M4.02979 4.0918L20.8701 20.9321" stroke="black" stroke-width="0.694444" stroke-linecap="round" stroke-linejoin="round"/>
</svg>
