<svg width="25" height="25" viewBox="0 0 25 25" fill="none" xmlns="http://www.w3.org/2000/svg">
<circle cx="12.5" cy="12.5" r="12.5" fill="#FFB703"/>
<path d="M17.0919 11.352H13.648V7.90813C13.6467 7.70554 13.5657 7.5116 13.4225 7.36834C13.2792 7.22509 13.0853 7.14406 12.8827 7.14282H12.1174C11.9148 7.14406 11.7208 7.22509 11.5776 7.36834C11.4343 7.5116 11.3533 7.70554 11.3521 7.90813V11.352H7.90819C7.7056 11.3532 7.51166 11.4343 7.36841 11.5775C7.22515 11.7208 7.14412 11.9147 7.14288 12.1173V12.8826C7.14412 13.0852 7.22515 13.2791 7.36841 13.4224C7.51166 13.5657 7.7056 13.6467 7.90819 13.6479H11.3521V17.0918C11.3533 17.2944 11.4343 17.4883 11.5776 17.6316C11.7208 17.7748 11.9148 17.8559 12.1174 17.8571H12.8827C13.0853 17.8559 13.2792 17.7748 13.4225 17.6316C13.5657 17.4883 13.6467 17.2944 13.648 17.0918V13.6479H17.0919C17.2945 13.6467 17.4884 13.5657 17.6316 13.4224C17.7749 13.2791 17.8559 13.0852 17.8572 12.8826V12.1173C17.8559 11.9147 17.7749 11.7208 17.6316 11.5775C17.4884 11.4343 17.2945 11.3532 17.0919 11.352Z" fill="white"/>
</svg>
