<svg width="25" height="25" viewBox="0 0 25 25" fill="none" xmlns="http://www.w3.org/2000/svg">
<g clip-path="url(#clip0)">
<path fill-rule="evenodd" clip-rule="evenodd" d="M4.5235 20.5705C0.0922455 16.1392 0.0922448 8.95475 4.5235 4.5235C8.95476 0.0922419 16.1392 0.0922419 20.5705 4.5235C25.0017 8.95475 25.0017 16.1392 20.5705 20.5705C16.1392 25.0017 8.95476 25.0017 4.5235 20.5705ZM5.37782 18.7601L14.037 10.1009C14.1699 9.96809 14.1255 9.86221 13.9399 9.86249L9.21112 9.86803C8.30857 9.86897 8.30998 8.51561 9.21253 8.51467L15.7706 8.46398C16.2411 8.45972 16.6181 8.83482 16.6151 9.30176L16.5794 15.8815C16.5785 16.7841 15.2249 16.7853 15.226 15.8829L15.2316 11.1542C15.2319 10.9691 15.1251 10.9251 14.9932 11.057L6.33394 19.7162C6.06794 19.9822 6.0901 20.3869 6.37946 20.6241C6.37946 20.6241 6.20685 20.4923 6.38807 20.6307C10.3716 23.6737 16.0903 23.3742 19.7322 19.7322C23.7005 15.7639 23.7005 9.33006 19.7322 5.36177C15.7639 1.39348 9.33006 1.39348 5.36178 5.36177C1.71877 9.00478 1.42015 14.7257 4.46591 18.7094C4.60358 18.8894 4.46917 18.7136 4.46917 18.7136C4.70383 19.0047 5.1136 19.0244 5.37782 18.7601Z" fill="white"/>
</g>
<defs>
<clipPath id="clip0">
<rect width="25" height="25" fill="white"/>
</clipPath>
</defs>
</svg>
