<svg width="33" height="33" viewBox="0 0 33 33" fill="none" xmlns="http://www.w3.org/2000/svg">
<path d="M28.1566 3.64661L17.9357 11.2378L19.8258 6.75909L28.1566 3.64661Z" fill="#E2761B" stroke="#E2761B" stroke-linecap="round" stroke-linejoin="round"/>
<path d="M4.56049 3.64661L14.6992 11.3097L12.9015 6.75909L4.56049 3.64661Z" fill="#E4761B" stroke="#E4761B" stroke-linecap="round" stroke-linejoin="round"/>
<path d="M24.4781 21.2429L21.756 25.4134L27.5803 27.0159L29.2547 21.3354L24.4781 21.2429Z" fill="#E4761B" stroke="#E4761B" stroke-linecap="round" stroke-linejoin="round"/>
<path d="M3.48199 21.3354L5.14609 27.0159L10.9704 25.4134L8.2483 21.2429L3.48199 21.3354Z" fill="#E4761B" stroke="#E4761B" stroke-linecap="round" stroke-linejoin="round"/>
<path d="M10.642 14.1962L9.01898 16.6512L14.8022 16.9081L14.5968 10.6934L10.642 14.1962Z" fill="#E4761B" stroke="#E4761B" stroke-linecap="round" stroke-linejoin="round"/>
<path d="M22.0746 14.1962L18.0684 10.6215L17.9349 16.908L23.7078 16.6512L22.0746 14.1962Z" fill="#E4761B" stroke="#E4761B" stroke-linecap="round" stroke-linejoin="round"/>
<path d="M10.9706 25.4135L14.4427 23.7185L11.4432 21.3765L10.9706 25.4135Z" fill="#E4761B" stroke="#E4761B" stroke-linecap="round" stroke-linejoin="round"/>
<path d="M18.274 23.7185L21.7563 25.4135L21.2735 21.3765L18.274 23.7185Z" fill="#E4761B" stroke="#E4761B" stroke-linecap="round" stroke-linejoin="round"/>
<path d="M21.7564 25.4134L18.2742 23.7185L18.5515 25.9887L18.5207 26.944L21.7564 25.4134Z" fill="#D7C1B3" stroke="#D7C1B3" stroke-linecap="round" stroke-linejoin="round"/>
<path d="M10.9708 25.4134L14.2066 26.944L14.186 25.9887L14.4428 23.7185L10.9708 25.4134Z" fill="#D7C1B3" stroke="#D7C1B3" stroke-linecap="round" stroke-linejoin="round"/>
<path d="M14.2582 19.8767L11.3615 19.0241L13.4056 18.0894L14.2582 19.8767Z" fill="#233447" stroke="#233447" stroke-linecap="round" stroke-linejoin="round"/>
<path d="M18.4595 19.8767L19.3121 18.0894L21.3665 19.0241L18.4595 19.8767Z" fill="#233447" stroke="#233447" stroke-linecap="round" stroke-linejoin="round"/>
<path d="M10.9709 25.4134L11.464 21.2429L8.24878 21.3354L10.9709 25.4134Z" fill="#CD6116" stroke="#CD6116" stroke-linecap="round" stroke-linejoin="round"/>
<path d="M21.2632 21.2429L21.7563 25.4134L24.4784 21.3354L21.2632 21.2429Z" fill="#CD6116" stroke="#CD6116" stroke-linecap="round" stroke-linejoin="round"/>
<path d="M23.7086 16.6512L17.9357 16.9081L18.4698 19.8767L19.3224 18.0894L21.3769 19.0241L23.7086 16.6512Z" fill="#CD6116" stroke="#CD6116" stroke-linecap="round" stroke-linejoin="round"/>
<path d="M11.361 19.0241L13.4154 18.0894L14.2578 19.8767L14.8022 16.9081L9.01892 16.6512L11.361 19.0241Z" fill="#CD6116" stroke="#CD6116" stroke-linecap="round" stroke-linejoin="round"/>
<path d="M9.01892 16.6512L11.4432 21.3765L11.361 19.0241L9.01892 16.6512Z" fill="#E4751F" stroke="#E4751F" stroke-linecap="round" stroke-linejoin="round"/>
<path d="M21.3762 19.0241L21.2734 21.3765L23.7079 16.6512L21.3762 19.0241Z" fill="#E4751F" stroke="#E4751F" stroke-linecap="round" stroke-linejoin="round"/>
<path d="M14.8024 16.9081L14.258 19.8767L14.936 23.3796L15.09 18.7673L14.8024 16.9081Z" fill="#E4751F" stroke="#E4751F" stroke-linecap="round" stroke-linejoin="round"/>
<path d="M17.9348 16.9081L17.6574 18.7571L17.7807 23.3796L18.4689 19.8767L17.9348 16.9081Z" fill="#E4751F" stroke="#E4751F" stroke-linecap="round" stroke-linejoin="round"/>
<path d="M18.4694 19.8767L17.7811 23.3795L18.2742 23.7185L21.2737 21.3764L21.3764 19.0241L18.4694 19.8767Z" fill="#F6851B" stroke="#F6851B" stroke-linecap="round" stroke-linejoin="round"/>
<path d="M11.3615 19.0241L11.4436 21.3764L14.4431 23.7185L14.9362 23.3795L14.2582 19.8767L11.3615 19.0241Z" fill="#F6851B" stroke="#F6851B" stroke-linecap="round" stroke-linejoin="round"/>
<path d="M18.5209 26.944L18.5517 25.9887L18.2949 25.7627H14.4223L14.186 25.9887L14.2066 26.944L10.9708 25.4135L12.1008 26.338L14.3915 27.9301H18.3257L20.6267 26.338L21.7566 25.4135L18.5209 26.944Z" fill="#C0AD9E" stroke="#C0AD9E" stroke-linecap="round" stroke-linejoin="round"/>
<path d="M18.2739 23.7185L17.7809 23.3795H14.9355L14.4424 23.7185L14.1856 25.9887L14.4219 25.7627H18.2945L18.5513 25.9887L18.2739 23.7185Z" fill="#161616" stroke="#161616" stroke-linecap="round" stroke-linejoin="round"/>
<path d="M28.5875 11.7308L29.4606 7.53978L28.156 3.64661L18.2742 10.981L22.0749 14.1962L27.4473 15.7678L28.6388 14.3811L28.1252 14.0113L28.947 13.2614L28.3101 12.7683L29.1319 12.1417L28.5875 11.7308Z" fill="#763D16" stroke="#763D16" stroke-linecap="round" stroke-linejoin="round"/>
<path d="M3.2666 7.53978L4.13974 11.7308L3.58504 12.1417L4.40682 12.7683L3.78021 13.2614L4.60199 14.0113L4.08838 14.3811L5.26968 15.7678L10.642 14.1962L14.4428 10.981L4.5609 3.64661L3.2666 7.53978Z" fill="#763D16" stroke="#763D16" stroke-linecap="round" stroke-linejoin="round"/>
<path d="M27.447 15.7678L22.0747 14.1962L23.708 16.6512L21.2734 21.3764L24.4784 21.3354H29.255L27.447 15.7678Z" fill="#F6851B" stroke="#F6851B" stroke-linecap="round" stroke-linejoin="round"/>
<path d="M10.6417 14.1962L5.26936 15.7678L3.48199 21.3354H8.2483L11.443 21.3764L9.01871 16.6512L10.6417 14.1962Z" fill="#F6851B" stroke="#F6851B" stroke-linecap="round" stroke-linejoin="round"/>
<path d="M17.9354 16.908L18.2743 10.981L19.8357 6.75909H12.902L14.4428 10.981L14.8023 16.908L14.9256 18.7776L14.9359 23.3795H17.7813L17.8018 18.7776L17.9354 16.908Z" fill="#F6851B" stroke="#F6851B" stroke-linecap="round" stroke-linejoin="round"/>
</svg>
