<svg width="58" height="58" viewBox="0 0 58 58" fill="none" xmlns="http://www.w3.org/2000/svg">
<rect x="0.725" y="0.725" width="56.55" height="56.55" rx="21.025" fill="#FF0420" stroke="#FF0420" stroke-width="1.45"/>
<path fill-rule="evenodd" clip-rule="evenodd" d="M15.9621 35.6614C17.0944 36.4957 18.5468 36.9129 20.3196 36.9129C22.4649 36.9129 24.1782 36.4137 25.4594 35.4155C26.7405 34.4026 27.6418 32.8756 28.1633 30.8344C28.4761 29.5831 28.7443 28.2945 28.9678 26.9687C29.0423 26.4919 29.0797 26.097 29.0797 25.7842C29.0797 24.7414 28.8188 23.8476 28.2973 23.1028C27.776 22.3429 27.0608 21.7768 26.1522 21.4043C25.2434 21.0171 24.2154 20.8235 23.0684 20.8235C18.8523 20.8235 16.2377 22.8718 15.2247 26.9687C14.8672 28.4733 14.5916 29.762 14.3978 30.8344C14.3234 31.3113 14.2861 31.7136 14.2861 32.0413C14.2861 33.6056 14.8448 34.8122 15.9621 35.6614ZM22.7554 32.9574C22.1744 33.4491 21.467 33.6949 20.6324 33.6949C19.2025 33.6949 18.4873 33.0096 18.4873 31.6389C18.4873 31.3113 18.517 30.9985 18.5767 30.7004C18.8448 29.2555 19.113 28.0338 19.3811 27.0357C19.6345 26.0227 20.0516 25.2704 20.6324 24.7785C21.2284 24.2871 21.9434 24.0412 22.7779 24.0412C24.193 24.0412 24.9007 24.7191 24.9007 26.0747C24.9007 26.4025 24.8709 26.7229 24.8114 27.0357C24.6325 28.0785 24.3719 29.3002 24.0292 30.7004C23.7759 31.7136 23.3514 32.4659 22.7554 32.9574ZM29.7278 36.5322C29.8172 36.6366 29.9438 36.6887 30.1079 36.6887H33.147C33.2958 36.6887 33.4375 36.6366 33.5714 36.5322C33.7054 36.4279 33.7874 36.2939 33.8173 36.1301L34.8453 31.2362H37.862C39.8135 31.2362 41.348 30.8265 42.4655 30.0072C43.5976 29.1879 44.3499 27.9216 44.7222 26.2083C44.8118 25.8061 44.8564 25.4186 44.8564 25.0463C44.8564 23.7501 44.3499 22.7595 43.3368 22.0742C42.3386 21.3888 41.0128 21.0462 39.3592 21.0462H33.4149C33.2661 21.0462 33.1246 21.0983 32.9905 21.2027C32.8563 21.307 32.7745 21.441 32.7446 21.6048L29.6608 36.1301C29.631 36.2791 29.6533 36.4131 29.7278 36.5322ZM39.6497 27.6384C39.1878 27.9811 38.644 28.1524 38.0184 28.1524H35.4486L36.2977 24.1525H38.9794C39.5902 24.1525 40.0222 24.2714 40.2753 24.51C40.5287 24.7335 40.6553 25.0611 40.6553 25.4931C40.6553 25.6868 40.633 25.9103 40.5883 26.1636C40.4393 26.8043 40.1263 27.2957 39.6497 27.6384Z" fill="white"/>
</svg>
