<svg width="40" height="40" viewBox="0 0 40 40" fill="none" xmlns="http://www.w3.org/2000/svg">
<circle cx="20" cy="20" r="19.4193" fill="#202251" stroke="white" stroke-width="1.1614"/>
<g clip-path="url(#clip0)">
<path d="M15 26C18.3137 26 21 23.3137 21 20C21 16.6863 18.3137 14 15 14C11.6863 14 9 16.6863 9 20C9 23.3137 11.6863 26 15 26Z" fill="white"/>
<path d="M24.5518 25.712C26.2086 25.712 27.5518 23.16 27.5518 20.012C27.5518 16.864 26.2086 14.312 24.5518 14.312C22.8949 14.312 21.5518 16.864 21.5518 20.012C21.5518 23.16 22.8949 25.712 24.5518 25.712Z" fill="white"/>
<path d="M29.1839 25.112C29.7671 25.112 30.2399 22.834 30.2399 20.024C30.2399 17.2139 29.7671 14.936 29.1839 14.936C28.6007 14.936 28.1279 17.2139 28.1279 20.024C28.1279 22.834 28.6007 25.112 29.1839 25.112Z" fill="white"/>
</g>
<defs>
<clipPath id="clip0">
<rect width="21.24" height="12" fill="white" transform="translate(9 14)"/>
</clipPath>
</defs>
</svg>
