<svg width="15" height="15" viewBox="0 0 15 15" fill="none" xmlns="http://www.w3.org/2000/svg">
<g clip-path="url(#clip0)">
<ellipse cx="7.5" cy="7.5" rx="5.25" ry="5.25" fill="white"/>
<path fill-rule="evenodd" clip-rule="evenodd" d="M7.50038 0C11.6424 0 15.0004 3.35795 15.0004 7.5C15.0004 11.6421 11.6428 15.0004 7.50038 15.0004C3.35833 15.0004 0 11.6424 0 7.5C0 3.35833 3.35795 0 7.50038 0ZM6.59375 8.09178L9.49345 4.59006C9.84662 4.16329 10.4809 4.10336 10.9073 4.45615C11.3336 4.80932 11.3936 5.44358 11.0404 5.86958L6.83691 10.9475L4.0787 8.5743C3.66104 8.21468 3.61097 7.58042 3.96983 7.16087C4.32869 6.74169 4.96599 6.69086 5.38478 7.05162L6.59375 8.09178Z" fill="#27AE60"/>
</g>
<defs>
<clipPath id="clip0">
<rect width="15" height="15" fill="white"/>
</clipPath>
</defs>
</svg>
