<svg width="250" height="60" viewBox="0 0 250 60" fill="none" xmlns="http://www.w3.org/2000/svg">
<g clip-path="url(#clip0)">
<path fill-rule="evenodd" clip-rule="evenodd" d="M93.9045 11C83.8395 11 75.3553 18.8726 75.0169 28.8361C75 29.3582 75 30.9294 75 30.9294H80.4047C80.6814 34.4028 82.2869 37.6357 84.887 39.9553C87.487 42.2749 90.8815 43.5025 94.3638 43.3826C97.8461 43.2627 101.148 41.8045 103.582 39.3116C106.017 36.8186 107.396 33.483 107.433 29.9988H110.675C110.69 33.1926 109.791 36.3242 108.086 39.0245C106.38 41.7248 103.938 43.8812 101.048 45.2398C98.1571 46.5983 94.9385 47.1022 91.771 46.6923C88.6036 46.2823 85.6193 44.9754 83.17 42.9257C83.2322 42.7154 83.2639 42.4972 83.2642 42.2779C83.2633 41.8311 83.1299 41.3946 82.881 41.0236C82.6321 40.6526 82.2788 40.3637 81.8657 40.1933C81.4527 40.023 80.9984 39.979 80.5603 40.0667C80.1222 40.1545 79.72 40.3701 79.4044 40.6864C79.0888 41.0026 78.8741 41.4053 78.7872 41.8436C78.7004 42.2819 78.7455 42.736 78.9167 43.1487C79.0879 43.5614 79.3775 43.9141 79.7491 44.1622C80.1206 44.4103 80.5574 44.5428 81.0042 44.5428C81.2143 44.5423 81.4233 44.513 81.6254 44.4557C84.3781 46.8114 87.7496 48.3268 91.3387 48.8217C94.9278 49.3165 98.5835 48.77 101.871 47.247C105.158 45.7241 107.939 43.289 109.883 40.2312C111.826 37.1734 112.85 33.6218 112.833 29.9988V27.9007H107.274C106.756 24.6387 105.063 21.6786 102.515 19.5778C99.966 17.4771 96.7372 16.3806 93.4363 16.495C90.1354 16.6094 86.9903 17.9267 84.5932 20.1989C82.1961 22.4711 80.7124 25.5413 80.4217 28.8313H77.1779C77.3724 25.8257 78.3738 22.9283 80.0766 20.444C81.7794 17.9597 84.1206 15.9806 86.8536 14.715C89.5867 13.4495 92.6104 12.9443 95.6064 13.2527C98.6024 13.5611 101.46 14.6717 103.878 16.4676C103.804 16.693 103.766 16.9288 103.766 17.1661C103.768 17.6128 103.902 18.049 104.151 18.4198C104.4 18.7905 104.754 19.079 105.167 19.249C105.58 19.4189 106.034 19.4626 106.472 19.3746C106.91 19.2866 107.312 19.0708 107.627 18.7544C107.942 18.438 108.157 18.0353 108.244 17.5971C108.33 17.1589 108.285 16.7049 108.114 16.2923C107.943 15.8798 107.653 15.5272 107.281 15.2792C106.91 15.0312 106.473 14.8989 106.027 14.8989C105.841 14.8988 105.657 14.9223 105.478 14.9689C102.171 12.3911 98.0973 10.9931 93.9045 10.9976V11ZM82.527 29.9964C82.5366 27.7487 83.2118 25.5542 84.4675 23.6899C85.7232 21.8257 87.5031 20.3752 89.5824 19.5217C91.6618 18.6681 93.9474 18.4497 96.1508 18.8941C98.3541 19.3385 100.376 20.4256 101.962 22.0184C103.548 23.6111 104.627 25.638 105.062 27.8432C105.497 30.0485 105.269 32.3331 104.407 34.4089C103.544 36.4846 102.086 38.2583 100.217 39.5061C98.3472 40.7538 96.1498 41.4198 93.9021 41.4198C92.4049 41.4173 90.923 41.1197 89.5409 40.5441C88.1588 39.9686 86.9037 39.1263 85.8473 38.0654C84.7908 37.0045 83.9539 35.7458 83.3842 34.3613C82.8145 32.9767 82.5232 31.4935 82.527 29.9964Z" fill="white"/>
<path fill-rule="evenodd" clip-rule="evenodd" d="M89.4956 27.2188L93.919 34.9077L98.3472 27.2188H89.4956Z" fill="white"/>
<path fill-rule="evenodd" clip-rule="evenodd" d="M93.682 36.4551L88.0307 26.6342L85.2776 25.0582L93.6796 39.6626L93.682 36.4551ZM85.4951 24.6328L88.2966 26.2378H99.5194L102.321 24.6328H85.4951ZM99.8167 26.6173L94.1558 36.4551V39.6651L102.567 25.0413L99.8167 26.6173Z" fill="white"/>
<path fill-rule="evenodd" clip-rule="evenodd" d="M93.9045 11C83.8395 11 75.3553 18.8726 75.0169 28.8361C75 29.3582 75 30.9294 75 30.9294H80.4047C80.6814 34.4028 82.2869 37.6357 84.887 39.9553C87.487 42.2749 90.8815 43.5025 94.3638 43.3826C97.8461 43.2627 101.148 41.8045 103.582 39.3116C106.017 36.8186 107.396 33.483 107.433 29.9988H110.675C110.69 33.1926 109.791 36.3242 108.086 39.0245C106.38 41.7248 103.938 43.8812 101.048 45.2398C98.1571 46.5983 94.9385 47.1022 91.771 46.6923C88.6036 46.2823 85.6193 44.9754 83.17 42.9257C83.2322 42.7154 83.2639 42.4972 83.2642 42.2779C83.2633 41.8311 83.1299 41.3946 82.881 41.0236C82.6321 40.6526 82.2788 40.3637 81.8657 40.1933C81.4527 40.023 80.9984 39.979 80.5603 40.0667C80.1222 40.1545 79.72 40.3701 79.4044 40.6864C79.0888 41.0026 78.8741 41.4053 78.7872 41.8436C78.7004 42.2819 78.7455 42.736 78.9167 43.1487C79.0879 43.5614 79.3775 43.9141 79.7491 44.1622C80.1206 44.4103 80.5574 44.5428 81.0042 44.5428C81.2143 44.5423 81.4233 44.513 81.6254 44.4557C84.3781 46.8114 87.7496 48.3268 91.3387 48.8217C94.9278 49.3165 98.5835 48.77 101.871 47.247C105.158 45.7241 107.939 43.289 109.883 40.2312C111.826 37.1734 112.85 33.6218 112.833 29.9988V27.9007H107.274C106.756 24.6387 105.063 21.6786 102.515 19.5778C99.966 17.4771 96.7372 16.3806 93.4363 16.495C90.1354 16.6094 86.9903 17.9267 84.5932 20.1989C82.1961 22.4711 80.7124 25.5413 80.4217 28.8313H77.1779C77.3724 25.8257 78.3738 22.9283 80.0766 20.444C81.7794 17.9597 84.1206 15.9806 86.8536 14.715C89.5867 13.4495 92.6104 12.9443 95.6064 13.2527C98.6024 13.5611 101.46 14.6717 103.878 16.4676C103.804 16.693 103.766 16.9288 103.766 17.1661C103.768 17.6128 103.902 18.049 104.151 18.4198C104.4 18.7905 104.754 19.079 105.167 19.249C105.58 19.4189 106.034 19.4626 106.472 19.3746C106.91 19.2866 107.312 19.0708 107.627 18.7544C107.942 18.438 108.157 18.0353 108.244 17.5971C108.33 17.1589 108.285 16.7049 108.114 16.2923C107.943 15.8798 107.653 15.5272 107.281 15.2792C106.91 15.0312 106.473 14.8989 106.027 14.8989C105.841 14.8988 105.657 14.9223 105.478 14.9689C102.171 12.3911 98.0973 10.9931 93.9045 10.9976V11ZM82.527 29.9964C82.5366 27.7487 83.2118 25.5542 84.4675 23.6899C85.7232 21.8257 87.5031 20.3752 89.5824 19.5217C91.6618 18.6681 93.9474 18.4497 96.1508 18.8941C98.3541 19.3385 100.376 20.4256 101.962 22.0184C103.548 23.6111 104.627 25.638 105.062 27.8432C105.497 30.0485 105.269 32.3331 104.407 34.4089C103.544 36.4846 102.086 38.2583 100.217 39.5061C98.3472 40.7538 96.1498 41.4198 93.9021 41.4198C92.4049 41.4173 90.923 41.1197 89.5409 40.5441C88.1588 39.9686 86.9037 39.1263 85.8473 38.0654C84.7908 37.0045 83.9539 35.7458 83.3842 34.3613C82.8145 32.9767 82.5232 31.4935 82.527 29.9964Z" fill="white"/>
</g>
<path d="M123.608 23.2234H126.294V38H123.608V23.2234ZM133.906 23.0741C136.039 23.0741 137.666 23.465 138.789 24.2469C139.926 25.0287 140.495 26.2228 140.495 27.8291C140.495 29.8334 139.507 31.191 137.531 31.9017C137.801 32.2287 138.107 32.6267 138.448 33.0958C138.789 33.5649 139.138 34.0766 139.493 34.631C139.848 35.1712 140.189 35.7327 140.516 36.3155C140.843 36.8841 141.135 37.4456 141.391 38H138.384C138.114 37.4883 137.823 36.9765 137.51 36.4648C137.197 35.9388 136.877 35.4342 136.55 34.9509C136.238 34.4533 135.925 33.9913 135.612 33.5649C135.299 33.1242 135.008 32.7333 134.738 32.3921C134.539 32.4063 134.368 32.4135 134.226 32.4135C134.084 32.4135 133.949 32.4135 133.821 32.4135H132.52V38H129.834V23.4366C130.488 23.2944 131.184 23.202 131.923 23.1594C132.663 23.1025 133.324 23.0741 133.906 23.0741ZM134.098 25.3983C133.53 25.3983 133.004 25.4196 132.52 25.4623V30.2385H133.693C134.347 30.2385 134.923 30.203 135.42 30.1319C135.918 30.0608 136.33 29.9329 136.657 29.7481C136.998 29.5633 137.254 29.3146 137.425 29.0018C137.595 28.6891 137.68 28.2911 137.68 27.8078C137.68 27.3529 137.595 26.9691 137.425 26.6563C137.254 26.3436 137.005 26.0948 136.678 25.91C136.366 25.7252 135.989 25.5973 135.548 25.5262C135.108 25.4409 134.624 25.3983 134.098 25.3983ZM145.482 30.601C145.482 31.4113 145.581 32.1505 145.78 32.8186C145.979 33.4725 146.263 34.034 146.633 34.5031C147.017 34.958 147.479 35.3133 148.019 35.5692C148.559 35.8251 149.17 35.953 149.853 35.953C150.521 35.953 151.125 35.8251 151.665 35.5692C152.205 35.3133 152.66 34.958 153.03 34.5031C153.414 34.034 153.705 33.4725 153.904 32.8186C154.103 32.1505 154.203 31.4113 154.203 30.601C154.203 29.7908 154.103 29.0587 153.904 28.4048C153.705 27.7367 153.414 27.1752 153.03 26.7203C152.66 26.2512 152.205 25.8887 151.665 25.6328C151.125 25.377 150.521 25.249 149.853 25.249C149.17 25.249 148.559 25.377 148.019 25.6328C147.479 25.8887 147.017 26.2512 146.633 26.7203C146.263 27.1894 145.979 27.7509 145.78 28.4048C145.581 29.0587 145.482 29.7908 145.482 30.601ZM157.017 30.601C157.017 31.8662 156.825 32.9821 156.441 33.9487C156.072 34.9153 155.56 35.7256 154.906 36.3795C154.267 37.0192 153.513 37.5025 152.646 37.8294C151.779 38.1564 150.855 38.3198 149.874 38.3198C148.893 38.3198 147.962 38.1564 147.081 37.8294C146.214 37.5025 145.453 37.0192 144.799 36.3795C144.16 35.7256 143.648 34.9153 143.264 33.9487C142.88 32.9821 142.688 31.8662 142.688 30.601C142.688 29.3359 142.88 28.2271 143.264 27.2747C143.648 26.3081 144.167 25.4978 144.821 24.8439C145.489 24.19 146.256 23.6996 147.123 23.3726C147.991 23.0457 148.907 22.8822 149.874 22.8822C150.841 22.8822 151.758 23.0457 152.625 23.3726C153.492 23.6996 154.245 24.19 154.885 24.8439C155.539 25.4978 156.058 26.3081 156.441 27.2747C156.825 28.2271 157.017 29.3359 157.017 30.601ZM169.922 38C169.439 37.1897 168.899 36.3226 168.302 35.3986C167.705 34.4604 167.086 33.5222 166.447 32.584C165.807 31.6316 165.153 30.7147 164.485 29.8334C163.831 28.9379 163.206 28.1347 162.609 27.4239V38H159.965V23.2234H162.161C162.729 23.8204 163.341 24.5312 163.995 25.3556C164.648 26.1659 165.302 27.0117 165.956 27.893C166.624 28.7744 167.264 29.6628 167.875 30.5584C168.501 31.4397 169.055 32.2642 169.538 33.0318V23.2234H172.204V38H169.922Z" fill="white"/>
<defs>
<clipPath id="clip0">
<rect width="37.838" height="38" fill="white" transform="translate(75 11)"/>
</clipPath>
</defs>
</svg>
