<svg width="250" height="60" viewBox="0 0 250 60" fill="none" xmlns="http://www.w3.org/2000/svg">
<path d="M108.736 34.1846C108.736 34.9095 108.658 35.5848 108.502 36.2102C108.345 36.8357 108.068 37.383 107.67 37.8521C107.286 38.3212 106.76 38.6908 106.092 38.9609C105.438 39.2309 104.607 39.366 103.597 39.366C102.659 39.366 101.842 39.238 101.145 38.9822C100.463 38.7121 99.9371 38.4278 99.5675 38.1293L100.527 36.0183C100.882 36.26 101.316 36.4945 101.828 36.722C102.354 36.9352 102.887 37.0418 103.427 37.0418C104.337 37.0418 104.998 36.8144 105.41 36.3595C105.822 35.9046 106.028 35.1228 106.028 34.014V24.2695H108.736V34.1846ZM121.182 38.705C120.685 38.8329 120.038 38.9609 119.242 39.0888C118.446 39.2309 117.572 39.302 116.619 39.302C115.724 39.302 114.97 39.1741 114.359 38.9182C113.762 38.6623 113.279 38.307 112.909 37.8521C112.554 37.3972 112.298 36.857 112.141 36.2315C111.985 35.5919 111.907 34.8953 111.907 34.1419V27.8944H114.487V33.7368C114.487 34.9309 114.657 35.7838 114.999 36.2955C115.354 36.8073 115.965 37.0631 116.832 37.0631C117.145 37.0631 117.472 37.0489 117.813 37.0205C118.169 36.9921 118.432 36.9565 118.602 36.9139V27.8944H121.182V38.705ZM128.347 39.2594C127.579 39.2452 126.94 39.1599 126.428 39.0035C125.93 38.8471 125.532 38.6268 125.234 38.3425C124.935 38.044 124.722 37.6815 124.594 37.255C124.48 36.8144 124.423 36.3168 124.423 35.7624V22.9262L127.003 22.4997V35.272C127.003 35.5848 127.025 35.8477 127.067 36.061C127.124 36.2742 127.217 36.459 127.345 36.6154C127.473 36.7575 127.643 36.8712 127.856 36.9565C128.084 37.0276 128.368 37.0845 128.709 37.1271L128.347 39.2594ZM139.483 37.0418C140.45 37.0418 141.153 36.8783 141.594 36.5514C142.035 36.2244 142.255 35.7624 142.255 35.1654C142.255 34.81 142.177 34.5044 142.02 34.2485C141.878 33.9927 141.665 33.7652 141.381 33.5662C141.111 33.353 140.777 33.1611 140.379 32.9905C139.981 32.8057 139.526 32.628 139.014 32.4574C138.502 32.2726 138.005 32.0736 137.521 31.8604C137.052 31.633 136.633 31.3558 136.263 31.0288C135.908 30.7019 135.617 30.3109 135.389 29.8561C135.176 29.4012 135.069 28.8539 135.069 28.2142C135.069 26.878 135.531 25.8332 136.455 25.0798C137.379 24.3122 138.637 23.9283 140.229 23.9283C141.153 23.9283 141.971 24.035 142.681 24.2482C143.406 24.4472 143.975 24.6675 144.387 24.9092L143.556 27.0841C143.072 26.814 142.539 26.6079 141.957 26.4658C141.388 26.3236 140.798 26.2525 140.187 26.2525C139.462 26.2525 138.893 26.4018 138.481 26.7003C138.083 26.9988 137.884 27.4182 137.884 27.9583C137.884 28.2853 137.948 28.5696 138.076 28.8112C138.218 29.0387 138.41 29.2448 138.651 29.4296C138.907 29.6144 139.199 29.785 139.526 29.9414C139.867 30.0977 140.236 30.247 140.635 30.3891C141.331 30.645 141.949 30.908 142.49 31.1781C143.044 31.4339 143.506 31.7467 143.876 32.1163C144.259 32.4716 144.551 32.8981 144.75 33.3956C144.949 33.8789 145.048 34.4689 145.048 35.1654C145.048 36.5016 144.572 37.5393 143.62 38.2785C142.681 39.0035 141.303 39.366 139.483 39.366C138.872 39.366 138.31 39.3233 137.799 39.238C137.301 39.167 136.853 39.0746 136.455 38.9609C136.071 38.8471 135.737 38.7334 135.453 38.6197C135.169 38.4918 134.941 38.378 134.771 38.2785L135.56 36.0823C135.944 36.2955 136.462 36.5087 137.116 36.722C137.77 36.9352 138.559 37.0418 139.483 37.0418ZM153.941 32.031C153.614 33.2819 153.258 34.5044 152.875 35.6985C152.505 36.8783 152.135 37.9942 151.766 39.0461H149.655C149.371 38.3922 149.072 37.646 148.759 36.8073C148.447 35.9686 148.134 35.073 147.821 34.1206C147.508 33.1682 147.196 32.166 146.883 31.1141C146.57 30.0622 146.265 28.9889 145.966 27.8944H148.695C148.823 28.4914 148.973 29.1382 149.143 29.8347C149.314 30.5171 149.491 31.2207 149.676 31.9457C149.861 32.6564 150.053 33.353 150.252 34.0353C150.451 34.7176 150.65 35.3431 150.849 35.9117C151.062 35.2578 151.268 34.5826 151.467 33.886C151.68 33.1895 151.88 32.493 152.064 31.7964C152.249 31.0999 152.42 30.4247 152.576 29.7708C152.747 29.1027 152.896 28.4772 153.024 27.8944H155.007C155.135 28.4772 155.277 29.1027 155.433 29.7708C155.59 30.4247 155.753 31.0999 155.924 31.7964C156.109 32.493 156.3 33.1895 156.499 33.886C156.713 34.5826 156.926 35.2578 157.139 35.9117C157.324 35.3431 157.516 34.7176 157.715 34.0353C157.914 33.353 158.106 32.6564 158.291 31.9457C158.49 31.2207 158.674 30.5171 158.845 29.8347C159.016 29.1382 159.165 28.4914 159.293 27.8944H161.958C161.66 28.9889 161.354 30.0622 161.041 31.1141C160.728 32.166 160.416 33.1682 160.103 34.1206C159.79 35.073 159.477 35.9686 159.165 36.8073C158.852 37.646 158.546 38.3922 158.248 39.0461H156.158C155.789 37.9942 155.405 36.8783 155.007 35.6985C154.623 34.5044 154.268 33.2819 153.941 32.031ZM167.849 37.2337C168.645 37.2337 169.249 37.1911 169.661 37.1058V34.2485C169.519 34.2059 169.313 34.1632 169.043 34.1206C168.773 34.078 168.474 34.0566 168.147 34.0566C167.863 34.0566 167.572 34.078 167.273 34.1206C166.989 34.1632 166.726 34.2414 166.484 34.3551C166.257 34.4689 166.072 34.6323 165.93 34.8456C165.788 35.0446 165.717 35.3005 165.717 35.6132C165.717 36.2244 165.909 36.6509 166.292 36.8926C166.676 37.12 167.195 37.2337 167.849 37.2337ZM167.636 27.6172C168.489 27.6172 169.206 27.7238 169.789 27.937C170.372 28.1502 170.834 28.4488 171.175 28.8326C171.531 29.2164 171.779 29.6855 171.922 30.2399C172.078 30.78 172.156 31.3771 172.156 32.031V38.7903C171.758 38.8756 171.154 38.9751 170.344 39.0888C169.548 39.2167 168.645 39.2807 167.636 39.2807C166.968 39.2807 166.356 39.2167 165.802 39.0888C165.248 38.9609 164.771 38.7547 164.373 38.4704C163.99 38.1861 163.684 37.8165 163.456 37.3616C163.243 36.9068 163.137 36.3453 163.137 35.6772C163.137 35.0375 163.257 34.4973 163.499 34.0566C163.755 33.616 164.096 33.2606 164.523 32.9905C164.949 32.7062 165.439 32.5072 165.994 32.3935C166.562 32.2655 167.152 32.2016 167.764 32.2016C168.048 32.2016 168.346 32.2229 168.659 32.2655C168.972 32.294 169.306 32.3508 169.661 32.4361V32.0097C169.661 31.7111 169.626 31.4268 169.555 31.1567C169.484 30.8867 169.356 30.6521 169.171 30.4531C169 30.2399 168.766 30.0764 168.467 29.9627C168.183 29.849 167.82 29.7921 167.38 29.7921C166.783 29.7921 166.236 29.8347 165.738 29.92C165.24 30.0053 164.835 30.1048 164.523 30.2185L164.203 28.1289C164.53 28.0152 165.006 27.9015 165.631 27.7878C166.257 27.674 166.925 27.6172 167.636 27.6172ZM182.715 33.5236C182.715 32.3721 182.452 31.4766 181.926 30.8369C181.414 30.1972 180.582 29.8774 179.431 29.8774C179.189 29.8774 178.933 29.8916 178.663 29.92C178.407 29.9342 178.152 29.9769 177.896 30.048V36.4235C178.123 36.5798 178.422 36.7291 178.791 36.8712C179.175 36.9992 179.58 37.0631 180.007 37.0631C180.945 37.0631 181.627 36.7433 182.054 36.1036C182.494 35.4639 182.715 34.6039 182.715 33.5236ZM185.359 33.4809C185.359 34.3338 185.245 35.1157 185.018 35.8264C184.804 36.5372 184.492 37.1484 184.079 37.6602C183.667 38.1719 183.148 38.5699 182.523 38.8542C181.912 39.1385 181.215 39.2807 180.433 39.2807C179.907 39.2807 179.424 39.2167 178.983 39.0888C178.543 38.9609 178.18 38.8187 177.896 38.6623V42.9908H175.316V28.2569C175.842 28.1147 176.488 27.9797 177.256 27.8517C178.024 27.7238 178.834 27.6598 179.687 27.6598C180.568 27.6598 181.357 27.7949 182.054 28.065C182.75 28.335 183.34 28.726 183.823 29.2377C184.321 29.7352 184.698 30.3465 184.954 31.0715C185.224 31.7822 185.359 32.5854 185.359 33.4809Z" fill="white"/>
<path d="M86.3403 28.6056C86.3403 28.6056 89.3224 32.4916 88.0475 36.737C87.2493 39.3961 85.2391 43.232 78.8877 43.4107C75.5413 43.505 72.1262 42.0158 70.3325 38.8544C68.3674 35.39 68.8976 32.716 69.8738 31.0359C72.1862 27.057 80.3505 16 80.3505 16" stroke="white" stroke-width="4.9956" stroke-miterlimit="10" stroke-linecap="round" stroke-linejoin="round"/>
</svg>
