<svg width="250" height="60" viewBox="0 0 250 60" fill="none" xmlns="http://www.w3.org/2000/svg">
<path d="M119.227 38C118.857 37.4314 118.431 36.8344 117.947 36.2089C117.464 35.5834 116.952 34.9793 116.412 34.3965C115.886 33.8136 115.339 33.2593 114.77 32.7333C114.202 32.2073 113.64 31.7524 113.086 31.3686V38H110.399V23.2234H113.086V29.3217C113.555 28.8526 114.045 28.355 114.557 27.8291C115.069 27.2889 115.573 26.7487 116.071 26.2085C116.583 25.6542 117.066 25.1211 117.521 24.6093C117.976 24.0976 118.388 23.6356 118.758 23.2234H121.977C121.508 23.7635 121.011 24.325 120.485 24.9079C119.959 25.4907 119.419 26.0806 118.864 26.6776C118.31 27.2605 117.748 27.8433 117.18 28.4261C116.625 29.0089 116.078 29.5633 115.538 30.0893C116.135 30.5442 116.739 31.0772 117.35 31.6885C117.976 32.2855 118.587 32.9323 119.184 33.6288C119.781 34.3112 120.35 35.029 120.89 35.7824C121.444 36.5216 121.949 37.2608 122.404 38H119.227ZM129.652 29.7694C130.292 28.7033 130.917 27.623 131.528 26.5284C132.14 25.4338 132.694 24.3322 133.191 23.2234H136.177C135.381 24.7302 134.549 26.2299 133.682 27.7225C132.829 29.2008 131.912 30.6934 130.931 32.2002V38H128.245V32.2429C127.264 30.7219 126.34 29.215 125.473 27.7225C124.606 26.2299 123.774 24.7302 122.978 23.2234H126.134C126.631 24.3322 127.178 25.4338 127.776 26.5284C128.373 27.623 128.998 28.7033 129.652 29.7694ZM142.467 38.1706C141.685 38.1706 140.896 38.1422 140.1 38.0853C139.304 38.0426 138.607 37.9431 138.01 37.7868V23.4366C138.323 23.3797 138.657 23.33 139.013 23.2873C139.368 23.2305 139.73 23.1878 140.1 23.1594C140.47 23.131 140.832 23.1096 141.187 23.0954C141.557 23.0812 141.905 23.0741 142.232 23.0741C143.128 23.0741 143.959 23.1452 144.727 23.2873C145.495 23.4153 146.156 23.6356 146.71 23.9483C147.279 24.2611 147.719 24.6733 148.032 25.1851C148.345 25.6968 148.501 26.3294 148.501 27.0828C148.501 27.7793 148.331 28.3764 147.989 28.8739C147.662 29.3714 147.2 29.7694 146.603 30.068C147.499 30.3665 148.16 30.8071 148.586 31.39C149.013 31.9728 149.226 32.712 149.226 33.6075C149.226 35.1285 148.672 36.2729 147.563 37.0405C146.454 37.7939 144.755 38.1706 142.467 38.1706ZM140.654 31.3473V35.8464C140.953 35.8748 141.273 35.8962 141.614 35.9104C141.955 35.9246 142.268 35.9317 142.552 35.9317C143.107 35.9317 143.618 35.8962 144.087 35.8251C144.571 35.754 144.983 35.6332 145.324 35.4626C145.679 35.2778 145.957 35.0361 146.156 34.7376C146.369 34.4391 146.476 34.0553 146.476 33.5862C146.476 32.7475 146.17 32.1647 145.559 31.8377C144.947 31.5108 144.102 31.3473 143.021 31.3473H140.654ZM140.654 29.2364H142.552C143.576 29.2364 144.379 29.0942 144.962 28.8099C145.544 28.5114 145.836 27.9854 145.836 27.232C145.836 26.5213 145.53 26.0166 144.919 25.7181C144.322 25.4196 143.54 25.2704 142.573 25.2704C142.161 25.2704 141.792 25.2775 141.465 25.2917C141.152 25.3059 140.882 25.3272 140.654 25.3556V29.2364ZM152.024 38V23.2234H161.513V25.5049H154.711V29.1511H160.767V31.39H154.711V35.7185H162.025V38H152.024ZM168.591 23.0741C170.723 23.0741 172.351 23.465 173.474 24.2469C174.611 25.0287 175.179 26.2228 175.179 27.8291C175.179 29.8334 174.191 31.191 172.216 31.9017C172.486 32.2287 172.791 32.6267 173.132 33.0958C173.474 33.5649 173.822 34.0766 174.177 34.631C174.533 35.1712 174.874 35.7327 175.201 36.3155C175.528 36.8841 175.819 37.4456 176.075 38H173.068C172.798 37.4883 172.507 36.9765 172.194 36.4648C171.881 35.9388 171.562 35.4342 171.235 34.9509C170.922 34.4533 170.609 33.9913 170.296 33.5649C169.984 33.1242 169.692 32.7333 169.422 32.3921C169.223 32.4063 169.053 32.4135 168.91 32.4135C168.768 32.4135 168.633 32.4135 168.505 32.4135H167.205V38H164.518V23.4366C165.172 23.2944 165.868 23.202 166.608 23.1594C167.347 23.1025 168.008 23.0741 168.591 23.0741ZM168.783 25.3983C168.214 25.3983 167.688 25.4196 167.205 25.4623V30.2385H168.377C169.031 30.2385 169.607 30.203 170.105 30.1319C170.602 30.0608 171.014 29.9329 171.341 29.7481C171.682 29.5633 171.938 29.3146 172.109 29.0018C172.279 28.6891 172.365 28.2911 172.365 27.8078C172.365 27.3529 172.279 26.9691 172.109 26.6563C171.938 26.3436 171.69 26.0948 171.363 25.91C171.05 25.7252 170.673 25.5973 170.232 25.5262C169.792 25.4409 169.309 25.3983 168.783 25.3983Z" fill="white"/>
<g clip-path="url(#clip0)">
<path d="M73.0518 30.1285C73.0518 27.0919 73.0518 24.0561 73.0518 21.021C73.0445 20.6694 73.121 20.321 73.275 20.0048C73.4289 19.6886 73.656 19.4136 73.9373 19.2025C76.8083 16.8988 79.6799 14.5951 82.5524 12.2915C82.8914 12.0193 83.2197 11.6436 83.7208 11.9524C84.2218 12.2612 84.0922 12.7493 83.9993 13.2072C83.0275 17.9844 82.1075 22.7703 81.0535 27.5282C80.6518 29.2909 80.6518 31.1215 81.0535 32.8842C82.1053 37.6356 83.0253 42.428 84.0015 47.2031C84.0965 47.6717 84.2175 48.1577 83.7078 48.46C83.1981 48.7624 82.8936 48.3909 82.5459 48.1123C79.8138 45.9245 77.0905 43.7238 74.339 41.5684C73.8965 41.2521 73.5417 40.8285 73.3078 40.3373C73.074 39.8462 72.9688 39.3037 73.0021 38.7608C73.0561 35.8819 73.0194 33.0009 73.0194 30.122L73.0518 30.1285Z" fill="white"/>
<path d="M99.6271 29.8023C99.6271 32.1111 99.6271 34.4198 99.6271 36.7307C99.6271 37.9401 99.1218 38.2425 98.0765 37.6701C93.6361 35.1937 89.1994 32.7107 84.7662 30.2213C84.1183 29.8585 84.1183 29.7483 84.7662 29.3812C89.2022 26.8932 93.6383 24.4095 98.0743 21.9302C99.1261 21.3428 99.612 21.6473 99.6142 22.874C99.6142 25.1827 99.6142 27.4914 99.6142 29.8023H99.6271Z" fill="white"/>
<path d="M83.8177 32.6963L90.4135 36.3289C92.7503 37.6147 95.0885 38.8975 97.4282 40.1775C98.6743 40.86 98.7002 41.32 97.5448 42.1644L88.9557 48.4535C87.7549 49.3347 87.3553 49.1856 87.0335 47.7473C85.9666 42.9959 84.8968 38.2446 83.8242 33.4932C83.7301 33.2363 83.7279 32.9547 83.8177 32.6963Z" fill="white"/>
<path d="M98.3723 18.8118C98.3442 19.2654 98.0289 19.4749 97.6747 19.6757C95.4502 20.9003 93.23 22.1356 91.0077 23.3623C88.8293 24.5631 86.648 25.761 84.4638 26.9561C84.2672 27.0641 84.0318 27.2908 83.8353 27.1526C83.6388 27.0144 83.7856 26.7207 83.8353 26.5047C84.908 21.726 85.9821 16.948 87.0576 12.1707C87.3535 10.8533 87.753 10.6935 88.8242 11.4732L97.679 17.9307C97.99 18.1574 98.3269 18.3712 98.3723 18.8118Z" fill="white"/>
</g>
<defs>
<clipPath id="clip0">
<rect width="26.6292" height="38" fill="white" transform="translate(73 11)"/>
</clipPath>
</defs>
</svg>
