<svg width="80" height="80" viewBox="0 0 80 80" fill="none" xmlns="http://www.w3.org/2000/svg">
<path d="M29.34 56.07C29.4867 56.3233 29.65 56.6333 29.83 57C30.01 57.3667 30.1933 57.7533 30.38 58.16C30.5667 58.56 30.75 58.97 30.93 59.39C31.1167 59.8033 31.2867 60.1867 31.44 60.54C31.5933 60.1867 31.76 59.8033 31.94 59.39C32.12 58.97 32.3033 58.56 32.49 58.16C32.6767 57.7533 32.86 57.3667 33.04 57C33.22 56.6333 33.3833 56.3233 33.53 56.07H34.67C34.73 56.5767 34.7867 57.1167 34.84 57.69C34.8933 58.2567 34.94 58.84 34.98 59.44C35.0267 60.0333 35.0667 60.6333 35.1 61.24C35.14 61.84 35.1733 62.4267 35.2 63H33.96C33.9333 62.1933 33.9 61.3633 33.86 60.51C33.8267 59.6567 33.7733 58.83 33.7 58.03C33.6267 58.1833 33.54 58.3667 33.44 58.58C33.34 58.7933 33.2333 59.0267 33.12 59.28C33.0067 59.5267 32.89 59.7833 32.77 60.05C32.6567 60.3167 32.5433 60.5767 32.43 60.83C32.3233 61.0767 32.2233 61.31 32.13 61.53C32.0367 61.7433 31.9567 61.9267 31.89 62.08H30.95C30.8833 61.9267 30.8033 61.74 30.71 61.52C30.6167 61.3 30.5133 61.0667 30.4 60.82C30.2933 60.5667 30.18 60.3067 30.06 60.04C29.9467 59.7733 29.8333 59.5167 29.72 59.27C29.6067 59.0233 29.5 58.7933 29.4 58.58C29.3 58.36 29.2133 58.1767 29.14 58.03C29.0667 58.83 29.01 59.6567 28.97 60.51C28.9367 61.3633 28.9067 62.1933 28.88 63H27.64C27.6667 62.4267 27.6967 61.8333 27.73 61.22C27.77 60.6067 27.81 60 27.85 59.4C27.8967 58.7933 27.9467 58.2067 28 57.64C28.0533 57.0733 28.11 56.55 28.17 56.07H29.34ZM37.5579 60.37C37.5579 60.9033 37.6846 61.3233 37.9379 61.63C38.1912 61.93 38.5412 62.08 38.9879 62.08C39.1812 62.08 39.3446 62.0733 39.4779 62.06C39.6179 62.04 39.7312 62.02 39.8179 62V59C39.7112 58.9267 39.5679 58.86 39.3879 58.8C39.2146 58.7333 39.0279 58.7 38.8279 58.7C38.3879 58.7 38.0646 58.85 37.8579 59.15C37.6579 59.45 37.5579 59.8567 37.5579 60.37ZM41.0279 62.84C40.7879 62.9133 40.4846 62.98 40.1179 63.04C39.7579 63.1 39.3779 63.13 38.9779 63.13C38.5646 63.13 38.1946 63.0667 37.8679 62.94C37.5412 62.8133 37.2612 62.6333 37.0279 62.4C36.8012 62.16 36.6246 61.8733 36.4979 61.54C36.3779 61.2 36.3179 60.82 36.3179 60.4C36.3179 59.9867 36.3679 59.6133 36.4679 59.28C36.5746 58.94 36.7279 58.65 36.9279 58.41C37.1279 58.17 37.3712 57.9867 37.6579 57.86C37.9446 57.7267 38.2746 57.66 38.6479 57.66C38.9012 57.66 39.1246 57.69 39.3179 57.75C39.5112 57.81 39.6779 57.8767 39.8179 57.95V55.44L41.0279 55.24V62.84ZM42.2749 60.41C42.2749 59.95 42.3416 59.5467 42.4749 59.2C42.6149 58.8533 42.7983 58.5667 43.0249 58.34C43.2516 58.1067 43.5116 57.9333 43.8049 57.82C44.0983 57.7 44.3983 57.64 44.7049 57.64C45.4249 57.64 45.9849 57.8633 46.3849 58.31C46.7916 58.7567 46.9949 59.4233 46.9949 60.31C46.9949 60.3767 46.9916 60.4533 46.9849 60.54C46.9849 60.62 46.9816 60.6933 46.9749 60.76H43.5249C43.5583 61.18 43.7049 61.5067 43.9649 61.74C44.2316 61.9667 44.6149 62.08 45.1149 62.08C45.4083 62.08 45.6749 62.0533 45.9149 62C46.1616 61.9467 46.3549 61.89 46.4949 61.83L46.6549 62.82C46.5883 62.8533 46.4949 62.89 46.3749 62.93C46.2616 62.9633 46.1283 62.9933 45.9749 63.02C45.8283 63.0533 45.6683 63.08 45.4949 63.1C45.3216 63.12 45.1449 63.13 44.9649 63.13C44.5049 63.13 44.1049 63.0633 43.7649 62.93C43.4249 62.79 43.1449 62.6 42.9249 62.36C42.7049 62.1133 42.5416 61.8267 42.4349 61.5C42.3283 61.1667 42.2749 60.8033 42.2749 60.41ZM45.7849 59.87C45.7849 59.7033 45.7616 59.5467 45.7149 59.4C45.6683 59.2467 45.5983 59.1167 45.5049 59.01C45.4183 58.8967 45.3083 58.81 45.1749 58.75C45.0483 58.6833 44.8949 58.65 44.7149 58.65C44.5283 58.65 44.3649 58.6867 44.2249 58.76C44.0849 58.8267 43.9649 58.9167 43.8649 59.03C43.7716 59.1433 43.6983 59.2733 43.6449 59.42C43.5916 59.5667 43.5549 59.7167 43.5349 59.87H45.7849ZM50.1578 59.48L51.2678 57.77H52.5378L50.8178 60.24C51.1778 60.7067 51.5211 61.18 51.8478 61.66C52.1811 62.1333 52.4545 62.58 52.6678 63H51.3578C51.2978 62.8733 51.2178 62.73 51.1178 62.57C51.0245 62.4033 50.9211 62.2333 50.8078 62.06C50.7011 61.88 50.5878 61.7033 50.4678 61.53C50.3478 61.3567 50.2311 61.1933 50.1178 61.04C49.8845 61.34 49.6545 61.6733 49.4278 62.04C49.2078 62.4 49.0245 62.72 48.8778 63H47.6378C47.7378 62.8 47.8578 62.5867 47.9978 62.36C48.1378 62.1333 48.2878 61.9033 48.4478 61.67C48.6078 61.43 48.7711 61.1933 48.9378 60.96C49.1111 60.72 49.2811 60.4933 49.4478 60.28L47.7178 57.77H49.0478L50.1578 59.48Z" fill="white"/>
<path d="M29.4137 39.0181C29.4137 41.876 29.3654 44.7393 29.4137 47.5972C29.4137 48.5516 29.027 48.5999 28.3396 48.4765C27.5126 48.3473 26.7505 47.9522 26.1689 47.3512C25.5873 46.7503 25.218 45.9763 25.117 45.1468C25.0167 43.8786 24.9808 42.6062 25.0096 41.3344C25.0096 37.7419 25.0096 34.1494 25.0096 30.5569C25.0096 27.6669 26.2181 25.388 28.7692 23.9886C29.9066 23.3094 31.2141 22.9673 32.5389 23.0025C33.8638 23.0376 35.1512 23.4484 36.2509 24.187C37.0174 24.713 37.7362 25.3051 38.3992 25.9564C40.6013 27.9564 42.6154 30.2138 45.0161 31.935C48.7113 34.5891 47.8197 40.1495 45.2095 42.5301C43.98 43.6621 42.4157 44.365 40.7518 44.5332C39.0878 44.7015 37.4141 44.326 35.9823 43.4631C34.5714 42.5867 33.4847 41.2753 32.8868 39.7274C32.2889 38.1795 32.2123 36.4793 32.6685 34.884C33.1143 33.3344 34.3335 32.4229 35.4291 31.3988C35.7138 31.136 35.9071 31.3451 36.1112 31.5275L37.1532 32.4551C37.6903 32.943 38.5389 33.3505 38.7107 33.9511C38.9202 34.6856 37.8406 34.9484 37.411 35.5006C37.0408 35.9759 36.8398 36.5608 36.8398 37.1628C36.8398 37.7649 37.0408 38.3498 37.411 38.8251C37.8153 39.3967 38.3954 39.8212 39.0632 40.0341C39.731 40.247 40.4501 40.2366 41.1115 40.0047C42.9483 39.4041 44.1622 36.6481 42.1212 35.0181C39.4949 32.9216 37.0619 30.5891 34.5644 28.3371C33.5547 27.4256 32.459 27.0502 31.17 27.6079C29.881 28.1655 29.3171 29.2594 29.3224 30.6642C29.3224 33.4417 29.3224 36.2245 29.3224 39.002L29.4137 39.0181Z" fill="white"/>
<path d="M50.6065 39.0346C50.6065 36.3536 50.5689 33.7102 50.6065 31.0507C50.6387 29.5225 50.2306 28.2893 48.7643 27.6351C47.2981 26.9809 46.0789 27.4635 45.139 28.5949C44.4945 29.3617 43.9627 29.4528 43.3075 28.6592C43.0392 28.3791 42.752 28.1176 42.4481 27.8764C40.9282 26.5145 40.9336 26.5198 42.4213 25.1686C44.8328 22.9863 47.5666 22.3858 50.5636 23.678C53.5605 24.9702 54.9945 27.3456 54.9999 30.5359C54.9999 35.2437 54.9462 39.9515 54.8603 44.6539C54.8445 45.5892 54.4961 46.4885 53.8771 47.1908C53.2582 47.8932 52.4092 48.3529 51.482 48.4877C50.773 48.5895 50.4508 48.4394 50.4669 47.6083C50.5152 44.7558 50.4669 41.8978 50.4669 39.0292L50.6065 39.0346Z" fill="white"/>
</svg>
