<svg width="80" height="80" viewBox="0 0 80 80" fill="none" xmlns="http://www.w3.org/2000/svg">
<path d="M31.5 63C31.2733 62.62 31.02 62.2133 30.74 61.78C30.46 61.34 30.17 60.9 29.87 60.46C29.57 60.0133 29.2633 59.5833 28.95 59.17C28.6433 58.75 28.35 58.3733 28.07 58.04V63H26.83V56.07H27.86C28.1267 56.35 28.4133 56.6833 28.72 57.07C29.0267 57.45 29.3333 57.8467 29.64 58.26C29.9533 58.6733 30.2533 59.09 30.54 59.51C30.8333 59.9233 31.0933 60.31 31.32 60.67V56.07H32.57V63H31.5ZM33.8823 60.41C33.8823 59.95 33.949 59.5467 34.0823 59.2C34.2223 58.8533 34.4057 58.5667 34.6323 58.34C34.859 58.1067 35.119 57.9333 35.4123 57.82C35.7057 57.7 36.0057 57.64 36.3123 57.64C37.0323 57.64 37.5923 57.8633 37.9923 58.31C38.399 58.7567 38.6023 59.4233 38.6023 60.31C38.6023 60.3767 38.599 60.4533 38.5923 60.54C38.5923 60.62 38.589 60.6933 38.5823 60.76H35.1323C35.1657 61.18 35.3123 61.5067 35.5723 61.74C35.839 61.9667 36.2223 62.08 36.7223 62.08C37.0157 62.08 37.2823 62.0533 37.5223 62C37.769 61.9467 37.9623 61.89 38.1023 61.83L38.2623 62.82C38.1957 62.8533 38.1023 62.89 37.9823 62.93C37.869 62.9633 37.7357 62.9933 37.5823 63.02C37.4357 63.0533 37.2757 63.08 37.1023 63.1C36.929 63.12 36.7523 63.13 36.5723 63.13C36.1123 63.13 35.7123 63.0633 35.3723 62.93C35.0323 62.79 34.7523 62.6 34.5323 62.36C34.3123 62.1133 34.149 61.8267 34.0423 61.5C33.9357 61.1667 33.8823 60.8033 33.8823 60.41ZM37.3923 59.87C37.3923 59.7033 37.369 59.5467 37.3223 59.4C37.2757 59.2467 37.2057 59.1167 37.1123 59.01C37.0257 58.8967 36.9157 58.81 36.7823 58.75C36.6557 58.6833 36.5023 58.65 36.3223 58.65C36.1357 58.65 35.9723 58.6867 35.8323 58.76C35.6923 58.8267 35.5723 58.9167 35.4723 59.03C35.379 59.1433 35.3057 59.2733 35.2523 59.42C35.199 59.5667 35.1623 59.7167 35.1423 59.87H37.3923ZM42.8652 58.86C42.7652 58.8267 42.6252 58.7933 42.4452 58.76C42.2719 58.72 42.0686 58.7 41.8352 58.7C41.7019 58.7 41.5586 58.7133 41.4052 58.74C41.2586 58.7667 41.1552 58.79 41.0952 58.81V63H39.8852V58.02C40.1186 57.9333 40.4086 57.8533 40.7552 57.78C41.1086 57.7 41.4986 57.66 41.9252 57.66C42.0052 57.66 42.0986 57.6667 42.2052 57.68C42.3119 57.6867 42.4186 57.7 42.5252 57.72C42.6319 57.7333 42.7352 57.7533 42.8352 57.78C42.9352 57.8 43.0152 57.82 43.0752 57.84L42.8652 58.86ZM45.4342 63C45.1009 62.3133 44.7576 61.5267 44.4042 60.64C44.0576 59.7467 43.7409 58.79 43.4542 57.77H44.7442C44.8176 58.0633 44.9009 58.38 44.9942 58.72C45.0942 59.0533 45.1976 59.39 45.3042 59.73C45.4176 60.0633 45.5309 60.39 45.6442 60.71C45.7642 61.0233 45.8742 61.3067 45.9742 61.56C46.0742 61.3067 46.1809 61.0233 46.2942 60.71C46.4076 60.39 46.5176 60.0633 46.6242 59.73C46.7376 59.39 46.8442 59.0533 46.9442 58.72C47.0442 58.38 47.1309 58.0633 47.2042 57.77H48.4542C48.1676 58.79 47.8476 59.7467 47.4942 60.64C47.1476 61.5267 46.8076 62.3133 46.4742 63H45.4342ZM48.9507 60.41C48.9507 59.95 49.0174 59.5467 49.1507 59.2C49.2907 58.8533 49.474 58.5667 49.7007 58.34C49.9274 58.1067 50.1874 57.9333 50.4807 57.82C50.774 57.7 51.074 57.64 51.3807 57.64C52.1007 57.64 52.6607 57.8633 53.0607 58.31C53.4674 58.7567 53.6707 59.4233 53.6707 60.31C53.6707 60.3767 53.6674 60.4533 53.6607 60.54C53.6607 60.62 53.6574 60.6933 53.6507 60.76H50.2007C50.234 61.18 50.3807 61.5067 50.6407 61.74C50.9074 61.9667 51.2907 62.08 51.7907 62.08C52.084 62.08 52.3507 62.0533 52.5907 62C52.8374 61.9467 53.0307 61.89 53.1707 61.83L53.3307 62.82C53.264 62.8533 53.1707 62.89 53.0507 62.93C52.9374 62.9633 52.804 62.9933 52.6507 63.02C52.504 63.0533 52.344 63.08 52.1707 63.1C51.9974 63.12 51.8207 63.13 51.6407 63.13C51.1807 63.13 50.7807 63.0633 50.4407 62.93C50.1007 62.79 49.8207 62.6 49.6007 62.36C49.3807 62.1133 49.2174 61.8267 49.1107 61.5C49.004 61.1667 48.9507 60.8033 48.9507 60.41ZM52.4607 59.87C52.4607 59.7033 52.4374 59.5467 52.3907 59.4C52.344 59.2467 52.274 59.1167 52.1807 59.01C52.094 58.8967 51.984 58.81 51.8507 58.75C51.724 58.6833 51.5707 58.65 51.3907 58.65C51.204 58.65 51.0407 58.6867 50.9007 58.76C50.7607 58.8267 50.6407 58.9167 50.5407 59.03C50.4474 59.1433 50.374 59.2733 50.3207 59.42C50.2674 59.5667 50.2307 59.7167 50.2107 59.87H52.4607Z" fill="white"/>
<path d="M48.0337 43.2506C48.0337 43.8522 47.5451 44.3402 46.9422 44.3402C46.3393 44.3402 45.8508 43.8522 45.8508 43.2506C45.8508 42.649 46.3393 42.1611 46.9422 42.1611C47.5451 42.1611 48.0337 42.649 48.0337 43.2506Z" fill="white" stroke="white" stroke-width="0.140991"/>
<path d="M34.2284 43.1669C34.2284 43.7685 33.7398 44.2564 33.1369 44.2564C32.534 44.2564 32.0454 43.7685 32.0454 43.1669C32.0454 42.5652 32.534 42.0773 33.1369 42.0773C33.7398 42.0773 34.2284 42.5652 34.2284 43.1669Z" fill="white" stroke="white" stroke-width="0.140991"/>
<path d="M41.0725 47.3937C41.0725 47.9953 40.584 48.4832 39.981 48.4832C39.3781 48.4832 38.8896 47.9953 38.8896 47.3937C38.8896 46.7921 39.3781 46.3041 39.981 46.3041C40.584 46.3041 41.0725 46.7921 41.0725 47.3937Z" fill="white" stroke="white" stroke-width="0.140991"/>
<path d="M27.2534 39.2303C27.2534 39.832 26.7649 40.3199 26.162 40.3199C25.5591 40.3199 25.0705 39.832 25.0705 39.2303C25.0705 38.6287 25.5591 38.1408 26.162 38.1408C26.7649 38.1408 27.2534 38.6287 27.2534 39.2303Z" fill="white" stroke="white" stroke-width="0.140991"/>
<path d="M27.2534 31.2357C27.2534 31.8374 26.7649 32.3253 26.162 32.3253C25.5591 32.3253 25.0705 31.8374 25.0705 31.2357C25.0705 30.6341 25.5591 30.1462 26.162 30.1462C26.7649 30.1462 27.2534 30.6341 27.2534 31.2357Z" fill="white" stroke="white" stroke-width="0.140991"/>
<path d="M27.2534 23.2382C27.2534 23.8398 26.7649 24.3277 26.162 24.3277C25.5591 24.3277 25.0705 23.8398 25.0705 23.2382C25.0705 22.6365 25.5591 22.1486 26.162 22.1486C26.7649 22.1486 27.2534 22.6365 27.2534 23.2382Z" fill="white" stroke="white" stroke-width="0.140991"/>
<path d="M41.0725 15.16C41.0725 15.7617 40.584 16.2496 39.981 16.2496C39.3781 16.2496 38.8896 15.7617 38.8896 15.16C38.8896 14.5584 39.3781 14.0705 39.981 14.0705C40.584 14.0705 41.0725 14.5584 41.0725 15.16Z" fill="white" stroke="white" stroke-width="0.140991"/>
<path d="M34.4348 35.1719C34.4348 35.8879 33.8533 36.4686 33.1358 36.4686C32.4183 36.4686 31.8368 35.8879 31.8368 35.1719C31.8368 34.4558 32.4183 33.8752 33.1358 33.8752C33.8533 33.8752 34.4348 34.4558 34.4348 35.1719Z" fill="white" stroke="white" stroke-width="0.140991"/>
<path d="M41.2815 39.1475C41.2815 39.8635 40.7001 40.4441 39.9826 40.4441C39.265 40.4441 38.6836 39.8635 38.6836 39.1475C38.6836 38.4314 39.265 37.8508 39.9826 37.8508C40.7001 37.8508 41.2815 38.4314 41.2815 39.1475Z" fill="white" stroke="white" stroke-width="0.140991"/>
<path d="M48.2473 35.1719C48.2473 35.8879 47.6658 36.4686 46.9483 36.4686C46.2308 36.4686 45.6494 35.8879 45.6494 35.1719C45.6494 34.4558 46.2308 33.8752 46.9483 33.8752C47.6658 33.8752 48.2473 34.4558 48.2473 35.1719Z" fill="white" stroke="white" stroke-width="0.140991"/>
<path d="M48.2473 27.1758C48.2473 27.8918 47.6658 28.4725 46.9483 28.4725C46.2308 28.4725 45.6494 27.8918 45.6494 27.1758C45.6494 26.4597 46.2308 25.8791 46.9483 25.8791C47.6658 25.8791 48.2473 26.4597 48.2473 27.1758Z" fill="white" stroke="white" stroke-width="0.140991"/>
<path d="M34.2255 27.1758C34.2255 27.8918 33.6441 28.4725 32.9266 28.4725C32.209 28.4725 31.6276 27.8918 31.6276 27.1758C31.6276 26.4597 32.209 25.8791 32.9266 25.8791C33.6441 25.8791 34.2255 26.4597 34.2255 27.1758Z" fill="white" stroke="white" stroke-width="0.140991"/>
<path d="M41.2815 23.2392C41.2815 23.9553 40.7001 24.5359 39.9826 24.5359C39.265 24.5359 38.6836 23.9553 38.6836 23.2392C38.6836 22.5232 39.265 21.9426 39.9826 21.9426C40.7001 21.9426 41.2815 22.5232 41.2815 23.2392Z" fill="white" stroke="white" stroke-width="0.140991"/>
<path d="M41.7761 31.2339C41.7761 32.1787 41.0088 32.9449 40.0621 32.9449C39.1154 32.9449 38.3482 32.1787 38.3482 31.2339C38.3482 30.289 39.1154 29.5229 40.0621 29.5229C41.0088 29.5229 41.7761 30.289 41.7761 31.2339Z" fill="white" stroke="white" stroke-width="0.140991"/>
<path d="M34.2284 19.3448C34.2284 19.9465 33.7398 20.4344 33.1369 20.4344C32.534 20.4344 32.0454 19.9465 32.0454 19.3448C32.0454 18.7432 32.534 18.2553 33.1369 18.2553C33.7398 18.2553 34.2284 18.7432 34.2284 19.3448Z" fill="white" stroke="white" stroke-width="0.140991"/>
<path d="M48.0337 19.4286C48.0337 20.0302 47.5451 20.5181 46.9422 20.5181C46.3393 20.5181 45.8508 20.0302 45.8508 19.4286C45.8508 18.827 46.3393 18.3391 46.9422 18.3391C47.5451 18.3391 48.0337 18.827 48.0337 19.4286Z" fill="white" stroke="white" stroke-width="0.140991"/>
<path d="M54.9295 23.2382C54.9295 23.8398 54.441 24.3277 53.838 24.3277C53.2351 24.3277 52.7466 23.8398 52.7466 23.2382C52.7466 22.6365 53.2351 22.1486 53.838 22.1486C54.441 22.1486 54.9295 22.6365 54.9295 23.2382Z" fill="white" stroke="white" stroke-width="0.140991"/>
<path d="M54.9295 31.2357C54.9295 31.8374 54.441 32.3253 53.838 32.3253C53.2351 32.3253 52.7466 31.8374 52.7466 31.2357C52.7466 30.6341 53.2351 30.1462 53.838 30.1462C54.441 30.1462 54.9295 30.6341 54.9295 31.2357Z" fill="white" stroke="white" stroke-width="0.140991"/>
<path d="M54.9295 39.2303C54.9295 39.832 54.441 40.3199 53.838 40.3199C53.2351 40.3199 52.7466 39.832 52.7466 39.2303C52.7466 38.6287 53.2351 38.1408 53.838 38.1408C54.441 38.1408 54.9295 38.6287 54.9295 39.2303Z" fill="white" stroke="white" stroke-width="0.140991"/>
<path d="M27.0741 38.858L32.303 35.6265" stroke="white" stroke-width="0.323251" stroke-linejoin="round"/>
<path d="M27.0741 30.8621L32.303 27.6306" stroke="white" stroke-width="0.323251" stroke-linejoin="round"/>
<path d="M33.6757 35.1304L39.278 31.7332" stroke="white" stroke-width="0.323251" stroke-linejoin="round"/>
<path d="M47.3672 42.9605L53.0111 39.5632" stroke="white" stroke-width="0.323251" stroke-linejoin="round"/>
<path d="M41.5196 30.3643L47.122 26.967" stroke="white" stroke-width="0.323251" stroke-linejoin="round"/>
<path d="M47.8681 26.7604L53.4705 23.3218" stroke="white" stroke-width="0.323251" stroke-linejoin="round"/>
<path d="M40.3956 23.1972L46.0394 19.7585" stroke="white" stroke-width="0.323251" stroke-linejoin="round"/>
<path d="M34.0471 42.711L39.6909 39.3137" stroke="white" stroke-width="0.323251" stroke-linejoin="round"/>
<path d="M47.9446 34.7972L53.547 31.3999" stroke="white" stroke-width="0.323251" stroke-linejoin="round"/>
<path d="M33.3827 19.2205L39.0681 22.8663" stroke="white" stroke-width="0.323251" stroke-linejoin="round"/>
<path d="M33.3827 27.2166L39.0681 30.8624" stroke="white" stroke-width="0.323251" stroke-linejoin="round"/>
<path d="M41.4751 32.1458L47.1605 35.7916" stroke="white" stroke-width="0.323251" stroke-linejoin="round"/>
<path d="M40.6434 39.3137L46.3702 42.9595" stroke="white" stroke-width="0.323251" stroke-linejoin="round"/>
<path d="M27.0741 22.7838L32.303 19.5522" stroke="white" stroke-width="0.323251" stroke-linejoin="round"/>
</svg>
