<svg width="80" height="80" viewBox="0 0 80 80" fill="none" xmlns="http://www.w3.org/2000/svg">
<path d="M9.79 56C10.7967 56 11.5667 56.1833 12.1 56.55C12.64 56.9167 12.91 57.49 12.91 58.27C12.91 58.6767 12.8367 59.0267 12.69 59.32C12.55 59.6067 12.3433 59.8433 12.07 60.03C11.7967 60.21 11.4633 60.3433 11.07 60.43C10.6767 60.5167 10.2267 60.56 9.72 60.56H9.09V63H7.83V56.17C8.12333 56.1033 8.44667 56.06 8.8 56.04C9.16 56.0133 9.49 56 9.79 56ZM9.88 57.09C9.56 57.09 9.29667 57.1 9.09 57.12V59.48H9.7C10.3067 59.48 10.7733 59.3967 11.1 59.23C11.4267 59.0567 11.59 58.7333 11.59 58.26C11.59 58.0333 11.5467 57.8433 11.46 57.69C11.3733 57.5367 11.2533 57.4167 11.1 57.33C10.9467 57.2433 10.7633 57.1833 10.55 57.15C10.3433 57.11 10.12 57.09 9.88 57.09ZM15.6745 62.15C16.0478 62.15 16.3311 62.13 16.5245 62.09V60.75C16.4578 60.73 16.3611 60.71 16.2345 60.69C16.1078 60.67 15.9678 60.66 15.8145 60.66C15.6811 60.66 15.5445 60.67 15.4045 60.69C15.2711 60.71 15.1478 60.7467 15.0345 60.8C14.9278 60.8533 14.8411 60.93 14.7745 61.03C14.7078 61.1233 14.6745 61.2433 14.6745 61.39C14.6745 61.6767 14.7645 61.8767 14.9445 61.99C15.1245 62.0967 15.3678 62.15 15.6745 62.15ZM15.5745 57.64C15.9745 57.64 16.3111 57.69 16.5845 57.79C16.8578 57.89 17.0745 58.03 17.2345 58.21C17.4011 58.39 17.5178 58.61 17.5845 58.87C17.6578 59.1233 17.6945 59.4033 17.6945 59.71V62.88C17.5078 62.92 17.2245 62.9667 16.8445 63.02C16.4711 63.08 16.0478 63.11 15.5745 63.11C15.2611 63.11 14.9745 63.08 14.7145 63.02C14.4545 62.96 14.2311 62.8633 14.0445 62.73C13.8645 62.5967 13.7211 62.4233 13.6145 62.21C13.5145 61.9967 13.4645 61.7333 13.4645 61.42C13.4645 61.12 13.5211 60.8667 13.6345 60.66C13.7545 60.4533 13.9145 60.2867 14.1145 60.16C14.3145 60.0267 14.5445 59.9333 14.8045 59.88C15.0711 59.82 15.3478 59.79 15.6345 59.79C15.7678 59.79 15.9078 59.8 16.0545 59.82C16.2011 59.8333 16.3578 59.86 16.5245 59.9V59.7C16.5245 59.56 16.5078 59.4267 16.4745 59.3C16.4411 59.1733 16.3811 59.0633 16.2945 58.97C16.2145 58.87 16.1045 58.7933 15.9645 58.74C15.8311 58.6867 15.6611 58.66 15.4545 58.66C15.1745 58.66 14.9178 58.68 14.6845 58.72C14.4511 58.76 14.2611 58.8067 14.1145 58.86L13.9645 57.88C14.1178 57.8267 14.3411 57.7733 14.6345 57.72C14.9278 57.6667 15.2411 57.64 15.5745 57.64ZM19.1763 57.94C19.4096 57.8733 19.7129 57.81 20.0863 57.75C20.4596 57.69 20.8729 57.66 21.3263 57.66C21.7529 57.66 22.1096 57.72 22.3963 57.84C22.6829 57.9533 22.9096 58.1167 23.0763 58.33C23.2496 58.5367 23.3696 58.79 23.4363 59.09C23.5096 59.3833 23.5462 59.7067 23.5462 60.06V63H22.3363V60.25C22.3363 59.97 22.3163 59.7333 22.2763 59.54C22.2429 59.34 22.1829 59.18 22.0963 59.06C22.0163 58.9333 21.9029 58.8433 21.7563 58.79C21.6163 58.73 21.4429 58.7 21.2363 58.7C21.0829 58.7 20.9229 58.71 20.7563 58.73C20.5896 58.75 20.4663 58.7667 20.3863 58.78V63H19.1763V57.94ZM24.7359 60.39C24.7359 60.0033 24.7959 59.6433 24.9159 59.31C25.0359 58.97 25.2059 58.6767 25.4259 58.43C25.6525 58.1833 25.9259 57.99 26.2459 57.85C26.5659 57.71 26.9259 57.64 27.3259 57.64C27.8192 57.64 28.2859 57.73 28.7259 57.91L28.4659 58.9C28.3259 58.84 28.1659 58.79 27.9859 58.75C27.8125 58.71 27.6259 58.69 27.4259 58.69C26.9525 58.69 26.5925 58.84 26.3459 59.14C26.0992 59.4333 25.9759 59.85 25.9759 60.39C25.9759 60.91 26.0925 61.3233 26.3259 61.63C26.5592 61.93 26.9525 62.08 27.5059 62.08C27.7125 62.08 27.9159 62.06 28.1159 62.02C28.3159 61.98 28.4892 61.93 28.6359 61.87L28.8059 62.87C28.6725 62.9367 28.4692 62.9967 28.1959 63.05C27.9292 63.1033 27.6525 63.13 27.3659 63.13C26.9192 63.13 26.5292 63.0633 26.1959 62.93C25.8692 62.79 25.5959 62.6 25.3759 62.36C25.1625 62.1133 25.0025 61.8233 24.8959 61.49C24.7892 61.15 24.7359 60.7833 24.7359 60.39ZM31.5827 62.15C31.956 62.15 32.2393 62.13 32.4327 62.09V60.75C32.366 60.73 32.2693 60.71 32.1427 60.69C32.016 60.67 31.876 60.66 31.7227 60.66C31.5893 60.66 31.4527 60.67 31.3127 60.69C31.1793 60.71 31.056 60.7467 30.9427 60.8C30.836 60.8533 30.7493 60.93 30.6827 61.03C30.616 61.1233 30.5827 61.2433 30.5827 61.39C30.5827 61.6767 30.6727 61.8767 30.8527 61.99C31.0327 62.0967 31.276 62.15 31.5827 62.15ZM31.4827 57.64C31.8827 57.64 32.2193 57.69 32.4927 57.79C32.766 57.89 32.9827 58.03 33.1427 58.21C33.3093 58.39 33.426 58.61 33.4927 58.87C33.566 59.1233 33.6027 59.4033 33.6027 59.71V62.88C33.416 62.92 33.1327 62.9667 32.7527 63.02C32.3793 63.08 31.956 63.11 31.4827 63.11C31.1693 63.11 30.8827 63.08 30.6227 63.02C30.3627 62.96 30.1393 62.8633 29.9527 62.73C29.7727 62.5967 29.6293 62.4233 29.5227 62.21C29.4227 61.9967 29.3727 61.7333 29.3727 61.42C29.3727 61.12 29.4293 60.8667 29.5427 60.66C29.6627 60.4533 29.8227 60.2867 30.0227 60.16C30.2227 60.0267 30.4527 59.9333 30.7127 59.88C30.9793 59.82 31.256 59.79 31.5427 59.79C31.676 59.79 31.816 59.8 31.9627 59.82C32.1093 59.8333 32.266 59.86 32.4327 59.9V59.7C32.4327 59.56 32.416 59.4267 32.3827 59.3C32.3493 59.1733 32.2893 59.0633 32.2027 58.97C32.1227 58.87 32.0127 58.7933 31.8727 58.74C31.7393 58.6867 31.5693 58.66 31.3627 58.66C31.0827 58.66 30.826 58.68 30.5927 58.72C30.3593 58.76 30.1693 58.8067 30.0227 58.86L29.8727 57.88C30.026 57.8267 30.2493 57.7733 30.5427 57.72C30.836 57.6667 31.1493 57.64 31.4827 57.64ZM36.2945 59.81C36.4478 59.65 36.6111 59.48 36.7845 59.3C36.9578 59.1133 37.1278 58.93 37.2945 58.75C37.4611 58.5633 37.6178 58.3867 37.7645 58.22C37.9178 58.0467 38.0478 57.8967 38.1545 57.77H39.5845C39.2511 58.1433 38.8978 58.53 38.5245 58.93C38.1578 59.33 37.7878 59.72 37.4145 60.1C37.6145 60.2667 37.8245 60.47 38.0445 60.71C38.2645 60.9433 38.4778 61.1933 38.6845 61.46C38.8911 61.7267 39.0845 61.9933 39.2645 62.26C39.4445 62.5267 39.5945 62.7733 39.7145 63H38.3145C38.1945 62.7933 38.0545 62.5767 37.8945 62.35C37.7411 62.1233 37.5745 61.9033 37.3945 61.69C37.2145 61.4767 37.0311 61.2767 36.8445 61.09C36.6578 60.8967 36.4745 60.7333 36.2945 60.6V63H35.0845V55.44L36.2945 55.24V59.81ZM40.0679 60.41C40.0679 59.95 40.1346 59.5467 40.2679 59.2C40.4079 58.8533 40.5912 58.5667 40.8179 58.34C41.0446 58.1067 41.3046 57.9333 41.5979 57.82C41.8912 57.7 42.1912 57.64 42.4979 57.64C43.2179 57.64 43.7779 57.8633 44.1779 58.31C44.5846 58.7567 44.7879 59.4233 44.7879 60.31C44.7879 60.3767 44.7846 60.4533 44.7779 60.54C44.7779 60.62 44.7746 60.6933 44.7679 60.76H41.3179C41.3512 61.18 41.4979 61.5067 41.7579 61.74C42.0246 61.9667 42.4079 62.08 42.9079 62.08C43.2012 62.08 43.4679 62.0533 43.7079 62C43.9546 61.9467 44.1479 61.89 44.2879 61.83L44.4479 62.82C44.3812 62.8533 44.2879 62.89 44.1679 62.93C44.0546 62.9633 43.9212 62.9933 43.7679 63.02C43.6212 63.0533 43.4612 63.08 43.2879 63.1C43.1146 63.12 42.9379 63.13 42.7579 63.13C42.2979 63.13 41.8979 63.0633 41.5579 62.93C41.2179 62.79 40.9379 62.6 40.7179 62.36C40.4979 62.1133 40.3346 61.8267 40.2279 61.5C40.1212 61.1667 40.0679 60.8033 40.0679 60.41ZM43.5779 59.87C43.5779 59.7033 43.5546 59.5467 43.5079 59.4C43.4612 59.2467 43.3912 59.1167 43.2979 59.01C43.2112 58.8967 43.1012 58.81 42.9679 58.75C42.8412 58.6833 42.6879 58.65 42.5079 58.65C42.3212 58.65 42.1579 58.6867 42.0179 58.76C41.8779 58.8267 41.7579 58.9167 41.6579 59.03C41.5646 59.1433 41.4912 59.2733 41.4379 59.42C41.3846 59.5667 41.3479 59.7167 41.3279 59.87H43.5779ZM50.1448 62.06C50.5981 62.06 50.9281 61.9833 51.1348 61.83C51.3414 61.6767 51.4448 61.46 51.4448 61.18C51.4448 61.0133 51.4081 60.87 51.3348 60.75C51.2681 60.63 51.1681 60.5233 51.0348 60.43C50.9081 60.33 50.7514 60.24 50.5648 60.16C50.3781 60.0733 50.1648 59.99 49.9248 59.91C49.6848 59.8233 49.4514 59.73 49.2248 59.63C49.0048 59.5233 48.8081 59.3933 48.6348 59.24C48.4681 59.0867 48.3314 58.9033 48.2248 58.69C48.1248 58.4767 48.0748 58.22 48.0748 57.92C48.0748 57.2933 48.2914 56.8033 48.7248 56.45C49.1581 56.09 49.7481 55.91 50.4948 55.91C50.9281 55.91 51.3114 55.96 51.6448 56.06C51.9848 56.1533 52.2514 56.2567 52.4448 56.37L52.0548 57.39C51.8281 57.2633 51.5781 57.1667 51.3048 57.1C51.0381 57.0333 50.7614 57 50.4748 57C50.1348 57 49.8681 57.07 49.6748 57.21C49.4881 57.35 49.3948 57.5467 49.3948 57.8C49.3948 57.9533 49.4248 58.0867 49.4848 58.2C49.5514 58.3067 49.6414 58.4033 49.7548 58.49C49.8748 58.5767 50.0114 58.6567 50.1648 58.73C50.3248 58.8033 50.4981 58.8733 50.6848 58.94C51.0114 59.06 51.3014 59.1833 51.5548 59.31C51.8148 59.43 52.0314 59.5767 52.2048 59.75C52.3848 59.9167 52.5214 60.1167 52.6148 60.35C52.7081 60.5767 52.7548 60.8533 52.7548 61.18C52.7548 61.8067 52.5314 62.2933 52.0848 62.64C51.6448 62.98 50.9981 63.15 50.1448 63.15C49.8581 63.15 49.5948 63.13 49.3548 63.09C49.1214 63.0567 48.9114 63.0133 48.7248 62.96C48.5448 62.9067 48.3881 62.8533 48.2548 62.8C48.1214 62.74 48.0148 62.6867 47.9348 62.64L48.3048 61.61C48.4848 61.71 48.7281 61.81 49.0348 61.91C49.3414 62.01 49.7114 62.06 50.1448 62.06ZM56.9252 59.71C56.7718 60.2967 56.6052 60.87 56.4252 61.43C56.2518 61.9833 56.0785 62.5067 55.9052 63H54.9152C54.7818 62.6933 54.6418 62.3433 54.4952 61.95C54.3485 61.5567 54.2018 61.1367 54.0552 60.69C53.9085 60.2433 53.7618 59.7733 53.6152 59.28C53.4685 58.7867 53.3252 58.2833 53.1852 57.77H54.4652C54.5252 58.05 54.5952 58.3533 54.6752 58.68C54.7552 59 54.8385 59.33 54.9252 59.67C55.0118 60.0033 55.1018 60.33 55.1952 60.65C55.2885 60.97 55.3818 61.2633 55.4752 61.53C55.5752 61.2233 55.6718 60.9067 55.7652 60.58C55.8652 60.2533 55.9585 59.9267 56.0452 59.6C56.1318 59.2733 56.2118 58.9567 56.2852 58.65C56.3652 58.3367 56.4352 58.0433 56.4952 57.77H57.4252C57.4852 58.0433 57.5518 58.3367 57.6252 58.65C57.6985 58.9567 57.7752 59.2733 57.8552 59.6C57.9418 59.9267 58.0318 60.2533 58.1252 60.58C58.2252 60.9067 58.3252 61.2233 58.4252 61.53C58.5118 61.2633 58.6018 60.97 58.6952 60.65C58.7885 60.33 58.8785 60.0033 58.9652 59.67C59.0585 59.33 59.1452 59 59.2252 58.68C59.3052 58.3533 59.3752 58.05 59.4352 57.77H60.6852C60.5452 58.2833 60.4018 58.7867 60.2552 59.28C60.1085 59.7733 59.9618 60.2433 59.8152 60.69C59.6685 61.1367 59.5218 61.5567 59.3752 61.95C59.2285 62.3433 59.0852 62.6933 58.9452 63H57.9652C57.7918 62.5067 57.6118 61.9833 57.4252 61.43C57.2452 60.87 57.0785 60.2967 56.9252 59.71ZM63.4479 62.15C63.8212 62.15 64.1046 62.13 64.2979 62.09V60.75C64.2312 60.73 64.1346 60.71 64.0079 60.69C63.8812 60.67 63.7412 60.66 63.5879 60.66C63.4546 60.66 63.3179 60.67 63.1779 60.69C63.0446 60.71 62.9212 60.7467 62.8079 60.8C62.7012 60.8533 62.6146 60.93 62.5479 61.03C62.4812 61.1233 62.4479 61.2433 62.4479 61.39C62.4479 61.6767 62.5379 61.8767 62.7179 61.99C62.8979 62.0967 63.1412 62.15 63.4479 62.15ZM63.3479 57.64C63.7479 57.64 64.0846 57.69 64.3579 57.79C64.6312 57.89 64.8479 58.03 65.0079 58.21C65.1746 58.39 65.2912 58.61 65.3579 58.87C65.4312 59.1233 65.4679 59.4033 65.4679 59.71V62.88C65.2812 62.92 64.9979 62.9667 64.6179 63.02C64.2446 63.08 63.8212 63.11 63.3479 63.11C63.0346 63.11 62.7479 63.08 62.4879 63.02C62.2279 62.96 62.0046 62.8633 61.8179 62.73C61.6379 62.5967 61.4946 62.4233 61.3879 62.21C61.2879 61.9967 61.2379 61.7333 61.2379 61.42C61.2379 61.12 61.2946 60.8667 61.4079 60.66C61.5279 60.4533 61.6879 60.2867 61.8879 60.16C62.0879 60.0267 62.3179 59.9333 62.5779 59.88C62.8446 59.82 63.1212 59.79 63.4079 59.79C63.5412 59.79 63.6812 59.8 63.8279 59.82C63.9746 59.8333 64.1312 59.86 64.2979 59.9V59.7C64.2979 59.56 64.2812 59.4267 64.2479 59.3C64.2146 59.1733 64.1546 59.0633 64.0679 58.97C63.9879 58.87 63.8779 58.7933 63.7379 58.74C63.6046 58.6867 63.4346 58.66 63.2279 58.66C62.9479 58.66 62.6912 58.68 62.4579 58.72C62.2246 58.76 62.0346 58.8067 61.8879 58.86L61.7379 57.88C61.8912 57.8267 62.1146 57.7733 62.4079 57.72C62.7012 57.6667 63.0146 57.64 63.3479 57.64ZM70.4197 60.41C70.4197 59.87 70.2964 59.45 70.0497 59.15C69.8097 58.85 69.4197 58.7 68.8797 58.7C68.7664 58.7 68.6464 58.7067 68.5197 58.72C68.3997 58.7267 68.2797 58.7467 68.1597 58.78V61.77C68.2664 61.8433 68.4064 61.9133 68.5797 61.98C68.7597 62.04 68.9497 62.07 69.1497 62.07C69.5897 62.07 69.9097 61.92 70.1097 61.62C70.3164 61.32 70.4197 60.9167 70.4197 60.41ZM71.6597 60.39C71.6597 60.79 71.6064 61.1567 71.4997 61.49C71.3997 61.8233 71.253 62.11 71.0597 62.35C70.8664 62.59 70.623 62.7767 70.3297 62.91C70.043 63.0433 69.7164 63.11 69.3497 63.11C69.103 63.11 68.8764 63.08 68.6697 63.02C68.463 62.96 68.293 62.8933 68.1597 62.82V64.85H66.9497V57.94C67.1964 57.8733 67.4997 57.81 67.8597 57.75C68.2197 57.69 68.5997 57.66 68.9997 57.66C69.413 57.66 69.783 57.7233 70.1097 57.85C70.4364 57.9767 70.713 58.16 70.9397 58.4C71.173 58.6333 71.3497 58.92 71.4697 59.26C71.5964 59.5933 71.6597 59.97 71.6597 60.39Z" fill="white"/>
<path fill-rule="evenodd" clip-rule="evenodd" d="M30.4442 23.7129C29.9873 21.2424 31.8909 19 34.3655 19C36.5736 19 38.3629 20.7864 38.3629 22.9908V27.8938C38.934 27.8558 39.467 27.8178 40.0381 27.8178C40.6091 27.8178 41.1041 27.8558 41.6371 27.8938V22.9908C41.6371 20.7864 43.4264 19 45.6345 19C48.1091 19 50.0127 21.2424 49.5558 23.7129L48.4898 29.4901C52.1827 31.0864 55 33.899 55 37.4337V39.5621C55 42.4887 53.0584 44.8832 50.3934 46.5555C47.6904 48.2278 43.9975 49.216 40 49.216C36.0025 49.216 32.3096 48.2278 29.6066 46.5555C26.9036 44.9212 25 42.4507 25 39.5621V37.4717C25 33.975 27.7792 31.1624 31.4721 29.5281L30.4442 23.7129ZM47.1954 30.2503L48.4898 23.4849C48.8325 21.7746 47.5 20.2162 45.7868 20.2162C44.264 20.2162 43.0076 21.4705 43.0076 22.9908V29.2621C42.6269 29.186 42.2081 29.148 41.7893 29.148C41.2183 29.11 40.6853 29.11 40.1523 29.11C39.5812 29.11 39.0102 29.148 38.4772 29.186C38.0584 29.2241 37.6777 29.2621 37.2589 29.3001V23.0288C37.2589 21.5085 36.0025 20.2543 34.4797 20.2543C32.7284 20.2543 31.434 21.8126 31.7767 23.5229L33.0711 30.3263C29.1117 31.8086 26.4467 34.4691 26.4467 37.5477V39.6761C26.4467 44.3131 32.6142 48.0758 40.2284 48.0758C47.8426 48.0758 54.0102 44.3131 54.0102 39.6761V37.5477C53.8959 34.4311 51.1929 31.7325 47.1954 30.2503Z" fill="white"/>
<path d="M53.8973 39.6382C53.8973 44.2751 47.7298 48.0379 40.1156 48.0379C32.5014 48.0379 26.3339 44.2751 26.3339 39.6382V37.5098H53.8973V39.6382Z" fill="#202251"/>
<path fill-rule="evenodd" clip-rule="evenodd" d="M31.6625 23.4849C31.3199 21.7745 32.6524 20.2162 34.3656 20.2162C35.8884 20.2162 37.1448 21.4705 37.1448 22.9908V29.262C38.0966 29.148 39.0483 29.072 40.0762 29.072C41.0661 29.072 42.0179 29.148 42.9316 29.224V22.9528C42.9316 21.4325 44.1879 20.1782 45.7108 20.1782C47.462 20.1782 48.7564 21.7365 48.4138 23.4469L47.1194 30.2122C51.1169 31.6945 53.8199 34.3551 53.8199 37.4337C53.8199 42.0706 47.6524 45.8333 40.0382 45.8333C32.424 45.8333 26.2565 42.0706 26.2565 37.4337C26.2565 34.3931 28.9214 31.6945 32.8808 30.2122L31.6625 23.4849Z" fill="white"/>
<path d="M36.2693 36.9018C36.2693 38.1941 35.584 39.1822 34.7465 39.1822C33.9089 39.1822 33.2236 38.156 33.2236 36.9018C33.2236 35.6475 33.9089 34.6213 34.7465 34.6213C35.584 34.6213 36.2693 35.6095 36.2693 36.9018Z" fill="#202251"/>
<path d="M46.8112 36.9016C46.8112 38.1939 46.126 39.1821 45.2884 39.1821C44.4508 39.1821 43.7656 38.1558 43.7656 36.9016C43.7656 35.6473 44.4508 34.6211 45.2884 34.6211C46.126 34.5831 46.8112 35.6093 46.8112 36.9016Z" fill="#202251"/>
</svg>
