<svg width="250" height="60" viewBox="0 0 250 60" fill="none" xmlns="http://www.w3.org/2000/svg">
<path d="M85.1644 23.6893C87.3108 23.6893 88.9527 24.0803 90.0899 24.8621C91.2413 25.6439 91.817 26.8664 91.817 28.5296C91.817 29.3967 91.6607 30.143 91.3479 30.7685C91.0494 31.3797 90.6088 31.8844 90.0259 32.2824C89.4431 32.6662 88.7324 32.9505 87.8937 33.1353C87.055 33.3201 86.0955 33.4125 85.0151 33.4125H83.6718V38.6152H80.9851V24.0518C81.6106 23.9097 82.3 23.8173 83.0534 23.7746C83.821 23.7178 84.5247 23.6893 85.1644 23.6893ZM85.3563 26.0135C84.6739 26.0135 84.1124 26.0348 83.6718 26.0775V31.1096H84.9725C86.266 31.1096 87.2611 30.932 87.9576 30.5766C88.6542 30.207 89.0025 29.5175 89.0025 28.5083C89.0025 28.025 88.9101 27.6198 88.7253 27.2929C88.5405 26.9659 88.2846 26.7101 87.9576 26.5253C87.6307 26.3405 87.2398 26.2125 86.7849 26.1415C86.3442 26.0562 85.868 26.0135 85.3563 26.0135ZM97.7116 36.8028C98.5077 36.8028 99.1118 36.7602 99.524 36.6749V33.8176C99.3819 33.775 99.1758 33.7323 98.9057 33.6897C98.6356 33.647 98.3371 33.6257 98.0101 33.6257C97.7258 33.6257 97.4344 33.647 97.1359 33.6897C96.8516 33.7323 96.5886 33.8105 96.347 33.9242C96.1195 34.038 95.9347 34.2014 95.7926 34.4147C95.6504 34.6137 95.5793 34.8695 95.5793 35.1823C95.5793 35.7935 95.7712 36.22 96.155 36.4616C96.5389 36.6891 97.0577 36.8028 97.7116 36.8028ZM97.4984 27.1863C98.3513 27.1863 99.0692 27.2929 99.652 27.5061C100.235 27.7193 100.697 28.0179 101.038 28.4017C101.393 28.7855 101.642 29.2546 101.784 29.809C101.941 30.3491 102.019 30.9462 102.019 31.6001V38.3594C101.621 38.4447 101.017 38.5442 100.206 38.6579C99.4103 38.7858 98.5077 38.8498 97.4984 38.8498C96.8303 38.8498 96.219 38.7858 95.6646 38.6579C95.1102 38.5299 94.634 38.3238 94.236 38.0395C93.8522 37.7552 93.5466 37.3856 93.3191 36.9307C93.1059 36.4759 92.9993 35.9144 92.9993 35.2462C92.9993 34.6066 93.1201 34.0664 93.3618 33.6257C93.6176 33.1851 93.9588 32.8297 94.3853 32.5596C94.8117 32.2753 95.3021 32.0763 95.8565 31.9626C96.4251 31.8346 97.0151 31.7706 97.6263 31.7706C97.9106 31.7706 98.2091 31.792 98.5219 31.8346C98.8346 31.863 99.1687 31.9199 99.524 32.0052V31.5787C99.524 31.2802 99.4885 30.9959 99.4174 30.7258C99.3463 30.4557 99.2184 30.2212 99.0336 30.0222C98.863 29.809 98.6285 29.6455 98.33 29.5318C98.0457 29.418 97.6832 29.3612 97.2425 29.3612C96.6455 29.3612 96.0982 29.4038 95.6007 29.4891C95.1031 29.5744 94.698 29.6739 94.3853 29.7876L94.0654 27.698C94.3924 27.5843 94.8686 27.4706 95.494 27.3569C96.1195 27.2431 96.7876 27.1863 97.4984 27.1863ZM105.178 27.8259C105.676 27.6838 106.323 27.5488 107.119 27.4208C107.915 27.2929 108.796 27.2289 109.763 27.2289C110.673 27.2289 111.433 27.3568 112.044 27.6127C112.656 27.8544 113.139 28.2027 113.494 28.6575C113.864 29.0982 114.12 29.6384 114.262 30.2781C114.418 30.9035 114.496 31.593 114.496 32.3464V38.6152H111.916V32.7515C111.916 32.1545 111.874 31.6498 111.788 31.2376C111.717 30.8111 111.589 30.47 111.405 30.2141C111.234 29.944 110.992 29.7521 110.68 29.6384C110.381 29.5104 110.012 29.4465 109.571 29.4465C109.244 29.4465 108.903 29.4678 108.547 29.5104C108.192 29.5531 107.929 29.5886 107.758 29.6171V38.6152H105.178V27.8259ZM117.033 33.05C117.033 32.2255 117.161 31.4579 117.417 30.7472C117.673 30.0222 118.035 29.3967 118.504 28.8708C118.988 28.3448 119.57 27.9326 120.253 27.634C120.935 27.3355 121.703 27.1863 122.556 27.1863C123.607 27.1863 124.603 27.3782 125.541 27.762L124.986 29.8729C124.688 29.745 124.347 29.6384 123.963 29.5531C123.593 29.4678 123.195 29.4252 122.769 29.4252C121.759 29.4252 120.992 29.745 120.466 30.3847C119.94 31.0101 119.677 31.8986 119.677 33.05C119.677 34.1588 119.926 35.0401 120.423 35.694C120.921 36.3337 121.759 36.6535 122.939 36.6535C123.38 36.6535 123.814 36.6109 124.24 36.5256C124.666 36.4403 125.036 36.3337 125.349 36.2058L125.711 38.338C125.427 38.4802 124.993 38.6081 124.411 38.7218C123.842 38.8356 123.252 38.8924 122.641 38.8924C121.688 38.8924 120.857 38.7503 120.146 38.466C119.45 38.1675 118.867 37.7623 118.398 37.2506C117.943 36.7246 117.602 36.1063 117.374 35.3955C117.147 34.6705 117.033 33.8887 117.033 33.05ZM131.632 36.8028C132.428 36.8028 133.032 36.7602 133.445 36.6749V33.8176C133.302 33.775 133.096 33.7323 132.826 33.6897C132.556 33.647 132.258 33.6257 131.931 33.6257C131.646 33.6257 131.355 33.647 131.056 33.6897C130.772 33.7323 130.509 33.8105 130.268 33.9242C130.04 34.038 129.855 34.2014 129.713 34.4147C129.571 34.6137 129.5 34.8695 129.5 35.1823C129.5 35.7935 129.692 36.22 130.076 36.4616C130.459 36.6891 130.978 36.8028 131.632 36.8028ZM131.419 27.1863C132.272 27.1863 132.99 27.2929 133.573 27.5061C134.155 27.7193 134.617 28.0179 134.959 28.4017C135.314 28.7855 135.563 29.2546 135.705 29.809C135.861 30.3491 135.939 30.9462 135.939 31.6001V38.3594C135.541 38.4447 134.937 38.5442 134.127 38.6579C133.331 38.7858 132.428 38.8498 131.419 38.8498C130.751 38.8498 130.14 38.7858 129.585 38.6579C129.031 38.5299 128.555 38.3238 128.157 38.0395C127.773 37.7552 127.467 37.3856 127.24 36.9307C127.026 36.4759 126.92 35.9144 126.92 35.2462C126.92 34.6066 127.041 34.0664 127.282 33.6257C127.538 33.1851 127.879 32.8297 128.306 32.5596C128.732 32.2753 129.223 32.0763 129.777 31.9626C130.346 31.8346 130.936 31.7706 131.547 31.7706C131.831 31.7706 132.13 31.792 132.442 31.8346C132.755 31.863 133.089 31.9199 133.445 32.0052V31.5787C133.445 31.2802 133.409 30.9959 133.338 30.7258C133.267 30.4557 133.139 30.2212 132.954 30.0222C132.784 29.809 132.549 29.6455 132.251 29.5318C131.966 29.418 131.604 29.3612 131.163 29.3612C130.566 29.3612 130.019 29.4038 129.521 29.4891C129.024 29.5744 128.619 29.6739 128.306 29.7876L127.986 27.698C128.313 27.5843 128.789 27.4706 129.415 27.3569C130.04 27.2431 130.708 27.1863 131.419 27.1863ZM141.679 31.8133C142.006 31.4721 142.354 31.1096 142.724 30.7258C143.093 30.3278 143.456 29.9369 143.811 29.5531C144.167 29.1551 144.501 28.7784 144.813 28.423C145.14 28.0534 145.418 27.7336 145.645 27.4635H148.694C147.983 28.2595 147.23 29.084 146.434 29.9369C145.652 30.7898 144.863 31.6214 144.067 32.4317C144.494 32.787 144.941 33.2206 145.41 33.7323C145.88 34.2299 146.334 34.7629 146.775 35.3315C147.216 35.9001 147.628 36.4687 148.012 37.0374C148.396 37.606 148.715 38.1319 148.971 38.6152H145.986C145.73 38.1746 145.432 37.7126 145.091 37.2293C144.764 36.7459 144.408 36.2768 144.025 35.822C143.641 35.3671 143.25 34.9406 142.852 34.5426C142.454 34.1304 142.063 33.7821 141.679 33.4978V38.6152H139.099V22.4953L141.679 22.0688V31.8133ZM149.725 33.0927C149.725 32.1118 149.867 31.2518 150.151 30.5126C150.45 29.7734 150.841 29.1622 151.324 28.6789C151.808 28.1813 152.362 27.8117 152.987 27.5701C153.613 27.3142 154.253 27.1863 154.906 27.1863C156.442 27.1863 157.636 27.6625 158.489 28.6149C159.356 29.5673 159.789 30.9888 159.789 32.8794C159.789 33.0216 159.782 33.1851 159.768 33.3699C159.768 33.5404 159.761 33.6968 159.747 33.839H152.39C152.461 34.7345 152.774 35.431 153.329 35.9286C153.897 36.4119 154.715 36.6535 155.781 36.6535C156.406 36.6535 156.975 36.5967 157.486 36.483C158.012 36.3692 158.425 36.2484 158.723 36.1205L159.064 38.2314C158.922 38.3025 158.723 38.3807 158.467 38.466C158.226 38.5371 157.941 38.601 157.614 38.6579C157.302 38.729 156.96 38.7858 156.591 38.8285C156.221 38.8711 155.845 38.8924 155.461 38.8924C154.48 38.8924 153.627 38.7503 152.902 38.466C152.177 38.1675 151.58 37.7623 151.111 37.2506C150.642 36.7246 150.294 36.1134 150.066 35.4168C149.839 34.7061 149.725 33.9313 149.725 33.0927ZM157.209 31.9412C157.209 31.5859 157.16 31.2518 157.06 30.9391C156.96 30.6121 156.811 30.3349 156.612 30.1075C156.427 29.8658 156.193 29.681 155.909 29.5531C155.638 29.4109 155.312 29.3399 154.928 29.3399C154.53 29.3399 154.181 29.418 153.883 29.5744C153.584 29.7166 153.329 29.9085 153.115 30.1501C152.916 30.3918 152.76 30.669 152.646 30.9817C152.532 31.2944 152.454 31.6143 152.412 31.9412H157.209ZM171.212 36.6109C172.178 36.6109 172.882 36.4474 173.323 36.1205C173.763 35.7935 173.984 35.3315 173.984 34.7345C173.984 34.3791 173.905 34.0735 173.749 33.8176C173.607 33.5618 173.394 33.3343 173.109 33.1353C172.839 32.9221 172.505 32.7302 172.107 32.5596C171.709 32.3748 171.254 32.1971 170.743 32.0265C170.231 31.8417 169.733 31.6427 169.25 31.4295C168.781 31.202 168.361 30.9248 167.992 30.5979C167.637 30.271 167.345 29.88 167.118 29.4252C166.904 28.9703 166.798 28.423 166.798 27.7833C166.798 26.4471 167.26 25.4023 168.184 24.6489C169.108 23.8813 170.366 23.4974 171.958 23.4974C172.882 23.4974 173.699 23.6041 174.41 23.8173C175.135 24.0163 175.704 24.2366 176.116 24.4783L175.284 26.6532C174.801 26.3831 174.268 26.177 173.685 26.0348C173.116 25.8927 172.527 25.8216 171.915 25.8216C171.19 25.8216 170.622 25.9709 170.209 26.2694C169.811 26.5679 169.612 26.9873 169.612 27.5274C169.612 27.8544 169.676 28.1387 169.804 28.3803C169.946 28.6078 170.138 28.8139 170.38 28.9987C170.636 29.1835 170.927 29.3541 171.254 29.5104C171.595 29.6668 171.965 29.8161 172.363 29.9582C173.06 30.2141 173.678 30.4771 174.218 30.7472C174.772 31.003 175.234 31.3158 175.604 31.6854C175.988 32.0407 176.279 32.4672 176.478 32.9647C176.677 33.448 176.777 34.038 176.777 34.7345C176.777 36.0707 176.301 37.1084 175.348 37.8476C174.41 38.5726 173.031 38.9351 171.212 38.9351C170.6 38.9351 170.039 38.8924 169.527 38.8071C169.03 38.7361 168.582 38.6437 168.184 38.5299C167.8 38.4162 167.466 38.3025 167.182 38.1888C166.897 38.0608 166.67 37.9471 166.499 37.8476L167.288 35.6514C167.672 35.8646 168.191 36.0778 168.845 36.2911C169.499 36.5043 170.288 36.6109 171.212 36.6109ZM185.669 31.6001C185.342 32.851 184.987 34.0735 184.603 35.2676C184.233 36.4474 183.864 37.5633 183.494 38.6152H181.383C181.099 37.9613 180.801 37.215 180.488 36.3764C180.175 35.5377 179.862 34.6421 179.55 33.6897C179.237 32.7373 178.924 31.7351 178.611 30.6832C178.299 29.6313 177.993 28.558 177.695 27.4635H180.424C180.552 28.0605 180.701 28.7073 180.872 29.4038C181.042 30.0862 181.22 30.7898 181.405 31.5148C181.589 32.2255 181.781 32.9221 181.98 33.6044C182.179 34.2867 182.378 34.9122 182.577 35.4808C182.791 34.8269 182.997 34.1517 183.196 33.4551C183.409 32.7586 183.608 32.0621 183.793 31.3655C183.978 30.669 184.148 29.9938 184.305 29.3399C184.475 28.6717 184.624 28.0463 184.752 27.4635H186.735C186.863 28.0463 187.005 28.6717 187.162 29.3399C187.318 29.9938 187.482 30.669 187.652 31.3655C187.837 32.0621 188.029 32.7586 188.228 33.4551C188.441 34.1517 188.654 34.8269 188.868 35.4808C189.052 34.9122 189.244 34.2867 189.443 33.6044C189.642 32.9221 189.834 32.2255 190.019 31.5148C190.218 30.7898 190.403 30.0862 190.573 29.4038C190.744 28.7073 190.893 28.0605 191.021 27.4635H193.687C193.388 28.558 193.082 29.6313 192.77 30.6832C192.457 31.7351 192.144 32.7373 191.831 33.6897C191.519 34.6421 191.206 35.5377 190.893 36.3764C190.581 37.215 190.275 37.9613 189.976 38.6152H187.887C187.517 37.5633 187.133 36.4474 186.735 35.2676C186.352 34.0735 185.996 32.851 185.669 31.6001ZM199.577 36.8028C200.374 36.8028 200.978 36.7602 201.39 36.6749V33.8176C201.248 33.775 201.042 33.7323 200.772 33.6897C200.501 33.647 200.203 33.6257 199.876 33.6257C199.592 33.6257 199.3 33.647 199.002 33.6897C198.717 33.7323 198.454 33.8105 198.213 33.9242C197.985 34.038 197.801 34.2014 197.658 34.4147C197.516 34.6137 197.445 34.8695 197.445 35.1823C197.445 35.7935 197.637 36.22 198.021 36.4616C198.405 36.6891 198.924 36.8028 199.577 36.8028ZM199.364 27.1863C200.217 27.1863 200.935 27.2929 201.518 27.5061C202.101 27.7193 202.563 28.0179 202.904 28.4017C203.259 28.7855 203.508 29.2546 203.65 29.809C203.806 30.3491 203.885 30.9462 203.885 31.6001V38.3594C203.487 38.4447 202.882 38.5442 202.072 38.6579C201.276 38.7858 200.374 38.8498 199.364 38.8498C198.696 38.8498 198.085 38.7858 197.53 38.6579C196.976 38.5299 196.5 38.3238 196.102 38.0395C195.718 37.7552 195.412 37.3856 195.185 36.9307C194.972 36.4759 194.865 35.9144 194.865 35.2462C194.865 34.6066 194.986 34.0664 195.228 33.6257C195.483 33.1851 195.825 32.8297 196.251 32.5596C196.678 32.2753 197.168 32.0763 197.722 31.9626C198.291 31.8346 198.881 31.7706 199.492 31.7706C199.776 31.7706 200.075 31.792 200.388 31.8346C200.7 31.863 201.035 31.9199 201.39 32.0052V31.5787C201.39 31.2802 201.354 30.9959 201.283 30.7258C201.212 30.4557 201.084 30.2212 200.899 30.0222C200.729 29.809 200.494 29.6455 200.196 29.5318C199.912 29.418 199.549 29.3612 199.108 29.3612C198.511 29.3612 197.964 29.4038 197.467 29.4891C196.969 29.5744 196.564 29.6739 196.251 29.7876L195.931 27.698C196.258 27.5843 196.734 27.4706 197.36 27.3569C197.985 27.2431 198.653 27.1863 199.364 27.1863ZM214.443 33.0927C214.443 31.9412 214.18 31.0457 213.654 30.406C213.143 29.7663 212.311 29.4465 211.16 29.4465C210.918 29.4465 210.662 29.4607 210.392 29.4891C210.136 29.5033 209.88 29.546 209.624 29.6171V35.9925C209.852 36.1489 210.15 36.2982 210.52 36.4403C210.904 36.5683 211.309 36.6322 211.735 36.6322C212.673 36.6322 213.356 36.3124 213.782 35.6727C214.223 35.033 214.443 34.173 214.443 33.0927ZM217.087 33.05C217.087 33.9029 216.973 34.6848 216.746 35.3955C216.533 36.1063 216.22 36.7175 215.808 37.2293C215.396 37.741 214.877 38.139 214.251 38.4233C213.64 38.7076 212.944 38.8498 212.162 38.8498C211.636 38.8498 211.152 38.7858 210.712 38.6579C210.271 38.5299 209.909 38.3878 209.624 38.2314V42.5599H207.044V27.8259C207.57 27.6838 208.217 27.5488 208.985 27.4208C209.752 27.2929 210.562 27.2289 211.415 27.2289C212.297 27.2289 213.086 27.364 213.782 27.634C214.479 27.9041 215.069 28.295 215.552 28.8068C216.05 29.3043 216.426 29.9156 216.682 30.6405C216.952 31.3513 217.087 32.1545 217.087 33.05Z" fill="white"/>
<path fill-rule="evenodd" clip-rule="evenodd" d="M38.8489 16.9389C38.2742 13.8258 40.6689 11 43.7821 11C46.56 11 48.811 13.251 48.811 16.0289V22.2073C49.5294 22.1595 50.2 22.1116 50.9184 22.1116C51.6368 22.1116 52.2594 22.1595 52.93 22.2073V16.0289C52.93 13.251 55.181 11 57.9589 11C61.0721 11 63.4668 13.8258 62.892 16.9389L61.551 24.2189C66.1968 26.2305 69.741 29.7747 69.741 34.2289V36.911C69.741 40.5989 67.2984 43.6163 63.9457 45.7236C60.5452 47.831 55.8994 49.0762 50.8705 49.0762C45.8416 49.0762 41.1958 47.831 37.7953 45.7236C34.3947 43.6642 32 40.551 32 36.911V34.2768C32 29.8705 35.4963 26.3263 40.1421 24.2668L38.8489 16.9389ZM59.9226 25.1768L61.551 16.6516C61.9821 14.4963 60.3057 12.5326 58.1505 12.5326C56.2347 12.5326 54.6542 14.1132 54.6542 16.0289V23.9316C54.1752 23.8358 53.6484 23.7879 53.1215 23.7879C52.4031 23.74 51.7326 23.74 51.0621 23.74C50.3437 23.74 49.6252 23.7879 48.9547 23.8358C48.4279 23.8837 47.9489 23.9316 47.4221 23.9795V16.0768C47.4221 14.161 45.8416 12.5805 43.9258 12.5805C41.7226 12.5805 40.0942 14.5442 40.5253 16.6995L42.1537 25.2726C37.1726 27.1405 33.82 30.4931 33.82 34.3726V37.0547C33.82 42.8978 41.5789 47.6394 51.1579 47.6394C60.7368 47.6394 68.4957 42.8978 68.4957 37.0547V34.3726C68.352 30.4452 64.9515 27.0447 59.9226 25.1768Z" fill="white"/>
<path d="M68.3542 37.0068C68.3542 42.85 60.5953 47.5915 51.0163 47.5915C41.4374 47.5915 33.6785 42.85 33.6785 37.0068V34.3247H68.3542V37.0068Z" fill="#202251"/>
<path fill-rule="evenodd" clip-rule="evenodd" d="M40.3814 16.6517C39.9503 14.4964 41.6266 12.5328 43.7819 12.5328C45.6977 12.5328 47.2782 14.1133 47.2782 16.0291V23.9317C48.4756 23.788 49.6729 23.6922 50.9661 23.6922C52.2113 23.6922 53.4087 23.788 54.5582 23.8838V15.9812C54.5582 14.0654 56.1387 12.4849 58.0545 12.4849C60.2577 12.4849 61.8861 14.4485 61.455 16.6038L59.8266 25.129C64.8555 26.9969 68.2561 30.3496 68.2561 34.229C68.2561 40.0722 60.4971 44.8137 50.9182 44.8137C41.3392 44.8137 33.5803 40.0722 33.5803 34.229C33.5803 30.3975 36.9329 26.9969 41.914 25.129L40.3814 16.6517Z" fill="white"/>
<path d="M46.1784 33.5582C46.1784 35.1867 45.3163 36.4319 44.2626 36.4319C43.2089 36.4319 42.3468 35.1388 42.3468 33.5582C42.3468 31.9777 43.2089 30.6846 44.2626 30.6846C45.3163 30.6846 46.1784 31.9298 46.1784 33.5582Z" fill="#202251"/>
<path d="M59.4396 33.5583C59.4396 35.1867 58.5775 36.432 57.5238 36.432C56.4701 36.432 55.608 35.1388 55.608 33.5583C55.608 31.9778 56.4701 30.6846 57.5238 30.6846C58.5775 30.6367 59.4396 31.9299 59.4396 33.5583Z" fill="#202251"/>
</svg>
