<svg width="250" height="60" viewBox="0 0 250 60" fill="none" xmlns="http://www.w3.org/2000/svg">
<g clip-path="url(#clip0)">
<path d="M50 29.0936C50.234 26.6947 50.8616 24.3506 51.8574 22.1556C52.0457 21.7693 52.1543 21.3491 52.1767 20.9199C52.1991 20.4908 52.1349 20.0616 51.9879 19.6578C51.2808 17.4665 52.0183 14.914 53.6754 13.9125C55.0381 13.093 56.4494 12.6985 57.9002 13.7637C58.0284 13.8756 58.1928 13.9372 58.363 13.9372C58.5332 13.9372 58.6976 13.8756 58.8258 13.7637C61.7425 11.4693 65.1235 10.3827 68.7595 10.0792C72.7369 9.69964 76.7351 10.547 80.2167 12.5072C80.5735 12.7136 80.9181 12.9407 81.2486 13.1871C81.9041 13.6606 82.4626 14.0187 83.4004 13.5816C86.1592 12.2978 89.4704 14.7137 89.1517 18.1342C89.0789 18.9567 89.0395 19.7974 88.6631 20.5622C88.5937 20.6963 88.5588 20.8456 88.5614 20.9966C88.5641 21.1476 88.6042 21.2956 88.6783 21.4272C89.8134 23.6245 90.296 26.0131 90.6935 28.4259C90.7087 28.8721 90.7269 29.3152 90.7421 29.7613C90.6776 29.9044 90.6442 30.0596 90.6442 30.2166C90.6442 30.3736 90.6776 30.5287 90.7421 30.6718C90.8665 31.203 90.4538 31.7614 90.818 32.2804C90.211 34.4686 89.8103 36.7055 88.8209 38.7966C86.3322 44.0563 82.3169 47.5587 76.8842 49.492C76.1399 49.7091 75.4569 50.0979 74.8902 50.6271C74.177 51.3464 73.0874 51.2887 72.1951 51.6529L71.3089 51.7136C70.7856 51.6029 70.2449 51.6029 69.7216 51.7136H68.7625C67.8854 51.4708 66.9415 51.3373 66.2859 50.6332C65.3754 49.6559 64.0795 49.6164 62.9686 49.1551C59.3934 47.7183 56.2935 45.3066 54.0216 42.1945C51.7498 39.0824 50.3974 35.395 50.1184 31.552C50.1548 30.7477 50.3976 29.9131 50 29.0936ZM59.1718 45.0366C59.1323 44.9734 59.0795 44.9195 59.017 44.8788L56.9472 42.0532C57.1444 43.3279 57.6331 44.4083 58.7682 45.0669L59.017 45.2703L59.4116 45.589C59.4905 45.677 59.5178 45.9289 59.6878 45.765C59.8062 45.6466 59.6878 45.5009 59.5148 45.4615L59.1718 45.0366ZM63.7426 36.8663C63.5996 36.9207 63.4701 37.0052 63.3627 37.1142C63.2553 37.2231 63.1727 37.3539 63.1204 37.4976C62.4466 37.6767 62.5802 36.5112 61.7728 36.7419C62.0156 37.8163 62.8321 38.657 62.911 39.7465C62.5225 39.7799 62.3222 39.9863 62.5225 40.3535C62.9353 41.0911 63.5787 41.6313 64.4315 41.3217C65.1447 41.0637 64.4315 40.4598 64.5074 40.0167C64.5833 39.5736 63.952 39.525 63.9975 39.1062L63.8822 38.3565L64.0097 37.0636C64.0728 36.9525 64.1276 36.8368 64.1735 36.7176C63.9581 36.5628 63.8275 36.669 63.7426 36.8663ZM66.292 17.9946L66.7654 18.38C66.9991 18.5773 66.9809 18.8565 67.0022 19.1236C66.4255 19.0841 66.0067 18.3982 65.3238 18.7321C65.9308 19.1266 66.4923 19.5424 66.2829 20.3953C65.2813 19.6456 64.3496 18.7048 62.9079 19.1327C62.0214 19.1424 61.1747 19.5025 60.5528 20.1343C60.4678 20.2223 60.2128 20.2192 60.3282 20.3922C60.4101 20.5167 60.5953 20.4377 60.6893 20.2921C61.2311 20.0406 61.8334 19.949 62.4254 20.028C62.2402 20.4195 61.7182 20.3315 61.4967 20.6623C61.0687 20.8596 60.6468 21.066 60.4253 21.6002H61.3206C61.6727 21.9947 61.4208 22.2588 61.1476 22.5471C60.9382 22.7656 60.4678 22.8081 60.6104 23.2846C60.1764 23.5881 60.1886 24.1162 59.9761 24.5259C59.9475 24.5854 59.9324 24.6505 59.9319 24.7165C59.9313 24.7825 59.9452 24.8478 59.9728 24.9077C60.0003 24.9677 60.0407 25.0209 60.0911 25.0635C60.1415 25.1061 60.2007 25.137 60.2644 25.1542C60.4678 25.2027 60.5679 24.9387 60.6377 24.7202C60.7819 24.4272 60.9569 24.1505 61.1598 23.8946L61.3479 23.749L61.5391 23.6124C62.043 23.4242 62.4497 22.9841 63.2266 23.063C62.043 24.4834 63.3025 25.3029 63.8761 26.2862C63.9338 26.3864 64.1553 26.4926 64.2403 26.4532C65.1508 26.0616 65.9247 26.6717 66.7624 26.8083C67.6001 26.9448 68.3892 26.7597 68.6684 25.8401C69.0023 24.7505 68.8111 23.6518 69.7307 22.5562C70.5046 21.6457 70.4135 19.8884 70.1343 18.4923C69.9553 17.5818 69.5516 16.7472 68.371 16.8048C68.2769 16.5893 68.0978 16.5894 67.9066 16.6197H67.4483C67.1964 16.6045 66.9324 16.5226 66.7351 16.7684L66.3132 16.8534C65.7912 17.0355 65.2237 17.1569 64.817 17.7093C65.3277 17.6852 65.8369 17.7808 66.3041 17.9885L66.292 17.9946ZM69.7125 41.4674C69.2208 41.4401 68.7139 41.2367 68.1282 41.5585L69.5516 42.4083C69.6812 42.5431 69.7942 42.6929 69.8885 42.8544C70.2405 43.6769 70.7231 43.5889 71.057 42.9212C71.409 42.2079 72.0555 42.0107 72.6595 41.7072C72.9265 41.6495 73.4121 41.6859 73.3696 41.4037C73.2968 40.9363 72.9174 41.2732 72.6625 41.3339C72.0555 41.3885 71.4485 41.3339 70.8415 41.5767C70.4809 41.4434 70.0919 41.4058 69.7125 41.4674ZM82.4019 40.4234C81.9011 41.0152 81.0452 41.2458 80.7599 42.0562C79.8676 43.4402 79.5186 45.1307 78.3319 46.3538C77.6399 46.7453 76.8721 47.0518 76.6019 48.0048C77.3941 48.0048 77.9404 47.5253 78.5565 47.24C79.0573 47.0731 79.5672 46.894 79.8191 46.3932C80.5839 44.8909 81.6613 43.5373 82.0012 41.8407C82.1854 41.4158 82.3695 40.9909 82.5536 40.566L82.5809 40.3111L82.4019 40.4234ZM80.6264 21.6062C80.59 21.7398 80.6264 21.8005 80.763 21.7276L80.6112 21.6214C80.7114 21.2572 80.335 21.0387 80.3289 20.7109C80.6324 20.3406 80.5687 19.9916 80.162 19.8004C79.4943 19.4969 78.769 19.0174 78.1073 19.072C77.1786 19.1509 75.9464 18.7199 75.3758 20.0007C75.0025 19.9855 74.9388 20.5622 74.5138 20.4469L74.4865 19.7974C74.8305 19.2799 75.2679 18.8311 75.7764 18.4741C74.6535 18.3497 74.2316 19.1995 73.573 19.6122C73.5244 18.5227 74.18 17.7548 74.9357 16.9778C74.1588 16.6743 73.4941 17.0021 72.8749 16.9444C71.7884 16.8443 71.3939 17.5514 71.0539 18.2343C70.5228 19.2632 70.3559 20.4833 70.8961 21.4788C71.126 21.8003 71.2654 22.1776 71.2998 22.5714C71.3039 23.5523 71.5213 24.5206 71.9371 25.4091C72.7596 27.2939 72.6504 26.7111 74.5199 26.4107C74.6838 26.3834 75.1269 25.9463 75.0146 26.529C74.8234 27.4911 75.3637 26.8963 75.6216 26.8568C76.4714 26.7233 76.7901 25.8037 77.4973 25.5153C78.2044 25.227 78.2105 24.7293 78.1437 24.1739C78.0571 23.7424 77.9373 23.3183 77.7856 22.9052C79.1544 23.1359 79.9283 24.016 80.8206 25.2543C80.8557 24.742 80.7712 24.2284 80.5737 23.7544C80.3761 23.2803 80.071 22.8587 79.6825 22.5228C79.2606 22.11 78.69 21.8065 78.596 21.1358L80.6264 21.6062ZM85.3853 22.7565L84.9816 22.7262C84.9998 22.6169 84.9816 22.4742 85.0454 22.4075C86.1987 21.1935 86.2017 21.1935 84.9422 20.1828C84.8126 20.1003 84.6969 19.9979 84.5992 19.8793C84.0317 19.0295 83.6614 19.4362 83.3154 20.0644C83.0605 20.5197 82.8237 21.066 82.4049 20.1767C82.2835 19.9309 82.0437 19.7063 81.7676 19.8732C81.4307 20.0736 81.716 20.3588 81.8222 20.5561C82.3351 21.5364 82.8207 22.541 83.5825 23.3665C84.5628 24.2315 84.8875 23.2391 85.3853 22.7322L85.4976 22.6624C85.4763 22.6624 85.446 22.6624 85.4369 22.6624C85.4132 22.6886 85.3956 22.7197 85.3853 22.7535V22.7565ZM78.3592 34.3199C79.3911 34.2349 80.1377 33.4732 81.0907 33.1727C82.2532 32.5444 82.244 31.4154 82.326 30.2985C81.6674 31.118 80.8419 31.7371 80.1651 32.4989C79.8903 32.7758 79.5994 33.0363 79.294 33.2789C78.951 33.5096 78.3167 33.6795 78.3835 34.3351L78.3228 34.3776L78.3592 34.3199ZM74.0222 42.9637C73.6458 43.0942 73.227 43.1579 72.9478 43.683C74.2953 43.3582 75.5761 43.1822 77.0147 42.469C76.2979 42.2098 75.5129 42.2098 74.7961 42.469C74.1132 42.0562 73.4546 42.2747 72.7444 42.4386C73.0783 43.0153 73.7763 42.3354 74.0222 42.9637ZM81.3062 17.773C82.4474 16.8352 82.9239 15.3936 83.9467 14.3708C82.3746 14.9778 81.7584 16.301 81.3153 17.7639L81.2759 17.7912L81.3062 17.773ZM87.3429 19.1721C87.3914 18.9111 87.4521 18.6471 87.2033 18.4437C86.9696 17.5332 86.1592 17.6789 85.4521 17.5727L86.5234 18.6683C86.4718 18.808 86.6661 19.2541 86.2199 18.9233C85.7738 18.5925 85.361 18.2556 84.7024 18.2374C85.1668 18.8049 85.5037 19.3694 85.9862 19.7549C86.2533 19.9643 86.311 20.5622 86.7814 20.3892C87.2002 20.2344 87.2549 19.764 87.3095 19.3542C87.3318 19.3289 87.346 19.2974 87.3503 19.2639C87.3547 19.2304 87.3489 19.1963 87.3338 19.1661L87.3429 19.1721ZM71.5395 40.4173C71.6326 40.4434 71.7307 40.446 71.825 40.4249C71.9193 40.4037 72.0069 40.3593 72.0798 40.2959H72.1587L72.2315 40.2716C73.7035 40.1532 74.1345 39.789 74.0677 38.7177C74.0465 38.3656 73.9827 38.2776 73.7824 38.4142C73.1269 38.8816 73.0237 38.3565 72.8416 37.9528C72.6291 37.4733 72.5047 36.9361 72.2072 36.5173C71.324 35.2638 70.6047 34.7479 69.7276 35.5218C69.1206 36.0651 68.377 36.6053 68.3406 37.6129C68.3237 37.8405 68.238 38.0576 68.0949 38.2353C67.9518 38.4131 67.7581 38.5432 67.5394 38.6084C66.4255 38.836 67.0082 39.2822 67.3057 39.7405C67.6031 40.1988 68.0796 40.2777 68.5834 40.2534L68.6623 40.2807H68.7443C68.8154 40.3462 68.9024 40.3918 68.9967 40.4131C69.0909 40.4344 69.1891 40.4306 69.2815 40.4021C70.0265 40.5155 70.784 40.5206 71.5304 40.4173H71.5395ZM54.5343 17.773C53.7816 18.2283 53.1625 18.7351 53.815 19.7124C53.7574 20.1312 53.9273 20.5227 54.2976 20.6077C54.6011 20.6806 54.677 20.2132 54.8439 19.9825C55.3659 19.2662 56.2612 18.6319 55.4752 17.5545C55.724 17.4513 55.8758 17.251 55.5753 17.1114C55.2749 16.9718 55.1231 17.2176 55.0563 17.4938L54.5343 17.773ZM75.8189 30.2166C75.5883 29.9404 76.1376 29.8402 75.9555 29.5398C75.6104 29.7231 75.2417 29.8579 74.8598 29.9404C74.5958 29.9647 74.4258 29.9222 74.4835 30.2439C74.4859 30.2996 74.5 30.3542 74.5247 30.4042C74.5495 30.4542 74.5844 30.4985 74.6273 30.5342C74.6701 30.5699 74.72 30.5963 74.7736 30.6116C74.8272 30.627 74.8835 30.6309 74.9388 30.6233C75.1785 30.6051 75.303 30.2014 75.6125 30.426C75.482 31.1362 75.8948 31.3729 76.4988 31.4002C77.0509 31.4371 77.6032 31.3324 78.1035 31.096C78.6039 30.8597 79.0356 30.4995 79.3577 30.0497C79.6005 29.7462 79.816 29.3668 79.5338 29.039C79.2515 28.7112 78.8843 29.0572 78.6233 29.1695C78.4584 29.2147 78.3151 29.3171 78.2189 29.4583C78.1226 29.5996 78.0799 29.7705 78.0982 29.9404C78.1255 30.3532 77.5398 30.8509 77.2029 30.4685C76.7203 29.9495 76.2772 30.2651 75.8189 30.2166ZM60.4162 33.5764C61.3267 33.7069 62.0672 34.4292 63.3844 34.4687C61.3297 33.1727 59.6969 31.8707 58.5132 30.0527C58.6893 31.203 58.8167 32.3381 59.6817 33.2C59.7478 33.3337 59.8544 33.4431 59.9862 33.5129C60.118 33.5826 60.2685 33.6091 60.4162 33.5885V33.5764ZM70.6594 29.042L70.5319 28.2499L70.0433 29.3152L69.2542 30.1529C68.6714 30.7599 67.8368 31.1301 67.5879 32.0285C67.5363 32.2076 67.1448 32.3108 67.421 32.5596C67.7579 32.8631 67.8732 32.4413 68.0098 32.2956C68.5148 31.7562 69.0979 31.2958 69.7398 30.9298C71.145 30.4685 71.9978 31.9374 73.3272 31.9132C72.2892 31.0664 71.925 29.6551 70.6594 29.0542V29.042ZM60.0156 42.0137C59.6251 41.4366 59.1211 40.9451 58.5345 40.569C58.756 41.3794 58.8167 42.2383 59.4844 42.8453C59.6999 43.8893 60.3191 44.7574 60.7561 45.7043C60.9379 46.1155 61.2031 46.4846 61.5348 46.7881C61.8665 47.0916 62.2576 47.323 62.6833 47.4676C62.9717 47.5708 63.3207 47.9593 63.5756 47.5617C63.7699 47.2582 63.3875 47.067 63.172 46.8576C62.092 45.8475 61.261 44.6009 60.744 43.2156C60.5861 42.7998 60.5588 42.2353 60.0156 42.0258V42.0137ZM78.1225 37.3155C77.7279 37.2123 76.9601 36.5385 77.039 37.012C77.2848 38.4081 76.2317 39.4036 76.2711 40.654C76.2711 40.8847 75.9494 41.2094 76.35 41.3157C76.4923 41.3858 76.6494 41.4205 76.8079 41.4168C76.9664 41.4131 77.1217 41.3711 77.2605 41.2944C78.7204 40.4476 78.8752 40.1623 78.3167 38.396C78.6627 37.9498 79.0573 37.5249 79.0087 36.8178L78.1225 37.3155ZM57.6907 20.9264C57.2325 20.7564 57.1353 20.4954 57.4115 20.0675C57.5208 19.9006 57.6786 19.6365 57.4479 19.4605C57.3979 19.417 57.3393 19.3844 57.276 19.3648C57.2127 19.3451 57.146 19.3388 57.0801 19.3462C57.0142 19.3536 56.9506 19.3746 56.8932 19.4079C56.8359 19.4411 56.786 19.4859 56.7469 19.5394C56.3311 20.0098 55.7392 20.2465 55.3083 20.7534C54.5525 21.6275 55.7332 21.8399 55.7939 22.453C55.8394 22.9325 56.1854 23.7793 56.8045 23.7338C57.281 23.6974 57.7605 23.1268 57.97 22.5198C58.0263 22.3818 58.0901 22.2471 58.1612 22.1161C58.7682 21.9674 58.7682 21.4241 58.8865 20.9841C59.0049 20.544 59.7455 20.1707 59.3934 19.9157C58.9897 19.6122 58.5072 20.3012 58.0307 20.5015C57.885 20.5683 57.8 20.7868 57.6907 20.9325V20.9264ZM87.4339 23.5972C86.5538 24.7536 85.9468 26.1041 85.9468 27.4851C85.9468 28.6991 86.2867 29.9131 86.3383 31.1483C86.2928 33.8799 86.0712 36.5962 86.748 39.3429C87.2397 39.0728 87.3034 38.6752 87.4552 38.3474C89.4397 34.2131 89.8224 29.4903 88.5296 25.0904C88.3748 24.532 88.396 23.9341 88.0136 23.3999C87.44 22.5865 87.5614 23.3726 87.4248 23.6033L87.4339 23.5972ZM53.4083 23.406C52.9045 23.3119 52.8893 23.3058 52.6951 23.8613C51.5419 27.0282 51.2682 30.4484 51.903 33.7585C52.2945 35.7859 52.8499 37.7465 54.1792 39.7132C54.6405 36.7904 54.941 34.1318 54.5707 31.4306C54.6314 30.4199 54.6102 29.3941 54.7711 28.3956C54.9386 27.5153 54.902 26.6083 54.6642 25.7444C54.4264 24.8805 53.9936 24.0826 53.3992 23.4121L53.4083 23.406ZM60.1491 15.345C60.835 15.8458 61.5938 16.4619 62.4193 16.2707C63.3267 16.0942 64.2037 15.7876 65.0233 15.3602C67.0022 14.1795 69.1449 14.5346 71.2209 14.3283C73.7369 14.0794 75.91 15.3177 78.1559 16.1766C78.4897 16.3041 78.7902 16.4497 79.1028 16.301C79.7614 15.9975 80.3957 15.6212 81.0391 15.2782C81.5612 14.65 80.8449 14.5832 80.59 14.4284C73.8735 10.2947 67.0963 10.5982 60.316 14.2463C60.1795 14.307 58.9351 14.7896 60.1491 15.345ZM73.743 47.9563C71.5456 46.7666 69.3847 46.7696 67.2298 47.929C68.3012 49.0034 72.4895 49.0337 73.743 47.9441V47.9563ZM64.2494 31.4306C64.5135 31.3517 64.9869 31.5581 64.8959 31.0573C64.82 30.6445 64.3071 30.1468 64.0704 30.2985C62.996 30.9753 63.0658 30.2318 62.8563 29.5489C62.7198 29.0785 62.0915 28.9419 61.7212 29.1331C61.351 29.3243 61.5786 29.7856 61.7819 30.1134C62.3647 31.0239 63.2418 31.3578 64.2494 31.4306ZM56.3584 14.4345C57.9366 15.4087 58.577 16.9444 60.052 18.0765C58.7894 15.4634 57.9214 14.565 56.3614 14.4345H56.3584ZM63.8852 42.5873L66.2374 43.2854C66.5044 43.3643 66.7897 43.5889 66.9658 43.1579C66.5409 43.0001 66.9658 42.2747 66.4619 42.2778C65.7062 42.2929 64.908 42.0532 63.8883 42.5964L63.8852 42.5873ZM83.4004 35.4065C84.1743 34.7357 84.5294 33.9223 84.2107 32.8844L83.4004 35.4065ZM57.2355 35.5977C57.5056 34.8662 57.0655 34.2562 56.9502 33.5764C56.9418 33.5303 56.9229 33.4869 56.8949 33.4494C56.8669 33.4119 56.8306 33.3814 56.7889 33.3602C56.7472 33.3391 56.7011 33.3279 56.6543 33.3274C56.6076 33.327 56.5613 33.3374 56.5192 33.3578C56.3159 33.4367 56.3037 33.6128 56.4009 33.8131C56.6892 34.414 56.9623 35.0119 57.2385 35.6068L57.2355 35.5977ZM83.886 42.5782C83.2155 43.1023 82.6926 43.7915 82.3685 44.5783C83.452 44.1777 83.7069 43.4098 83.889 42.5934L83.886 42.5782ZM65.169 29.7006L65.0567 29.8645C65.3299 30.1073 65.5909 30.3623 65.8792 30.5808C65.9161 30.6109 65.9595 30.6319 66.0059 30.6421C66.0524 30.6524 66.1006 30.6516 66.1466 30.6398C66.1927 30.6279 66.2354 30.6055 66.2712 30.5741C66.307 30.5428 66.3349 30.5035 66.3527 30.4594C66.4468 30.3107 66.5803 30.1073 66.5409 29.9708C66.4589 29.6946 66.2374 29.9525 66.0947 29.9283C65.7823 29.8689 65.4733 29.7929 65.169 29.7006ZM84.49 31.0937C84.4687 31.5429 84.4475 31.989 84.4171 32.7023C84.839 32.0376 84.6751 31.5672 84.49 31.0937Z" fill="white"/>
<path d="M67.0022 19.1357C66.981 18.8686 67.0022 18.5894 66.7655 18.3921C66.7645 18.3335 66.7509 18.2758 66.7257 18.2229C66.7004 18.17 66.6642 18.1232 66.6193 18.0855C66.5744 18.0478 66.522 18.0202 66.4655 18.0045C66.4091 17.9888 66.3499 17.9854 66.292 17.9945C66.1494 17.6152 66.0189 17.2358 66.292 16.8594L66.7139 16.7744C67.0417 17.1569 67.2845 17.1387 67.4271 16.6257H67.8854C67.9461 16.9292 68.0341 17.1569 68.3498 16.8109C69.5304 16.7532 69.934 17.5969 70.1131 18.4983C70.3923 19.8945 70.4834 21.6396 69.7094 22.5622C68.7989 23.6579 68.981 24.7565 68.6472 25.8461C68.368 26.7566 67.6031 26.9539 66.7412 26.8143C65.8793 26.6747 65.1387 26.0677 64.2191 26.4592C64.1341 26.4986 63.9156 26.3924 63.8549 26.2923C63.2813 25.3089 62.0339 24.4895 63.2054 23.0691C62.4375 22.9902 62.0217 23.4302 61.5179 23.6184C61.3631 23.5304 61.3419 23.6427 61.3267 23.755L61.1386 23.9007C60.9878 23.8863 60.8478 23.816 60.7461 23.7037C60.6445 23.5914 60.5885 23.4451 60.5892 23.2937C60.4466 22.8172 60.917 22.7747 61.1264 22.5562C61.3996 22.2678 61.6515 22.0038 61.2994 21.6092C61.3237 21.1206 61.5786 21.5182 61.7274 21.4878C61.9641 21.4362 62.1523 22.0068 62.3708 21.5667C62.5316 21.2359 62.3344 21.0053 61.9884 20.899C61.8131 20.8332 61.6418 20.7572 61.4754 20.6714C61.697 20.3285 62.219 20.4286 62.4042 20.0371C62.9626 19.9521 62.8776 19.5211 62.8867 19.1266C64.3284 18.6986 65.2601 19.6395 66.2617 20.3892C66.3345 20.7321 66.2404 21.1479 66.7382 21.3725C66.7355 20.619 66.8241 19.8679 67.0022 19.1357ZM64.9566 21.846C63.9126 22.9295 63.7972 23.7246 64.6167 24.5623C65.2646 25.199 66.0717 25.6498 66.9537 25.8674C67.3816 25.9857 67.6487 25.8977 67.4423 25.3818C67.0477 24.4075 67.2056 23.406 67.3452 22.3771C66.641 22.7322 66.641 22.7322 66.3709 23.1298C65.9096 23.8127 65.4817 23.7793 65.1084 23.0539C64.908 22.6624 64.987 22.2436 64.9475 21.8399L64.9991 21.7701L64.9566 21.846ZM67.8065 17.8246C68.11 18.3496 68.541 18.7351 68.5622 19.2814C68.5804 19.77 68.5622 20.2587 68.5622 20.7989C69.2481 20.2313 69.6882 19.6092 69.3726 18.7199C69.1449 18.0765 68.7352 17.6182 67.8065 17.8246Z" fill="white"/>
<path d="M75.3879 20.007C75.9464 18.7262 77.1786 19.1572 78.1194 19.0783C78.7811 19.0236 79.5065 19.5032 80.1742 19.8067C80.5809 19.9888 80.6476 20.3378 80.3411 20.7172L80.0072 20.9539C79.3851 19.9797 79.0087 20.7142 78.5899 21.1573C78.684 21.828 79.2545 22.1315 79.6764 22.5443C80.065 22.8801 80.3701 23.3017 80.5676 23.7758C80.7651 24.2499 80.8497 24.7634 80.8145 25.2758C79.9283 24.0375 79.1544 23.1513 77.7795 22.9267C77.9313 23.3398 78.051 23.7639 78.1377 24.1953C78.2044 24.7507 78.1984 25.2515 77.4912 25.5368C76.784 25.8221 76.4654 26.7508 75.6156 26.8783C75.3697 26.9177 74.8295 27.5126 75.0086 26.5505C75.1269 25.9678 74.6777 26.4048 74.5138 26.4321C72.6443 26.7356 72.7535 27.3153 71.9311 25.4306C71.5153 24.5421 71.2978 23.5738 71.2937 22.5928C71.2593 22.1991 71.1199 21.8218 70.89 21.5002C70.3498 20.5047 70.5167 19.2847 71.0479 18.2558C71.3999 17.5699 71.7945 16.8657 72.8689 16.9659C73.4759 17.0236 74.1527 16.7049 74.9297 16.9993C74.1648 17.7763 73.5184 18.5441 73.5669 19.6337C73.8409 19.7962 74.1617 19.8614 74.4774 19.8188L74.5047 20.4683C74.271 20.6656 74.1588 20.8963 74.4714 21.0905C74.5175 21.1233 74.5699 21.1461 74.6254 21.1573C74.6809 21.1686 74.7381 21.168 74.7933 21.1557C74.8485 21.1434 74.9006 21.1196 74.946 21.0859C74.9915 21.0522 75.0293 21.0093 75.0571 20.96C75.1909 20.651 75.3015 20.3324 75.3879 20.007ZM72.8992 20.0222L72.9751 20.0738L72.8962 20.0252C72.4561 19.1845 72.6898 18.4045 73.2907 17.5517C72.4865 17.7884 71.9826 18.0889 72.01 18.8051C72.0312 19.3757 72.1738 19.9311 72.8962 20.0222H72.8992ZM75.4638 24.2712C75.8128 24.772 75.4638 25.4033 75.8037 25.8524C77.2241 24.6081 77.1027 22.4745 75.5427 21.221C75.4486 21.5245 75.3637 21.7916 75.2817 22.0678C75.1178 22.6201 74.9175 23.2514 74.2953 23.3212C73.7369 23.3819 73.6185 22.7142 73.312 22.3409C73.1754 22.177 73.224 21.8857 72.9265 21.8219C72.5107 22.4289 72.623 23.1422 72.7171 23.7947C72.8142 24.514 73.0813 25.2333 73.8947 25.4427C74.7658 25.6643 75.0602 24.9571 75.4638 24.2803V24.2712Z" fill="white"/>
<path d="M81.0392 15.2659C80.3958 15.6089 79.7615 15.9731 79.1029 16.2887C78.7994 16.4374 78.4959 16.2887 78.1559 16.1643C75.91 15.3054 73.737 14.0671 71.2209 14.3159C69.145 14.5223 67.0022 14.1672 65.0234 15.3479C64.2038 15.7753 63.3267 16.0819 62.4194 16.2584C61.5938 16.4496 60.8351 15.8335 60.1492 15.3296C65.2692 11.9274 70.7717 11.4691 76.5534 13.2051C78.1438 13.6998 79.4519 14.7894 81.0392 15.2659Z" fill="white"/>
<path d="M54.5616 31.4304C54.9319 34.1316 54.6314 36.7902 54.1701 39.713C52.8408 37.7463 52.2854 35.7857 51.8938 33.7583C51.259 30.4482 51.5328 27.028 52.686 23.8611C52.8802 23.3056 52.8954 23.3117 53.3992 23.4058C53.2299 23.7418 53.1425 24.1131 53.1443 24.4893C52.944 26.9477 53.3082 29.2816 54.5616 31.4304Z" fill="white"/>
<path d="M87.4248 23.6031C87.5613 23.3724 87.4399 22.5864 88.0318 23.3997C88.4142 23.9339 88.3929 24.5318 88.5477 25.0902C89.8377 29.4912 89.4517 34.2141 87.4642 38.3472C87.3125 38.675 87.2487 39.0726 86.7571 39.3427C86.0802 36.596 86.3018 33.8797 86.3473 31.1482C87.6797 28.7717 88.2685 26.2921 87.4248 23.6031Z" fill="white"/>
<path d="M68.5743 40.2686C68.0704 40.2928 67.6091 40.2352 67.2965 39.7556C66.9839 39.2761 66.4164 38.8451 67.5302 38.6236C67.7489 38.5584 67.9426 38.4283 68.0857 38.2505C68.2288 38.0727 68.3145 37.8557 68.3315 37.6281C68.3679 36.6205 69.0993 36.0802 69.7185 35.537C70.5956 34.763 71.3149 35.279 72.1981 36.5324C72.5016 36.9513 72.6199 37.4885 72.8324 37.968C73.0145 38.3717 73.1177 38.8967 73.7732 38.4293C73.9736 38.2867 74.0373 38.3747 74.0585 38.7328C74.1253 39.8042 73.6943 40.1684 72.2223 40.2868C72.3468 39.9043 72.5926 39.5341 72.3498 39.1061C71.5061 40.0166 69.8338 40.0925 68.468 39.3065C68.2677 39.6494 68.6167 39.9286 68.5743 40.2686Z" fill="white"/>
<path d="M81.0391 15.2661C79.4518 14.7896 78.1437 13.7 76.5533 13.2175C70.7686 11.4693 65.2691 11.9276 60.1491 15.342C58.9351 14.8017 60.1794 14.3192 60.316 14.2463C67.0962 10.6043 73.8734 10.3008 80.5899 14.4284C80.8449 14.5711 81.5611 14.6378 81.0391 15.2661Z" fill="white"/>
<path d="M83.5703 23.3755C82.8085 22.55 82.3229 21.5545 81.81 20.5651C81.7038 20.3678 81.4185 20.0825 81.7554 19.8822C82.0316 19.7153 82.2713 19.9399 82.3927 20.1857C82.8237 21.0749 83.0604 20.5286 83.3032 20.0734C83.6492 19.4451 84.0195 19.0384 84.5871 19.8883C84.6847 20.0068 84.8005 20.1092 84.93 20.1918C86.1895 21.1963 86.1865 21.1933 85.0332 22.4164C84.9695 22.4832 84.9877 22.6258 84.9695 22.7351C84.4292 22.7776 83.6432 22.3041 83.5703 23.3755Z" fill="white"/>
<path d="M54.5616 31.4306C53.3082 29.2757 52.944 26.9418 53.1443 24.4895C53.1425 24.1133 53.2299 23.742 53.3992 23.406C53.9929 24.078 54.4245 24.8773 54.6608 25.7423C54.897 26.6074 54.9317 27.5151 54.7619 28.3956C54.6011 29.4002 54.6223 30.426 54.5616 31.4306Z" fill="white"/>
<path d="M87.4248 23.6033C88.2686 26.2923 87.6798 28.7628 86.3444 31.1483C86.2928 29.9131 85.965 28.6991 85.9468 27.4851C85.9468 26.1041 86.5538 24.7535 87.4248 23.6033Z" fill="white"/>
<path d="M73.7429 47.9442C72.4894 49.0246 68.3011 49.0034 67.2297 47.9168C69.3846 46.7575 71.5455 46.7544 73.7429 47.9442Z" fill="white"/>
<path d="M58.1611 22.1191C58.09 22.2501 58.0262 22.3848 57.9699 22.5228C57.7605 23.1116 57.2809 23.6943 56.8044 23.7368C56.1974 23.7823 55.8393 22.9355 55.7938 22.456C55.7331 21.849 54.5524 21.6305 55.3082 20.7564C55.7391 20.2586 56.331 20.0219 56.7468 19.5424C56.7859 19.4889 56.8358 19.4441 56.8931 19.4109C56.9505 19.3776 57.0141 19.3566 57.08 19.3492C57.1459 19.3418 57.2126 19.3481 57.2759 19.3678C57.3392 19.3875 57.3978 19.42 57.4479 19.4635C57.6785 19.6395 57.5207 19.9036 57.4114 20.0705C57.1353 20.4984 57.2324 20.7594 57.6907 20.9294C57.8454 21.327 58.0033 21.7185 58.1611 22.1191Z" fill="white"/>
<path d="M78.3197 38.4112C78.8782 40.1775 78.7234 40.4628 77.2636 41.3096C77.1248 41.3863 76.9695 41.4283 76.8109 41.432C76.6524 41.4357 76.4953 41.401 76.3531 41.3309C75.9524 41.2246 76.2833 40.8999 76.2741 40.6692C76.2347 39.4127 77.2878 38.4172 77.042 37.0272C76.9631 36.5628 77.731 37.2366 78.1255 37.3307C78.1589 37.6919 78.0011 38.1077 78.3197 38.4112Z" fill="white"/>
<path d="M82.0012 41.8345C81.6613 43.5372 80.5839 44.8908 79.8191 46.3871C79.5672 46.8878 79.0573 47.0669 78.5565 47.2338C78.5413 46.9303 78.6354 46.5843 78.3319 46.3476C79.5065 45.1336 79.8494 43.434 80.7599 42.05C81.203 42.1229 81.5247 41.5037 82.0012 41.8345Z" fill="white"/>
<path d="M60.0154 42.0256C60.5587 42.2351 60.586 42.7996 60.7317 43.2214C61.2487 44.6068 62.0798 45.8534 63.1597 46.8635C63.3752 47.0729 63.7667 47.2641 63.5634 47.5676C63.3084 47.9652 62.9564 47.5676 62.6711 47.4735C62.2454 47.3288 61.8543 47.0975 61.5225 46.7939C61.1908 46.4904 60.9257 46.1214 60.7438 45.7101C60.3068 44.7632 59.6877 43.8891 59.4722 42.8512C59.4964 42.4748 59.5177 42.0954 60.0154 42.0256Z" fill="white"/>
<path d="M69.2542 30.1529L70.0584 29.3273C70.1752 29.3459 70.2949 29.3299 70.4027 29.2814C70.5106 29.2329 70.6019 29.1539 70.6654 29.0542C71.931 29.6612 72.2953 31.0664 73.3181 31.9132C71.9887 31.9375 71.1359 30.4685 69.7307 30.9298C69.5577 30.684 69.2359 30.5201 69.2542 30.1529Z" fill="white"/>
<path d="M59.6818 33.2123C58.8198 32.3503 58.6893 31.2152 58.5133 30.0649C59.697 31.886 61.3298 33.1849 63.3845 34.4809C62.0673 34.4414 61.3359 33.7191 60.4163 33.5886C60.3343 33.1455 60.0005 33.1971 59.6818 33.2123Z" fill="white"/>
<path d="M62.8988 39.7433C62.8198 38.6537 62.0034 37.813 61.7606 36.7386C62.5679 36.5079 62.4344 37.6734 63.1082 37.4943C63.6029 37.5702 63.5877 37.9465 63.5907 38.3138C63.5938 38.681 63.5483 38.9845 63.9853 39.0877C63.9398 39.5126 64.5923 39.5551 64.4952 39.9982C64.1492 40.2016 64.4102 40.8844 63.7941 40.8753C63.178 40.8662 63.1871 40.3169 62.9898 39.9436C62.9564 39.8829 62.9291 39.8131 62.8988 39.7433Z" fill="white"/>
<path d="M75.819 30.2166C76.2773 30.253 76.7295 29.9374 77.2 30.4655C77.5368 30.8357 78.1105 30.3501 78.0953 29.9374C78.077 29.7674 78.1197 29.5965 78.2159 29.4553C78.3121 29.314 78.4555 29.2116 78.6203 29.1665C78.8844 29.0542 79.2638 28.7233 79.5309 29.036C79.7979 29.3486 79.5976 29.737 79.3548 30.0466C79.0326 30.4965 78.6009 30.8566 78.1006 31.093C77.6003 31.3293 77.0479 31.434 76.4958 31.3972C75.8888 31.3699 75.4791 31.1332 75.6096 30.423V30.4472L75.8433 30.2105L75.819 30.2166Z" fill="white"/>
<path d="M64.2495 31.4304C63.2418 31.3606 62.3647 31.0268 61.7941 30.1132C61.5908 29.7854 61.3419 29.3332 61.7334 29.1329C62.125 28.9326 62.732 29.0783 62.8685 29.5487C63.0658 30.2316 62.996 30.9752 64.0825 30.2984C64.3193 30.1496 64.8322 30.6443 64.9081 31.0571C64.987 31.5549 64.5135 31.3485 64.2495 31.4304Z" fill="white"/>
<path d="M55.4752 17.5544C56.2613 18.6197 55.366 19.254 54.844 19.9824C54.677 20.2131 54.6133 20.6805 54.2977 20.6076C53.9274 20.5227 53.7574 20.1312 53.8151 19.7123C53.7969 19.2298 54.1823 19.0446 54.4585 18.7502C54.6679 18.5226 55.3387 18.1432 54.5344 17.7729L55.0564 17.5059L55.4752 17.5544Z" fill="white"/>
<path d="M70.8567 41.5705C71.4364 41.3277 72.0707 41.3793 72.6777 41.3247V41.698C72.0707 42.0015 71.4273 42.2079 71.0752 42.912C70.7413 43.5797 70.2588 43.6677 69.9067 42.8452C69.8125 42.6837 69.6994 42.534 69.5698 42.3991C69.6311 42.3586 69.6881 42.3118 69.7398 42.2595L70.8567 41.5705Z" fill="white"/>
<path d="M80.1377 32.4987C80.8145 31.7369 81.64 31.1178 82.2986 30.2983C82.2167 31.4152 82.2258 32.5443 81.0634 33.1725L80.1377 32.4987Z" fill="white"/>
<path d="M68.5744 40.2683C68.6168 39.9375 68.2708 39.6613 68.4681 39.3002C69.8339 40.0862 71.5031 39.9982 72.3499 39.0999C72.5927 39.5278 72.3499 39.8981 72.2224 40.2805L72.1496 40.3048H72.0707C71.9784 40.2716 71.8786 40.2654 71.7829 40.2869C71.6872 40.3084 71.5997 40.3567 71.5305 40.4262C70.7817 40.5354 70.0211 40.5354 69.2724 40.4262C69.2047 40.3553 69.1177 40.306 69.0221 40.2844C68.9266 40.2628 68.8268 40.2699 68.7352 40.3048H68.6472L68.5744 40.2683Z" fill="white"/>
<path d="M56.3613 14.4343C57.9213 14.5557 58.7893 15.4541 60.055 18.0763C58.5799 16.9534 57.9395 15.4177 56.3613 14.4343Z" fill="white"/>
<path d="M87.2943 19.3452C87.2397 19.7549 87.1851 20.2253 86.7662 20.3801C86.2958 20.5531 86.2381 19.9552 85.9711 19.7458C85.4885 19.3634 85.1516 18.7989 84.6873 18.2283C85.361 18.2465 85.7859 18.5834 86.2048 18.9142C86.6236 19.245 86.4476 18.7989 86.5083 18.6592L87.1881 18.4347C87.437 18.638 87.3763 18.902 87.3277 19.1631L87.1578 19.2238L87.2943 19.3452Z" fill="white"/>
<path d="M81.3062 17.773C81.7493 16.3102 82.3654 14.9808 83.9376 14.3799C82.9148 15.4027 82.4383 16.8443 81.2971 17.7821L81.3062 17.773Z" fill="white"/>
<path d="M74.7961 42.4478C75.5129 42.1886 76.2978 42.1886 77.0147 42.4478C75.5761 43.161 74.2832 43.337 72.9478 43.6618C73.227 43.1367 73.6458 43.073 74.0221 42.9425C74.3955 42.9637 74.5199 42.5874 74.7961 42.4478Z" fill="white"/>
<path d="M63.8882 42.5962C64.9079 42.0529 65.7092 42.2927 66.4649 42.2927C66.9566 42.2927 66.5438 43.015 66.9687 43.1728C66.7927 43.5917 66.5074 43.3792 66.2403 43.3003L63.8882 42.5962Z" fill="white"/>
<path d="M69.2541 30.1528C69.2541 30.514 69.5576 30.684 69.7397 30.9298C69.0979 31.2958 68.5147 31.7562 68.0098 32.2956C67.8732 32.4412 67.7579 32.8631 67.421 32.5596C67.1448 32.3107 67.5363 32.2075 67.5879 32.0285C67.8216 31.1271 68.6471 30.7538 69.2541 30.1528Z" fill="white"/>
<path d="M80.1377 32.4988L81.0634 33.1726C80.1226 33.4761 79.376 34.2348 78.3319 34.3198L78.3471 34.335C78.2773 33.6794 78.9116 33.5094 79.2576 33.2788C79.5661 33.0364 79.86 32.776 80.1377 32.4988Z" fill="white"/>
<path d="M58.1612 22.1189C58.0034 21.7214 57.8577 21.3268 57.6908 20.9322C57.8001 20.7866 57.885 20.568 58.0307 20.5043C58.5072 20.304 58.9898 19.6242 59.3934 19.9185C59.7455 20.1735 58.9989 20.568 58.8866 20.9869C58.7743 21.4057 58.7561 21.9702 58.1612 22.1189Z" fill="white"/>
<path d="M58.7683 45.0519C57.6332 44.3933 57.1445 43.3128 56.9473 42.0381L59.0171 44.8789L58.7683 45.0519Z" fill="white"/>
<path d="M78.3592 46.3535C78.6627 46.5902 78.5687 46.9302 78.5838 47.2397C77.9768 47.525 77.4214 47.9985 76.6293 48.0046C76.8842 47.0516 77.6521 46.745 78.3592 46.3535Z" fill="white"/>
<path d="M67.0021 19.1357C66.8297 19.8747 66.7482 20.6319 66.7593 21.3907C66.2616 21.1661 66.3556 20.7503 66.2828 20.4073C66.4922 19.5545 65.9247 19.1387 65.3237 18.7442C66.0066 18.4103 66.4254 19.0962 67.0021 19.1357Z" fill="white"/>
<path d="M62.8987 39.7434C62.929 39.8132 62.9564 39.883 62.9897 39.9498C63.184 40.3231 63.1688 40.8603 63.794 40.8815C64.4192 40.9028 64.1491 40.2078 64.4951 40.0044C64.4223 40.4475 65.1325 41.0515 64.4192 41.3095C63.5664 41.613 62.923 41.0788 62.5102 40.3413C62.3099 39.9832 62.5102 39.7768 62.8987 39.7434Z" fill="white"/>
<path d="M62.908 19.1448C62.908 19.5242 62.9839 19.9551 62.4254 20.0553C61.8334 19.9763 61.2312 20.0679 60.6894 20.3193L60.5498 20.1615C61.1708 19.5245 62.0185 19.159 62.908 19.1448Z" fill="white"/>
<path d="M60.0155 42.0257C59.5178 42.0955 59.4965 42.4749 59.4844 42.8573C58.8167 42.2503 58.756 41.3914 58.5344 40.5811C59.1211 40.9571 59.625 41.4486 60.0155 42.0257Z" fill="white"/>
<path d="M83.4034 35.4154L84.2138 32.8933C84.5325 33.9313 84.1774 34.7447 83.4034 35.4154Z" fill="white"/>
<path d="M83.5703 23.3756C83.6432 22.3042 84.4353 22.7685 84.9816 22.723L85.3852 22.7534C84.8754 23.2359 84.5506 24.2405 83.5703 23.3756Z" fill="white"/>
<path d="M61.4967 20.6746C61.663 20.7604 61.8343 20.8364 62.0096 20.9022C62.3556 21.0084 62.5528 21.2391 62.392 21.5699C62.1735 22.01 61.9853 21.4394 61.7486 21.491C61.5998 21.5213 61.3449 21.1237 61.3206 21.6124H60.4253C60.6468 21.0782 61.0596 20.8718 61.4967 20.6746Z" fill="white"/>
<path d="M87.1941 18.4377L86.5142 18.6623L85.4429 17.5667C86.15 17.6729 86.9604 17.5302 87.1941 18.4377Z" fill="white"/>
<path d="M57.2385 35.6067C56.9623 34.9997 56.6892 34.4139 56.4039 33.8221C56.3068 33.6218 56.3189 33.4457 56.5222 33.3668C56.5643 33.3464 56.6106 33.336 56.6574 33.3364C56.7041 33.3369 56.7502 33.3481 56.7919 33.3692C56.8337 33.3904 56.8699 33.4209 56.8979 33.4584C56.9259 33.4959 56.9448 33.5393 56.9532 33.5854C57.0686 34.2652 57.5086 34.8752 57.2385 35.6067Z" fill="white"/>
<path d="M74.4988 19.8036C74.1831 19.8462 73.8622 19.781 73.5883 19.6185C74.2469 19.2057 74.6687 18.3559 75.7917 18.4803C75.2821 18.8371 74.8436 19.2859 74.4988 19.8036Z" fill="white"/>
<path d="M78.5776 21.1479C78.9965 20.7048 79.3728 19.9703 79.995 20.9445L80.3288 20.7078C80.3288 21.0356 80.7113 21.2541 80.6111 21.6183L80.6263 21.6031L78.5776 21.1479Z" fill="white"/>
<path d="M54.5342 17.7729C55.3385 18.1493 54.6677 18.5226 54.4583 18.7502C54.1821 19.0537 53.7967 19.2298 53.8149 19.7123C53.1684 18.7229 53.7754 18.2161 54.5342 17.7729Z" fill="white"/>
<path d="M83.889 42.5933C83.7069 43.4097 83.4519 44.1654 82.3715 44.5933C82.6956 43.8065 83.2185 43.1173 83.889 42.5933Z" fill="white"/>
<path d="M82.0011 41.8346C81.5125 41.5038 81.1908 42.1381 80.7477 42.0562C81.033 41.2458 81.8888 41.0152 82.3896 40.4233C82.4386 40.4753 82.4936 40.5211 82.5535 40.5599C82.3876 40.9848 82.2035 41.4097 82.0011 41.8346Z" fill="white"/>
<path d="M60.6105 23.2966C60.6098 23.4481 60.6658 23.5944 60.7674 23.7067C60.8691 23.819 61.009 23.8892 61.1598 23.9036C60.957 24.1595 60.782 24.4362 60.6378 24.7292C60.5558 24.9477 60.4678 25.2117 60.2645 25.1632C60.2008 25.146 60.1416 25.1151 60.0912 25.0725C60.0408 25.0299 60.0003 24.9767 59.9728 24.9167C59.9453 24.8567 59.9313 24.7914 59.9319 24.7255C59.9325 24.6595 59.9476 24.5944 59.9762 24.5349C60.1886 24.1282 60.1765 23.5941 60.6105 23.2966Z" fill="white"/>
<path d="M69.5577 42.4082L68.1343 41.5584C68.72 41.2367 69.2269 41.44 69.7186 41.4674V42.2686C69.6697 42.3204 69.6158 42.3672 69.5577 42.4082Z" fill="white"/>
<path d="M65.1691 29.7004C65.4684 29.7922 65.7723 29.8682 66.0796 29.9281C66.2283 29.9523 66.4438 29.6944 66.5258 29.9706C66.5652 30.1071 66.4317 30.3105 66.3376 30.4592C66.3198 30.5033 66.2919 30.5426 66.2561 30.5739C66.2203 30.6053 66.1776 30.6278 66.1315 30.6396C66.0855 30.6514 66.0373 30.6522 65.9908 30.642C65.9444 30.6317 65.9009 30.6107 65.8641 30.5806C65.5758 30.3621 65.3148 30.1071 65.0416 29.8643L65.1691 29.7004Z" fill="white"/>
<path d="M75.6277 30.4351C75.3242 30.2105 75.1937 30.6141 74.9539 30.6323C74.8987 30.64 74.8424 30.636 74.7888 30.6207C74.7351 30.6054 74.6853 30.579 74.6424 30.5433C74.5996 30.5076 74.5647 30.4633 74.5399 30.4133C74.5151 30.3633 74.5011 30.3087 74.4987 30.253C74.441 29.9343 74.611 29.9768 74.875 29.9495C75.2569 29.8669 75.6256 29.7321 75.9707 29.5488C76.1528 29.8523 75.6034 29.9495 75.8341 30.2256H75.8553C75.6065 30.1346 75.5245 30.2256 75.6216 30.4624L75.6277 30.4351Z" fill="white"/>
<path d="M74.7961 42.4475C74.5199 42.5872 74.3954 42.9605 74.0221 42.9483C73.7763 42.3413 73.0782 43.0151 72.7444 42.4172C73.4546 42.2533 74.1101 42.0348 74.7961 42.4475Z" fill="white"/>
<path d="M66.3132 16.8623C66.031 17.2386 66.1615 17.618 66.3132 17.9974C65.846 17.7897 65.3368 17.6941 64.826 17.7182C65.2236 17.1658 65.7912 17.0505 66.3132 16.8623Z" fill="white"/>
<path d="M78.3198 38.411C78.0011 38.1075 78.1589 37.6978 78.1225 37.3335L79.0118 36.8328C79.0603 37.5339 78.6627 37.9588 78.3198 38.411Z" fill="white"/>
<path d="M75.388 20.0066C75.3097 20.3262 75.2083 20.6396 75.0845 20.9445C75.0567 20.9938 75.0188 21.0367 74.9734 21.0704C74.9279 21.1041 74.8759 21.1279 74.8207 21.1402C74.7654 21.1525 74.7082 21.153 74.6528 21.1418C74.5973 21.1306 74.5448 21.1078 74.4987 21.075C74.1952 20.8807 74.2984 20.6501 74.5321 20.4528C74.951 20.5681 75.0208 19.9915 75.388 20.0066Z" fill="white"/>
<path d="M63.9854 39.088C63.5484 38.9848 63.5939 38.6357 63.5908 38.314C63.5878 37.9923 63.5908 37.5704 63.1083 37.4946C63.1606 37.3508 63.2432 37.2201 63.3506 37.1111C63.458 37.0022 63.5875 36.9177 63.7305 36.8633C63.776 37.355 63.8245 37.8466 63.8701 38.3383L63.9854 39.088Z" fill="white"/>
<path d="M69.7216 42.2687V41.4675C70.1052 41.4003 70.4997 41.4348 70.8658 41.5677L69.7216 42.2687Z" fill="white"/>
<path d="M70.6594 29.0541C70.5958 29.1538 70.5045 29.2328 70.3967 29.2813C70.2888 29.3298 70.1692 29.3458 70.0524 29.3273C70.195 29.0238 70.3346 28.7203 70.541 28.262L70.6594 29.0541Z" fill="white"/>
<path d="M84.49 31.0938C84.6751 31.5672 84.839 32.0285 84.4171 32.7023C84.4475 31.9891 84.4687 31.5429 84.49 31.0938Z" fill="white"/>
<path d="M72.6593 41.6979V41.3246C72.9142 41.2639 73.2936 40.927 73.3665 41.3944C73.412 41.6766 72.9264 41.6402 72.6593 41.6979Z" fill="white"/>
<path d="M63.87 38.3383C63.8244 37.8466 63.7759 37.355 63.7303 36.8633L63.9853 37.0393L63.87 38.3383Z" fill="white"/>
<path d="M67.4485 16.6349C67.3058 17.1478 67.063 17.166 66.7352 16.7836C66.9325 16.5377 67.1965 16.6197 67.4485 16.6349Z" fill="white"/>
<path d="M90.742 29.7827C90.8408 30.0782 90.8408 30.3978 90.742 30.6932C90.6785 30.5499 90.6456 30.3948 90.6456 30.238C90.6456 30.0811 90.6785 29.9261 90.742 29.7827Z" fill="white"/>
<path d="M55.4752 17.5545L55.0564 17.4938C55.1232 17.2176 55.2688 16.9566 55.5754 17.1114C55.8819 17.2662 55.7241 17.4513 55.4752 17.5545Z" fill="white"/>
<path d="M59.6818 33.2121C60.0004 33.1969 60.3343 33.1453 60.4162 33.5884C60.2699 33.61 60.1204 33.5853 59.9887 33.5179C59.8571 33.4504 59.7497 33.3435 59.6818 33.2121Z" fill="white"/>
<path d="M68.371 16.8171C68.0675 17.1631 67.9673 16.9264 67.9066 16.632C68.0978 16.6016 68.2769 16.6016 68.371 16.8171Z" fill="white"/>
<path d="M63.9975 37.0453L63.7426 36.8692C63.8275 36.6689 63.958 36.5657 64.1614 36.6993C64.1154 36.8185 64.0606 36.9342 63.9975 37.0453Z" fill="white"/>
<path d="M66.2919 17.9943C66.3488 17.9853 66.4069 17.9884 66.4626 18.0033C66.5182 18.0183 66.5701 18.0449 66.6147 18.0812C66.6594 18.1176 66.6959 18.163 66.7219 18.2144C66.7478 18.2659 66.7626 18.3222 66.7653 18.3798L66.2919 17.9943Z" fill="white"/>
<path d="M68.7352 40.2929C68.8268 40.258 68.9266 40.2509 69.0221 40.2725C69.1177 40.2941 69.2048 40.3434 69.2724 40.4143C69.1801 40.4428 69.0819 40.4466 68.9876 40.4253C68.8933 40.404 68.8063 40.3583 68.7352 40.2929Z" fill="white"/>
<path d="M71.5303 40.4172C71.5995 40.3478 71.687 40.2994 71.7827 40.2779C71.8784 40.2564 71.9782 40.2626 72.0705 40.2958C71.9976 40.3593 71.91 40.4036 71.8157 40.4248C71.7214 40.446 71.6233 40.4434 71.5303 40.4172Z" fill="white"/>
<path d="M59.5148 45.4373C59.6818 45.4858 59.8183 45.6315 59.6878 45.7408C59.5179 45.9046 59.4905 45.6527 59.4147 45.5647L59.5148 45.4373Z" fill="white"/>
<path d="M60.6893 20.3043C60.5952 20.45 60.4101 20.5289 60.3282 20.4045C60.2128 20.2315 60.4678 20.2345 60.5497 20.1465L60.6893 20.3043Z" fill="white"/>
<path d="M59.1719 45.0337L59.5148 45.4373L59.4147 45.5739L59.0171 45.2552L59.1719 45.0337Z" fill="white"/>
<path d="M87.2943 19.3451L87.1638 19.2267L87.3338 19.166C87.345 19.1965 87.3473 19.2296 87.3403 19.2613C87.3333 19.2931 87.3173 19.3221 87.2943 19.3451Z" fill="white"/>
<path d="M59.0172 44.8787C59.0796 44.9194 59.1325 44.9732 59.172 45.0365L59.0172 45.255L58.7683 45.0517L59.0172 44.8787Z" fill="white"/>
<path d="M78.3591 34.3201L78.3136 34.3777L78.3743 34.3352L78.3591 34.3201Z" fill="white"/>
<path d="M81.2963 17.7665L81.2667 17.7813L81.3052 17.7546L81.2963 17.7665Z" fill="white"/>
<path d="M80.6113 21.6185L80.7631 21.7247C80.6174 21.7975 80.5901 21.7247 80.6265 21.6033L80.6113 21.6185Z" fill="white"/>
<path d="M85.3852 22.7535C85.3933 22.725 85.4067 22.6982 85.4246 22.6746C85.4246 22.6746 85.4641 22.6746 85.4854 22.6746L85.373 22.7444L85.3852 22.7535Z" fill="white"/>
<path d="M61.363 23.7609C61.3782 23.6486 61.3995 23.5363 61.5542 23.6244L61.363 23.7609Z" fill="white"/>
<path d="M82.4019 40.4231L82.5931 40.3047L82.5657 40.5596C82.5058 40.5208 82.4508 40.475 82.4019 40.4231Z" fill="white"/>
<path d="M64.9475 21.8369C64.9869 22.2436 64.908 22.6624 65.1083 23.0509C65.4816 23.7763 65.9096 23.8097 66.3709 23.1268C66.641 22.7292 66.641 22.7292 67.3451 22.3741C67.2055 23.403 67.0416 24.4045 67.4423 25.3788C67.6487 25.8947 67.3816 25.9858 66.9536 25.8644C66.0717 25.6468 65.2646 25.196 64.6167 24.5593C63.7972 23.7217 63.9125 22.9265 64.9566 21.843L64.9475 21.8369Z" fill="white"/>
<path d="M67.8065 17.8248C68.7352 17.6184 69.145 18.0706 69.3756 18.7353C69.6791 19.6246 69.2512 20.2528 68.5653 20.8143C68.5653 20.2649 68.5653 19.7763 68.5653 19.2968C68.541 18.7231 68.1131 18.3498 67.8065 17.8248Z" fill="white"/>
<path d="M64.9566 21.846L64.9991 21.7671C64.9839 21.7914 64.9657 21.8126 64.9475 21.8369L64.9566 21.846Z" fill="white"/>
<path d="M75.4639 24.2799C75.0602 24.9567 74.7658 25.676 73.8948 25.4514C73.0814 25.242 72.8143 24.5227 72.7172 23.8034C72.6261 23.1509 72.5108 22.4498 72.9266 21.8307C73.2301 21.8944 73.1755 22.1858 73.312 22.3496C73.6155 22.7108 73.7369 23.3907 74.2954 23.33C74.9176 23.2602 75.1179 22.6289 75.2818 22.0765C75.3637 21.8003 75.4487 21.5302 75.5428 21.2297C77.1028 22.4832 77.2242 24.6168 75.8038 25.8612C75.4669 25.412 75.8129 24.7807 75.4639 24.2799Z" fill="white"/>
<path d="M72.8962 20.0219C72.1708 19.9309 72.0282 19.3755 72.0069 18.8079C71.9796 18.0916 72.4834 17.7912 73.2877 17.5544C72.6807 18.4073 72.4531 19.1873 72.8931 20.028L72.8962 20.0219Z" fill="white"/>
<path d="M72.8962 20.025L72.9752 20.0736L72.8993 20.022L72.8962 20.025Z" fill="white"/>
<path d="M75.6064 30.4593C75.5093 30.2074 75.5912 30.1316 75.8401 30.2226L75.6064 30.4593Z" fill="white"/>
<path d="M51.4839 29.0358C51.7009 26.8108 52.2834 24.6369 53.2078 22.6015C53.3822 22.2433 53.4826 21.8536 53.503 21.4557C53.5233 21.0578 53.4632 20.6599 53.3261 20.2858C52.6706 18.2524 53.3535 15.885 54.8922 14.9594C56.1578 14.1976 57.4659 13.8243 58.8104 14.8197C58.9286 14.9241 59.0807 14.9817 59.2384 14.9817C59.396 14.9817 59.5482 14.9241 59.6663 14.8197C62.3705 12.6952 65.5057 11.6846 68.8806 11.4023C72.5692 11.0549 76.2758 11.8439 79.5032 13.6634C79.8346 13.8554 80.1549 14.0662 80.4622 14.2947C81.0693 14.7317 81.5852 15.0625 82.4532 14.6589C85.0117 13.4692 88.071 15.709 87.7888 18.8897C87.722 19.6515 87.6856 20.4315 87.3366 21.1447C87.2694 21.2676 87.2341 21.4053 87.2341 21.5453C87.2341 21.6854 87.2694 21.8231 87.3366 21.946C88.3897 23.9825 88.8389 26.195 89.2061 28.4348L89.2517 29.6762C89.1917 29.8087 89.1606 29.9525 89.1606 30.098C89.1606 30.2435 89.1917 30.3874 89.2517 30.5199C89.367 31.0116 88.9846 31.5275 89.3215 32.0101C88.76 34.0405 88.3867 36.1134 87.4701 38.0528C85.1635 42.9271 81.4395 46.1776 76.4014 47.9682C75.7147 48.1754 75.0859 48.5402 74.5652 49.0335C73.9036 49.7012 72.8929 49.6405 72.0644 49.9835L71.2449 50.0411C70.7585 49.9395 70.2563 49.9395 69.7699 50.0411H68.8837C68.0672 49.8166 67.1871 49.6951 66.5831 49.0396C65.7485 48.1291 64.5375 48.0957 63.5086 47.6678C60.1951 46.3363 57.3218 44.1014 55.2158 41.2174C53.1099 38.3334 51.8557 34.9162 51.5962 31.3545C51.6265 30.5685 51.8511 29.7885 51.4839 29.0358ZM59.9819 43.8163C59.9437 43.7593 59.8941 43.7107 59.8363 43.6737L57.9151 41.0362C58.1002 42.2199 58.5524 43.2214 59.6056 43.8315L59.8363 44.0227L60.2035 44.3262C60.2763 44.4081 60.3006 44.6297 60.4584 44.4871C60.5677 44.3808 60.4584 44.2443 60.2976 44.1987L59.9819 43.8163ZM64.231 36.2439C64.0987 36.294 63.9787 36.372 63.8792 36.4726C63.7797 36.5731 63.703 36.6939 63.6543 36.8267C63.0291 36.9966 63.1535 35.9162 62.4039 36.1256C62.6315 37.1241 63.3872 37.9011 63.4601 38.9148C63.0989 38.9451 62.9138 39.1333 63.0989 39.4671C63.4813 40.1531 64.0792 40.6538 64.8714 40.3776C65.53 40.1379 64.8714 39.5794 64.9381 39.1636C65.0049 38.7478 64.4252 38.7084 64.4677 38.3138L64.3615 37.6188L64.4768 36.4048C64.5366 36.3021 64.5873 36.1945 64.6286 36.0831C64.4252 35.9617 64.3038 36.0588 64.2279 36.2439H64.231ZM66.5952 18.744L67.0323 19.1113C67.1152 19.2042 67.1776 19.3136 67.2153 19.4324C67.2529 19.5511 67.265 19.6765 67.2508 19.8002C66.7166 19.7638 66.3403 19.1295 65.6969 19.436C66.2523 19.8032 66.7804 20.1917 66.5831 20.9808C65.6574 20.2858 64.7955 19.4117 63.457 19.8093C63.0497 19.813 62.647 19.897 62.272 20.0563C61.8971 20.2157 61.5572 20.4473 61.2718 20.738C61.196 20.82 60.9683 20.8169 61.0624 20.9778C61.1413 21.0931 61.3113 21.0203 61.3993 20.8837C61.9026 20.6515 62.4613 20.5663 63.0109 20.6379C62.8379 21.0051 62.3523 20.911 62.1459 21.2267C61.9306 21.298 61.7318 21.4118 61.5613 21.5615C61.3908 21.7111 61.2521 21.8935 61.1535 22.0977H61.9699C62.2977 22.4619 62.0609 22.7047 61.809 22.9748C61.6148 23.1782 61.1777 23.2176 61.3113 23.6608C60.9076 23.9339 60.9198 24.4286 60.7225 24.811C60.6958 24.8662 60.6817 24.9265 60.681 24.9877C60.6804 25.049 60.6933 25.1096 60.7188 25.1653C60.7443 25.2209 60.7819 25.2703 60.8287 25.3098C60.8755 25.3493 60.9304 25.3779 60.9896 25.3937C61.1777 25.4393 61.2597 25.1934 61.3356 24.9901C61.4699 24.7187 61.6326 24.4623 61.8212 24.2253L61.9942 24.0887L62.1732 23.9643C62.6376 23.7882 63.023 23.3815 63.7363 23.4544C62.6406 24.7716 63.8061 25.5303 64.3433 26.4439C64.3827 26.4957 64.4344 26.537 64.4937 26.564C64.5531 26.591 64.6181 26.6029 64.6832 26.5986C65.536 26.2344 66.2462 26.802 67.0202 26.9264C67.7941 27.0509 68.5377 26.8809 68.7896 26.0159C69.0931 25.0083 68.9201 23.9885 69.7759 22.9809C70.4922 22.1281 70.4042 20.5074 70.1493 19.2145C69.9823 18.3768 69.609 17.5938 68.5134 17.6484C68.4284 17.4481 68.2615 17.4481 68.0824 17.4754H67.6575C67.4238 17.4754 67.178 17.3874 66.9959 17.615L66.6043 17.6939C66.1218 17.8639 65.5937 17.961 65.2174 18.486C65.6907 18.4643 66.1626 18.5537 66.5952 18.7471V18.744ZM69.7638 40.5112C69.3086 40.4808 68.8533 40.2957 68.2979 40.5931L69.6151 41.3792C69.732 41.5056 69.8339 41.6451 69.9186 41.795C70.2464 42.5598 70.6956 42.4779 71.0021 41.8557C71.3086 41.2335 71.9278 41.0089 72.4893 40.7206C72.7381 40.669 73.1873 40.7024 73.1479 40.4414C73.078 40.0074 72.729 40.32 72.4923 40.3776C71.9308 40.4262 71.3542 40.3776 70.817 40.6022C70.4791 40.4793 70.1147 40.4479 69.7608 40.5112H69.7638ZM81.5306 39.54C81.0693 40.0893 80.2741 40.3048 80.0131 41.0575C79.1845 42.3413 78.8628 43.9074 77.7702 45.0425C77.1298 45.4036 76.4196 45.692 76.1677 46.56C76.9022 46.56 77.4121 46.1169 77.9887 45.8528C78.45 45.698 78.9235 45.5311 79.1602 45.0667C79.8644 43.6737 80.8659 42.4202 81.1815 40.839C81.3545 40.4444 81.5245 40.0529 81.6945 39.6583L81.7188 39.4216L81.5306 39.54ZM79.8765 22.0886C79.8431 22.213 79.8765 22.2707 80.004 22.2009L79.8613 22.1008C79.9554 21.7639 79.6064 21.5636 79.6003 21.257C79.8856 20.9171 79.8249 20.5924 79.4486 20.4224C78.8264 20.1432 78.1526 19.697 77.5395 19.7486C76.6806 19.8215 75.5364 19.4208 75.0205 20.6075C74.6745 20.6075 74.6138 21.1295 74.2192 21.0233L74.1949 20.4163C74.5152 19.9413 74.9207 19.5298 75.3907 19.2023C74.3497 19.087 73.9582 19.8731 73.3482 20.2585C73.3026 19.2478 73.9005 18.5346 74.6107 17.8153C73.8914 17.5422 73.2753 17.8396 72.7017 17.785C71.691 17.6909 71.3268 18.3464 71.0021 18.9777C70.5074 19.9338 70.3526 21.0628 70.8534 21.9885C71.0671 22.2867 71.197 22.6367 71.2297 23.0022C71.2372 23.9131 71.4444 24.8113 71.8367 25.6335C72.5985 27.3817 72.4953 26.8475 74.2314 26.5592C74.3831 26.5349 74.7989 26.1313 74.6896 26.6715C74.5106 27.5638 75.0114 27.0114 75.239 26.975C76.0281 26.8506 76.3225 25.9977 76.9781 25.7337C77.6336 25.4696 77.6427 25.0022 77.5851 24.4863C77.5041 24.0871 77.3935 23.6945 77.2542 23.3117C78.5229 23.5242 79.2391 24.3406 80.0616 25.4878C80.094 25.0138 80.0154 24.5388 79.832 24.1004C79.6487 23.6621 79.3657 23.2725 79.0054 22.9627C78.617 22.5803 78.0949 22.298 77.9978 21.6758L79.8765 22.0886ZM84.2894 23.1569L83.9131 23.1266C83.9343 23.0264 83.9131 22.8929 83.9738 22.8231C85.0451 21.688 85.0451 21.691 83.8797 20.7593C83.7666 20.6848 83.6645 20.5949 83.5762 20.4922C83.0511 19.7001 82.7082 20.0794 82.3834 20.6622C82.1497 21.084 81.9282 21.5909 81.5306 20.7653C81.4183 20.5377 81.1967 20.3283 80.9387 20.4831C80.6352 20.6682 80.8932 20.9353 80.9873 21.1174C81.4638 22.0279 81.916 22.9566 82.6232 23.7245C83.5337 24.5257 83.8372 23.6031 84.2924 23.1357L84.3956 23.072C84.3774 23.072 84.3501 23.072 84.341 23.072C84.3209 23.0974 84.3055 23.1261 84.2955 23.1569H84.2894ZM77.7611 33.8797C78.7171 33.8008 79.4091 33.0936 80.2832 32.8174C81.3576 32.2347 81.3515 31.1906 81.4274 30.1527C80.8204 30.9114 80.0525 31.485 79.4243 32.1922C79.1694 32.4484 78.8998 32.6896 78.617 32.9145C78.2983 33.13 77.7065 33.2878 77.7732 33.8948L77.7186 33.9343L77.7611 33.8797ZM73.7518 41.88C73.4028 42.0014 73.0143 42.0621 72.7594 42.5477C74.0068 42.2442 75.1874 42.0833 76.5289 41.4247C75.8643 41.1825 75.1357 41.1825 74.4711 41.4247C73.8368 41.0393 73.2268 41.2426 72.5682 41.3974C72.896 41.9437 73.5303 41.3155 73.7579 41.88H73.7518ZM80.4987 18.5316C81.5579 17.6636 81.998 16.3251 82.9479 15.3752C81.4911 15.9336 80.9175 17.1688 80.5199 18.5225L80.4835 18.5467L80.4987 18.5316ZM86.0983 19.8275C86.1438 19.5878 86.1984 19.3419 85.9678 19.1537C85.7493 18.313 84.9996 18.4436 84.344 18.3464L85.3365 19.3632C85.2879 19.4937 85.47 19.9064 85.0664 19.5999C84.6627 19.2934 84.2651 18.9929 83.643 18.9625C84.0709 19.4876 84.3865 20.0127 84.8327 20.3678C85.0815 20.562 85.1362 21.1144 85.5702 20.9565C85.9587 20.8109 86.0103 20.3769 86.0619 19.9945C86.0835 19.9731 86.0988 19.9463 86.1063 19.9169C86.1138 19.8875 86.1131 19.8566 86.1043 19.8275H86.0983ZM71.4482 39.5339C71.535 39.5584 71.6264 39.561 71.7143 39.5414C71.8023 39.5218 71.884 39.4806 71.9521 39.4216H72.0219L72.0917 39.4004C73.4544 39.2911 73.855 38.9512 73.7913 37.9587C73.7731 37.631 73.7154 37.552 73.5303 37.6825C72.9233 38.1166 72.8261 37.6279 72.6562 37.2546C72.5035 36.7925 72.3063 36.3463 72.0674 35.9222C71.2479 34.7629 70.5833 34.2833 69.7668 35.0117C69.1963 35.5155 68.5164 36.0163 68.483 36.9511C68.4678 37.1627 68.3885 37.3646 68.2556 37.5299C68.1228 37.6953 67.9428 37.8163 67.7395 37.8768C66.7075 38.0862 67.2478 38.4838 67.524 38.9239C67.8001 39.3639 68.2402 39.4216 68.7076 39.3973L68.7805 39.4246H68.8563C68.9226 39.4857 69.0038 39.5282 69.0917 39.5479C69.1796 39.5676 69.2711 39.5638 69.3571 39.5369C70.0505 39.6391 70.7552 39.6381 71.4482 39.5339ZM55.6874 18.5255C54.9924 18.9504 54.4157 19.4178 55.0197 20.3222C54.9744 20.492 54.9957 20.6726 55.0792 20.8272C55.1627 20.9818 55.3021 21.0986 55.4689 21.1538C55.7724 21.2236 55.8209 20.7896 55.9757 20.5772C56.4583 19.9095 57.2899 19.3207 56.5615 18.3343C56.7921 18.2402 56.9318 18.0642 56.6525 17.9246C56.3733 17.785 56.2337 18.0217 56.173 18.2766L55.6874 18.5255ZM75.415 30.0889C75.2026 29.8309 75.7185 29.7399 75.5455 29.4607C75.2234 29.6293 74.8806 29.7548 74.5258 29.834C74.2829 29.8552 74.1251 29.8127 74.1798 30.1102C74.1818 30.1616 74.1946 30.2121 74.2173 30.2583C74.24 30.3045 74.2721 30.3455 74.3115 30.3786C74.3509 30.4118 74.3968 30.4363 74.4462 30.4507C74.4957 30.4651 74.5475 30.469 74.5986 30.4622C74.8201 30.444 74.9385 30.0707 75.2238 30.2801C75.1054 30.9387 75.4879 31.1572 76.0463 31.1906C76.5583 31.2229 77.0702 31.1249 77.5341 30.9057C77.998 30.6865 78.3987 30.3533 78.6989 29.9372C78.9235 29.6488 79.1238 29.3029 78.8598 28.9993C78.5957 28.6958 78.2528 28.9994 78.016 29.1208C77.8626 29.1613 77.7288 29.2556 77.6391 29.3865C77.5494 29.5174 77.5098 29.6763 77.5274 29.834C77.5517 30.2164 77.0084 30.6656 76.6958 30.3226C76.2587 29.8279 75.8521 30.1223 75.4241 30.0889H75.415ZM61.1352 33.2029C61.9851 33.3243 62.6528 33.995 63.885 34.0314C61.982 32.8174 60.4675 31.6216 59.3689 29.9341C59.5328 31.0025 59.6542 32.0587 60.4524 32.8538C60.5164 32.9774 60.6177 33.0776 60.7419 33.1403C60.8661 33.2029 61.007 33.2248 61.1444 33.2029H61.1352ZM70.6409 29.0024L70.5226 28.2679L70.0703 29.2573L69.3237 30.0222C68.7835 30.5806 68.0096 30.9327 67.7789 31.7612C67.7303 31.9312 67.3692 32.0253 67.6241 32.2559C67.9276 32.5352 68.0429 32.1467 68.1704 32.0101C68.6389 31.5098 69.1801 31.0832 69.7759 30.7445C71.078 30.3165 71.8671 31.6762 73.0993 31.655C72.1524 30.8659 71.8155 29.5578 70.6409 29.0024ZM60.771 41.0302C60.4091 40.4958 59.9424 40.0404 59.3992 39.6917C59.6026 40.4444 59.6602 41.2396 60.2794 41.8011C60.4797 42.7723 61.0533 43.5765 61.46 44.4537C61.6282 44.8358 61.874 45.1787 62.1817 45.4609C62.4894 45.743 62.8524 45.9581 63.2476 46.0926C63.5117 46.1867 63.8364 46.5478 64.0731 46.1776C64.2522 45.8983 63.8971 45.7193 63.6998 45.522C62.6921 44.5867 61.9168 43.429 61.4357 42.141C61.2991 41.7495 61.2749 41.2214 60.771 41.0241V41.0302ZM77.5608 36.6749C77.1966 36.5808 76.4833 35.9556 76.5562 36.3866C76.7838 37.6825 75.8065 38.6022 75.846 39.7706C75.846 39.9831 75.5425 40.2836 75.9188 40.3776C76.0515 40.4417 76.1975 40.4732 76.3448 40.4696C76.4921 40.4659 76.6363 40.4271 76.7656 40.3564C78.1192 39.5734 78.2619 39.3063 77.7459 37.6674C78.0494 37.2546 78.4318 36.8631 78.3863 36.2045L77.5608 36.6749ZM58.6131 21.4725C58.1882 21.3177 58.1002 21.0719 58.3582 20.6773C58.4584 20.5225 58.604 20.2767 58.3886 20.1128C58.3421 20.0731 58.2879 20.0433 58.2295 20.0255C58.171 20.0077 58.1094 20.0022 58.0487 20.0093C57.988 20.0165 57.9294 20.0361 57.8767 20.0669C57.8239 20.0978 57.7781 20.1393 57.7421 20.1887C57.3536 20.6227 56.8073 20.8443 56.4067 21.3056C55.7056 22.1129 56.8012 22.3132 56.8559 22.8807C56.8984 23.3269 57.2201 24.1099 57.7937 24.0674C58.2368 24.0341 58.6799 23.4938 58.8742 22.9475C58.9197 22.817 58.9925 22.6987 59.0502 22.5742C59.6026 22.4376 59.6147 21.9308 59.724 21.5241C59.8332 21.1174 60.5191 20.7714 60.1944 20.5347C59.818 20.2615 59.3719 20.8898 58.9318 21.078C58.7952 21.1296 58.7194 21.3299 58.6131 21.4664V21.4725ZM86.1863 23.9491C85.3759 25.0174 84.8114 26.2678 84.8236 27.5486C84.8236 28.6625 85.1271 29.8036 85.1847 30.9478C85.1422 33.4669 84.9389 35.9981 85.5672 38.5354C86.0194 38.2835 86.0801 37.9284 86.2227 37.6249C88.0603 33.7909 88.4148 29.4128 87.2182 25.3331C87.0725 24.8141 87.0907 24.2586 86.7387 23.7639C86.2015 22.9991 86.3138 23.7275 86.1863 23.943V23.9491ZM54.6221 23.773C54.1547 23.685 54.1395 23.679 53.9605 24.1949C52.8916 27.1308 52.6378 30.3013 53.226 33.3698C53.5872 35.2515 54.1031 37.0695 55.3353 38.8935C55.7633 36.1832 56.0425 33.7158 55.6995 31.2149C55.7188 30.2723 55.7857 29.3313 55.8998 28.3954C56.058 27.5787 56.0264 26.7367 55.8075 25.9342C55.5886 25.1317 55.1882 24.3902 54.6373 23.767L54.6221 23.773ZM60.8803 16.2796C61.5146 16.7439 62.2218 17.3176 62.9836 17.1385C63.8297 16.9772 64.6477 16.693 65.4116 16.2948C67.2326 15.1991 69.2327 15.5299 71.1569 15.3387C73.4908 15.1081 75.5061 16.2492 77.5881 17.0535C77.8916 17.1719 78.1769 17.3054 78.4652 17.1658C79.0722 16.8623 79.6792 16.5376 80.2619 16.2189C80.7445 15.6362 80.0829 15.5755 79.8461 15.4298C73.6183 11.5996 67.3358 11.8788 61.0472 15.2598C60.9228 15.3236 59.7695 15.7697 60.8955 16.2735L60.8803 16.2796ZM73.503 46.5145C72.5884 45.9765 71.5474 45.6908 70.4864 45.6865C69.4253 45.6822 68.3821 45.9596 67.4633 46.4902C68.4557 47.4978 72.3375 47.516 73.503 46.5145ZM64.7014 31.1997C64.9442 31.1269 65.3843 31.3181 65.3084 30.8538C65.2386 30.4713 64.7621 30.01 64.5436 30.1496C63.5481 30.7779 63.6118 30.0859 63.4297 29.4546C63.389 29.3575 63.3287 29.2699 63.2526 29.1972C63.1764 29.1245 63.0861 29.0683 62.9873 29.0321C62.8884 28.9959 62.7831 28.9805 62.678 28.9869C62.573 28.9933 62.4703 29.0213 62.3766 29.0692C62.0124 29.2543 62.243 29.6762 62.4312 29.9797C62.9502 30.8234 63.7636 31.1269 64.7014 31.1997ZM57.387 15.451C58.8499 16.3615 59.4447 17.7759 60.8105 18.8199C59.6359 16.3949 58.8286 15.5633 57.384 15.451H57.387ZM64.3675 41.5522L66.5467 42.2017C66.7925 42.2745 67.0596 42.4718 67.2235 42.0803C66.8289 41.9346 67.2235 41.2608 66.7561 41.2639C66.0489 41.273 65.3084 41.0514 64.3645 41.5552L64.3675 41.5522ZM82.4593 34.8934C83.1786 34.2712 83.5094 33.5185 83.212 32.5534C82.957 33.3364 82.7082 34.1164 82.4563 34.8964L82.4593 34.8934ZM58.2004 35.0694C58.4493 34.3926 58.0426 33.8281 57.9363 33.1968C57.9297 33.1534 57.9128 33.1121 57.8871 33.0765C57.8613 33.0409 57.8275 33.012 57.7883 32.9921C57.7491 32.9722 57.7058 32.962 57.6619 32.9622C57.6179 32.9624 57.5747 32.9731 57.5357 32.9934C57.3475 33.0663 57.3354 33.2302 57.4234 33.4153C57.6875 33.9677 57.9394 34.5231 58.1974 35.0724L58.2004 35.0694ZM82.9115 41.5522C82.2926 42.0389 81.8105 42.6779 81.5124 43.4066C82.5048 43.012 82.7385 42.3109 82.9115 41.5522ZM65.5482 29.6094L65.445 29.7611C65.6969 29.9857 65.9397 30.2225 66.2068 30.4258C66.2424 30.4504 66.2829 30.4671 66.3255 30.4748C66.3681 30.4825 66.4118 30.4809 66.4538 30.4703C66.4958 30.4597 66.535 30.4402 66.5688 30.4131C66.6026 30.3861 66.6303 30.3521 66.6499 30.3135C66.7349 30.1769 66.8593 29.9857 66.8229 29.8613C66.747 29.6064 66.5467 29.8431 66.4071 29.8218C66.1169 29.7675 65.8302 29.6966 65.5482 29.6094ZM83.4548 30.9023L83.388 32.3925C83.5394 32.174 83.6267 31.9176 83.6401 31.6521C83.6535 31.3867 83.5925 31.1228 83.4639 30.8902L83.4548 30.9023Z" fill="#202251"/>
<path d="M67.2479 19.8C67.2621 19.6763 67.25 19.5509 67.2123 19.4322C67.1746 19.3134 67.1123 19.204 67.0294 19.1111C67.0283 19.057 67.0156 19.0039 66.9923 18.9551C66.969 18.9063 66.9355 18.8631 66.8941 18.8283C66.8527 18.7936 66.8044 18.768 66.7523 18.7535C66.7003 18.7389 66.6457 18.7356 66.5923 18.7438C66.4618 18.3918 66.3404 18.0397 66.5923 17.6907L66.9838 17.6118C67.2873 17.9638 67.515 17.9487 67.6455 17.4722H68.0704C68.128 17.7484 68.2069 17.9638 68.5013 17.6452C69.597 17.5905 69.9703 18.3736 70.1372 19.2112C70.3921 20.5041 70.4802 22.1248 69.7639 22.9777C68.908 23.9944 69.0841 25.0142 68.7775 26.0127C68.5165 26.8655 67.8093 27.0416 67.0081 26.9232C66.2069 26.8048 65.524 26.2312 64.6711 26.5954C64.6061 26.5997 64.541 26.5878 64.4817 26.5608C64.4224 26.5338 64.3707 26.4925 64.3312 26.4406C63.8001 25.5301 62.6346 24.7683 63.7242 23.4511C63.011 23.3783 62.6255 23.785 62.1612 23.961C62.0155 23.8791 61.9973 23.9823 61.9821 24.0855L61.8091 24.222C61.6685 24.2098 61.5378 24.1448 61.4432 24.04C61.3486 23.9353 61.2972 23.7986 61.2992 23.6575C61.1657 23.2144 61.6027 23.175 61.797 22.9716C62.0489 22.7045 62.2856 22.4587 61.9578 22.0945C61.9821 21.6423 62.2158 22.0126 62.3524 21.9822C62.5739 21.9336 62.7469 22.4617 62.9594 22.055C63.1111 21.7515 62.926 21.533 62.6043 21.448C62.4414 21.3867 62.2823 21.3158 62.1278 21.2356C62.3342 20.9321 62.8198 21.014 62.9928 20.6468C63.5087 20.5709 63.4298 20.1703 63.4389 19.8182C64.7774 19.4206 65.6393 20.2947 66.565 20.9898C66.6348 21.3084 66.5468 21.6939 67.0081 21.9003C67.0029 21.1931 67.0834 20.4878 67.2479 19.8ZM65.354 22.3252C64.3858 23.3298 64.2766 24.0673 65.0505 24.8442C65.6518 25.4347 66.4 25.8538 67.2175 26.0582C67.6151 26.1675 67.8609 26.0855 67.6697 25.606C67.3055 24.6955 67.4512 23.785 67.5787 22.8229C66.9292 23.1507 66.9292 23.1507 66.6682 23.521C66.2372 24.1522 65.8427 24.128 65.4967 23.4511C65.3115 23.0869 65.3844 22.6985 65.3479 22.3221L65.3965 22.2554L65.354 22.3252ZM67.9945 18.5951C68.2798 19.0838 68.6743 19.4298 68.6956 19.9487C68.7138 20.401 68.6956 20.8592 68.6956 21.3631C69.3299 20.835 69.7366 20.2614 69.4452 19.4358C69.2358 18.8136 68.8564 18.3796 67.9945 18.583V18.5951Z" fill="white"/>
<path d="M75.0205 20.6075C75.5364 19.4208 76.6806 19.8214 77.5396 19.7486C78.1466 19.697 78.8264 20.1431 79.4486 20.4223C79.8249 20.5923 79.8856 20.9171 79.6003 21.257L79.2968 21.4785C78.7202 20.568 78.3681 21.257 77.9796 21.6667C78.0676 22.2889 78.5866 22.5772 78.9873 22.9536C79.3475 23.2634 79.6305 23.6529 79.8138 24.0913C79.9972 24.5296 80.0758 25.0047 80.0434 25.4787C79.221 24.3315 78.5047 23.515 77.2361 23.3026C77.3753 23.6854 77.4859 24.078 77.5669 24.4771C77.6306 24.9931 77.6245 25.4574 76.9599 25.7245C76.2952 25.9916 76.0099 26.8414 75.2208 26.9658C74.9932 27.0023 74.4924 27.5546 74.6715 26.6623C74.7807 26.1221 74.368 26.5258 74.2132 26.5501C72.4771 26.8323 72.5803 27.3725 71.8185 25.6244C71.4262 24.8022 71.219 23.904 71.2115 22.993C71.1789 22.6276 71.0489 22.2775 70.8352 21.9793C70.3344 21.0536 70.4892 19.9246 70.9839 18.9686C71.3087 18.3373 71.6729 17.6817 72.6835 17.7758C73.2571 17.8304 73.8733 17.533 74.5926 17.8062C73.8824 18.5255 73.2845 19.2387 73.33 20.2494C73.5848 20.4005 73.8834 20.4604 74.1768 20.4193L74.201 21.0263C73.9855 21.2084 73.8824 21.4239 74.1707 21.603C74.2134 21.6336 74.2621 21.6548 74.3136 21.6653C74.3651 21.6758 74.4182 21.6753 74.4695 21.6638C74.5208 21.6523 74.569 21.6302 74.6112 21.5988C74.6533 21.5674 74.6883 21.5274 74.714 21.4816C74.8372 21.198 74.9396 20.9059 75.0205 20.6075ZM72.7108 20.6227L72.7837 20.6712L72.7078 20.6257C72.3011 19.8457 72.5196 19.1082 73.075 18.3343C72.3284 18.5528 71.861 18.829 71.8883 19.4936C71.9126 20.0217 72.0431 20.5407 72.7169 20.6227H72.7108ZM75.0903 24.5682C75.415 25.0325 75.0903 25.6183 75.3938 26.0341C76.708 24.8808 76.6078 22.902 75.151 21.7395C75.066 22.0188 74.9841 22.2707 74.9082 22.5256C74.7564 23.0385 74.5713 23.6213 73.9977 23.685C73.4787 23.7427 73.3694 23.1114 73.0872 22.7745C72.9597 22.6258 73.0052 22.3526 72.726 22.295C72.3436 22.8686 72.4498 23.509 72.5318 24.116C72.6259 24.7806 72.8717 25.4483 73.6244 25.6335C74.4469 25.8641 74.717 25.1995 75.0964 24.5712L75.0903 24.5682Z" fill="white"/>
<path d="M80.2649 16.2128C79.6579 16.5315 79.0813 16.8714 78.4682 17.1597C78.1799 17.2994 77.9037 17.1597 77.5911 17.0474C75.5091 16.2553 73.5029 15.102 71.1599 15.3448C69.2357 15.536 67.2508 15.2052 65.4146 16.3008C64.6507 16.699 63.8327 16.9833 62.9866 17.1446C62.2248 17.3236 61.5176 16.75 60.8833 16.2857C65.6301 13.1292 70.7289 12.7043 76.0948 14.325C77.582 14.759 78.7929 15.7697 80.2649 16.2128Z" fill="white"/>
<path d="M55.7147 31.2085C56.0577 33.7094 55.7785 36.1768 55.3505 38.8871C54.1183 37.0661 53.6024 35.2451 53.2412 33.3634C52.653 30.2949 52.9068 27.1244 53.9757 24.1885C54.1547 23.6726 54.1699 23.6786 54.6373 23.7666C54.48 24.078 54.3988 24.4224 54.4006 24.7712C54.2154 27.0445 54.5523 29.2084 55.7147 31.2085Z" fill="white"/>
<path d="M86.1865 23.9427C86.3139 23.7272 86.1865 22.9988 86.7388 23.7545C87.0909 24.2492 87.0727 24.8047 87.2184 25.3236C88.415 29.4034 88.0604 33.7815 86.2229 37.6155C86.0802 37.919 86.0195 38.2862 85.5673 38.526C84.9391 35.9796 85.1424 33.4484 85.1849 30.9384C86.4232 28.738 86.9695 26.4345 86.1865 23.9427Z" fill="white"/>
<path d="M68.7076 39.3941C68.2402 39.4184 67.8123 39.3668 67.524 38.9206C67.2356 38.4745 66.7075 38.083 67.7394 37.8735C67.9427 37.813 68.1228 37.6921 68.2556 37.5267C68.3885 37.3613 68.4678 37.1594 68.483 36.9479C68.5164 36.0131 69.1963 35.5123 69.7668 35.0085C70.5833 34.2922 71.2479 34.7718 72.0674 35.919C72.3063 36.343 72.5035 36.7892 72.6562 37.2514C72.8261 37.6247 72.9202 38.1133 73.5303 37.6793C73.7154 37.5488 73.7731 37.6277 73.7913 37.9555C73.855 38.9479 73.4544 39.2879 72.0917 39.3971C72.207 39.042 72.4346 38.6991 72.21 38.3015C71.427 39.1361 69.8761 39.212 68.6105 38.4866C68.4223 38.8235 68.7471 39.0906 68.7076 39.3941Z" fill="white"/>
<path d="M80.2652 16.2127C78.7932 15.7696 77.5822 14.7589 76.1072 14.3128C70.7413 12.6921 65.6425 13.117 60.8957 16.2734C59.7697 15.7696 60.923 15.3235 61.0505 15.2537C67.339 11.8726 73.6215 11.5934 79.8494 15.4236C80.0861 15.5693 80.7478 15.63 80.2652 16.2127Z" fill="white"/>
<path d="M82.608 23.7334C81.9009 22.9655 81.4486 22.0368 80.9721 21.1263C80.8781 20.9442 80.614 20.6771 80.9236 20.492C81.1816 20.3372 81.4031 20.5466 81.5154 20.7742C81.913 21.5998 82.1224 21.0929 82.3683 20.671C82.693 20.0883 83.036 19.7089 83.561 20.5011C83.6493 20.6037 83.7515 20.6936 83.8645 20.7682C85.03 21.6999 85.03 21.6969 83.9586 22.832C83.901 22.8927 83.9192 23.0262 83.8979 23.1355C83.4153 23.178 82.6809 22.7379 82.608 23.7334Z" fill="white"/>
<path d="M55.7147 31.2087C54.5523 29.2086 54.2154 27.0447 54.4006 24.7714C54.3988 24.4226 54.48 24.0782 54.6373 23.7668C55.1882 24.3901 55.5886 25.1315 55.8075 25.934C56.0264 26.7365 56.058 27.5786 55.8999 28.3952C55.791 29.3294 55.7292 30.2684 55.7147 31.2087Z" fill="white"/>
<path d="M86.1864 23.9431C86.9694 26.4349 86.4231 28.7385 85.1848 30.9388C85.1363 29.7977 84.8328 28.6565 84.8237 27.5427C84.8115 26.271 85.3761 25.0114 86.1864 23.9431Z" fill="white"/>
<path d="M73.5029 46.5145C72.3405 47.5161 68.4587 47.4979 67.4633 46.4902C68.3821 45.9596 69.4253 45.6823 70.4864 45.6866C71.5474 45.6908 72.5884 45.9765 73.5029 46.5145Z" fill="white"/>
<path d="M59.0504 22.5679C58.9927 22.6923 58.9199 22.8107 58.8743 22.9412C58.6801 23.4875 58.237 24.0278 57.7939 24.0611C57.2203 24.1036 56.8985 23.3206 56.8561 22.8744C56.8014 22.3069 55.7058 22.1066 56.4069 21.2993C56.8075 20.8379 57.3538 20.6164 57.7423 20.1824C57.7783 20.133 57.8241 20.0915 57.8768 20.0606C57.9296 20.0298 57.9882 20.0101 58.0489 20.003C58.1096 19.9959 58.1712 20.0014 58.2297 20.0192C58.2881 20.037 58.3423 20.0667 58.3887 20.1065C58.6042 20.2704 58.4586 20.5162 58.3584 20.671C58.1004 21.0656 58.1884 21.3114 58.6133 21.4662L59.0504 22.5679Z" fill="white"/>
<path d="M77.7521 37.6674C78.2681 39.3063 78.1254 39.5733 76.7718 40.3564C76.6425 40.4271 76.4983 40.4658 76.351 40.4695C76.2037 40.4732 76.0577 40.4417 75.925 40.3776C75.5517 40.2775 75.8582 39.977 75.8522 39.7706C75.8127 38.6021 76.79 37.6825 76.5624 36.3866C76.4895 35.9556 77.2028 36.5808 77.567 36.6749C77.5943 37.0088 77.4486 37.379 77.7521 37.6674Z" fill="white"/>
<path d="M81.1696 40.839C80.8661 42.4202 79.8524 43.6737 79.1483 45.0668C78.9115 45.5311 78.4381 45.698 77.9767 45.8528C77.9616 45.5645 78.0465 45.2458 77.7643 45.0303C78.8569 43.8952 79.1786 42.3292 80.0072 41.0453C80.4199 41.1182 80.7174 40.5355 81.1696 40.839Z" fill="white"/>
<path d="M60.7711 41.0239C61.2749 41.2212 61.2992 41.7463 61.4358 42.1347C61.9168 43.4227 62.6921 44.5805 63.6999 45.5158C63.8972 45.713 64.2523 45.8921 64.0732 46.1713C63.8365 46.5416 63.5117 46.1713 63.2477 46.0863C62.8524 45.9519 62.4894 45.7368 62.1817 45.4546C61.874 45.1725 61.6282 44.8295 61.46 44.4474C61.0534 43.5703 60.4797 42.766 60.2794 41.7948C60.2916 41.4458 60.3098 41.0907 60.7711 41.0239Z" fill="white"/>
<path d="M69.3239 30.0159L70.0705 29.251C70.1802 29.2716 70.2936 29.2582 70.3956 29.2126C70.4975 29.1671 70.5831 29.0915 70.6411 28.9961C71.8156 29.5576 72.1586 30.8657 73.0994 31.6517C71.8672 31.6699 71.0781 30.3103 69.7761 30.7412C69.6061 30.5197 69.3208 30.3527 69.3239 30.0159Z" fill="white"/>
<path d="M60.4524 32.8538C59.6542 32.0525 59.5419 31.0024 59.3689 29.9341C60.4676 31.6216 61.982 32.8295 63.885 34.0314C62.671 33.9949 61.9851 33.3242 61.1353 33.2028C61.0594 32.7931 60.7559 32.8386 60.4524 32.8538Z" fill="white"/>
<path d="M63.445 38.9116C63.3721 37.8979 62.6164 37.121 62.3888 36.1225C63.1384 35.91 63.014 36.9935 63.6392 36.8235C64.0975 36.8964 64.0823 37.2424 64.0854 37.5853C64.0884 37.9283 64.0489 38.1923 64.4526 38.3016C64.4101 38.6962 65.005 38.7356 64.923 39.1514C64.6044 39.3396 64.8472 39.9739 64.2735 39.9648C63.6999 39.9557 63.709 39.4458 63.53 39.0998C63.4875 39.0391 63.4875 38.9754 63.445 38.9116Z" fill="white"/>
<path d="M75.4242 30.0889C75.8521 30.1223 76.2588 29.8279 76.705 30.3165C77.0085 30.6595 77.5608 30.2103 77.5366 29.8279C77.5189 29.6701 77.5586 29.5113 77.6483 29.3804C77.738 29.2495 77.8717 29.1551 78.0252 29.1146C78.268 29.0084 78.6322 28.7019 78.8689 28.9932C79.1057 29.2846 78.9327 29.6427 78.7081 29.9311C78.4079 30.3472 78.0072 30.6804 77.5433 30.8996C77.0794 31.1188 76.5675 31.2168 76.0555 31.1845C75.497 31.1572 75.1146 30.9387 75.233 30.274V30.2953L75.4515 30.0767L75.4242 30.0889Z" fill="white"/>
<path d="M64.7015 31.1996C63.7667 31.1329 62.9533 30.8233 62.4222 29.9856C62.234 29.6821 62.0034 29.2633 62.3676 29.0751C62.4613 29.0272 62.5639 28.9992 62.669 28.9929C62.7741 28.9865 62.8794 29.0019 62.9782 29.038C63.0771 29.0742 63.1674 29.1304 63.2436 29.2031C63.3197 29.2758 63.38 29.3635 63.4207 29.4606C63.6028 30.0918 63.5391 30.7838 64.5346 30.1556C64.7531 30.016 65.2296 30.4773 65.2994 30.8597C65.3813 31.318 64.9413 31.1268 64.7015 31.1996Z" fill="white"/>
<path d="M56.5615 18.3344C57.2899 19.3208 56.4583 19.9096 55.9758 20.5773C55.821 20.7897 55.7603 21.2237 55.4689 21.1539C55.3021 21.0987 55.1627 20.9819 55.0792 20.8273C54.9957 20.6727 54.9745 20.4921 55.0197 20.3223C55.0197 19.8762 55.3627 19.7153 55.6267 19.4331C55.821 19.2236 56.4432 18.8746 55.6965 18.5226L56.1821 18.2737L56.5615 18.3344Z" fill="white"/>
<path d="M70.8231 40.602C71.3603 40.3805 71.937 40.426 72.4984 40.3774V40.7204C71.937 41.0087 71.3391 41.1939 71.0113 41.8555C70.6835 42.5171 70.2556 42.5596 69.9278 41.7948C69.843 41.6449 69.7412 41.5054 69.6243 41.379C69.683 41.3434 69.737 41.3005 69.7851 41.2515L70.8231 40.602Z" fill="white"/>
<path d="M79.4305 32.1921C80.0588 31.485 80.8236 30.9113 81.4337 30.1526C81.3578 31.1906 81.3638 32.2346 80.2894 32.8173L79.4305 32.1921Z" fill="white"/>
<path d="M68.7078 39.3944C68.7472 39.0909 68.4225 38.8239 68.6106 38.4991C69.8762 39.2275 71.4271 39.1486 72.2102 38.314C72.4347 38.7116 72.2102 39.0545 72.0918 39.4096L72.022 39.4308H71.9522C71.8662 39.3999 71.7732 39.3941 71.684 39.414C71.5948 39.4339 71.5131 39.4787 71.4484 39.5432C70.7551 39.6463 70.0505 39.6463 69.3572 39.5432C69.2934 39.4783 69.2122 39.4332 69.1234 39.4133C69.0346 39.3933 68.9419 39.3995 68.8565 39.4308H68.7806L68.7078 39.3944Z" fill="white"/>
<path d="M57.3842 15.4509C58.8288 15.5632 59.6361 16.3948 60.8077 18.8198C59.4419 17.7727 58.847 16.3523 57.3842 15.4509Z" fill="white"/>
<path d="M86.068 19.9943C86.0164 20.3767 85.9648 20.8107 85.5763 20.9564C85.1392 21.1142 85.0877 20.5618 84.8388 20.3676C84.3926 20.0125 84.077 19.4875 83.649 18.9624C84.2712 18.9806 84.6658 19.2932 85.0725 19.5997C85.4792 19.9063 85.294 19.4935 85.3426 19.363L85.9739 19.1536C86.2045 19.3418 86.1499 19.5876 86.1013 19.8274L85.9466 19.8972L86.068 19.9943Z" fill="white"/>
<path d="M80.514 18.5223C80.9238 17.1687 81.4974 15.9334 82.9421 15.375C81.9921 16.325 81.552 17.6634 80.4928 18.5314L80.514 18.5223Z" fill="white"/>
<path d="M74.4774 41.4187C75.1419 41.1765 75.8706 41.1765 76.5351 41.4187C75.1997 42.0773 74.013 42.2412 72.7656 42.5417C73.0206 42.0561 73.409 41.9954 73.7581 41.874C74.1101 41.8922 74.2224 41.5462 74.4774 41.4187Z" fill="white"/>
<path d="M64.3646 41.5551C65.3085 41.0513 66.0491 41.2728 66.7532 41.2668C67.2084 41.2668 66.826 41.9375 67.2206 42.0832C67.0567 42.4747 66.7896 42.2774 66.5438 42.2046L64.3646 41.5551Z" fill="white"/>
<path d="M69.3238 30.0161C69.3238 30.353 69.606 30.5108 69.776 30.7384C69.1802 31.0771 68.6389 31.5038 68.1705 32.0041C68.043 32.1406 67.9368 32.5291 67.6242 32.2499C67.3692 32.0192 67.7304 31.9251 67.779 31.7552C68.0096 30.9206 68.7836 30.5746 69.3238 30.0161Z" fill="white"/>
<path d="M79.4304 32.1919L80.2893 32.8171C79.4152 33.0933 78.7233 33.8005 77.7672 33.8794V33.8945C77.7035 33.2875 78.2923 33.1297 78.611 32.9142C78.898 32.6896 79.1716 32.4485 79.4304 32.1919Z" fill="white"/>
<path d="M59.0502 22.568L58.6132 21.4663C58.7194 21.3297 58.7953 21.1294 58.9318 21.0717C59.3719 20.8836 59.8181 20.2553 60.1944 20.5285C60.5191 20.7652 59.8302 21.1355 59.724 21.5179C59.6178 21.9003 59.6026 22.4314 59.0502 22.568Z" fill="white"/>
<path d="M59.6148 43.8314C58.5617 43.2244 58.0973 42.2198 57.9243 41.0361L59.8455 43.6736L59.6148 43.8314Z" fill="white"/>
<path d="M77.7521 45.0396C78.0344 45.2611 77.9494 45.5737 77.9646 45.862C77.394 46.1261 76.8841 46.5662 76.1436 46.5692C76.4137 45.6951 77.1239 45.3916 77.7521 45.0396Z" fill="white"/>
<path d="M67.2479 19.8001C67.0892 20.4856 67.0138 21.1877 67.0233 21.8913C66.562 21.6849 66.65 21.2995 66.5802 20.9808C66.7775 20.1917 66.2494 19.8032 65.694 19.4359C66.3253 19.1294 66.7137 19.7637 67.2479 19.8001Z" fill="white"/>
<path d="M63.4451 38.9119C63.4724 38.9756 63.4967 39.0393 63.5301 39.1C63.7091 39.446 63.697 39.9589 64.2736 39.965C64.8503 39.9711 64.6045 39.3398 64.9231 39.1516C64.8594 39.5644 65.515 40.1228 64.8564 40.3656C64.0642 40.654 63.4663 40.1532 63.0839 39.4551C62.8988 39.1304 63.0839 38.9422 63.4451 38.9119Z" fill="white"/>
<path d="M63.454 19.8093C63.454 20.1614 63.5238 20.562 63.0079 20.6379C62.4582 20.5663 61.8996 20.6516 61.3963 20.8837L61.2688 20.738C61.5542 20.4473 61.8941 20.2157 62.269 20.0563C62.644 19.897 63.0466 19.813 63.454 19.8093Z" fill="white"/>
<path d="M60.7711 41.024C60.3098 41.0908 60.2916 41.4428 60.2794 41.7949C59.6724 41.2334 59.6026 40.4382 59.3993 39.6855C59.9424 40.0342 60.4091 40.4896 60.7711 41.024Z" fill="white"/>
<path d="M82.4564 34.8964C82.7083 34.1164 82.9572 33.3364 83.2091 32.5564C83.5187 33.5215 83.1757 34.2742 82.4564 34.8964Z" fill="white"/>
<path d="M82.6082 23.7337C82.6749 22.7382 83.4094 23.1783 83.9132 23.1267L84.2896 23.157C83.8222 23.6123 83.5187 24.5349 82.6082 23.7337Z" fill="white"/>
<path d="M62.1431 21.2266C62.2976 21.3067 62.4567 21.3777 62.6196 21.439C62.9413 21.5361 63.1264 21.7425 62.9747 22.046C62.7713 22.4527 62.5983 21.9246 62.3677 21.9732C62.2311 22.0035 61.9974 21.6333 61.9731 22.0855H61.1506C61.2506 21.8835 61.3899 21.7034 61.5603 21.556C61.7307 21.4085 61.9288 21.2965 62.1431 21.2266Z" fill="white"/>
<path d="M85.9738 19.1537L85.3426 19.3632L84.3501 18.3464C85.0057 18.4436 85.7553 18.313 85.9738 19.1537Z" fill="white"/>
<path d="M58.1974 35.0723C57.9395 34.5229 57.6875 33.9675 57.4205 33.4182C57.3325 33.2331 57.3446 33.0692 57.5328 32.9963C57.5717 32.976 57.615 32.9653 57.6589 32.9651C57.7028 32.9649 57.7462 32.9751 57.7854 32.995C57.8245 33.0149 57.8584 33.0438 57.8841 33.0794C57.9099 33.115 57.9268 33.1562 57.9334 33.1997C58.0396 33.8309 58.4463 34.3955 58.1974 35.0723Z" fill="white"/>
<path d="M74.2011 20.4192C73.9078 20.4603 73.6092 20.4004 73.3544 20.2493C73.9614 19.8638 74.3559 19.0777 75.3969 19.1931C74.9258 19.5241 74.5203 19.9399 74.2011 20.4192Z" fill="white"/>
<path d="M77.9827 21.6668C78.3711 21.2571 78.7232 20.5742 79.2999 21.4787L79.6034 21.2571C79.6034 21.5606 79.9585 21.764 79.8644 22.1009L77.9827 21.6668Z" fill="white"/>
<path d="M55.6875 18.5254C56.4341 18.8744 55.8119 19.2234 55.6177 19.4359C55.3627 19.709 55.0107 19.879 55.0107 20.3252C54.4158 19.4177 54.9894 18.9503 55.6875 18.5254Z" fill="white"/>
<path d="M82.9116 41.552C82.7416 42.3108 82.5079 43.0118 81.5125 43.4064C81.8106 42.6777 82.2927 42.0387 82.9116 41.552Z" fill="white"/>
<path d="M81.1695 40.839C80.7173 40.5355 80.4198 41.1091 80.0071 41.0453C80.2711 40.2957 81.0663 40.0802 81.5246 39.5278C81.5719 39.5753 81.6237 39.618 81.6794 39.6553C81.5125 40.062 81.3425 40.4535 81.1695 40.839Z" fill="white"/>
<path d="M61.3235 23.6606C61.3214 23.8018 61.3729 23.9384 61.4675 24.0431C61.562 24.1479 61.6928 24.2129 61.8334 24.2252C61.6448 24.4622 61.4821 24.7185 61.3478 24.99C61.2719 25.1933 61.19 25.4392 61.0018 25.3936C60.9426 25.3778 60.8877 25.3492 60.8409 25.3097C60.7941 25.2702 60.7566 25.2208 60.731 25.1652C60.7055 25.1095 60.6926 25.0489 60.6933 24.9876C60.6939 24.9264 60.708 24.8661 60.7347 24.8109C60.932 24.4285 60.9198 23.9338 61.3235 23.6606Z" fill="white"/>
<path d="M69.6121 41.3791L68.2949 40.5931C68.8382 40.2896 69.3056 40.4808 69.7608 40.5111V41.2516C69.7165 41.2999 69.6666 41.3427 69.6121 41.3791Z" fill="white"/>
<path d="M65.5481 29.6094C65.8301 29.6966 66.1169 29.7675 66.407 29.8218C66.5467 29.8431 66.747 29.6063 66.8228 29.8613C66.8593 29.9857 66.7348 30.1648 66.6498 30.3135C66.6302 30.3521 66.6026 30.3861 66.5688 30.4131C66.535 30.4402 66.4958 30.4596 66.4538 30.4703C66.4118 30.4809 66.3681 30.4825 66.3254 30.4748C66.2828 30.4671 66.2424 30.4504 66.2067 30.4258C65.9396 30.2224 65.6969 29.9857 65.4449 29.7611L65.5481 29.6094Z" fill="#202251"/>
<path d="M75.2331 30.2799C74.9478 30.0705 74.8294 30.4438 74.6079 30.462C74.5568 30.4688 74.5049 30.4649 74.4555 30.4505C74.4061 30.4361 74.3602 30.4115 74.3208 30.3784C74.2813 30.3453 74.2493 30.3043 74.2266 30.2581C74.2039 30.2118 74.1911 30.1614 74.189 30.1099C74.1344 29.8064 74.2922 29.855 74.535 29.8338C74.8898 29.7545 75.2327 29.629 75.5548 29.4604C75.7217 29.7397 75.2118 29.8307 75.4243 30.0887H75.4455C75.2149 30.0037 75.142 30.0735 75.227 30.3072L75.2331 30.2799Z" fill="#202251"/>
<path d="M74.4773 41.4186C74.2224 41.5461 74.104 41.892 73.758 41.8799C73.5304 41.3154 72.8839 41.9436 72.5743 41.3913C73.2329 41.2365 73.843 41.0331 74.4773 41.4186Z" fill="white"/>
<path d="M66.6104 17.7C66.3494 18.049 66.4708 18.401 66.6104 18.7531C66.1778 18.5597 65.7059 18.4703 65.2325 18.4921C65.6119 17.967 66.1279 17.8699 66.6104 17.7Z" fill="white"/>
<path d="M77.752 37.6672C77.4485 37.3789 77.6003 37.0086 77.5669 36.6687L78.3924 36.2043C78.4318 36.8629 78.0555 37.2545 77.752 37.6672Z" fill="white"/>
<path d="M75.0206 20.6074C74.9455 20.9043 74.8491 21.1954 74.7322 21.4784C74.7066 21.5243 74.6716 21.5642 74.6294 21.5957C74.5873 21.6271 74.539 21.6492 74.4877 21.6607C74.4365 21.6721 74.3833 21.6726 74.3319 21.6621C74.2804 21.6517 74.2317 21.6304 74.189 21.5998C73.9006 21.4208 74.0038 21.2053 74.2193 21.0232C74.6199 21.1294 74.6806 20.5952 75.0206 20.6074Z" fill="white"/>
<path d="M64.4525 38.3015C64.0489 38.2044 64.0883 37.8827 64.0853 37.5852C64.0823 37.2878 64.0853 36.8963 63.6392 36.8234C63.6879 36.6906 63.7646 36.5699 63.8641 36.4693C63.9636 36.3688 64.0835 36.2908 64.2158 36.2407C64.2583 36.696 64.3038 37.1512 64.3463 37.6065L64.4525 38.3015Z" fill="white"/>
<path d="M69.7731 41.2516V40.5111C70.129 40.4467 70.4956 40.4781 70.8353 40.6021L69.7731 41.2516Z" fill="white"/>
<path d="M70.6409 29.0021C70.583 29.0975 70.4973 29.173 70.3954 29.2186C70.2934 29.2641 70.1801 29.2775 70.0703 29.257L70.5225 28.2676L70.6409 29.0021Z" fill="white"/>
<path d="M83.464 30.8901C83.5915 31.1205 83.6527 31.3816 83.6409 31.6447C83.6291 31.9077 83.5448 32.1623 83.3972 32.3803L83.464 30.8901Z" fill="white"/>
<path d="M72.4954 40.7204V40.3774C72.7321 40.3198 73.0811 40.0071 73.1509 40.4412C73.1995 40.7022 72.7442 40.6688 72.4954 40.7204Z" fill="white"/>
<path d="M64.3464 37.6065C64.304 37.1512 64.2584 36.696 64.2159 36.2407L64.4496 36.4046L64.3464 37.6065Z" fill="white"/>
<path d="M67.6636 17.4695C67.5331 17.946 67.3055 17.9612 67.002 17.6091C67.1841 17.3936 67.4329 17.4695 67.6636 17.4695Z" fill="white"/>
<path d="M89.2639 29.6763C89.3549 29.9512 89.3549 30.2481 89.2639 30.523C89.2038 30.39 89.1727 30.2456 89.1727 30.0997C89.1727 29.9537 89.2038 29.8093 89.2639 29.6763Z" fill="#202251"/>
<path d="M56.5616 18.3342L56.1731 18.2765C56.2338 18.0216 56.3704 17.7788 56.6526 17.9245C56.9349 18.0702 56.7922 18.2401 56.5616 18.3342Z" fill="white"/>
<path d="M60.4525 32.8537C60.756 32.8385 61.0595 32.793 61.1354 33.2027C60.9994 33.2227 60.8606 33.1998 60.7382 33.1373C60.6158 33.0747 60.516 32.9756 60.4525 32.8537Z" fill="white"/>
<path d="M68.5195 17.6513C68.216 17.9548 68.1462 17.7545 68.0885 17.4783C68.2676 17.451 68.4345 17.451 68.5195 17.6513Z" fill="white"/>
<path d="M64.4617 36.4078L64.228 36.2439C64.3039 36.0588 64.4253 35.9617 64.6135 36.0861C64.5723 36.1975 64.5215 36.3052 64.4617 36.4078Z" fill="white"/>
<path d="M66.5923 18.7439C66.6457 18.7357 66.7003 18.739 66.7523 18.7535C66.8044 18.7681 66.8527 18.7937 66.8941 18.8284C66.9355 18.8632 66.9689 18.9064 66.9923 18.9552C67.0156 19.0039 67.0282 19.0571 67.0293 19.1112L66.5923 18.7439Z" fill="white"/>
<path d="M68.8564 39.4185C68.9419 39.3871 69.0346 39.381 69.1234 39.4009C69.2122 39.4208 69.2934 39.4659 69.3572 39.5308C69.2712 39.5577 69.1797 39.5615 69.0918 39.5417C69.0039 39.522 68.9227 39.4795 68.8564 39.4185Z" fill="#202251"/>
<path d="M71.4484 39.5336C71.5131 39.4691 71.5948 39.4243 71.684 39.4044C71.7732 39.3845 71.8662 39.3904 71.9522 39.4213C71.8841 39.4803 71.8024 39.5215 71.7145 39.5411C71.6265 39.5607 71.5351 39.5581 71.4484 39.5336Z" fill="#202251"/>
<path d="M60.3067 44.1772C60.4615 44.2228 60.5768 44.3594 60.4676 44.4656C60.3098 44.6204 60.2855 44.3867 60.2126 44.3047L60.3067 44.1772Z" fill="white"/>
<path d="M61.3963 20.8835C61.3083 21.0201 61.1383 21.0929 61.0594 20.9776C60.9532 20.8167 61.193 20.8197 61.2688 20.7378L61.3963 20.8835Z" fill="white"/>
<path d="M59.9911 43.8162L60.2946 44.1895L60.2005 44.3169L59.8333 44.0134L59.9911 43.8162Z" fill="white"/>
<path d="M86.0679 19.9944L85.9465 19.8973L86.1013 19.8396C86.1096 19.8661 86.1108 19.8943 86.105 19.9214C86.0991 19.9485 86.0864 19.9737 86.0679 19.9944Z" fill="white"/>
<path d="M59.8455 43.6736C59.9034 43.7106 59.953 43.7592 59.9912 43.8162L59.8455 44.0226L59.6149 43.8314L59.8455 43.6736Z" fill="white"/>
<path d="M77.7673 33.8796L77.7249 33.9343L77.7795 33.8948L77.7673 33.8796Z" fill="#2B7DDD"/>
<path d="M80.5042 18.5311L80.4775 18.5459L80.5131 18.5222L80.5042 18.5311Z" fill="#2B7DDD"/>
<path d="M79.8766 22.1008L80.0192 22.2009C79.8857 22.2707 79.8584 22.2009 79.8918 22.0886L79.8766 22.1008Z" fill="white"/>
<path d="M84.2957 23.1568C84.3041 23.1309 84.3164 23.1063 84.3321 23.084C84.3321 23.084 84.3685 23.084 84.3868 23.084L84.2836 23.1477L84.2957 23.1568Z" fill="#2B7DDD"/>
<path d="M62.0063 24.0887C62.0215 23.9855 62.0397 23.8823 62.1854 23.9642L62.0063 24.0887Z" fill="white"/>
<path d="M81.5277 39.5399L81.7068 39.4307C81.7068 39.5096 81.7068 39.5885 81.6825 39.6674C81.6268 39.6301 81.575 39.5874 81.5277 39.5399Z" fill="white"/>
<path d="M65.3449 22.3071C65.3813 22.6835 65.3085 23.072 65.4936 23.4362C65.8396 24.1069 66.2342 24.1372 66.6652 23.506C66.9171 23.1357 66.9171 23.1357 67.5757 22.8079C67.4482 23.7609 67.3025 24.6896 67.6667 25.591C67.8579 26.0706 67.6121 26.1525 67.2145 26.0432C66.3969 25.8388 65.6488 25.4197 65.0475 24.8292C64.2857 24.0523 64.395 23.3117 65.351 22.3102L65.3449 22.3071Z" fill="#202251"/>
<path d="M67.9944 18.5829C68.8563 18.3917 69.2357 18.8135 69.4512 19.4236C69.7547 20.2491 69.3359 20.8227 68.7015 21.3508C68.7015 20.8409 68.7015 20.3887 68.7015 19.9365C68.6742 19.4175 68.2797 19.0715 67.9944 18.5829Z" fill="#202251"/>
<path d="M65.3541 22.3253L65.3935 22.2524L65.345 22.3192L65.3541 22.3253Z" fill="#58A2FD"/>
<path d="M75.0964 24.5713C74.7201 25.1996 74.4469 25.8642 73.6396 25.6579C72.8869 25.4636 72.6411 24.7959 72.547 24.1403C72.4651 23.5333 72.3588 22.8838 72.7413 22.3193C73.0205 22.377 72.975 22.6501 73.1024 22.7989C73.3847 23.1327 73.4939 23.764 74.0129 23.7094C74.5896 23.6456 74.7747 23.0629 74.9234 22.55C74.9993 22.295 75.0813 22.0431 75.1662 21.7639C76.6139 22.9263 76.7232 24.9052 75.409 26.0585C75.0995 25.6214 75.4212 25.0357 75.0964 24.5713Z" fill="#202251"/>
<path d="M72.7169 20.6229C72.0432 20.5409 71.9127 20.0159 71.8944 19.4939C71.8671 18.8292 72.3345 18.553 73.0811 18.3345C72.5257 19.1205 72.3072 19.852 72.7139 20.6259L72.7169 20.6229Z" fill="#202251"/>
<path d="M72.714 20.6258L72.7899 20.6714L72.717 20.6228L72.714 20.6258Z" fill="#58A2FD"/>
<path d="M75.227 30.3012C75.139 30.0675 75.227 29.9977 75.4455 30.0827L75.227 30.3012Z" fill="#220334"/>
</g>
<path d="M106.767 24.0741C108.914 24.0741 110.555 24.465 111.693 25.2469C112.844 26.0287 113.42 27.2512 113.42 28.9144C113.42 29.7815 113.263 30.5278 112.951 31.1532C112.652 31.7645 112.211 32.2691 111.629 32.6672C111.046 33.051 110.335 33.3353 109.496 33.5201C108.658 33.7049 107.698 33.7973 106.618 33.7973H105.274V39H102.588V24.4366C103.213 24.2944 103.903 24.202 104.656 24.1594C105.424 24.1025 106.127 24.0741 106.767 24.0741ZM106.959 26.3983C106.277 26.3983 105.715 26.4196 105.274 26.4623V31.4944H106.575C107.869 31.4944 108.864 31.3167 109.56 30.9613C110.257 30.5917 110.605 29.9023 110.605 28.893C110.605 28.4097 110.513 28.0046 110.328 27.6776C110.143 27.3507 109.887 27.0948 109.56 26.91C109.233 26.7252 108.842 26.5973 108.388 26.5262C107.947 26.4409 107.471 26.3983 106.959 26.3983ZM119.314 37.1876C120.11 37.1876 120.714 37.1449 121.127 37.0596V34.2024C120.985 34.1597 120.778 34.1171 120.508 34.0745C120.238 34.0318 119.94 34.0105 119.613 34.0105C119.328 34.0105 119.037 34.0318 118.739 34.0745C118.454 34.1171 118.191 34.1953 117.95 34.309C117.722 34.4227 117.537 34.5862 117.395 34.7994C117.253 34.9984 117.182 35.2543 117.182 35.567C117.182 36.1783 117.374 36.6048 117.758 36.8464C118.142 37.0738 118.66 37.1876 119.314 37.1876ZM119.101 27.571C119.954 27.571 120.672 27.6776 121.255 27.8909C121.837 28.1041 122.299 28.4026 122.641 28.7864C122.996 29.1702 123.245 29.6393 123.387 30.1937C123.543 30.7339 123.621 31.3309 123.621 31.9848V38.7441C123.223 38.8294 122.619 38.9289 121.809 39.0426C121.013 39.1706 120.11 39.2345 119.101 39.2345C118.433 39.2345 117.822 39.1706 117.267 39.0426C116.713 38.9147 116.237 38.7086 115.839 38.4243C115.455 38.14 115.149 37.7704 114.922 37.3155C114.709 36.8606 114.602 36.2991 114.602 35.631C114.602 34.9913 114.723 34.4512 114.964 34.0105C115.22 33.5698 115.561 33.2144 115.988 32.9444C116.414 32.6601 116.905 32.461 117.459 32.3473C118.028 32.2194 118.618 32.1554 119.229 32.1554C119.513 32.1554 119.812 32.1767 120.125 32.2194C120.437 32.2478 120.771 32.3047 121.127 32.39V31.9635C121.127 31.665 121.091 31.3807 121.02 31.1106C120.949 30.8405 120.821 30.606 120.636 30.407C120.466 30.1937 120.231 30.0303 119.933 29.9165C119.648 29.8028 119.286 29.7459 118.845 29.7459C118.248 29.7459 117.701 29.7886 117.203 29.8739C116.706 29.9592 116.301 30.0587 115.988 30.1724L115.668 28.0828C115.995 27.9691 116.471 27.8553 117.097 27.7416C117.722 27.6279 118.39 27.571 119.101 27.571ZM126.781 28.2107C127.279 28.0686 127.925 27.9335 128.721 27.8056C129.517 27.6776 130.399 27.6137 131.365 27.6137C132.275 27.6137 133.036 27.7416 133.647 27.9975C134.258 28.2391 134.742 28.5874 135.097 29.0423C135.466 29.483 135.722 30.0231 135.865 30.6628C136.021 31.2883 136.099 31.9777 136.099 32.7311V39H133.519V33.1363C133.519 32.5392 133.476 32.0346 133.391 31.6223C133.32 31.1959 133.192 30.8547 133.007 30.5989C132.837 30.3288 132.595 30.1369 132.282 30.0231C131.984 29.8952 131.614 29.8312 131.174 29.8312C130.847 29.8312 130.505 29.8526 130.15 29.8952C129.795 29.9379 129.532 29.9734 129.361 30.0018V39H126.781V28.2107ZM139.126 24.9057L141.706 24.4792V27.8482H145.672V30.0018H141.706V34.5436C141.706 35.4391 141.848 36.0788 142.133 36.4626C142.417 36.8464 142.9 37.0383 143.582 37.0383C144.052 37.0383 144.464 36.9886 144.819 36.8891C145.189 36.7895 145.48 36.6971 145.693 36.6119L146.12 38.6588C145.821 38.7868 145.43 38.9147 144.947 39.0426C144.464 39.1848 143.895 39.2559 143.241 39.2559C142.445 39.2559 141.777 39.1493 141.237 38.936C140.711 38.7228 140.292 38.4172 139.979 38.0192C139.666 37.6069 139.446 37.1165 139.318 36.5479C139.19 35.9651 139.126 35.3041 139.126 34.5649V24.9057ZM148.166 39V22.88L150.746 22.4536V27.9762C151.031 27.8767 151.358 27.7914 151.727 27.7203C152.111 27.6492 152.488 27.6137 152.857 27.6137C153.753 27.6137 154.492 27.7416 155.075 27.9975C155.672 28.2391 156.148 28.5874 156.503 29.0423C156.859 29.483 157.108 30.016 157.25 30.6415C157.406 31.267 157.484 31.9635 157.484 32.7311V39H154.904V33.1363C154.904 32.5392 154.862 32.0346 154.776 31.6223C154.705 31.1959 154.577 30.8547 154.392 30.5989C154.222 30.3288 153.987 30.1369 153.689 30.0231C153.39 29.8952 153.021 29.8312 152.58 29.8312C152.239 29.8312 151.891 29.8668 151.535 29.9379C151.18 30.0089 150.917 30.0729 150.746 30.1298V39H148.166ZM159.958 33.4774C159.958 32.4966 160.1 31.6366 160.385 30.8974C160.683 30.1582 161.074 29.5469 161.558 29.0636C162.041 28.5661 162.595 28.1965 163.221 27.9548C163.846 27.699 164.486 27.571 165.14 27.571C166.675 27.571 167.869 28.0472 168.722 28.9997C169.589 29.9521 170.023 31.3736 170.023 33.2642C170.023 33.4063 170.016 33.5698 170.001 33.7546C170.001 33.9252 169.994 34.0816 169.98 34.2237H162.624C162.695 35.1193 163.007 35.8158 163.562 36.3133C164.13 36.7967 164.948 37.0383 166.014 37.0383C166.639 37.0383 167.208 36.9815 167.72 36.8677C168.246 36.754 168.658 36.6332 168.957 36.5052L169.298 38.6162C169.156 38.6873 168.957 38.7655 168.701 38.8507C168.459 38.9218 168.175 38.9858 167.848 39.0426C167.535 39.1137 167.194 39.1706 166.824 39.2132C166.455 39.2559 166.078 39.2772 165.694 39.2772C164.713 39.2772 163.86 39.135 163.135 38.8507C162.41 38.5522 161.813 38.1471 161.344 37.6353C160.875 37.1094 160.527 36.4981 160.299 35.8016C160.072 35.0908 159.958 34.3161 159.958 33.4774ZM167.443 32.326C167.443 31.9706 167.393 31.6366 167.293 31.3238C167.194 30.9969 167.045 30.7197 166.846 30.4922C166.661 30.2506 166.426 30.0658 166.142 29.9379C165.872 29.7957 165.545 29.7246 165.161 29.7246C164.763 29.7246 164.415 29.8028 164.116 29.9592C163.818 30.1013 163.562 30.2932 163.349 30.5349C163.15 30.7765 162.993 31.0537 162.88 31.3665C162.766 31.6792 162.688 31.999 162.645 32.326H167.443ZM179.112 30.1724C178.899 30.1013 178.601 30.0303 178.217 29.9592C177.847 29.8739 177.414 29.8312 176.916 29.8312C176.632 29.8312 176.326 29.8597 175.999 29.9165C175.686 29.9734 175.466 30.0231 175.338 30.0658V39H172.758V28.3813C173.256 28.1965 173.874 28.0259 174.613 27.8696C175.367 27.699 176.198 27.6137 177.108 27.6137C177.279 27.6137 177.478 27.6279 177.705 27.6563C177.932 27.6705 178.16 27.699 178.387 27.7416C178.615 27.77 178.835 27.8127 179.048 27.8696C179.262 27.9122 179.432 27.9548 179.56 27.9975L179.112 30.1724ZM190.045 36.9957C191.011 36.9957 191.715 36.8322 192.156 36.5052C192.596 36.1783 192.817 35.7163 192.817 35.1193C192.817 34.7639 192.739 34.4583 192.582 34.2024C192.44 33.9465 192.227 33.7191 191.943 33.5201C191.672 33.3068 191.338 33.1149 190.94 32.9444C190.542 32.7596 190.087 32.5819 189.576 32.4113C189.064 32.2265 188.566 32.0275 188.083 31.8143C187.614 31.5868 187.195 31.3096 186.825 30.9827C186.47 30.6557 186.178 30.2648 185.951 29.8099C185.738 29.355 185.631 28.8078 185.631 28.1681C185.631 26.8318 186.093 25.787 187.017 25.0336C187.941 24.266 189.199 23.8822 190.791 23.8822C191.715 23.8822 192.532 23.9888 193.243 24.202C193.968 24.4011 194.537 24.6214 194.949 24.8631L194.117 27.038C193.634 26.7679 193.101 26.5618 192.518 26.4196C191.95 26.2775 191.36 26.2064 190.748 26.2064C190.023 26.2064 189.455 26.3556 189.043 26.6542C188.645 26.9527 188.446 27.372 188.446 27.9122C188.446 28.2391 188.51 28.5234 188.638 28.7651C188.78 28.9925 188.972 29.1987 189.213 29.3835C189.469 29.5683 189.761 29.7388 190.087 29.8952C190.429 30.0516 190.798 30.2008 191.196 30.343C191.893 30.5989 192.511 30.8618 193.051 31.1319C193.606 31.3878 194.068 31.7005 194.437 32.0701C194.821 32.4255 195.113 32.852 195.312 33.3495C195.511 33.8328 195.61 34.4227 195.61 35.1193C195.61 36.4555 195.134 37.4932 194.181 38.2324C193.243 38.9574 191.864 39.3198 190.045 39.3198C189.434 39.3198 188.872 39.2772 188.36 39.1919C187.863 39.1208 187.415 39.0284 187.017 38.9147C186.633 38.801 186.299 38.6873 186.015 38.5735C185.731 38.4456 185.503 38.3319 185.332 38.2324L186.121 36.0361C186.505 36.2494 187.024 36.4626 187.678 36.6758C188.332 36.8891 189.121 36.9957 190.045 36.9957ZM204.502 31.9848C204.175 33.2358 203.82 34.4583 203.436 35.6523C203.067 36.8322 202.697 37.9481 202.328 39H200.217C199.932 38.3461 199.634 37.5998 199.321 36.7611C199.008 35.9224 198.696 35.0269 198.383 34.0745C198.07 33.122 197.757 32.1199 197.445 31.068C197.132 30.016 196.826 28.9428 196.528 27.8482H199.257C199.385 28.4453 199.534 29.0921 199.705 29.7886C199.875 30.4709 200.053 31.1746 200.238 31.8995C200.423 32.6103 200.615 33.3068 200.814 33.9892C201.013 34.6715 201.212 35.297 201.411 35.8656C201.624 35.2117 201.83 34.5364 202.029 33.8399C202.242 33.1434 202.441 32.4468 202.626 31.7503C202.811 31.0537 202.981 30.3785 203.138 29.7246C203.308 29.0565 203.458 28.431 203.586 27.8482H205.569C205.697 28.431 205.839 29.0565 205.995 29.7246C206.151 30.3785 206.315 31.0537 206.485 31.7503C206.67 32.4468 206.862 33.1434 207.061 33.8399C207.274 34.5364 207.488 35.2117 207.701 35.8656C207.886 35.297 208.078 34.6715 208.277 33.9892C208.476 33.3068 208.667 32.6103 208.852 31.8995C209.051 31.1746 209.236 30.4709 209.407 29.7886C209.577 29.0921 209.726 28.4453 209.854 27.8482H212.52C212.221 28.9428 211.916 30.016 211.603 31.068C211.29 32.1199 210.977 33.122 210.665 34.0745C210.352 35.0269 210.039 35.9224 209.726 36.7611C209.414 37.5998 209.108 38.3461 208.81 39H206.72C206.35 37.9481 205.967 36.8322 205.569 35.6523C205.185 34.4583 204.829 33.2358 204.502 31.9848ZM218.411 37.1876C219.207 37.1876 219.811 37.1449 220.223 37.0596V34.2024C220.081 34.1597 219.875 34.1171 219.605 34.0745C219.335 34.0318 219.036 34.0105 218.709 34.0105C218.425 34.0105 218.133 34.0318 217.835 34.0745C217.551 34.1171 217.288 34.1953 217.046 34.309C216.819 34.4227 216.634 34.5862 216.492 34.7994C216.349 34.9984 216.278 35.2543 216.278 35.567C216.278 36.1783 216.47 36.6048 216.854 36.8464C217.238 37.0738 217.757 37.1876 218.411 37.1876ZM218.197 27.571C219.05 27.571 219.768 27.6776 220.351 27.8909C220.934 28.1041 221.396 28.4026 221.737 28.7864C222.092 29.1702 222.341 29.6393 222.483 30.1937C222.64 30.7339 222.718 31.3309 222.718 31.9848V38.7441C222.32 38.8294 221.716 38.9289 220.905 39.0426C220.109 39.1706 219.207 39.2345 218.197 39.2345C217.529 39.2345 216.918 39.1706 216.364 39.0426C215.809 38.9147 215.333 38.7086 214.935 38.4243C214.551 38.14 214.246 37.7704 214.018 37.3155C213.805 36.8606 213.698 36.2991 213.698 35.631C213.698 34.9913 213.819 34.4512 214.061 34.0105C214.317 33.5698 214.658 33.2144 215.084 32.9444C215.511 32.6601 216.001 32.461 216.556 32.3473C217.124 32.2194 217.714 32.1554 218.325 32.1554C218.61 32.1554 218.908 32.1767 219.221 32.2194C219.534 32.2478 219.868 32.3047 220.223 32.39V31.9635C220.223 31.665 220.188 31.3807 220.116 31.1106C220.045 30.8405 219.917 30.606 219.733 30.407C219.562 30.1937 219.328 30.0303 219.029 29.9165C218.745 29.8028 218.382 29.7459 217.942 29.7459C217.345 29.7459 216.797 29.7886 216.3 29.8739C215.802 29.9592 215.397 30.0587 215.084 30.1724L214.764 28.0828C215.091 27.9691 215.568 27.8553 216.193 27.7416C216.819 27.6279 217.487 27.571 218.197 27.571ZM233.276 33.4774C233.276 32.326 233.013 31.4304 232.487 30.7908C231.976 30.1511 231.144 29.8312 229.993 29.8312C229.751 29.8312 229.495 29.8455 229.225 29.8739C228.969 29.8881 228.713 29.9307 228.457 30.0018V36.3773C228.685 36.5337 228.983 36.6829 229.353 36.8251C229.737 36.953 230.142 37.017 230.568 37.017C231.507 37.017 232.189 36.6971 232.615 36.0575C233.056 35.4178 233.276 34.5578 233.276 33.4774ZM235.92 33.4348C235.92 34.2877 235.807 35.0695 235.579 35.7803C235.366 36.491 235.053 37.1023 234.641 37.614C234.229 38.1258 233.71 38.5238 233.085 38.8081C232.473 39.0924 231.777 39.2345 230.995 39.2345C230.469 39.2345 229.986 39.1706 229.545 39.0426C229.104 38.9147 228.742 38.7726 228.457 38.6162V42.9447H225.877V28.2107C226.403 28.0686 227.05 27.9335 227.818 27.8056C228.585 27.6776 229.396 27.6137 230.249 27.6137C231.13 27.6137 231.919 27.7487 232.615 28.0188C233.312 28.2889 233.902 28.6798 234.385 29.1916C234.883 29.6891 235.259 30.3003 235.515 31.0253C235.785 31.7361 235.92 32.5392 235.92 33.4348Z" fill="white"/>
<defs>
<clipPath id="clip0">
<rect width="40.818" height="41.7345" fill="white" transform="translate(50 10)"/>
</clipPath>
</defs>
</svg>
