<svg width="46" height="64" viewBox="0 0 46 64" fill="none" xmlns="http://www.w3.org/2000/svg">
<path d="M44.2768 49.6477C43.0203 54.5297 38.619 58.6226 32.6174 60.8081V42.1189C32.6174 31.6852 38.0542 23.2275 45.0088 23.2275L44.6037 47.1204C44.5941 47.9727 44.4844 48.821 44.2768 49.6477Z" fill="white"/>
<path d="M0.731955 49.6477C1.9896 54.5297 6.39084 58.6226 12.3924 60.8081V42.1189C12.3924 31.6852 6.95567 23.2275 0 23.2275L0.406172 47.1204C0.415435 47.9727 0.524778 48.8209 0.731955 49.6477Z" fill="white"/>
<path d="M22.6219 37.1353C22.6219 37.1353 29.3046 45.5908 29.3046 53.7723C29.3046 61.0102 22.6219 63.5046 22.6219 63.5046H22.6134C22.6134 63.5046 15.9296 61.0102 15.9296 53.7723C15.9296 45.5908 22.6123 37.1353 22.6123 37.1353" fill="white"/>
<g clip-path="url(#clip0)">
<path d="M23.1177 23.7417L26.8748 17.2506" stroke="white" stroke-width="2" stroke-linecap="round" stroke-linejoin="round"/>
<path d="M20.3837 13.4937L21.0098 12.4118C22.0063 10.6903 23.6458 9.43506 25.5677 8.92234C27.4896 8.40961 29.5365 8.68136 31.258 9.67781C32.9796 10.6743 34.2348 12.3138 34.7475 14.2357C35.2602 16.1576 34.9885 18.2044 33.992 19.926L33.3658 21.0078" stroke="white" stroke-width="2" stroke-linecap="round" stroke-linejoin="round"/>
<path d="M29.6087 27.4989L28.9826 28.5807C27.9861 30.3023 26.3466 31.5575 24.4247 32.0702C22.5028 32.5829 20.4559 32.3112 18.7344 31.3147C17.0128 30.3183 15.7576 28.6788 15.2449 26.7568C14.7322 24.8349 15.0039 22.7881 16.0004 21.0665L16.6266 19.9847" stroke="white" stroke-width="2" stroke-linecap="round" stroke-linejoin="round"/>
</g>
<defs>
<clipPath id="clip0">
<rect width="30" height="30" fill="white" transform="translate(4.49988 25.9644) rotate(-59.9374)"/>
</clipPath>
</defs>
</svg>
