<svg width="250" height="56" viewBox="0 0 250 56" fill="none" xmlns="http://www.w3.org/2000/svg">
<g clip-path="url(#clip0)">
<path d="M97.8049 18.467C99.3386 19.3941 100.636 20.6689 101.462 22.4073C102.406 24.1456 102.878 26.2316 102.878 28.5495C102.878 30.8671 102.406 32.8373 101.344 34.5756C100.4 36.3141 98.9846 37.5888 97.2151 38.4001C95.4453 39.3271 93.3215 39.7907 91.0801 39.7907C89.7822 39.7907 88.6023 39.559 87.4226 39.0954C86.2427 38.7477 85.1809 38.0524 84.3552 37.2411V49.2936H77.5122V17.5399H83.4114L84.0012 20.0895C86.5967 18.0035 89.4282 16.9604 92.3777 16.9604C94.3835 16.9604 96.2712 17.424 97.8049 18.467ZM94.0295 32.8373C95.2092 31.7944 95.7993 30.4037 95.7993 28.6652C95.7993 26.9269 95.2092 25.5363 94.1475 24.3774C93.0857 23.2185 91.6699 22.7549 90.1362 22.7549C88.8384 22.7549 87.6584 22.9867 86.7146 23.5662C85.771 24.0297 85.063 24.8409 84.4731 25.884V31.0991C84.8271 32.142 85.5349 32.9533 86.3608 33.5326C87.3047 34.1122 88.3664 34.4599 89.6643 34.4599C91.4338 34.4599 92.8496 33.8803 94.0295 32.8373Z" fill="white"/>
<path d="M106.889 22.5201C107.951 20.8976 109.367 19.5069 111.255 18.5798C113.142 17.6527 115.266 17.0732 117.626 17.0732C119.985 17.0732 122.109 17.5368 123.997 18.5798C125.766 19.5069 127.182 20.8976 128.244 22.6359C129.306 24.3743 129.778 26.2285 129.778 28.4304C129.778 30.6323 129.306 32.4866 128.244 34.2249C127.182 35.9632 125.884 37.354 123.997 38.281C122.227 39.208 119.985 39.7876 117.626 39.7876C115.266 39.7876 113.142 39.324 111.255 38.397C109.367 37.4697 107.951 36.1951 106.889 34.4566C105.946 32.7183 105.356 30.7483 105.356 28.4304C105.356 26.2285 105.946 24.2584 106.889 22.5201ZM113.85 32.6026C114.794 33.7612 116.092 34.2249 117.626 34.2249C119.159 34.2249 120.457 33.6455 121.401 32.6026C122.345 31.5593 122.817 30.0528 122.817 28.4304C122.817 26.6922 122.345 25.3014 121.401 24.2584C120.339 23.0995 119.159 22.5201 117.508 22.5201C115.974 22.5201 114.794 23.0995 113.732 24.1425C112.789 25.3014 112.317 26.6922 112.317 28.4304C112.317 30.0528 112.789 31.4436 113.85 32.6026Z" fill="white"/>
<path d="M140.868 1.08203V39.2097H134.026V1.08203H140.868Z" fill="white"/>
<path d="M168.947 18.1172L155.026 49.4073H148.419L153.61 38.1661L143.7 18.1172H151.487L157.15 30.6331L162.813 18.1172H168.947Z" fill="white"/>
<path d="M195.137 18.1163V39.2083C195.137 41.1782 194.548 43.0325 193.368 44.6551C192.188 46.2774 190.654 47.5523 188.648 48.4793C186.643 49.4065 184.519 49.8699 182.16 49.8699C180.39 49.8699 178.856 49.6382 177.558 49.2906C176.261 48.8269 175.199 48.3635 174.373 47.8999C173.429 47.3203 172.485 46.625 171.423 45.698L175.435 41.0623C176.379 41.9895 177.44 42.6848 178.384 43.1485C179.328 43.6118 180.626 43.9597 182.042 43.9597C183.811 43.9597 185.227 43.4961 186.407 42.6848C187.587 41.8736 188.176 40.5989 188.176 39.0923V36.0791C187.469 37.1221 186.525 38.0493 185.109 38.7447C183.693 39.44 182.042 39.7876 180.154 39.7876C178.266 39.7876 176.379 39.324 174.727 38.281C173.075 37.354 171.777 35.9632 170.716 34.2249C169.772 32.4866 169.182 30.6323 169.182 28.5464C169.182 26.4602 169.654 24.4902 170.716 22.7518C171.777 21.0135 173.075 19.6228 174.845 18.5798C176.497 17.5368 178.266 17.0732 180.154 17.0732C181.924 17.0732 183.457 17.305 184.873 17.7686C186.289 18.2322 187.351 18.9275 188.059 19.7387L188.767 18.1163H195.137ZM188.176 31.096V25.8809C187.705 24.8379 186.997 24.0266 185.935 23.4472C184.873 22.8677 183.693 22.5201 182.278 22.5201C180.626 22.5201 179.21 23.0995 178.03 24.1425C176.851 25.1855 176.26 26.5762 176.26 28.3145C176.26 29.937 176.851 31.4436 178.03 32.6026C179.21 33.7613 180.626 34.3408 182.278 34.3408C184.991 34.2249 186.997 33.1819 188.176 31.096Z" fill="white"/>
<path d="M200.803 22.5231C201.865 20.7848 203.281 19.51 205.168 18.467C207.056 17.5399 209.18 16.9604 211.54 16.9604C213.899 16.9604 216.023 17.424 217.91 18.467C219.68 19.3941 221.096 20.7848 222.158 22.5231C223.102 24.2615 223.691 26.1156 223.691 28.3176C223.691 30.5195 223.219 32.3737 222.158 34.112C221.214 35.8505 219.798 37.2411 217.91 38.1681C216.141 39.0954 213.899 39.6747 211.54 39.6747C209.18 39.6747 207.056 39.2114 205.168 38.2841C203.281 37.3571 201.865 36.0822 200.803 34.3439C199.741 32.6056 199.27 30.6354 199.27 28.2018C199.27 26.2316 199.741 24.2615 200.803 22.5231ZM207.646 32.6056C208.59 33.7643 209.888 34.228 211.421 34.228C212.955 34.228 214.253 33.6486 215.197 32.6056C216.141 31.5624 216.613 30.0561 216.613 28.4335C216.613 26.6952 216.141 25.3045 215.197 24.2615C214.253 23.2185 212.955 22.639 211.421 22.639C209.888 22.639 208.708 23.2185 207.646 24.2615C206.584 25.3045 206.112 26.811 206.112 28.4335C206.23 30.0561 206.702 31.4467 207.646 32.6056Z" fill="white"/>
<path d="M247.876 18.8116C249.292 19.9705 249.883 21.4771 250 23.3313V39.2083H243.04V25.8809C242.922 23.7948 241.86 22.7518 239.854 22.7518C238.32 22.7518 237.023 23.4472 236.079 24.9537C235.135 26.4602 234.663 28.3145 234.663 30.5164V39.2083H227.82V18.1163H234.073L234.545 21.4771C235.371 20.0864 236.433 19.0434 237.848 18.2322C239.264 17.4209 240.916 17.0732 242.804 17.0732C244.809 17.0732 246.579 17.6527 247.876 18.8116Z" fill="white"/>
<path d="M48.2539 17.77C47.074 17.0746 45.5403 17.0746 44.2427 17.77L35.04 23.1009L28.7871 26.5775L19.5847 31.9086C18.4049 32.6039 16.8712 32.6039 15.5734 31.9086L8.25862 27.7365C7.07881 27.0411 6.25295 25.7662 6.25295 24.3757V16.1475C6.25295 14.7568 6.96084 13.4821 8.25862 12.7867L15.4554 8.73059C16.6352 8.03525 18.1689 8.03525 19.4667 8.73059L26.6636 12.7867C27.8433 13.4821 28.6692 14.7568 28.6692 16.1475V21.4784L34.9221 17.8859V12.555C34.9221 11.1643 34.2144 9.88947 32.9165 9.19414L19.5847 1.54543C18.4049 0.850091 16.8712 0.850091 15.5734 1.54543L2.00566 9.19414C0.707881 9.88947 0 11.1643 0 12.555V27.9682C0 29.359 0.707881 30.6337 2.00566 31.329L15.5734 38.9777C16.7532 39.6732 18.2869 39.6732 19.5847 38.9777L28.7871 33.7628L35.04 30.1701L44.2427 24.9551C45.4224 24.2598 46.956 24.2598 48.2539 24.9551L55.4507 29.0114C56.6304 29.7067 57.4563 30.9813 57.4563 32.372V40.6002C57.4563 41.9909 56.7485 43.2658 55.4507 43.9611L48.2539 48.133C47.074 48.8285 45.5403 48.8285 44.2427 48.133L37.0459 44.0768C35.866 43.3815 35.04 42.1068 35.04 40.7162V35.3851L28.7871 38.9777V44.3087C28.7871 45.6994 29.4951 46.9743 30.7927 47.6696L44.3606 55.3183C45.5403 56.0136 47.074 56.0136 48.3718 55.3183L61.9397 47.6696C63.1194 46.9743 63.9453 45.6994 63.9453 44.3087V28.8954C63.9453 27.5048 63.2373 26.2299 61.9397 25.5346L48.2539 17.77Z" fill="white"/>
</g>
<defs>
<clipPath id="clip0">
<rect width="250" height="54.9316" fill="white" transform="translate(0 0.96875)"/>
</clipPath>
</defs>
</svg>
