<svg width="64" height="54" viewBox="0 0 64 54" fill="none" xmlns="http://www.w3.org/2000/svg">
<g clip-path="url(#clip0)">
<path d="M27.5703 51.0306C27.5909 50.7828 27.529 50.535 27.4051 50.3078C28.6029 47.9741 28.83 44.3601 28.8507 42.2949C29.4289 39.8167 31.0398 31.2668 26.0833 27.5701C20.2595 23.2126 13.3205 26.7854 13.3205 26.7854C13.3205 26.7854 8.90103 34.0342 10.9456 40.6221C10.9869 40.7666 11.0488 40.8906 11.0901 41.0351C10.9869 43.2036 10.9662 46.6937 11.5445 49.1513C11.214 49.4404 11.0282 49.8121 11.0075 50.2045C10.9456 51.2991 12.2673 52.2491 13.9194 52.3317C14.4977 52.3523 15.0346 52.2904 15.489 52.1252C18.6074 52.0632 17.3683 49.8535 18.3802 47.8915C19.0824 46.5285 19.578 44.6698 19.578 44.6698C19.578 44.6698 20.3215 45.7644 21.1682 47.3339C21.6432 48.222 21.6845 49.1926 21.7465 50.06C21.6226 50.2665 21.5399 50.4937 21.5193 50.7208C21.4986 51.2784 21.8084 51.7947 22.3454 52.1665C22.4486 52.2697 22.5932 52.3523 22.7584 52.4143C23.2334 52.6621 23.8116 52.8273 24.4518 52.848C26.1246 52.9512 27.529 52.1252 27.5703 51.0306Z" fill="white" stroke="#202251" stroke-width="0.341622" stroke-miterlimit="10"/>
<path d="M26.9094 28.6648C26.9094 28.6648 35.3147 30.5648 38.1027 32.9604C40.0646 34.6538 38.4331 36.306 37.7103 36.8223C36.4506 37.7309 32.7745 36.1408 28.8094 33.5593" fill="white"/>
<path d="M26.9094 28.6648C26.9094 28.6648 35.3147 30.5648 38.1027 32.9604C40.0646 34.6538 38.4331 36.306 37.7103 36.8223C36.4506 37.7309 32.7745 36.1408 28.8094 33.5593" stroke="#202251" stroke-width="0.303127" stroke-miterlimit="10"/>
<path d="M30.9365 34.8603C30.9365 34.8603 30.9778 31.4734 32.5267 30.3582" stroke="#202251" stroke-width="0.331173" stroke-miterlimit="10"/>
<path d="M32.7744 35.9549C32.7744 35.9549 32.9809 31.9072 34.8602 31.1431" stroke="#202251" stroke-width="0.331173" stroke-miterlimit="10"/>
<path d="M34.7571 36.8635C34.7571 36.8635 34.9842 32.9397 36.8636 32.1755" stroke="#202251" stroke-width="0.331173" stroke-miterlimit="10"/>
<path d="M35.5212 37.0286C35.6452 38.6188 37.4625 39.1558 38.6397 38.9493C40.519 38.6188 40.5603 38.1232 41.0766 36.2439C41.407 35.108 39.7136 34.1167 38.7223 33.6211" fill="white"/>
<path d="M35.5212 37.0286C35.6452 38.6188 37.4625 39.1558 38.6397 38.9493C40.519 38.6188 40.5603 38.1232 41.0766 36.2439C41.407 35.108 39.7136 34.1167 38.7223 33.6211" stroke="#202251" stroke-width="0.378548" stroke-miterlimit="10" stroke-linecap="round" stroke-linejoin="round"/>
<path d="M12.5357 28.355C12.5357 28.355 4.62605 32.2788 2.45761 35.3559C0.929374 37.5244 2.95325 38.7635 3.79998 39.1146C5.28691 39.7135 9.43792 36.9668 12.7629 33.4353" fill="white"/>
<path d="M12.5357 28.355C12.5357 28.355 4.62605 32.2788 2.45761 35.3559C0.929374 37.5244 2.95325 38.7635 3.79998 39.1146C5.28691 39.7135 9.43792 36.9668 12.7629 33.4353" stroke="#202251" stroke-width="0.310665" stroke-miterlimit="10"/>
<path d="M10.2229 35.6037C10.2229 35.6037 9.16966 32.1548 7.35229 31.4114" stroke="#202251" stroke-width="0.339413" stroke-miterlimit="10"/>
<path d="M8.48809 37.0493C8.48809 37.0493 7.29028 33.0842 5.2251 32.7744" stroke="#202251" stroke-width="0.339413" stroke-miterlimit="10"/>
<path d="M6.73257 38.433C6.73257 38.433 5.55542 34.5918 3.49023 34.282" stroke="#202251" stroke-width="0.339413" stroke-miterlimit="10"/>
<path d="M6.07177 38.6603C6.34024 40.2712 4.66744 41.2625 3.42833 41.3451C1.48706 41.469 1.32185 40.994 0.33056 39.2592C-0.268343 38.206 1.17729 36.8017 2.02401 36.0789" fill="white"/>
<path d="M6.07177 38.6603C6.34024 40.2712 4.66744 41.2625 3.42833 41.3451C1.48706 41.469 1.32185 40.994 0.33056 39.2592C-0.268343 38.206 1.17729 36.8017 2.02401 36.0789" stroke="#202251" stroke-width="0.387965" stroke-miterlimit="10" stroke-linecap="round" stroke-linejoin="round"/>
<path d="M24.7409 34.6126C24.7615 34.0343 25.2778 33.8278 25.8974 33.8691C26.5169 33.9104 27.0126 34.1582 26.9919 34.7158C26.9506 35.7278 25.7941 35.9343 25.7941 35.9343C25.7941 35.9343 24.6996 35.7071 24.7409 34.6126Z" fill="white" stroke="#202251" stroke-width="0.0797573" stroke-miterlimit="10"/>
<path d="M26.4963 35.0461C26.455 35.1907 26.3311 35.3146 26.1453 35.3972V34.819C26.1453 34.4885 26.3105 34.2407 26.5376 34.2407L26.517 34.9842C26.4963 35.0048 26.4963 35.0255 26.4963 35.0461Z" fill="#202251"/>
<path d="M25.1333 35.0461C25.1746 35.1907 25.2986 35.3146 25.4844 35.3972V34.819C25.4844 34.4885 25.3192 34.2407 25.092 34.2407L25.1127 34.9842C25.1333 35.0048 25.1333 35.0255 25.1333 35.0461Z" fill="#202251"/>
<path d="M25.8147 34.6746C25.8147 34.6746 26.0212 34.943 26.0212 35.1909C26.0212 35.418 25.8147 35.5006 25.8147 35.5006C25.8147 35.5006 25.6082 35.418 25.6082 35.1909C25.6082 34.9224 25.8147 34.6746 25.8147 34.6746Z" fill="#202251"/>
<path d="M14.2083 29.1603C14.7039 29.47 15.3235 29.6559 15.8811 29.8211C16.48 30.007 17.0995 30.1516 17.7191 30.2548C18.8962 30.4613 20.094 30.5439 21.2918 30.482C23.2744 30.3787 25.3396 29.8005 26.8059 28.4168C26.8885 28.3342 26.7852 28.1896 26.682 28.2516C25.0298 29.3874 23.1299 29.8831 21.1473 29.9657C19.9908 30.007 18.8343 29.9244 17.6984 29.7179C17.1615 29.6146 16.6245 29.4907 16.0876 29.3255C15.5093 29.1603 14.9517 28.8918 14.3735 28.7472C14.1257 28.6853 14.0018 29.0364 14.2083 29.1603Z" fill="#202251"/>
<path d="M29.8004 27.0332C29.8004 27.0332 26.6613 29.3255 22.3864 30.0277C19.0821 30.5853 15.4267 29.9038 11.3377 27.2397C3.28346 21.9941 4.46062 17.6573 4.46062 17.6573C4.46062 17.6573 4.70844 16.1084 5.76168 14.5595C6.81492 13.0106 6.5671 11.2345 9.62357 8.54981C12.68 5.86507 14.4148 5.65856 14.4148 5.65856L20.2799 4.52271L25.6287 5.74116L30.9156 9.43784L33.0427 12.866L34.096 14.3323L34.4884 15.6127L34.7775 19.1029L33.9101 21.23L30.4406 25.7941L29.8004 27.0332Z" fill="white"/>
<path d="M5.76182 14.58C4.27488 15.5094 4.06837 17.6778 4.23358 19.2474C4.4401 21.0028 5.30748 22.6136 6.77375 23.6255C7.00092 23.7701 7.20744 23.419 6.98027 23.2745C5.6379 22.3658 4.83248 20.8582 4.64662 19.2474C4.4814 17.8224 4.62596 15.7778 5.96833 14.9311C6.1955 14.8072 5.98899 14.4561 5.76182 14.58Z" fill="#202251"/>
<path d="M11.3585 27.0746C9.00416 25.7529 7.06289 23.7909 6.25746 21.1682C5.45204 18.4834 5.72052 15.7161 6.77376 13.1553C7.06289 12.4324 7.49657 11.7716 7.86831 11.0901C8.24004 10.3879 8.69438 9.7477 9.21067 9.1488C9.99544 8.26077 11.028 7.476 12.0813 6.9184C13.1965 6.3195 14.4769 5.92711 15.6953 5.59668C17.9877 4.99778 20.404 4.74996 22.7376 5.2043C25.2571 5.69994 27.6941 7.10427 29.594 8.79772C31.1223 10.1401 32.3201 11.8129 32.919 13.7748C33.4972 15.6335 33.5179 17.5954 33.2287 19.4954C33.0635 20.5899 32.8157 21.7258 32.382 22.7583C31.9277 23.8735 31.2462 24.9061 30.4407 25.8148C29.4082 26.992 28.1484 28.0039 26.7854 28.7474C26.7028 28.7887 26.6408 28.83 26.5582 28.8713C26.3104 28.9952 26.5376 29.3463 26.7647 29.2224C27.8799 28.7061 28.8919 27.9007 29.7799 27.0746C31.5972 25.3811 32.8157 23.2953 33.3527 20.879C33.807 18.8965 33.9722 16.8313 33.5798 14.8074C33.2081 12.8248 32.2375 11.0075 30.8951 9.52053C29.2016 7.66187 26.868 6.13363 24.493 5.28691C22.0768 4.41953 19.4333 4.41953 16.9138 4.89452C15.2617 5.2043 13.6302 5.7206 12.1019 6.44341C11.3998 6.77384 10.7389 7.22818 10.14 7.70317C8.9009 8.67381 8.03352 9.91292 7.24875 11.3172C6.83572 12.0401 6.46398 12.7422 6.17486 13.5476C5.90638 14.2498 5.69987 14.9726 5.5553 15.7161C5.30748 17.0171 5.28683 18.3595 5.49335 19.6606C5.67921 20.879 6.05095 22.1181 6.6705 23.2127C7.33136 24.3898 8.28134 25.4018 9.33459 26.2279C9.91284 26.6822 10.5117 27.0746 11.1519 27.4463C11.3791 27.5702 11.5856 27.1985 11.3585 27.0746Z" fill="#202251"/>
<path d="M10.7182 24.4931C9.39652 22.9235 8.5498 21.0236 8.15741 19.0203C7.74438 16.9964 7.70308 14.6008 9.0661 12.928C10.5117 11.1726 12.7628 10.4705 14.8899 9.97483C17.2029 9.41723 19.5366 9.23136 21.9115 9.23136C24.2865 9.23136 26.8473 9.14875 28.6647 10.9042C30.1516 12.3291 30.8331 14.3324 30.957 16.3356C31.1222 18.6692 30.8538 21.1062 29.7179 23.192C28.7473 24.9474 27.1571 26.4137 25.1952 26.93C23.9148 27.2604 22.5517 27.3637 21.2507 27.4876C19.9083 27.6115 18.5453 27.6734 17.2029 27.5289C14.766 27.3017 12.3291 26.3724 10.7182 24.4931C10.553 24.2865 10.2639 24.5963 10.4291 24.7822C13.7541 28.6647 19.4127 28.231 23.9767 27.5702C25.0713 27.405 26.1245 27.1365 27.0745 26.5789C27.9625 26.0419 28.7473 25.3191 29.3668 24.4931C30.7918 22.6137 31.3701 20.2388 31.4114 17.9051C31.4527 15.7573 31.1429 13.5889 29.9244 11.7715C29.3255 10.8835 28.5408 10.1194 27.5701 9.62375C26.4343 9.04549 25.1332 8.88028 23.8735 8.83898C21.3539 8.77702 18.7931 8.79767 16.2942 9.25201C14.0225 9.66505 11.5443 10.2226 9.7063 11.7096C8.85958 12.3911 8.17807 13.2585 7.82699 14.2911C7.45525 15.3443 7.45525 16.5215 7.53786 17.616C7.70307 19.7018 8.36393 21.767 9.47913 23.5224C9.76826 23.9768 10.078 24.3898 10.4291 24.8028C10.5943 24.9887 10.8835 24.6996 10.7182 24.4931Z" fill="#202251"/>
<path d="M33.1666 13.7335C34.0547 13.9193 34.3851 14.8074 34.4883 15.6128C34.5916 16.3356 34.6329 17.0997 34.6329 17.8432C34.6123 19.3301 34.1992 20.9409 32.8569 21.767C32.6297 21.9116 32.8362 22.2627 33.0634 22.1181C34.5916 21.1888 35.0459 19.3714 35.0459 17.678C35.0459 16.253 35.0872 13.7128 33.2699 13.3204C33.0014 13.2791 32.8982 13.6715 33.1666 13.7335Z" fill="#202251"/>
<path d="M30.296 17.2235C30.1514 15.3235 29.5112 13.4236 28.0656 12.0605C28.0243 12.0192 28.0036 11.9986 27.9623 11.9779C28.1482 12.2671 28.2102 12.5768 28.1276 12.866C27.9004 13.7747 26.3515 14.167 24.6787 13.7333C23.0059 13.3203 21.8287 12.2464 22.0559 11.3377C22.1592 10.9454 22.4896 10.6562 22.9853 10.4704C22.5103 10.4497 22.0146 10.4704 21.5396 10.4497C19.2679 10.4497 17.0169 10.6149 14.8071 11.1312C12.7626 11.6062 10.6148 12.2464 9.23114 13.9192C7.90942 15.5094 7.99203 17.7605 8.38441 19.6811C8.7768 21.581 9.60287 23.3777 10.8626 24.8647C12.4322 26.6614 14.7658 27.5288 17.0788 27.7766C18.3799 27.9005 19.681 27.8592 20.9614 27.7559C22.2211 27.6527 23.5222 27.5494 24.7407 27.2396C26.62 26.7646 28.1482 25.381 29.0775 23.7288C30.2134 21.7256 30.4612 19.4333 30.296 17.2235Z" fill="#202251"/>
<path d="M26.2691 19.0615C25.5876 20.8169 20.9616 20.1561 18.7725 21.0028C21.705 18.4833 22.1594 17.5746 23.3985 16.0257C24.6376 14.4975 26.1658 15.4681 28.3343 14.3529C30.5027 13.2377 29.5527 12.7421 30.9983 10.8421C32.1342 9.31388 35.6037 8.15738 37.1732 7.78564C36.3059 8.21933 34.3439 9.33453 33.4766 10.3258C32.382 11.5649 32.8157 13.8366 30.3581 15.3442C27.9006 16.8311 27.1158 16.8724 26.2691 19.0615Z" fill="white" stroke="#202251" stroke-width="0.38051" stroke-linejoin="round"/>
<path d="M11.1725 19.4746C11.7508 21.1681 14.9105 20.2387 16.48 20.9409C14.3116 18.6072 13.9399 17.7399 13.0105 16.2736C12.0605 14.8073 11.0692 15.9018 9.49971 14.9106C7.93017 13.9193 8.54973 13.3823 7.45518 11.565C6.56715 10.1193 4.10958 9.19 2.99438 8.90088C3.61394 9.27261 5.03892 10.2639 5.69977 11.1932C6.5465 12.3497 6.36063 14.6627 8.13669 16.0051C9.91275 17.3475 10.4497 17.3475 11.1725 19.4746Z" fill="white" stroke="#202251" stroke-width="0.38051" stroke-linejoin="round"/>
<path d="M48.16 27.7767C48.16 27.7767 40.7254 25.7941 36.8842 27.281C34.1788 28.3343 35.294 30.6886 35.8516 31.5146C36.8429 32.9603 42.9351 33.7657 48.0774 32.5266" fill="white"/>
<path d="M48.16 27.7767C48.16 27.7767 40.7254 25.7941 36.8842 27.281C34.1788 28.3343 35.294 30.6886 35.8516 31.5146C36.8429 32.9603 42.9351 33.7657 48.0774 32.5266" stroke="#202251" stroke-width="0.339454" stroke-miterlimit="10"/>
<path d="M45.3721 32.9396C45.3721 32.9396 47.809 28.8919 46.1362 27.3843" stroke="#202251" stroke-width="0.370845" stroke-miterlimit="10"/>
<path d="M42.4189 33.0637C42.4189 33.0637 44.9591 28.417 43.2863 26.9094" stroke="#202251" stroke-width="0.370845" stroke-miterlimit="10"/>
<path d="M39.1973 32.8157C39.1973 32.8157 41.9027 28.1897 40.2092 26.6821" stroke="#202251" stroke-width="0.370845" stroke-miterlimit="10"/>
<path d="M37.07 31.1636C35.6243 33.2494 33.6211 32.2581 33.27 31.5766C32.2994 29.6767 30.5647 30.1517 30.9364 28.0658C31.3081 25.98 32.7744 24.8235 34.8602 25.1746C36.1613 25.4017 37.1319 26.3311 37.6482 27.4669" fill="white"/>
<path d="M37.07 31.1636C35.6243 33.2494 33.6211 32.2581 33.27 31.5766C32.2994 29.6767 30.5647 30.1517 30.9364 28.0658C31.3081 25.98 32.7744 24.8235 34.8602 25.1746C36.1613 25.4017 37.1319 26.3311 37.6482 27.4669" stroke="#202251" stroke-width="0.423899" stroke-miterlimit="10" stroke-linecap="round" stroke-linejoin="round"/>
<path d="M21.8496 34.8395C21.8496 34.2406 21.8496 33.7656 22.9235 33.7656C23.9974 33.7656 23.9974 34.2406 23.9974 34.8395C23.9974 35.4384 22.9235 35.9134 22.9235 35.9134C22.9235 35.9134 21.8496 35.4384 21.8496 34.8395Z" fill="#F7941D" stroke="#FBB040" stroke-width="0.0787454" stroke-miterlimit="10"/>
<path d="M23.5845 34.5299C23.5845 34.7777 23.5225 34.9842 23.3986 35.1907C23.2953 35.3559 23.1301 35.4798 22.9649 35.5625H22.9443C22.6138 35.3972 22.4073 35.1288 22.3454 34.7777C22.3247 34.6538 22.3247 34.5092 22.3247 34.3853V34.3646C22.3247 34.344 22.3247 34.344 22.3454 34.344C22.366 34.344 22.366 34.344 22.366 34.3646C22.366 34.3853 22.3867 34.406 22.3867 34.406C22.4486 34.5505 22.5312 34.6951 22.5932 34.8396C22.5932 34.8603 22.6138 34.8603 22.6345 34.8603C22.841 34.8603 23.0269 34.8603 23.2334 34.8603C23.254 34.8603 23.254 34.8603 23.2747 34.8396C23.3573 34.6951 23.4399 34.5299 23.5019 34.3853C23.5019 34.3646 23.5225 34.3646 23.5432 34.3646C23.5638 34.3646 23.5638 34.3853 23.5638 34.406C23.5638 34.4473 23.5638 34.4886 23.5638 34.5299C23.5845 34.4886 23.5845 34.5092 23.5845 34.5299ZM23.0062 35.4592C23.1714 35.3559 23.316 35.232 23.3986 35.0462C23.4812 34.9016 23.5019 34.7364 23.5225 34.5712C23.5225 34.5299 23.5225 34.5092 23.5225 34.4679C23.5019 34.4679 23.5019 34.4886 23.5019 34.4886C23.3573 34.7777 23.2127 35.0668 23.0682 35.3353C23.0475 35.3766 23.0269 35.4179 23.0062 35.4592ZM23.2334 34.9016C23.2127 34.9016 23.2127 34.9016 23.2334 34.9016C23.0475 34.9016 22.8617 34.9016 22.6758 34.9016C22.6551 34.9016 22.6551 34.9222 22.6758 34.9222C22.7584 35.1081 22.8617 35.2733 22.9443 35.4592C22.9443 35.4592 22.9443 35.4798 22.9649 35.4798C22.9649 35.4798 22.9649 35.4798 22.9856 35.4592C23.0682 35.3146 23.1508 35.1494 23.2127 35.0049C23.1921 34.9635 23.2127 34.9222 23.2334 34.9016ZM22.8617 35.4592C22.6964 35.1288 22.5312 34.7983 22.366 34.4679C22.366 34.6538 22.3867 34.8396 22.4693 35.0255C22.5519 35.2114 22.6758 35.3559 22.8617 35.4592Z" fill="#F3F4F4"/>
<path d="M22.5104 34.3233C22.4897 34.3233 22.4897 34.3233 22.4897 34.3027C22.4897 34.282 22.4897 34.282 22.5104 34.2614C22.5724 34.2407 22.6343 34.2201 22.6963 34.1994C22.7789 34.1788 22.8408 34.1581 22.9234 34.1375C22.9441 34.1375 22.9441 34.1375 22.9647 34.1375C23.1093 34.1788 23.2332 34.2201 23.3778 34.2614C23.3984 34.2614 23.4191 34.282 23.3984 34.3027C23.3984 34.3233 23.3778 34.3233 23.3571 34.3233C23.2745 34.3027 23.2126 34.282 23.13 34.2614C23.068 34.2407 23.006 34.2201 22.9647 34.1994C22.9441 34.1994 22.9441 34.1994 22.9234 34.1994C22.7789 34.2407 22.655 34.282 22.5104 34.3233C22.531 34.3233 22.5104 34.3233 22.5104 34.3233Z" fill="#F3F4F4"/>
<path d="M12.3084 28.0452L7.49648 30.2343C7.08345 30.4201 6.89758 30.9158 7.1041 31.3288C7.28997 31.7418 7.78561 31.9277 8.19865 31.7212L13.5062 28.9745L12.3084 28.0452Z" fill="#202251" stroke="white" stroke-width="0.206518" stroke-miterlimit="10"/>
<path d="M11.4204 28.6853L11.503 28.9538L11.7921 29.0364L11.565 29.2016V29.4907L11.3378 29.3255L11.0693 29.4288L11.1519 29.1603L10.9661 28.9331H11.2552L11.4204 28.6853Z" fill="#F7941D" stroke="#FBB040" stroke-width="0.0459503" stroke-miterlimit="10"/>
<path d="M9.91284 29.3257L10.0161 29.5942L10.2846 29.6768L10.0574 29.842V30.1311L9.83023 29.9659L9.56176 30.0692L9.64436 29.78L9.4585 29.5529H9.74762L9.91284 29.3257Z" fill="#F7941D" stroke="#FBB040" stroke-width="0.0459503" stroke-miterlimit="10"/>
<path d="M8.57041 29.9658L8.67367 30.2343L8.94214 30.3169L8.71497 30.5028L8.73562 30.7919L8.4878 30.6267L8.21933 30.7093L8.30193 30.4408L8.13672 30.2136H8.42584L8.57041 29.9658Z" fill="#F7941D" stroke="#FBB040" stroke-width="0.0459503" stroke-miterlimit="10"/>
<path d="M28.0246 28.2104L32.8364 30.3995C33.2495 30.5854 33.4353 31.0811 33.2288 31.4941C33.043 31.9071 32.5473 32.093 32.1343 31.8865L26.8474 29.1604L28.0246 28.2104Z" fill="#202251" stroke="white" stroke-width="0.206518" stroke-miterlimit="10"/>
<path d="M28.9333 28.8506L28.83 29.1397L28.5615 29.2017L28.7887 29.3875L28.768 29.6767L29.0159 29.5114L29.2843 29.6147L29.2017 29.3256L29.3876 29.0984H29.0985L28.9333 28.8506Z" fill="#F7941D" stroke="#FBB040" stroke-width="0.0459503" stroke-miterlimit="10"/>
<path d="M30.4201 29.4907L30.3375 29.7592L30.0483 29.8418L30.2962 30.007L30.2755 30.2961L30.5233 30.1309L30.7918 30.2342L30.6885 29.9657L30.8744 29.7385H30.5853L30.4201 29.4907Z" fill="#F7941D" stroke="#FBB040" stroke-width="0.0459503" stroke-miterlimit="10"/>
<path d="M32.6713 28.5408L32.4028 29.3049L31.6387 29.5321L32.2789 30.0071L32.2582 30.8125L32.9191 30.3375L33.6626 30.6266L33.4354 29.8418L33.931 29.2223L33.1256 29.2016L32.6713 28.5408Z" fill="#F7941D" stroke="#FBB040" stroke-width="0.128083" stroke-miterlimit="10"/>
<path d="M57.4533 25.0713C57.9902 27.5289 57.1229 32.2994 58.4033 33.7451C60.1174 35.707 60.2 37.8341 59.1881 39.8373C56.4001 45.372 55.512 41.5308 56.0696 49.11C56.3174 52.311 55.099 52.4969 52.1871 52.2697C49.4817 52.0632 45.5165 52.848 45.1035 50.6176C44.6079 47.9122 47.4785 47.7883 47.4785 47.7883C47.4785 47.7883 46.9002 42.7493 47.2926 41.7167C47.8709 40.2297 44.7111 42.2536 43.6992 36.6157C43.1209 33.332 43.8851 27.0126 46.0741 25.1952" fill="white"/>
<path d="M57.4533 25.0713C57.9902 27.5289 57.1229 32.2994 58.4033 33.7451C60.1174 35.707 60.2 37.8341 59.1881 39.8373C56.4001 45.372 55.512 41.5308 56.0696 49.11C56.3174 52.311 55.099 52.4969 52.1871 52.2697C49.4817 52.0632 45.5165 52.848 45.1035 50.6176C44.6079 47.9122 47.4785 47.7883 47.4785 47.7883C47.4785 47.7883 46.9002 42.7493 47.2926 41.7167C47.8709 40.2297 44.7111 42.2536 43.6992 36.6157C43.1209 33.332 43.8851 27.0126 46.0741 25.1952" stroke="#202251" stroke-width="0.458925" stroke-miterlimit="10"/>
<path d="M46.0328 26.0008C39.8166 24.7617 40.6014 22.4486 40.5188 18.3596C40.3948 12.4532 45.0828 7.55868 51.0099 7.43477C56.937 7.31086 61.8108 11.9988 61.9347 17.9259C62.0173 21.6019 60.2413 24.7204 57.4533 26.7029" fill="white"/>
<path d="M46.0328 26.0008C39.8166 24.7617 40.6014 22.4486 40.5188 18.3596C40.3948 12.4532 45.0828 7.55868 51.0099 7.43477C56.937 7.31086 61.8108 11.9988 61.9347 17.9259C62.0173 21.6019 60.2413 24.7204 57.4533 26.7029" stroke="#202251" stroke-width="0.43724" stroke-miterlimit="10" stroke-linecap="round" stroke-linejoin="round"/>
<path d="M40.3743 18.6693C40.2917 14.5183 42.2537 12.3292 45.2688 11.9987C55.3056 10.9042 55.3882 14.6009 54.4589 19.041C53.6122 23.1094 48.2633 25.2572 45.2482 25.1333C40.2091 24.9474 40.4569 22.8203 40.3743 18.6693Z" fill="#202251" stroke="white" stroke-width="0.206518" stroke-miterlimit="10"/>
<path d="M42.1917 12.2053C42.1917 12.2053 45.8264 8.90104 51.8361 10.9249C55.0784 12.0195 58.6718 16.4183 54.3762 22.2008C51.0926 26.6203 42.5014 24.741 42.5014 24.741" stroke="#202251" stroke-width="0.370845" stroke-miterlimit="10"/>
<path d="M48.8829 27.9626C48.8829 27.9626 41.2417 26.93 37.6277 28.9126C35.0875 30.2963 36.4712 32.506 37.132 33.2289C38.3092 34.5299 44.4428 34.5712 49.3786 32.6919" fill="white"/>
<path d="M48.8829 27.9626C48.8829 27.9626 41.2417 26.93 37.6277 28.9126C35.0875 30.2963 36.4712 32.506 37.132 33.2289C38.3092 34.5299 44.4428 34.5712 49.3786 32.6919" stroke="#202251" stroke-width="0.339454" stroke-miterlimit="10"/>
<path d="M37.5244 32.5886C35.418 33.9723 33.9104 32.3408 33.8278 31.5767C33.6419 29.4702 31.8452 29.2637 32.9604 27.4463C34.0756 25.6289 35.8723 25.092 37.669 26.2072C38.8048 26.9093 39.3625 28.1278 39.4038 29.3669" fill="white"/>
<path d="M37.5244 32.5886C35.418 33.9723 33.9104 32.3408 33.8278 31.5767C33.6419 29.4702 31.8452 29.2637 32.9604 27.4463C34.0756 25.6289 35.8723 25.092 37.669 26.2072C38.8048 26.9093 39.3625 28.1278 39.4038 29.3669" stroke="#202251" stroke-width="0.423899" stroke-miterlimit="10" stroke-linecap="round" stroke-linejoin="round"/>
<path d="M63.2358 17.7606C63.1945 16.253 62.864 15.0552 60.4684 15.0965C58.2793 15.1378 57.7837 16.3769 57.8043 17.8638C57.825 19.3508 58.4032 20.5073 60.5717 20.5279C62.9879 20.5692 63.2564 19.2682 63.2358 17.7606Z" fill="white" stroke="#202251" stroke-width="0.525548" stroke-miterlimit="10"/>
<path d="M55.9664 48.1189L47.5198 47.9124" stroke="#202251" stroke-width="0.305957" stroke-miterlimit="10"/>
<path d="M39.1145 13.8368C39.1145 13.8368 57.5773 12.2466 60.4479 12.8868C63.3185 13.527 63.8761 5.92715 63.8761 5.92715C63.8761 5.92715 55.6153 -1.17708 36.6983 0.351153C29.2843 0.950056 39.1145 13.8368 39.1145 13.8368Z" fill="#202251" stroke="white" stroke-width="0.27027" stroke-miterlimit="10"/>
<path d="M62.5543 12.2672L38.0819 11.8955L37.9993 13.9607L61.625 14.1259L62.5543 12.2672Z" fill="white" stroke="#202251" stroke-width="0.230619" stroke-miterlimit="10"/>
<path d="M35.5005 15.9432C35.7277 16.2117 36.0374 16.3975 36.3679 16.5214C38.3091 17.3269 46.8796 14.1052 46.5699 13.8987C46.2601 13.6921 41.8819 13.7541 40.1059 13.6715C39.4037 13.6302 38.6602 13.5269 37.9581 13.6302C37.4211 13.7128 36.9255 13.9813 36.4505 14.1878C35.7277 14.5182 34.819 15.0758 35.5005 15.9432Z" fill="#202251" stroke="white" stroke-width="0.248565" stroke-miterlimit="10"/>
<path d="M34.1374 4.29555C34.5505 4.15098 35.0255 4.3575 35.17 4.79119L36.7189 9.10742C36.8635 9.52046 36.6569 9.99545 36.2233 10.14C35.8102 10.2846 35.3352 10.0781 35.1907 9.64437L33.6624 5.32814C33.4972 4.89445 33.7244 4.44011 34.1374 4.29555Z" fill="#F7941D"/>
<path d="M49.0688 26.7028L43.7819 26.6821C43.3275 26.6821 42.9558 27.0539 42.9558 27.5082C42.9558 27.9625 43.3275 28.3343 43.7819 28.3343L49.7503 28.0658L49.0688 26.7028Z" fill="#202251" stroke="white" stroke-width="0.206518" stroke-miterlimit="10"/>
<path d="M47.9949 26.9094L47.9536 27.1985L48.1808 27.3844L47.8917 27.4464L47.7884 27.7148L47.6439 27.467L47.3547 27.4464L47.5406 27.2192L47.4786 26.9507L47.7471 27.054L47.9949 26.9094Z" fill="#F7941D" stroke="#FBB040" stroke-width="0.0459503" stroke-miterlimit="10"/>
<path d="M46.3634 26.8679L46.3427 27.157L46.5492 27.3429L46.2807 27.4049L46.1568 27.6527L46.0123 27.4049L45.7231 27.3842L45.9297 27.1777L45.8471 26.8886L46.1155 27.0125L46.3634 26.8679Z" fill="#F7941D" stroke="#FBB040" stroke-width="0.0459503" stroke-miterlimit="10"/>
<path d="M44.8763 26.8887L44.8556 27.1778L45.0622 27.3637L44.7937 27.4256L44.6698 27.6941L44.5252 27.4463L44.2361 27.4256L44.4426 27.2191L44.36 26.93L44.6285 27.0539L44.8763 26.8887Z" fill="#F7941D" stroke="#FBB040" stroke-width="0.0459503" stroke-miterlimit="10"/>
</g>
<defs>
<clipPath id="clip0">
<rect width="64" height="53.0339" fill="white"/>
</clipPath>
</defs>
</svg>
