<svg width="30" height="30" viewBox="0 0 30 30" fill="none" xmlns="http://www.w3.org/2000/svg">
<path d="M14.9999 20.4002C14.9999 20.8976 14.597 21.3002 14.0999 21.3002C12.611 21.3002 11.3999 20.0891 11.3999 18.6002V17.7002H13.1999V18.6002C13.1999 19.0967 13.6037 19.5002 14.0999 19.5002C14.597 19.5002 14.9999 19.9028 14.9999 20.4002Z" fill="#202251"/>
<path d="M27.5594 11.9105C27.4226 11.258 26.8994 10.7135 26.2517 10.5554C25.4018 10.3475 24.6305 10.7462 24.2498 11.4002H23.1002V10.5002C23.1002 10.0031 22.6973 9.60019 22.2002 9.60019C21.7031 9.60019 21.3002 10.0031 21.3002 10.5002V11.4002H19.5002V10.5002C19.5002 10.0031 19.0973 9.60019 18.6002 9.60019C18.1031 9.60019 17.7002 10.0031 17.7002 10.5002V11.4002H15.9002V9.1502C15.9002 8.9015 15.6986 8.7002 15.4502 8.7002H6.15501C4.27491 8.7002 2.59581 10.0748 2.41731 11.9465C2.21241 14.0933 3.89541 15.8999 6.00021 15.8999H15.4502C15.6986 15.8999 15.9002 15.6983 15.9002 15.4499V13.1999H17.7002V14.0999C17.7002 14.597 18.1031 14.9999 18.6002 14.9999C19.0973 14.9999 19.5002 14.597 19.5002 14.0999V13.1999H21.3002V14.0999C21.3002 14.597 21.7031 14.9999 22.2002 14.9999C22.6973 14.9999 23.1002 14.597 23.1002 14.0999V13.1999H24.2498C24.5615 13.7357 25.1357 14.0999 25.8002 14.0999C26.9216 14.0999 27.8033 13.0745 27.5594 11.9105ZM7.80021 13.1999H6.00021C5.50311 13.1999 5.10021 12.797 5.10021 12.2999C5.10021 11.8028 5.50311 11.3999 6.00021 11.3999H7.80021C8.29731 11.3999 8.70021 11.8028 8.70021 12.2999C8.70021 12.797 8.29731 13.1999 7.80021 13.1999Z" fill="#202251"/>
<path d="M13.2002 6.90019H8.7002V4.2002C10.5002 4.2002 13.2002 5.6345 13.2002 6.90019Z" fill="#202251"/>
<path d="M6.54004 17.7002H10.32L8.70004 25.8002H6.20884C4.81564 25.8002 3.86314 24.3932 4.38064 23.0996L6.54004 17.7002Z" fill="#202251"/>
</svg>
