<svg width="75" height="121" viewBox="0 0 75 121" fill="none" xmlns="http://www.w3.org/2000/svg">
<path d="M3 32.0909L20.4435 39L36.8609 19.7532L46.0957 26.1688L62 1" stroke="white" stroke-linecap="round" stroke-linejoin="round"/>
<path d="M70.8455 52.3874C68.8633 60.0886 61.9204 66.545 52.4531 69.9926V40.5109C52.4531 24.0521 61.0294 10.7104 72.0001 10.7104L71.3611 48.4007C71.3459 49.7452 71.1728 51.0833 70.8455 52.3874Z" fill="white"/>
<path d="M2.15476 62.7521C4.13886 66.0939 11.0824 68.8956 20.5507 70.3916V57.5985C20.5507 50.4564 11.9735 44.667 1 44.667L1.64079 61.0221C1.6554 61.6055 1.82791 62.1861 2.15476 62.7521Z" fill="white"/>
<path d="M36.6853 32.6494C36.6853 32.6494 47.2272 45.9877 47.2272 58.8938C47.2272 70.3113 36.6853 74.2462 36.6853 74.2462H36.672C36.672 74.2462 26.1284 70.3113 26.1284 58.8938C26.1284 45.9877 36.6703 32.6494 36.6703 32.6494" fill="white"/>
<path d="M8.23113 111.43C8.89113 111.43 9.43113 111.38 9.85113 111.28C10.2911 111.16 10.6411 111.01 10.9011 110.83C11.1611 110.63 11.3411 110.4 11.4411 110.14C11.5411 109.88 11.5911 109.59 11.5911 109.27C11.5911 108.59 11.2711 108.03 10.6311 107.59C9.99113 107.13 8.89113 106.64 7.33113 106.12C6.65113 105.88 5.97113 105.61 5.29113 105.31C4.61113 104.99 4.00113 104.6 3.46113 104.14C2.92113 103.66 2.48113 103.09 2.14113 102.43C1.80113 101.75 1.63113 100.93 1.63113 99.97C1.63113 99.01 1.81113 98.15 2.17113 97.39C2.53113 96.61 3.04113 95.95 3.70113 95.41C4.36113 94.87 5.16113 94.46 6.10113 94.18C7.04113 93.88 8.10113 93.73 9.28113 93.73C10.6811 93.73 11.8911 93.88 12.9111 94.18C13.9311 94.48 14.7711 94.81 15.4311 95.17L14.0811 98.86C13.5011 98.56 12.8511 98.3 12.1311 98.08C11.4311 97.84 10.5811 97.72 9.58113 97.72C8.46113 97.72 7.65113 97.88 7.15113 98.2C6.67113 98.5 6.43113 98.97 6.43113 99.61C6.43113 99.99 6.52113 100.31 6.70113 100.57C6.88113 100.83 7.13113 101.07 7.45113 101.29C7.79113 101.49 8.17113 101.68 8.59113 101.86C9.03113 102.02 9.51113 102.19 10.0311 102.37C11.1111 102.77 12.0511 103.17 12.8511 103.57C13.6511 103.95 14.3111 104.4 14.8311 104.92C15.3711 105.44 15.7711 106.05 16.0311 106.75C16.2911 107.45 16.4211 108.3 16.4211 109.3C16.4211 111.24 15.7411 112.75 14.3811 113.83C13.0211 114.89 10.9711 115.42 8.23113 115.42C7.31113 115.42 6.48113 115.36 5.74113 115.24C5.00113 115.14 4.34113 115.01 3.76113 114.85C3.20113 114.69 2.71113 114.52 2.29113 114.34C1.89113 114.16 1.55113 113.99 1.27113 113.83L2.59113 110.11C3.21113 110.45 3.97113 110.76 4.87113 111.04C5.79113 111.3 6.91113 111.43 8.23113 111.43ZM19.5721 95.29L24.0421 94.57V99.22H29.4121V102.94H24.0421V108.49C24.0421 109.43 24.2021 110.18 24.5221 110.74C24.8621 111.3 25.5321 111.58 26.5321 111.58C27.0121 111.58 27.5021 111.54 28.0021 111.46C28.5221 111.36 28.9921 111.23 29.4121 111.07L30.0421 114.55C29.5021 114.77 28.9021 114.96 28.2421 115.12C27.5821 115.28 26.7721 115.36 25.8121 115.36C24.5921 115.36 23.5821 115.2 22.7821 114.88C21.9821 114.54 21.3421 114.08 20.8621 113.5C20.3821 112.9 20.0421 112.18 19.8421 111.34C19.6621 110.5 19.5721 109.57 19.5721 108.55V95.29ZM38.4962 111.88C38.9362 111.88 39.3562 111.87 39.7562 111.85C40.1562 111.83 40.4762 111.8 40.7162 111.76V108.37C40.5362 108.33 40.2662 108.29 39.9062 108.25C39.5462 108.21 39.2162 108.19 38.9162 108.19C38.4962 108.19 38.0962 108.22 37.7162 108.28C37.3562 108.32 37.0362 108.41 36.7562 108.55C36.4762 108.69 36.2562 108.88 36.0962 109.12C35.9362 109.36 35.8562 109.66 35.8562 110.02C35.8562 110.72 36.0862 111.21 36.5462 111.49C37.0262 111.75 37.6762 111.88 38.4962 111.88ZM38.1362 98.8C39.4562 98.8 40.5562 98.95 41.4362 99.25C42.3162 99.55 43.0162 99.98 43.5362 100.54C44.0762 101.1 44.4562 101.78 44.6762 102.58C44.8962 103.38 45.0062 104.27 45.0062 105.25V114.55C44.3662 114.69 43.4762 114.85 42.3362 115.03C41.1962 115.23 39.8162 115.33 38.1962 115.33C37.1762 115.33 36.2462 115.24 35.4062 115.06C34.5862 114.88 33.8762 114.59 33.2762 114.19C32.6762 113.77 32.2162 113.23 31.8962 112.57C31.5762 111.91 31.4162 111.1 31.4162 110.14C31.4162 109.22 31.5962 108.44 31.9562 107.8C32.3362 107.16 32.8362 106.65 33.4562 106.27C34.0762 105.89 34.7862 105.62 35.5862 105.46C36.3862 105.28 37.2162 105.19 38.0762 105.19C38.6562 105.19 39.1662 105.22 39.6062 105.28C40.0662 105.32 40.4362 105.38 40.7162 105.46V105.04C40.7162 104.28 40.4862 103.67 40.0262 103.21C39.5662 102.75 38.7662 102.52 37.6262 102.52C36.8662 102.52 36.1162 102.58 35.3762 102.7C34.6362 102.8 33.9962 102.95 33.4562 103.15L32.8862 99.55C33.1462 99.47 33.4662 99.39 33.8462 99.31C34.2462 99.21 34.6762 99.13 35.1362 99.07C35.5962 98.99 36.0762 98.93 36.5762 98.89C37.0962 98.83 37.6162 98.8 38.1362 98.8ZM48.8982 95.29L53.3682 94.57V99.22H58.7382V102.94H53.3682V108.49C53.3682 109.43 53.5282 110.18 53.8482 110.74C54.1882 111.3 54.8582 111.58 55.8582 111.58C56.3382 111.58 56.8282 111.54 57.3282 111.46C57.8482 111.36 58.3182 111.23 58.7382 111.07L59.3682 114.55C58.8282 114.77 58.2282 114.96 57.5682 115.12C56.9082 115.28 56.0982 115.36 55.1382 115.36C53.9182 115.36 52.9082 115.2 52.1082 114.88C51.3082 114.54 50.6682 114.08 50.1882 113.5C49.7082 112.9 49.3682 112.18 49.1682 111.34C48.9882 110.5 48.8982 109.57 48.8982 108.55V95.29ZM66.9083 111.79C67.7283 111.79 68.3083 111.71 68.6483 111.55C68.9883 111.39 69.1583 111.08 69.1583 110.62C69.1583 110.26 68.9383 109.95 68.4983 109.69C68.0583 109.41 67.3883 109.1 66.4883 108.76C65.7883 108.5 65.1483 108.23 64.5683 107.95C64.0083 107.67 63.5283 107.34 63.1283 106.96C62.7283 106.56 62.4183 106.09 62.1983 105.55C61.9783 105.01 61.8683 104.36 61.8683 103.6C61.8683 102.12 62.4183 100.95 63.5183 100.09C64.6183 99.23 66.1283 98.8 68.0483 98.8C69.0083 98.8 69.9283 98.89 70.8083 99.07C71.6883 99.23 72.3883 99.41 72.9083 99.61L72.1283 103.09C71.6083 102.91 71.0383 102.75 70.4183 102.61C69.8183 102.47 69.1383 102.4 68.3783 102.4C66.9783 102.4 66.2783 102.79 66.2783 103.57C66.2783 103.75 66.3083 103.91 66.3683 104.05C66.4283 104.19 66.5483 104.33 66.7283 104.47C66.9083 104.59 67.1483 104.73 67.4483 104.89C67.7683 105.03 68.1683 105.19 68.6483 105.37C69.6283 105.73 70.4383 106.09 71.0783 106.45C71.7183 106.79 72.2183 107.17 72.5783 107.59C72.9583 107.99 73.2183 108.44 73.3583 108.94C73.5183 109.44 73.5983 110.02 73.5983 110.68C73.5983 112.24 73.0083 113.42 71.8283 114.22C70.6683 115.02 69.0183 115.42 66.8783 115.42C65.4783 115.42 64.3083 115.3 63.3683 115.06C62.4483 114.82 61.8083 114.62 61.4483 114.46L62.1983 110.83C62.9583 111.13 63.7383 111.37 64.5383 111.55C65.3383 111.71 66.1283 111.79 66.9083 111.79Z" fill="white"/>
</svg>
