<?xml version="1.0" encoding="UTF-8"?>
<!DOCTYPE svg PUBLIC "-//W3C//DTD SVG 1.1//EN" "http://www.w3.org/Graphics/SVG/1.1/DTD/svg11.dtd">
<svg xmlns="http://www.w3.org/2000/svg" version="1.1" width="30px" height="30px" style="shape-rendering:geometricPrecision; text-rendering:geometricPrecision; image-rendering:optimizeQuality; fill-rule:evenodd; clip-rule:evenodd" xmlns:xlink="http://www.w3.org/1999/xlink">
<g><path style="opacity:0.845" fill="#3f01c0" d="M 8.5,-0.5 C 11.8333,-0.5 15.1667,-0.5 18.5,-0.5C 15.0621,3.85083 11.0621,4.5175 6.5,1.5C 7.16667,0.833333 7.83333,0.166667 8.5,-0.5 Z"/></g>
<g><path style="opacity:0.11" fill="#f58abe" d="M 20.5,0.5 C 22.0269,0.427017 23.0269,1.09368 23.5,2.5C 23.6621,4.5273 23.4955,6.5273 23,8.5C 21.8555,5.9196 21.0222,3.25293 20.5,0.5 Z"/></g>
<g><path style="opacity:0.839" fill="#4002c1" d="M 24.5,2.5 C 26.1667,4.5 27.8333,6.5 29.5,8.5C 29.5,10.8333 29.5,13.1667 29.5,15.5C 27.8333,15.5 26.1667,15.5 24.5,15.5C 23.9028,11.2569 23.9028,6.92359 24.5,2.5 Z"/></g>
<g><path style="opacity:1" fill="#e884b6" d="M 4.5,2.5 C 3.32673,4.34054 3.32673,6.17387 4.5,8C 4.19178,9.45947 3.52511,10.6261 2.5,11.5C 2.01131,10.0048 1.34464,8.67145 0.5,7.5C 1.60398,5.61145 2.93731,3.94478 4.5,2.5 Z"/></g>
<g><path style="opacity:0.808" fill="#4004be" d="M 0.5,7.5 C 1.34464,8.67145 2.01131,10.0048 2.5,11.5C 2.56752,14.2562 3.06752,16.9229 4,19.5C 4.81595,20.8228 5.98261,21.4894 7.5,21.5C 7.83333,21.5 8.16667,21.5 8.5,21.5C 7.5,22.8333 6.5,24.1667 5.5,25.5C 5.5,25.8333 5.5,26.1667 5.5,26.5C 4.76109,26.631 4.09442,26.4643 3.5,26C 2.30342,23.9847 0.970083,22.1513 -0.5,20.5C -0.5,16.5 -0.5,12.5 -0.5,8.5C 0.166667,8.5 0.5,8.16667 0.5,7.5 Z"/></g>
<g><path style="opacity:1" fill="#665b79" d="M 18.5,-0.5 C 19.1667,-0.5 19.8333,-0.5 20.5,-0.5C 20.5,-0.166667 20.5,0.166667 20.5,0.5C 21.0222,3.25293 21.8555,5.9196 23,8.5C 23.4955,6.5273 23.6621,4.5273 23.5,2.5C 23.8333,2.5 24.1667,2.5 24.5,2.5C 23.9028,6.92359 23.9028,11.2569 24.5,15.5C 26.1667,15.5 27.8333,15.5 29.5,15.5C 29.5,15.8333 29.5,16.1667 29.5,16.5C 28.1266,16.3433 26.7932,16.51 25.5,17C 21.7589,21.6165 17.0922,23.7831 11.5,23.5C 12.0161,25.7329 11.0161,27.3996 8.5,28.5C 8.16667,28.5 7.83333,28.5 7.5,28.5C 8.49079,26.8773 7.82412,25.8773 5.5,25.5C 6.5,24.1667 7.5,22.8333 8.5,21.5C 12.7121,21.9225 16.7121,21.2558 20.5,19.5C 21.8333,18.5 21.8333,17.5 20.5,16.5C 19.452,15.6171 18.2853,14.9504 17,14.5C 16.7778,16.3063 15.9445,17.973 14.5,19.5C 11.3876,18.6495 11.0542,17.4828 13.5,16C 12.344,14.3851 11.0107,14.3851 9.5,16C 8.13865,17.5843 7.47199,19.4176 7.5,21.5C 5.98261,21.4894 4.81595,20.8228 4,19.5C 3.06752,16.9229 2.56752,14.2562 2.5,11.5C 3.52511,10.6261 4.19178,9.45947 4.5,8C 3.32673,6.17387 3.32673,4.34054 4.5,2.5C 5.16667,2.16667 5.83333,1.83333 6.5,1.5C 11.0621,4.5175 15.0621,3.85083 18.5,-0.5 Z"/></g>
<g><path style="opacity:1" fill="#e6e6ed" d="M 8.5,21.5 C 8.16667,21.5 7.83333,21.5 7.5,21.5C 7.47199,19.4176 8.13865,17.5843 9.5,16C 11.0107,14.3851 12.344,14.3851 13.5,16C 11.0542,17.4828 11.3876,18.6495 14.5,19.5C 15.9445,17.973 16.7778,16.3063 17,14.5C 18.2853,14.9504 19.452,15.6171 20.5,16.5C 21.8333,17.5 21.8333,18.5 20.5,19.5C 16.7121,21.2558 12.7121,21.9225 8.5,21.5 Z"/></g>
<g><path style="opacity:0.888" fill="#756c8d" d="M 29.5,16.5 C 29.5,17.8333 29.5,19.1667 29.5,20.5C 28.1964,21.9869 27.0298,23.6536 26,25.5C 23.9847,26.6966 22.1513,28.0299 20.5,29.5C 16.5,29.5 12.5,29.5 8.5,29.5C 8.5,29.1667 8.5,28.8333 8.5,28.5C 11.0161,27.3996 12.0161,25.7329 11.5,23.5C 17.0922,23.7831 21.7589,21.6165 25.5,17C 26.7932,16.51 28.1266,16.3433 29.5,16.5 Z"/></g>
<g><path style="opacity:0.396" fill="#ededed" d="M 5.5,25.5 C 7.82412,25.8773 8.49079,26.8773 7.5,28.5C 6.5,28.1667 5.83333,27.5 5.5,26.5C 5.5,26.1667 5.5,25.8333 5.5,25.5 Z"/></g>
</svg>
