<svg width="80" height="80" viewBox="0 0 80 80" fill="none" xmlns="http://www.w3.org/2000/svg">
<path d="M25.66 55.37V56.46H23.53V62.3H22.26V56.46H20.13V55.37H25.66ZM28.9584 59.01C28.805 59.5967 28.6384 60.17 28.4584 60.73C28.285 61.2834 28.1117 61.8067 27.9384 62.3H26.9484C26.815 61.9934 26.675 61.6434 26.5284 61.25C26.3817 60.8567 26.235 60.4367 26.0884 59.99C25.9417 59.5434 25.795 59.0734 25.6484 58.58C25.5017 58.0867 25.3584 57.5834 25.2184 57.07H26.4984C26.5584 57.35 26.6284 57.6534 26.7084 57.98C26.7884 58.3 26.8717 58.63 26.9584 58.97C27.045 59.3034 27.135 59.63 27.2284 59.95C27.3217 60.27 27.415 60.5634 27.5084 60.83C27.6084 60.5234 27.705 60.2067 27.7984 59.88C27.8984 59.5534 27.9917 59.2267 28.0784 58.9C28.165 58.5734 28.245 58.2567 28.3184 57.95C28.3984 57.6367 28.4684 57.3434 28.5284 57.07H29.4584C29.5184 57.3434 29.585 57.6367 29.6584 57.95C29.7317 58.2567 29.8084 58.5734 29.8884 58.9C29.975 59.2267 30.065 59.5534 30.1584 59.88C30.2584 60.2067 30.3584 60.5234 30.4584 60.83C30.545 60.5634 30.635 60.27 30.7284 59.95C30.8217 59.63 30.9117 59.3034 30.9984 58.97C31.0917 58.63 31.1784 58.3 31.2584 57.98C31.3384 57.6534 31.4084 57.35 31.4684 57.07H32.7184C32.5784 57.5834 32.435 58.0867 32.2884 58.58C32.1417 59.0734 31.995 59.5434 31.8484 59.99C31.7017 60.4367 31.555 60.8567 31.4084 61.25C31.2617 61.6434 31.1184 61.9934 30.9784 62.3H29.9984C29.825 61.8067 29.645 61.2834 29.4584 60.73C29.2784 60.17 29.1117 59.5967 28.9584 59.01ZM34.8611 62.3H33.6511V57.07H34.8611V62.3ZM34.9911 55.54C34.9911 55.7667 34.9178 55.9467 34.7711 56.08C34.6244 56.2134 34.4511 56.28 34.2511 56.28C34.0444 56.28 33.8678 56.2134 33.7211 56.08C33.5744 55.9467 33.5011 55.7667 33.5011 55.54C33.5011 55.3067 33.5744 55.1234 33.7211 54.99C33.8678 54.8567 34.0444 54.79 34.2511 54.79C34.4511 54.79 34.6244 54.8567 34.7711 54.99C34.9178 55.1234 34.9911 55.3067 34.9911 55.54ZM36.4048 57.24C36.6381 57.1734 36.9414 57.11 37.3148 57.05C37.6881 56.99 38.1014 56.96 38.5548 56.96C38.9814 56.96 39.3381 57.02 39.6248 57.14C39.9114 57.2534 40.1381 57.4167 40.3048 57.63C40.4781 57.8367 40.5981 58.09 40.6648 58.39C40.7381 58.6834 40.7748 59.0067 40.7748 59.36V62.3H39.5648V59.55C39.5648 59.27 39.5448 59.0334 39.5048 58.84C39.4714 58.64 39.4114 58.48 39.3248 58.36C39.2448 58.2334 39.1314 58.1434 38.9848 58.09C38.8448 58.03 38.6714 58 38.4648 58C38.3114 58 38.1514 58.01 37.9848 58.03C37.8181 58.05 37.6948 58.0667 37.6148 58.08V62.3H36.4048V57.24ZM43.2044 59.67C43.2044 60.2034 43.331 60.6234 43.5844 60.93C43.8377 61.23 44.1877 61.38 44.6344 61.38C44.8277 61.38 44.991 61.3734 45.1244 61.36C45.2644 61.34 45.3777 61.32 45.4644 61.3V58.3C45.3577 58.2267 45.2144 58.16 45.0344 58.1C44.861 58.0334 44.6744 58 44.4744 58C44.0344 58 43.711 58.15 43.5044 58.45C43.3044 58.75 43.2044 59.1567 43.2044 59.67ZM46.6744 62.14C46.4344 62.2134 46.131 62.28 45.7644 62.34C45.4044 62.4 45.0244 62.43 44.6244 62.43C44.211 62.43 43.841 62.3667 43.5144 62.24C43.1877 62.1134 42.9077 61.9334 42.6744 61.7C42.4477 61.46 42.271 61.1734 42.1444 60.84C42.0244 60.5 41.9644 60.12 41.9644 59.7C41.9644 59.2867 42.0144 58.9134 42.1144 58.58C42.221 58.24 42.3744 57.95 42.5744 57.71C42.7744 57.47 43.0177 57.2867 43.3044 57.16C43.591 57.0267 43.921 56.96 44.2944 56.96C44.5477 56.96 44.771 56.99 44.9644 57.05C45.1577 57.11 45.3244 57.1767 45.4644 57.25V54.74L46.6744 54.54V62.14ZM47.9214 59.71C47.9214 59.25 47.9881 58.8467 48.1214 58.5C48.2614 58.1534 48.4447 57.8667 48.6714 57.64C48.8981 57.4067 49.1581 57.2334 49.4514 57.12C49.7447 57 50.0447 56.94 50.3514 56.94C51.0714 56.94 51.6314 57.1634 52.0314 57.61C52.4381 58.0567 52.6414 58.7234 52.6414 59.61C52.6414 59.6767 52.6381 59.7534 52.6314 59.84C52.6314 59.92 52.6281 59.9934 52.6214 60.06H49.1714C49.2047 60.48 49.3514 60.8067 49.6114 61.04C49.8781 61.2667 50.2614 61.38 50.7614 61.38C51.0547 61.38 51.3214 61.3534 51.5614 61.3C51.8081 61.2467 52.0014 61.19 52.1414 61.13L52.3014 62.12C52.2347 62.1534 52.1414 62.19 52.0214 62.23C51.9081 62.2634 51.7747 62.2934 51.6214 62.32C51.4747 62.3534 51.3147 62.38 51.1414 62.4C50.9681 62.42 50.7914 62.43 50.6114 62.43C50.1514 62.43 49.7514 62.3634 49.4114 62.23C49.0714 62.09 48.7914 61.9 48.5714 61.66C48.3514 61.4134 48.1881 61.1267 48.0814 60.8C47.9747 60.4667 47.9214 60.1034 47.9214 59.71ZM51.4314 59.17C51.4314 59.0034 51.4081 58.8467 51.3614 58.7C51.3147 58.5467 51.2447 58.4167 51.1514 58.31C51.0647 58.1967 50.9547 58.11 50.8214 58.05C50.6947 57.9834 50.5414 57.95 50.3614 57.95C50.1747 57.95 50.0114 57.9867 49.8714 58.06C49.7314 58.1267 49.6114 58.2167 49.5114 58.33C49.4181 58.4434 49.3447 58.5734 49.2914 58.72C49.2381 58.8667 49.2014 59.0167 49.1814 59.17H51.4314ZM55.8043 58.78L56.9143 57.07H58.1843L56.4643 59.54C56.8243 60.0067 57.1676 60.48 57.4943 60.96C57.8276 61.4334 58.101 61.88 58.3143 62.3H57.0043C56.9443 62.1734 56.8643 62.03 56.7643 61.87C56.671 61.7034 56.5676 61.5334 56.4543 61.36C56.3476 61.18 56.2343 61.0034 56.1143 60.83C55.9943 60.6567 55.8776 60.4934 55.7643 60.34C55.531 60.64 55.301 60.9734 55.0743 61.34C54.8543 61.7 54.671 62.02 54.5243 62.3H53.2843C53.3843 62.1 53.5043 61.8867 53.6443 61.66C53.7843 61.4334 53.9343 61.2034 54.0943 60.97C54.2543 60.73 54.4176 60.4934 54.5843 60.26C54.7576 60.02 54.9276 59.7934 55.0943 59.58L53.3643 57.07H54.6943L55.8043 58.78Z" fill="white"/>
<path d="M56.7745 37.4827C55.6988 37.4818 54.6674 37.0541 53.9068 36.2935C53.1462 35.5328 52.7185 34.5015 52.7176 33.4258V34.7803C52.7193 36.5245 52.3235 38.2461 51.5601 39.8144C50.7968 41.3826 49.686 42.7563 48.3123 43.831C50.338 45.4286 52.8434 46.2962 55.4233 46.2934H60.1739V37.4827H56.7745Z" fill="white"/>
<path d="M43.9067 34.7803V33.4258C43.9067 34.5017 43.4793 35.5336 42.7185 36.2944C41.9577 37.0552 40.9258 37.4827 39.8498 37.4827H36.4537V46.2934H41.2043C43.7832 46.2962 46.2876 45.4286 48.3121 43.831C46.94 42.7548 45.8304 41.3808 45.0672 39.8129C44.304 38.245 43.9072 36.5241 43.9067 34.7803Z" fill="white"/>
<path d="M52.7143 34.7804V19H43.9069V34.7804C43.907 36.524 44.3033 38.2447 45.0659 39.8126C45.8285 41.3806 46.9374 42.7547 48.3089 43.8312C49.6827 42.7565 50.7935 41.3828 51.5568 39.8145C52.3202 38.2463 52.716 36.5246 52.7143 34.7804Z" fill="white"/>
<path d="M22.3895 27.82C23.4655 27.82 24.4973 28.2475 25.2582 29.0083C26.019 29.7691 26.4464 30.801 26.4464 31.8769V30.5191C26.4449 28.7767 26.8392 27.0566 27.5995 25.4888C28.3598 23.9209 29.4662 22.5462 30.8353 21.4684C28.8088 19.8727 26.3037 19.0064 23.7243 19.0093H19V27.82H22.3895Z" fill="white"/>
<path d="M35.2605 30.5196V31.8774C35.26 31.3448 35.3646 30.8173 35.5681 30.3251C35.7716 29.833 36.0701 29.3857 36.4466 29.0089C36.823 28.6322 37.2701 28.3333 37.7621 28.1294C38.2541 27.9255 38.7815 27.8205 39.3141 27.8205H42.7167V19.0098H37.9662C35.3868 19.0069 32.8817 19.8732 30.8551 21.4689C32.2272 22.5451 33.3368 23.919 34.1 25.487C34.8632 27.0549 35.26 28.7758 35.2605 30.5196Z" fill="white"/>
<path d="M26.4496 30.5197V46.3002H35.2538V30.5197C35.2537 28.7762 34.8573 27.0555 34.0947 25.4875C33.3321 23.9196 32.2232 22.5455 30.8517 21.469C29.4789 22.5444 28.369 23.9182 27.6063 25.4864C26.8436 27.0546 26.448 28.7759 26.4496 30.5197Z" fill="white"/>
</svg>
