<svg width="250" height="60" viewBox="0 0 250 60" fill="none" xmlns="http://www.w3.org/2000/svg">
<g clip-path="url(#clip0)">
<path d="M67.9488 19.6487C67.5385 19.5844 67.5213 19.5771 67.7142 19.5473C68.0837 19.4911 68.9568 19.5681 69.5591 19.7112C70.9639 20.0454 72.2418 20.9004 73.6058 22.4202L73.9681 22.8232L74.4862 22.7399C76.6708 22.3894 78.8934 22.6683 80.7519 23.5269C81.2636 23.7633 82.0697 24.2334 82.1711 24.3539C82.2028 24.3928 82.2617 24.6401 82.3016 24.9054C82.4401 25.8202 82.3704 26.5221 82.0905 27.0456C81.9384 27.3309 81.9293 27.4215 82.0326 27.6651C82.0812 27.766 82.1571 27.8512 82.2517 27.9111C82.3464 27.971 82.4559 28.0031 82.5678 28.0039C83.0298 28.0039 83.527 27.2567 83.757 26.2178L83.8476 25.8048L84.0288 26.0104C85.025 27.1371 85.8039 28.6732 85.9389 29.7664L85.9733 30.0517L85.8067 29.7926C85.567 29.3956 85.2437 29.0557 84.8593 28.7964C84.1927 28.3544 83.4871 28.2049 81.6187 28.1062C79.9313 28.0156 78.9767 27.8734 78.0293 27.5628C76.419 27.0375 75.6066 26.3374 73.6928 23.8267C72.8423 22.7118 72.317 22.095 71.7908 21.5978C70.6088 20.472 69.4423 19.8797 67.9488 19.6487Z" fill="white"/>
<path d="M82.5528 22.1383C82.5954 21.3911 82.6959 20.8984 82.8997 20.4483C82.9446 20.3347 83.0011 20.2261 83.0682 20.124C83.0556 20.2243 83.0294 20.3225 82.9903 20.4157C82.8418 20.8531 82.8173 21.4509 82.9196 22.1456C83.0492 23.0277 83.1225 23.1554 84.0554 24.1082C84.492 24.5548 85.001 25.1181 85.1857 25.3608L85.5208 25.801L85.1857 25.4858C84.7754 25.1018 83.8326 24.3519 83.6243 24.2441C83.4848 24.1726 83.464 24.1735 83.3779 24.2595C83.2919 24.3455 83.2819 24.4569 83.2702 25.0185C83.2539 25.8934 83.1343 26.4549 82.8463 27.0156C82.6905 27.3199 82.6651 27.2547 82.8073 26.9123C82.9124 26.656 82.9233 26.5437 82.9224 25.6969C82.9224 23.995 82.7186 23.5866 81.5339 22.8892C81.2341 22.708 80.7396 22.4562 80.4353 22.3204C80.2503 22.246 80.0708 22.1585 79.8982 22.0586C79.9317 22.0251 81.0865 22.362 81.552 22.5405C82.2431 22.8067 82.3572 22.8412 82.4414 22.8122C82.5003 22.7841 82.5248 22.6202 82.5528 22.1383Z" fill="white"/>
<path d="M68.7453 25.0494C67.9129 23.9028 67.3976 22.1457 67.509 20.8324L67.5443 20.4258L67.7336 20.4602C68.1724 20.5561 68.5953 20.7138 68.9898 20.9284C69.7787 21.4067 70.1192 22.037 70.467 23.6555C70.5685 24.1301 70.7025 24.6672 70.7632 24.8484C70.8628 25.1409 71.236 25.8238 71.5394 26.2676C71.7586 26.5864 71.6127 26.7377 71.1291 26.6942C70.3909 26.6281 69.391 25.937 68.7453 25.0494Z" fill="white"/>
<path d="M81.5426 33.5788C77.6526 32.0128 76.2823 30.6534 76.2823 28.3592C76.2742 28.1541 76.2826 27.9488 76.3076 27.7451C76.425 27.8196 76.537 27.9022 76.6427 27.9924C77.4316 28.6264 78.3147 28.8981 80.7601 29.2522C82.1993 29.4623 83.009 29.6317 83.7562 29.8799C86.1301 30.6669 87.6 32.2655 87.9496 34.4419C88.052 35.0759 87.9922 36.2606 87.8274 36.8874C87.697 37.381 87.2993 38.2713 87.1934 38.3057C87.1644 38.3148 87.1354 38.2025 87.1282 38.0503C87.0883 37.2352 86.6753 36.4372 85.9815 35.8413C85.1927 35.162 84.1303 34.6222 81.5426 33.5788Z" fill="white"/>
<path d="M78.8113 34.2298C78.7656 33.9518 78.7029 33.6769 78.6238 33.4065L78.5242 33.1104L78.7053 33.3178C78.9879 33.6526 79.2013 34.0402 79.333 34.458C79.4634 34.8312 79.4779 34.9417 79.477 35.5449C79.4761 36.1481 79.4598 36.264 79.3393 36.5991C79.1715 37.0926 78.8905 37.5399 78.5187 37.9052C77.8078 38.6297 76.8939 39.0292 75.5752 39.1958C75.346 39.2239 74.6785 39.2728 74.0907 39.3036C72.6108 39.3806 71.6371 39.5391 70.7622 39.847C70.6834 39.8824 70.5986 39.9024 70.5122 39.9059C70.4769 39.8715 71.0729 39.5155 71.5647 39.2791C72.2594 38.944 72.9495 38.762 74.4974 38.5048C75.2627 38.377 76.0525 38.2222 76.2526 38.1606C78.1528 37.5818 79.1228 36.0838 78.8113 34.2298Z" fill="white"/>
<path d="M80.598 37.3968C80.0818 36.2855 79.964 35.2122 80.2457 34.2123C80.2765 34.1054 80.3254 34.0176 80.3544 34.0176C80.4517 34.0529 80.5432 34.1023 80.6261 34.1643C80.8643 34.3246 81.3425 34.5945 82.6187 35.2883C84.2064 36.1541 85.1121 36.828 85.728 37.5906C86.2718 38.276 86.6266 39.092 86.7569 39.9572C86.8474 40.4852 86.7949 41.7551 86.659 42.2867C86.2325 43.9623 85.2398 45.2755 83.8242 46.0463C83.6909 46.1237 83.5526 46.192 83.4103 46.251C83.3903 46.251 83.4655 46.0599 83.5787 45.8244C84.0542 44.8281 84.1086 43.8608 83.749 42.783C83.5289 42.1237 83.0788 41.3185 82.1712 39.9572C81.1125 38.3749 80.8543 37.9547 80.598 37.3968Z" fill="white"/>
<path d="M65.9828 43.3921C67.4265 42.173 69.2226 41.3089 70.8583 41.0372C71.5638 40.9231 72.7385 40.9684 73.3943 41.1359C74.4413 41.4031 75.3778 42.0036 75.8642 42.7182C76.3406 43.4165 76.5443 44.0251 76.7572 45.3801C76.8405 45.9145 76.932 46.4506 76.9601 46.5729C77.1195 47.2748 77.4301 47.8355 77.8151 48.1171C78.4264 48.5646 79.4788 48.5926 80.515 48.1887C80.6226 48.1386 80.7366 48.1032 80.8537 48.0836C80.8918 48.1208 80.3701 48.4695 80.0024 48.6533C79.5686 48.8862 79.0826 49.0043 78.5903 48.9966C77.6421 48.9966 76.8541 48.5138 76.1975 47.5302C75.9556 47.1143 75.7396 46.6839 75.5508 46.2414C74.857 44.6591 74.5146 44.1764 73.7086 43.6493C73.0084 43.1901 72.1036 43.1059 71.4235 43.441C70.5304 43.8793 70.2814 45.0214 70.9208 45.7451C71.2198 46.0556 71.6118 46.2603 72.0375 46.3284C72.2069 46.351 72.3791 46.3369 72.5425 46.2871C72.7059 46.2373 72.8567 46.1529 72.9846 46.0397C73.1125 45.9264 73.2146 45.787 73.2839 45.6308C73.3531 45.4747 73.388 45.3055 73.3861 45.1346C73.3861 44.6591 73.205 44.3874 72.7431 44.18C72.1145 43.8956 71.4389 44.2271 71.4425 44.814C71.4425 45.0658 71.5539 45.2243 71.8048 45.3384C71.9669 45.4118 71.9705 45.4172 71.8383 45.39C71.2613 45.2705 71.1264 44.5749 71.5901 44.1139C72.1471 43.5596 73.2983 43.8042 73.6932 44.5604C73.8598 44.8783 73.8788 45.5105 73.7339 45.8927C73.4097 46.7477 72.4659 47.1978 71.5068 46.9533C70.8538 46.7866 70.5884 46.6064 69.8013 45.7958C68.4346 44.3874 67.8993 44.1139 65.9321 43.8032L65.5544 43.7435L65.9828 43.3921Z" fill="white"/>
<path fill-rule="evenodd" clip-rule="evenodd" d="M55.6724 11.8423C60.239 17.3844 67.2781 26.0122 67.6278 26.4958C67.9167 26.8943 67.8089 27.253 67.3135 27.5338C66.9634 27.7112 66.5818 27.818 66.1904 27.848C65.8372 27.8343 65.5015 27.6908 65.2475 27.445C65.0664 27.2693 64.3128 26.1507 62.5829 23.468C61.2606 21.4148 60.1529 19.712 60.123 19.683C60.0533 19.6178 60.0542 19.6196 62.448 23.9037C63.9515 26.5936 64.4596 27.5446 64.4596 27.6714C64.4596 27.9305 64.3889 28.0663 64.0692 28.4223C63.5376 29.0155 63.3003 29.6821 63.1282 31.0624C62.9362 32.6094 62.3946 33.7025 60.8947 35.5728C60.0171 36.6678 59.8731 36.868 59.6521 37.31C59.3731 37.8652 59.2961 38.1768 59.2653 38.8787C59.2204 39.5328 59.3079 40.1892 59.5225 40.8088C59.7209 41.4301 59.9283 41.8404 60.4581 42.66C60.911 43.3683 61.1827 43.8936 61.1827 44.1001C61.1827 44.2631 61.2135 44.264 61.9218 44.1001C63.6164 43.7179 64.993 43.044 65.7665 42.2199C66.2456 41.709 66.3579 41.4274 66.3616 40.7272C66.3616 40.2699 66.348 40.1738 66.2239 39.9121C66.0228 39.4837 65.656 39.1268 64.8481 38.5744C63.7903 37.8498 63.3374 37.2683 63.2124 36.4668C63.1101 35.8101 63.2296 35.3464 63.8147 34.1183C64.4206 32.8503 64.571 32.3068 64.6724 31.0262C64.7385 30.1993 64.8291 29.8723 65.0673 29.6105C65.3055 29.3488 65.5383 29.2483 66.1542 29.1577C67.155 29.0209 67.7917 28.7619 68.3152 28.2792C68.768 27.8607 68.9591 27.4577 68.9881 26.8508L69.0108 26.3907L68.7572 26.0946C67.8279 25.0295 55.0574 11 55.0003 11C54.9886 11 55.2911 11.3786 55.6724 11.8423ZM61.6935 39.7183C61.7935 39.5406 61.8233 39.332 61.777 39.1335C61.7307 38.935 61.6118 38.761 61.4436 38.6459C61.1157 38.4276 60.6049 38.53 60.6049 38.8144C60.6049 38.9049 60.6529 38.9647 60.7616 39.02C60.9427 39.1105 60.9572 39.2201 60.8132 39.4348C60.6692 39.6494 60.68 39.8451 60.8467 39.9782C61.1148 40.1856 61.4952 40.0706 61.6935 39.7183Z" fill="white"/>
<path fill-rule="evenodd" clip-rule="evenodd" d="M69.6391 29.405C69.169 29.5499 68.7125 30.0471 68.5712 30.5688C68.4852 30.8876 68.5341 31.4456 68.6618 31.6185C68.8701 31.8966 69.0721 31.97 69.6182 31.9663C70.6879 31.9591 71.6172 31.4999 71.7249 30.9266C71.8155 30.4574 71.4052 29.8053 70.8428 29.52C70.5502 29.3724 69.9325 29.3135 69.6391 29.405ZM70.889 30.3832C71.0538 30.1486 70.9795 29.895 70.7015 29.7238C70.1671 29.3977 69.3592 29.6676 69.3592 30.1721C69.3592 30.423 69.7804 30.6974 70.1671 30.6974C70.4189 30.6974 70.7712 30.5444 70.8844 30.3832H70.889Z" fill="white"/>
</g>
<path d="M104.463 42.3198C103.454 42.3198 102.587 42.1777 101.862 41.8934C101.137 41.5949 100.532 41.1826 100.049 40.6567C99.58 40.1307 99.2318 39.5124 99.0043 38.8016C98.7769 38.0908 98.6632 37.309 98.6632 36.4561V27.2234H101.371V36.2002C101.371 36.8683 101.442 37.4441 101.584 37.9274C101.741 38.3965 101.954 38.7803 102.224 39.0788C102.508 39.3773 102.835 39.5976 103.205 39.7398C103.589 39.8819 104.015 39.953 104.484 39.953C104.953 39.953 105.38 39.8819 105.764 39.7398C106.147 39.5976 106.474 39.3773 106.744 39.0788C107.029 38.7803 107.242 38.3965 107.384 37.9274C107.541 37.4441 107.619 36.8683 107.619 36.2002V27.2234H110.327V36.4561C110.327 37.309 110.206 38.0908 109.964 38.8016C109.737 39.5124 109.381 40.1307 108.898 40.6567C108.429 41.1826 107.825 41.5949 107.086 41.8934C106.346 42.1777 105.472 42.3198 104.463 42.3198ZM123.72 42C123.237 41.1897 122.697 40.3226 122.099 39.3986C121.502 38.4604 120.884 37.5222 120.244 36.584C119.605 35.6316 118.951 34.7147 118.283 33.8334C117.629 32.9379 117.003 32.1347 116.406 31.4239V42H113.762V27.2234H115.959C116.527 27.8204 117.138 28.5312 117.792 29.3556C118.446 30.1659 119.1 31.0117 119.754 31.893C120.422 32.7744 121.062 33.6628 121.673 34.5584C122.298 35.4397 122.853 36.2642 123.336 37.0318V27.2234H126.002V42H123.72ZM129.546 27.2234H132.233V42H129.546V27.2234ZM139.354 39.9957C140.321 39.9957 141.025 39.8322 141.465 39.5052C141.906 39.1783 142.126 38.7163 142.126 38.1193C142.126 37.7639 142.048 37.4583 141.892 37.2024C141.75 36.9465 141.536 36.7191 141.252 36.5201C140.982 36.3068 140.648 36.1149 140.25 35.9444C139.852 35.7596 139.397 35.5819 138.885 35.4113C138.374 35.2265 137.876 35.0275 137.393 34.8143C136.924 34.5868 136.504 34.3096 136.135 33.9827C135.779 33.6557 135.488 33.2648 135.26 32.8099C135.047 32.355 134.941 31.8078 134.941 31.1681C134.941 29.8318 135.403 28.787 136.327 28.0336C137.251 27.266 138.509 26.8822 140.101 26.8822C141.025 26.8822 141.842 26.9888 142.553 27.202C143.278 27.4011 143.846 27.6214 144.259 27.8631L143.427 30.038C142.944 29.7679 142.411 29.5618 141.828 29.4196C141.259 29.2775 140.669 29.2064 140.058 29.2064C139.333 29.2064 138.764 29.3556 138.352 29.6542C137.954 29.9527 137.755 30.372 137.755 30.9122C137.755 31.2391 137.819 31.5234 137.947 31.7651C138.089 31.9925 138.281 32.1987 138.523 32.3835C138.779 32.5683 139.07 32.7388 139.397 32.8952C139.738 33.0516 140.108 33.2008 140.506 33.343C141.202 33.5989 141.821 33.8618 142.361 34.1319C142.915 34.3878 143.377 34.7005 143.747 35.0701C144.131 35.4255 144.422 35.852 144.621 36.3495C144.82 36.8328 144.92 37.4227 144.92 38.1193C144.92 39.4555 144.443 40.4932 143.491 41.2324C142.553 41.9574 141.174 42.3198 139.354 42.3198C138.743 42.3198 138.182 42.2772 137.67 42.1919C137.172 42.1208 136.725 42.0284 136.327 41.9147C135.943 41.801 135.609 41.6873 135.324 41.5735C135.04 41.4456 134.813 41.3319 134.642 41.2324L135.431 39.0361C135.815 39.2494 136.334 39.4626 136.988 39.6758C137.641 39.8891 138.43 39.9957 139.354 39.9957ZM156.755 28.8865C156.982 29.6542 157.224 30.4573 157.479 31.296C157.735 32.1205 157.998 32.9521 158.268 33.7908C158.553 34.6152 158.83 35.4326 159.1 36.2429C159.384 37.0389 159.654 37.7923 159.91 38.5031C160.124 37.7355 160.33 36.9039 160.529 36.0083C160.728 35.0986 160.927 34.1604 161.126 33.1937C161.325 32.2129 161.517 31.2178 161.701 30.2085C161.9 29.1993 162.085 28.2042 162.256 27.2234H165.028C164.53 29.8958 163.976 32.4688 163.365 34.9422C162.753 37.4014 162.071 39.754 161.318 42H158.759C157.65 39.1285 156.577 35.9941 155.539 32.5967C155.013 34.3167 154.48 35.9515 153.94 37.5009C153.4 39.0504 152.86 40.5501 152.319 42H149.761C148.993 39.754 148.304 37.4014 147.692 34.9422C147.095 32.4688 146.548 29.8958 146.051 27.2234H148.929C149.1 28.19 149.277 29.178 149.462 30.1872C149.661 31.1965 149.86 32.1916 150.059 33.1724C150.272 34.139 150.486 35.0772 150.699 35.987C150.912 36.8968 151.125 37.7355 151.339 38.5031C151.609 37.7781 151.879 37.0176 152.149 36.2215C152.433 35.4113 152.71 34.5939 152.98 33.7694C153.25 32.9307 153.506 32.0992 153.748 31.2747C154.004 30.4502 154.238 29.6542 154.452 28.8865H156.755ZM176.773 42C176.574 41.4172 176.368 40.8415 176.155 40.2729C175.942 39.7043 175.736 39.1214 175.537 38.5244H169.31C169.111 39.1214 168.905 39.7114 168.692 40.2942C168.493 40.8628 168.294 41.4314 168.095 42H165.302C165.856 40.4221 166.382 38.9651 166.88 37.6288C167.377 36.2926 167.86 35.0275 168.33 33.8334C168.813 32.6393 169.289 31.5021 169.758 30.4218C170.227 29.3414 170.711 28.2753 171.208 27.2234H173.746C174.243 28.2753 174.726 29.3414 175.195 30.4218C175.665 31.5021 176.134 32.6393 176.603 33.8334C177.086 35.0275 177.577 36.2926 178.074 37.6288C178.586 38.9651 179.119 40.4221 179.673 42H176.773ZM172.424 30.0806C172.097 30.834 171.72 31.7509 171.293 32.8312C170.881 33.9116 170.448 35.0843 169.993 36.3495H174.854C174.399 35.0843 173.959 33.9045 173.532 32.8099C173.106 31.7154 172.736 30.8056 172.424 30.0806ZM185.72 27.0741C187.867 27.0741 189.509 27.465 190.646 28.2469C191.797 29.0287 192.373 30.2512 192.373 31.9144C192.373 32.7815 192.217 33.5278 191.904 34.1532C191.605 34.7645 191.165 35.2691 190.582 35.6672C189.999 36.051 189.288 36.3353 188.45 36.5201C187.611 36.7049 186.651 36.7973 185.571 36.7973H184.228V42H181.541V27.4366C182.166 27.2944 182.856 27.202 183.609 27.1594C184.377 27.1025 185.081 27.0741 185.72 27.0741ZM185.912 29.3983C185.23 29.3983 184.668 29.4196 184.228 29.4623V34.4944H185.528C186.822 34.4944 187.817 34.3167 188.514 33.9613C189.21 33.5917 189.558 32.9023 189.558 31.893C189.558 31.4097 189.466 31.0046 189.281 30.6776C189.096 30.3507 188.84 30.0948 188.514 29.91C188.187 29.7252 187.796 29.5973 187.341 29.5262C186.9 29.4409 186.424 29.3983 185.912 29.3983Z" fill="white"/>
<defs>
<clipPath id="clip0">
<rect width="33.0005" height="38" fill="white" transform="translate(55 11)"/>
</clipPath>
</defs>
</svg>
