<svg width="250" height="60" viewBox="0 0 250 60" fill="none" xmlns="http://www.w3.org/2000/svg">
<path d="M101.036 36.493C101.055 36.4632 101.072 36.4322 101.086 36.4001C101.24 36.0607 101.39 35.7212 101.54 35.3818C101.629 35.1817 101.722 34.9852 101.812 34.7851C101.881 34.6503 101.941 34.5106 101.99 34.367L101.736 34.2241L101.99 34.367C102.099 34.1673 102.192 33.9594 102.269 33.7453C102.29 33.716 102.308 33.6849 102.322 33.6524C102.369 33.5309 102.412 33.4058 102.465 33.295C102.517 33.2154 102.561 33.1304 102.594 33.0414L102.64 32.9449C102.766 32.6662 102.887 32.3839 102.998 32.1052C103.04 32.048 103.073 31.9839 103.094 31.9158C103.205 31.6585 103.334 31.412 103.427 31.1476C103.502 31.0118 103.552 30.8653 103.616 30.7259C103.68 30.5866 103.755 30.4079 103.823 30.2471C103.852 30.1757 103.92 30.1185 103.927 30.0328C103.959 30.0113 103.966 29.972 103.98 29.9434C104.177 29.5004 104.373 29.0573 104.566 28.6142C104.656 28.4442 104.735 28.2688 104.802 28.089C104.802 28.064 104.834 28.0389 104.849 28.0104C105.394 26.7836 105.943 25.5604 106.496 24.3407C106.52 24.2947 106.532 24.2427 106.528 24.1906C106.528 24.1906 106.56 24.1906 106.564 24.1656C106.627 23.9948 106.704 23.8298 106.796 23.6725L108.929 18.9167C109.287 18.1556 109.615 17.3981 109.955 16.6334C109.976 16.587 110.019 16.5405 109.99 16.4691H105.538C105.342 16.4691 105.149 16.4691 104.952 16.4905C104.013 16.5692 103.111 16.8953 102.338 17.4357C101.566 17.9761 100.95 18.7114 100.554 19.567C100.379 19.9457 100.196 20.3173 100.025 20.6997C100.025 20.7318 99.9892 20.764 99.9749 20.7962C99.6176 21.5572 99.2603 22.3219 98.903 23.0865C98.7886 23.3331 98.66 23.5725 98.5457 23.8298C98.4695 23.9552 98.4038 24.0867 98.3491 24.2228C98.2062 24.5265 98.0526 24.8195 97.9311 25.1268C97.8096 25.4341 97.6488 25.6985 97.5166 25.9915L97.1807 26.7061C97.1016 26.8321 97.0391 26.9679 96.9949 27.1099C96.9352 27.2079 96.8838 27.3107 96.8413 27.4172C96.8002 27.4813 96.7689 27.5511 96.7484 27.6244C96.7401 27.6277 96.7334 27.6338 96.7294 27.6418C96.7254 27.6497 96.7245 27.6588 96.7269 27.6673L96.7019 27.7209C96.5947 27.9032 96.5304 28.1068 96.4089 28.2998L96.2874 28.0711C96.1659 27.7674 96.0409 27.4637 95.8908 27.1707C95.8908 27.0921 95.805 27.0527 95.7979 26.9741C95.7856 26.8888 95.7525 26.8078 95.7014 26.7383C95.5728 26.4096 95.4299 26.0844 95.2762 25.77C95.2352 25.7141 95.2049 25.6511 95.1869 25.5842C95.0511 25.2269 94.8903 24.8695 94.7224 24.5122C94.7224 24.4801 94.6974 24.4443 94.6831 24.4122L94.1614 23.2259C94.0578 22.9936 93.9685 22.7542 93.8434 22.5291V22.497C93.8361 22.4547 93.8176 22.4153 93.7898 22.3826C93.7684 22.329 93.7505 22.2754 93.729 22.2254C92.9894 20.5425 92.2533 18.8595 91.5065 17.1801C91.1099 16.2874 90.4755 15.5209 89.6727 14.9645C88.8698 14.408 87.9294 14.083 86.9543 14.025V14H81.7197V14.0286C81.7219 14.0696 81.7355 14.1092 81.759 14.1429C82.4736 15.7127 83.1763 17.2825 83.8671 18.8524L87.233 26.356L90.599 33.8596L93.897 41.2203C94.6307 42.8544 95.362 44.4897 96.0909 46.1263C96.1151 46.1938 96.153 46.2557 96.2022 46.3079C96.2513 46.3602 96.3108 46.4017 96.3768 46.43H96.4375C96.5702 46.3616 96.6704 46.2434 96.7162 46.1012C97.2331 44.9435 97.7524 43.7846 98.2741 42.6246C98.4206 42.2958 98.5778 41.9742 98.71 41.6384C98.7673 41.5375 98.814 41.4309 98.8494 41.3204C98.9387 41.1024 99.0423 40.888 99.1388 40.67C99.2639 40.3806 99.3854 40.0912 99.5283 39.8089C99.5864 39.7124 99.6354 39.6107 99.6748 39.5052C99.8141 39.1872 99.9678 38.8763 100.093 38.5512C100.2 38.3618 100.254 38.1474 100.35 37.9544C100.447 37.7615 100.5 37.5971 100.597 37.4328C100.761 37.1398 100.908 36.8218 101.036 36.493Z" fill="white"/>
<path d="M86.7257 27.2711L86.4863 26.753C86.1754 27.4677 85.8753 28.1823 85.5787 28.8969C85.5644 28.8924 85.5515 28.8846 85.5409 28.874C85.5303 28.8634 85.5224 28.8505 85.518 28.8362C85.4215 28.6325 85.3143 28.4288 85.2214 28.2252C83.5539 24.6068 81.896 20.9895 80.2476 17.3735C79.8911 16.5453 79.3351 15.8183 78.6294 15.2571C77.9236 14.696 77.09 14.3183 76.2027 14.1577C75.9312 14.1005 75.6525 14.0862 75.3773 14.0505V14.0183H70.0962C70.0212 14.0183 69.989 14.0362 70.0033 14.1148H70.0533C70.069 14.1414 70.0833 14.1689 70.0962 14.197C70.7108 15.5071 71.323 16.8173 71.9328 18.1274L76.2206 27.3212L81.0122 37.594C82.3271 40.4073 83.6373 43.2205 84.9427 46.0338C84.9674 46.0908 84.9986 46.1447 85.0356 46.1946C85.0599 46.23 85.0924 46.2589 85.1304 46.2789C85.1684 46.2989 85.2106 46.3093 85.2535 46.3093C85.2965 46.3093 85.3387 46.2989 85.3767 46.2789C85.4147 46.2589 85.4472 46.23 85.4715 46.1946C85.5163 46.1318 85.5523 46.0633 85.5787 45.9909C86.0551 45.0047 86.5173 44.0161 86.9651 43.0252C88.1085 40.5764 89.2531 38.1288 90.3989 35.6824C90.4208 35.6398 90.4323 35.5927 90.4323 35.5448C90.4323 35.4969 90.4208 35.4498 90.3989 35.4072C89.1721 32.6892 87.9477 29.9772 86.7257 27.2711Z" fill="white"/>
<path d="M131.237 24.8865C131.465 25.6542 131.706 26.4573 131.962 27.296C132.218 28.1205 132.481 28.9521 132.751 29.7908C133.035 30.6152 133.312 31.4326 133.583 32.2429C133.867 33.0389 134.137 33.7923 134.393 34.5031C134.606 33.7355 134.812 32.9039 135.011 32.0083C135.21 31.0986 135.409 30.1604 135.608 29.1937C135.807 28.2129 135.999 27.2178 136.184 26.2085C136.383 25.1993 136.568 24.2042 136.738 23.2234H139.51C139.013 25.8958 138.458 28.4688 137.847 30.9422C137.236 33.4014 136.554 35.754 135.8 38H133.241C132.133 35.1285 131.059 31.9941 130.022 28.5967C129.496 30.3167 128.963 31.9515 128.422 33.5009C127.882 35.0504 127.342 36.5501 126.802 38H124.243C123.476 35.754 122.786 33.4014 122.175 30.9422C121.578 28.4688 121.031 25.8958 120.533 23.2234H123.412C123.582 24.19 123.76 25.178 123.945 26.1872C124.144 27.1965 124.343 28.1916 124.542 29.1724C124.755 30.139 124.968 31.0772 125.181 31.987C125.395 32.8968 125.608 33.7355 125.821 34.5031C126.091 33.7781 126.361 33.0176 126.631 32.2215C126.916 31.4113 127.193 30.5939 127.463 29.7694C127.733 28.9307 127.989 28.0992 128.231 27.2747C128.486 26.4502 128.721 25.6542 128.934 24.8865H131.237ZM145.014 36.1876C145.81 36.1876 146.414 36.1449 146.826 36.0596V33.2024C146.684 33.1597 146.478 33.1171 146.208 33.0745C145.938 33.0318 145.639 33.0105 145.312 33.0105C145.028 33.0105 144.737 33.0318 144.438 33.0745C144.154 33.1171 143.891 33.1953 143.649 33.309C143.422 33.4227 143.237 33.5862 143.095 33.7994C142.953 33.9984 142.882 34.2543 142.882 34.567C142.882 35.1783 143.073 35.6048 143.457 35.8464C143.841 36.0738 144.36 36.1876 145.014 36.1876ZM144.801 26.571C145.654 26.571 146.371 26.6776 146.954 26.8909C147.537 27.1041 147.999 27.4026 148.34 27.7864C148.696 28.1702 148.944 28.6393 149.086 29.1937C149.243 29.7339 149.321 30.3309 149.321 30.9848V37.7441C148.923 37.8294 148.319 37.9289 147.509 38.0426C146.713 38.1706 145.81 38.2345 144.801 38.2345C144.133 38.2345 143.521 38.1706 142.967 38.0426C142.412 37.9147 141.936 37.7086 141.538 37.4243C141.154 37.14 140.849 36.7704 140.621 36.3155C140.408 35.8606 140.302 35.2991 140.302 34.631C140.302 33.9913 140.422 33.4512 140.664 33.0105C140.92 32.5698 141.261 32.2144 141.688 31.9444C142.114 31.6601 142.604 31.461 143.159 31.3473C143.727 31.2194 144.317 31.1554 144.929 31.1554C145.213 31.1554 145.511 31.1767 145.824 31.2194C146.137 31.2478 146.471 31.3047 146.826 31.39V30.9635C146.826 30.665 146.791 30.3807 146.72 30.1106C146.649 29.8405 146.521 29.606 146.336 29.407C146.165 29.1937 145.931 29.0303 145.632 28.9165C145.348 28.8028 144.985 28.7459 144.545 28.7459C143.948 28.7459 143.4 28.7886 142.903 28.8739C142.405 28.9592 142 29.0587 141.688 29.1724L141.368 27.0828C141.695 26.9691 142.171 26.8553 142.796 26.7416C143.422 26.6279 144.09 26.571 144.801 26.571ZM161.628 37.6588C161.131 37.7868 160.484 37.9147 159.688 38.0426C158.892 38.1848 158.017 38.2559 157.065 38.2559C156.169 38.2559 155.416 38.1279 154.805 37.8721C154.208 37.6162 153.724 37.2608 153.355 36.8059C152.999 36.351 152.744 35.8109 152.587 35.1854C152.431 34.5457 152.353 33.8492 152.353 33.0958V26.8482H154.933V32.6906C154.933 33.8847 155.103 34.7376 155.444 35.2494C155.8 35.7611 156.411 36.017 157.278 36.017C157.591 36.017 157.918 36.0028 158.259 35.9743C158.614 35.9459 158.877 35.9104 159.048 35.8677V26.8482H161.628V37.6588ZM168.793 38.2132C168.025 38.199 167.385 38.1137 166.874 37.9574C166.376 37.801 165.978 37.5807 165.68 37.2964C165.381 36.9978 165.168 36.6353 165.04 36.2089C164.926 35.7682 164.869 35.2707 164.869 34.7163V21.88L167.449 21.4536V34.2259C167.449 34.5386 167.471 34.8016 167.513 35.0148C167.57 35.228 167.663 35.4128 167.79 35.5692C167.918 35.7114 168.089 35.8251 168.302 35.9104C168.53 35.9815 168.814 36.0383 169.155 36.081L168.793 38.2132ZM171.114 23.9057L173.694 23.4792V26.8482H177.66V29.0018H173.694V33.5436C173.694 34.4391 173.836 35.0788 174.121 35.4626C174.405 35.8464 174.888 36.0383 175.571 36.0383C176.04 36.0383 176.452 35.9886 176.807 35.8891C177.177 35.7895 177.468 35.6971 177.682 35.6119L178.108 37.6588C177.809 37.7868 177.419 37.9147 176.935 38.0426C176.452 38.1848 175.883 38.2559 175.229 38.2559C174.433 38.2559 173.765 38.1493 173.225 37.936C172.699 37.7228 172.28 37.4172 171.967 37.0192C171.654 36.6069 171.434 36.1165 171.306 35.5479C171.178 34.9651 171.114 34.3041 171.114 33.5649V23.9057Z" fill="white"/>
</svg>
