<svg width="80" height="80" viewBox="0 0 80 80" fill="none" xmlns="http://www.w3.org/2000/svg">
<path d="M51.0362 38.493C51.055 38.4632 51.0717 38.4322 51.0862 38.4001C51.2399 38.0607 51.39 37.7212 51.54 37.3818C51.6294 37.1817 51.7223 36.9852 51.8116 36.7851C51.8814 36.6503 51.9411 36.5106 51.9902 36.367L51.7365 36.2241L51.9902 36.367C52.0991 36.1673 52.1923 35.9594 52.269 35.7453C52.2897 35.716 52.3076 35.6849 52.3225 35.6524C52.369 35.5309 52.4119 35.4058 52.4655 35.295C52.5175 35.2154 52.5606 35.1304 52.5941 35.0414L52.6406 34.9449C52.7656 34.6662 52.8871 34.3839 52.9979 34.1052C53.0405 34.048 53.0731 33.9839 53.0944 33.9158C53.2051 33.6585 53.3338 33.412 53.4267 33.1476C53.5017 33.0118 53.5517 32.8653 53.616 32.7259C53.6803 32.5866 53.7554 32.4079 53.8233 32.2471C53.8519 32.1757 53.9197 32.1185 53.9269 32.0328C53.9591 32.0113 53.9662 31.972 53.9805 31.9434C54.177 31.5004 54.3735 31.0573 54.5665 30.6142C54.6559 30.4442 54.7347 30.2688 54.8023 30.089C54.8023 30.064 54.8345 30.0389 54.8488 30.0104C55.3943 28.7836 55.9433 27.5604 56.496 26.3407C56.5205 26.2947 56.5317 26.2427 56.5282 26.1906C56.5282 26.1906 56.5603 26.1906 56.5639 26.1656C56.6267 25.9948 56.7044 25.8298 56.7961 25.6725L58.9293 20.9167C59.2866 20.1556 59.6154 19.3981 59.9548 18.6334C59.9762 18.587 60.0191 18.5405 59.9905 18.4691H55.5384C55.3419 18.4691 55.1489 18.4691 54.9524 18.4905C54.0129 18.5692 53.1109 18.8953 52.3383 19.4357C51.5657 19.9761 50.95 20.7114 50.5538 21.567C50.3787 21.9457 50.1965 22.3173 50.025 22.6997C50.025 22.7318 49.9893 22.764 49.975 22.7962C49.6177 23.5572 49.2604 24.3219 48.903 25.0865C48.7887 25.3331 48.6601 25.5725 48.5457 25.8298C48.4696 25.9552 48.4039 26.0867 48.3492 26.2228C48.2063 26.5265 48.0526 26.8195 47.9311 27.1268C47.8097 27.4341 47.6489 27.6985 47.5167 27.9915L47.1808 28.7061C47.1017 28.8321 47.0392 28.9679 46.995 29.1099C46.9353 29.2079 46.8839 29.3107 46.8413 29.4172C46.8003 29.4813 46.769 29.5511 46.7484 29.6244C46.7402 29.6277 46.7334 29.6338 46.7295 29.6418C46.7255 29.6497 46.7246 29.6588 46.727 29.6673L46.702 29.7209C46.5948 29.9032 46.5305 30.1068 46.409 30.2998L46.2875 30.0711C46.166 29.7674 46.0409 29.4637 45.8909 29.1707C45.8909 29.0921 45.8051 29.0527 45.798 28.9741C45.7856 28.8888 45.7525 28.8078 45.7015 28.7383C45.5729 28.4096 45.4299 28.0844 45.2763 27.77C45.2352 27.7141 45.2049 27.6511 45.187 27.5842C45.0512 27.2269 44.8904 26.8695 44.7224 26.5122C44.7224 26.4801 44.6974 26.4443 44.6831 26.4122L44.1615 25.2259C44.0578 24.9936 43.9685 24.7542 43.8435 24.5291V24.497C43.8361 24.4547 43.8176 24.4153 43.7899 24.3826C43.7684 24.329 43.7505 24.2754 43.7291 24.2254C42.9895 22.5425 42.2534 20.8595 41.5066 19.1801C41.11 18.2874 40.4756 17.5209 39.6727 16.9645C38.8699 16.408 37.9295 16.083 36.9544 16.025V16H31.7197V16.0286C31.722 16.0696 31.7356 16.1092 31.759 16.1429C32.4737 17.7127 33.1764 19.2825 33.8672 20.8524L37.2331 28.356L40.599 35.8596L43.897 43.2203C44.6307 44.8544 45.362 46.4897 46.091 48.1263C46.1152 48.1938 46.153 48.2557 46.2022 48.3079C46.2514 48.3602 46.3108 48.4017 46.3768 48.43H46.4376C46.5703 48.3616 46.6705 48.2434 46.7163 48.1012C47.2332 46.9435 47.7525 45.7846 48.2742 44.6246C48.4207 44.2958 48.5779 43.9742 48.7101 43.6384C48.7674 43.5375 48.8141 43.4309 48.8494 43.3204C48.9388 43.1024 49.0424 42.888 49.1389 42.67C49.2639 42.3806 49.3854 42.0912 49.5283 41.8089C49.5864 41.7124 49.6355 41.6107 49.6748 41.5052C49.8142 41.1872 49.9678 40.8763 50.0929 40.5512C50.2001 40.3618 50.2537 40.1474 50.3502 39.9544C50.4466 39.7615 50.5002 39.5971 50.5967 39.4328C50.7611 39.1398 50.9076 38.8218 51.0362 38.493Z" fill="white"/>
<path d="M36.7257 29.2711L36.4863 28.753C36.1754 29.4677 35.8753 30.1823 35.5787 30.8969C35.5644 30.8924 35.5515 30.8846 35.5409 30.874C35.5303 30.8634 35.5224 30.8505 35.518 30.8362C35.4215 30.6325 35.3143 30.4288 35.2214 30.2252C33.5539 26.6068 31.896 22.9895 30.2476 19.3735C29.8911 18.5453 29.3351 17.8183 28.6294 17.2571C27.9236 16.696 27.09 16.3183 26.2027 16.1577C25.9312 16.1005 25.6525 16.0862 25.3773 16.0505V16.0183H20.0962C20.0212 16.0183 19.989 16.0362 20.0033 16.1148H20.0533C20.069 16.1414 20.0833 16.1689 20.0962 16.197C20.7108 17.5071 21.323 18.8173 21.9328 20.1274L26.2206 29.3212L31.0122 39.594C32.3271 42.4073 33.6373 45.2205 34.9427 48.0338C34.9674 48.0908 34.9986 48.1447 35.0356 48.1946C35.0599 48.23 35.0924 48.2589 35.1304 48.2789C35.1684 48.2989 35.2106 48.3093 35.2535 48.3093C35.2965 48.3093 35.3387 48.2989 35.3767 48.2789C35.4147 48.2589 35.4472 48.23 35.4715 48.1946C35.5163 48.1318 35.5523 48.0633 35.5787 47.9909C36.0551 47.0047 36.5173 46.0161 36.9651 45.0252C38.1085 42.5764 39.2531 40.1288 40.3989 37.6824C40.4208 37.6398 40.4323 37.5927 40.4323 37.5448C40.4323 37.4969 40.4208 37.4498 40.3989 37.4072C39.1721 34.6892 37.9477 31.9772 36.7257 29.2711Z" fill="white"/>
<path d="M31.27 56.2799C31.3767 56.6399 31.49 57.0166 31.61 57.4099C31.73 57.7966 31.8533 58.1866 31.98 58.5799C32.1133 58.9666 32.2433 59.3499 32.37 59.7299C32.5033 60.1033 32.63 60.4566 32.75 60.7899C32.85 60.4299 32.9467 60.0399 33.04 59.6199C33.1333 59.1933 33.2267 58.7533 33.32 58.2999C33.4133 57.8399 33.5033 57.3733 33.59 56.8999C33.6833 56.4266 33.77 55.9599 33.85 55.4999H35.15C34.9167 56.7533 34.6567 57.9599 34.37 59.1199C34.0833 60.2733 33.7633 61.3766 33.41 62.4299H32.21C31.69 61.0833 31.1867 59.6133 30.7 58.0199C30.4533 58.8266 30.2033 59.5933 29.95 60.3199C29.6967 61.0466 29.4433 61.7499 29.19 62.4299H27.99C27.63 61.3766 27.3067 60.2733 27.02 59.1199C26.74 57.9599 26.4833 56.7533 26.25 55.4999H27.6C27.68 55.9533 27.7633 56.4166 27.85 56.8899C27.9433 57.3633 28.0367 57.8299 28.13 58.2899C28.23 58.7433 28.33 59.1833 28.43 59.6099C28.53 60.0366 28.63 60.4299 28.73 60.7899C28.8567 60.4499 28.9833 60.0933 29.11 59.7199C29.2433 59.3399 29.3733 58.9566 29.5 58.5699C29.6267 58.1766 29.7467 57.7866 29.86 57.3999C29.98 57.0133 30.09 56.6399 30.19 56.2799H31.27ZM37.7311 61.5799C38.1044 61.5799 38.3878 61.5599 38.5811 61.5199V60.1799C38.5144 60.1599 38.4178 60.1399 38.2911 60.1199C38.1644 60.0999 38.0244 60.0899 37.8711 60.0899C37.7378 60.0899 37.6011 60.0999 37.4611 60.1199C37.3278 60.1399 37.2044 60.1766 37.0911 60.2299C36.9844 60.2833 36.8978 60.3599 36.8311 60.4599C36.7644 60.5533 36.7311 60.6733 36.7311 60.8199C36.7311 61.1066 36.8211 61.3066 37.0011 61.4199C37.1811 61.5266 37.4244 61.5799 37.7311 61.5799ZM37.6311 57.0699C38.0311 57.0699 38.3678 57.1199 38.6411 57.2199C38.9144 57.3199 39.1311 57.4599 39.2911 57.6399C39.4578 57.8199 39.5744 58.0399 39.6411 58.2999C39.7144 58.5533 39.7511 58.8333 39.7511 59.1399V62.3099C39.5644 62.3499 39.2811 62.3966 38.9011 62.4499C38.5278 62.5099 38.1044 62.5399 37.6311 62.5399C37.3178 62.5399 37.0311 62.5099 36.7711 62.4499C36.5111 62.3899 36.2878 62.2933 36.1011 62.1599C35.9211 62.0266 35.7778 61.8533 35.6711 61.6399C35.5711 61.4266 35.5211 61.1633 35.5211 60.8499C35.5211 60.5499 35.5778 60.2966 35.6911 60.0899C35.8111 59.8833 35.9711 59.7166 36.1711 59.5899C36.3711 59.4566 36.6011 59.3633 36.8611 59.3099C37.1278 59.2499 37.4044 59.2199 37.6911 59.2199C37.8244 59.2199 37.9644 59.2299 38.1111 59.2499C38.2578 59.2633 38.4144 59.2899 38.5811 59.3299V59.1299C38.5811 58.9899 38.5644 58.8566 38.5311 58.7299C38.4978 58.6033 38.4378 58.4933 38.3511 58.3999C38.2711 58.2999 38.1611 58.2233 38.0211 58.1699C37.8878 58.1166 37.7178 58.0899 37.5111 58.0899C37.2311 58.0899 36.9744 58.1099 36.7411 58.1499C36.5078 58.1899 36.3178 58.2366 36.1711 58.2899L36.0211 57.3099C36.1744 57.2566 36.3978 57.2033 36.6911 57.1499C36.9844 57.0966 37.2978 57.0699 37.6311 57.0699ZM45.5229 62.2699C45.2896 62.3299 44.9862 62.3899 44.6129 62.4499C44.2396 62.5166 43.8296 62.5499 43.3829 62.5499C42.9629 62.5499 42.6096 62.4899 42.3229 62.3699C42.0429 62.2499 41.8162 62.0833 41.6429 61.8699C41.4762 61.6566 41.3562 61.4033 41.2829 61.1099C41.2096 60.8099 41.1729 60.4833 41.1729 60.1299V57.1999H42.3829V59.9399C42.3829 60.4999 42.4629 60.8999 42.6229 61.1399C42.7896 61.3799 43.0762 61.4999 43.4829 61.4999C43.6296 61.4999 43.7829 61.4933 43.9429 61.4799C44.1096 61.4666 44.2329 61.4499 44.3129 61.4299V57.1999H45.5229V62.2699ZM48.883 62.5299C48.523 62.5233 48.223 62.4833 47.983 62.4099C47.7496 62.3366 47.563 62.2333 47.423 62.0999C47.283 61.9599 47.183 61.7899 47.123 61.5899C47.0696 61.3833 47.043 61.1499 47.043 60.8899V54.8699L48.253 54.6699V60.6599C48.253 60.8066 48.263 60.9299 48.283 61.0299C48.3096 61.1299 48.353 61.2166 48.413 61.2899C48.473 61.3566 48.553 61.4099 48.653 61.4499C48.7596 61.4833 48.893 61.5099 49.053 61.5299L48.883 62.5299ZM49.9717 55.8199L51.1817 55.6199V57.1999H53.0417V58.2099H51.1817V60.3399C51.1817 60.7599 51.2484 61.0599 51.3817 61.2399C51.5151 61.4199 51.7417 61.5099 52.0617 61.5099C52.2817 61.5099 52.4751 61.4866 52.6417 61.4399C52.8151 61.3933 52.9517 61.3499 53.0517 61.3099L53.2517 62.2699C53.1117 62.3299 52.9284 62.3899 52.7017 62.4499C52.4751 62.5166 52.2084 62.5499 51.9017 62.5499C51.5284 62.5499 51.2151 62.4999 50.9617 62.3999C50.7151 62.2999 50.5184 62.1566 50.3717 61.9699C50.2251 61.7766 50.1217 61.5466 50.0617 61.2799C50.0017 61.0066 49.9717 60.6966 49.9717 60.3499V55.8199Z" fill="white"/>
</svg>
